# Blender 3.4.1
# www.blender.org
mtllib tris.mtl
o wooden_fence014
v -0.071129 0.015984 -0.076894
v -0.071209 0.017141 0.091220
v 0.155859 0.000136 -0.076677
v 0.227012 1.104785 -0.102327
v 0.155779 0.001293 0.091437
v 0.224356 1.122620 0.140284
v 0.012737 1.130681 0.146713
v 0.013580 1.123438 -0.103255
v -0.071730 0.024693 1.188215
v -0.071810 0.025851 1.356328
v 0.155258 0.008845 1.188432
v 0.230559 1.207581 1.162104
v 0.155178 0.010002 1.356545
v 0.231681 1.200276 1.408786
v 0.016163 1.211680 1.407542
v 0.022121 1.225433 1.160812
v -0.070505 0.006950 -1.389186
v -0.070585 0.008107 -1.221073
v 0.156483 -0.008898 -1.388969
v 0.228481 1.141268 -1.415018
v 0.156403 -0.007741 -1.220856
v 0.229195 1.130078 -1.168507
v 0.013769 1.141476 -1.169759
v 0.019863 1.159141 -1.416315
v -0.034918 0.504835 0.064874
v -0.026544 0.624997 0.080542
v -0.092760 0.508873 0.064819
v -0.084385 0.629035 0.080486
v -0.048956 0.698965 -1.472664
v -0.011579 0.818300 -1.455598
v -0.069420 0.822339 -1.455654
v -0.040745 0.835669 -0.077576
v -0.079976 0.690282 -0.057716
v -0.022135 0.686244 -0.057660
v -0.063420 0.947185 1.385707
v -0.073459 0.803580 1.398787
v -0.005578 0.943146 1.385763
v -0.015617 0.799541 1.398842
v -0.098767 0.769669 -1.289622
v -0.100407 0.716224 -1.289403
v -0.035581 0.737043 -1.308823
v -0.097971 0.750426 -1.339503
v -0.069310 0.425478 -0.154579
v -0.106775 0.305056 -0.159479
v -0.048934 0.301017 -0.159423
v -0.107632 0.314205 1.405049
v -0.116082 0.193119 1.400448
v -0.049791 0.310167 1.405105
v -0.058241 0.189081 1.400503
v -0.063062 0.101553 0.051655
v -0.052286 0.256090 0.065810
v -0.120904 0.105591 0.051600
v -0.110128 0.260128 0.065755
v -0.052241 0.235267 -1.502186
v -0.110082 0.239306 -1.502241
v -0.070204 0.394173 -1.506111
v -0.133720 0.269035 -1.290736
v -0.130288 0.287533 -1.340788
v -0.066625 0.292390 -1.310190
v -0.127916 0.322189 -1.290998
v -0.098118 0.796587 -0.003180
v -0.095629 0.802989 0.049848
v -0.034118 0.776296 0.027117
v -0.099351 0.749301 0.021751
v -0.129339 0.336417 0.037855
v -0.128047 0.337682 -0.023388
v -0.064383 0.342539 0.007211
v -0.127137 0.381105 0.007802
v -0.094970 0.858721 1.242335
v -0.089703 0.904560 1.269358
v -0.028867 0.868556 1.273308
v -0.093560 0.849674 1.295016
v -0.134381 0.294748 1.278490
v -0.135452 0.249832 1.307481
v -0.071626 0.256193 1.277504
v -0.135265 0.251689 1.246800
v -0.112875 0.585615 0.024864
v -0.113140 0.551283 -0.016128
v -0.047932 0.577939 -0.009036
v -0.108924 0.611589 -0.021707
v -0.140912 0.183940 0.017665
v -0.140003 0.166302 -0.032804
v -0.075119 0.188463 -0.015144
v -0.135943 0.224673 -0.016616
vn 0.0106 0.1383 -0.9903
vn 0.2884 -0.0049 0.9575
vn 0.0976 -0.8242 -0.5579
vn 0.3511 0.8754 -0.3321
vn -0.9991 0.0305 -0.0277
vn -0.9971 0.0758 -0.0037
vn 0.2258 -0.9187 -0.3240
vn 0.2108 0.7976 -0.5652
vn 0.2869 -0.0266 0.9576
vn -0.9937 0.1084 -0.0281
vn 0.3545 0.9262 -0.1284
vn 0.1211 -0.4668 0.8760
vn 0.2587 -0.4558 -0.8517
vn -0.9980 0.0477 0.0411
vn 0.3250 0.5167 0.7921
vn 0.0850 -0.9962 -0.0188
vn 0.3286 0.5464 -0.7704
vn -0.9992 0.0355 -0.0204
vn 0.3221 0.4530 -0.8313
vn 0.1821 0.4059 0.8956
vn 0.2228 -0.9598 -0.1708
vn -0.9951 0.0896 0.0420
vn 0.3243 0.5075 0.7983
vn 0.0851 -0.9959 -0.0302
vn 0.3292 0.5553 -0.7637
vn -0.9997 0.0223 -0.0024
vn 0.2370 -0.7455 0.6229
vn 0.1484 -0.1014 -0.9837
vn 0.3455 0.8068 0.4793
vn -0.9967 0.0652 -0.0482
vn 0.2252 -0.9185 0.3250
vn 0.1731 0.2520 -0.9521
vn 0.3297 0.5840 0.7417
vn -0.9955 0.0822 -0.0467
vn 0.0008 -0.0236 -0.9997
vn 0.0116 -0.0474 0.9988
vn 0.9980 -0.0627 0.0095
vn 0.0620 0.9968 -0.0503
vn -0.9970 0.0761 -0.0122
vn 0.0017 -0.0225 -0.9997
vn -0.0060 -0.0431 0.9991
vn 0.9980 -0.0634 -0.0034
vn 0.0685 0.9967 0.0432
vn -0.9970 0.0763 -0.0118
vn 0.0017 -0.0232 -0.9997
vn -0.0061 -0.0452 0.9990
vn 0.9980 -0.0631 -0.0031
vn 0.0684 0.9959 0.0590
vn -0.9986 -0.0462 -0.0249
vn 0.9826 -0.1846 -0.0230
vn -0.0099 -0.1286 0.9916
vn -0.0690 -0.9898 -0.1243
vn 0.0690 0.9897 0.1252
vn 0.9995 0.0274 -0.0163
vn 0.0695 0.9948 -0.0747
vn -0.0695 -0.9946 0.0777
vn -0.9860 0.1660 -0.0182
vn 0.0054 0.0903 0.9959
vn 0.9988 0.0485 0.0003
vn -0.0083 -0.1331 -0.9911
vn 0.0694 0.9949 0.0727
vn -0.0694 -0.9950 -0.0718
vn -0.9824 0.1868 -0.0016
vn -0.0036 -0.0377 0.9993
vn -0.9868 0.1616 -0.0022
vn 0.0037 0.0395 -0.9992
vn 0.9997 0.0229 -0.0003
vn -0.0693 -0.9939 -0.0860
vn -0.0073 -0.0907 0.9959
vn 0.0693 0.9938 0.0865
vn -0.0008 -0.0248 -0.9997
vt 0.156626 0.028692
vt 0.160256 0.036214
vt 0.155477 0.028741
vt 0.148203 0.028816
vt 0.160745 0.036214
vt 0.155477 0.020942
vt 0.160745 0.029071
vt 0.155477 0.028091
vt 0.222911 0.716378
vt 0.148692 0.028816
vt 0.154329 0.020893
vt 0.148692 0.036026
vt 0.154344 0.028110
vt 0.216126 0.724313
vt 0.155492 0.021524
vt 0.148202 0.036026
vt 0.222926 0.709812
vt 0.156626 0.021544
vt 0.160256 0.029071
vt 0.227689 0.717359
vt 0.156626 0.028692
vt 0.160256 0.036214
vt 0.155477 0.028741
vt 0.148203 0.028816
vt 0.160745 0.036214
vt 0.155477 0.020942
vt 0.160745 0.029071
vt 0.155477 0.028091
vt 0.222973 0.720311
vt 0.148692 0.028816
vt 0.154329 0.020893
vt 0.148692 0.036026
vt 0.154344 0.028110
vt 0.216188 0.728246
vt 0.155492 0.021524
vt 0.148202 0.036026
vt 0.222988 0.713745
vt 0.156626 0.021544
vt 0.160256 0.029071
vt 0.227751 0.721292
vt 0.156626 0.028692
vt 0.160256 0.036214
vt 0.155477 0.028741
vt 0.148203 0.028816
vt 0.160745 0.036214
vt 0.155477 0.020942
vt 0.160745 0.029071
vt 0.155477 0.028091
vt 0.221047 0.715815
vt 0.148692 0.028816
vt 0.154329 0.020893
vt 0.148692 0.036026
vt 0.154344 0.028110
vt 0.214262 0.723751
vt 0.155492 0.021524
vt 0.148202 0.036026
vt 0.221062 0.709249
vt 0.156626 0.021544
vt 0.160256 0.029071
vt 0.225825 0.716796
vt 0.029710 0.018075
vt 0.032937 0.026946
vt 0.039028 0.018075
vt 0.028752 0.018098
vt 0.032937 0.027970
vt 0.039959 0.027412
vt 0.030667 0.018075
vt 0.032627 0.026946
vt 0.038717 0.018075
vt 0.029710 0.018098
vt 0.032627 0.027970
vt 0.039648 0.027412
vt 0.032782 0.026946
vt 0.029710 0.027544
vt 0.038872 0.027539
vt 0.032937 0.025923
vt 0.028757 0.027440
vt 0.039959 0.018075
vt 0.032627 0.025923
vt 0.029714 0.027440
vt 0.039648 0.018075
vt 0.028757 0.027440
vt 0.039803 0.018075
vt 0.029714 0.027440
vt 0.032782 0.025923
vt 0.038717 0.027539
vt 0.030667 0.027544
vt 0.032627 0.026946
vt 0.029710 0.027544
vt 0.039028 0.027539
vt 0.032937 0.026946
vt 0.039648 0.027412
vt 0.029710 0.018098
vt 0.032627 0.027970
vt 0.038717 0.018075
vt 0.030667 0.018075
vt 0.032627 0.026946
vt 0.028752 0.018098
vt 0.039959 0.027412
vt 0.032937 0.027970
vt 0.029710 0.018075
vt 0.039028 0.018075
vt 0.032937 0.026946
vt 0.341986 0.093466
vt 0.339593 0.096344
vt 0.343647 0.092098
vt 0.340429 0.093466
vt 0.342587 0.093466
vt 0.338272 0.095326
vt 0.342587 0.096571
vt 0.341473 0.091414
vt 0.028757 0.027440
vt 0.039803 0.018075
vt 0.029714 0.027440
vt 0.032782 0.025923
vt 0.038717 0.027539
vt 0.030667 0.027544
vt 0.032627 0.026946
vt 0.029710 0.027544
vt 0.039028 0.027539
vt 0.032937 0.026946
vt 0.039648 0.027412
vt 0.029710 0.018098
vt 0.032627 0.027970
vt 0.038717 0.018075
vt 0.030667 0.018075
vt 0.032627 0.026946
vt 0.028752 0.018098
vt 0.039959 0.027412
vt 0.032937 0.027970
vt 0.029710 0.018075
vt 0.039028 0.018075
vt 0.032937 0.026946
vt 0.029710 0.018075
vt 0.039028 0.018075
vt 0.032937 0.026946
vt 0.028752 0.018098
vt 0.032937 0.027970
vt 0.039959 0.027412
vt 0.030667 0.018075
vt 0.038717 0.018075
vt 0.032627 0.026946
vt 0.029710 0.018098
vt 0.032627 0.027970
vt 0.039648 0.027412
vt 0.029710 0.027544
vt 0.039028 0.027539
vt 0.032937 0.026946
vt 0.030667 0.027544
vt 0.038717 0.027539
vt 0.032627 0.026946
vt 0.029714 0.027440
vt 0.028757 0.027440
vt 0.039803 0.018075
vt 0.032782 0.025923
vt 0.341986 0.093466
vt 0.339593 0.096344
vt 0.343647 0.092098
vt 0.340429 0.093466
vt 0.342587 0.093466
vt 0.338272 0.095326
vt 0.342587 0.096571
vt 0.341473 0.091414
vt 0.341986 0.093466
vt 0.339593 0.096344
vt 0.343647 0.092098
vt 0.340429 0.093466
vt 0.342587 0.093466
vt 0.338272 0.095326
vt 0.342587 0.096571
vt 0.341473 0.091414
vt 0.339948 0.099222
vt 0.341473 0.092782
vt 0.339593 0.096344
vt 0.343647 0.092098
vt 0.341621 0.096571
vt 0.342587 0.093466
vt 0.340429 0.093466
vt 0.341621 0.099677
vt 0.338272 0.095326
vt 0.341986 0.090730
vt 0.341986 0.093466
vt 0.339593 0.096344
vt 0.343647 0.092098
vt 0.340429 0.093466
vt 0.342587 0.093466
vt 0.338272 0.095326
vt 0.342587 0.096571
vt 0.341473 0.091414
vt 0.341986 0.093466
vt 0.339593 0.096344
vt 0.343647 0.092098
vt 0.340429 0.093466
vt 0.342587 0.093466
vt 0.338272 0.095326
vt 0.342587 0.096571
vt 0.341473 0.091414
vt 0.341986 0.093466
vt 0.339593 0.096344
vt 0.343647 0.092098
vt 0.340429 0.093466
vt 0.342587 0.093466
vt 0.338272 0.095326
vt 0.342587 0.096571
vt 0.341473 0.091414
vt 0.341986 0.093466
vt 0.339593 0.096344
vt 0.343647 0.092098
vt 0.340429 0.093466
vt 0.342587 0.093466
vt 0.338272 0.095326
vt 0.342587 0.096571
vt 0.341473 0.091414
s 0
usemtl world_001.003
f 30/76/1 29/73/1 31/79/1
f 41/108/2 39/104/2 40/105/2
f 41/107/3 40/105/3 42/109/3
f 41/108/4 42/110/4 39/104/4
f 40/106/5 39/104/5 42/111/5
f 8/18/6 1/1/6 2/3/6 7/15/6
f 59/160/7 57/156/7 58/157/7
f 59/159/8 58/157/8 60/161/8
f 59/160/9 60/162/9 57/156/9
f 58/158/10 57/156/10 60/163/10
f 63/168/11 61/164/11 62/165/11
f 63/167/12 62/165/12 64/169/12
f 63/168/13 64/170/13 61/164/13
f 62/166/14 61/164/14 64/171/14
f 67/176/15 68/179/15 65/172/15
f 67/177/16 65/173/16 66/174/16
f 67/178/17 66/174/17 68/180/17
f 66/175/18 65/173/18 68/181/18
f 71/186/19 69/182/19 70/183/19
f 71/185/20 70/183/20 72/187/20
f 71/186/21 72/188/21 69/182/21
f 70/184/22 69/182/22 72/189/22
f 75/194/23 73/190/23 74/191/23
f 75/193/24 74/191/24 76/195/24
f 75/194/25 76/196/25 73/190/25
f 74/192/26 73/190/26 76/197/26
f 79/202/27 77/198/27 78/199/27
f 79/201/28 78/199/28 80/203/28
f 79/202/29 80/204/29 77/198/29
f 78/200/30 77/198/30 80/205/30
f 83/210/31 81/206/31 82/207/31
f 83/209/32 82/207/32 84/211/32
f 83/210/33 84/212/33 81/206/33
f 82/208/34 81/206/34 84/213/34
f 3/5/35 1/2/35 8/19/35 4/7/35
f 5/10/36 6/12/36 7/16/36 2/4/36
f 5/11/37 3/6/37 4/8/37 6/13/37
f 8/20/38 7/17/38 6/14/38 4/9/38
f 15/35/39 16/38/39 9/21/39 10/23/39
f 11/25/40 9/22/40 16/39/40 12/27/40
f 14/32/41 15/36/41 10/24/41 13/30/41
f 14/33/42 13/31/42 11/26/42 12/28/42
f 16/40/43 15/37/43 14/34/43 12/29/43
f 23/55/44 24/58/44 17/41/44 18/43/44
f 19/45/45 17/42/45 24/59/45 20/47/45
f 22/52/46 23/56/46 18/44/46 21/50/46
f 22/53/47 21/51/47 19/46/47 20/48/47
f 24/60/48 23/57/48 22/54/48 20/49/48
f 31/80/49 29/73/49 27/67/49 28/70/49
f 25/61/50 29/74/50 30/77/50 26/64/50
f 25/62/51 26/65/51 28/71/51 27/68/51
f 25/63/52 27/69/52 29/75/52
f 30/78/53 31/81/53 28/72/53 26/66/53
f 37/98/54 38/101/54 34/89/54 32/82/54
f 35/92/55 37/99/55 32/83/55
f 33/86/56 34/90/56 38/102/56 36/95/56
f 35/93/57 32/84/57 33/87/57 36/96/57
f 38/103/58 37/100/58 35/94/58 36/97/58
f 48/128/59 49/131/59 45/119/59 43/112/59
f 34/91/60 33/88/60 32/85/60
f 46/122/61 48/129/61 43/113/61
f 44/116/62 45/120/62 49/132/62 47/125/62
f 46/123/63 43/114/63 44/117/63 47/126/63
f 49/133/64 48/130/64 46/124/64 47/127/64
f 53/143/65 56/152/65 55/149/65 52/140/65
f 45/121/66 44/118/66 43/115/66
f 51/137/67 50/134/67 54/146/67 56/153/67
f 55/150/68 54/147/68 50/135/68 52/141/68
f 50/136/69 51/138/69 53/144/69 52/142/69
f 53/145/70 51/139/70 56/154/70
f 56/155/71 54/148/71 55/151/71
