# Blender 3.4.1
# www.blender.org
mtllib tris.mtl
o Chair_01
v -0.002451 -0.000000 0.002478
v -0.002339 0.004778 0.002323
v -0.002451 -0.000000 0.002010
v -0.002339 0.004778 0.001855
v -0.001984 -0.000000 0.002478
v -0.001871 0.004778 0.002323
v -0.001984 -0.000000 0.002010
v -0.001871 0.004778 0.001855
v 0.002451 -0.000000 0.002478
v 0.002339 0.004778 0.002323
v 0.002451 -0.000000 0.002010
v 0.002339 0.004778 0.001855
v 0.001984 -0.000000 0.002478
v 0.001871 0.004778 0.002323
v 0.001984 -0.000000 0.002010
v 0.001871 0.004778 0.001855
v -0.002451 0.000000 -0.002478
v -0.002339 0.004778 -0.002323
v -0.002451 0.000000 -0.002010
v -0.002339 0.004778 -0.001855
v -0.001984 0.000000 -0.002478
v -0.001871 0.004778 -0.002323
v -0.001984 0.000000 -0.002010
v -0.001871 0.004778 -0.001855
v 0.002451 0.000000 -0.002478
v 0.002339 0.004778 -0.002323
v 0.002451 0.000000 -0.002010
v 0.002339 0.004778 -0.001855
v 0.001984 0.000000 -0.002478
v 0.001871 0.004778 -0.002323
v 0.001984 0.000000 -0.002010
v 0.001871 0.004778 -0.001855
v -0.002299 0.003493 0.002176
v -0.002299 0.003868 0.002176
v -0.002299 0.003493 -0.002176
v -0.002299 0.003868 -0.002176
v -0.001925 0.003493 0.002176
v -0.001925 0.003868 0.002176
v -0.001925 0.003493 -0.002176
v -0.001925 0.003868 -0.002176
v 0.002299 0.003493 0.002176
v 0.002299 0.003868 0.002176
v 0.002299 0.003493 -0.002176
v 0.002299 0.003868 -0.002176
v 0.001925 0.003493 0.002176
v 0.001925 0.003868 0.002176
v 0.001925 0.003493 -0.002176
v 0.001925 0.003868 -0.002176
v 0.002176 0.004400 0.002270
v 0.002176 0.004774 0.002270
v -0.002176 0.004400 0.002270
v -0.002176 0.004774 0.002270
v 0.002176 0.004400 0.001896
v 0.002176 0.004774 0.001896
v -0.002176 0.004400 0.001896
v -0.002176 0.004774 0.001896
v 0.002176 0.004400 -0.002270
v 0.002176 0.004774 -0.002270
v -0.002176 0.004400 -0.002270
v -0.002176 0.004774 -0.002270
v 0.002176 0.004400 -0.001896
v 0.002176 0.004774 -0.001896
v -0.002176 0.004400 -0.001896
v -0.002176 0.004774 -0.001896
v -0.002627 0.004762 0.002401
v -0.002627 0.005074 0.002401
v -0.002627 0.004762 -0.002428
v -0.002627 0.005074 -0.002428
v 0.002627 0.004762 0.002401
v 0.002627 0.005074 0.002401
v 0.002627 0.004762 -0.002428
v 0.002627 0.005074 -0.002428
v -0.002627 0.004762 -0.002031
v -0.002627 0.005074 -0.002031
v 0.002627 0.004762 -0.002031
v 0.002627 0.005074 -0.002031
v -0.002627 0.010111 -0.002467
v -0.002627 0.010111 -0.002865
v 0.002627 0.010111 -0.002865
v 0.002627 0.010111 -0.002467
v -0.002627 0.004508 0.002818
v -0.002627 0.004800 0.002926
v 0.002627 0.004800 0.002926
v 0.002627 0.004508 0.002818
vn -0.9997 0.0235 -0.0000
vn -0.0000 -0.0325 -0.9995
vn 0.9997 -0.0235 -0.0000
vn -0.0000 0.0325 0.9995
vn -0.0000 -1.0000 -0.0000
vn -0.0000 1.0000 -0.0000
vn 0.9997 0.0235 -0.0000
vn -0.9997 -0.0235 -0.0000
vn -0.0000 -0.0325 0.9995
vn -0.0000 0.0325 -0.9995
vn -1.0000 -0.0000 -0.0000
vn -0.0000 -0.0000 -1.0000
vn 1.0000 -0.0000 -0.0000
vn -0.0000 -0.0000 1.0000
vn -0.0000 0.8869 0.4619
vn -0.0000 -0.0864 -0.9963
vn -0.0000 0.0864 0.9963
vn -0.0000 -0.3460 0.9382
vn -0.0000 -0.8539 -0.5204
vt 0.212885 0.022430
vt 0.213053 0.029592
vt 0.212885 0.022430
vt 0.213053 0.029592
vt 0.213586 0.022430
vt 0.213754 0.029592
vt 0.213586 0.022430
vt 0.213754 0.029592
vt 0.220233 0.022430
vt 0.220065 0.029592
vt 0.220233 0.022430
vt 0.220065 0.029592
vt 0.219532 0.022430
vt 0.219364 0.029592
vt 0.219532 0.022430
vt 0.219364 0.029592
vt 0.212885 0.022430
vt 0.213053 0.029592
vt 0.212885 0.022430
vt 0.213053 0.029592
vt 0.213586 0.022430
vt 0.213754 0.029592
vt 0.213586 0.022430
vt 0.213754 0.029592
vt 0.220233 0.022430
vt 0.220065 0.029592
vt 0.220233 0.022430
vt 0.220065 0.029592
vt 0.219532 0.022430
vt 0.219364 0.029592
vt 0.219532 0.022430
vt 0.219364 0.029592
vt 0.213114 0.027666
vt 0.213114 0.028226
vt 0.213114 0.027666
vt 0.213114 0.028226
vt 0.213675 0.027666
vt 0.213675 0.028226
vt 0.213675 0.027666
vt 0.213675 0.028226
vt 0.220005 0.027666
vt 0.220005 0.028226
vt 0.220005 0.027666
vt 0.220005 0.028226
vt 0.219444 0.027666
vt 0.219444 0.028226
vt 0.219444 0.027666
vt 0.219444 0.028226
vt 0.219821 0.029025
vt 0.219821 0.029585
vt 0.213297 0.029025
vt 0.213297 0.029585
vt 0.219821 0.029025
vt 0.219821 0.029585
vt 0.213297 0.029025
vt 0.213297 0.029585
vt 0.219821 0.029025
vt 0.219821 0.029585
vt 0.213297 0.029025
vt 0.213297 0.029585
vt 0.219821 0.029025
vt 0.219821 0.029585
vt 0.213297 0.029025
vt 0.213297 0.029585
vt 0.958266 0.172185
vt 0.958266 0.172652
vt 0.958266 0.172185
vt 0.958266 0.172652
vt 0.966141 0.172185
vt 0.966141 0.172652
vt 0.966141 0.172185
vt 0.966141 0.172652
vt 0.958266 0.172185
vt 0.958266 0.172652
vt 0.966141 0.172185
vt 0.966141 0.172652
vt 0.958266 0.180202
vt 0.958266 0.180202
vt 0.966141 0.180202
vt 0.966141 0.180202
vt 0.958266 0.171804
vt 0.958266 0.172243
vt 0.966141 0.172243
vt 0.966141 0.171804
s 1
usemtl City_05.010
f 1/1/1 2/2/1 3/3/1
f 3/3/1 2/2/1 4/4/1
f 3/3/2 4/4/2 7/7/2
f 7/7/2 4/4/2 8/8/2
f 8/8/3 6/6/3 7/7/3
f 7/7/3 6/6/3 5/5/3
f 6/6/4 2/2/4 5/5/4
f 5/5/4 2/2/4 1/1/4
f 3/3/5 7/7/5 1/1/5
f 1/1/5 7/7/5 5/5/5
f 8/8/6 4/4/6 6/6/6
f 6/6/6 4/4/6 2/2/6
f 9/9/7 11/11/7 10/10/7
f 10/10/7 11/11/7 12/12/7
f 11/11/2 15/15/2 12/12/2
f 12/12/2 15/15/2 16/16/2
f 13/13/8 14/14/8 15/15/8
f 15/15/8 14/14/8 16/16/8
f 9/9/4 10/10/4 13/13/4
f 13/13/4 10/10/4 14/14/4
f 11/11/5 9/9/5 15/15/5
f 15/15/5 9/9/5 13/13/5
f 16/16/6 14/14/6 12/12/6
f 12/12/6 14/14/6 10/10/6
f 17/17/1 19/19/1 18/18/1
f 18/18/1 19/19/1 20/20/1
f 19/19/9 23/23/9 20/20/9
f 20/20/9 23/23/9 24/24/9
f 21/21/3 22/22/3 23/23/3
f 23/23/3 22/22/3 24/24/3
f 17/17/10 18/18/10 21/21/10
f 21/21/10 18/18/10 22/22/10
f 19/19/5 17/17/5 23/23/5
f 23/23/5 17/17/5 21/21/5
f 24/24/6 22/22/6 20/20/6
f 20/20/6 22/22/6 18/18/6
f 25/25/7 26/26/7 27/27/7
f 27/27/7 26/26/7 28/28/7
f 27/27/9 28/28/9 31/31/9
f 31/31/9 28/28/9 32/32/9
f 32/32/8 30/30/8 31/31/8
f 31/31/8 30/30/8 29/29/8
f 30/30/10 26/26/10 29/29/10
f 29/29/10 26/26/10 25/25/10
f 27/27/5 31/31/5 25/25/5
f 25/25/5 31/31/5 29/29/5
f 32/32/6 28/28/6 30/30/6
f 30/30/6 28/28/6 26/26/6
f 33/33/11 34/34/11 35/35/11
f 35/35/11 34/34/11 36/36/11
f 35/35/12 36/36/12 39/39/12
f 39/39/12 36/36/12 40/40/12
f 39/39/13 40/40/13 37/37/13
f 37/37/13 40/40/13 38/38/13
f 37/37/14 38/38/14 33/33/14
f 33/33/14 38/38/14 34/34/14
f 35/35/5 39/39/5 33/33/5
f 33/33/5 39/39/5 37/37/5
f 40/40/6 36/36/6 38/38/6
f 38/38/6 36/36/6 34/34/6
f 41/41/13 43/43/13 42/42/13
f 42/42/13 43/43/13 44/44/13
f 43/43/12 47/47/12 44/44/12
f 44/44/12 47/47/12 48/48/12
f 47/47/11 45/45/11 48/48/11
f 48/48/11 45/45/11 46/46/11
f 45/45/14 41/41/14 46/46/14
f 46/46/14 41/41/14 42/42/14
f 43/43/5 41/41/5 47/47/5
f 47/47/5 41/41/5 45/45/5
f 48/48/6 46/46/6 44/44/6
f 44/44/6 46/46/6 42/42/6
f 49/49/14 50/50/14 51/51/14
f 51/51/14 50/50/14 52/52/14
f 51/51/11 52/52/11 55/55/11
f 55/55/11 52/52/11 56/56/11
f 55/55/12 56/56/12 53/53/12
f 53/53/12 56/56/12 54/54/12
f 53/53/13 54/54/13 49/49/13
f 49/49/13 54/54/13 50/50/13
f 51/51/5 55/55/5 49/49/5
f 49/49/5 55/55/5 53/53/5
f 56/56/6 52/52/6 54/54/6
f 54/54/6 52/52/6 50/50/6
f 57/57/12 59/59/12 58/58/12
f 58/58/12 59/59/12 60/60/12
f 59/59/11 63/63/11 60/60/11
f 60/60/11 63/63/11 64/64/11
f 63/63/14 61/61/14 64/64/14
f 64/64/14 61/61/14 62/62/14
f 61/61/13 57/57/13 62/62/13
f 62/62/13 57/57/13 58/58/13
f 59/59/5 57/57/5 63/63/5
f 63/63/5 57/57/5 61/61/5
f 64/64/6 62/62/6 60/60/6
f 60/60/6 62/62/6 58/58/6
f 73/73/11 74/74/11 67/67/11
f 67/67/11 74/74/11 68/68/11
f 67/67/12 68/68/12 71/71/12
f 71/71/12 68/68/12 72/72/12
f 75/75/13 76/76/13 69/69/13
f 69/69/13 76/76/13 70/70/13
f 70/70/15 66/66/15 83/83/15
f 83/83/15 66/66/15 82/82/15
f 73/73/5 75/75/5 65/65/5
f 65/65/5 75/75/5 69/69/5
f 76/76/6 74/74/6 70/70/6
f 70/70/6 74/74/6 66/66/6
f 76/76/13 72/72/13 80/80/13
f 80/80/13 72/72/13 79/79/13
f 67/67/5 71/71/5 73/73/5
f 73/73/5 71/71/5 75/75/5
f 71/71/13 72/72/13 75/75/13
f 75/75/13 72/72/13 76/76/13
f 65/65/11 66/66/11 73/73/11
f 73/73/11 66/66/11 74/74/11
f 79/79/6 78/78/6 80/80/6
f 80/80/6 78/78/6 77/77/6
f 74/74/11 77/77/11 68/68/11
f 68/68/11 77/77/11 78/78/11
f 72/72/16 68/68/16 79/79/16
f 79/79/16 68/68/16 78/78/16
f 74/74/17 76/76/17 77/77/17
f 77/77/17 76/76/17 80/80/17
f 84/84/18 83/83/18 81/81/18
f 81/81/18 83/83/18 82/82/18
f 70/70/13 83/83/13 69/69/13
f 69/69/13 83/83/13 84/84/13
f 66/66/11 65/65/11 82/82/11
f 82/82/11 65/65/11 81/81/11
f 65/65/19 69/69/19 81/81/19
f 81/81/19 69/69/19 84/84/19
