v 0.892402 -0.000343 -0.019995
v 0.62574 -0.000342 0.601975
v 0.024139 -0.000342 0.942415
v -0.636889 -0.000342 0.707606
v -0.949366 -0.000343 0.055732
v -0.703461 -0.000343 -0.586876
v -0.64548 0.489405 -0.534567
v -0.070008 -0.000343 -0.888258
v 0.59102 -0.000343 -0.653448
v 0.504402 1.765288 0.502829
v 0.686356 1.765288 -0.009399
v 0.013542 1.765288 0.736368
v -0.498685 1.765288 0.554415
v -0.732224 1.765288 0.063556
v -0.550272 1.765288 -0.448672
v -0.059408 1.710141 -0.682253
v 0.452816 1.765288 -0.500259
v 0.599611 1.765288 0.588724
v 0.814415 1.765288 -0.015985
v -0.58458 1.765288 0.649624
v -0.860284 1.765288 0.070141
v 0.538711 1.765288 -0.595467
v -0.063427 2.606838 -0.760294
v -0.420719 2.354725 -0.590303
v 0.309418 2.354725 -0.627853
v -0.059367 2.606839 -0.681336
v -0.362016 2.354725 -0.537343
v 0.256457 2.354725 -0.56915
v 0.504402 1.710145 0.502829
v 0.686356 1.710144 -0.009399
v 0.013542 1.710145 0.736368
v -0.498685 1.710144 0.554415
v -0.732224 1.710144 0.063556
v -0.550272 1.710144 -0.448672
v 0.452816 1.710144 -0.500259
v 0.020129 1.765288 0.864428
v -0.64548 1.765288 -0.534567
v 0.599611 0.942201 0.588724
v 0.814415 0.942201 -0.015985
v 0.599611 1.353744 0.588724
v -0.58458 0.489406 0.649624
v -0.065998 0.489406 -0.810271
v 0.814415 1.353744 -0.015985
v 1.150366 1.432433 0.294817
v 1.150366 1.272419 0.294817
v 1.050846 1.272419 0.574984
v 1.050846 1.432433 0.574984
v 1.164671 1.475168 0.254547
v 1.036541 1.229684 0.615254
v 1.036541 1.475168 0.615254
v 1.09272 1.415009 0.27434
v 1.09272 1.254996 0.27434
v 0.993199 1.254996 0.554507
v 0.993199 1.41501 0.554507
vn -2e-06 -1 1e-06
vn 0 -1 1e-06
vn -0 -1 0
vn 0 -1 1e-06
vn 0 -1 1e-06
vn 0 -1 0
vn -0.7750611 0.095342 -0.624652
vn 0 -1 1e-06
vn 0.5551261 0.156016 -0.8170031
vn -0.6438932 0 -0.7651153
vn -0.9963195 0 -0.08571696
vn 0 1 0
vn 0 1 0
vn 0 1 0
vn 0.03608451 0.348244 0.9367091
vn -0.001535 0.9976051 -0.06915001
vn -0.1450816 0.3055164 0.9410691
vn 0.8271319 0 0.562008
vn 0 1 0
vn -0.6698571 0 0.7424901
vn -0.9986802 0 0.05136001
vn 0.553267 0.161263 -0.8172452
vn -0.04619265 0.437188 -0.898183
vn -0.5784087 0.5043797 0.6411276
vn 0.6411231 0.504379 0.5784141
vn 0.04737017 0.3862769 0.9211656
vn -0.2370169 0.5162333 0.8229983
vn 0.3201882 0.5162309 0.7943457
vn -0.827131 0 -0.562009
vn -0.9822701 0 0.187471
vn -0.18747 0 -0.9822703
vn -0.041922 0.9977979 0.05140099
vn 0.9822701 0 -0.187471
vn 0.8271435 0 0.5619906
vn -0.6698834 0 0.7424664
vn 0.187471 0 0.9822702
vn -0.4611973 0.8872801 -0.005589002
vn 0.6665409 -0.2937399 0.6851568
vn 0.9411792 -0.19968 -0.2725981
vn 0.3763149 0 0.9264917
vn -0.6689258 0.05269698 0.7414588
vn 0.007344003 0.06764403 -0.9976825
vn -0.261362 0.960766 -0.092841
vn 0.8678788 -0.3895429 0.3082899
vn 0.9423127 4.999998e-06 0.3347339
vn 0.9423138 9.999998e-07 0.334731
vn 0.33472 0 -0.942318
vn 0.9922794 -1e-06 0.124023
vn 0.700901 -0.178739 0.6905
vn -0.261362 0.960766 -0.092841
vn -0.3347271 0 0.9423152
vn 0.9423141 0 0.33473
vn 0.942314 0 0.33473
vn 0.8678788 -0.3895429 0.3082899
vn 0.9736281 0.1564 -0.166094
vn 0.739612 0.10408 0.6649371
vn 0.085783 0.157363 0.983808
vn -0.660816 0.158455 0.733631
vn -0.9812026 0.1699629 -0.09139996
vn -0.725158 0.157449 -0.67034
vn -0.185175 0.156016 -0.9702419
vn -1e-06 -1 1e-06
vn 0 1 0
vn 0 1 0
vn 0.08571596 0 -0.9963196
vn 0.7651148 0 -0.6438939
vn 0.9963197 0 0.08571498
vn 0.051357 -0.000828 0.9986801
vn 0 1 0
vn 0.9822703 0 -0.18747
vn 0 1 0
vn -1e-06 1 0
vn 0.4581893 0.887281 -0.05286864
vn 0.005498258 0.9942492 0.1069503
vn -0.4441749 0.06613499 -0.8934959
vn 0.3501729 0.06613298 -0.9343476
vn 0.02628743 0.8590545 0.5112086
vn 0.04956998 0.9977955 0.04412397
vn 0.06884601 0.9976211 -0.003542
vn 0.002929001 0.9973805 0.07227504
vn 0.562009 0 -0.827131
vn -0.06344797 0.9979206 0.011353
vn -0.04540299 0.9977648 -0.04902999
vn 0.04858599 0.9976277 -0.04876699
vn 0 1 0
vn -0.634185 0.161263 -0.7561771
vn -0.2613619 0.9607657 -0.09284097
vn 0.9406501 0 -0.339378
vn -0.334727 0 0.942315
vn -0.3347271 0 0.9423152
vn -0.2581122 0.9617546 -0.09168606
vn -0.25811 0.961755 -0.091684
vn 0.3347199 0 -0.9423177
vn 0.867879 -0.389541 0.308292
vn -0.2613619 0.9607657 -0.09284097
vn 0.7380381 4e-06 0.6747591
vn 0.5907592 -0.7790803 0.2098511
vn -0.334727 -0 0.942315
vn -0.258115 0.961754 -0.091688
vn -0.2581122 0.9617546 -0.09168606
vn 0.33472 0 -0.942318
vn 0.3347199 0 -0.9423177
vt 0.383076 0.000998
vt 0.491554 0.047507
vt 0.550931 0.152432
vt 0.509977 0.267722
vt 0.396284 0.322222
vt 0.284206 0.279333
vt 0.011057 0.370301
vt 0.231642 0.168852
vt 0.226715 0.455718
vt 0.453332 0.633943
vt 0.453332 0.7232801
vt 0.187512 0.5972871
vt 0.219247 0.686625
vt 0.304858 0.727356
vt 0.394196 0.695622
vt 0.11829 0.999002
vt 0.453332 0.808892
vt 0.560832 0.308943
vt 0.318731 0.457606
vt 0.662527 0.618775
vt 0.538306 0.632054
vt 0.767367 0.308942
vt 0.112573 0.000998
vt 0.467704 0.761286
vt 0.474253 0.633943
vt 0.410165 0.855891
vt 0.458467 0.751048
vt 0.366194 0.8008081
vt 0.438579 0.633943
vt 0.443714 0.7232801
vt 0.438579 0.7195541
vt 0.041676 0.783314
vt 0.414209 0.840917
vt 0.253772 0.94151
vt 0.253772 0.766561
vt 0.767994 0.618775
vt 0.409177 0.712227
vt 0.8690621 0.47522
vt 0.6663 0.165387
vt 0.605996 0.73941
vt 0.639374 0.409527
vt 0.112125 0.370301
vt 0.54019 0.744037
vt 0.612093 0.250889
vt 0.612092 0.222981
vt 0.563229 0.222981
vt 0.789396 0.620664
vt 0.619116 0.258343
vt 0.945267 0.52536
vt 0.578931 0.633943
vt 0.794095 0.648572
vt 0.746148 0.620664
vt 0.746148 0.669528
vt 0.683448 0.669528
vt 0.666999 0.000998
vt 0.558521 0.000998
vt 0.873619 0.310831
vt 0.768694 0.310831
vt 0.653404 0.310831
vt 0.649487 0.32411
vt 0.535793 0.32411
vt 0.423715 0.32411
vt 0.000944 0.455718
vt 0.432839 0.409527
vt 0.111425 0.455718
vt 0.272595 0.053562
vt 0.77748 0.000998
vt 0.428962 0.633943
vt 0.228244 0.511676
vt 0.317582 0.479941
vt 0.428962 0.7195541
vt 0.428962 0.808892
vt 0.423826 0.926529
vt 0.423826 0.840917
vt 0.423826 0.75158
vt 0.263389 0.94151
vt 0.253771 0.855898
vt 0.403193 0.520673
vt 0.263389 0.766561
vt 0.213263 0.49507
vt 0.869062 0.618775
vt 0.677773 0.73941
vt 0.6663 0.308942
vt 0.202642 0.701605
vt 0.639374 0.632054
vt 0.303709 0.749691
vt 0.419799 0.505692
vt 0.217592 0.147773
vt 0.263389 0.75158
vt 0.497352 0.698971
vt 0.050258 0.044969
vt 0.366194 0.918914
vt 0.177601 0.044969
vt 0.366194 0.791571
vt 0.483581 0.698263
vt 0.366194 0.908676
vt 0.464015 0.64318
vt 0.443714 0.633943
vt 0.216625 0.7923111
vt 0.24836 0.881649
vt 0.131014 0.75158
vt 0.438579 0.808892
vt 0.414209 0.926529
vt 0.0009440001 0.868925
vt 0.414209 0.75158
vt 0.032679 0.958263
vt 0.207628 0.9672601
vt 0.443714 0.808892
vt 0.165177 0.596138
vt 0.432839 0.632054
vt 0.263389 0.958115
vt 0.011057 0.147773
vt 0.560832 0.165387
vt 0.869062 0.546998
vt 0.502726 0.63857
vt 0.662527 0.396248
vt 0.605996 0.633943
vt 0.6663 0.237165
vt 0.71086 0.624235
vt 0.804149 0.651611
vt 0.804149 0.623702
vt 0.74221 0.669528
vt 0.724852 0.620664
vt 0.789396 0.648572
vt 0.563229 0.250889
vt 0.693502 0.673099
vt 0.601278 0.696854
vt 0.556205 0.215527
vt 0.945267 0.568175
vt 0.556205 0.258343
vt 0.700806 0.620664
vt 0.774056 0.620664
vt 0.794095 0.620664
vt 0.732156 0.673099
vt 0.714798 0.624235
vt 0.779342 0.651611
vt 0.779342 0.623702
vt 0.774056 0.669528
g tronc
f 39/39/39 2/56/56 1/55/55
f 40/115/87 50/50/50 48/127/95
f 38/38/38 40/114/40 36/36/36
f 46/124/93 53/136/101 54/137/102
f 5/61/59 7/64/7 6/62/60
f 7/7/7 8/65/61 6/63/60
f 36/36/36 20/20/20 41/116/41
f 42/42/42 9/9/9 8/65/61
f 22/22/22 1/55/55 9/67/9
f 13/73/66 33/33/33 14/74/67
f 37/112/86 23/23/23 42/42/42
f 43/118/88 48/48/48 39/39/39
f 22/22/22 19/83/70 43/118/88
f 43/117/88 18/82/18 40/40/40
f 10/69/63 19/19/19 11/70/64
f 12/12/12 18/80/69 10/69/63
f 13/13/13 36/109/85 12/12/12
f 14/14/14 20/84/71 13/13/13
f 14/14/14 37/37/37 21/86/72
f 16/77/68 28/28/28 26/26/26
f 23/23/23 25/93/76 22/88/22
f 11/70/64 22/87/73 17/78/17
f 27/27/27 23/90/74 24/24/24
f 28/97/28 23/90/74 26/95/77
f 17/79/17 25/94/25 28/28/28
f 15/76/15 24/92/24 37/111/37
f 40/114/40 38/38/38 49/49/49
f 16/77/68 27/96/27 15/76/15
f 10/68/10 31/31/31 12/71/65
f 16/77/68 35/35/35 17/79/17
f 14/74/67 34/105/34 15/75/15
f 12/71/65 32/102/81 13/72/66
f 11/11/11 29/98/29 10/10/10
f 45/45/45 39/39/39 48/48/48
f 46/46/46 49/128/49 39/39/39
f 7/64/7 21/21/21 37/110/86
f 38/38/38 36/36/36 3/58/57
f 5/61/59 41/41/41 21/21/21
f 40/115/87 48/127/95 43/43/43
f 22/22/22 43/118/88 39/39/39
f 46/124/93 54/137/102 47/47/47
f 47/125/94 50/130/96 49/128/49
f 40/114/40 49/49/49 50/129/96
f 38/113/38 39/39/39 49/128/49
f 45/45/45 48/48/48 44/44/44
f 46/46/46 39/39/39 45/45/45
f 47/125/94 49/128/49 46/46/46
f 47/125/94 48/48/48 50/130/96
f 52/52/52 54/138/54 53/53/53
f 45/121/90 51/51/51 52/133/98
f 47/126/94 51/131/97 44/119/44
f 45/122/91 53/135/100 46/123/92
f 39/39/39 38/113/38 2/56/56
f 2/57/56 38/38/38 3/58/57
f 3/58/57 41/116/41 4/59/58
f 4/60/58 41/41/41 5/61/59
f 47/125/94 44/44/44 48/48/48
f 7/7/7 42/42/42 8/65/61
f 42/42/42 22/88/22 9/9/9
f 22/22/22 39/39/39 1/55/55
f 13/73/66 32/103/81 33/33/33
f 41/41/41 20/85/20 21/21/21
f 42/42/42 23/23/23 22/88/22
f 40/114/40 18/81/18 36/36/36
f 52/52/52 51/132/97 54/138/54
f 43/118/88 19/83/70 18/18/18
f 10/69/63 18/80/69 19/19/19
f 12/12/12 36/109/85 18/80/69
f 13/13/13 20/84/71 36/109/85
f 14/14/14 21/86/72 20/84/71
f 14/14/14 15/15/15 37/37/37
f 16/77/68 17/79/17 28/28/28
f 45/121/90 44/120/89 51/51/51
f 11/70/64 19/19/19 22/87/73
f 27/27/27 26/95/77 23/90/74
f 28/97/28 25/25/25 23/90/74
f 17/79/17 22/89/73 25/94/25
f 15/76/15 27/96/27 24/92/24
f 23/23/23 37/112/86 24/91/75
f 16/77/68 26/26/26 27/96/27
f 10/68/10 29/29/29 31/31/31
f 14/74/67 33/33/33 34/105/34
f 12/71/65 31/31/31 32/102/81
f 11/11/11 30/30/30 29/98/29
f 15/76/15 34/34/34 16/77/68
f 47/126/94 54/54/54 51/131/97
f 7/64/7 5/61/59 21/21/21
f 45/122/91 52/134/99 53/135/100
f 7/7/7 37/112/86 42/42/42
f 3/58/57 36/36/36 41/116/41
g interieur
f 5/5/5 6/6/6 2/2/2
f 6/6/6 8/8/8 2/2/2
f 2/2/2 3/3/3 4/4/4
f 9/66/62 1/1/1 2/2/2
f 34/106/83 31/101/80 29/99/78
f 17/17/17 30/30/30 11/11/11
f 34/106/83 30/100/79 35/107/84
f 34/106/83 33/104/82 32/32/32
f 34/106/83 32/32/32 31/101/80
f 4/4/4 5/5/5 2/2/2
f 34/106/83 35/107/84 16/16/16
f 17/17/17 35/108/35 30/30/30
f 34/106/83 29/99/78 30/100/79
f 8/8/8 9/66/62 2/2/2
