# Blender 3.4.1
# www.blender.org
mtllib tronelod.mtl
o Throne_01_LOD2
v -0.414684 -0.000946 0.316931
v -0.414684 0.113239 0.316931
v -0.414684 -0.000946 -0.166442
v -0.414684 0.113239 -0.166442
v -0.281041 -0.000946 0.316931
v -0.281041 0.113239 0.316931
v -0.281041 -0.000946 -0.166442
v -0.281041 0.113239 -0.166442
v 0.414684 -0.000946 0.316931
v 0.414684 0.113239 0.316931
v 0.414684 -0.000946 -0.166442
v 0.414684 0.113239 -0.166442
v 0.281041 -0.000946 0.316931
v 0.281041 0.113239 0.316931
v 0.281041 -0.000946 -0.166442
v 0.281041 0.113239 -0.166442
v -0.300000 0.365755 0.364284
v -0.300000 0.441196 0.364284
v -0.300000 0.365755 -0.198334
v -0.300000 0.441196 -0.198334
v 0.300000 0.365755 0.364284
v 0.300000 0.441196 0.364284
v 0.300000 0.365755 -0.198334
v 0.300000 0.441196 -0.198334
v -0.398306 -0.000000 0.309688
v -0.398306 0.586714 0.309688
v -0.398306 0.000000 -0.157965
v -0.398306 0.586714 -0.157965
v -0.298137 -0.000000 0.309688
v -0.298137 0.586714 0.309688
v -0.298137 0.000000 -0.157965
v -0.298137 0.586714 -0.157965
v 0.398306 -0.000000 0.309688
v 0.398306 0.586714 0.309688
v 0.398306 0.000000 -0.157965
v 0.398306 0.586714 -0.157965
v 0.298137 -0.000000 0.309688
v 0.298137 0.586714 0.309688
v 0.298137 0.000000 -0.157965
v 0.298137 0.586714 -0.157965
v -0.400394 0.428749 -0.155947
v -0.400394 0.573509 -0.155947
v -0.400394 0.428749 -0.212753
v -0.400394 0.573509 -0.212753
v 0.400394 0.428749 -0.155947
v 0.400394 0.573509 -0.155947
v 0.400394 0.428749 -0.212753
v 0.400394 0.573509 -0.212753
v -0.426100 0.573851 0.396176
v -0.426100 0.649292 0.396176
v -0.426100 0.573851 -0.213368
v -0.426100 0.649292 -0.213368
v -0.277839 0.573851 0.396176
v -0.277839 0.649292 0.396176
v -0.277839 0.573851 -0.213368
v -0.277839 0.649292 -0.213368
v 0.426099 0.573851 0.396176
v 0.426099 0.649292 0.396176
v 0.426099 0.573851 -0.213368
v 0.426099 0.649292 -0.213368
v 0.277839 0.573851 0.396176
v 0.277839 0.649292 0.396176
v 0.277839 0.573851 -0.213368
v 0.277839 0.649292 -0.213368
v -0.403380 0.262009 0.316931
v -0.403380 0.376193 0.316931
v -0.403380 0.262009 -0.166442
v -0.403380 0.376193 -0.166442
v -0.292346 0.262009 0.316931
v -0.292346 0.376193 0.316931
v -0.292346 0.262009 -0.166442
v -0.292346 0.376193 -0.166442
v 0.403379 0.262009 0.316931
v 0.403379 0.376193 0.316931
v 0.403379 0.262009 -0.166442
v 0.403379 0.376193 -0.166442
v 0.292346 0.262009 0.316931
v 0.292346 0.376193 0.316931
v 0.292346 0.262009 -0.166442
v 0.292346 0.376193 -0.166442
v -0.377037 1.766788 -0.147208
v -0.377037 1.888084 -0.156124
v -0.377037 1.756671 -0.284827
v -0.377037 1.877968 -0.293743
v 0.377037 1.766788 -0.147208
v 0.377037 1.888084 -0.156124
v 0.377037 1.756671 -0.284827
v 0.377037 1.877968 -0.293743
v 0.275358 0.439128 -0.102518
v 0.357221 1.815135 -0.159027
v 0.274944 0.439211 -0.194987
v -0.273909 0.439153 -0.195416
v -0.354963 1.815185 -0.158740
v 0.293812 1.115318 -0.115354
v 0.357591 1.806032 -0.278691
v 0.296541 1.155607 -0.216870
v -0.355325 1.806018 -0.278258
v -0.302981 1.255078 -0.224896
v -0.282547 0.858243 -0.203878
v -0.274316 0.439145 -0.102809
v -0.291367 1.095365 -0.114657
v -0.214774 0.449176 0.371933
v 0.214774 0.449176 0.371933
v -0.214774 0.449176 -0.096680
v 0.214774 0.449176 -0.096680
v -0.214774 0.282673 0.371933
v 0.226739 0.296347 0.371933
v -0.214774 1.770106 -0.153614
v 0.214774 1.770106 -0.153614
v 0.214774 1.109641 -0.109915
v -0.214774 1.109641 -0.109915
v 0.214774 1.439874 -0.128919
v -0.214774 1.439874 -0.128919
v 0.000000 0.449176 0.371933
v 0.000000 0.449176 -0.096680
v 0.005982 0.313440 0.371933
v 0.000000 1.770106 -0.153614
v 0.000000 1.109641 -0.109915
v 0.000000 1.439874 -0.128919
vn -1.0000 -0.0000 -0.0000
vn -0.0000 -0.0000 -1.0000
vn 1.0000 -0.0000 -0.0000
vn -0.0000 -0.0000 1.0000
vn -0.0000 -1.0000 -0.0000
vn -0.0000 1.0000 -0.0000
vn -0.0000 -0.0733 -0.9973
vn -0.0000 0.0733 0.9973
vn -0.0000 -0.9973 0.0733
vn -0.0000 0.9973 -0.0733
vn -0.0000 -1.0000 -0.0002
vn 0.0001 -1.0000 -0.0008
vn -0.0000 -1.0000 -0.0001
vn -0.0001 0.9971 -0.0764
vn -0.0000 0.9971 -0.0759
vn -0.0001 0.9971 -0.0765
vn -0.9956 -0.0931 0.0062
vn -0.9965 -0.0829 -0.0124
vn -0.9985 -0.0534 0.0157
vn -0.9996 -0.0256 -0.0078
vn -0.9997 -0.0261 -0.0044
vn -0.0016 -0.0955 -0.9954
vn -0.0020 -0.0653 -0.9979
vn 0.0004 -0.0780 -0.9970
vn -0.0005 -0.0355 -0.9994
vn -0.0038 -0.0262 -0.9996
vn 0.0008 -0.0202 -0.9998
vn 0.9957 -0.0923 0.0083
vn 0.9976 -0.0688 0.0007
vn 0.9957 -0.0925 0.0101
vn 0.9986 -0.0519 0.0053
vn 0.9996 -0.0276 -0.0027
vn -0.0002 0.0617 0.9981
vn 0.0001 0.0415 0.9991
vn 0.0004 0.0622 0.9981
vn -0.0004 0.0401 0.9992
vn -0.0000 0.0185 0.9998
vn 0.0001 -1.0000 -0.0009
vn -0.9956 -0.0936 0.0102
vn -0.9992 -0.0251 -0.0320
vn -0.0006 -0.0946 -0.9955
vn 0.9996 -0.0274 -0.0045
vn -0.0005 0.0180 0.9998
vn -0.0000 0.0660 0.9978
vn -0.0000 0.0746 0.9972
vn -0.0000 0.0200 0.9998
vn -0.0000 0.0387 0.9992
vt 0.001814 0.825632
vt 0.001814 0.829630
vt 0.001814 0.825632
vt 0.001814 0.829630
vt 0.005703 0.825632
vt 0.005703 0.829630
vt 0.005703 0.825632
vt 0.005703 0.829630
vt 0.001814 0.825632
vt 0.001814 0.829630
vt 0.001814 0.825632
vt 0.001814 0.829630
vt 0.005703 0.825632
vt 0.005703 0.829630
vt 0.005703 0.825632
vt 0.005703 0.829630
vt 0.219788 0.652215
vt 0.219788 0.655230
vt 0.219788 0.652215
vt 0.219788 0.655230
vt 0.243771 0.652215
vt 0.243771 0.655230
vt 0.243771 0.652215
vt 0.243771 0.655230
vt 0.215858 0.637594
vt 0.215858 0.661047
vt 0.215858 0.637594
vt 0.215858 0.661047
vt 0.219862 0.637594
vt 0.219862 0.661047
vt 0.219862 0.637594
vt 0.219862 0.661047
vt 0.215858 0.637594
vt 0.215858 0.661047
vt 0.215858 0.637594
vt 0.215858 0.661047
vt 0.219862 0.637594
vt 0.219862 0.661047
vt 0.219862 0.637594
vt 0.219862 0.661047
vt 0.215775 0.654733
vt 0.215775 0.660519
vt 0.215775 0.654733
vt 0.215775 0.660519
vt 0.247784 0.654733
vt 0.247784 0.660519
vt 0.247784 0.654733
vt 0.247784 0.660519
vt 0.214747 0.660533
vt 0.214747 0.663548
vt 0.214747 0.660533
vt 0.214747 0.663548
vt 0.220674 0.660533
vt 0.220674 0.663548
vt 0.220674 0.660533
vt 0.220674 0.663548
vt 0.214747 0.660533
vt 0.214747 0.663548
vt 0.214747 0.660533
vt 0.214747 0.663548
vt 0.220674 0.660533
vt 0.220674 0.663548
vt 0.220674 0.660533
vt 0.220674 0.663548
vt 0.001814 0.834840
vt 0.001814 0.838839
vt 0.001814 0.834840
vt 0.001814 0.838839
vt 0.005703 0.834840
vt 0.005703 0.838839
vt 0.005703 0.834840
vt 0.005703 0.838839
vt 0.001814 0.834840
vt 0.001814 0.838839
vt 0.001814 0.834840
vt 0.001814 0.838839
vt 0.005703 0.834840
vt 0.005703 0.838839
vt 0.005703 0.834840
vt 0.005703 0.838839
vt 0.009644 0.842262
vt 0.009644 0.847110
vt 0.009644 0.841857
vt 0.009644 0.846706
vt 0.039786 0.842262
vt 0.039786 0.847110
vt 0.039786 0.841857
vt 0.039786 0.846706
vt 0.236092 0.655162
vt 0.236092 0.702041
vt 0.236092 0.655164
vt 0.227532 0.655162
vt 0.227532 0.702043
vt 0.236092 0.678183
vt 0.236092 0.702043
vt 0.236092 0.679691
vt 0.227532 0.702041
vt 0.227532 0.683107
vt 0.227532 0.669510
vt 0.227532 0.655162
vt 0.227532 0.677504
vt 0.016988 0.762882
vt 0.024944 0.762882
vt 0.016988 0.762882
vt 0.024944 0.762882
vt 0.016988 0.760162
vt 0.024944 0.760162
vt 0.016988 0.787349
vt 0.024944 0.787349
vt 0.024944 0.775116
vt 0.016988 0.775116
vt 0.024944 0.781233
vt 0.016988 0.781233
vt 0.020966 0.762882
vt 0.020966 0.762882
vt 0.020966 0.760162
vt 0.020966 0.787349
vt 0.020966 0.775116
vt 0.020966 0.781233
s 1
usemtl CartoonTown_01.031
f 1/1/1 2/2/1 4/4/1 3/3/1
f 3/3/2 4/4/2 8/8/2 7/7/2
f 7/7/3 8/8/3 6/6/3 5/5/3
f 5/5/4 6/6/4 2/2/4 1/1/4
f 3/3/5 7/7/5 5/5/5 1/1/5
f 8/8/6 4/4/6 2/2/6 6/6/6
f 9/9/3 11/11/3 12/12/3 10/10/3
f 11/11/2 15/15/2 16/16/2 12/12/2
f 15/15/1 13/13/1 14/14/1 16/16/1
f 13/13/4 9/9/4 10/10/4 14/14/4
f 11/11/5 9/9/5 13/13/5 15/15/5
f 16/16/6 14/14/6 10/10/6 12/12/6
f 17/17/1 18/18/1 20/20/1 19/19/1
f 19/19/2 20/20/2 24/24/2 23/23/2
f 23/23/3 24/24/3 22/22/3 21/21/3
f 21/21/4 22/22/4 18/18/4 17/17/4
f 19/19/5 23/23/5 21/21/5 17/17/5
f 24/24/6 20/20/6 18/18/6 22/22/6
f 25/25/1 26/26/1 28/28/1 27/27/1
f 27/27/2 28/28/2 32/32/2 31/31/2
f 31/31/3 32/32/3 30/30/3 29/29/3
f 29/29/4 30/30/4 26/26/4 25/25/4
f 27/27/5 31/31/5 29/29/5 25/25/5
f 32/32/6 28/28/6 26/26/6 30/30/6
f 33/33/3 35/35/3 36/36/3 34/34/3
f 35/35/2 39/39/2 40/40/2 36/36/2
f 39/39/1 37/37/1 38/38/1 40/40/1
f 37/37/4 33/33/4 34/34/4 38/38/4
f 35/35/5 33/33/5 37/37/5 39/39/5
f 40/40/6 38/38/6 34/34/6 36/36/6
f 41/41/1 42/42/1 44/44/1 43/43/1
f 43/43/2 44/44/2 48/48/2 47/47/2
f 47/47/3 48/48/3 46/46/3 45/45/3
f 45/45/4 46/46/4 42/42/4 41/41/4
f 43/43/5 47/47/5 45/45/5 41/41/5
f 48/48/6 44/44/6 42/42/6 46/46/6
f 49/49/1 50/50/1 52/52/1 51/51/1
f 51/51/2 52/52/2 56/56/2 55/55/2
f 55/55/3 56/56/3 54/54/3 53/53/3
f 53/53/4 54/54/4 50/50/4 49/49/4
f 51/51/5 55/55/5 53/53/5 49/49/5
f 56/56/6 52/52/6 50/50/6 54/54/6
f 57/57/3 59/59/3 60/60/3 58/58/3
f 59/59/2 63/63/2 64/64/2 60/60/2
f 63/63/1 61/61/1 62/62/1 64/64/1
f 61/61/4 57/57/4 58/58/4 62/62/4
f 59/59/5 57/57/5 61/61/5 63/63/5
f 64/64/6 62/62/6 58/58/6 60/60/6
f 65/65/1 66/66/1 68/68/1 67/67/1
f 67/67/2 68/68/2 72/72/2 71/71/2
f 71/71/3 72/72/3 70/70/3 69/69/3
f 69/69/4 70/70/4 66/66/4 65/65/4
f 67/67/5 71/71/5 69/69/5 65/65/5
f 72/72/6 68/68/6 66/66/6 70/70/6
f 73/73/3 75/75/3 76/76/3 74/74/3
f 75/75/2 79/79/2 80/80/2 76/76/2
f 79/79/1 77/77/1 78/78/1 80/80/1
f 77/77/4 73/73/4 74/74/4 78/78/4
f 75/75/5 73/73/5 77/77/5 79/79/5
f 80/80/6 78/78/6 74/74/6 76/76/6
f 81/81/1 82/82/1 84/84/1 83/83/1
f 83/83/7 84/84/7 88/88/7 87/87/7
f 87/87/3 88/88/3 86/86/3 85/85/3
f 85/85/8 86/86/8 82/82/8 81/81/8
f 83/83/9 87/87/9 85/85/9 81/81/9
f 88/88/10 84/84/10 82/82/10 86/86/10
f 92/92/11 89/89/12 100/100/13
f 93/93/14 95/95/15 97/97/16
f 93/93/17 98/98/18 101/101/19
f 101/101/19 92/92/20 100/100/21
f 97/97/22 96/96/23 98/98/24
f 98/98/24 96/96/23 99/99/25
f 99/99/25 91/91/26 92/92/27
f 90/90/28 96/96/29 95/95/30
f 94/94/31 91/91/32 96/96/29
f 93/93/33 94/94/34 90/90/35
f 101/101/36 89/89/37 94/94/34
f 92/92/11 91/91/38 89/89/12
f 93/93/14 90/90/15 95/95/15
f 93/93/17 97/97/39 98/98/18
f 101/101/19 98/98/18 99/99/40
f 101/101/19 99/99/40 92/92/20
f 97/97/22 95/95/41 96/96/23
f 99/99/25 96/96/23 91/91/26
f 90/90/28 94/94/31 96/96/29
f 94/94/31 89/89/42 91/91/32
f 93/93/33 101/101/36 94/94/34
f 101/101/36 100/100/43 89/89/37
f 114/114/6 103/103/6 105/105/6 115/115/6
f 114/114/4 102/102/4 106/106/4 116/116/4
f 119/119/44 112/112/44 109/109/45 117/117/45
f 115/115/46 105/105/46 110/110/47 118/118/47
f 118/118/47 110/110/47 112/112/44 119/119/44
f 111/111/47 118/118/47 119/119/44 113/113/44
f 104/104/46 115/115/46 118/118/47 111/111/47
f 113/113/44 119/119/44 117/117/45 108/108/45
f 103/103/4 114/114/4 116/116/4 107/107/4
f 102/102/6 114/114/6 115/115/6 104/104/6
