# Wavefront OBJ file
# Exported by Misfit Model 3D 1.3.8
# Sat Jul 08 18:39:37 2023

# 32 Vertices
v 2.979498 0.009999 1.5
v 2.979498 0.010001 -1.5
v 2.925 -0.000001 1.5
v 2.928071 0.143857 1.5
v 2.925 0.000001 -1.5
v 3.075 0.000001 -1.5
v 3.075 -0.000001 1.5
v 3.068858 0.146928 1.5
v 3.071929 0.143859 -1.5
v 2.931142 0.14693 -1.5
v 3.032044 0.13 -1.5
v 3.032044 0.13 1.5
v 6.0 0.13 -1.5
v 6.0 0.13 1.5
v 0.0 0.009999 1.5
v 0.0 0.010001 -1.5
v -2.979498 0.009999 1.5
v -2.979498 0.010001 -1.5
v -2.925 -0.000001 1.5
v -2.928071 0.143857 1.5
v -2.925 0.000001 -1.5
v -3.075 0.000001 -1.5
v -3.075 -0.000001 1.5
v -3.068858 0.146928 1.5
v -3.071929 0.143859 -1.5
v -2.931142 0.14693 -1.5
v -3.032044 0.13 -1.5
v -3.032044 0.13 1.5
v -6.0 0.13 -1.5
v -6.0 0.13 1.5
v 0.0 0.009999 1.5
v 0.0 0.010001 -1.5

# 96 Texture Coordinates
vt 0.408515 0.012748
vt 0.420978 0.012748
vt 0.420978 0.037673
vt 0.408515 0.012748
vt 0.420978 0.037673
vt 0.408515 0.037673
vt 0.581909 0.045617
vt 0.588384 0.039279
vt 0.588247 0.045388
vt 0.581909 0.018802
vt 0.588018 0.018802
vt 0.581909 0.025506
vt 0.575205 0.032209
vt 0.581909 0.032209
vt 0.575205 0.038913
vt 0.575205 0.038913
vt 0.581909 0.032209
vt 0.581909 0.038913
vt 0.581909 0.038913
vt 0.588384 0.039279
vt 0.581909 0.045617
vt 0.588384 0.039279
vt 0.59495 0.032209
vt 0.595087 0.038913
vt 0.588475 0.032209
vt 0.59495 0.032209
vt 0.588384 0.039279
vt 0.581909 0.032209
vt 0.588384 0.025872
vt 0.588475 0.032209
vt 0.581909 0.032209
vt 0.588475 0.032209
vt 0.581909 0.038913
vt 0.581909 0.038913
vt 0.588475 0.032209
vt 0.588384 0.039279
vt 0.581909 0.025506
vt 0.588018 0.018802
vt 0.588384 0.025872
vt 0.581909 0.025506
vt 0.588384 0.025872
vt 0.581909 0.032209
vt 0.64117 0.02349
vt 0.64117 0.048415
vt 0.666095 0.048415
vt 0.64117 0.02349
vt 0.666095 0.048415
vt 0.666095 0.02349
vt 0.420978 0.037673
vt 0.420978 0.012748
vt 0.408515 0.012748
vt 0.408515 0.037673
vt 0.420978 0.037673
vt 0.408515 0.012748
vt 0.588247 0.045388
vt 0.588384 0.039279
vt 0.581909 0.045617
vt 0.581909 0.025506
vt 0.588018 0.018802
vt 0.581909 0.018802
vt 0.575205 0.038913
vt 0.581909 0.032209
vt 0.575205 0.032209
vt 0.581909 0.038913
vt 0.581909 0.032209
vt 0.575205 0.038913
vt 0.581909 0.045617
vt 0.588384 0.039279
vt 0.581909 0.038913
vt 0.595087 0.038913
vt 0.59495 0.032209
vt 0.588384 0.039279
vt 0.588384 0.039279
vt 0.59495 0.032209
vt 0.588475 0.032209
vt 0.588475 0.032209
vt 0.588384 0.025872
vt 0.581909 0.032209
vt 0.581909 0.038913
vt 0.588475 0.032209
vt 0.581909 0.032209
vt 0.588384 0.039279
vt 0.588475 0.032209
vt 0.581909 0.038913
vt 0.588384 0.025872
vt 0.588018 0.018802
vt 0.581909 0.025506
vt 0.581909 0.032209
vt 0.588384 0.025872
vt 0.581909 0.025506
vt 0.666095 0.048415
vt 0.64117 0.048415
vt 0.64117 0.02349
vt 0.666095 0.02349
vt 0.666095 0.048415
vt 0.64117 0.02349

# 96 Vertex Normals
vn 0.0 1.0 0.000001
vn 0.0 1.0 0.000001
vn 0.0 1.0 0.000001
vn 0.0 1.0 0.000001
vn 0.0 1.0 0.000001
vn 0.0 1.0 0.000001
vn 0.0 0.0 1.0
vn 0.0 0.0 1.0
vn 0.0 0.0 1.0
vn -0.999772 0.021343 0.0
vn -0.999502 0.031557 -0.00049
vn -0.999502 0.031557 -0.00049
vn -0.0 -1.0 -0.000001
vn 0.0 -1.0 -0.000001
vn 0.0 -1.0 -0.000001
vn 0.0 -1.0 -0.000001
vn 0.0 -1.0 -0.000001
vn 0.0 -1.0 -0.000001
vn 0.0 0.0 1.0
vn 0.0 0.0 1.0
vn 0.0 0.0 1.0
vn 0.0 1.0 0.000001
vn 0.0 1.0 0.000001
vn -0.021808 0.999762 0.001002
vn 0.021808 0.999762 -0.001
vn 0.0 1.0 0.000001
vn 0.0 1.0 0.000001
vn 0.0 0.0 -1.0
vn 0.0 0.0 -1.0
vn 0.0 0.0 -1.0
vn 0.999772 0.021343 -0.0
vn 0.999502 0.031557 0.00049
vn 0.999502 0.031557 0.00049
vn 0.999502 0.031557 0.00049
vn 0.999502 0.031557 0.00049
vn 0.999127 0.041767 0.00098
vn -0.999502 0.031557 -0.00049
vn -0.999502 0.031557 -0.00049
vn -0.999127 0.041767 -0.00098
vn 0.0 0.0 -1.0
vn 0.0 0.0 -1.0
vn 0.0 0.0 -1.0
vn 0.0 1.0 0.0
vn 0.0 1.0 0.0
vn 0.0 1.0 0.0
vn 0.0 1.0 0.0
vn 0.0 1.0 0.0
vn 0.0 1.0 0.0
vn -0.0 1.0 0.000001
vn 0.0 1.0 0.000001
vn -0.0 1.0 0.000001
vn -0.0 1.0 0.000001
vn -0.0 1.0 0.000001
vn -0.0 1.0 0.000001
vn 0.0 0.0 1.0
vn 0.0 0.0 1.0
vn 0.0 0.0 1.0
vn 0.999502 0.031557 -0.00049
vn 0.999502 0.031557 -0.00049
vn 0.999772 0.021343 -0.0
vn 0.0 -1.0 -0.000001
vn 0.0 -1.0 -0.000001
vn -0.0 -1.0 -0.000001
vn 0.0 -1.0 -0.000001
vn 0.0 -1.0 -0.000001
vn 0.0 -1.0 -0.000001
vn 0.0 0.0 1.0
vn 0.0 0.0 1.0
vn 0.0 0.0 1.0
vn 0.021808 0.999762 0.001002
vn -0.0 1.0 0.000001
vn -0.0 1.0 0.000001
vn -0.0 1.0 0.000001
vn -0.0 1.0 0.000001
vn -0.021808 0.999762 -0.001
vn 0.0 0.0 -1.0
vn 0.0 0.0 -1.0
vn 0.0 0.0 -1.0
vn -0.999502 0.031557 0.00049
vn -0.999502 0.031557 0.00049
vn -0.999772 0.021343 0.0
vn -0.999127 0.041767 0.00098
vn -0.999502 0.031557 0.00049
vn -0.999502 0.031557 0.00049
vn 0.999127 0.041767 -0.00098
vn 0.999502 0.031557 -0.00049
vn 0.999502 0.031557 -0.00049
vn 0.0 0.0 -1.0
vn 0.0 0.0 -1.0
vn 0.0 0.0 -1.0
vn 0.0 1.0 0.0
vn 0.0 1.0 0.0
vn 0.0 1.0 0.0
vn 0.0 1.0 0.0
vn 0.0 1.0 0.0
vn 0.0 1.0 0.0

# 32 Ungrouped triangles

o ungrouped
g ungrouped

f 15/1/1 1/2/2 2/3/3
f 15/4/4 2/5/5 16/6/6
f 3/7/7 8/8/8 4/9/9
f 3/10/10 4/11/11 5/12/12
f 5/13/13 6/14/14 3/15/15
f 3/16/16 6/17/17 7/18/18
f 7/19/19 8/20/20 3/21/21
f 8/22/22 10/23/23 4/24/24
f 9/25/25 10/26/26 8/27/27
f 6/28/28 10/29/29 9/30/30
f 6/31/31 9/32/32 7/33/33
f 7/34/34 9/35/35 8/36/36
f 5/37/37 4/38/38 10/39/39
f 5/40/40 10/41/41 6/42/42
f 11/43/43 12/44/44 14/45/45
f 11/46/46 14/47/47 13/48/48
f 18/49/49 17/50/50 31/51/51
f 32/52/52 18/53/53 31/54/54
f 20/55/55 24/56/56 19/57/57
f 21/58/58 20/59/59 19/60/60
f 19/61/61 22/62/62 21/63/63
f 23/64/64 22/65/65 19/66/66
f 19/67/67 24/68/68 23/69/69
f 20/70/70 26/71/71 24/72/72
f 24/73/73 26/74/74 25/75/75
f 25/76/76 26/77/77 22/78/78
f 23/79/79 25/80/80 22/81/81
f 24/82/82 25/83/83 23/84/84
f 26/85/85 20/86/86 21/87/87
f 22/88/88 26/89/89 21/90/90
f 30/91/91 28/92/92 27/93/93
f 29/94/94 30/95/95 27/96/96
