usemtl world_001
v -0.202903 0.039159 -0.156243
v -0.271049 0.045202 0.000716
v -0.202903 0.039159 0.157678
v -0.187019 0.315155 -0.150716
v -0.238384 0.315155 0.000716
v -0.187019 0.315155 0.153127
v -0.191447 0.473066 -0.111628
v -0.233852 0.459116 0.000716
v -0.185813 0.47626 0.107825
v -0.206611 0.489967 -0.126599
v -0.255809 0.470066 0.000566
v -0.204719 0.492468 0.134605
v -0.215503 0.458025 0.011096
v -0.184085 0.47491 -0.078263
v -0.184085 0.47491 0.100459
v -0.279121 0.008125 -0.048942
v -0.279121 0.008124 0.050376
v -0.281837 -0.030077 0.000716
v -0.222099 0.008378 0.095527
v -0.222827 0.00882 -0.081744
v -0.191608 0.511306 0.130164
v -0.196807 0.510827 -0.120219
v -0.246524 0.492172 0.001285
v -0.003577 0.030159 -0.232982
v 0.195748 0.039159 -0.156243
v 0.263894 0.045202 0.000716
v 0.195748 0.039159 0.157678
v -0.003577 0.034114 0.234416
v -0.003577 0.316564 -0.213441
v 0.179864 0.315155 -0.150716
v 0.231229 0.315155 0.000716
v 0.179864 0.315155 0.153127
v -0.003577 0.49663 -0.16426
v 0.184293 0.473066 -0.111628
v 0.226697 0.459116 0.000716
v 0.178659 0.47626 0.107825
v 0.199456 0.489967 -0.126599
v 0.248654 0.470066 0.000566
v 0.197564 0.492468 0.134605
v -0.003577 0.496005 0.189313
v -0.003577 0.511293 0.000716
v -0.003577 0.479238 0.151229
v 0.208348 0.458025 0.011096
v 0.17693 0.47491 -0.078263
v -0.003577 0.486511 -0.115399
v 0.17693 0.47491 0.100459
v -0.003577 -0.020831 0.000716
v -0.003577 -0.015707 -0.169194
v 0.271966 0.008125 -0.048942
v 0.271966 0.008124 0.050376
v 0.274682 -0.030077 0.000716
v 0.214944 0.008378 0.095527
v 0.215673 0.00882 -0.081744
v 0.160207 0.402365 0.125495
v 0.160207 0.402365 -0.124061
v 0.184453 0.511306 0.130164
v 0.189652 0.510827 -0.120219
v 0.239369 0.492172 0.001285
vn -0.5769566 -0.4078607 -0.7076516
vn -0.9414284 0.2927861 -0.1672988
vn -0.742323 -0.2349 0.6275179
vn -0.6946236 0.1908159 -0.6936046
vn -0.9825126 0.1858919 0.010638
vn -0.701606 0.187587 0.6874301
vn -0.6080342 -0.5494491 -0.5730621
vn -0.7483124 -0.6485953 0.1391141
vn -0.45733 -0.471031 0.754307
vn -0.6182356 -0.1133354 -0.7777788
vn -0.9576158 -0.2856137 -0.03737527
vn -0.4956701 -0.3054903 0.8130109
vn 0.5832564 0.8005869 0.1373778
vn 0.200923 0.8458741 0.494092
vn 0.4813144 0.7319574 -0.4822601
vn -0.7435135 0.1705377 -0.6466101
vn -0.6629609 -0.3836316 0.6428916
vn -0.3856452 -0.9189605 -0.08239804
vn -0.5018476 -0.7621316 0.4090286
vn -0.763417 0.292914 -0.57567
vn -0.3501091 0.9340656 0.0703208
vn -0.1591365 0.9581386 -0.2380045
vn -0.3836934 0.9124528 -0.1421598
vn 0 -0.4958501 -0.8684081
vn 0.5769566 -0.4078607 -0.7076516
vn 0.9414285 0.2927861 -0.1672988
vn 0.742323 -0.2349 0.6275179
vn 0 -0.3728161 0.9279053
vn 0 0.145624 -0.9893401
vn 0.6946236 0.1908159 -0.6936046
vn 0.9825126 0.1858919 0.010638
vn 0.701606 0.187587 0.6874301
vn 0 -0.213588 -0.9769239
vn 0.6080342 -0.5494491 -0.5730621
vn 0.7483124 -0.6485953 0.1391141
vn 0.45733 -0.471031 0.754307
vn 0.6182355 -0.1133354 -0.7777789
vn 0.9576159 -0.2856132 -0.03737546
vn 0.4956695 -0.3054904 0.8130113
vn 0 -0.4476319 0.8942178
vn 0 0.9999996 0.0009229996
vn 0 0.6839902 -0.7294912
vn -0.5832565 0.8005868 0.1373778
vn -0.200923 0.8458741 0.494092
vn 0 0.9109423 0.4125341
vn -0.4813144 0.7319574 -0.4822601
vn 0 -0.9999014 -0.01404501
vn 0 -0.8696079 -0.4937429
vn 0.7435135 0.1705377 -0.6466101
vn 0.6629607 -0.3836315 0.6428919
vn 0.3856452 -0.9189605 -0.08239804
vn 0.7130554 0.3830084 0.587245
vn 0.763417 0.292914 -0.57567
vn 0.6853229 0.137505 0.7151399
vn 0.6840417 0.1718129 -0.7089198
vn 0.350109 0.9340656 0.07032096
vn 0.1591365 0.9581386 -0.2380045
vn 0.3836934 0.9124528 -0.1421598
vn -0.7130554 0.3830084 0.587245
vn -0.4509041 -0.7712528 -0.4492825
vn 0.5018476 -0.7621316 0.4090286
vn 0.4509041 -0.7712528 -0.4492825
vt 0.219 0.2225
vt 0.2178 0.2236
vt 0.2173 0.2256
vt 0.2259 0.2163
vt 0.2284 0.2237
vt 0.229 0.2217
vt 0.2328 0.2163
vt 0.2284 0.2201
vt 0.2276 0.2215
vt 0.2282 0.2181
vt 0.2282 0.22
vt 0.2275 0.2214
vt 0.7243 0.0301
vt 0.2247 0.2239
vt 0.7247 0.0285
vt 0.2256 0.2158
vt 0.2225 0.2157
vt 0.224 0.2157
vt 0.2225 0.2157
vt 0.219 0.2225
vt 0.2246 0.221
vt 0.2207 0.2151
vt 0.2243 0.2226
vt 0.2269 0.2127
vt 0.219 0.2225
vt 0.221 0.2157
vt 0.221 0.2157
vt 0.2208 0.2128
vt 0.2257 0.2127
vt 0.2181 0.2217
vt 0.2168 0.223
vt 0.2162 0.2253
vt 0.224 0.2128
vt 0.2242 0.2158
vt 0.2323 0.2179
vt 0.2328 0.2198
vt 0.2282 0.2181
vt 0.2282 0.22
vt 0.224 0.2156
vt 0.226 0.2212
vt 0.7191 0.0234
vt 0.7189 0.0258
vt 0.7243 0.0301
vt 0.2247 0.2239
vt 0.2206 0.2177
vt 0.2192 0.216
vt 0.2238 0.2128
vt 0.2254 0.2128
vt 0.2256 0.2158
vt 0.2225 0.2157
vt 0.224 0.2157
vt 0.2173 0.2256
vt 0.219 0.2225
vt 0.2229 0.216
vt 0.2309 0.2212
vt 0.2193 0.2159
vt 0.2207 0.2151
vt 0.2243 0.2226
vt 0.2271 0.2158
vt 0.221 0.2157
vt 0.2178 0.2236
vt 0.2225 0.2157
vt 0.221 0.2157
vt 0.2181 0.2217
vt 0.229 0.2261
vt 0.2168 0.223
vt 0.2162 0.2253
vt 0.222 0.2163
vt 0.2284 0.218
vt 0.2242 0.2158
vt 0.2323 0.2179
vt 0.2328 0.2198
vt 0.2239 0.2157
vt 0.224 0.2156
vt 0.2244 0.2227
vt 0.7247 0.0314
vt 0.7207 0.0226
vt 0.2208 0.2152
vt 0.2247 0.2211
vt 0.2192 0.216
vt 0.7191 0.0234
vt 0.219 0.2225
vt 0.2173 0.2256
vt 0.2173 0.2256
vt 0.2256 0.2158
vt 0.2193 0.2159
vt 0.2246 0.2239
vt 0.2271 0.2158
vt 0.2178 0.2236
vt 0.2225 0.2157
vt 0.2178 0.2236
vt 0.2173 0.2256
vt 0.2259 0.2163
vt 0.229 0.2261
vt 0.2284 0.2237
vt 0.229 0.2217
vt 0.222 0.2163
vt 0.2272 0.2164
vt 0.2284 0.218
vt 0.2328 0.2163
vt 0.2284 0.2201
vt 0.2276 0.2215
vt 0.2239 0.2157
vt 0.2275 0.2214
vt 0.2238 0.2129
vt 0.7247 0.0314
vt 0.7243 0.0301
vt 0.7243 0.0301
vt 0.7247 0.0314
vt 0.7206 0.0251
vt 0.219 0.2183
vt 0.2244 0.2227
vt 0.7247 0.0314
vt 0.2208 0.2152
vt 0.7207 0.0226
vt 0.7206 0.0251
vt 0.7191 0.0234
vt 0.2247 0.2211
vt 0.7247 0.0285
vt 0.219 0.2225
vt 0.2173 0.2256
vt 0.2225 0.2157
vt 0.2256 0.2158
vt 0.2309 0.2208
vt 0.2251 0.216
vt 0.2246 0.221
vt 0.2246 0.2239
f 31/95/31 34/100/34 35/35/35
f 45/116/45 41/110/41 44/115/44
f 39/104/39 56/56/56 40/40/40
f 51/51/51 49/120/49 26/91/26
f 58/58/58 37/37/37 57/127/57
f 46/117/46 41/41/41 42/42/42
f 1/59/1 4/4/4 29/29/29
f 1/59/1 29/29/29 24/24/24
f 52/122/61 27/27/27 28/28/28
f 53/123/62 51/51/51 47/47/47
f 53/123/62 49/49/49 51/51/51
f 8/71/8 7/7/7 4/65/4
f 52/122/61 28/28/28 47/47/47
f 26/91/26 49/120/49 53/53/53
f 8/8/8 9/9/9 12/12/12
f 27/92/27 26/89/26 31/31/31
f 33/98/33 7/69/7 10/10/10
f 45/45/45 44/114/44 57/57/57
f 6/6/6 9/72/9 8/71/8
f 9/73/9 40/105/40 12/74/12
f 28/28/28 27/27/27 40/105/40
f 7/69/7 11/11/11 10/10/10
f 21/86/21 40/40/40 42/111/42
f 21/86/21 42/111/42 15/80/15
f 35/101/35 39/104/39 36/102/36
f 22/87/22 13/75/13 14/14/14
f 22/87/22 23/23/23 13/75/13
f 57/127/57 43/112/43 58/58/58
f 15/81/15 42/42/42 41/41/41
f 14/76/14 13/13/13 41/106/41
f 13/13/13 15/15/15 41/107/41
f 45/116/45 14/77/14 41/110/41
f 23/23/23 22/87/22 10/10/10
f 55/125/55 33/33/33 34/34/34
f 45/45/45 22/22/22 14/78/14
f 40/105/40 27/27/27 32/97/32
f 25/88/25 26/26/26 53/123/62
f 33/98/33 45/45/45 57/57/57
f 13/75/13 21/21/21 15/79/15
f 33/98/33 37/37/37 34/99/34
f 53/123/62 47/47/47 48/48/48
f 22/22/22 33/98/33 10/10/10
f 58/58/58 43/112/43 56/126/56
f 26/89/26 25/25/25 30/30/30
f 20/85/60 48/48/48 47/47/47
f 20/85/60 47/47/47 18/18/18
f 19/19/19 3/63/3 2/62/2
f 23/23/23 21/21/21 13/75/13
f 31/95/31 55/55/55 34/100/34
f 52/122/61 26/90/26 27/27/27
f 56/56/56 46/46/46 42/111/42
f 57/57/57 37/37/37 33/98/33
f 51/51/51 50/50/50 52/122/61
f 1/59/1 48/48/48 20/85/60
f 40/105/40 9/73/9 6/68/6
f 19/84/59 2/61/2 17/83/17
f 51/51/51 52/122/61 47/47/47
f 20/85/60 18/18/18 16/16/16
f 2/61/2 20/20/20 16/82/16
f 6/6/6 8/71/8 5/5/5
f 18/18/18 19/19/19 17/17/17
f 52/52/52 50/121/50 26/91/26
f 17/83/17 2/61/2 18/18/18
f 16/82/16 18/18/18 2/61/2
f 56/126/56 39/104/39 38/38/38
f 43/112/43 46/118/46 56/126/56
f 40/105/40 54/54/54 36/103/36
f 1/59/1 20/85/60 2/60/2
f 4/4/4 7/70/7 33/33/33
f 51/51/51 26/91/26 50/121/50
f 34/99/34 37/37/37 38/38/38
f 33/98/33 22/22/22 45/45/45
f 56/56/56 42/111/42 40/40/40
f 6/67/6 5/66/5 2/2/2
f 2/2/2 5/66/5 1/1/1
f 36/103/36 39/39/39 40/105/40
f 44/113/44 41/109/41 43/43/43
f 57/127/57 44/44/44 43/112/43
f 28/28/28 40/105/40 6/68/6
f 30/93/30 29/29/29 55/125/55
f 54/124/54 35/35/35 36/36/36
f 30/93/30 24/24/24 29/29/29
f 3/3/3 6/67/6 2/2/2
f 54/124/54 31/95/31 35/35/35
f 27/92/27 31/31/31 32/32/32
f 43/43/43 41/108/41 46/119/46
f 12/12/12 40/40/40 21/86/21
f 21/21/21 11/11/11 12/12/12
f 32/96/32 31/95/31 54/124/54
f 54/54/54 40/105/40 32/97/32
f 30/94/30 55/55/55 31/95/31
f 31/31/31 26/89/26 30/30/30
f 25/88/25 53/123/62 48/48/48
f 25/88/25 24/24/24 30/93/30
f 19/19/19 18/18/18 47/47/47
f 19/19/19 47/47/47 28/28/28
f 3/63/3 19/19/19 28/28/28
f 3/63/3 28/28/28 6/68/6
f 35/101/35 34/99/34 38/38/38
f 35/101/35 38/38/38 39/104/39
f 8/8/8 12/12/12 11/11/11
f 8/8/8 11/11/11 7/69/7
f 11/11/11 21/21/21 23/23/23
f 11/11/11 23/23/23 10/10/10
f 38/38/38 37/37/37 58/58/58
f 38/38/38 58/58/58 56/126/56
f 33/33/33 55/125/55 29/29/29
f 33/33/33 29/29/29 4/4/4
f 4/64/4 1/1/1 5/66/5
f 5/5/5 8/71/8 4/65/4
f 24/24/24 25/88/25 48/48/48
f 24/24/24 48/48/48 1/59/1
