# Blender 3.4.1
# www.blender.org
mtllib tris.mtl
o Garbage_01
v -0.001185 -0.000000 0.001185
v -0.001077 0.004030 0.001087
v -0.001185 0.000000 -0.001185
v 0.001185 -0.000000 0.001185
v 0.001087 0.004030 0.001077
v 0.001185 0.000000 -0.001185
v -0.000374 0.004906 0.000305
v -0.000292 0.004911 -0.000374
v 0.000374 0.004911 -0.000292
v 0.000299 0.004916 0.000360
v -0.001462 0.000009 0.000000
v -0.001432 0.001498 0.001432
v -0.001535 0.003995 0.000005
v -0.001432 0.001498 -0.001432
v -0.000000 0.000009 -0.001462
v -0.000005 0.003995 -0.001535
v 0.001432 0.001498 -0.001432
v 0.001527 0.000007 -0.000000
v 0.001769 0.003108 0.000000
v 0.001432 0.001498 0.001432
v 0.000000 0.000009 0.001462
v 0.000000 0.003108 0.001769
v -0.001087 0.004030 -0.001077
v 0.001077 0.004030 -0.001087
v -0.001974 0.001473 0.000000
v 0.000000 0.001473 -0.001974
v 0.001974 0.001473 0.000000
v -0.000000 0.001473 0.001974
v 0.000000 0.004225 0.001324
v 0.001324 0.004225 0.000000
v -0.000360 0.005228 0.000307
v -0.000315 0.005231 -0.000360
v 0.000333 0.005234 -0.000333
v 0.000347 0.005233 0.000365
v -0.000277 0.005483 -0.000208
v 0.000463 0.005458 -0.000630
v 0.000288 0.005490 0.000230
v -0.000207 0.005471 0.000280
v -0.000496 0.005472 0.000649
v -0.000664 0.005477 -0.000507
v 0.000191 0.005465 -0.000259
v 0.000694 0.005493 0.000530
v -0.000207 0.005395 0.000280
v 0.000191 0.005390 -0.000259
v -0.000277 0.005407 -0.000208
v 0.000288 0.005414 0.000230
vn -0.9222 -0.3229 0.2129
vn -0.9240 0.1603 0.3471
vn -0.9238 0.1617 -0.3470
vn -0.9222 -0.3229 -0.2129
vn -0.2129 -0.3229 -0.9222
vn -0.3471 0.1603 -0.9240
vn 0.3470 0.1617 -0.9238
vn 0.2129 -0.3229 -0.9222
vn 0.9224 -0.2815 -0.2644
vn 0.9295 0.1167 -0.3500
vn 0.9295 0.1167 0.3500
vn 0.9224 -0.2815 0.2644
vn 0.2129 -0.3229 0.9222
vn 0.3500 0.1167 0.9295
vn -0.3500 0.1167 0.9295
vn -0.2129 -0.3229 0.9222
vn -0.0007 -1.0000 0.0077
vn -0.0099 -0.9999 0.0088
vn -0.0099 -0.9999 -0.0088
vn -0.0007 -1.0000 -0.0077
vn -0.6221 0.7473 -0.2336
vn 0.9824 -0.1488 0.1127
vn -0.0808 -0.0024 0.9967
vn -0.0817 -0.0005 0.9967
vn -0.0819 -0.0000 0.9966
vn 0.2680 0.3562 0.8952
vn -0.2690 0.7522 0.6016
vn 0.2336 0.7473 -0.6221
vn 0.8952 0.3562 -0.2680
vn 0.6017 0.7520 0.2690
vn 0.6033 -0.7974 -0.0134
vn 0.1207 -0.1090 -0.9867
vn -0.9905 -0.0662 -0.1202
vn 0.9922 0.1230 -0.0200
vn -0.9135 -0.2083 0.3495
vn -0.9080 0.1791 0.3789
vn -0.9114 0.1764 -0.3719
vn -0.9135 -0.2083 -0.3495
vn -0.3495 -0.2083 -0.9135
vn -0.3789 0.1791 -0.9080
vn 0.3719 0.1764 -0.9114
vn 0.3495 -0.2083 -0.9135
vn 0.9135 -0.2083 -0.3495
vn 0.8919 0.1817 -0.4141
vn 0.8932 0.1796 0.4122
vn 0.9135 -0.2083 0.3495
vn 0.3495 -0.2083 0.9135
vn 0.4141 0.1817 0.8919
vn -0.4122 0.1796 0.8932
vn -0.3495 -0.2083 0.9135
vn 0.0060 -1.0000 -0.0078
vn 0.0060 -1.0000 0.0078
vn -0.6370 0.7304 0.2463
vn -0.6052 0.7932 -0.0670
vn -0.0805 -0.0030 0.9967
vn -0.2625 0.3568 0.8966
vn 0.2730 0.7397 0.6150
vn -0.0585 0.8199 0.5695
vn -0.2463 0.7304 -0.6371
vn 0.0742 0.7918 -0.6063
vn 0.8966 0.3568 0.2625
vn 0.6167 0.7383 -0.2731
vn 0.5723 0.8179 0.0587
vn -0.0964 -0.6071 -0.7887
vn 0.7681 -0.6262 -0.1338
vn 0.0890 -0.6168 0.7821
vn -0.5647 -0.8242 -0.0410
vn 0.0418 0.0453 -0.9981
vn -0.9968 0.0453 -0.0664
vn 0.1086 -0.0000 0.9941
vn -0.1006 -0.0000 -0.9949
vn -0.7920 -0.6000 0.1126
vn -0.0408 -0.8212 0.5692
vn 0.0293 -0.8049 -0.5927
vn -0.0060 0.9999 0.0110
vn -0.0061 0.9999 0.0110
vn 0.0203 0.9995 -0.0242
vn 0.0203 0.9995 -0.0241
vn 0.0036 0.9993 -0.0367
vn -0.0236 0.9997 -0.0018
vn 0.0395 0.9990 0.0190
vn -0.0426 0.9982 -0.0416
vn -0.9809 -0.0000 0.1945
vn 0.9897 -0.0000 -0.1433
vt 0.155065 0.018711
vt 0.155786 0.037367
vt 0.155065 0.018711
vt 0.166101 0.018711
vt 0.165380 0.037367
vt 0.166101 0.018711
vt 0.159009 0.041589
vt 0.159247 0.041589
vt 0.162166 0.041589
vt 0.161962 0.041589
vt 0.153776 0.018754
vt 0.153915 0.025687
vt 0.153927 0.037158
vt 0.153915 0.025687
vt 0.160583 0.018754
vt 0.160583 0.037158
vt 0.167251 0.025687
vt 0.167692 0.018756
vt 0.168821 0.033182
vt 0.167251 0.025687
vt 0.160583 0.018754
vt 0.160583 0.033182
vt 0.155786 0.037367
vt 0.165380 0.037367
vt 0.151389 0.025572
vt 0.160583 0.025572
vt 0.169776 0.025572
vt 0.160583 0.025572
vt 0.160583 0.038387
vt 0.166750 0.038387
vt 0.159012 0.043084
vt 0.159133 0.043084
vt 0.162132 0.043084
vt 0.162048 0.043084
vt 0.159498 0.044316
vt 0.162593 0.044296
vt 0.161786 0.044332
vt 0.159750 0.044307
vt 0.158528 0.044311
vt 0.157925 0.044335
vt 0.161438 0.044301
vt 0.163418 0.044371
vt 0.159750 0.044307
vt 0.161438 0.044301
vt 0.159498 0.044316
vt 0.161786 0.044332
s 1
usemtl City_05.035
f 1/1/1 25/25/1 11/11/1
f 12/12/2 13/13/2 25/25/2
f 13/13/3 14/14/3 25/25/3
f 25/25/4 3/3/4 11/11/4
f 3/3/5 26/26/5 15/15/5
f 14/14/6 16/16/6 26/26/6
f 16/16/7 17/17/7 26/26/7
f 26/26/8 6/6/8 15/15/8
f 6/6/9 27/27/9 18/18/9
f 17/17/10 19/19/10 27/27/10
f 19/19/11 20/20/11 27/27/11
f 27/27/12 4/4/12 18/18/12
f 4/4/13 28/28/13 21/21/13
f 20/20/14 22/22/14 28/28/14
f 22/22/15 12/12/15 28/28/15
f 28/28/16 1/1/16 21/21/16
f 3/3/17 18/18/17 11/11/17
f 6/6/18 18/18/18 15/15/18
f 18/18/19 4/4/19 21/21/19
f 18/18/20 1/1/20 11/11/20
f 13/13/21 8/8/21 23/23/21
f 9/9/22 34/34/22 10/10/22
f 7/7/23 34/34/24 31/31/25
f 22/22/26 5/5/26 29/29/26
f 29/29/27 7/7/27 2/2/27
f 16/16/28 9/9/28 24/24/28
f 19/19/29 24/24/29 30/30/29
f 30/30/30 10/10/30 5/5/30
f 33/33/31 42/42/31 34/34/31
f 8/8/32 33/33/32 9/9/32
f 7/7/33 32/32/33 8/8/33
f 9/9/34 33/33/34 34/34/34
f 1/1/35 12/12/35 25/25/35
f 12/12/36 2/2/36 13/13/36
f 13/13/37 23/23/37 14/14/37
f 25/25/38 14/14/38 3/3/38
f 3/3/39 14/14/39 26/26/39
f 14/14/40 23/23/40 16/16/40
f 16/16/41 24/24/41 17/17/41
f 26/26/42 17/17/42 6/6/42
f 6/6/43 17/17/43 27/27/43
f 17/17/44 24/24/44 19/19/44
f 19/19/45 5/5/45 20/20/45
f 27/27/46 20/20/46 4/4/46
f 4/4/47 20/20/47 28/28/47
f 20/20/48 5/5/48 22/22/48
f 22/22/49 2/2/49 12/12/49
f 28/28/50 12/12/50 1/1/50
f 3/3/51 15/15/51 18/18/51
f 18/18/52 21/21/52 1/1/52
f 13/13/53 2/2/53 7/7/53
f 13/13/54 7/7/54 8/8/54
f 7/7/23 10/10/55 34/34/24
f 22/22/56 29/29/56 2/2/56
f 29/29/57 5/5/57 10/10/57
f 29/29/58 10/10/58 7/7/58
f 16/16/59 23/23/59 8/8/59
f 16/16/60 8/8/60 9/9/60
f 19/19/61 30/30/61 5/5/61
f 30/30/62 24/24/62 9/9/62
f 30/30/63 9/9/63 10/10/63
f 32/32/64 40/40/64 36/36/64
f 33/33/65 36/36/65 42/42/65
f 34/34/66 42/42/66 39/39/66
f 32/32/67 31/31/67 40/40/67
f 8/8/68 32/32/68 33/33/68
f 7/7/69 31/31/69 32/32/69
f 35/35/70 45/45/70 41/41/70
f 41/41/70 45/45/70 44/44/70
f 37/37/71 46/46/71 38/38/71
f 38/38/71 46/46/71 43/43/71
f 31/31/72 39/39/72 40/40/72
f 31/31/73 34/34/73 39/39/73
f 33/33/74 32/32/74 36/36/74
f 38/38/75 35/35/76 39/39/76
f 39/39/76 35/35/76 40/40/76
f 41/41/77 36/36/78 35/35/78
f 35/35/78 36/36/78 40/40/78
f 41/41/79 37/37/79 36/36/79
f 36/36/79 37/37/79 42/42/79
f 38/38/80 39/39/80 37/37/80
f 37/37/80 39/39/80 42/42/80
f 45/45/81 43/43/81 44/44/81
f 44/44/82 43/43/82 46/46/82
f 37/37/83 41/41/83 46/46/83
f 46/46/83 41/41/83 44/44/83
f 35/35/84 38/38/84 45/45/84
f 45/45/84 38/38/84 43/43/84
