# This file uses centimeters as units for non-parametric coordinates.

v 0.906802 0.179679 0.506946
v 0.875748 0.576316 0.091173
v 1.039430 0.340538 0.122361
v 0.875353 -0.014029 0.429810
v 0.904265 -0.014029 -0.019268
v 0.935192 0.344363 -0.492119
v 0.716923 -0.014029 -0.624140
v 0.735443 0.631728 -0.505933
v 0.655666 0.332781 -0.821402
v 0.451193 0.590390 -0.827858
v 0.076913 -0.014029 -0.915087
v 0.097340 0.211749 -1.054216
v 0.059774 0.472465 -1.063645
v -0.087813 0.663009 -0.881895
v -0.446225 0.319675 -0.988627
v -0.641181 0.631541 -0.745417
v -0.460692 -0.014029 -0.803795
v -0.847906 0.236237 -0.693929
v -0.894116 0.079841 -0.573575
v -0.927542 0.599954 -0.428179
v -1.088249 0.284022 -0.235376
v -0.922406 0.577351 0.202256
v -0.741845 0.689176 0.068742
v -0.621021 0.725527 -0.426066
v -0.137788 0.678540 -0.698009
v 0.308493 0.602519 -0.630771
v 0.592711 0.649990 -0.403186
v 0.691203 0.547504 0.111045
v 0.573524 0.364814 0.282260
v 0.359568 0.112446 0.338624
v 0.736128 0.085343 0.522036
v 0.682439 -0.014029 0.472746
v 0.349178 -0.014029 0.047078
v 0.191129 0.845889 -0.653342
v -0.148499 0.936545 -0.591058
v -0.569300 0.958065 -0.296545
v -0.718535 0.901238 0.054664
v -0.666509 0.659529 0.472451
v -0.631208 0.831183 0.420513
v -0.407081 1.092758 0.476885
v -0.319930 0.849849 0.655725
v -0.298302 0.651221 0.663704
v -0.829886 0.482620 0.586321
v -0.410552 0.448337 0.880776
v -0.794486 0.287530 0.711721
v -1.038684 0.163664 0.141587
v -1.010843 0.011284 -0.128547
v -0.831437 0.028175 0.470625
v -0.692084 0.048525 0.747279
v -0.222553 0.129620 0.950669
v 0.276901 0.424411 0.854212
v -0.020341 0.669753 0.625704
v 0.568900 0.617690 0.407352
v 0.364803 0.809482 0.314905
v 0.155767 0.778726 0.277378
v 0.647015 0.787243 0.001156
v 0.346500 0.980664 -0.047462
v 0.107481 0.963880 0.022715
v 0.401210 0.930994 -0.437102
v 0.592515 0.835745 -0.242022
v 0.140152 1.033458 -0.352668
v -0.166768 1.087530 -0.226426
v -0.142764 1.008732 -0.064516
v -0.482310 1.082337 -0.101629
v -0.425631 1.052252 0.097151
v -0.133015 1.200366 0.367067
v 0.019304 1.016599 0.521246
v -0.034757 1.390991 0.215821
v 0.109544 1.151386 0.287135
v 0.155414 1.103567 0.144896
v -0.042047 1.196731 0.055529
v -0.173000 1.230991 0.224774
v -0.325796 1.102821 0.214823
v 0.279659 0.149099 0.643166
v -0.196611 0.000000 0.778186
v -0.591484 -0.014029 0.472670
v -0.827620 -0.014029 -0.128523
vt 0.872241 0.388086
vt 0.766475 0.269893
vt 0.810645 0.216041
vt 0.741773 0.339297
vt 0.798940 0.474661
vt 0.636267 0.227980
vt 0.610737 0.144250
vt 0.992237 0.408994
vt 0.873154 0.160400
vt 0.883150 0.533699
vt 0.786416 0.580130
vt 0.510481 0.226725
vt 0.479351 0.142261
vt 0.903065 0.585970
vt 0.174791 0.260920
vt 0.126991 0.287926
vt 0.095290 0.310221
vt 0.233926 0.405979
vt 0.111507 0.626227
vt 0.004533 0.642911
vt 0.332087 0.288370
vt 0.327407 0.344302
vt 0.294829 0.213262
vt 0.624486 0.957525
vt 0.306748 0.825158
vt 0.357451 0.790242
vt 0.492484 0.503852
vt 0.490908 0.649617
vt 0.617850 0.285781
vt 0.620605 0.349109
vt 0.214022 0.631123
vt 0.712756 0.377935
vt 0.526632 0.900449
vt 0.503337 0.274137
vt 0.675825 0.887895
vt 0.737646 0.523315
vt 0.570523 0.835824
vt 0.869273 0.737518
vt 0.765267 0.773191
vt 0.680406 0.646572
vt 0.686684 0.705765
vt 0.596116 0.776099
vt 0.582948 0.710908
vt 0.466470 0.683780
vt 0.451658 0.759346
vt 0.410157 0.617809
vt 0.305672 0.622354
vt 0.310416 0.448912
vt 0.385324 0.470091
vt 0.402721 0.362516
vt 0.422636 0.509524
vt 0.475976 0.414632
vt 0.500533 0.464525
vt 0.473057 0.336178
vt 0.543881 0.348808
vt 0.606891 0.470033
vt 0.570853 0.408123
vt 0.571980 0.492078
vt 0.662987 0.416593
vt 0.635670 0.543768
vt 0.601987 0.572840
vt 0.683037 0.529010
vt 0.651809 0.613099
vt 0.567851 0.575879
vt 0.536618 0.622294
vt 0.535626 0.557066
vt 0.534844 0.513945
vt 0.583227 0.666667
vt 0.509255 0.575821
vt 0.520507 0.539840
vt 0.461271 0.578989
vt 0.486455 0.535076
vt 0.819017 0.671178
vt 0.447025 0.977102
vt 0.195097 0.966257
vt 0.724224 0.959289
vt 0.098967 0.262788
vt 0.140500 0.209531
vt 0.571521 0.017896
vt 0.285690 0.081087
vt 0.919602 0.764236
vt 0.027473 0.475742
vt 0.159913 0.517643
vt 0.118708 0.428717
vn -0.390053 0.035206 -0.920119
vn 0.086091 0.368053 -0.925810
vn 0.190474 -0.296586 -0.935818
vn -0.458268 0.606674 -0.649567
vn -0.707012 -0.026754 -0.706695
vn -0.757548 0.559890 -0.335626
vn -0.103199 0.812777 -0.573361
vn 0.409201 0.615693 -0.673407
vn 0.562833 -0.038552 -0.825671
vn 0.998342 -0.057132 -0.007034
vn 0.938384 -0.012819 -0.345357
vn 0.511466 0.797170 -0.320815
vn 0.371892 0.874130 0.312400
vn 0.637207 0.192971 0.746143
vn 0.892371 -0.375290 0.250662
vn -0.304861 0.128680 0.943664
vn -0.380749 -0.674284 0.632749
vn 0.922910 -0.360595 -0.134939
vn 0.287443 0.820175 -0.494662
vn -0.114595 0.825428 -0.552754
vn -0.516056 0.756693 -0.401375
vn -0.756491 0.469213 0.455587
vn -0.558730 0.638073 0.529796
vn -0.711634 0.702151 0.023680
vn -0.788782 0.576803 0.212416
vn -0.984270 0.048037 -0.170016
vn -0.656974 -0.601678 -0.454278
vn -0.966403 -0.107344 0.233545
vn -0.744871 0.008602 0.667153
vn -0.230618 0.432241 0.871770
vn -0.109523 0.596878 0.794822
vn 0.858087 0.506913 0.082017
vn 0.249797 0.815407 0.522219
vn 0.714929 0.358969 0.600015
vn 0.401039 0.881454 -0.249414
vn 0.484281 0.718902 0.498650
vn 0.792369 0.595088 -0.134249
vn 0.496523 0.704808 -0.506665
vn 0.251594 0.497165 -0.830378
vn 0.301698 0.926046 0.226753
vn 0.172169 0.938806 -0.298331
vn -0.894713 0.444083 -0.047734
vn -0.800654 0.322207 0.505110
vn -0.592596 0.607598 -0.528824
vn -0.223409 0.963079 -0.150225
vn -0.214065 0.627776 -0.748381
vn -0.061652 0.977305 -0.202665
vn -0.151797 0.298473 0.942269
vn -0.270010 0.962799 0.010626
vn -0.431987 0.768970 0.471246
vn 0.084633 0.755955 0.649130
vn 0.285811 0.920965 0.264830
vn -0.628910 0.692355 -0.353718
vn -0.435991 0.873177 -0.217887
vn 0.041525 0.982154 -0.183439
vn -0.012397 0.624202 -0.781164
vn 0.322950 0.943965 0.068065
vn 0.777266 0.380221 0.501288
vn 0.940507 0.284490 -0.185774
vn 0.466004 0.726500 0.505012
vn 0.566797 0.347305 0.747075
vn 0.231720 0.639605 0.732947
vn 0.510024 0.262614 0.819091
vn 0.542198 0.187792 0.818996
vn 0.090726 -0.900321 0.425664
vn 0.502933 -0.800877 0.325045
vn 0.050000 -0.425415 0.903616
vn 0.193244 -0.944099 0.267084
vn -0.479512 -0.489216 0.728517
vn -0.617250 -0.724446 0.306888
vn -0.603727 -0.791807 -0.092490
vn -0.333677 -0.567597 -0.752657
vn -0.006700 -0.987957 0.154582
vn -0.208396 -0.976096 -0.061701
vn 0.717890 -0.408927 -0.563393
vn 0.134462 -0.483168 -0.865141
vn 0.024927 -0.896298 0.442751
s 1
g Mesh
f 15/1/1 13/2/2 12/3/3
f 16/5/4 15/1/1 18/10/5 20/11/6
f 14/4/7 13/2/2 15/1/1 16/5/4
f 10/6/8 13/2/2 14/4/7
f 10/6/8 9/7/9 12/3/3 13/2/2
f 3/23/10 6/13/11 8/12/12
f 8/12/12 6/13/11 9/7/9 10/6/8
f 2/21/13 3/23/10 8/12/12
f 3/23/10 2/21/13 1/15/14
f 4/78/15 1/15/14 31/16/16 32/77/17
f 5/80/18 3/23/10 1/15/14 4/78/15
f 26/29/19 10/6/8 14/4/7 25/32/20
f 25/32/20 14/4/7 16/5/4 24/36/21
f 16/5/4 20/11/6 24/36/21
f 43/42/22 38/43/23 23/40/24 22/41/25
f 23/40/24 24/36/21 20/11/6 22/41/25
f 22/41/25 20/11/6 21/73/26
f 21/73/26 20/11/6 18/10/5 19/14/27
f 46/39/28 22/41/25 21/73/26
f 45/37/29 43/42/22 22/41/25 46/39/28
f 44/45/30 43/42/22 45/37/29
f 42/44/31 38/43/23 43/42/22 44/45/30
f 56/50/32 54/49/33 53/48/34
f 8/12/12 10/6/8 26/29/19 27/34/35
f 28/22/36 2/21/13 8/12/12 27/34/35
f 60/54/37 56/50/32 28/22/36 27/34/35
f 59/55/38 27/34/35 26/29/19 34/30/39
f 59/55/38 60/54/37 27/34/35
f 57/52/40 59/55/38 61/57/41
f 54/49/33 56/50/32 57/52/40
f 57/52/40 56/50/32 60/54/37 59/55/38
f 37/63/42 23/40/24 38/43/23 39/68/43
f 36/62/44 24/36/21 23/40/24 37/63/42
f 36/62/44 37/63/42 64/60/45
f 61/57/41 59/55/38 34/30/39 35/59/46
f 57/52/40 61/57/41 62/56/47
f 35/59/46 25/32/20 24/36/21 36/62/44
f 34/30/39 26/29/19 25/32/20 35/59/46
f 35/59/46 36/62/44 64/60/45 62/56/47
f 62/56/47 61/57/41 35/59/46
f 41/28/48 39/68/43 38/43/23 42/44/31
f 65/61/49 64/60/45 37/63/42
f 40/65/50 39/68/43 41/28/48
f 40/65/50 37/63/42 39/68/43
f 66/69/51 68/70/52 72/66/53
f 40/65/50 66/69/51 73/64/54
f 73/64/54 65/61/49 37/63/42 40/65/50
f 73/64/54 66/69/51 72/66/53
f 63/58/55 62/56/47 64/60/45 65/61/49
f 63/58/55 65/61/49 73/64/54
f 72/66/53 68/70/52 71/67/56
f 63/58/55 73/64/54 72/66/53 71/67/56
f 58/53/57 57/52/40 62/56/47
f 58/53/57 62/56/47 63/58/55
f 68/70/52 69/72/58 70/27/59
f 71/67/56 68/70/52 70/27/59
f 58/53/57 63/58/55 71/67/56 70/27/59
f 55/51/60 54/49/33 57/52/40 58/53/57
f 55/51/60 58/53/57 70/27/59
f 66/69/51 40/65/50 67/71/61
f 55/51/60 70/27/59 69/72/58 67/71/61
f 67/71/61 41/28/48 42/44/31 52/46/62
f 52/46/62 54/49/33 55/51/60
f 52/46/62 55/51/60 67/71/61
f 67/71/61 40/65/50 41/28/48
f 69/72/58 68/70/52 66/69/51 67/71/61
f 1/15/14 2/21/13 28/22/36 29/18/63
f 29/18/63 28/22/36 56/50/32 53/48/34
f 52/46/62 42/44/31 44/45/30 51/47/64
f 53/48/34 54/49/33 52/46/62 51/47/64
f 30/83/65 29/18/63 74/31/66
f 74/31/66 29/18/63 53/48/34 51/47/64
f 51/47/64 44/45/30 50/26/67
f 75/25/68 74/31/66 51/47/64 50/26/67
f 50/26/67 44/45/30 45/37/29 49/33/69
f 49/33/69 45/37/29 46/39/28 48/35/70
f 48/35/70 46/39/28 47/38/71
f 47/38/71 46/39/28 21/73/26 19/14/27
f 19/14/27 18/10/5 15/1/1 17/8/72
f 76/74/73 75/25/68 50/26/67 49/33/69
f 77/81/74 47/38/71 19/14/27 17/8/72
f 9/7/9 6/13/11 7/79/75
f 17/8/72 15/1/1 12/3/3 11/9/76
f 6/13/11 3/23/10 5/80/18 7/79/75
f 11/9/76 12/3/3 9/7/9 7/79/75
f 31/16/16 1/15/14 29/18/63 30/84/65
f 33/82/77 32/17/17 31/16/16 30/84/65
f 76/75/73 33/20/77 30/19/65
f 30/19/65 74/31/66 75/25/68 76/75/73
f 76/24/73 49/33/69 48/35/70
f 76/76/73 48/35/70 47/38/71 77/81/74
