# Blender 3.4.1
# www.blender.org
mtllib tris.mtl
o RoadSign_05
v -0.001561 -0.000000 0.001917
v -0.001917 -0.000000 0.001561
v -0.001813 -0.000000 0.001813
v -0.001561 0.000162 0.001917
v -0.001561 0.000518 0.001561
v -0.001917 0.000162 0.001561
v -0.001561 0.000414 0.001813
v -0.001767 0.000368 0.001767
v -0.001813 0.000414 0.001561
v -0.001813 0.000162 0.001813
v -0.001917 0.000000 -0.001561
v -0.001561 0.000000 -0.001917
v -0.001813 0.000000 -0.001813
v -0.001561 0.000518 -0.001561
v -0.001561 0.000162 -0.001917
v -0.001917 0.000162 -0.001561
v -0.001561 0.000414 -0.001813
v -0.001767 0.000368 -0.001767
v -0.001813 0.000162 -0.001813
v -0.001813 0.000414 -0.001561
v 0.001917 -0.000000 0.001561
v 0.001561 -0.000000 0.001917
v 0.001813 -0.000000 0.001813
v 0.001561 0.000518 0.001561
v 0.001561 0.000162 0.001917
v 0.001917 0.000162 0.001561
v 0.001561 0.000414 0.001813
v 0.001767 0.000368 0.001767
v 0.001813 0.000162 0.001813
v 0.001813 0.000414 0.001561
v 0.001561 0.000000 -0.001917
v 0.001917 0.000000 -0.001561
v 0.001813 0.000000 -0.001813
v 0.001561 0.000518 -0.001561
v 0.001917 0.000162 -0.001561
v 0.001561 0.000162 -0.001917
v 0.001813 0.000414 -0.001561
v 0.001767 0.000368 -0.001767
v 0.001813 0.000162 -0.001813
v 0.001561 0.000414 -0.001813
v 0.000000 0.000425 -0.001358
v -0.000000 0.004763 -0.000297
v 0.000960 0.000425 -0.000960
v 0.000210 0.004763 -0.000210
v 0.001358 0.000425 0.000000
v 0.000297 0.004763 0.000000
v 0.000960 0.000425 0.000960
v 0.000210 0.004763 0.000210
v -0.000000 0.000425 0.001358
v -0.000000 0.004763 0.000297
v -0.000960 0.000425 0.000960
v -0.000210 0.004763 0.000210
v -0.001358 0.000425 0.000000
v -0.000297 0.004763 0.000000
v -0.000960 0.000425 -0.000960
v -0.000210 0.004763 -0.000210
v -0.000000 0.001292 -0.001145
v -0.000000 0.002160 -0.000933
v -0.000000 0.003028 -0.000721
v -0.000000 0.003895 -0.000509
v 0.000360 0.003895 -0.000360
v 0.000510 0.003028 -0.000510
v 0.000660 0.002160 -0.000660
v 0.000810 0.001292 -0.000810
v 0.000509 0.003895 0.000000
v 0.000721 0.003028 0.000000
v 0.000933 0.002160 0.000000
v 0.001145 0.001292 0.000000
v 0.000360 0.003895 0.000360
v 0.000510 0.003028 0.000510
v 0.000660 0.002160 0.000660
v 0.000810 0.001292 0.000810
v -0.000000 0.003895 0.000509
v -0.000000 0.003028 0.000721
v -0.000000 0.002160 0.000933
v -0.000000 0.001292 0.001145
v -0.000360 0.003895 0.000360
v -0.000510 0.003028 0.000510
v -0.000660 0.002160 0.000660
v -0.000810 0.001292 0.000810
v -0.000509 0.003895 0.000000
v -0.000721 0.003028 0.000000
v -0.000933 0.002160 0.000000
v -0.001145 0.001292 0.000000
v -0.000360 0.003895 -0.000360
v -0.000510 0.003028 -0.000510
v -0.000660 0.002160 -0.000660
v -0.000810 0.001292 -0.000810
vn -0.0000 -0.0000 1.0000
vn 1.0000 -0.0000 -0.0000
vn -0.0000 1.0000 -0.0000
vn -1.0000 -0.0000 -0.0000
vn -0.0000 -0.0000 -1.0000
vn -0.3251 0.3251 0.8881
vn -0.3251 0.8881 0.3251
vn -0.8881 0.3251 0.3251
vn -0.3251 0.8881 -0.3251
vn -0.3251 0.3251 -0.8881
vn -0.8881 0.3251 -0.3251
vn 0.3251 0.8881 0.3251
vn 0.3251 0.3251 0.8881
vn 0.8881 0.3251 0.3251
vn 0.3251 0.8881 -0.3251
vn 0.8881 0.3251 -0.3251
vn 0.3251 0.3251 -0.8881
vn -0.3827 -0.0000 0.9239
vn -0.9239 -0.0000 0.3827
vn -0.3827 0.9239 -0.0000
vn -0.9239 0.3827 -0.0000
vn -0.3827 -0.0000 -0.9239
vn -0.9239 -0.0000 -0.3827
vn -0.0000 0.9239 -0.3827
vn -0.0000 0.3827 -0.9239
vn 0.9239 -0.0000 -0.3827
vn 0.3827 -0.0000 -0.9239
vn 0.3827 0.9239 -0.0000
vn 0.9239 0.3827 -0.0000
vn 0.3827 -0.0000 0.9239
vn 0.9239 -0.0000 0.3827
vn -0.0000 0.9239 0.3827
vn -0.0000 0.3827 0.9239
vn -0.0000 -1.0000 -0.0000
vn 0.3733 0.2204 -0.9012
vn 0.9012 0.2204 -0.3733
vn 0.9012 0.2204 0.3733
vn 0.3733 0.2204 0.9012
vn -0.3733 0.2204 0.9012
vn -0.9012 0.2204 0.3733
vn -0.9012 0.2204 -0.3733
vn -0.3733 0.2204 -0.9012
vt 0.274683 0.217839
vt 0.272283 0.217839
vt 0.272986 0.217839
vt 0.274683 0.218932
vt 0.274683 0.221333
vt 0.272283 0.218932
vt 0.274683 0.220630
vt 0.273297 0.220318
vt 0.272986 0.220630
vt 0.272986 0.218932
vt 0.272283 0.217839
vt 0.274683 0.217839
vt 0.272986 0.217839
vt 0.274683 0.221333
vt 0.274683 0.218932
vt 0.272283 0.218932
vt 0.274683 0.220630
vt 0.273297 0.220318
vt 0.272986 0.218932
vt 0.272986 0.220630
vt 0.298127 0.217839
vt 0.295727 0.217839
vt 0.297424 0.217839
vt 0.295727 0.221333
vt 0.295727 0.218932
vt 0.298127 0.218932
vt 0.295727 0.220630
vt 0.297113 0.220318
vt 0.297424 0.218932
vt 0.297424 0.220630
vt 0.295727 0.217839
vt 0.298127 0.217839
vt 0.297424 0.217839
vt 0.295727 0.221333
vt 0.298127 0.218932
vt 0.295727 0.218932
vt 0.297424 0.220630
vt 0.297113 0.220318
vt 0.297424 0.218932
vt 0.295727 0.220630
vt 0.285205 0.220701
vt 0.285205 0.249945
vt 0.291676 0.220701
vt 0.286618 0.249945
vt 0.294356 0.220701
vt 0.287204 0.249945
vt 0.291676 0.220701
vt 0.286618 0.249945
vt 0.285205 0.220701
vt 0.285205 0.249945
vt 0.278734 0.220701
vt 0.283792 0.249945
vt 0.276054 0.220701
vt 0.283206 0.249945
vt 0.278734 0.220701
vt 0.283792 0.249945
vt 0.285205 0.226550
vt 0.839749 0.012536
vt 0.839749 0.025907
vt 0.285205 0.232399
vt 0.285205 0.238247
vt 0.839749 0.039278
vt 0.285205 0.244096
vt 0.839749 0.052649
vt 0.287630 0.244096
vt 0.845293 0.052649
vt 0.288641 0.238247
vt 0.847605 0.039278
vt 0.849917 0.025907
vt 0.289653 0.232399
vt 0.290664 0.226550
vt 0.852230 0.012536
vt 0.288634 0.244096
vt 0.847589 0.052649
vt 0.290065 0.238247
vt 0.850859 0.039278
vt 0.854129 0.025907
vt 0.291495 0.232399
vt 0.292925 0.226550
vt 0.857399 0.012536
vt 0.287630 0.244096
vt 0.845293 0.052649
vt 0.288641 0.238247
vt 0.847605 0.039278
vt 0.849917 0.025907
vt 0.289653 0.232399
vt 0.290664 0.226550
vt 0.852230 0.012536
vt 0.285205 0.244096
vt 0.839749 0.052649
vt 0.285205 0.238247
vt 0.839749 0.039278
vt 0.839749 0.025907
vt 0.285205 0.232399
vt 0.285205 0.226550
vt 0.839749 0.012536
vt 0.282780 0.244096
vt 0.834206 0.052649
vt 0.281769 0.238247
vt 0.831894 0.039278
vt 0.829581 0.025907
vt 0.280757 0.232399
vt 0.279746 0.226550
vt 0.827269 0.012536
vt 0.281776 0.244096
vt 0.831910 0.052649
vt 0.280345 0.238247
vt 0.828640 0.039278
vt 0.825369 0.025907
vt 0.278915 0.232399
vt 0.277484 0.226550
vt 0.822099 0.012536
vt 0.282780 0.244096
vt 0.834206 0.052649
vt 0.281769 0.238247
vt 0.831894 0.039278
vt 0.829581 0.025907
vt 0.280757 0.232399
vt 0.279746 0.226550
vt 0.827269 0.012536
s 1
usemtl City_05.047
f 22/22/1 25/25/1 1/1/1
f 1/1/1 25/25/1 4/4/1
f 32/32/2 35/35/2 21/21/2
f 21/21/2 35/35/2 26/26/2
f 34/34/3 14/14/3 24/24/3
f 24/24/3 14/14/3 5/5/3
f 2/2/4 6/6/4 11/11/4
f 11/11/4 6/6/4 16/16/4
f 12/12/5 15/15/5 31/31/5
f 31/31/5 15/15/5 36/36/5
f 7/7/6 8/8/6 4/4/6
f 4/4/6 8/8/6 10/10/6
f 9/9/7 8/8/7 5/5/7
f 5/5/7 8/8/7 7/7/7
f 10/10/8 8/8/8 6/6/8
f 6/6/8 8/8/8 9/9/8
f 17/17/9 18/18/9 14/14/9
f 14/14/9 18/18/9 20/20/9
f 19/19/10 18/18/10 15/15/10
f 15/15/10 18/18/10 17/17/10
f 20/20/11 18/18/11 16/16/11
f 16/16/11 18/18/11 19/19/11
f 27/27/12 28/28/12 24/24/12
f 24/24/12 28/28/12 30/30/12
f 29/29/13 28/28/13 25/25/13
f 25/25/13 28/28/13 27/27/13
f 30/30/14 28/28/14 26/26/14
f 26/26/14 28/28/14 29/29/14
f 37/37/15 38/38/15 34/34/15
f 34/34/15 38/38/15 40/40/15
f 39/39/16 38/38/16 35/35/16
f 35/35/16 38/38/16 37/37/16
f 40/40/17 38/38/17 36/36/17
f 36/36/17 38/38/17 39/39/17
f 1/1/18 4/4/18 3/3/18
f 3/3/18 4/4/18 10/10/18
f 3/3/19 10/10/19 2/2/19
f 2/2/19 10/10/19 6/6/19
f 5/5/20 14/14/20 9/9/20
f 9/9/20 14/14/20 20/20/20
f 9/9/21 20/20/21 6/6/21
f 6/6/21 20/20/21 16/16/21
f 15/15/22 12/12/22 19/19/22
f 19/19/22 12/12/22 13/13/22
f 19/19/23 13/13/23 16/16/23
f 16/16/23 13/13/23 11/11/23
f 14/14/24 34/34/24 17/17/24
f 17/17/24 34/34/24 40/40/24
f 17/17/25 40/40/25 15/15/25
f 15/15/25 40/40/25 36/36/25
f 35/35/26 32/32/26 39/39/26
f 39/39/26 32/32/26 33/33/26
f 39/39/27 33/33/27 36/36/27
f 36/36/27 33/33/27 31/31/27
f 34/34/28 24/24/28 37/37/28
f 37/37/28 24/24/28 30/30/28
f 37/37/29 30/30/29 35/35/29
f 35/35/29 30/30/29 26/26/29
f 25/25/30 22/22/30 29/29/30
f 29/29/30 22/22/30 23/23/30
f 29/29/31 23/23/31 26/26/31
f 26/26/31 23/23/31 21/21/31
f 24/24/32 5/5/32 27/27/32
f 27/27/32 5/5/32 7/7/32
f 27/27/33 7/7/33 25/25/33
f 25/25/33 7/7/33 4/4/33
f 13/13/34 12/12/34 11/11/34
f 11/11/34 12/12/34 2/2/34
f 12/12/34 31/31/34 2/2/34
f 31/31/34 33/33/34 2/2/34
f 33/33/34 32/32/34 2/2/34
f 2/2/34 32/32/34 3/3/34
f 3/3/34 32/32/34 1/1/34
f 23/23/34 22/22/34 21/21/34
f 21/21/34 22/22/34 32/32/34
f 32/32/34 22/22/34 1/1/34
f 60/63/35 42/42/35 61/65/35
f 61/65/35 42/42/35 44/44/35
f 61/65/36 44/44/36 65/73/36
f 65/73/36 44/44/36 46/46/36
f 65/73/37 46/46/37 69/81/37
f 69/81/37 46/46/37 48/48/37
f 69/81/38 48/48/38 73/89/38
f 73/89/38 48/48/38 50/50/38
f 73/89/39 50/50/39 77/97/39
f 77/97/39 50/50/39 52/52/39
f 77/97/40 52/52/40 81/105/40
f 81/105/40 52/52/40 54/54/40
f 44/44/3 42/42/3 46/46/3
f 42/42/3 56/56/3 46/46/3
f 56/56/3 54/54/3 46/46/3
f 54/54/3 52/52/3 46/46/3
f 52/52/3 50/50/3 46/46/3
f 50/50/3 48/48/3 46/46/3
f 81/105/41 54/54/41 85/113/41
f 85/113/41 54/54/41 56/56/41
f 85/113/42 56/56/42 60/63/42
f 60/63/42 56/56/42 42/42/42
f 41/41/34 43/43/34 55/55/34
f 43/43/34 45/45/34 55/55/34
f 45/45/34 47/47/34 55/55/34
f 47/47/34 49/49/34 55/55/34
f 49/49/34 51/51/34 55/55/34
f 51/51/34 53/53/34 55/55/34
f 55/55/42 88/119/42 41/41/42
f 41/41/42 88/119/42 57/57/42
f 88/120/42 87/117/42 57/58/42
f 57/58/42 87/117/42 58/59/42
f 87/118/42 86/115/42 58/60/42
f 58/60/42 86/115/42 59/61/42
f 86/116/42 85/114/42 59/62/42
f 59/62/42 85/114/42 60/64/42
f 53/53/41 84/111/41 55/55/41
f 55/55/41 84/111/41 88/119/41
f 84/112/41 83/109/41 88/120/41
f 88/120/41 83/109/41 87/117/41
f 83/110/41 82/107/41 87/118/41
f 87/118/41 82/107/41 86/115/41
f 82/108/41 81/106/41 86/116/41
f 86/116/41 81/106/41 85/114/41
f 51/51/40 80/103/40 53/53/40
f 53/53/40 80/103/40 84/111/40
f 80/104/40 79/101/40 84/112/40
f 84/112/40 79/101/40 83/109/40
f 79/102/40 78/99/40 83/110/40
f 83/110/40 78/99/40 82/107/40
f 78/100/40 77/98/40 82/108/40
f 82/108/40 77/98/40 81/106/40
f 49/49/39 76/95/39 51/51/39
f 51/51/39 76/95/39 80/103/39
f 76/96/39 75/93/39 80/104/39
f 80/104/39 75/93/39 79/101/39
f 75/94/39 74/91/39 79/102/39
f 79/102/39 74/91/39 78/99/39
f 74/92/39 73/90/39 78/100/39
f 78/100/39 73/90/39 77/98/39
f 47/47/38 72/87/38 49/49/38
f 49/49/38 72/87/38 76/95/38
f 72/88/38 71/85/38 76/96/38
f 76/96/38 71/85/38 75/93/38
f 71/86/38 70/83/38 75/94/38
f 75/94/38 70/83/38 74/91/38
f 70/84/38 69/82/38 74/92/38
f 74/92/38 69/82/38 73/90/38
f 45/45/37 68/79/37 47/47/37
f 47/47/37 68/79/37 72/87/37
f 68/80/37 67/77/37 72/88/37
f 72/88/37 67/77/37 71/85/37
f 67/78/37 66/75/37 71/86/37
f 71/86/37 66/75/37 70/83/37
f 66/76/37 65/74/37 70/84/37
f 70/84/37 65/74/37 69/82/37
f 43/43/36 64/71/36 45/45/36
f 45/45/36 64/71/36 68/79/36
f 64/72/36 63/69/36 68/80/36
f 68/80/36 63/69/36 67/77/36
f 63/70/36 62/67/36 67/78/36
f 67/78/36 62/67/36 66/75/36
f 62/68/36 61/66/36 66/76/36
f 66/76/36 61/66/36 65/74/36
f 41/41/35 57/57/35 43/43/35
f 43/43/35 57/57/35 64/71/35
f 57/58/35 58/59/35 64/72/35
f 64/72/35 58/59/35 63/69/35
f 58/60/35 59/61/35 63/70/35
f 63/70/35 59/61/35 62/67/35
f 59/62/35 60/64/35 62/68/35
f 62/68/35 60/64/35 61/66/35
