# Blender 3.4.1
# www.blender.org
mtllib column2.mtl
o Column_04_LOD0
v 0.144443 0.207378 -0.346717
v 0.077383 0.430810 -0.282918
v -0.171397 0.403101 -0.225737
v -0.141919 0.227509 -0.342833
v -0.230718 0.455194 -0.100345
v -0.340229 -0.002126 0.140941
v 0.280515 0.415862 0.114052
v 0.332711 0.269726 0.090658
v 0.350909 -0.001802 -0.130616
v 0.312632 0.015058 0.182647
v 0.142312 -0.002126 -0.341600
v -0.140354 -0.002126 -0.341600
v 0.279604 0.416736 -0.115946
v 0.142999 -0.001869 0.340323
v 0.115920 0.415649 0.275873
v -0.167555 0.362700 0.261024
v -0.346142 0.204192 0.141239
v -0.140066 -0.002099 0.341731
v 0.149088 0.199569 0.345646
v -0.345350 0.207284 -0.143847
v -0.139658 0.212982 0.343920
v -0.340229 -0.002126 -0.141724
v -0.277692 0.416732 -0.115884
v -0.049054 0.370024 0.299303
v -0.095154 0.633308 0.231473
v -0.196839 0.924011 -0.121932
v 0.096844 1.342566 -0.230565
v -0.229161 1.416549 0.099235
v 0.232005 0.455384 -0.096148
v -0.065902 0.493018 0.237352
v -0.229899 1.275875 -0.096034
v 0.085454 0.458593 -0.234368
v -0.227059 0.463265 0.115373
v 0.082056 1.438809 0.228755
v -0.093199 1.056261 -0.216071
v 0.095499 0.874489 -0.232102
v -0.229565 0.908098 0.094392
v 0.231897 0.455950 0.095268
v 0.231513 1.049228 -0.102172
v -0.098583 1.352849 0.233695
v -0.213717 1.743158 0.075173
v -0.231197 1.013645 -0.059080
v -0.106852 1.577233 0.187711
v -0.278161 0.416779 0.118352
v 0.346941 0.207971 -0.144064
v 0.312196 0.278809 0.151787
v -0.103515 0.484617 -0.213654
v 0.095966 0.464303 0.231082
v 0.231286 1.623648 0.009032
v 0.229154 1.662384 -0.098785
v 0.054490 1.786131 -0.227570
v 0.097232 1.756595 -0.230786
v 0.135390 1.729971 -0.194484
v 0.127129 1.624068 0.184717
v 0.072164 1.643916 0.209482
v 0.007954 1.818484 -0.227203
v -0.030978 1.845458 -0.215558
v -0.026536 1.838005 -0.226883
v -0.197491 1.837916 0.110669
v -0.219299 1.850527 0.089480
v -0.223512 1.868065 0.066573
v -0.084517 1.701134 0.191045
v -0.006296 1.658667 0.217188
v -0.016973 1.730533 0.190348
v -0.110351 1.845542 0.121726
v -0.132763 1.806155 0.145238
v 0.229727 1.541690 0.092702
v 0.196813 1.653857 0.115989
v 0.228667 1.653159 0.042205
v -0.209814 1.868844 -0.111939
v -0.164523 1.861566 -0.154391
v -0.226607 1.920921 -0.022290
v -0.227005 1.882040 -0.093671
v -0.090605 1.849067 -0.225953
v -0.060490 1.847325 -0.226438
v -0.045976 1.855663 -0.203385
v -0.155164 1.916704 -0.009061
v -0.221649 1.935263 -0.005728
vn 0.6355 0.3489 -0.6888
vn 0.6043 0.3812 -0.6997
vn 0.6432 0.3406 -0.6857
vn -0.6447 0.3687 -0.6696
vn -0.6264 0.4325 -0.6485
vn -0.6721 0.3173 -0.6690
vn 0.0323 0.3616 0.9318
vn 0.0164 0.3496 0.9367
vn 0.0132 0.1268 0.9918
vn -0.6774 0.3260 -0.6594
vn -0.5608 0.5577 -0.6119
vn -0.2474 0.4477 -0.8593
vn -0.2473 0.4520 -0.8571
vn -0.2463 0.5088 -0.8249
vn -0.6978 -0.0243 -0.7159
vn -0.7033 -0.0150 -0.7107
vn -0.7018 -0.0175 -0.7121
vn 0.2769 0.8542 -0.4400
vn 0.4577 0.8145 -0.3566
vn 0.3808 0.8361 -0.3949
vn 0.0003 -1.0000 -0.0000
vn 0.0005 -1.0000 0.0005
vn 0.0228 -0.9997 0.0102
vn 0.9430 0.3272 0.0599
vn 0.9452 0.3130 0.0929
vn 0.9473 0.3201 -0.0158
vn -0.9997 -0.0244 -0.0000
vn -0.9996 -0.0269 -0.0018
vn -0.9997 -0.0261 -0.0012
vn -0.0153 -0.0243 -0.9996
vn -0.0087 -0.0161 -0.9998
vn -0.0062 -0.0131 -0.9999
vn -0.0000 -0.0054 -1.0000
vn 0.7210 0.0273 0.6924
vn 0.6978 0.2360 0.6763
vn 0.7023 0.1368 0.6986
vn -0.0000 -1.0000 -0.0000
vn 0.6726 0.3076 -0.6730
vn 0.9983 0.0224 0.0546
vn 0.9204 0.2861 0.2664
vn 0.4353 0.7727 -0.4620
vn 0.4694 0.7375 -0.4856
vn 0.4395 0.7685 -0.4650
vn 0.0005 -1.0000 -0.0001
vn 0.0292 -0.9995 0.0128
vn 0.7086 -0.0289 -0.7050
vn 0.7109 -0.0244 -0.7028
vn 0.7094 -0.0273 -0.7043
vn 0.9157 -0.2151 0.3393
vn 0.0064 0.2763 -0.9610
vn 0.9926 0.0157 0.1204
vn 0.1662 -0.9834 0.0732
vn 0.6824 -0.0399 0.7299
vn -0.6898 0.2694 0.6720
vn -0.6984 0.2936 0.6527
vn -0.7064 0.1223 0.6972
vn -0.9525 0.3044 -0.0020
vn -0.9520 0.3061 -0.0004
vn -0.9521 0.3058 -0.0007
vn -0.9516 0.3073 0.0007
vn -0.3025 0.4179 0.8566
vn -0.3036 0.4053 0.8623
vn -0.3034 0.4083 0.8610
vn 0.6597 0.3374 0.6715
vn 0.6572 0.3267 0.6792
vn 0.7071 -0.0319 -0.7064
vn -0.6892 0.0127 -0.7244
vn -0.8973 -0.0354 -0.4400
vn -0.7747 0.0145 -0.6322
vn -0.9068 -0.0544 -0.4181
vn 0.9505 0.3098 -0.0239
vn -0.0009 0.1087 0.9941
vn -0.7034 -0.0120 0.7107
vn -0.7080 -0.0213 0.7058
vn -0.7071 -0.0086 -0.7071
vn -0.6332 0.7740 -0.0014
vn -0.6664 0.7455 -0.0136
vn -0.6400 0.7683 -0.0039
vn -0.6728 -0.0001 -0.7398
vn -0.6711 -0.0006 -0.7414
vn -0.6664 0.0006 -0.7456
vn -0.6663 0.0026 -0.7457
vn -0.6989 0.1047 0.7075
vn -0.9996 -0.0286 -0.0031
vn -0.0020 -0.0165 0.9999
vn 0.0050 -0.0266 0.9996
vn 0.0023 0.4501 0.8930
vn 0.5208 0.6988 0.4904
vn 0.4519 0.7639 0.4607
vn 0.4666 0.7510 0.4672
vn -0.5077 0.5979 0.6203
vn -0.5524 0.5632 0.6145
vn -0.5303 0.5808 0.6177
vn -0.3044 0.3949 0.8668
vn -0.0787 0.0021 -0.9969
vn -0.0765 0.0003 -0.9971
vn -0.0786 0.0063 -0.9969
vn -0.9999 -0.0013 0.0111
vn -1.0000 0.0006 0.0090
vn -0.9999 -0.0041 0.0154
vn -0.0066 0.0713 0.9974
vn -0.0209 0.0963 0.9951
vn -0.0674 0.1979 0.9779
vn 0.6927 -0.0057 -0.7212
vn 0.6892 -0.0008 -0.7246
vn 0.6932 -0.0013 -0.7208
vn -0.7071 0.0408 0.7060
vn -0.6590 0.0777 0.7481
vn -0.6919 0.0633 0.7192
vn -0.6453 -0.0209 0.7637
vn -0.5905 -0.0895 0.8020
vn -0.6641 -0.0118 0.7476
vn -0.9993 -0.0355 0.0137
vn -0.9989 -0.0204 0.0429
vn -0.9983 -0.0054 0.0576
vn -0.9980 -0.0442 0.0440
vn 0.6970 0.0012 -0.7171
vn 0.7166 0.0066 -0.6974
vn -0.5655 0.5524 0.6124
vn -0.9999 0.0120 0.0032
vn -0.9993 0.0323 -0.0186
vn 0.6885 -0.0110 -0.7252
vn 0.0478 0.0518 0.9975
vn 0.0216 0.0221 0.9995
vn 0.0156 0.0128 0.9998
vn 0.0635 0.8616 -0.5036
vn -0.9998 -0.0048 0.0171
vn 0.1515 0.7024 0.6955
vn 0.6788 0.0068 0.7343
vn 0.7071 0.0118 0.7070
vn 0.7032 0.0111 0.7109
vn -0.1093 -0.0022 -0.9940
vn -0.1024 -0.0002 -0.9947
vn -0.6663 0.0089 -0.7457
vn 0.5391 0.6794 0.4978
vn -0.6532 0.0187 0.7570
vn 0.6314 0.7754 0.0001
vn 0.6366 0.7712 -0.0019
vn 0.6353 0.7723 -0.0014
vn 0.6305 0.7762 0.0005
vn 0.6859 -0.0126 -0.7276
vn -0.5110 0.7746 -0.3725
vn 0.4819 0.7236 -0.4942
vn -0.6733 0.7392 -0.0162
vn -0.2465 0.3398 -0.9076
vn 0.4398 0.1050 0.8919
vn -0.7133 0.0007 0.7009
vn 1.0000 0.0010 0.0020
vn 1.0000 0.0008 0.0006
vn 1.0000 0.0017 0.0052
vn -0.7281 -0.1276 0.6735
vn -0.6882 -0.0586 0.7232
vn 0.1283 0.1721 0.9767
vn -0.9892 -0.0687 0.1294
vn -0.9971 -0.0035 0.0756
vn -0.6961 -0.0067 -0.7179
vn -0.6893 -0.0056 -0.7244
vn -0.0921 0.3976 0.9129
vn 0.6889 -0.0010 -0.7249
vn -0.0384 -0.0080 -0.9992
vn -0.0754 -0.0005 -0.9972
vn 0.9030 0.1844 0.3881
vn 0.9998 0.0039 -0.0184
vn 1.0000 0.0026 -0.0031
vn 0.0547 0.9109 -0.4090
vn 0.0622 0.9092 -0.4116
vn -0.2610 -0.0270 0.9650
vn -0.6383 0.0164 0.7696
vn 0.5547 0.8074 0.2012
vn 0.6767 0.0065 0.7363
vn 1.0000 0.0016 0.0074
vn -0.0265 0.7929 0.6088
vn -0.0165 -0.0124 -0.9998
vn -0.0407 0.9264 -0.3744
vt 0.349528 0.021296
vt 0.349207 0.022365
vt 0.348016 0.022233
vt 0.348157 0.021392
vt 0.394214 0.029056
vt 0.347732 0.022482
vt 0.347207 0.020292
vt 0.350179 0.022294
vt 0.350429 0.021594
vt 0.350516 0.020294
vt 0.350333 0.020375
vt 0.349518 0.020292
vt 0.348164 0.020292
vt 0.350175 0.022298
vt 0.349521 0.020294
vt 0.349391 0.022293
vt 0.348034 0.022039
vt 0.347179 0.021280
vt 0.348166 0.020293
vt 0.349550 0.021258
vt 0.347183 0.021295
vt 0.348168 0.021322
vt 0.347207 0.020292
vt 0.347507 0.022298
vt 0.348601 0.022074
vt 0.394504 0.029438
vt 0.394286 0.030061
vt 0.394915 0.030957
vt 0.394217 0.031115
vt 0.349947 0.022483
vt 0.395205 0.029057
vt 0.394567 0.029137
vt 0.348521 0.022663
vt 0.394216 0.030814
vt 0.349245 0.022498
vt 0.394891 0.029064
vt 0.347749 0.022521
vt 0.394222 0.029074
vt 0.394907 0.031267
vt 0.394508 0.030344
vt 0.394912 0.029954
vt 0.394216 0.030026
vt 0.349947 0.022486
vt 0.395205 0.029058
vt 0.395204 0.030329
vt 0.394497 0.030979
vt 0.394220 0.032064
vt 0.394213 0.030252
vt 0.394507 0.031569
vt 0.347504 0.022298
vt 0.350497 0.021298
vt 0.350331 0.021638
vt 0.394486 0.029119
vt 0.348341 0.022623
vt 0.349296 0.022526
vt 0.394913 0.029076
vt 0.395204 0.031644
vt 0.395200 0.031647
vt 0.394825 0.031907
vt 0.394916 0.031844
vt 0.394998 0.031787
vt 0.395038 0.031759
vt 0.394909 0.031849
vt 0.394725 0.031976
vt 0.394641 0.032034
vt 0.394651 0.032018
vt 0.394251 0.032119
vt 0.394223 0.032120
vt 0.394220 0.032125
vt 0.394507 0.031954
vt 0.394685 0.031999
vt 0.394691 0.032000
vt 0.394447 0.032169
vt 0.394391 0.032130
vt 0.395204 0.031504
vt 0.395127 0.031697
vt 0.395204 0.031644
vt 0.394244 0.032166
vt 0.394349 0.032118
vt 0.394221 0.032233
vt 0.394220 0.032176
vt 0.394514 0.032043
vt 0.394578 0.032038
vt 0.394612 0.032054
vt 0.394311 0.032263
vt 0.394220 0.032243
s 1
usemtl TropicalEnvironment_01.002
f 1/1/1 2/2/2 13/14/3
f 23/24/4 3/3/5 20/21/6
f 15/16/7 24/25/8 19/20/9
f 3/3/5 4/4/10 20/21/6
f 3/3/5 23/24/4 47/54/11
f 3/3/12 2/2/13 4/4/14
f 20/21/15 4/4/16 22/23/17
f 57/65/18 56/64/19 58/66/20
f 6/7/21 11/12/22 9/10/23
f 7/8/24 8/9/25 13/14/26
f 22/23/27 6/7/28 20/21/29
f 1/1/30 11/12/31 4/4/32
f 11/12/31 12/13/33 4/4/32
f 10/11/34 46/52/35 19/20/36
f 22/23/37 12/13/37 6/7/21
f 13/14/3 45/51/38 1/1/1
f 9/10/39 45/51/39 8/9/39
f 8/9/25 7/8/24 46/52/40
f 13/14/41 2/2/42 29/30/43
f 18/19/44 6/7/21 9/10/23
f 14/15/45 18/19/44 9/10/23
f 6/7/21 12/13/37 11/12/22
f 9/10/46 11/12/47 1/1/48
f 9/10/49 8/9/49 46/52/49
f 4/4/50 2/2/50 1/1/50
f 10/11/51 9/10/51 46/52/51
f 10/11/52 14/15/45 9/10/23
f 19/20/36 14/15/53 10/11/34
f 16/17/54 44/50/55 17/18/56
f 44/50/57 23/24/58 17/18/59
f 17/18/59 23/24/58 20/21/60
f 21/22/61 24/25/62 16/17/63
f 46/52/35 7/8/64 15/16/65
f 46/52/35 15/16/65 19/20/36
f 45/51/66 9/10/46 1/1/48
f 5/5/67 42/48/68 26/27/69
f 31/34/70 26/27/69 42/48/68
f 45/51/71 13/14/26 8/9/25
f 24/25/8 21/22/72 19/20/9
f 18/19/73 17/18/56 6/7/74
f 12/13/75 22/23/17 4/4/16
f 23/24/76 44/50/77 5/6/78
f 70/78/79 35/40/80 31/34/81 73/81/82
f 17/18/56 18/19/73 21/22/83
f 6/7/28 17/18/84 20/21/29
f 19/20/9 18/19/85 14/15/86
f 16/17/54 17/18/56 21/22/83
f 24/25/8 15/16/7 30/33/87
f 15/16/88 7/8/89 38/43/90
f 44/50/91 16/17/92 33/37/93
f 19/20/9 21/22/72 18/19/85
f 16/17/63 24/25/62 30/33/94
f 35/40/95 27/28/96 36/41/97
f 37/42/98 42/48/99 5/5/100
f 35/40/80 26/27/69 31/34/81
f 40/46/101 34/39/102 43/49/103
f 36/41/104 27/28/105 39/45/106
f 26/27/69 35/40/80 5/5/67
f 40/46/107 43/49/108 28/29/109
f 33/38/110 30/32/111 25/26/112
f 78/86/113 72/80/114 41/47/115 61/69/116
f 53/61/117 50/58/118 39/45/106
f 30/33/119 33/37/93 16/17/92
f 31/34/120 42/48/99 28/29/121
f 36/41/104 39/45/106 29/31/122
f 30/32/123 48/56/124 25/26/125
f 47/54/126 32/35/126 2/2/126
f 33/38/127 37/42/98 5/5/100
f 48/55/128 30/33/128 15/16/128
f 34/39/129 48/56/130 38/44/131
f 47/53/132 35/40/95 32/36/133
f 47/53/134 5/5/67 35/40/80
f 15/16/88 38/43/90 48/55/135
f 28/29/109 43/49/108 41/47/136
f 29/30/137 38/43/138 7/8/139
f 29/30/137 7/8/139 13/14/140
f 32/36/141 36/41/104 29/31/122
f 5/6/142 47/54/142 23/24/142
f 29/30/43 2/2/42 32/35/143
f 5/6/78 44/50/77 33/37/144
f 2/2/13 3/3/12 47/54/145
f 28/29/109 25/26/112 40/46/107
f 28/29/121 41/47/115 31/34/120
f 32/36/133 35/40/95 36/41/97
f 55/63/146 34/39/146 54/62/146
f 33/38/110 25/26/112 37/42/147
f 38/44/148 29/31/149 39/45/150
f 60/68/151 41/47/136 59/67/152
f 25/26/125 48/56/124 34/39/102
f 25/26/125 34/39/102 40/46/101
f 63/71/153 34/39/153 55/63/153 64/72/153
f 28/29/109 37/42/147 25/26/112
f 60/68/154 61/69/116 41/47/115
f 73/81/155 31/34/120 41/47/115 72/80/114
f 74/82/156 35/40/80 71/79/157
f 37/42/98 28/29/121 42/48/99
f 63/71/158 64/72/158 65/73/158 66/74/158 62/70/158
f 27/28/105 52/60/159 53/61/117 39/45/106
f 27/28/96 35/40/95 51/59/160 52/60/161
f 70/78/79 71/79/157 35/40/80
f 68/76/162 67/75/162 69/77/162
f 39/45/150 50/58/163 49/57/164
f 75/83/165 76/84/166 57/65/18 58/66/20
f 34/39/167 63/71/167 62/70/167 43/49/167
f 43/49/108 62/70/168 66/74/168 59/67/152 41/47/136
f 77/85/169 65/73/169 64/72/169 55/63/169 54/62/169 68/76/169 69/77/169 49/57/169 50/58/169 53/61/169 52/60/169 51/59/169 56/64/169 57/65/169 76/84/169
f 38/44/131 67/75/170 68/76/170 54/62/170 34/39/129
f 39/45/150 49/57/164 69/77/171 67/75/171 38/44/148
f 65/73/172 77/85/172 78/86/172 61/69/172 60/68/172 59/67/172 66/74/172
f 56/64/173 51/59/160 35/40/95 74/82/173 75/83/173 58/66/173
f 71/79/174 70/78/174 73/81/174 72/80/174 78/86/174 77/85/174 76/84/166 75/83/165 74/82/174
