# Wavefront OBJ file
# Exported by Misfit Model 3D 1.3.8
# Sun Jan 14 13:45:45 2018

mtllib tris.mtl

# 54 Vertices
v -0.339681 -0.284473 0.12246
v -0.135492 -0.154256 0.486262
v -0.337321 0.116757 0.421897
v -0.575726 0.082772 0.175631
v -0.524662 0.08335 -0.157388
v -0.383443 -0.198471 -0.297311
v -0.055635 -0.299202 -0.283319
v 0.056299 -0.432744 0.004924
v 0.120686 -0.267761 0.295965
v -0.18462 0.121246 -0.523988
v -0.383443 -0.198471 -0.297311
v -0.524662 0.08335 -0.157388
v -0.346231 0.294253 -0.339288
v -0.059777 0.473252 -0.328094
v 0.088589 0.454226 -0.487608
v 0.293173 0.183705 -0.423243
v 0.164207 -0.129239 -0.479212
v -0.055635 -0.299202 -0.283319
v 0.258822 0.53575 -0.107015
v 0.088589 0.454226 -0.487608
v -0.059777 0.473252 -0.328094
v 0.028596 0.551548 -0.037053
v 0.077887 0.546124 0.265182
v 0.339296 0.498933 0.298764
v 0.477759 0.216621 0.156042
v 0.531578 0.21769 -0.174178
v 0.293173 0.183705 -0.423243
v 0.140472 0.179216 0.52544
v 0.339296 0.498933 0.298764
v 0.077887 0.546124 0.265182
v -0.125724 0.364843 0.455478
v -0.337321 0.116757 0.421897
v -0.135492 -0.154256 0.486262
v 0.120686 -0.267761 0.295965
v 0.414914 -0.084533 0.307159
v 0.477759 0.216621 0.156042
v 0.394521 -0.193347 -0.109814
v 0.414914 -0.084533 0.307159
v 0.120686 -0.267761 0.295965
v 0.056299 -0.432744 0.004924
v -0.055635 -0.299202 -0.283319
v 0.164207 -0.129239 -0.479212
v 0.293173 0.183705 -0.423243
v 0.531578 0.21769 -0.174178
v 0.477759 0.216621 0.156042
v -0.339314 0.414876 0.083281
v -0.125724 0.364843 0.455478
v 0.077887 0.546124 0.265182
v 0.028596 0.551548 -0.037053
v -0.059777 0.473252 -0.328094
v -0.346231 0.294253 -0.339288
v -0.524662 0.08335 -0.157388
v -0.575726 0.082772 0.175631
v -0.337321 0.116757 0.421897

# 144 Texture Coordinates
vt 0.7856 0.3198
vt 0.4106 0.3198
vt 0.5079 0.5976
vt 0.7856 0.3198
vt 0.5079 0.5976
vt 0.7856 0.6948
vt 0.7856 0.3198
vt 0.7856 0.6948
vt 1.0634 0.5976
vt 0.7856 0.3198
vt 1.0634 0.5976
vt 1.1606 0.3198
vt 0.7856 0.3198
vt 1.1606 0.3198
vt 1.0634 0.042
vt 0.7856 0.3198
vt 1.0634 0.042
vt 0.7856 -0.0552
vt 0.7856 0.3198
vt 0.7856 -0.0552
vt 0.5079 0.042
vt 0.7856 0.3198
vt 0.5079 0.042
vt 0.4106 0.3198
vt 0.0656 0.3198
vt -0.3094 0.3198
vt -0.2122 0.5976
vt 0.0656 0.3198
vt -0.2122 0.5976
vt 0.0656 0.5601
vt 0.0656 0.3198
vt 0.0656 0.5601
vt 0.3434 0.4631
vt 0.0656 0.3198
vt 0.3434 0.4631
vt 0.4406 0.3198
vt 0.0656 0.3198
vt 0.4406 0.3198
vt 0.3434 0.042
vt 0.0656 0.3198
vt 0.3434 0.042
vt 0.0656 -0.0552
vt 0.0656 0.3198
vt 0.0656 -0.0552
vt -0.2122 0.042
vt 0.0656 0.3198
vt -0.2122 0.042
vt -0.3094 0.3198
vt 0.7856 0.3198
vt 1.1606 0.3198
vt 1.0634 0.4631
vt 0.7856 0.3198
vt 1.0634 0.4631
vt 0.7856 0.4984
vt 0.7856 0.3198
vt 0.7856 0.4984
vt 0.5079 0.5188
vt 0.7856 0.3198
vt 0.5079 0.5188
vt 0.4106 0.3198
vt 0.7856 0.3198
vt 0.4106 0.3198
vt 0.5079 0.042
vt 0.7856 0.3198
vt 0.5079 0.042
vt 0.7856 -0.0552
vt 0.7856 0.3198
vt 0.7856 -0.0552
vt 1.0634 0.042
vt 0.7856 0.3198
vt 1.0634 0.042
vt 1.1606 0.3198
vt 0.0656 0.3198
vt 0.4406 0.3198
vt 0.3434 0.5188
vt 0.0656 0.3198
vt 0.3434 0.5188
vt 0.0656 0.5964
vt 0.0656 0.3198
vt 0.0656 0.5964
vt -0.2122 0.5976
vt 0.0656 0.3198
vt -0.2122 0.5976
vt -0.3094 0.3198
vt 0.0656 0.3198
vt -0.3094 0.3198
vt -0.2122 0.042
vt 0.0656 0.3198
vt -0.2122 0.042
vt 0.0656 -0.0552
vt 0.0656 0.3198
vt 0.0656 -0.0552
vt 0.3434 0.042
vt 0.0656 0.3198
vt 0.3434 0.042
vt 0.4406 0.3198
vt 0.0656 0.7856
vt 0.0656 0.4106
vt -0.2122 0.5079
vt 0.0656 0.7856
vt -0.2122 0.5079
vt -0.3094 0.7856
vt 0.0656 0.7856
vt -0.3094 0.7856
vt -0.2122 1.0634
vt 0.0656 0.7856
vt -0.2122 1.0634
vt 0.0656 1.1606
vt 0.0656 0.7856
vt 0.0656 1.1606
vt 0.3434 1.0634
vt 0.0656 0.7856
vt 0.3434 1.0634
vt 0.4406 0.7856
vt 0.0656 0.7856
vt 0.4406 0.7856
vt 0.3434 0.5079
vt 0.0656 0.7856
vt 0.3434 0.5079
vt 0.0656 0.4106
vt 0.0656 0.7856
vt 0.0656 0.4106
vt 0.3434 0.5079
vt 0.0656 0.7856
vt 0.3434 0.5079
vt 0.3853 0.7856
vt 0.0656 0.7856
vt 0.3853 0.7856
vt 0.3434 1.0634
vt 0.0656 0.7856
vt 0.3434 1.0634
vt 0.0656 1.1606
vt 0.0656 0.7856
vt 0.0656 1.1606
vt -0.2122 1.0634
vt 0.0656 0.7856
vt -0.2122 1.0634
vt -0.3094 0.7856
vt 0.0656 0.7856
vt -0.3094 0.7856
vt -0.2122 0.5079
vt 0.0656 0.7856
vt -0.2122 0.5079
vt 0.0656 0.4106

# 144 Vertex Normals
vn -0.579635 -0.783325 0.224556
vn -0.459117 -0.722856 0.516422
vn -0.663962 -0.444725 0.601143
vn -0.579635 -0.783325 0.224556
vn -0.663962 -0.444725 0.601143
vn -0.78817 -0.547339 0.28144
vn -0.579635 -0.783325 0.224556
vn -0.78817 -0.547339 0.28144
vn -0.870925 -0.48715 -0.06461
vn -0.579635 -0.783325 0.224556
vn -0.870925 -0.48715 -0.06461
vn -0.642784 -0.760875 -0.088876
vn -0.579635 -0.783325 0.224556
vn -0.642784 -0.760875 -0.088876
vn -0.344737 -0.915344 -0.208092
vn -0.579635 -0.783325 0.224556
vn -0.344737 -0.915344 -0.208092
vn -0.309406 -0.940046 0.143463
vn -0.579635 -0.783325 0.224556
vn -0.309406 -0.940046 0.143463
vn -0.138985 -0.880317 0.453569
vn -0.579635 -0.783325 0.224556
vn -0.138985 -0.880317 0.453569
vn -0.459117 -0.722856 0.516422
vn -0.349261 0.008779 -0.936984
vn -0.466654 -0.299749 -0.832096
vn -0.733387 0.004453 -0.679797
vn -0.349261 0.008779 -0.936984
vn -0.733387 0.004453 -0.679797
vn -0.553906 0.308259 -0.773411
vn -0.349261 0.008779 -0.936984
vn -0.553906 0.308259 -0.773411
vn -0.451339 0.550788 -0.702087
vn -0.349261 0.008779 -0.936984
vn -0.451339 0.550788 -0.702087
vn -0.217168 0.280341 -0.935012
vn -0.349261 0.008779 -0.936984
vn -0.217168 0.280341 -0.935012
vn 0.204711 0.012712 -0.97874
vn -0.349261 0.008779 -0.936984
vn 0.204711 0.012712 -0.97874
vn -0.051081 -0.244237 -0.968369
vn -0.349261 0.008779 -0.936984
vn -0.051081 -0.244237 -0.968369
vn -0.206211 -0.532987 -0.820611
vn -0.349261 0.008779 -0.936984
vn -0.206211 -0.532987 -0.820611
vn -0.466654 -0.299749 -0.832096
vn 0.442611 0.87357 -0.202412
vn 0.402607 0.841472 -0.360324
vn -0.039672 0.975038 -0.218466
vn 0.442611 0.87357 -0.202412
vn -0.039672 0.975038 -0.218466
vn 0.029676 0.991555 -0.126247
vn 0.442611 0.87357 -0.202412
vn 0.029676 0.991555 -0.126247
vn 0.12063 0.992214 0.030984
vn 0.442611 0.87357 -0.202412
vn 0.12063 0.992214 0.030984
vn 0.574506 0.817535 -0.039759
vn 0.442611 0.87357 -0.202412
vn 0.574506 0.817535 -0.039759
vn 0.824627 0.565677 -0.000066
vn 0.442611 0.87357 -0.202412
vn 0.824627 0.565677 -0.000066
vn 0.70673 0.659918 -0.255031
vn 0.442611 0.87357 -0.202412
vn 0.70673 0.659918 -0.255031
vn 0.659297 0.537029 -0.526238
vn 0.442611 0.87357 -0.202412
vn 0.659297 0.537029 -0.526238
vn 0.402607 0.841472 -0.360324
vn 0.273978 0.089905 0.957524
vn 0.41692 0.338738 0.843465
vn 0.103181 0.587118 0.802899
vn 0.273978 0.089905 0.957524
vn 0.103181 0.587118 0.802899
vn -0.006779 0.344143 0.938893
vn 0.273978 0.089905 0.957524
vn -0.006779 0.344143 0.938893
vn -0.218998 0.060879 0.973824
vn 0.273978 0.089905 0.957524
vn -0.218998 0.060879 0.973824
vn 0.102602 -0.199403 0.974531
vn 0.273978 0.089905 0.957524
vn 0.102602 -0.199403 0.974531
vn 0.328798 -0.442805 0.834156
vn 0.273978 0.089905 0.957524
vn 0.328798 -0.442805 0.834156
vn 0.527589 -0.143914 0.837221
vn 0.273978 0.089905 0.957524
vn 0.527589 -0.143914 0.837221
vn 0.729133 0.104561 0.676337
vn 0.273978 0.089905 0.957524
vn 0.729133 0.104561 0.676337
vn 0.41692 0.338738 0.843465
vn 0.761312 -0.615737 -0.203155
vn 0.816163 -0.5676 0.108205
vn 0.566758 -0.788816 0.237813
vn 0.761312 -0.615737 -0.203155
vn 0.566758 -0.788816 0.237813
vn 0.545065 -0.829251 -0.123476
vn 0.761312 -0.615737 -0.203155
vn 0.545065 -0.829251 -0.123476
vn 0.362024 -0.823457 -0.436872
vn 0.761312 -0.615737 -0.203155
vn 0.362024 -0.823457 -0.436872
vn 0.62762 -0.600464 -0.495517
vn 0.761312 -0.615737 -0.203155
vn 0.62762 -0.600464 -0.495517
vn 0.757313 -0.284912 -0.587624
vn 0.761312 -0.615737 -0.203155
vn 0.757313 -0.284912 -0.587624
vn 0.902995 -0.341853 -0.260263
vn 0.761312 -0.615737 -0.203155
vn 0.902995 -0.341853 -0.260263
vn 0.965664 -0.247426 0.079202
vn 0.761312 -0.615737 -0.203155
vn 0.965664 -0.247426 0.079202
vn 0.816163 -0.5676 0.108205
vn -0.620276 0.777193 0.105963
vn -0.572482 0.702409 0.42295
vn -0.376749 0.901312 0.213768
vn -0.620276 0.777193 0.105963
vn -0.376749 0.901312 0.213768
vn -0.356692 0.933739 -0.03004
vn -0.620276 0.777193 0.105963
vn -0.356692 0.933739 -0.03004
vn -0.447773 0.875845 -0.179986
vn -0.620276 0.777193 0.105963
vn -0.447773 0.875845 -0.179986
vn -0.676381 0.711109 -0.191917
vn -0.620276 0.777193 0.105963
vn -0.676381 0.711109 -0.191917
vn -0.819283 0.556961 -0.136268
vn -0.620276 0.777193 0.105963
vn -0.819283 0.556961 -0.136268
vn -0.768056 0.605066 0.209724
vn -0.620276 0.777193 0.105963
vn -0.768056 0.605066 0.209724
vn -0.66169 0.560817 0.497644
vn -0.620276 0.777193 0.105963
vn -0.66169 0.560817 0.497644
vn -0.572482 0.702409 0.42295

# pierre, 48 grouped triangles

usemtl feuilles.tga
o pierre
g pierre

f 1/1/1 2/2/2 3/3/3
f 1/4/4 3/5/5 4/6/6
f 1/7/7 4/8/8 5/9/9
f 1/10/10 5/11/11 6/12/12
f 1/13/13 6/14/14 7/15/15
f 1/16/16 7/17/17 8/18/18
f 1/19/19 8/20/20 9/21/21
f 1/22/22 9/23/23 2/24/24
f 10/25/25 11/26/26 12/27/27
f 10/28/28 12/29/29 13/30/30
f 10/31/31 13/32/32 14/33/33
f 10/34/34 14/35/35 15/36/36
f 10/37/37 15/38/38 16/39/39
f 10/40/40 16/41/41 17/42/42
f 10/43/43 17/44/44 18/45/45
f 10/46/46 18/47/47 11/48/48
f 19/49/49 20/50/50 21/51/51
f 19/52/52 21/53/53 22/54/54
f 19/55/55 22/56/56 23/57/57
f 19/58/58 23/59/59 24/60/60
f 19/61/61 24/62/62 25/63/63
f 19/64/64 25/65/65 26/66/66
f 19/67/67 26/68/68 27/69/69
f 19/70/70 27/71/71 20/72/72
f 28/73/73 29/74/74 30/75/75
f 28/76/76 30/77/77 31/78/78
f 28/79/79 31/80/80 32/81/81
f 28/82/82 32/83/83 33/84/84
f 28/85/85 33/86/86 34/87/87
f 28/88/88 34/89/89 35/90/90
f 28/91/91 35/92/92 36/93/93
f 28/94/94 36/95/95 29/96/96
f 37/97/97 38/98/98 39/99/99
f 37/100/100 39/101/101 40/102/102
f 37/103/103 40/104/104 41/105/105
f 37/106/106 41/107/107 42/108/108
f 37/109/109 42/110/110 43/111/111
f 37/112/112 43/113/113 44/114/114
f 37/115/115 44/116/116 45/117/117
f 37/118/118 45/119/119 38/120/120
f 46/121/121 47/122/122 48/123/123
f 46/124/124 48/125/125 49/126/126
f 46/127/127 49/128/128 50/129/129
f 46/130/130 50/131/131 51/132/132
f 46/133/133 51/134/134 52/135/135
f 46/136/136 52/137/137 53/138/138
f 46/139/139 53/140/140 54/141/141
f 46/142/142 54/143/143 47/144/144
