# Wavefront OBJ file
# Exported by Misfit Model 3D 1.3.8
# Mon Jan 09 18:40:47 2023

# 62 Vertices
v -34.986517 6.10662 7.305424
v -34.66932 6.106391 5.330737
v -34.581426 8.06409 7.370266
v -34.264233 8.063861 5.395581
v -3.339423 1.499789 10.352359
v -3.02223 1.49956 8.377672
v -3.427328 -0.457909 8.312828
v -1.406735 1.089534 10.662853
v -0.930947 1.089192 7.700822
v -3.744521 -0.457681 10.287515
v -3.268732 -0.458025 7.325485
v -1.811832 -0.867936 10.598009
v -31.176631 6.10387 -16.413074
v -30.859434 6.10364 -18.38776
v -30.771532 8.061341 -16.348231
v -30.454339 8.061113 -18.322917
v -0.167497 1.4975 -9.394511
v 0.149697 1.497271 -11.369198
v -0.572594 -0.45997 -9.459354
v -0.2554 -0.460201 -11.434042
v -0.73119 -0.459857 -8.472011
v 2.082385 1.087016 -11.058704
v 1.677289 -0.870455 -11.123547
v -34.394294 5.127311 2.325158
v -34.191749 6.106045 2.357579
v -35.189067 5.127885 7.273002
v -2.014382 -1.846671 10.565588
v -1.538591 -1.847015 7.603558
v -31.061987 5.124905 -18.420182
v -31.654202 6.104216 -13.439916
v 1.474738 -1.849191 -11.15597
v -29.566292 10.897297 18.626517
v -29.905229 10.923279 16.655616
v -29.01232 12.81777 18.556566
v -29.351264 12.843753 16.585668
v 0.912762 3.919588 11.251946
v 0.573817 3.94557 9.281047
v 0.019842 2.025099 9.350998
v 2.804381 3.361818 10.919283
v 2.295964 3.400793 7.962935
v 0.358786 1.999115 11.321898
v -0.149631 2.038089 8.365549
v 2.250406 1.441345 10.989234
v -33.63744 11.209384 -5.046479
v -33.976379 11.235366 -7.017378
v -33.083462 13.129858 -5.116431
v -33.422405 13.155841 -7.087329
v -2.47668 4.179417 -8.457041
v -2.815623 4.2054 -10.42794
v -3.030655 2.258944 -8.38709
v -3.369598 2.284925 -10.357989
v -2.861182 2.245951 -7.40164
v -0.924003 3.64763 -10.760603
v -1.477977 1.727156 -10.690653
v -30.692545 10.002164 13.72314
v -30.415562 10.962399 13.688164
v -29.84328 9.93706 18.661493
v 1.973418 0.481108 11.02421
v 1.465004 0.520082 8.067862
v -34.25337 10.27513 -6.982401
v -33.127108 11.170264 -2.079027
v -1.754966 0.766919 -10.655677

# 324 Texture Coordinates
vt 15.90625 -14.9375
vt 15.96875 -15.0
vt 15.90625 -15.0
vt 15.90625 -14.9375
vt 15.96875 -14.9375
vt 15.96875 -15.0
vt 15.96875 18.0
vt 15.90625 17.0
vt 15.90625 18.0
vt 15.96875 18.0
vt 15.96875 17.0
vt 15.90625 17.0
vt 16.0 18.0
vt 15.9375 17.0
vt 15.9375 18.0
vt 16.0 18.0
vt 16.0 17.0
vt 15.9375 17.0
vt 16.0 18.0625
vt 15.90625 18.0
vt 15.90625 18.0625
vt 16.0 18.0625
vt 16.59375 18.0
vt 15.90625 18.0
vt 15.96875 -15.0
vt 15.90625 -15.0
vt 15.90625 -14.9375
vt 15.90625 -14.9375
vt 16.0 -15.0
vt 15.96875 -15.0
vt 15.90625 -14.9375
vt 16.59375 -14.9375
vt 16.0 -15.0
vt 15.9375 18.0
vt 15.9375 17.0
vt 16.0 17.0
vt 16.0 17.0
vt 15.9375 18.0625
vt 15.9375 18.0
vt 16.0 17.0
vt 16.0 18.0625
vt 15.9375 18.0625
vt 16.0 -15.03125
vt 16.59375 -15.0
vt 16.0 -14.9375
vt 15.90625 -14.9375
vt 15.90625 -15.0
vt 16.0 -14.9375
vt 16.53125 -14.9375
vt 16.59375 -15.0
vt 16.53125 -15.0
vt 16.53125 -14.9375
vt 16.59375 -14.9375
vt 16.59375 -15.0
vt 16.59375 18.0
vt 16.53125 17.0
vt 16.53125 18.0
vt 16.59375 18.0
vt 16.59375 17.0
vt 16.53125 17.0
vt 16.0 17.0
vt 15.9375 18.0
vt 15.9375 17.0
vt 16.0 17.0
vt 16.0 18.0
vt 15.9375 18.0
vt 16.0 -15.03125
vt 16.59375 -15.03125
vt 16.59375 -15.0
vt 16.5 -15.0
vt 16.0 -15.0
vt 16.59375 -14.9375
vt 16.59375 -15.0
vt 16.5 -15.0
vt 16.59375 -14.9375
vt 16.59375 17.0
vt 16.0 18.0625
vt 16.0 17.0
vt 16.0 18.0625
vt 16.59375 18.0625
vt 16.59375 18.0
vt 15.9375 18.0
vt 15.9375 18.0625
vt 16.0 18.0625
vt 16.0 18.0625
vt 15.9375 17.0
vt 15.9375 18.0
vt 16.0 18.0625
vt 16.0 17.0
vt 15.9375 17.0
vt 16.59375 17.0
vt 16.59375 18.0625
vt 16.0 18.0625
vt 16.0 -14.9375
vt 16.59375 -15.0
vt 16.59375 -14.9375
vt 15.96875 -15.0
vt 16.0 -15.0
vt 16.0 -15.03125
vt 16.0 -15.03125
vt 15.90625 -15.0
vt 15.96875 -15.0
vt 16.0 -15.03125
vt 15.90625 -15.03125
vt 15.90625 -15.0
vt 16.03125 17.0
vt 16.0 18.0625
vt 16.0 17.0
vt 16.03125 17.0
vt 16.03125 18.0625
vt 16.0 18.0625
vt 15.90625 -15.0
vt 16.0 -15.03125
vt 16.0 -14.9375
vt 15.90625 -15.0
vt 15.90625 -15.03125
vt 16.0 -15.03125
vt 16.0 17.0
vt 15.90625 18.0625
vt 15.90625 17.0
vt 16.0 17.0
vt 16.0 18.0625
vt 15.90625 18.0625
vt 16.53125 -15.0
vt 16.59375 -15.0
vt 16.59375 -15.03125
vt 16.5 -15.0
vt 16.53125 -15.0
vt 16.59375 -15.03125
vt 16.59375 -15.03125
vt 16.0 -15.0
vt 16.5 -15.0
vt 16.59375 -15.03125
vt 16.0 -15.03125
vt 16.0 -15.0
vt 16.03125 18.0625
vt 16.0 17.0
vt 16.0 18.0625
vt 16.03125 18.0625
vt 16.03125 17.0
vt 16.0 17.0
vt 33.0625 33.0
vt 33.0 33.0
vt 33.1875 35.0
vt 32.0 35.0
vt 32.0 33.0
vt 31.9375 33.0
vt 33.1875 35.0
vt 33.0 33.0
vt 33.0 35.0
vt 33.1875 35.0
vt 33.1875 33.0
vt 33.0625 33.0
vt 32.0 35.0
vt 31.9375 33.0
vt 31.9375 35.0
vt 33.0 18.0
vt 32.0 17.0
vt 32.0 18.0
vt 33.0 18.0
vt 33.0 17.0
vt 32.0 17.0
vt 15.90625 -14.9375
vt 15.96875 -15.0
vt 15.90625 -15.0
vt 15.90625 -14.9375
vt 15.96875 -14.9375
vt 15.96875 -15.0
vt 15.96875 18.0
vt 15.90625 17.0
vt 15.90625 18.0
vt 15.96875 18.0
vt 15.96875 17.0
vt 15.90625 17.0
vt 16.0 18.0
vt 15.9375 17.0
vt 15.9375 18.0
vt 16.0 18.0
vt 16.0 17.0
vt 15.9375 17.0
vt 16.0 18.0625
vt 15.90625 18.0
vt 15.90625 18.0625
vt 16.0 18.0625
vt 16.59375 18.0
vt 15.90625 18.0
vt 15.96875 -15.0
vt 15.90625 -15.0
vt 15.90625 -14.9375
vt 15.90625 -14.9375
vt 16.0 -15.0
vt 15.96875 -15.0
vt 15.90625 -14.9375
vt 16.59375 -14.9375
vt 16.0 -15.0
vt 15.9375 18.0
vt 15.9375 17.0
vt 16.0 17.0
vt 16.0 17.0
vt 15.9375 18.0625
vt 15.9375 18.0
vt 16.0 17.0
vt 16.0 18.0625
vt 15.9375 18.0625
vt 16.0 -15.03125
vt 16.59375 -15.0
vt 16.0 -14.9375
vt 15.90625 -14.9375
vt 15.90625 -15.0
vt 16.0 -14.9375
vt 16.53125 -14.9375
vt 16.59375 -15.0
vt 16.53125 -15.0
vt 16.53125 -14.9375
vt 16.59375 -14.9375
vt 16.59375 -15.0
vt 16.59375 18.0
vt 16.53125 17.0
vt 16.53125 18.0
vt 16.59375 18.0
vt 16.59375 17.0
vt 16.53125 17.0
vt 16.0 17.0
vt 15.9375 18.0
vt 15.9375 17.0
vt 16.0 17.0
vt 16.0 18.0
vt 15.9375 18.0
vt 16.0 -15.03125
vt 16.59375 -15.03125
vt 16.59375 -15.0
vt 16.5 -15.0
vt 16.0 -15.0
vt 16.59375 -14.9375
vt 16.59375 -15.0
vt 16.5 -15.0
vt 16.59375 -14.9375
vt 16.59375 17.0
vt 16.0 18.0625
vt 16.0 17.0
vt 16.0 18.0625
vt 16.59375 18.0625
vt 16.59375 18.0
vt 15.9375 18.0
vt 15.9375 18.0625
vt 16.0 18.0625
vt 16.0 18.0625
vt 15.9375 17.0
vt 15.9375 18.0
vt 16.0 18.0625
vt 16.0 17.0
vt 15.9375 17.0
vt 16.59375 17.0
vt 16.59375 18.0625
vt 16.0 18.0625
vt 16.0 -14.9375
vt 16.59375 -15.0
vt 16.59375 -14.9375
vt 15.96875 -15.0
vt 16.0 -15.0
vt 16.0 -15.03125
vt 16.0 -15.03125
vt 15.90625 -15.0
vt 15.96875 -15.0
vt 16.0 -15.03125
vt 15.90625 -15.03125
vt 15.90625 -15.0
vt 16.03125 17.0
vt 16.0 18.0625
vt 16.0 17.0
vt 16.03125 17.0
vt 16.03125 18.0625
vt 16.0 18.0625
vt 15.90625 -15.0
vt 16.0 -15.03125
vt 16.0 -14.9375
vt 15.90625 -15.0
vt 15.90625 -15.03125
vt 16.0 -15.03125
vt 16.0 17.0
vt 15.90625 18.0625
vt 15.90625 17.0
vt 16.0 17.0
vt 16.0 18.0625
vt 15.90625 18.0625
vt 16.53125 -15.0
vt 16.59375 -15.0
vt 16.59375 -15.03125
vt 16.5 -15.0
vt 16.53125 -15.0
vt 16.59375 -15.03125
vt 16.59375 -15.03125
vt 16.0 -15.0
vt 16.5 -15.0
vt 16.59375 -15.03125
vt 16.0 -15.03125
vt 16.0 -15.0
vt 16.03125 18.0625
vt 16.0 17.0
vt 16.0 18.0625
vt 16.03125 18.0625
vt 16.03125 17.0
vt 16.0 17.0
vt 33.0625 33.0
vt 33.0 33.0
vt 33.1875 35.0
vt 32.0 35.0
vt 32.0 33.0
vt 31.9375 33.0
vt 33.1875 35.0
vt 33.0 33.0
vt 33.0 35.0
vt 33.1875 35.0
vt 33.1875 33.0
vt 33.0625 33.0
vt 32.0 35.0
vt 31.9375 33.0
vt 31.9375 35.0
vt 33.0 18.0
vt 32.0 17.0
vt 32.0 18.0
vt 33.0 18.0
vt 33.0 17.0
vt 32.0 17.0

# 324 Vertex Normals
vn -0.966345 0.205124 -0.155249
vn -0.900607 0.199178 -0.386309
vn -0.966343 0.205131 -0.155249
vn -0.966345 0.205124 -0.155249
vn -0.336468 0.100646 -0.936301
vn -0.900607 0.199178 -0.386309
vn 0.202549 0.978735 0.032422
vn 0.202549 0.978735 0.032422
vn 0.169365 0.961536 0.216249
vn 0.202549 0.978735 0.032422
vn 0.202549 0.978735 0.032422
vn 0.202549 0.978735 0.032422
vn -0.595844 0.149449 -0.789072
vn -0.336468 0.100646 -0.936301
vn 0.097667 0.012753 -0.995137
vn -0.595844 0.149449 -0.789072
vn -0.900607 0.199178 -0.386309
vn -0.336468 0.100646 -0.936301
vn 0.202549 0.978735 0.032422
vn 0.169365 0.961536 0.216249
vn 0.126753 0.904801 0.406532
vn 0.202549 0.978735 0.032422
vn 0.248924 0.947377 -0.201279
vn 0.169365 0.961536 0.216249
vn -0.595844 0.149449 -0.789072
vn -0.966344 0.205128 -0.155247
vn -0.966344 0.205128 -0.155247
vn -0.966344 0.205128 -0.155247
vn -0.966344 0.205127 -0.155247
vn -0.595844 0.149449 -0.789072
vn -0.966344 0.205128 -0.155247
vn -0.966344 0.205127 -0.155247
vn -0.966344 0.205127 -0.155247
vn -0.035685 0.369101 0.928704
vn -0.097667 -0.012753 0.995138
vn -0.071164 0.174298 0.982118
vn -0.071164 0.174298 0.982118
vn 0.055139 0.688082 0.723535
vn 0.132726 0.886238 0.443809
vn -0.071164 0.174298 0.982118
vn 0.594411 -0.14919 0.790201
vn 0.421585 0.224199 0.878636
vn 0.966344 -0.205127 0.155247
vn 0.815302 -0.135432 -0.562976
vn 0.966344 -0.205127 0.155247
vn 0.594412 -0.14919 0.790201
vn 0.594411 -0.14919 0.790201
vn 0.966344 -0.205127 0.155247
vn -0.938949 0.184699 0.290276
vn -0.966344 0.205129 -0.155249
vn -0.899788 0.17294 0.400591
vn -0.938949 0.184699 0.290276
vn -0.966344 0.205126 -0.155247
vn -0.966344 0.205129 -0.155249
vn 0.248924 0.947377 -0.201279
vn 0.202549 0.978735 0.032422
vn 0.202549 0.978735 0.032422
vn 0.248924 0.947377 -0.201279
vn 0.297502 0.704518 -0.644319
vn 0.202549 0.978735 0.032422
vn -0.899788 0.17294 0.400591
vn -0.218901 0.012981 0.975661
vn -0.938949 0.184699 0.290276
vn -0.899788 0.17294 0.400591
vn -0.218901 0.012982 0.975661
vn -0.218901 0.012981 0.975661
vn 0.966344 -0.205127 0.155247
vn 0.610552 -0.100331 -0.785595
vn 0.815302 -0.135432 -0.562976
vn -0.966344 0.205127 -0.155247
vn -0.966344 0.205127 -0.155247
vn -0.966344 0.205127 -0.155247
vn -0.966344 0.205127 -0.155247
vn -0.966344 0.205127 -0.155247
vn -0.966344 0.205127 -0.155247
vn -0.202549 -0.978735 -0.032422
vn -0.202549 -0.978735 -0.032422
vn -0.202549 -0.978735 -0.032422
vn 0.202549 0.978735 0.032422
vn 0.202549 0.978735 0.032422
vn 0.248924 0.947377 -0.201279
vn 0.195066 0.024126 -0.980493
vn 0.158597 -0.000114 -0.987343
vn 0.205275 0.005942 -0.978686
vn 0.728602 -0.115891 -0.675062
vn 0.286822 0.448438 -0.846544
vn 0.265069 0.875462 -0.40411
vn 0.728602 -0.115891 -0.675062
vn 0.215384 -0.012227 -0.976453
vn 0.223378 0.018055 -0.974565
vn -0.202549 -0.978735 -0.032422
vn -0.202549 -0.978735 -0.032422
vn -0.202549 -0.978735 -0.032422
vn 0.966344 -0.205127 0.155247
vn 0.815302 -0.135432 -0.562976
vn 0.966344 -0.205126 0.155247
vn -0.900607 0.199178 -0.386309
vn -0.966344 0.205127 -0.155246
vn -0.966344 0.205129 -0.155247
vn -0.966344 0.205129 -0.155247
vn -0.966343 0.205131 -0.155249
vn -0.900607 0.199178 -0.386309
vn -0.966344 0.205129 -0.155247
vn -0.966344 0.205128 -0.155248
vn -0.966343 0.205131 -0.155249
vn -0.101255 -0.011999 0.994788
vn 0.594411 -0.14919 0.790201
vn -0.071164 0.174298 0.982118
vn -0.101255 -0.011999 0.994788
vn 0.594411 -0.14919 0.790201
vn 0.594411 -0.14919 0.790201
vn 0.594411 -0.14919 0.790201
vn 0.966344 -0.205127 0.155247
vn 0.966344 -0.205127 0.155247
vn 0.594411 -0.14919 0.790201
vn 0.594411 -0.14919 0.790201
vn 0.966344 -0.205127 0.155247
vn -0.202549 -0.978735 -0.032422
vn -0.202549 -0.978735 -0.032422
vn -0.202549 -0.978735 -0.032422
vn -0.202549 -0.978735 -0.032422
vn -0.202549 -0.978735 -0.032422
vn -0.202549 -0.978735 -0.032422
vn -0.899788 0.17294 0.400591
vn -0.966344 0.205129 -0.155249
vn -0.966344 0.205128 -0.155247
vn -0.966344 0.205128 -0.155246
vn -0.899788 0.17294 0.400591
vn -0.966344 0.205128 -0.155247
vn -0.966344 0.205128 -0.155247
vn -0.966344 0.205127 -0.155246
vn -0.966344 0.205128 -0.155246
vn -0.966344 0.205128 -0.155247
vn -0.966344 0.205129 -0.155247
vn -0.966344 0.205127 -0.155246
vn 0.610552 -0.100331 -0.785595
vn 0.215384 -0.012227 -0.976453
vn 0.728602 -0.115891 -0.675062
vn 0.610552 -0.100331 -0.785595
vn 0.215384 -0.012228 -0.976453
vn 0.215384 -0.012227 -0.976453
vn 0.202549 0.978735 0.032421
vn 0.202549 0.978735 0.032422
vn 0.202549 0.978735 0.032421
vn 0.202549 0.978735 0.032421
vn 0.202549 0.978735 0.032422
vn 0.202549 0.978735 0.032421
vn 0.202549 0.978735 0.032421
vn 0.202549 0.978735 0.032422
vn 0.202549 0.978735 0.032422
vn 0.202549 0.978735 0.032421
vn 0.202549 0.978735 0.032422
vn 0.202549 0.978735 0.032421
vn 0.202549 0.978735 0.032421
vn 0.202549 0.978735 0.032421
vn 0.202549 0.978735 0.03242
vn 0.202549 0.978735 0.032422
vn 0.202549 0.978735 0.032422
vn 0.202549 0.978735 0.032421
vn 0.202549 0.978735 0.032422
vn 0.202549 0.978735 0.032422
vn 0.202549 0.978735 0.032422
vn -0.945811 0.278881 0.166331
vn -0.958932 0.273932 -0.073563
vn -0.94581 0.278888 0.166329
vn -0.945811 0.278881 0.166331
vn -0.612156 0.148288 -0.776709
vn -0.958932 0.273932 -0.073563
vn 0.276988 0.960237 -0.034976
vn 0.276988 0.960237 -0.034976
vn 0.303765 0.940915 0.149683
vn 0.276988 0.960237 -0.034976
vn 0.276988 0.960237 -0.034976
vn 0.276988 0.960237 -0.034976
vn -0.805461 0.212186 -0.553362
vn -0.612156 0.148288 -0.776709
vn -0.228467 0.030461 -0.973075
vn -0.805461 0.212186 -0.553362
vn -0.958932 0.273932 -0.073563
vn -0.612156 0.148288 -0.776709
vn 0.276988 0.960237 -0.034976
vn 0.303765 0.940915 0.149683
vn 0.320686 0.882703 0.343506
vn 0.276988 0.960237 -0.034976
vn 0.242792 0.93143 -0.271092
vn 0.303765 0.940915 0.149683
vn -0.805461 0.212186 -0.553362
vn -0.94581 0.278885 0.166332
vn -0.94581 0.278885 0.166332
vn -0.94581 0.278885 0.166332
vn -0.94581 0.278885 0.166332
vn -0.805461 0.212186 -0.553362
vn -0.94581 0.278885 0.166332
vn -0.94581 0.278885 0.166332
vn -0.94581 0.278885 0.166332
vn 0.294905 0.347397 0.890138
vn 0.228467 -0.03046 0.973075
vn 0.263681 0.154427 0.952168
vn 0.263681 0.154427 0.952168
vn 0.338867 0.663931 0.666607
vn 0.336935 0.862827 0.376835
vn 0.263681 0.154427 0.952168
vn 0.804495 -0.211851 0.554894
vn 0.698852 0.170822 0.694569
vn 0.94581 -0.278885 -0.166332
vn 0.576632 -0.18043 -0.796831
vn 0.94581 -0.278884 -0.166332
vn 0.804495 -0.211851 0.554893
vn 0.804495 -0.211851 0.554894
vn 0.94581 -0.278884 -0.166332
vn -0.777579 0.245386 0.578927
vn -0.94581 0.278885 0.16633
vn -0.705902 0.228047 0.670594
vn -0.777579 0.245386 0.578927
vn -0.945811 0.278884 0.166332
vn -0.94581 0.278885 0.16633
vn 0.242792 0.93143 -0.271092
vn 0.276988 0.960237 -0.034976
vn 0.276988 0.960237 -0.034976
vn 0.242792 0.93143 -0.271092
vn 0.126721 0.696821 -0.705962
vn 0.276988 0.960237 -0.034976
vn -0.705902 0.228047 0.670594
vn 0.109809 0.004528 0.993942
vn -0.777579 0.245386 0.578927
vn -0.705902 0.228047 0.670594
vn 0.109809 0.004529 0.993942
vn 0.109809 0.004528 0.993942
vn 0.94581 -0.278885 -0.166332
vn 0.31428 -0.124936 -0.941073
vn 0.576632 -0.18043 -0.796831
vn -0.94581 0.278885 0.166332
vn -0.94581 0.278885 0.166332
vn -0.94581 0.278885 0.166332
vn -0.94581 0.278885 0.166331
vn -0.94581 0.278885 0.166332
vn -0.94581 0.278885 0.166332
vn -0.276988 -0.960237 0.034976
vn -0.276988 -0.960237 0.034976
vn -0.276988 -0.960237 0.034976
vn 0.276988 0.960237 -0.034976
vn 0.276988 0.960237 -0.034976
vn 0.242792 0.93143 -0.271092
vn -0.130991 0.034328 -0.990789
vn -0.169472 0.012992 -0.985449
vn -0.12218 0.015408 -0.992388
vn 0.460144 -0.151823 -0.874767
vn 0.031555 0.447337 -0.893809
vn 0.186932 0.86362 -0.468207
vn 0.460144 -0.151823 -0.874767
vn -0.113325 -0.0035 -0.993552
vn -0.102839 0.026062 -0.994357
vn -0.276988 -0.960237 0.034976
vn -0.276988 -0.960237 0.034976
vn -0.276988 -0.960237 0.034976
vn 0.94581 -0.278884 -0.166332
vn 0.576632 -0.18043 -0.796831
vn 0.94581 -0.278884 -0.166332
vn -0.958932 0.273932 -0.073563
vn -0.94581 0.278885 0.166332
vn -0.94581 0.278886 0.166331
vn -0.94581 0.278886 0.166331
vn -0.94581 0.278888 0.166329
vn -0.958932 0.273932 -0.073563
vn -0.94581 0.278886 0.166331
vn -0.945811 0.278884 0.166331
vn -0.94581 0.278888 0.166329
vn 0.225028 -0.029437 0.973907
vn 0.804495 -0.211851 0.554894
vn 0.263681 0.154427 0.952168
vn 0.225028 -0.029437 0.973907
vn 0.804495 -0.211851 0.554894
vn 0.804495 -0.211851 0.554894
vn 0.804495 -0.211851 0.554894
vn 0.94581 -0.278885 -0.166332
vn 0.94581 -0.278884 -0.166332
vn 0.804495 -0.211851 0.554894
vn 0.804495 -0.211851 0.554894
vn 0.94581 -0.278885 -0.166332
vn -0.276988 -0.960237 0.034976
vn -0.276988 -0.960237 0.034976
vn -0.276988 -0.960237 0.034976
vn -0.276988 -0.960237 0.034976
vn -0.276988 -0.960237 0.034976
vn -0.276988 -0.960237 0.034976
vn -0.705902 0.228047 0.670594
vn -0.94581 0.278885 0.16633
vn -0.94581 0.278884 0.166332
vn -0.94581 0.278884 0.166333
vn -0.705902 0.228047 0.670594
vn -0.94581 0.278884 0.166332
vn -0.94581 0.278884 0.166332
vn -0.94581 0.278885 0.166332
vn -0.94581 0.278884 0.166333
vn -0.94581 0.278884 0.166332
vn -0.94581 0.278886 0.166331
vn -0.94581 0.278885 0.166332
vn 0.31428 -0.124936 -0.941073
vn -0.113325 -0.0035 -0.993552
vn 0.460144 -0.151823 -0.874767
vn 0.31428 -0.124936 -0.941073
vn -0.113325 -0.003501 -0.993552
vn -0.113325 -0.0035 -0.993552
vn 0.276988 0.960237 -0.034976
vn 0.276988 0.960237 -0.034976
vn 0.276988 0.960237 -0.034976
vn 0.276987 0.960237 -0.034977
vn 0.276988 0.960237 -0.034976
vn 0.276987 0.960237 -0.034977
vn 0.276988 0.960237 -0.034976
vn 0.276988 0.960237 -0.034976
vn 0.276988 0.960237 -0.034976
vn 0.276988 0.960237 -0.034976
vn 0.276988 0.960237 -0.034976
vn 0.276988 0.960237 -0.034976
vn 0.276987 0.960237 -0.034977
vn 0.276987 0.960237 -0.034977
vn 0.276987 0.960237 -0.034977
vn 0.276988 0.960237 -0.034976
vn 0.276988 0.960237 -0.034976
vn 0.276987 0.960237 -0.034977
vn 0.276988 0.960237 -0.034976
vn 0.276988 0.960237 -0.034976
vn 0.276988 0.960237 -0.034976

# slot8, 47 grouped triangles

o slot8
g slot8

f 3/1/1 2/2/2 1/3/3
f 3/4/4 4/5/5 2/6/6
f 6/7/7 3/8/8 5/9/9
f 6/10/10 4/11/11 3/12/12
f 7/13/13 4/14/14 6/15/15
f 7/16/16 2/17/17 4/18/18
f 9/19/19 5/20/20 8/21/21
f 9/22/22 18/23/23 5/24/24
f 7/25/25 10/26/26 5/27/27
f 5/28/28 11/29/29 7/30/30
f 5/31/31 18/32/32 11/33/33
f 5/34/34 3/35/35 1/36/36
f 1/37/37 8/38/38 5/39/39
f 1/40/40 12/41/41 8/42/42
f 28/43/43 23/44/44 9/45/45
f 8/46/46 12/47/47 9/48/48
f 15/49/49 14/50/50 13/51/51
f 15/52/52 16/53/53 14/54/54
f 18/55/55 15/56/56 17/57/57
f 18/58/58 16/59/59 15/60/60
f 13/61/61 17/62/62 15/63/63
f 13/64/64 19/65/65 17/66/66
f 28/67/67 31/68/68 23/69/69
f 21/70/70 11/71/71 18/72/72
f 20/73/73 21/74/74 18/75/75
f 29/76/76 28/77/77 24/78/78
f 9/79/79 22/80/80 18/81/81
f 18/82/82 22/83/83 23/84/84
f 23/85/85 16/86/86 18/87/87
f 23/88/88 14/89/89 16/90/90
f 29/91/91 31/92/92 28/93/93
f 9/94/94 23/95/95 22/96/96
f 2/97/97 25/98/98 24/99/99
f 24/100/100 1/101/101 2/102/102
f 24/103/103 26/104/104 1/105/105
f 26/106/106 12/107/107 1/108/108
f 26/109/109 27/110/110 12/111/111
f 12/112/112 28/113/113 9/114/114
f 12/115/115 27/116/116 28/117/117
f 24/118/118 27/119/119 26/120/120
f 24/121/121 28/122/122 27/123/123
f 13/124/124 14/125/125 29/126/126
f 30/127/127 13/128/128 29/129/129
f 29/130/130 25/131/131 30/132/132
f 29/133/133 24/134/134 25/135/135
f 31/136/136 14/137/137 23/138/138
f 31/139/139 29/140/140 14/141/141
# slot137, 5 grouped triangles

o slot137
g slot137

f 13/142/142 30/143/143 20/144/144
f 11/145/145 25/146/146 2/147/147
f 20/148/148 30/149/149 21/150/150
f 20/151/151 14/152/152 13/153/153
f 11/154/154 2/155/155 7/156/156
# slot258, 2 grouped triangles

o slot258
g slot258

f 21/157/157 25/158/158 11/159/159
f 21/160/160 30/161/161 25/162/162
# slot8, 47 grouped triangles

o slot8
g slot8

f 34/163/163 33/164/164 32/165/165
f 34/166/166 35/167/167 33/168/168
f 37/169/169 34/170/170 36/171/171
f 37/172/172 35/173/173 34/174/174
f 38/175/175 35/176/176 37/177/177
f 38/178/178 33/179/179 35/180/180
f 40/181/181 36/182/182 39/183/183
f 40/184/184 49/185/185 36/186/186
f 38/187/187 41/188/188 36/189/189
f 36/190/190 42/191/191 38/192/192
f 36/193/193 49/194/194 42/195/195
f 36/196/196 34/197/197 32/198/198
f 32/199/199 39/200/200 36/201/201
f 32/202/202 43/203/203 39/204/204
f 59/205/205 54/206/206 40/207/207
f 39/208/208 43/209/209 40/210/210
f 46/211/211 45/212/212 44/213/213
f 46/214/214 47/215/215 45/216/216
f 49/217/217 46/218/218 48/219/219
f 49/220/220 47/221/221 46/222/222
f 44/223/223 48/224/224 46/225/225
f 44/226/226 50/227/227 48/228/228
f 59/229/229 62/230/230 54/231/231
f 52/232/232 42/233/233 49/234/234
f 51/235/235 52/236/236 49/237/237
f 60/238/238 59/239/239 55/240/240
f 40/241/241 53/242/242 49/243/243
f 49/244/244 53/245/245 54/246/246
f 54/247/247 47/248/248 49/249/249
f 54/250/250 45/251/251 47/252/252
f 60/253/253 62/254/254 59/255/255
f 40/256/256 54/257/257 53/258/258
f 33/259/259 56/260/260 55/261/261
f 55/262/262 32/263/263 33/264/264
f 55/265/265 57/266/266 32/267/267
f 57/268/268 43/269/269 32/270/270
f 57/271/271 58/272/272 43/273/273
f 43/274/274 59/275/275 40/276/276
f 43/277/277 58/278/278 59/279/279
f 55/280/280 58/281/281 57/282/282
f 55/283/283 59/284/284 58/285/285
f 44/286/286 45/287/287 60/288/288
f 61/289/289 44/290/290 60/291/291
f 60/292/292 56/293/293 61/294/294
f 60/295/295 55/296/296 56/297/297
f 62/298/298 45/299/299 54/300/300
f 62/301/301 60/302/302 45/303/303
# slot137, 5 grouped triangles

o slot137
g slot137

f 44/304/304 61/305/305 51/306/306
f 42/307/307 56/308/308 33/309/309
f 51/310/310 61/311/311 52/312/312
f 51/313/313 45/314/314 44/315/315
f 42/316/316 33/317/317 38/318/318
# slot258, 2 grouped triangles

o slot258
g slot258

f 52/319/319 56/320/320 42/321/321
f 52/322/322 61/323/323 56/324/324
