# Blender 3.4.1
# www.blender.org
mtllib untitled.mtl
o Bench_01
v -0.008838 -0.000422 0.002342
v -0.008838 0.003771 0.002342
v -0.008838 -0.000422 0.001602
v -0.008838 0.003771 0.001602
v -0.008098 -0.000422 0.002342
v -0.008098 0.003771 0.002342
v -0.008098 -0.000422 0.001602
v -0.008098 0.003771 0.001602
v -0.008838 -0.000422 -0.001602
v -0.008838 0.003771 -0.001602
v -0.008838 -0.000422 -0.002342
v -0.008838 0.003771 -0.002342
v -0.008098 -0.000422 -0.001602
v -0.008098 0.003771 -0.001602
v -0.008098 -0.000422 -0.002342
v -0.008098 0.003771 -0.002342
v -0.008838 0.003080 -0.001602
v -0.008838 0.003080 -0.002342
v -0.008098 0.003080 -0.002342
v -0.008098 0.003080 -0.001602
v -0.008838 0.003080 0.002342
v -0.008838 0.003080 0.001602
v -0.008098 0.003080 0.001602
v -0.008098 0.003080 0.002342
v -0.008838 0.003771 -0.002991
v -0.008098 0.003771 -0.002991
v -0.008838 0.003080 -0.002678
v -0.008098 0.003080 -0.002678
v -0.008838 0.003771 -0.003386
v -0.008098 0.003771 -0.003386
v -0.008838 0.003261 -0.003144
v -0.008098 0.003261 -0.003144
v -0.008838 0.008660 -0.003652
v -0.008098 0.008660 -0.003652
v -0.008838 0.008660 -0.004047
v -0.008098 0.008660 -0.004047
v 0.008838 -0.000422 0.002342
v 0.008838 0.003771 0.002342
v 0.008838 -0.000422 0.001602
v 0.008838 0.003771 0.001602
v 0.008098 -0.000422 0.002342
v 0.008098 0.003771 0.002342
v 0.008098 -0.000422 0.001602
v 0.008098 0.003771 0.001602
v 0.008838 -0.000422 -0.001602
v 0.008838 0.003771 -0.001602
v 0.008838 -0.000422 -0.002342
v 0.008838 0.003771 -0.002342
v 0.008098 -0.000422 -0.001602
v 0.008098 0.003771 -0.001602
v 0.008098 -0.000422 -0.002342
v 0.008098 0.003771 -0.002342
v 0.008838 0.003080 -0.001602
v 0.008838 0.003080 -0.002342
v 0.008098 0.003080 -0.002342
v 0.008098 0.003080 -0.001602
v 0.008838 0.003080 0.002342
v 0.008838 0.003080 0.001602
v 0.008098 0.003080 0.001602
v 0.008098 0.003080 0.002342
v 0.008838 0.003771 -0.002991
v 0.008098 0.003771 -0.002991
v 0.008838 0.003080 -0.002678
v 0.008098 0.003080 -0.002678
v 0.008838 0.003771 -0.003386
v 0.008098 0.003771 -0.003386
v 0.008838 0.003261 -0.003144
v 0.008098 0.003261 -0.003144
v 0.008838 0.008660 -0.003652
v 0.008098 0.008660 -0.003652
v 0.008838 0.008660 -0.004047
v 0.008098 0.008660 -0.004047
v -0.009671 0.003728 0.002692
v -0.009671 0.004245 0.002692
v -0.009671 0.003728 0.000128
v -0.009671 0.004245 0.000128
v 0.009671 0.003728 0.002692
v 0.009671 0.004245 0.002692
v 0.009671 0.003728 0.000128
v 0.009671 0.004245 0.000128
v -0.009671 0.003728 -0.000128
v -0.009671 0.004245 -0.000128
v -0.009671 0.003728 -0.002692
v -0.009671 0.004245 -0.002692
v 0.009671 0.003728 -0.000128
v 0.009671 0.004245 -0.000128
v 0.009671 0.003728 -0.002692
v 0.009671 0.004245 -0.002692
v -0.009671 0.004559 -0.003099
v -0.009671 0.004626 -0.002586
v -0.009671 0.006669 -0.003377
v -0.009671 0.006737 -0.002864
v 0.009671 0.004559 -0.003099
v 0.009671 0.004626 -0.002586
v 0.009671 0.006669 -0.003377
v 0.009671 0.006737 -0.002864
v -0.009671 0.007091 -0.003432
v -0.009671 0.007159 -0.002919
v -0.009671 0.009202 -0.003710
v -0.009671 0.009269 -0.003197
v 0.009671 0.007091 -0.003432
v 0.009671 0.007159 -0.002919
v 0.009671 0.009202 -0.003710
v 0.009671 0.009269 -0.003197
vn -1.0000 -0.0000 -0.0000
vn -0.0000 -1.0000 -0.0000
vn 1.0000 -0.0000 -0.0000
vn -0.0000 -0.0000 1.0000
vn -0.0000 1.0000 -0.0000
vn -0.0000 -0.0000 -1.0000
vn -0.0000 -0.9320 -0.3625
vn -0.0000 -0.4281 -0.9037
vn -0.0000 -0.1340 -0.9910
vn -0.0000 0.1340 0.9910
vn -0.0000 0.9914 -0.1305
vn -0.0000 -0.9914 0.1305
vn -0.0000 -0.1305 -0.9914
vn -0.0000 0.1305 0.9914
vt 0.206534 0.021228
vt 0.206534 0.026731
vt 0.206534 0.021228
vt 0.206534 0.026731
vt 0.207504 0.021228
vt 0.207504 0.026731
vt 0.207504 0.021228
vt 0.207504 0.026731
vt 0.206534 0.021228
vt 0.206534 0.026731
vt 0.206534 0.021228
vt 0.206534 0.026731
vt 0.207504 0.021228
vt 0.207504 0.026731
vt 0.207504 0.021228
vt 0.207504 0.026731
vt 0.206534 0.025823
vt 0.206534 0.025823
vt 0.207504 0.025823
vt 0.207504 0.025823
vt 0.206534 0.025823
vt 0.206534 0.025823
vt 0.207504 0.025823
vt 0.207504 0.025823
vt 0.206534 0.026731
vt 0.207504 0.026731
vt 0.206534 0.025823
vt 0.207504 0.025823
vt 0.206534 0.026731
vt 0.207504 0.026731
vt 0.206534 0.026061
vt 0.207504 0.026061
vt 0.206534 0.033147
vt 0.207504 0.033147
vt 0.206534 0.033147
vt 0.207504 0.033147
vt 0.229730 0.021228
vt 0.229730 0.026731
vt 0.229730 0.021228
vt 0.229730 0.026731
vt 0.228760 0.021228
vt 0.228760 0.026731
vt 0.228760 0.021228
vt 0.228760 0.026731
vt 0.229730 0.021228
vt 0.229730 0.026731
vt 0.229730 0.021228
vt 0.229730 0.026731
vt 0.228760 0.021228
vt 0.228760 0.026731
vt 0.228760 0.021228
vt 0.228760 0.026731
vt 0.229730 0.025823
vt 0.229730 0.025823
vt 0.228760 0.025823
vt 0.228760 0.025823
vt 0.229730 0.025823
vt 0.229730 0.025823
vt 0.228760 0.025823
vt 0.228760 0.025823
vt 0.229730 0.026731
vt 0.228760 0.026731
vt 0.229730 0.025823
vt 0.228760 0.025823
vt 0.229730 0.026731
vt 0.228760 0.026731
vt 0.229730 0.026061
vt 0.228760 0.026061
vt 0.229730 0.033147
vt 0.228760 0.033147
vt 0.229730 0.033147
vt 0.228760 0.033147
vt 0.141882 0.358416
vt 0.141882 0.359095
vt 0.141882 0.358416
vt 0.141882 0.359095
vt 0.167266 0.358416
vt 0.167266 0.359095
vt 0.167266 0.358416
vt 0.167266 0.359095
vt 0.141882 0.358416
vt 0.141882 0.359095
vt 0.141882 0.358416
vt 0.141882 0.359095
vt 0.167266 0.358416
vt 0.167266 0.359095
vt 0.167266 0.358416
vt 0.167266 0.359095
vt 0.141882 0.359506
vt 0.141882 0.359595
vt 0.141882 0.362276
vt 0.141882 0.362365
vt 0.167266 0.359506
vt 0.167266 0.359595
vt 0.167266 0.362276
vt 0.167266 0.362365
vt 0.141882 0.362830
vt 0.141882 0.362918
vt 0.141882 0.365600
vt 0.141882 0.365688
vt 0.167266 0.362830
vt 0.167266 0.362918
vt 0.167266 0.365600
vt 0.167266 0.365688
s 1
usemtl City_05.003
f 21/21/1 2/2/1 22/22/1
f 22/22/1 2/2/1 4/4/1
f 17/17/2 20/20/2 22/22/2
f 22/22/2 20/20/2 23/23/2
f 23/23/3 8/8/3 24/24/3
f 24/24/3 8/8/3 6/6/3
f 24/24/4 6/6/4 21/21/4
f 21/21/4 6/6/4 2/2/4
f 3/3/2 7/7/2 1/1/2
f 1/1/2 7/7/2 5/5/2
f 8/8/5 4/4/5 6/6/5
f 6/6/5 4/4/5 2/2/5
f 17/17/1 10/10/1 18/18/1
f 18/18/1 10/10/1 12/12/1
f 18/18/1 12/12/1 27/27/1
f 27/27/1 12/12/1 25/25/1
f 19/19/3 16/16/3 20/20/3
f 20/20/3 16/16/3 14/14/3
f 10/10/1 17/17/1 4/4/1
f 4/4/1 17/17/1 22/22/1
f 11/11/2 15/15/2 9/9/2
f 9/9/2 15/15/2 13/13/2
f 16/16/5 12/12/5 14/14/5
f 14/14/5 12/12/5 10/10/5
f 13/13/4 20/20/4 9/9/4
f 9/9/4 20/20/4 17/17/4
f 15/15/3 19/19/3 13/13/3
f 13/13/3 19/19/3 20/20/3
f 11/11/6 18/18/6 15/15/6
f 15/15/6 18/18/6 19/19/6
f 9/9/1 17/17/1 11/11/1
f 11/11/1 17/17/1 18/18/1
f 5/5/4 24/24/4 1/1/4
f 1/1/4 24/24/4 21/21/4
f 7/7/3 23/23/3 5/5/3
f 5/5/3 23/23/3 24/24/3
f 3/3/6 22/22/6 7/7/6
f 7/7/6 22/22/6 23/23/6
f 1/1/1 21/21/1 3/3/1
f 3/3/1 21/21/1 22/22/1
f 20/20/3 14/14/3 23/23/3
f 23/23/3 14/14/3 8/8/3
f 14/14/5 10/10/5 8/8/5
f 8/8/5 10/10/5 4/4/5
f 28/28/7 27/27/7 32/32/7
f 32/32/7 27/27/7 31/31/7
f 19/19/2 18/18/2 28/28/2
f 28/28/2 18/18/2 27/27/2
f 12/12/5 16/16/5 25/25/5
f 25/25/5 16/16/5 26/26/5
f 19/19/3 28/28/3 16/16/3
f 16/16/3 28/28/3 26/26/3
f 31/31/8 29/29/8 32/32/8
f 32/32/8 29/29/8 30/30/8
f 27/27/1 25/25/1 31/31/1
f 31/31/1 25/25/1 29/29/1
f 28/28/3 32/32/3 26/26/3
f 26/26/3 32/32/3 30/30/3
f 25/25/1 33/33/1 29/29/1
f 29/29/1 33/33/1 35/35/1
f 33/33/5 34/34/5 35/35/5
f 35/35/5 34/34/5 36/36/5
f 30/30/9 29/29/9 36/36/9
f 36/36/9 29/29/9 35/35/9
f 26/26/3 30/30/3 34/34/3
f 34/34/3 30/30/3 36/36/3
f 25/25/10 26/26/10 33/33/10
f 33/33/10 26/26/10 34/34/10
f 57/57/3 58/58/3 38/38/3
f 38/38/3 58/58/3 40/40/3
f 53/53/2 58/58/2 56/56/2
f 56/56/2 58/58/2 59/59/2
f 59/59/1 60/60/1 44/44/1
f 44/44/1 60/60/1 42/42/1
f 60/60/4 57/57/4 42/42/4
f 42/42/4 57/57/4 38/38/4
f 39/39/2 37/37/2 43/43/2
f 43/43/2 37/37/2 41/41/2
f 44/44/5 42/42/5 40/40/5
f 40/40/5 42/42/5 38/38/5
f 53/53/3 54/54/3 46/46/3
f 46/46/3 54/54/3 48/48/3
f 54/54/3 63/63/3 48/48/3
f 48/48/3 63/63/3 61/61/3
f 55/55/1 56/56/1 52/52/1
f 52/52/1 56/56/1 50/50/1
f 46/46/3 40/40/3 53/53/3
f 53/53/3 40/40/3 58/58/3
f 47/47/2 45/45/2 51/51/2
f 51/51/2 45/45/2 49/49/2
f 52/52/5 50/50/5 48/48/5
f 48/48/5 50/50/5 46/46/5
f 49/49/4 45/45/4 56/56/4
f 56/56/4 45/45/4 53/53/4
f 51/51/1 49/49/1 55/55/1
f 55/55/1 49/49/1 56/56/1
f 47/47/6 51/51/6 54/54/6
f 54/54/6 51/51/6 55/55/6
f 45/45/3 47/47/3 53/53/3
f 53/53/3 47/47/3 54/54/3
f 41/41/4 37/37/4 60/60/4
f 60/60/4 37/37/4 57/57/4
f 43/43/1 41/41/1 59/59/1
f 59/59/1 41/41/1 60/60/1
f 39/39/6 43/43/6 58/58/6
f 58/58/6 43/43/6 59/59/6
f 37/37/3 39/39/3 57/57/3
f 57/57/3 39/39/3 58/58/3
f 56/56/1 59/59/1 50/50/1
f 50/50/1 59/59/1 44/44/1
f 50/50/5 44/44/5 46/46/5
f 46/46/5 44/44/5 40/40/5
f 64/64/7 68/68/7 63/63/7
f 63/63/7 68/68/7 67/67/7
f 55/55/2 64/64/2 54/54/2
f 54/54/2 64/64/2 63/63/2
f 48/48/5 61/61/5 52/52/5
f 52/52/5 61/61/5 62/62/5
f 62/62/1 64/64/1 52/52/1
f 52/52/1 64/64/1 55/55/1
f 67/67/8 68/68/8 65/65/8
f 65/65/8 68/68/8 66/66/8
f 63/63/3 67/67/3 61/61/3
f 61/61/3 67/67/3 65/65/3
f 66/66/1 68/68/1 62/62/1
f 62/62/1 68/68/1 64/64/1
f 71/71/3 69/69/3 65/65/3
f 65/65/3 69/69/3 61/61/3
f 69/69/5 71/71/5 70/70/5
f 70/70/5 71/71/5 72/72/5
f 66/66/9 72/72/9 65/65/9
f 65/65/9 72/72/9 71/71/9
f 62/62/1 70/70/1 66/66/1
f 66/66/1 70/70/1 72/72/1
f 61/61/10 69/69/10 62/62/10
f 62/62/10 69/69/10 70/70/10
f 73/73/1 74/74/1 75/75/1
f 75/75/1 74/74/1 76/76/1
f 75/75/6 76/76/6 79/79/6
f 79/79/6 76/76/6 80/80/6
f 79/79/3 80/80/3 77/77/3
f 77/77/3 80/80/3 78/78/3
f 77/77/4 78/78/4 73/73/4
f 73/73/4 78/78/4 74/74/4
f 75/75/2 79/79/2 73/73/2
f 73/73/2 79/79/2 77/77/2
f 80/80/5 76/76/5 78/78/5
f 78/78/5 76/76/5 74/74/5
f 81/81/1 82/82/1 83/83/1
f 83/83/1 82/82/1 84/84/1
f 83/83/6 84/84/6 87/87/6
f 87/87/6 84/84/6 88/88/6
f 87/87/3 88/88/3 85/85/3
f 85/85/3 88/88/3 86/86/3
f 85/85/4 86/86/4 81/81/4
f 81/81/4 86/86/4 82/82/4
f 83/83/2 87/87/2 81/81/2
f 81/81/2 87/87/2 85/85/2
f 88/88/5 84/84/5 86/86/5
f 86/86/5 84/84/5 82/82/5
f 89/89/1 90/90/1 91/91/1
f 91/91/1 90/90/1 92/92/1
f 91/91/11 92/92/11 95/95/11
f 95/95/11 92/92/11 96/96/11
f 95/95/3 96/96/3 93/93/3
f 93/93/3 96/96/3 94/94/3
f 93/93/12 94/94/12 89/89/12
f 89/89/12 94/94/12 90/90/12
f 91/91/13 95/95/13 89/89/13
f 89/89/13 95/95/13 93/93/13
f 96/96/14 92/92/14 94/94/14
f 94/94/14 92/92/14 90/90/14
f 97/97/1 98/98/1 99/99/1
f 99/99/1 98/98/1 100/100/1
f 99/99/11 100/100/11 103/103/11
f 103/103/11 100/100/11 104/104/11
f 103/103/3 104/104/3 101/101/3
f 101/101/3 104/104/3 102/102/3
f 101/101/12 102/102/12 97/97/12
f 97/97/12 102/102/12 98/98/12
f 99/99/13 103/103/13 97/97/13
f 97/97/13 103/103/13 101/101/13
f 104/104/14 100/100/14 102/102/14
f 102/102/14 100/100/14 98/98/14
