# Wavefront OBJ file
# Exported by Misfit Model 3D 1.3.8
# Mon Jul 10 22:41:53 2023

# 69 Vertices
v 1.498937 0.130001 -1.527749
v 0.51589 0.130001 -1.527749
v 1.498937 0.130001 -1.486566
v 0.51589 0.130001 -1.490759
v 1.498937 0.13 -0.546754
v 0.51589 0.13 -0.519499
v 1.498937 0.13 -0.484746
v 0.51589 0.13 -0.484746
v 1.498937 0.13 0.486514
v 0.501214 0.13 0.556984
v 1.498937 0.13 0.521267
v 1.498937 0.129999 1.458196
v 0.53471 0.129999 0.591737
v 0.51589 0.129999 0.610456
v 0.508569 0.129999 0.574399
v 0.497069 0.129999 0.591737
v 0.481136 0.129999 0.591737
v 0.481136 0.13 0.556984
v -0.778809 0.129999 0.591737
v 0.481136 0.129999 1.454065
v 0.481136 0.129999 1.476368
v 0.51589 0.129999 1.458196
v -0.778809 0.129999 1.429215
v -0.813562 0.129999 1.461691
v -0.778809 0.129999 1.476368
v -0.813562 0.129999 1.476368
v -1.502335 0.129999 1.476368
v -1.502335 0.129999 1.458196
v -1.502335 0.13 0.521267
v -1.502335 0.13 0.486514
v -0.824044 0.129999 0.600124
v -0.813562 0.13 0.556984
v -0.778809 0.13 0.556984
v -0.813562 0.13 -0.497325
v -0.778809 0.13 -0.484746
v -0.793035 0.13 -0.519499
v -1.502335 0.13 -0.484746
v -1.502335 0.13 -0.519499
v -1.502335 0.130001 -1.490759
v -1.502335 0.130001 -1.525966
v -0.793035 0.130001 -1.490759
v -0.779701 0.130001 -1.498109
v -0.813562 0.130001 -1.525974
v -0.860539 0.130001 -1.525966
v -0.795574 0.130001 -1.525966
v -0.778809 0.130001 -1.526079
v 0.477513 0.130001 -1.529674
v 0.482807 0.130001 -1.498882
v 0.481813 0.13 -0.524123
v 0.481136 0.13 -0.484746
v -0.741545 0.13 -0.523861
v 0.51589 0.129999 1.476368
v 1.498937 0.129999 1.476368
v -1.488473 0.129999 1.476368
v -1.488473 0.129999 1.458246
v -1.48862 0.129999 0.591855
v -1.488473 0.13 0.556984
v -1.488473 0.13 -0.484924
v -1.488183 0.13 -0.519499
v -1.488183 0.130001 -1.490759
v 1.484054 0.130001 -1.527749
v 1.484054 0.130001 -1.48663
v 1.484054 0.13 -0.546342
v 1.484054 0.13 -0.484746
v 1.483832 0.13 0.556984
v 1.480679 0.129999 1.476368
v 1.485372 0.129999 0.591737
v 1.480374 0.129999 1.458196
v 1.484015 0.13 0.486514

# 321 Texture Coordinates
vt 0.462929 0.036297
vt 0.462848 0.036487
vt 0.462929 0.036487
vt 0.462848 0.036297
vt 0.462848 0.036487
vt 0.462929 0.036297
vt 0.647754 0.035497
vt 0.65592 0.043689
vt 0.65592 0.035497
vt 0.647754 0.043689
vt 0.65592 0.043689
vt 0.647754 0.035497
vt 0.462929 0.030991
vt 0.462848 0.030802
vt 0.462848 0.030991
vt 0.462929 0.030802
vt 0.462848 0.030802
vt 0.462929 0.030991
vt 0.977946 0.104521
vt 0.986112 0.112713
vt 0.986112 0.104521
vt 0.977946 0.112713
vt 0.986112 0.112713
vt 0.977946 0.104521
vt 0.468218 0.022301
vt 0.462929 0.022396
vt 0.468218 0.022396
vt 0.468115 0.022206
vt 0.462929 0.022396
vt 0.468218 0.022301
vt 0.468115 0.022206
vt 0.462922 0.022206
vt 0.462929 0.022396
vt 0.481758 0.018815
vt 0.481872 0.026718
vt 0.481914 0.018815
vt 0.481758 0.026718
vt 0.481872 0.026718
vt 0.481758 0.018815
vt 0.474445 0.028065
vt 0.474445 0.028167
vt 0.474445 0.028167
vt 0.474342 0.028167
vt 0.474445 0.028167
vt 0.474445 0.028065
vt 0.46832 0.022206
vt 0.468408 0.022396
vt 0.468408 0.022206
vt 0.468218 0.022301
vt 0.468408 0.022396
vt 0.46832 0.022206
vt 0.468408 0.022396
vt 0.468218 0.022301
vt 0.468218 0.022396
vt 0.468218 0.022103
vt 0.468408 0.017088
vt 0.468218 0.017088
vt 0.468408 0.017088
vt 0.46832 0.022206
vt 0.468408 0.022206
vt 0.468218 0.022103
vt 0.46832 0.022206
vt 0.468408 0.017088
vt 0.473682 0.022206
vt 0.468408 0.022396
vt 0.473682 0.022396
vt 0.468408 0.022206
vt 0.468408 0.022396
vt 0.473682 0.022206
vt 0.656213 0.026718
vt 0.664359 0.018815
vt 0.656213 0.018815
vt 0.664359 0.026718
vt 0.664359 0.018815
vt 0.656213 0.026718
vt 0.468408 0.016989
vt 0.468218 0.017088
vt 0.468408 0.017088
vt 0.468218 0.016989
vt 0.468218 0.017088
vt 0.468408 0.016989
vt 0.468408 0.017088
vt 0.473682 0.016989
vt 0.468408 0.016989
vt 0.473682 0.017088
vt 0.473682 0.016989
vt 0.468408 0.017088
vt 0.473682 0.017088
vt 0.473872 0.022206
vt 0.473872 0.017088
vt 0.473682 0.022206
vt 0.473872 0.022206
vt 0.473682 0.017088
vt 0.473682 0.016989
vt 0.473872 0.017088
vt 0.473872 0.016989
vt 0.473682 0.017088
vt 0.473872 0.017088
vt 0.473682 0.016989
vt 0.479166 0.017088
vt 0.479242 0.016989
vt 0.479166 0.016989
vt 0.479242 0.017088
vt 0.479242 0.016989
vt 0.479166 0.017088
vt 0.471301 0.020517
vt 0.471418 0.012615
vt 0.471301 0.012615
vt 0.471418 0.020517
vt 0.471418 0.012615
vt 0.471301 0.020517
vt 0.479166 0.022396
vt 0.473872 0.022206
vt 0.473872 0.022396
vt 0.479166 0.022206
vt 0.473872 0.022206
vt 0.479166 0.022396
vt 0.473872 0.022396
vt 0.473682 0.022206
vt 0.473682 0.022396
vt 0.473872 0.022206
vt 0.473682 0.022206
vt 0.473872 0.022396
vt 0.473872 0.022396
vt 0.473682 0.027701
vt 0.473872 0.027701
vt 0.473682 0.022396
vt 0.473682 0.027701
vt 0.473872 0.022396
vt 0.46131 0.046918
vt 0.461427 0.038726
vt 0.46131 0.038726
vt 0.461427 0.046918
vt 0.461427 0.038726
vt 0.46131 0.046918
vt 0.473682 0.030802
vt 0.473872 0.030991
vt 0.473872 0.030802
vt 0.473682 0.030991
vt 0.473872 0.030991
vt 0.473682 0.030802
vt 0.479166 0.030991
vt 0.473872 0.030802
vt 0.473872 0.030991
vt 0.479166 0.030802
vt 0.473872 0.030802
vt 0.479166 0.030991
vt 0.471301 0.037488
vt 0.471418 0.029296
vt 0.471301 0.029296
vt 0.471418 0.037488
vt 0.471418 0.029296
vt 0.471301 0.037488
vt 0.473872 0.033288
vt 0.479166 0.033196
vt 0.473872 0.033196
vt 0.47397 0.033386
vt 0.479166 0.033196
vt 0.473872 0.033288
vt 0.479242 0.033196
vt 0.47397 0.033386
vt 0.479242 0.033386
vt 0.479242 0.033196
vt 0.479166 0.033196
vt 0.47397 0.033386
vt 0.473872 0.027891
vt 0.473682 0.033196
vt 0.473872 0.033196
vt 0.473682 0.027891
vt 0.473682 0.033196
vt 0.473872 0.027891
vt 0.473682 0.033386
vt 0.473872 0.033196
vt 0.473682 0.033196
vt 0.473872 0.033196
vt 0.473774 0.033386
vt 0.473872 0.033288
vt 0.473682 0.033386
vt 0.473774 0.033386
vt 0.473872 0.033196
vt 0.473682 0.033386
vt 0.468408 0.033196
vt 0.468408 0.033386
vt 0.473682 0.033196
vt 0.468408 0.033196
vt 0.473682 0.033386
vt 0.468218 0.033196
vt 0.468408 0.033386
vt 0.468408 0.033196
vt 0.468218 0.033386
vt 0.468408 0.033386
vt 0.468218 0.033196
vt 0.468408 0.027891
vt 0.468218 0.033196
vt 0.468408 0.033196
vt 0.468218 0.027891
vt 0.468218 0.033196
vt 0.468408 0.027891
vt 0.647797 0.049509
vt 0.662341 0.03488
vt 0.647797 0.03488
vt 0.662341 0.049509
vt 0.662341 0.03488
vt 0.647797 0.049509
vt 0.468218 0.030991
vt 0.468408 0.030802
vt 0.468218 0.030802
vt 0.468408 0.030991
vt 0.468408 0.030802
vt 0.468218 0.030991
vt 0.473682 0.030991
vt 0.468408 0.030802
vt 0.468408 0.030991
vt 0.473682 0.030802
vt 0.468408 0.030802
vt 0.473682 0.030991
vt 0.468218 0.022396
vt 0.468408 0.027701
vt 0.468408 0.022396
vt 0.468218 0.027701
vt 0.468408 0.027701
vt 0.468218 0.022396
vt 0.656213 0.035204
vt 0.664359 0.027011
vt 0.656213 0.027011
vt 0.664359 0.035204
vt 0.664359 0.027011
vt 0.656213 0.035204
vt 0.462848 0.017088
vt 0.462948 0.016989
vt 0.462848 0.016989
vt 0.462949 0.017088
vt 0.462948 0.016989
vt 0.462848 0.017088
vt 0.664652 0.043689
vt 0.672826 0.035497
vt 0.664652 0.035497
vt 0.672826 0.043689
vt 0.672826 0.035497
vt 0.664652 0.043689
vt 0.479242 0.030991
vt 0.479166 0.030802
vt 0.479166 0.030991
vt 0.479242 0.030802
vt 0.479166 0.030802
vt 0.479242 0.030991
vt 0.65466 0.044927
vt 0.662835 0.053119
vt 0.662835 0.044927
vt 0.65466 0.053119
vt 0.662835 0.053119
vt 0.65466 0.044927
vt 0.479242 0.022206
vt 0.479166 0.022396
vt 0.479242 0.022396
vt 0.479166 0.022206
vt 0.479166 0.022396
vt 0.479242 0.022206
vt 0.64342 0.03164
vt 0.651595 0.023737
vt 0.64342 0.023737
vt 0.651595 0.03164
vt 0.651595 0.023737
vt 0.64342 0.03164
vt 0.473872 0.017088
vt 0.479166 0.016989
vt 0.473872 0.016989
vt 0.479166 0.017088
vt 0.479166 0.016989
vt 0.473872 0.017088
vt 0.481882 0.027011
vt 0.481883 0.035204
vt 0.481883 0.027011
vt 0.481758 0.035204
vt 0.481882 0.027011
vt 0.481758 0.027011
vt 0.481758 0.035204
vt 0.481883 0.035204
vt 0.481882 0.027011
vt 0.468218 0.030991
vt 0.462929 0.030802
vt 0.462929 0.030991
vt 0.468218 0.030802
vt 0.462929 0.030802
vt 0.468218 0.030991
vt 0.481758 0.043689
vt 0.481883 0.035497
vt 0.481758 0.035497
vt 0.481883 0.043689
vt 0.481883 0.035497
vt 0.481758 0.043689
vt 0.468218 0.033196
vt 0.462929 0.033386
vt 0.468218 0.033386
vt 0.462929 0.033196
vt 0.462929 0.033386
vt 0.468218 0.033196
vt 0.462848 0.025306
vt 0.462929 0.025496
vt 0.462922 0.025306
vt 0.462848 0.025306
vt 0.462928 0.025496
vt 0.462929 0.025496
vt 0.462848 0.025306
vt 0.462848 0.025496
vt 0.462928 0.025496
vt 0.468218 0.017088
vt 0.462948 0.016989
vt 0.462949 0.017088
vt 0.468218 0.016989
vt 0.462948 0.016989
vt 0.468218 0.017088
vt 0.655762 0.026718
vt 0.647785 0.018815
vt 0.647743 0.026718
vt 0.647785 0.018815
vt 0.65592 0.026559
vt 0.65592 0.018815
vt 0.655762 0.026718
vt 0.65592 0.026559
vt 0.647785 0.018815

# 321 Vertex Normals
vn 0.0 1.0 0.0
vn 0.000001 1.0 0.0
vn 0.0 1.0 0.0
vn 0.0 1.0 0.000001
vn 0.000001 1.0 0.0
vn 0.0 1.0 0.0
vn -0.0 1.0 0.000001
vn -0.0 1.0 0.000001
vn 0.0 1.0 0.0
vn 0.0 1.0 0.0
vn -0.0 1.0 0.000001
vn -0.0 1.0 0.000001
vn -0.0 1.0 0.000001
vn -0.0 1.0 0.0
vn -0.0 1.0 0.000001
vn 0.00001 1.0 0.0
vn -0.0 1.0 0.0
vn -0.0 1.0 0.000001
vn 0.000015 1.0 0.000014
vn 0.0 1.0 0.0
vn 0.0 1.0 0.000023
vn 0.00001 1.0 0.0
vn 0.0 1.0 0.0
vn 0.000015 1.0 0.000014
vn 0.000004 1.0 0.000022
vn 0.000015 1.0 0.000014
vn 0.0 1.0 0.000023
vn -0.0 1.0 0.000006
vn 0.000015 1.0 0.000014
vn 0.000004 1.0 0.000022
vn -0.0 1.0 0.000006
vn -0.000001 1.0 0.000011
vn 0.000015 1.0 0.000014
vn -0.000017 1.0 0.0
vn -0.000001 1.0 0.000011
vn -0.0 1.0 0.0
vn -0.000002 1.0 0.000007
vn -0.000001 1.0 0.000011
vn -0.000017 1.0 0.0
vn -0.0 1.0 0.0
vn 0.000004 1.0 0.000022
vn 0.000005 1.0 0.000009
vn -0.0 1.0 0.000006
vn 0.000004 1.0 0.000022
vn -0.0 1.0 0.0
vn 0.000005 1.0 0.000009
vn 0.000004 1.0 0.000023
vn 0.0 1.0 0.000011
vn 0.000004 1.0 0.000022
vn 0.000004 1.0 0.000023
vn 0.000005 1.0 0.000009
vn 0.000004 1.0 0.000023
vn 0.000004 1.0 0.000022
vn 0.0 1.0 0.000023
vn -0.0 1.0 0.0
vn 0.0 1.0 0.0
vn 0.0 1.0 0.0
vn 0.0 1.0 0.0
vn 0.000005 1.0 0.000009
vn 0.0 1.0 0.000011
vn -0.0 1.0 0.0
vn 0.000005 1.0 0.000009
vn 0.0 1.0 0.0
vn 0.000001 1.0 0.000018
vn 0.000004 1.0 0.000023
vn 0.0 1.0 0.000011
vn 0.0 1.0 0.000011
vn 0.000004 1.0 0.000023
vn 0.000001 1.0 0.000018
vn 0.0 1.0 0.000011
vn 0.0 1.0 0.0
vn 0.0 1.0 0.0
vn 0.000001 1.0 0.000018
vn 0.0 1.0 0.0
vn 0.0 1.0 0.000011
vn -0.0 1.0 0.0
vn 0.0 1.0 0.0
vn 0.0 1.0 0.0
vn -0.0 1.0 0.0
vn 0.0 1.0 0.0
vn -0.0 1.0 0.0
vn 0.0 1.0 0.0
vn 0.0 1.0 0.0
vn -0.0 1.0 0.0
vn 0.0 1.0 0.0
vn 0.0 1.0 0.0
vn 0.0 1.0 0.0
vn 0.0 1.0 0.0
vn 0.000001 1.0 0.000011
vn -0.0 1.0 0.0
vn 0.000001 1.0 0.000018
vn 0.000001 1.0 0.000011
vn 0.0 1.0 0.0
vn 0.0 1.0 0.0
vn -0.0 1.0 0.0
vn -0.0 1.0 0.0
vn 0.0 1.0 0.0
vn -0.0 1.0 0.0
vn 0.0 1.0 0.0
vn 0.0 1.0 0.0
vn 0.0 1.0 0.0
vn -0.0 1.0 0.0
vn 0.000022 1.0 0.0
vn 0.0 1.0 0.0
vn 0.0 1.0 0.0
vn -0.000001 1.0 0.000012
vn 0.000022 1.0 0.0
vn 0.0 1.0 0.0
vn -0.000002 1.0 0.00001
vn 0.000022 1.0 0.0
vn -0.000001 1.0 0.000012
vn -0.000012 1.0 0.000013
vn 0.000001 1.0 0.000011
vn 0.000001 1.0 0.000011
vn -0.000001 1.0 0.000012
vn 0.000001 1.0 0.000011
vn -0.000012 1.0 0.000013
vn 0.000001 1.0 0.000011
vn 0.000001 1.0 0.000018
vn 0.0 1.0 0.000011
vn 0.000001 1.0 0.000011
vn 0.000001 1.0 0.000018
vn 0.000001 1.0 0.000011
vn 0.000001 1.0 0.000011
vn 0.0 1.0 0.0
vn 0.0 1.0 0.0
vn 0.0 1.0 0.000011
vn 0.0 1.0 0.0
vn 0.000001 1.0 0.000011
vn -0.0 1.0 0.0
vn -0.0 1.0 0.0
vn -0.000012 1.0 0.000013
vn -0.0 1.0 0.0
vn -0.0 1.0 0.0
vn -0.0 1.0 0.0
vn 0.0 1.0 0.0
vn 0.0 1.0 0.000001
vn 0.0 1.0 0.0
vn -0.0 1.0 0.000001
vn 0.0 1.0 0.000001
vn 0.0 1.0 0.0
vn -0.0 1.0 0.000001
vn 0.0 1.0 0.0
vn 0.0 1.0 0.000001
vn -0.0 1.0 0.0
vn 0.0 1.0 0.0
vn -0.0 1.0 0.000001
vn 0.0 1.0 0.000001
vn 0.0 1.0 0.000001
vn -0.0 1.0 0.000001
vn 0.0 1.0 0.0
vn 0.0 1.0 0.000001
vn 0.0 1.0 0.000001
vn -0.0 1.0 0.0
vn 0.0 1.0 0.000001
vn -0.0 1.0 0.0
vn 0.0 1.0 0.0
vn 0.0 1.0 0.000001
vn -0.0 1.0 0.0
vn 0.0 1.0 0.0
vn 0.0 1.0 0.0
vn -0.0 1.0 0.0
vn 0.0 1.0 0.0
vn 0.0 1.0 0.000001
vn 0.0 1.0 0.0
vn 0.0 1.0 0.000001
vn -0.0 1.0 0.000001
vn -0.0 1.0 0.0
vn -0.0 1.0 0.000001
vn -0.0 1.0 0.000001
vn 0.0 1.0 0.000001
vn -0.0 1.0 0.0
vn -0.0 1.0 0.0
vn -0.0 1.0 0.000001
vn -0.0 1.0 0.0
vn -0.0 1.0 0.0
vn -0.0 1.0 0.0
vn -0.0 1.0 0.0
vn -0.0 1.0 0.0
vn -0.0 1.0 0.0
vn -0.0 1.0 0.0
vn -0.0 1.0 0.000001
vn 0.0 1.0 0.0
vn -0.0 1.0 0.000001
vn -0.0 1.0 0.000001
vn -0.0 1.0 0.0
vn -0.0 1.0 0.000001
vn 0.0 1.0 0.0
vn -0.0 1.0 0.000001
vn 0.0 1.0 0.0
vn 0.0 1.0 0.0
vn -0.0 1.0 0.000001
vn -0.0 1.0 0.000001
vn -0.0 1.0 0.000001
vn -0.0 1.0 0.000001
vn 0.0 1.0 0.0
vn -0.0 1.0 0.000001
vn -0.0 1.0 0.000001
vn -0.0 1.0 0.000001
vn -0.0 1.0 0.000001
vn -0.0 1.0 0.000001
vn -0.0 1.0 0.000001
vn -0.0 1.0 0.000001
vn -0.0 1.0 0.000001
vn 0.0 1.0 0.0
vn 0.0 1.0 0.0
vn 0.0 1.0 0.0
vn -0.0 1.0 0.000001
vn 0.0 1.0 0.0
vn 0.0 1.0 0.0
vn -0.0 1.0 0.000001
vn 0.0 1.0 0.0
vn -0.0 1.0 0.000001
vn 0.0 1.0 0.0
vn 0.0 1.0 0.0
vn -0.0 1.0 0.000001
vn 0.0 1.0 0.000023
vn 0.0 1.0 0.0
vn 0.000004 1.0 0.000023
vn 0.0 1.0 0.0
vn 0.0 1.0 0.0
vn 0.0 1.0 0.000023
vn 0.0 1.0 0.0
vn 0.0 1.0 0.000011
vn 0.000004 1.0 0.000023
vn 0.0 1.0 0.0
vn 0.0 1.0 0.000011
vn 0.0 1.0 0.0
vn -0.000017 1.0 0.0
vn 0.0 1.0 0.0
vn 0.0 1.0 0.0
vn -0.0 1.0 0.0
vn 0.0 1.0 0.0
vn -0.000017 1.0 0.0
vn -0.0 1.0 0.0
vn -0.0 1.0 0.000001
vn 0.0 1.0 0.000001
vn 0.0 1.0 0.000001
vn -0.0 1.0 0.000001
vn -0.0 1.0 0.0
vn 0.0 1.0 0.000001
vn -0.0 1.0 0.0
vn -0.0 1.0 0.000001
vn -0.0 1.0 0.0
vn -0.0 1.0 0.0
vn 0.0 1.0 0.000001
vn 0.000001 1.0 0.000011
vn -0.0 1.0 0.0
vn -0.000012 1.0 0.000013
vn 0.0 1.0 0.0
vn -0.0 1.0 0.0
vn 0.000001 1.0 0.000011
vn -0.000002 1.0 0.00001
vn -0.000012 1.0 0.000013
vn -0.0 1.0 0.0
vn -0.000001 1.0 0.000012
vn -0.000012 1.0 0.000013
vn -0.000002 1.0 0.00001
vn 0.000001 1.0 0.000011
vn 0.0 1.0 0.0
vn -0.0 1.0 0.0
vn -0.000001 1.0 0.000012
vn 0.0 1.0 0.0
vn 0.000001 1.0 0.000011
vn -0.0 1.0 0.0
vn -0.0 1.0 0.0
vn -0.0 1.0 0.0
vn 0.0 1.0 0.0
vn -0.0 1.0 0.0
vn -0.0 1.0 0.0
vn 0.000012 1.0 0.0
vn 0.00001 1.0 0.0
vn 0.000015 1.0 0.000014
vn -0.0 1.0 0.0
vn 0.000012 1.0 0.0
vn 0.0 1.0 0.0
vn -0.0 1.0 0.0
vn 0.00001 1.0 0.0
vn 0.000012 1.0 0.0
vn 0.0 1.0 0.0
vn 0.00001 1.0 0.0
vn -0.0 1.0 0.000001
vn 0.0 1.0 0.0
vn 0.00001 1.0 0.0
vn 0.0 1.0 0.0
vn 0.0 1.0 0.000001
vn -0.0 1.0 0.000001
vn -0.0 1.0 0.000001
vn 0.0 1.0 0.0
vn -0.0 1.0 0.000001
vn 0.0 1.0 0.000001
vn -0.0 1.0 0.000001
vn 0.0 1.0 0.0
vn 0.0 1.0 0.0
vn 0.0 1.0 0.0
vn 0.0 1.0 0.0
vn -0.0 1.0 0.000001
vn -0.000002 1.0 0.000007
vn 0.000015 1.0 0.000014
vn -0.000001 1.0 0.000011
vn -0.000002 1.0 0.000007
vn 0.000012 1.0 0.0
vn 0.000015 1.0 0.000014
vn -0.000002 1.0 0.000007
vn 0.0 1.0 0.0
vn 0.000012 1.0 0.0
vn 0.0 1.0 0.0
vn 0.0 1.0 0.0
vn -0.0 1.0 0.0
vn -0.0 1.0 0.0
vn 0.0 1.0 0.0
vn 0.0 1.0 0.0
vn -0.0 1.0 0.000006
vn -0.0 1.0 0.0
vn -0.000001 1.0 0.000011
vn -0.0 1.0 0.0
vn -0.0 1.0 0.0
vn 0.0 1.0 0.0
vn -0.0 1.0 0.000006
vn -0.0 1.0 0.0
vn -0.0 1.0 0.0

# default, 107 grouped triangles

o default
g default

f 62/1/1 1/2/2 61/3/3
f 3/4/4 1/5/5 62/6/6
f 63/7/7 4/8/8 6/9/9
f 62/10/10 4/11/11 63/12/12
f 63/13/13 7/14/14 5/15/15
f 64/16/16 7/17/17 63/18/18
f 65/19/19 8/20/20 10/21/21
f 64/22/22 8/23/23 65/24/24
f 15/25/25 65/26/26 10/27/27
f 13/28/28 65/29/29 15/30/30
f 13/31/31 67/32/32 65/33/33
f 12/34/34 67/35/35 68/36/36
f 11/37/37 67/38/38 12/39/39
f 14/40/40 15/41/41 16/42/42
f 13/43/43 15/44/44 14/45/45
f 16/46/46 18/47/47 17/48/48
f 15/49/49 18/50/50 16/51/51
f 18/52/52 15/53/53 10/54/54
f 14/55/55 20/56/56 22/57/57
f 20/58/58 16/59/59 17/60/60
f 14/61/61 16/62/62 20/63/63
f 19/64/64 18/65/65 33/66/66
f 17/67/67 18/68/68 19/69/69
f 17/70/70 23/71/71 20/72/72
f 19/73/73 23/74/74 17/75/75
f 21/76/76 22/77/77 20/78/78
f 52/79/79 22/80/80 21/81/81
f 20/82/82 25/83/83 21/84/84
f 23/85/85 25/86/86 20/87/87
f 23/88/88 31/89/89 24/90/90
f 19/91/91 31/92/92 23/93/93
f 25/94/94 24/95/95 26/96/96
f 23/97/97 24/98/98 25/99/99
f 55/100/100 27/101/101 54/102/102
f 28/103/103 27/104/104 55/105/105
f 56/106/106 28/107/107 55/108/108
f 29/109/109 28/110/110 56/111/111
f 57/112/112 31/113/113 32/114/114
f 56/115/115 31/116/116 57/117/117
f 32/118/118 19/119/119 33/120/120
f 31/121/121 19/122/122 32/123/123
f 32/124/124 35/125/125 34/126/126
f 33/127/127 35/128/128 32/129/129
f 58/130/130 30/131/131 57/132/132
f 37/133/133 30/134/134 58/135/135
f 35/136/136 36/137/137 34/138/138
f 51/139/139 36/140/140 35/141/141
f 59/142/142 34/143/143 36/144/144
f 58/145/145 34/146/146 59/147/147
f 60/148/148 38/149/149 59/150/150
f 39/151/151 38/152/152 60/153/153
f 43/154/154 60/155/155 41/156/156
f 44/157/157 60/158/158 43/159/159
f 39/160/160 44/161/161 40/162/162
f 39/163/163 60/164/164 44/165/165
f 36/166/166 42/167/167 41/168/168
f 51/169/169 42/170/170 36/171/171
f 46/172/172 41/173/173 42/174/174
f 41/175/175 45/176/176 43/177/177
f 46/178/178 45/179/179 41/180/180
f 46/181/181 48/182/182 47/183/183
f 42/184/184 48/185/185 46/186/186
f 4/187/187 47/188/188 48/189/189
f 2/190/190 47/191/191 4/192/192
f 49/193/193 4/194/194 48/195/195
f 6/196/196 4/197/197 49/198/198
f 48/199/199 51/200/200 49/201/201
f 42/202/202 51/203/203 48/204/204
f 6/205/205 50/206/206 8/207/207
f 49/208/208 50/209/209 6/210/210
f 51/211/211 50/212/212 49/213/213
f 35/214/214 50/215/215 51/216/216
f 10/217/217 50/218/218 18/219/219
f 8/220/220 50/221/221 10/222/222
f 50/223/223 33/224/224 18/225/225
f 35/226/226 33/227/227 50/228/228
f 12/229/229 66/230/230 53/231/231
f 68/232/232 66/233/233 12/234/234
f 41/235/235 59/236/236 36/237/237
f 60/238/238 59/239/239 41/240/240
f 38/241/241 58/242/242 59/243/243
f 37/244/244 58/245/245 38/246/246
f 32/247/247 58/248/248 57/249/249
f 34/250/250 58/251/251 32/252/252
f 29/253/253 57/254/254 30/255/255
f 56/256/256 57/257/257 29/258/258
f 31/259/259 55/260/260 24/261/261
f 56/262/262 55/263/263 31/264/264
f 24/265/265 54/266/266 26/267/267
f 55/268/268 54/269/269 24/270/270
f 69/271/271 64/272/272 65/273/273
f 7/274/274 69/275/275 9/276/276
f 7/277/277 64/278/278 69/279/279
f 6/280/280 64/281/281 63/282/282
f 8/283/283 64/284/284 6/285/285
f 3/286/286 63/287/287 5/288/288
f 62/289/289 63/290/290 3/291/291
f 4/292/292 61/293/293 2/294/294
f 62/295/295 61/296/296 4/297/297
f 11/298/298 65/299/299 67/300/300
f 11/301/301 69/302/302 65/303/303
f 11/304/304 9/305/305 69/306/306
f 22/307/307 66/308/308 68/309/309
f 52/310/310 66/311/311 22/312/312
f 13/313/313 68/314/314 67/315/315
f 68/316/316 14/317/317 22/318/318
f 13/319/319 14/320/320 68/321/321
