# Wavefront OBJ file
# Exported by Misfit Model 3D 1.3.8
# Tue Nov 21 20:41:42 2023

# 58 Vertices
v -0.16725 0.151208 -0.400937
v 0.035949 0.11261 -0.346132
v 0.128657 0.146831 0.462484
v -0.037108 0.462291 0.311838
v 0.293624 0.457054 -0.004388
v -0.220452 -0.095199 0.281201
v -0.389081 -0.097771 -0.022378
v -0.061057 -0.094975 -0.370922
v -0.428411 0.066608 0.150443
v 0.376256 0.166148 0.02816
v 0.344767 -0.094736 -0.144239
v 0.134608 -0.094851 -0.355215
v 0.219035 0.171173 -0.362683
v 0.328161 0.195053 -0.256256
v 0.145385 0.321473 0.347036
v -0.315048 0.274153 0.127991
v -0.014454 0.191634 0.433627
v -0.324223 0.096838 -0.15221
v -0.370176 0.213352 0.010543
v -0.278433 0.162026 -0.316919
v -0.121245 0.25435 -0.343225
v 0.079875 0.459125 -0.283428
v 0.294471 0.483167 -0.168926
v 0.193433 0.458376 0.218003
v -0.276787 0.45875 0.088448
v -0.30222 0.482135 -0.027957
v -0.195631 0.465602 -0.206273
v -0.054153 0.456107 0.268931
v 0.0907 0.47255 0.26907
v 0.275309 0.466589 -0.126602
v -0.272405 0.463504 -0.039259
v 0.246715 0.455766 0.121701
v -0.082753 0.457533 -0.260575
v -0.098611 0.478108 -0.285599
v -0.500663 -0.096204 0.144459
v 0.436767 -0.095796 0.035009
v 0.125062 -0.095551 0.53744
v -0.040304 -0.095517 0.521924
v -0.299758 -0.073742 -0.337218
v -0.176117 -0.093503 -0.459874
v 0.349906 -0.09194 -0.390245
v 0.283119 0.371688 0.12656
v 0.241072 -0.095311 0.293977
v 0.391757 -0.091918 0.187975
v -0.211823 0.452786 0.140767
v 0.220314 0.454076 0.149556
v 0.227185 0.45303 -0.143894
v 0.073175 0.628355 -0.060319
v -0.139982 0.671034 0.079952
v -0.06241 0.628537 -0.051786
v 0.415853 0.889589 0.114259
v -0.155813 0.87557 0.110632
v -0.155929 0.890128 -0.110626
v -0.155929 0.861012 -0.110626
v -0.407567 0.860893 0.0
v -0.205147 0.453037 -0.147057
v 0.026383 0.611006 0.052262
v 0.405647 0.889659 -0.114605

# 324 Texture Coordinates
vt 0.236058 0.683037
vt 0.232408 0.682277
vt 0.236518 0.683349
vt 0.227404 0.713479
vt 0.226591 0.682592
vt 0.226114 0.682274
vt 0.236058 0.683037
vt 0.236518 0.683349
vt 0.234947 0.702961
vt 0.232079 0.71884
vt 0.230769 0.704808
vt 0.233405 0.708188
vt 0.228766 0.682729
vt 0.232408 0.682277
vt 0.230769 0.704808
vt 0.228766 0.682729
vt 0.228679 0.709978
vt 0.226114 0.682274
vt 0.235252 0.714657
vt 0.236518 0.683349
vt 0.238029 0.681667
vt 0.232408 0.682277
vt 0.233405 0.708188
vt 0.230769 0.704808
vt 0.233405 0.708188
vt 0.234595 0.709166
vt 0.232079 0.71884
vt 0.232408 0.682277
vt 0.23438 0.682521
vt 0.233405 0.708188
vt 0.234595 0.709166
vt 0.233405 0.708188
vt 0.23438 0.682521
vt 0.228679 0.709978
vt 0.230769 0.704808
vt 0.232079 0.71884
vt 0.234595 0.709166
vt 0.236058 0.683037
vt 0.234947 0.702961
vt 0.233061 0.745324
vt 0.232079 0.71884
vt 0.234595 0.709166
vt 0.235252 0.714657
vt 0.233061 0.745324
vt 0.234595 0.709166
vt 0.229168 0.722504
vt 0.231153 0.743912
vt 0.231143 0.711546
vt 0.227404 0.713479
vt 0.228047 0.740588
vt 0.226873 0.709737
vt 0.230214 0.743252
vt 0.227404 0.713479
vt 0.228679 0.709978
vt 0.233647 0.743921
vt 0.235252 0.714657
vt 0.234076 0.719578
vt 0.232079 0.71884
vt 0.230214 0.743252
vt 0.228679 0.709978
vt 0.231143 0.711546
vt 0.233784 0.682215
vt 0.231348 0.682139
vt 0.229429 0.707294
vt 0.227683 0.68218
vt 0.229168 0.722504
vt 0.231153 0.743912
vt 0.234076 0.719578
vt 0.231143 0.711546
vt 0.232408 0.682277
vt 0.228766 0.682729
vt 0.226591 0.682592
vt 0.235252 0.714657
vt 0.233647 0.743921
vt 0.234031 0.742735
vt 0.229168 0.722504
vt 0.225712 0.682941
vt 0.228102 0.731547
vt 0.230214 0.743252
vt 0.232166 0.742978
vt 0.231912 0.742453
vt 0.233061 0.745324
vt 0.234031 0.742735
vt 0.233696 0.74118
vt 0.228047 0.740588
vt 0.228275 0.750371
vt 0.228396 0.745015
vt 0.226873 0.709737
vt 0.228047 0.740588
vt 0.228102 0.731547
vt 0.226873 0.709737
vt 0.228102 0.731547
vt 0.225712 0.682941
vt 0.229429 0.707294
vt 0.229168 0.722504
vt 0.231143 0.711546
vt 0.237093 0.694986
vt 0.234076 0.719578
vt 0.235252 0.714657
vt 0.234947 0.702961
vt 0.236518 0.683349
vt 0.235252 0.714657
vt 0.227404 0.713479
vt 0.226114 0.682274
vt 0.228679 0.709978
vt 0.232408 0.682277
vt 0.236058 0.683037
vt 0.23438 0.682521
vt 0.225712 0.682941
vt 0.229168 0.722504
vt 0.227683 0.68218
vt 0.235252 0.714657
vt 0.238029 0.681667
vt 0.237093 0.694986
vt 0.226591 0.682592
vt 0.228766 0.682729
vt 0.226114 0.682274
vt 0.234076 0.719578
vt 0.231153 0.743912
vt 0.233647 0.743921
vt 0.234595 0.709166
vt 0.234947 0.702961
vt 0.235252 0.714657
vt 0.23438 0.682521
vt 0.236058 0.683037
vt 0.234595 0.709166
vt 0.228396 0.745015
vt 0.228275 0.750371
vt 0.230214 0.743252
vt 0.231335 0.741153
vt 0.233647 0.743921
vt 0.231153 0.743912
vt 0.233647 0.743921
vt 0.233696 0.74118
vt 0.234031 0.742735
vt 0.231912 0.742453
vt 0.232166 0.742978
vt 0.233061 0.745324
vt 0.662075 0.11197
vt 0.662129 0.110038
vt 0.661879 0.109919
vt 0.593936 0.113915
vt 0.594203 0.115004
vt 0.59583 0.11415
vt 0.599003 0.113595
vt 0.596796 0.114037
vt 0.599158 0.114218
vt 0.232166 0.742978
vt 0.230214 0.743252
vt 0.232079 0.71884
vt 0.230214 0.743252
vt 0.228275 0.750371
vt 0.227404 0.713479
vt 0.227404 0.713479
vt 0.228275 0.750371
vt 0.228047 0.740588
vt 0.228102 0.731547
vt 0.228958 0.740799
vt 0.229168 0.722504
vt 0.228958 0.740799
vt 0.229955 0.741909
vt 0.229168 0.722504
vt 0.229168 0.722504
vt 0.229955 0.741909
vt 0.231153 0.743912
vt 0.235252 0.714657
vt 0.234031 0.742735
vt 0.233061 0.745324
vt 0.233061 0.745324
vt 0.232166 0.742978
vt 0.232079 0.71884
vt 0.231335 0.741153
vt 0.231153 0.743912
vt 0.229955 0.741909
vt 0.661939 0.101908
vt 0.662129 0.110038
vt 0.662662 0.109712
vt 0.226873 0.709737
vt 0.225286 0.68211
vt 0.226591 0.682592
vt 0.663705 0.110663
vt 0.664682 0.110663
vt 0.662129 0.110038
vt 0.593936 0.113915
vt 0.596818 0.11426
vt 0.596796 0.114037
vt 0.596796 0.114037
vt 0.596818 0.11426
vt 0.599158 0.114218
vt 0.596796 0.114037
vt 0.595454 0.114151
vt 0.593936 0.113915
vt 0.596818 0.11426
vt 0.598424 0.114445
vt 0.599158 0.114218
vt 0.593936 0.113915
vt 0.595454 0.114151
vt 0.594454 0.114151
vt 0.661879 0.109919
vt 0.662129 0.110038
vt 0.661939 0.101908
vt 0.226591 0.682592
vt 0.225712 0.682941
vt 0.232408 0.682277
vt 0.231143 0.711546
vt 0.237093 0.694986
vt 0.233784 0.682215
vt 0.226873 0.709737
vt 0.226591 0.682592
vt 0.227404 0.713479
vt 0.225712 0.682941
vt 0.225286 0.68211
vt 0.226873 0.709737
vt 0.233784 0.682215
vt 0.238029 0.681667
vt 0.227683 0.68218
vt 0.231348 0.682139
vt 0.229429 0.707294
vt 0.231143 0.711546
vt 0.232408 0.682277
vt 0.227683 0.68218
vt 0.238029 0.681667
vt 0.231348 0.682139
vt 0.229036 0.682221
vt 0.229429 0.707294
vt 0.237093 0.694986
vt 0.238029 0.681667
vt 0.233784 0.682215
vt 0.233784 0.682215
vt 0.227683 0.68218
vt 0.231348 0.682139
vt 0.231348 0.682139
vt 0.227683 0.68218
vt 0.229036 0.682221
vt 0.225712 0.682941
vt 0.227683 0.68218
vt 0.232408 0.682277
vt 0.225712 0.682941
vt 0.226591 0.682592
vt 0.225286 0.68211
vt 0.229036 0.682221
vt 0.227683 0.68218
vt 0.229429 0.707294
vt 0.236518 0.683349
vt 0.232408 0.682277
vt 0.238029 0.681667
vt 0.237093 0.694986
vt 0.231143 0.711546
vt 0.234076 0.719578
vt 0.228766 0.682729
vt 0.230769 0.704808
vt 0.228679 0.709978
vt 0.033868 0.809651
vt 0.0117 0.809638
vt 0.0117 0.809651
vt 0.033868 0.809651
vt 0.022805 0.817773
vt 0.033868 0.809708
vt 0.0117 0.809638
vt 0.017696 0.819268
vt 0.0117 0.809651
vt 0.027286 0.81926
vt 0.043468 0.833605
vt 0.022805 0.817773
vt 0.013804 0.87549
vt 0.043468 0.87546
vt 0.043468 0.875464
vt 0.013804 0.832037
vt 0.013804 0.833634
vt 0.043468 0.833609
vt 0.013804 0.874691
vt 0.013804 0.87549
vt 0.013804 0.873892
vt 0.013804 0.832836
vt 0.00044 0.83203
vt 0.016016 0.821828
vt 0.043468 0.833605
vt 0.013804 0.832836
vt 0.022805 0.817773
vt 0.013804 0.873892
vt 0.00044 0.873885
vt 0.013804 0.874691
vt 0.022805 0.817773
vt 0.013804 0.832836
vt 0.016016 0.821828
vt 0.033868 0.809708
vt 0.022805 0.817773
vt 0.0117 0.809638
vt 0.0117 0.809651
vt 0.027286 0.81926
vt 0.033868 0.809651
vt 0.033868 0.809651
vt 0.033868 0.809708
vt 0.0117 0.809638
vt 0.033868 0.809651
vt 0.027286 0.81926
vt 0.022805 0.817773
vt 0.0117 0.809638
vt 0.022805 0.817773
vt 0.017696 0.819268
vt 0.022805 0.817773
vt 0.016016 0.821828
vt 0.017696 0.819268
vt 0.027286 0.81926
vt 0.043468 0.833609
vt 0.043468 0.833605
vt 0.013804 0.87549
vt 0.013804 0.874691
vt 0.043468 0.87546
vt 0.027286 0.81926
vt 0.017696 0.819268
vt 0.013804 0.832037
vt 0.017696 0.819268
vt 0.016016 0.821828
vt 0.00044 0.83203
vt 0.013804 0.832037
vt 0.017696 0.819268
vt 0.00044 0.83203
vt 0.043468 0.833609
vt 0.027286 0.81926
vt 0.013804 0.832037
vt 0.0117 0.809651
vt 0.017696 0.819268
vt 0.027286 0.81926

# 324 Vertex Normals
vn -0.398321 -0.852811 -0.337719
vn 0.022413 -0.990893 -0.13277
vn -0.66683 -0.65981 -0.346394
vn 0.882124 0.250166 -0.399092
vn 0.975611 0.084477 -0.202598
vn 0.89208 0.244893 -0.379765
vn -0.900891 0.129614 -0.414241
vn -0.915481 0.116363 -0.385168
vn -0.958417 0.085262 -0.272336
vn -0.181643 0.316163 -0.931153
vn 0.099228 0.076958 -0.992084
vn 0.032437 0.304457 -0.951974
vn -0.057463 0.035346 -0.997722
vn 0.324641 0.083017 -0.942187
vn 0.099228 0.076958 -0.992084
vn -0.057463 0.035346 -0.997722
vn 0.156023 0.194727 -0.968369
vn 0.247398 0.221855 -0.943173
vn -0.957488 0.249463 -0.144864
vn -0.895223 -0.204107 -0.396125
vn -0.923394 0.272118 -0.27073
vn 0.248398 -0.506228 -0.825852
vn 0.032437 0.304457 -0.951974
vn 0.099228 0.076958 -0.992084
vn 0.032437 0.304457 -0.951974
vn -0.759776 0.2748 -0.589259
vn -0.181643 0.316163 -0.931153
vn 0.324641 0.083017 -0.942187
vn -0.27193 0.206109 -0.939986
vn 0.032437 0.304457 -0.951974
vn -0.759776 0.2748 -0.589259
vn 0.032437 0.304457 -0.951974
vn -0.27193 0.206109 -0.939986
vn 0.156023 0.194727 -0.968369
vn 0.099228 0.076958 -0.992084
vn -0.181643 0.316163 -0.931153
vn -0.759776 0.2748 -0.589259
vn -0.900891 0.129614 -0.414241
vn -0.958417 0.085262 -0.272336
vn -0.640676 0.520146 -0.564785
vn -0.181643 0.316163 -0.931153
vn -0.759776 0.2748 -0.589259
vn -0.957488 0.249463 -0.144864
vn -0.640676 0.520146 -0.564785
vn -0.759776 0.2748 -0.589259
vn 0.532032 0.3686 0.762284
vn -0.188468 0.757898 0.624556
vn -0.393151 0.333558 0.856838
vn 0.882124 0.250166 -0.399092
vn 0.877787 0.463503 0.12106
vn 0.977168 0.211619 0.018963
vn 0.135018 0.792645 -0.594545
vn 0.882124 0.250166 -0.399092
vn 0.156023 0.194727 -0.968369
vn -0.749706 0.538665 0.384423
vn -0.957488 0.249463 -0.144864
vn -0.768388 0.353372 0.533581
vn -0.181643 0.316163 -0.931153
vn 0.198551 0.678569 -0.707193
vn 0.156023 0.194727 -0.968369
vn -0.393151 0.333558 0.856838
vn -0.604129 0.125176 0.786993
vn -0.344579 0.302481 0.88869
vn 0.392155 0.344184 0.853084
vn 0.822088 0.106294 0.55935
vn 0.532032 0.3686 0.762284
vn -0.255703 0.609808 0.750167
vn -0.768388 0.353372 0.533581
vn -0.393151 0.333558 0.856838
vn -0.014523 -0.999885 0.004274
vn 0.006176 -0.999965 -0.005607
vn -0.007712 -0.999966 0.002964
vn -0.957488 0.249463 -0.144864
vn -0.617934 0.73243 0.285839
vn -0.964341 0.223511 -0.141736
vn 0.532032 0.3686 0.762284
vn 0.835737 0.19937 0.511659
vn 0.857341 0.305803 0.414067
vn -0.062407 0.969677 0.236289
vn 0.186929 0.813628 0.550515
vn 0.086394 0.975409 0.202765
vn 0.338961 0.896128 0.28646
vn 0.566863 0.807154 0.164831
vn 0.25935 0.961722 0.088476
vn -0.172356 0.979712 0.102265
vn -0.352478 0.9145 0.19862
vn -0.164071 0.978427 0.125547
vn 0.977168 0.211619 0.018963
vn 0.877787 0.463503 0.12106
vn 0.857341 0.305803 0.414067
vn 0.977168 0.211619 0.018963
vn 0.857341 0.305803 0.414067
vn 0.835737 0.19937 0.511659
vn 0.392155 0.344184 0.853084
vn 0.532032 0.3686 0.762284
vn -0.393151 0.333558 0.856838
vn -0.749867 0.314408 0.582106
vn -0.768388 0.353372 0.533581
vn -0.957488 0.249463 -0.144864
vn -0.958417 0.085262 -0.272336
vn -0.895223 -0.204107 -0.396125
vn -0.957488 0.249463 -0.144864
vn 0.882124 0.250166 -0.399092
vn 0.639634 0.205559 -0.740685
vn 0.156023 0.194727 -0.968369
vn -0.014523 -0.999885 0.004274
vn -0.090137 -0.995869 -0.010992
vn -0.076698 -0.993613 0.082766
vn 0.835737 0.19937 0.511659
vn 0.532032 0.3686 0.762284
vn 0.822088 0.106294 0.55935
vn -0.957488 0.249463 -0.144864
vn -0.942462 0.291622 0.163469
vn -0.749867 0.314408 0.582106
vn 0.231658 -0.972064 -0.037767
vn 0.006176 -0.999965 -0.005607
vn 0.01171 -0.99987 -0.011119
vn -0.768388 0.353372 0.533581
vn -0.255703 0.609808 0.750167
vn -0.749706 0.538665 0.384423
vn -0.759776 0.2748 -0.589259
vn -0.958417 0.085262 -0.272336
vn -0.957488 0.249463 -0.144864
vn -0.27193 0.206109 -0.939986
vn -0.883057 -0.199571 -0.424714
vn -0.759776 0.2748 -0.589259
vn -0.164071 0.978427 0.125547
vn -0.352478 0.9145 0.19862
vn 0.077452 0.995566 0.053375
vn -0.003762 0.99651 -0.08339
vn -0.071486 0.99651 0.043094
vn 0.140103 0.888526 0.436913
vn 0.244863 0.9686 -0.043074
vn 0.25935 0.961722 0.088476
vn 0.566863 0.807154 0.164831
vn 0.086394 0.975409 0.202765
vn 0.186929 0.813628 0.550515
vn 0.338961 0.896128 0.28646
vn -0.164071 0.978427 0.125547
vn 0.256578 0.961108 0.102172
vn 0.750899 0.643682 0.147731
vn 0.256578 0.961108 0.102172
vn -0.164071 0.978427 0.125547
vn 0.139972 0.881759 -0.450453
vn -0.42875 0.862073 0.270194
vn -0.003762 0.99651 -0.08339
vn 0.25935 0.961722 0.088476
vn -0.317612 0.266488 -0.910004
vn 0.198551 0.678569 -0.707193
vn -0.181643 0.316163 -0.931153
vn 0.198551 0.678569 -0.707193
vn 0.835663 0.24649 -0.490825
vn 0.882124 0.250166 -0.399092
vn 0.882124 0.250166 -0.399092
vn 0.835663 0.24649 -0.490825
vn 0.877787 0.463503 0.12106
vn 0.857341 0.305803 0.414067
vn 0.622614 0.600122 0.5022
vn 0.532032 0.3686 0.762284
vn 0.622614 0.600122 0.5022
vn 0.145728 0.940843 0.305904
vn 0.532032 0.3686 0.762284
vn 0.532032 0.3686 0.762284
vn 0.145728 0.940843 0.305904
vn -0.188468 0.757898 0.624556
vn -0.957488 0.249463 -0.144864
vn -0.964341 0.223511 -0.141736
vn -0.640676 0.520146 -0.564785
vn -0.640676 0.520146 -0.564785
vn -0.317612 0.266488 -0.910004
vn -0.181643 0.316163 -0.931153
vn -0.003762 0.99651 -0.08339
vn -0.188468 0.757898 0.624556
vn 0.145728 0.940843 0.305904
vn 0.857341 0.305803 0.414067
vn 0.256578 0.961108 0.102172
vn 0.622614 0.600122 0.5022
vn 0.977168 0.211619 0.018963
vn 0.970464 0.221697 -0.095128
vn 0.975611 0.084477 -0.202598
vn 0.139972 0.881759 -0.450453
vn 0.086394 0.975409 0.202765
vn 0.256578 0.961108 0.102172
vn 0.256578 0.961108 0.102172
vn 0.086394 0.975409 0.202765
vn -0.003762 0.99651 -0.08339
vn -0.003762 0.99651 -0.08339
vn 0.086394 0.975409 0.202765
vn 0.25935 0.961722 0.088476
vn -0.003762 0.99651 -0.08339
vn 0.145728 0.940843 0.305904
vn 0.256578 0.961108 0.102172
vn 0.086394 0.975409 0.202765
vn -0.399925 0.845434 -0.35398
vn 0.25935 0.961722 0.088476
vn 0.256578 0.961108 0.102172
vn 0.145728 0.940843 0.305904
vn 0.622614 0.600122 0.5022
vn 0.877787 0.463503 0.12106
vn 0.256578 0.961108 0.102172
vn 0.857341 0.305803 0.414067
vn -0.007712 -0.999966 0.002964
vn -0.008803 -0.999949 0.004979
vn -0.014523 -0.999885 0.004274
vn -0.393151 0.333558 0.856838
vn -0.749867 0.314408 0.582106
vn -0.529702 -0.490577 0.691918
vn 0.977168 0.211619 0.018963
vn 0.947803 -0.248578 -0.199693
vn 0.882124 0.250166 -0.399092
vn 0.835737 0.19937 0.511659
vn 0.970464 0.221697 -0.095128
vn 0.977168 0.211619 0.018963
vn -0.24423 -0.89719 0.367969
vn 0.021581 -0.999572 0.019729
vn 0.003487 -0.999994 -0.000635
vn -0.344579 0.302481 0.88869
vn 0.392155 0.344184 0.853084
vn -0.393151 0.333558 0.856838
vn -0.014523 -0.999885 0.004274
vn 0.003487 -0.999994 -0.000635
vn 0.021581 -0.999572 0.019729
vn -0.344579 0.302481 0.88869
vn 0.489118 0.251061 0.835304
vn 0.392155 0.344184 0.853084
vn -0.749867 0.314408 0.582106
vn -0.778057 0.325536 0.537265
vn -0.604129 0.125176 0.786993
vn -0.24423 -0.89719 0.367969
vn 0.003487 -0.999994 -0.000635
vn -0.000159 -0.999999 -0.0011
vn -0.000159 -0.999999 -0.0011
vn 0.003487 -0.999994 -0.000635
vn -0.000108 -0.999999 -0.001037
vn -0.008803 -0.999949 0.004979
vn 0.003487 -0.999994 -0.000635
vn 0.022413 -0.990893 -0.13277
vn -0.008803 -0.999949 0.004979
vn -0.007712 -0.999966 0.002964
vn -0.038686 -0.999154 0.013947
vn 0.489118 0.251061 0.835304
vn 0.822088 0.106294 0.55935
vn 0.392155 0.344184 0.853084
vn -0.019646 -0.999456 -0.026507
vn -0.014523 -0.999885 0.004274
vn 0.021581 -0.999572 0.019729
vn -0.749867 0.314408 0.582106
vn -0.393151 0.333558 0.856838
vn -0.768388 0.353372 0.533581
vn -0.057463 0.035346 -0.997722
vn 0.099228 0.076958 -0.992084
vn 0.156023 0.194727 -0.968369
vn 0.001451 -0.999998 0.00138
vn 0.001451 -0.999998 0.00138
vn -0.00001 -1.0 -0.000872
vn 0.621066 0.753224 -0.216635
vn 0.308922 0.792132 0.526397
vn 0.3629 0.771999 0.521844
vn -0.443212 0.747498 0.494783
vn -0.609913 0.618342 -0.49564
vn -0.325194 0.628699 -0.70639
vn 0.660669 -0.552848 -0.507814
vn 0.489006 -0.754127 0.438367
vn 0.348664 -0.498208 0.793865
vn -0.012028 0.999384 0.032978
vn -0.012028 0.999384 0.032978
vn 0.000837 1.0 0.000268
vn -0.120339 0.03998 -0.991927
vn -0.007085 0.0 -0.999975
vn 0.263409 -0.429045 -0.864023
vn -0.577162 0.731624 0.362782
vn -0.715837 0.696736 0.046218
vn -0.607813 0.150797 -0.77963
vn -0.401077 -0.16373 0.901293
vn -0.591853 -0.61447 0.521668
vn -0.378526 -0.675361 0.632935
vn 0.489006 -0.754127 0.438367
vn -0.094253 -0.177972 0.979511
vn 0.187249 -0.075403 0.979414
vn -0.579065 0.557283 -0.595079
vn -0.029316 0.997415 -0.065611
vn -0.467211 0.884146 0.000248
vn 0.187249 -0.075403 0.979414
vn -0.094253 -0.177972 0.979511
vn -0.244507 -0.511573 0.823717
vn 0.3629 0.771999 0.521844
vn 0.252331 0.502411 0.82699
vn -0.443212 0.747498 0.494783
vn -0.325194 0.628699 -0.70639
vn -0.027874 0.1257 -0.991677
vn 0.387089 0.744303 -0.54422
vn 0.001451 -0.999998 0.00138
vn 0.002911 -0.999989 0.003633
vn 0.001451 -0.999998 0.00138
vn 0.723614 0.656945 0.211676
vn 0.849994 -0.483799 0.208443
vn 0.385183 0.32374 0.864191
vn -0.443212 0.747498 0.494783
vn 0.252331 0.502411 0.82699
vn -0.51243 0.839321 -0.181536
vn 0.117412 -0.690208 0.714022
vn -0.378526 -0.675361 0.632935
vn -0.405176 -0.736202 -0.542069
vn 0.660669 -0.552848 -0.507814
vn 0.263409 -0.429045 -0.864023
vn 0.489006 -0.754127 0.438367
vn -0.455999 0.889488 0.029585
vn -0.467211 0.884146 0.000248
vn -0.012028 0.999384 0.032978
vn 0.273418 -0.288211 -0.917702
vn -0.390895 -0.537549 -0.747156
vn -0.347385 -0.203305 -0.915419
vn -0.405176 -0.736202 -0.542069
vn -0.508982 -0.77153 0.381678
vn -0.699601 -0.714504 -0.006444
vn -0.347385 -0.203305 -0.915419
vn -0.591456 -0.345225 -0.728697
vn -0.529687 -0.671277 -0.518477
vn 0.263409 -0.429045 -0.864023
vn 0.273418 -0.288211 -0.917702
vn -0.112222 -0.215409 -0.970054
vn -0.325194 0.628699 -0.70639
vn -0.531376 0.431287 -0.72913
vn -0.027874 0.1257 -0.991677

# wood, 84 grouped triangles

o wood
g wood

f 39/1/1 8/2/2 7/3/3
f 14/4/4 11/5/5 41/6/6
f 39/7/7 7/8/8 18/9/9
f 21/10/10 2/11/11 1/12/12
f 12/13/13 8/14/14 2/15/15
f 12/16/16 13/17/17 41/18/18
f 19/19/19 7/20/20 35/21/21
f 8/22/22 1/23/23 2/24/24
f 1/25/25 20/26/26 21/27/27
f 8/28/28 40/29/29 1/30/30
f 20/31/31 1/32/32 40/33/33
f 13/34/34 2/35/35 21/36/36
f 20/37/37 39/38/38 18/39/39
f 27/40/40 21/41/41 20/42/42
f 19/43/43 27/44/44 20/45/45
f 15/46/46 4/47/47 17/48/48
f 14/49/49 5/50/50 10/51/51
f 22/52/52 14/53/53 13/54/54
f 25/55/55 19/56/56 16/57/57
f 21/58/58 22/59/59 13/60/60
f 17/61/61 6/62/62 38/63/63
f 3/64/64 43/65/65 15/66/66
f 4/67/67 16/68/68 17/69/69
f 8/70/70 12/71/71 11/72/72
f 19/73/73 25/74/74 26/75/75
f 15/76/76 44/77/77 42/78/78
f 22/79/79 34/80/80 33/81/81
f 27/82/82 26/83/83 31/84/84
f 5/85/85 23/86/86 30/87/87
f 10/88/88 5/89/89 42/90/90
f 10/91/91 42/92/92 44/93/93
f 3/94/94 15/95/95 17/96/96
f 9/97/97 16/98/98 19/99/99
f 18/100/100 7/101/101 19/102/102
f 14/103/103 41/104/104 13/105/105
f 8/106/106 39/107/107 40/108/108
f 44/109/109 15/110/110 43/111/111
f 19/112/112 35/113/113 9/114/114
f 11/115/115 12/116/116 41/117/117
f 16/118/118 4/119/119 25/120/120
f 20/121/121 18/122/122 19/123/123
f 40/124/124 39/125/125 20/126/126
f 30/127/127 23/128/128 22/129/129
f 28/130/130 25/131/131 4/132/132
f 25/133/133 31/134/134 26/135/135
f 33/136/136 34/137/137 27/138/138
f 30/139/139 32/140/140 5/141/141
f 32/142/142 30/143/143 22/144/144
f 25/145/145 28/146/146 31/147/147
f 34/148/148 22/149/149 21/150/150
f 22/151/151 23/152/152 14/153/153
f 14/154/154 23/155/155 5/156/156
f 42/157/157 24/158/158 15/159/159
f 24/160/160 29/161/161 15/162/162
f 15/163/163 29/164/164 4/165/165
f 19/166/166 26/167/167 27/168/168
f 27/169/169 34/170/170 21/171/171
f 28/172/172 4/173/173 29/174/174
f 42/175/175 32/176/176 24/177/177
f 10/178/178 36/179/179 11/180/180
f 22/181/181 33/182/182 32/183/183
f 32/184/184 33/185/185 28/186/186
f 28/187/187 33/188/188 31/189/189
f 28/190/190 29/191/191 32/192/192
f 33/193/193 27/194/194 31/195/195
f 32/196/196 29/197/197 24/198/198
f 5/199/199 32/200/200 42/201/201
f 11/202/202 44/203/203 8/204/204
f 17/205/205 9/206/206 6/207/207
f 10/208/208 11/209/209 14/210/210
f 44/211/211 36/212/212 10/213/213
f 6/214/214 35/215/215 43/216/216
f 38/217/217 3/218/218 17/219/219
f 8/220/220 43/221/221 35/222/222
f 38/223/223 37/224/224 3/225/225
f 9/226/226 35/227/227 6/228/228
f 6/229/229 43/230/230 38/231/231
f 38/232/232 43/233/233 37/234/234
f 44/235/235 43/236/236 8/237/237
f 44/238/238 11/239/239 36/240/240
f 37/241/241 43/242/242 3/243/243
f 7/244/244 8/245/245 35/246/246
f 9/247/247 17/248/248 16/249/249
f 12/250/250 2/251/251 13/252/252
# anvil, 24 grouped triangles

o anvil
g anvil

f 47/253/253 45/254/254 56/255/255
f 47/256/256 57/257/257 46/258/258
f 45/259/259 50/260/260 56/261/261
f 48/262/262 51/263/263 57/264/264
f 53/265/265 51/266/266 58/267/267
f 54/268/268 53/269/269 58/270/270
f 52/271/271 53/272/272 54/273/273
f 52/274/274 55/275/275 49/276/276
f 51/277/277 52/278/278 57/279/279
f 54/280/280 55/281/281 52/282/282
f 57/283/283 52/284/284 49/285/285
f 46/286/286 57/287/287 45/288/288
f 56/289/289 48/290/290 47/291/291
f 47/292/292 46/293/293 45/294/294
f 47/295/295 48/296/296 57/297/297
f 45/298/298 57/299/299 50/300/300
f 57/301/301 49/302/302 50/303/303
f 48/304/304 58/305/305 51/306/306
f 53/307/307 52/308/308 51/309/309
f 48/310/310 50/311/311 54/312/312
f 50/313/313 49/314/314 55/315/315
f 54/316/316 50/317/317 55/318/318
f 58/319/319 48/320/320 54/321/321
f 56/322/322 50/323/323 48/324/324
