# Blender 3.4.1
# www.blender.org
mtllib lounger2.mtl
o Lounger_02
v 0.003405 0.003032 -0.010049
v 0.003405 0.003332 -0.010049
v -0.003405 0.003032 -0.010049
v -0.003405 0.003332 -0.010049
v 0.003405 0.003032 -0.010349
v 0.003405 0.003332 -0.010349
v -0.003405 0.003032 -0.010349
v -0.003405 0.003332 -0.010349
v 0.003094 0.003032 -0.010049
v -0.003094 0.003032 -0.010049
v -0.003094 0.003332 -0.010049
v 0.003094 0.003332 -0.010049
v -0.003094 0.003032 -0.010349
v 0.003094 0.003032 -0.010349
v 0.003094 0.003332 -0.010349
v -0.003094 0.003332 -0.010349
v -0.003405 0.000000 -0.010349
v -0.003405 0.000000 -0.010049
v 0.003405 0.000000 -0.010049
v 0.003405 0.000000 -0.010349
v 0.003094 0.000000 -0.010349
v 0.003094 0.000000 -0.010049
v -0.003094 0.000000 -0.010049
v -0.003094 0.000000 -0.010349
v 0.003405 0.003032 0.010049
v 0.003405 0.003332 0.010049
v -0.003405 0.003032 0.010049
v -0.003405 0.003332 0.010049
v 0.003405 0.003032 0.010349
v 0.003405 0.003332 0.010349
v -0.003405 0.003032 0.010349
v -0.003405 0.003332 0.010349
v 0.003094 0.003032 0.010049
v -0.003094 0.003032 0.010049
v -0.003094 0.003332 0.010049
v 0.003094 0.003332 0.010049
v -0.003094 0.003032 0.010349
v 0.003094 0.003032 0.010349
v 0.003094 0.003332 0.010349
v -0.003094 0.003332 0.010349
v 0.003405 0.003032 -0.000000
v 0.003405 0.003332 -0.000000
v -0.003405 0.003332 -0.000000
v -0.003405 0.003032 -0.000000
v -0.003094 0.003332 -0.000000
v -0.003094 0.003032 -0.000000
v 0.003094 0.003032 -0.000000
v 0.003094 0.003332 -0.000000
v -0.003405 -0.000000 0.010349
v -0.003405 -0.000000 0.010049
v 0.003405 -0.000000 0.010049
v 0.003405 -0.000000 0.010349
v 0.003094 -0.000000 0.010349
v 0.003094 -0.000000 0.010049
v -0.003094 -0.000000 0.010049
v -0.003094 -0.000000 0.010349
v 0.003278 0.003281 0.010175
v 0.003278 0.003660 0.010175
v -0.003278 0.003281 0.010175
v -0.003278 0.003660 0.010175
v 0.003278 0.003281 -0.003563
v 0.003278 0.003660 -0.003563
v -0.003278 0.003281 -0.003563
v -0.003278 0.003660 -0.003563
v 0.003001 0.005155 -0.009308
v 0.003001 0.005343 -0.009239
v -0.003001 0.005155 -0.009308
v -0.003001 0.005343 -0.009239
v 0.003001 0.005497 -0.010247
v 0.003001 0.005685 -0.010179
v -0.003001 0.005497 -0.010247
v -0.003001 0.005685 -0.010179
v 0.002736 0.003236 -0.010110
v 0.002736 0.005717 -0.009661
v 0.002535 0.003236 -0.010110
v 0.002535 0.005717 -0.009661
v 0.002736 0.003272 -0.010307
v 0.002736 0.005753 -0.009858
v 0.002535 0.003272 -0.010307
v 0.002535 0.005753 -0.009858
v -0.002736 0.003236 -0.010110
v -0.002736 0.005717 -0.009661
v -0.002535 0.003236 -0.010110
v -0.002535 0.005717 -0.009661
v -0.002736 0.003272 -0.010307
v -0.002736 0.005753 -0.009858
v -0.002535 0.003272 -0.010307
v -0.002535 0.005753 -0.009858
v 0.003278 0.003281 -0.003703
v 0.003278 0.003637 -0.003573
v -0.003278 0.003281 -0.003703
v -0.003278 0.003637 -0.003573
v 0.003278 0.005691 -0.010325
v 0.003278 0.006048 -0.010195
v -0.003278 0.005691 -0.010325
v -0.003278 0.006048 -0.010195
vn -0.0000 1.0000 -0.0000
vn -1.0000 -0.0000 -0.0000
vn 1.0000 -0.0000 -0.0000
vn -0.0000 -0.0000 -1.0000
vn -0.0000 -0.0000 1.0000
vn -0.0000 -1.0000 -0.0000
vn -0.0000 -0.3420 0.9397
vn -0.0000 0.3420 -0.9397
vn -0.0000 -0.9397 -0.3420
vn -0.0000 0.9397 0.3420
vn -0.0000 -0.1778 0.9841
vn -0.0000 0.1778 -0.9841
vn -0.0000 -0.9841 -0.1778
vn -0.0000 0.9841 0.1778
vt 0.168620 0.173774
vt 0.168620 0.173774
vt 0.161249 0.173774
vt 0.161249 0.173774
vt 0.168620 0.174099
vt 0.168620 0.174099
vt 0.161249 0.174099
vt 0.161249 0.174099
vt 0.168284 0.173774
vt 0.161586 0.173774
vt 0.161586 0.173774
vt 0.168284 0.173774
vt 0.161586 0.174099
vt 0.168284 0.174099
vt 0.168284 0.174099
vt 0.161586 0.174099
vt 0.161249 0.174099
vt 0.161249 0.173774
vt 0.168620 0.173774
vt 0.168620 0.174099
vt 0.168284 0.174099
vt 0.168284 0.173774
vt 0.161586 0.173774
vt 0.161586 0.174099
vt 0.168620 0.152025
vt 0.168620 0.152025
vt 0.161249 0.152025
vt 0.161249 0.152025
vt 0.168620 0.151700
vt 0.168620 0.151700
vt 0.161249 0.151700
vt 0.161249 0.151700
vt 0.168284 0.152025
vt 0.161586 0.152025
vt 0.161586 0.152025
vt 0.168284 0.152025
vt 0.161586 0.151700
vt 0.168284 0.151700
vt 0.168284 0.151700
vt 0.161586 0.151700
vt 0.168620 0.162900
vt 0.168620 0.162900
vt 0.161249 0.162900
vt 0.161249 0.162900
vt 0.161586 0.162900
vt 0.161586 0.162900
vt 0.168284 0.162900
vt 0.168284 0.162900
vt 0.161249 0.151700
vt 0.161249 0.152025
vt 0.168620 0.152025
vt 0.168620 0.151700
vt 0.168284 0.151700
vt 0.168284 0.152025
vt 0.161586 0.152025
vt 0.161586 0.151700
vt 0.343198 0.349981
vt 0.343198 0.349981
vt 0.336103 0.349981
vt 0.336103 0.349981
vt 0.343198 0.364848
vt 0.343198 0.364848
vt 0.336103 0.364848
vt 0.336103 0.364848
vt 0.168182 0.172972
vt 0.168182 0.172898
vt 0.161688 0.172972
vt 0.161688 0.172898
vt 0.168182 0.173989
vt 0.168182 0.173915
vt 0.161688 0.173989
vt 0.161688 0.173915
vt 0.167895 0.173840
vt 0.167895 0.173355
vt 0.167679 0.173840
vt 0.167679 0.173355
vt 0.167895 0.174053
vt 0.167895 0.173568
vt 0.167679 0.174053
vt 0.167679 0.173568
vt 0.161974 0.173840
vt 0.161974 0.173355
vt 0.162191 0.173840
vt 0.162191 0.173355
vt 0.161974 0.174053
vt 0.161974 0.173568
vt 0.162191 0.174053
vt 0.162191 0.173568
vt 0.343198 0.364999
vt 0.343198 0.364859
vt 0.336103 0.364999
vt 0.336103 0.364859
vt 0.343198 0.372166
vt 0.343198 0.372025
vt 0.336103 0.372166
vt 0.336103 0.372025
s 1
usemtl City_05.009
f 8/8/1 4/4/1 16/16/1
f 16/16/1 4/4/1 11/11/1
f 3/3/2 4/4/2 7/7/2
f 7/7/2 4/4/2 8/8/2
f 5/5/3 6/6/3 1/1/3
f 1/1/3 6/6/3 2/2/3
f 10/10/3 11/11/3 46/46/3
f 46/46/3 11/11/3 45/45/3
f 7/7/4 8/8/4 13/13/4
f 13/13/4 8/8/4 16/16/4
f 15/15/1 12/12/1 6/6/1
f 6/6/1 12/12/1 2/2/1
f 7/7/4 13/13/4 17/17/4
f 17/17/4 13/13/4 24/24/4
f 14/14/4 15/15/4 5/5/4
f 5/5/4 15/15/4 6/6/4
f 1/1/5 9/9/5 19/19/5
f 19/19/5 9/9/5 22/22/5
f 12/12/1 15/15/1 11/11/1
f 11/11/1 15/15/1 16/16/1
f 14/14/6 9/9/6 13/13/6
f 13/13/6 9/9/6 10/10/6
f 15/15/4 14/14/4 16/16/4
f 16/16/4 14/14/4 13/13/4
f 11/11/5 10/10/5 12/12/5
f 12/12/5 10/10/5 9/9/5
f 9/9/6 1/1/6 47/47/6
f 47/47/6 1/1/6 41/41/6
f 11/11/1 4/4/1 45/45/1
f 45/45/1 4/4/1 43/43/1
f 4/4/2 3/3/2 43/43/2
f 43/43/2 3/3/2 44/44/2
f 2/2/1 12/12/1 42/42/1
f 42/42/1 12/12/1 48/48/1
f 12/12/2 9/9/2 48/48/2
f 48/48/2 9/9/2 47/47/2
f 3/3/6 10/10/6 44/44/6
f 44/44/6 10/10/6 46/46/6
f 1/1/3 2/2/3 41/41/3
f 41/41/3 2/2/3 42/42/3
f 22/22/6 21/21/6 19/19/6
f 19/19/6 21/21/6 20/20/6
f 18/18/6 17/17/6 23/23/6
f 23/23/6 17/17/6 24/24/6
f 5/5/3 1/1/3 20/20/3
f 20/20/3 1/1/3 19/19/3
f 13/13/3 10/10/3 24/24/3
f 24/24/3 10/10/3 23/23/3
f 14/14/4 5/5/4 21/21/4
f 21/21/4 5/5/4 20/20/4
f 3/3/2 7/7/2 18/18/2
f 18/18/2 7/7/2 17/17/2
f 9/9/2 14/14/2 22/22/2
f 22/22/2 14/14/2 21/21/2
f 10/10/5 3/3/5 23/23/5
f 23/23/5 3/3/5 18/18/5
f 32/32/1 40/40/1 28/28/1
f 28/28/1 40/40/1 35/35/1
f 27/27/2 31/31/2 28/28/2
f 28/28/2 31/31/2 32/32/2
f 29/29/3 25/25/3 30/30/3
f 30/30/3 25/25/3 26/26/3
f 34/34/3 46/46/3 35/35/3
f 35/35/3 46/46/3 45/45/3
f 31/31/5 37/37/5 32/32/5
f 32/32/5 37/37/5 40/40/5
f 39/39/1 30/30/1 36/36/1
f 36/36/1 30/30/1 26/26/1
f 31/31/5 49/49/5 37/37/5
f 37/37/5 49/49/5 56/56/5
f 38/38/5 29/29/5 39/39/5
f 39/39/5 29/29/5 30/30/5
f 25/25/4 51/51/4 33/33/4
f 33/33/4 51/51/4 54/54/4
f 36/36/1 35/35/1 39/39/1
f 39/39/1 35/35/1 40/40/1
f 38/38/6 37/37/6 33/33/6
f 33/33/6 37/37/6 34/34/6
f 39/39/5 40/40/5 38/38/5
f 38/38/5 40/40/5 37/37/5
f 35/35/4 36/36/4 34/34/4
f 34/34/4 36/36/4 33/33/4
f 33/33/6 47/47/6 25/25/6
f 25/25/6 47/47/6 41/41/6
f 46/46/4 44/44/4 45/45/4
f 45/45/4 44/44/4 43/43/4
f 41/41/4 47/47/4 42/42/4
f 42/42/4 47/47/4 48/48/4
f 35/35/1 45/45/1 28/28/1
f 28/28/1 45/45/1 43/43/1
f 28/28/2 43/43/2 27/27/2
f 27/27/2 43/43/2 44/44/2
f 26/26/1 42/42/1 36/36/1
f 36/36/1 42/42/1 48/48/1
f 36/36/2 48/48/2 33/33/2
f 33/33/2 48/48/2 47/47/2
f 27/27/6 44/44/6 34/34/6
f 34/34/6 44/44/6 46/46/6
f 25/25/3 41/41/3 26/26/3
f 26/26/3 41/41/3 42/42/3
f 54/54/6 51/51/6 53/53/6
f 53/53/6 51/51/6 52/52/6
f 50/50/6 55/55/6 49/49/6
f 49/49/6 55/55/6 56/56/6
f 29/29/3 52/52/3 25/25/3
f 25/25/3 52/52/3 51/51/3
f 37/37/3 56/56/3 34/34/3
f 34/34/3 56/56/3 55/55/3
f 38/38/5 53/53/5 29/29/5
f 29/29/5 53/53/5 52/52/5
f 27/27/2 50/50/2 31/31/2
f 31/31/2 50/50/2 49/49/2
f 33/33/2 54/54/2 38/38/2
f 38/38/2 54/54/2 53/53/2
f 34/34/4 55/55/4 27/27/4
f 27/27/4 55/55/4 50/50/4
f 57/57/5 58/58/5 59/59/5
f 59/59/5 58/58/5 60/60/5
f 59/59/2 60/60/2 63/63/2
f 63/63/2 60/60/2 64/64/2
f 63/63/4 64/64/4 61/61/4
f 61/61/4 64/64/4 62/62/4
f 61/61/3 62/62/3 57/57/3
f 57/57/3 62/62/3 58/58/3
f 59/59/6 63/63/6 57/57/6
f 57/57/6 63/63/6 61/61/6
f 64/64/1 60/60/1 62/62/1
f 62/62/1 60/60/1 58/58/1
f 65/65/7 66/66/7 67/67/7
f 67/67/7 66/66/7 68/68/7
f 67/67/2 68/68/2 71/71/2
f 71/71/2 68/68/2 72/72/2
f 71/71/8 72/72/8 69/69/8
f 69/69/8 72/72/8 70/70/8
f 69/69/3 70/70/3 65/65/3
f 65/65/3 70/70/3 66/66/3
f 67/67/9 71/71/9 65/65/9
f 65/65/9 71/71/9 69/69/9
f 72/72/10 68/68/10 70/70/10
f 70/70/10 68/68/10 66/66/10
f 73/73/11 74/74/11 75/75/11
f 75/75/11 74/74/11 76/76/11
f 75/75/2 76/76/2 79/79/2
f 79/79/2 76/76/2 80/80/2
f 79/79/12 80/80/12 77/77/12
f 77/77/12 80/80/12 78/78/12
f 77/77/3 78/78/3 73/73/3
f 73/73/3 78/78/3 74/74/3
f 75/75/13 79/79/13 73/73/13
f 73/73/13 79/79/13 77/77/13
f 80/80/14 76/76/14 78/78/14
f 78/78/14 76/76/14 74/74/14
f 81/81/11 83/83/11 82/82/11
f 82/82/11 83/83/11 84/84/11
f 83/83/3 87/87/3 84/84/3
f 84/84/3 87/87/3 88/88/3
f 87/87/12 85/85/12 88/88/12
f 88/88/12 85/85/12 86/86/12
f 85/85/2 81/81/2 86/86/2
f 86/86/2 81/81/2 82/82/2
f 83/83/13 81/81/13 87/87/13
f 87/87/13 81/81/13 85/85/13
f 88/88/14 86/86/14 84/84/14
f 84/84/14 86/86/14 82/82/14
f 89/89/7 90/90/7 91/91/7
f 91/91/7 90/90/7 92/92/7
f 91/91/2 92/92/2 95/95/2
f 95/95/2 92/92/2 96/96/2
f 95/95/8 96/96/8 93/93/8
f 93/93/8 96/96/8 94/94/8
f 93/93/3 94/94/3 89/89/3
f 89/89/3 94/94/3 90/90/3
f 91/91/9 95/95/9 89/89/9
f 89/89/9 95/95/9 93/93/9
f 96/96/10 92/92/10 94/94/10
f 94/94/10 92/92/10 90/90/10
