g tronc
v -1.19067 0.030543 -0.166253
v -0.596073 0.036802 0.091961
v 0.597947 0.086017 0.056468
v -0.594776 0.410623 0.094947
v 0.597946 0.459841 0.056468
v -0.588864 0.410623 -0.1208
v 1.285521 0.220145 -0.194831
v 1.282158 0.054857 -0.092673
v 1.26342 0.222771 0.199599
v 1.241109 0.415222 0.104957
v 1.270348 0.403876 -0.10345
v -1.196297 0.223957 -0.277707
v -1.205164 0.037046 0.045912
v -1.208122 0.223957 0.153785
v -1.205165 0.410869 0.045912
v -1.199253 0.410869 -0.169834
v -0.782789 0.410747 -0.142268
v -0.788701 0.410747 0.073479
v -0.639405 0.580857 -0.071494
v -0.642317 0.580857 0.034754
v -0.734906 0.580917 -0.082066
v -0.737818 0.580917 0.024182
v -0.665071 0.705912 -0.114232
v -0.707341 0.703619 -0.117396
vn -0.3210399 -0.8555288 -0.4062069
vn -0.011509 -0.8084809 0.5884099
vn -0.009540002 -0.8720801 0.4892701
vn 0.1304719 0.6531147 0.7459345
vn 0.009519002 0.9472693 0.3202971
vn 0.3030799 0.6925628 -0.6545988
vn 0.6178549 -0.131942 -0.7751429
vn 0.5698733 -0.7656747 -0.2983065
vn 0.3990171 -0.07911401 0.9135241
vn 0.3582919 0.7284818 0.5839018
vn 0.4506972 0.8003544 -0.3953542
vn -0.4899721 0.040668 -0.8707891
vn -0.4623759 -0.7587279 0.4588469
vn -0.3540879 -0.015975 0.9350757
vn -0.4873869 0.7941839 0.3629409
vn -0.312322 0.754904 -0.576693
vn -0.1290384 0.8022156 -0.5829231
vn -0.3777489 0.5918789 0.7120289
vn 0.714029 0.2326715 -0.660323
vn 0.5855811 0.5537345 0.5920075
vn 0.105366 0.003830001 -0.9944261
vn -0.5689001 0.598713 0.5638221
vn 0.351741 0.7451751 0.5665621
vn 0.087191 -0.293679 -0.951919
vn -0.966054 0.25698 -0.026476
vn 0.09594604 -0.2980072 -0.9497295
vn -0.6794338 0.6205358 0.3915418
vt 0.392422 0.893186
vt 0.725342 0.000998
vt 0.396874 0.240772
vt 0.681209 0.674982
vt 0.642928 0.243269
vt 0.758944 0.674982
vt 0.000984 0.000998
vt 0.037792 0.00221
vt 0.823524 0.365606
vt 0.892865 0.331506
vt 0.257908 0.006465
vt 0.322734 0.895214
vt 0.087725 0.898409
vt 0.446575 0.891511
vt 0.935369 0.039865
vt 0.984612 0.308489
vt 0.255432 0.746224
vt 0.896945 0.160565
vt 0.741178 0.736318
vt 0.575168 0.687648
vt 0.194119 0.728972
vt 0.659367 0.954792
vt 0.756577 0.781376
vt 0.149909 0.71904
vt 0.01128 0.893186
vt 0.798335 0.11631
vt 0.104317 0.678949
vt 0.091528 0.248735
vt 0.513832 0.670519
vt 0.629063 0.673015
vt 0.531565 0.240773
vt 0.706798 0.670884
vt 0.255477 0.676351
vt 0.324107 0.000998
vt 0.822578 0.22349
vt 0.763024 0.260298
vt 0.143099 0.008961
vt 0.446147 0.000998
vt 0.515488 0.009037
vt 0.625457 0.011533
vt 0.700547 0.000998
vt 0.888778 0.256415
vt 0.868023 0.156468
vt 0.725429 0.220458
vt 0.800677 0.039865
vt 0.126592 0.899474
vt 0.868023 0.000998
vt 0.792775 0.221523
vt 0.51392 0.890446
vt 0.906878 0.31062
vt 0.935369 0.1176
vt 0.255388 0.896279
vt 0.97468 0.158435
vt 0.599394 0.893478
vt 0.513876 0.740391
vt 0.677129 0.893478
vt 0.194141 0.694562
vt 0.702897 0.736318
vt 0.621085 0.954792
vt 0.57519 0.722058
vt 0.149082 0.70381
vt 0.620226 0.695847
vt 0.608356 0.999002
vt 0.6194 0.711077
f 14/14/14 4/29/4 18/55/18
f 6/6/6 20/58/20 4/4/4
f 21/21/21 24/24/24 23/61/26
f 22/60/22 20/20/20 23/62/23
f 9/38/9 10/39/10 5/31/5
f 18/56/18 22/22/22 21/59/25
f 11/42/11 9/9/9 8/36/8
f 12/12/12 6/33/6 11/11/11
f 5/5/5 6/32/6 4/30/4
f 9/38/9 4/29/4 14/14/14
f 3/28/3 14/46/14 2/27/2
f 13/45/13 14/47/14 12/43/12
f 7/7/7 8/8/8 1/25/1
f 8/8/8 3/28/3 1/25/1
f 9/9/9 11/42/11 10/10/10
f 7/34/7 1/1/1 12/12/12
f 1/25/1 2/27/2 13/13/13
f 15/15/15 12/43/12 14/47/14
f 16/51/16 12/43/12 15/15/15
f 16/52/16 17/17/17 12/12/12
f 2/2/2 14/48/14 13/44/13
f 6/33/6 17/17/17 21/21/21
f 15/50/15 17/53/17 16/16/16
f 14/14/14 18/55/18 15/49/15
f 18/55/18 4/29/4 20/20/20
f 18/56/18 21/59/25 17/54/17
f 6/33/6 21/21/21 19/57/19
f 18/55/18 20/20/20 22/60/22
f 21/21/21 23/61/26 19/57/19
f 22/60/22 23/62/23 24/64/27
f 19/19/19 23/23/23 20/58/20
f 6/6/6 19/19/19 20/58/20
f 11/11/11 7/34/7 12/12/12
f 17/17/17 6/33/6 12/12/12
f 5/5/5 10/40/10 11/41/11
f 21/59/25 22/22/22 24/63/27
f 3/28/3 8/8/8 9/37/9
f 3/28/3 2/27/2 1/25/1
f 8/36/8 7/35/7 11/42/11
f 1/26/1 13/45/13 12/43/12
f 15/50/15 18/18/18 17/53/17
f 5/5/5 11/41/11 6/32/6
f 9/38/9 5/31/5 4/29/4
f 3/3/3 9/38/9 14/14/14
