g slot1
v 10.02738 102.119 -75.95349
v -4.72729 127.8958 -98.83726
v -19.4555 102.1048 -76.83018
v 11.05319 -17.80283 28.33545
v -3.818903 -18.7767 22.87695
v -18.77776 -18.03539 27.36097
v 11.2642 140.9769 -88.37615
v 11.00274 127.8018 -53.97523
v 14.51075 -13.52028 47.4558
v 10.54787 -0.872861 57.97069
v -4.645384 158.7929 -109.038
v -0.918796 175.7626 -112.0867
v -8.327829 163.0201 -107.2662
v -17.16018 141.4846 -89.22137
v -4.6192 157.0542 -79.81277
v -19.4647 127.7552 -54.97653
v -22.66275 -13.73906 46.46699
v -19.10127 -1.354376 57.59137
v -25.51562 123.6501 -4.972785
v -40.86085 149.4891 17.44773
v -54.9853 124.5186 -5.862861
v -21.71236 5.596426 -111.3088
v -36.53688 10.89667 -113.3248
v -51.52404 6.535543 -112.4365
v -25.24691 140.6904 32.11283
v -25.27569 104.9463 23.20015
v -18.42746 -12.86398 -104.6526
v -22.75001 -21.76863 -90.9323
v -41.54739 163.359 46.87301
v -38.25219 168.4419 63.43979
v -45.34373 162.1126 51.1861
v -53.67208 141.5909 31.77219
v -41.56862 134.1385 48.68895
v -55.72837 105.9346 22.23713
v -55.57949 -11.90898 -105.96
v -52.37537 -21.45046 -92.23012
v 45.00094 128.9974 -12.71532
v 30.39349 158.0909 5.885782
v 15.5179 129.8661 -12.78206
v 45.34155 -4.196766 -99.41994
v 30.45928 0.799889 -101.7597
v 15.50897 -3.293567 -99.72121
v 46.47643 151.6048 21.23336
v 46.15761 114.9094 18.0059
v 48.84133 -21.41144 -90.07708
v 44.96759 -28.04817 -75.00483
v 30.66494 176.3783 32.79654
v 34.49755 183.9629 48.25413
v 27.01097 175.8383 37.37096
v 18.05523 152.5854 21.67049
v 30.70282 147.7979 39.14405
v 15.68972 115.89 17.88008
v 11.66644 -20.48332 -90.32233
v 15.31569 -27.78578 -75.38335
v 81.67661 110.4683 -72.98424
v 66.73854 138.0428 -93.53431
v 52.19949 110.2261 -74.00865
v 83.56918 -18.32578 20.11248
v 68.73118 -18.95972 14.51296
v 53.74677 -18.78021 18.96929
v 82.54418 150.2963 -81.85902
v 82.28318 134.0802 -48.78271
v 86.90117 -15.74362 39.5576
v 82.75825 -4.134556 51.14598
v 66.52824 169.731 -100.9173
v 70.08354 186.9439 -102.4101
v 62.79298 173.7433 -98.79168
v 54.11971 150.5822 -82.7998
v 66.45249 165.3725 -71.96674
v 51.82242 133.8067 -49.93916
v 49.73662 -16.25944 38.36403
v 53.11788 -4.888529 50.57409
v 118.4499 109.2545 6.584825
v 103.5118 134.7524 29.66121
v 88.97279 110.2127 6.148962
v 120.3425 -7.006912 -101.7581
v 105.5045 -1.635936 -103.4637
v 90.52008 -5.973278 -102.4252
v 119.3175 125.6692 43.94245
v 119.0565 90.07994 34.4339
v 123.6745 -25.58473 -95.46166
v 119.5316 -34.70741 -81.82944
v 103.3015 148.1282 59.32159
v 106.8568 152.9239 75.9202
v 99.56628 146.8193 63.66933
v 90.89301 126.6475 44.04085
v 103.2258 118.8815 60.64808
v 88.59573 91.1616 33.94177
v 86.50993 -24.51355 -96.19872
v 89.89119 -34.29225 -82.67983
v -60.04177 88.94348 -72.45312
v -75.45225 115.0879 -94.47121
v -89.53364 88.63358 -72.83114
v -55.98873 -33.36294 28.95299
v -70.94145 -34.36848 23.72539
v -85.82803 -33.89252 28.47796
v -59.41948 128.0919 -83.97717
v -58.95458 114.1151 -49.89627
v -52.24797 -29.4912 48.10759
v -56.16018 -17.13597 58.98268
v -75.86433 146.2139 -103.942
v -72.36597 163.2891 -106.6533
v -79.55927 150.3588 -102.0093
v -87.8579 128.3144 -84.32934
v -75.31871 143.7936 -74.77047
v -89.43262 113.7652 -50.38297
v -89.42872 -30.08538 47.74276
v -85.80492 -17.92637 59.09364
v -93.08884 105.8577 4.572343
v -108.267 128.0313 30.72128
v -122.3957 108.5776 2.643831
v -89.68189 9.097709 -121.4609
v -104.1044 15.52509 -123.0741
v -119.3143 11.94988 -123.6237
v -93.87639 115.8231 44.14325
v -95.21265 82.35926 28.79864
v -87.65627 -10.42414 -118.1933
v -93.10867 -21.41068 -106.5404
v -109.7721 136.3334 62.14588
v -107.0816 138.1185 79.48734
v -113.8409 134.545 65.99496
v -122.1679 118.414 42.80323
v -111.3276 107.3211 58.53988
v -125.4904 85.26685 26.78007
v -124.6004 -7.098896 -120.8323
v -122.5771 -19.14787 -108.9772
vn 0.727861 -0.389509 -0.564359
vn -0.0274666 -0.394551 -0.9184634
vn -0.717333 -0.380466 -0.5836771
vn 0.04870023 -0.9901596 0.1311958
vn 0.02189499 -0.7879617 -0.6153347
vn -0.1931606 -0.9808031 0.02672457
vn 0.9719646 0.1425561 -0.1869831
vn 0.8033093 0.4562461 0.3827971
vn -0.839245 -0.478181 0.258864
vn 0.5542468 0.5452747 0.6288767
vn -0.222152 -0.219799 -0.9499141
vn -0.8811213 0.4408292 -0.1711581
vn -0.8832833 0.149898 -0.4442311
vn -0.9594167 0.2384679 -0.150508
vn -0.2038048 0.8183886 0.5373116
vn -0.7560852 0.4956531 0.4273911
vn -0.9999896 -0.004481999 -0.0007359997
vn -0.5118978 0.164606 0.8431284
vn 0.7394927 0.5129938 -0.4358758
vn -0.01432678 0.8638778 -0.5034978
vn -0.7053819 0.533266 -0.466973
vn 0.07392806 -0.2502267 -0.9653608
vn 0.044255 0.5153059 -0.855863
vn -0.1677622 -0.1453918 -0.9750472
vn 0.9685306 0.2028811 0.1441801
vn 0.790001 -0.324682 0.5200769
vn -0.827386 -0.314907 -0.465044
vn 0.5379376 -0.5581596 0.6317286
vn -0.213375 0.9162749 -0.3389859
vn -0.8917031 0.223321 0.393692
vn -0.8854608 0.4591239 0.07186399
vn -0.9647934 0.1782979 0.1933479
vn -0.2266436 -0.4341705 0.8718536
vn -0.7700247 -0.3641719 0.5238708
vn -0.9995304 0.0001870001 -0.03064401
vn -0.5186568 -0.8169653 0.2521168
vn 0.7249152 0.4350801 -0.5340441
vn -0.03070527 0.7749658 -0.6312569
vn -0.7202057 0.4575888 -0.5214558
vn 0.04247199 -0.3979161 -0.9164382
vn 0.016378 0.3754691 -0.9266902
vn -0.1994052 -0.2946455 -0.9345703
vn 0.9727097 0.2179479 0.07958898
vn 0.8065078 -0.2437109 0.5386559
vn -0.842083 -0.379301 -0.383442
vn 0.558212 -0.455665 0.693375
vn -0.2242951 0.8533573 -0.4706092
vn -0.8784186 0.2864389 0.3825358
vn -0.882653 0.469199 0.027858
vn -0.9579901 0.21113 0.194111
vn -0.1981499 -0.2919087 0.9356955
vn -0.7525679 -0.274215 0.598705
vn -0.9999982 0.0004810001 0.001849
vn -0.5101773 -0.76508 0.3929019
vn 0.7343586 -0.3296048 -0.5933616
vn -0.01940111 -0.3106542 -0.9503251
vn -0.7107561 -0.333901 -0.6191412
vn 0.05886928 -0.9973839 0.04195032
vn 0.03296301 -0.7291861 -0.6835211
vn -0.1826445 -0.9811913 -0.06248667
vn 0.9711291 0.168895 -0.168472
vn 0.7967367 0.4283228 0.4263218
vn -0.835084 -0.508223 0.210582
vn 0.5457109 0.492273 0.678135
vn -0.215834 -0.135819 -0.9669379
vn -0.8851256 0.4452368 -0.1353399
vn -0.8830103 0.1800241 -0.4334561
vn -0.9613112 0.2410351 -0.133353
vn -0.2148675 0.7646092 0.6076223
vn -0.7631639 0.4473319 0.466342
vn -0.9998711 -0.014804 -0.006223001
vn -0.5171284 0.08281147 0.8518923
vn 0.7343586 0.5183587 -0.4382028
vn -0.01940023 0.872241 -0.4886915
vn -0.7107561 0.5428191 -0.4474071
vn 0.05886928 -0.2341742 -0.9704107
vn 0.03296302 0.5294853 -0.8476784
vn -0.1826445 -0.1285779 -0.9747352
vn 0.9711291 0.197972 0.133099
vn 0.7967367 -0.3353719 0.5027288
vn -0.835084 -0.304954 -0.457862
vn 0.5457108 -0.5700488 0.6142019
vn -0.2158351 0.9223743 -0.3203761
vn -0.8851253 0.2189451 0.4106292
vn -0.8830107 0.4600998 0.09273797
vn -0.9613112 0.177478 0.210671
vn -0.2148675 -0.4481659 0.8677438
vn -0.7631642 -0.370957 0.5291232
vn -0.9998711 0.003241 -0.015728
vn -0.5171285 -0.8197619 0.2461071
vn 0.7220517 -0.3683988 -0.5855967
vn -0.03914875 -0.3732693 -0.9268968
vn -0.7232772 -0.3744031 -0.5802521
vn 0.06116245 -0.9923741 0.1070184
vn 0.01946601 -0.7730984 -0.6339874
vn -0.1825386 -0.9831744 0.006902155
vn 0.9670894 0.1572971 -0.1999891
vn 0.8050073 0.4557702 0.3797852
vn -0.829699 -0.493066 0.261698
vn 0.559298 0.536353 0.632069
vn -0.23614 -0.199929 -0.9509291
vn -0.8884324 0.4352322 -0.1458111
vn -0.8922763 0.15075 -0.4255792
vn -0.9642689 0.231616 -0.128607
vn -0.2029921 0.8033869 0.5597889
vn -0.7537163 0.4774032 0.4516612
vn -0.9997555 -0.01518499 0.01607199
vn -0.4990269 0.1393755 0.855305
vn 0.7852158 0.5400549 -0.302947
vn 0.05406783 0.9404101 -0.3357166
vn -0.6534171 0.649225 -0.389298
vn 0.1107559 -0.07430031 -0.9910664
vn 0.113323 0.6589544 -0.7435973
vn -0.1246566 0.04435557 -0.991208
vn 0.9687192 0.116875 0.2189141
vn 0.7453968 -0.4590329 0.4833969
vn -0.817052 -0.176643 -0.548838
vn 0.4767442 -0.6939403 0.5395942
vn -0.150304 0.973437 -0.172711
vn -0.8985629 0.199203 0.3910279
vn -0.8642489 0.4888509 0.118738
vn -0.9634457 0.1956809 0.1829789
vn -0.2920665 -0.5716641 0.7667447
vn -0.8128287 -0.4082089 0.4155419
vn -0.9954285 0.06360103 -0.07125404
vn -0.5705378 -0.8177892 0.0755474
vn 0.9999894 0.0002610001 -0.004608002
vn -0.5595881 -0.7236952 0.4038891
vn 0.6887563 -0.01564712 -0.7248241
vn -0.403674 0.246499 -0.881071
vn 0.3467309 -0.7751917 0.5280678
vn 0.9996564 0.004605002 0.02580801
vn -0.5419212 -0.4886172 -0.6837943
vn 0.6912197 0.7175859 -0.08535724
vn -0.407137 0.90445 0.127318
vn 0.365031 -0.618121 -0.6961889
vn 0.9999667 0.003498999 -0.007373998
vn -0.563888 -0.5864109 -0.5815089
vn 0.6880748 0.6920163 -0.2183267
vn -0.402779 0.915295 -0.002175
vn 0.3421801 -0.7208632 -0.6027181
vn 0.9999385 0.01108001 0.0005220002
vn -0.5533879 -0.7628559 0.334384
vn 0.6918731 0.0567409 -0.7197861
vn -0.402675 0.320488 -0.857403
vn 0.3529141 -0.8158732 0.4580421
vn 0.9999385 0.001632001 0.01097201
vn -0.5533879 -0.4756929 -0.6837238
vn 0.6918731 0.7171597 -0.08362694
vn -0.402675 0.903216 0.148503
vn 0.3529148 -0.6072736 -0.7118075
vn 0.9997071 0.01109 -0.021512
vn -0.5450761 -0.7388861 0.3961561
vn 0.6763409 0.008666907 -0.7365377
vn -0.421257 0.262661 -0.868073
vn 0.3637248 -0.7835487 0.5037417
vn 0.9960378 -0.05802399 0.06739399
vn -0.529693 -0.323887 -0.783915
vn 0.7292348 0.679918 0.07699443
vn -0.368002 0.88822 0.275026
vn 0.3692129 -0.5012398 -0.7825857
vt -14.5 17
vt 16.5 17
vt 14.5 17
vt 17 17
vt 17 17.5
vt -17 17
vt 14 17
vt -14.5 18
vt -15.875 17.5
vt -17 18
vt 16.5 17.375
vt 16.375 17.5
vt 16.625 17.5
vt 14 18
vt 16.5 18
vt 14.5 -16
vt 17 17.5
vt -17 18
vt -14.5 17
vt 16.5 17
vt 14.5 17
vt 17 17
vt 17 17.5
vt -17 17
vt 14 17
vt -14.5 18
vt -15.875 17.5
vt -17 18
vt 16.5 17.375
vt 16.375 17.5
vt 16.625 17.5
vt 14 18
vt 16.5 18
vt 14.5 -16
vt 17 17.5
vt -17 18
vt -14.5 17
vt 16.5 17
vt 14.5 17
vt 17 17
vt 17 17.5
vt -17 17
vt 14 17
vt -14.5 18
vt -15.875 17.5
vt -17 18
vt 16.5 17.375
vt 16.375 17.5
vt 16.625 17.5
vt 14 18
vt 16.5 18
vt 14.5 -16
vt 17 17.5
vt -17 18
vt -14.5 17
vt 16.5 17
vt 14.5 17
vt 17 17
vt 17 17.5
vt -17 17
vt 14 17
vt -14.5 18
vt -15.875 17.5
vt -17 18
vt 16.5 17.375
vt 16.375 17.5
vt 16.625 17.5
vt 14 18
vt 16.5 18
vt 14.5 -16
vt 17 17.5
vt -17 18
vt -14.5 17
vt 16.5 17
vt 14.5 17
vt 17 17
vt 17 17.5
vt -17 17
vt 14 17
vt -14.5 18
vt -15.875 17.5
vt -17 18
vt 16.5 17.375
vt 16.375 17.5
vt 16.625 17.5
vt 14 18
vt 16.5 18
vt 14.5 -16
vt 17 17.5
vt -17 18
vt -14.5 17
vt 16.5 17
vt 14.5 17
vt 17 17
vt 17 17.5
vt -17 17
vt 14 17
vt -14.5 18
vt -15.875 17.5
vt -17 18
vt 16.5 17.375
vt 16.375 17.5
vt 16.625 17.5
vt 14 18
vt 16.5 18
vt 14.5 -16
vt 17 17.5
vt -17 18
vt -14.5 17
vt 16.5 17
vt 14.5 17
vt 17 17
vt 17 17.5
vt -17 17
vt 14 17
vt -14.5 18
vt -15.875 17.5
vt -17 18
vt 16.5 17.375
vt 16.375 17.5
vt 16.625 17.5
vt 14 18
vt 16.5 18
vt 14.5 -16
vt 17 17.5
vt -17 18
vt 14.5 17
vt 14 17.5
vt 14.5 18
vt -17 17
vt -16 17
vt -16.5 16.875
vt 17 18
vt 17 17
vt 16 17.5
vt 14 -15
vt -14 17.5
vt 14.5 -15
vt -17 17.5
vt 17 -15
vt -16 18
vt 14 17.5
vt 14 -16
vt 17 17.5
vt 14 -15.5
vt 14.5 18
vt -17.125 17.5
vt 17 18
vt 17 -16
vt 14.5 17
vt 14 17.5
vt 14.5 18
vt -17 17
vt -16 17
vt -16.5 16.875
vt 17 18
vt 17 17
vt 16 17.5
vt 14 -15
vt -14 17.5
vt 14.5 -15
vt -17 17.5
vt 17 -15
vt -16 18
vt 14 17.5
vt 14 -16
vt 17 17.5
vt 14 -15.5
vt 14.5 18
vt -17.125 17.5
vt 17 18
vt 17 -16
vt 14.5 17
vt 14 17.5
vt 14.5 18
vt -17 17
vt -16 17
vt -16.5 16.875
vt 17 18
vt 17 17
vt 16 17.5
vt 14 -15
vt -14 17.5
vt 14.5 -15
vt -17 17.5
vt 17 -15
vt -16 18
vt 14 17.5
vt 14 -16
vt 17 17.5
vt 14 -15.5
vt 14.5 18
vt -17.125 17.5
vt 17 18
vt 17 -16
vt 14.5 17
vt 14 17.5
vt 14.5 18
vt -17 17
vt -16 17
vt -16.5 16.875
vt 17 18
vt 17 17
vt 16 17.5
vt 14 -15
vt -14 17.5
vt 14.5 -15
vt -17 17.5
vt 17 -15
vt -16 18
vt 14 17.5
vt 14 -16
vt 17 17.5
vt 14 -15.5
vt 14.5 18
vt -17.125 17.5
vt 17 18
vt 17 -16
vt 14.5 17
vt 14 17.5
vt 14.5 18
vt -17 17
vt -16 17
vt -16.5 16.875
vt 17 18
vt 17 17
vt 16 17.5
vt 14 -15
vt -14 17.5
vt 14.5 -15
vt -17 17.5
vt 17 -15
vt -16 18
vt 14 17.5
vt 14 -16
vt 17 17.5
vt 14 -15.5
vt 14.5 18
vt -17.125 17.5
vt 17 18
vt 17 -16
vt 14.5 17
vt 14 17.5
vt 14.5 18
vt -17 17
vt -16 17
vt -16.5 16.875
vt 17 18
vt 17 17
vt 16 17.5
vt 14 -15
vt -14 17.5
vt 14.5 -15
vt -17 17.5
vt 17 -15
vt -16 18
vt 14 17.5
vt 14 -16
vt 17 17.5
vt 14 -15.5
vt 14.5 18
vt -17.125 17.5
vt 17 18
vt 17 -16
vt 14.5 17
vt 14 17.5
vt 14.5 18
vt -17 17
vt -16 17
vt -16.5 16.875
vt 17 18
vt 17 17
vt 16 17.5
vt 14 -15
vt -14 17.5
vt 14.5 -15
vt -17 17.5
vt 17 -15
vt -16 18
vt 14 17.5
vt 14 -16
vt 17 17.5
vt 14 -15.5
vt 14.5 18
vt -17.125 17.5
vt 17 18
vt 17 -16
f 2/128/2 1/127/1 3/129/3
f 107/107/107 93/93/93 96/249/96
f 5/5/5 3/129/3 1/127/1
f 108/263/108 106/261/106 107/107/107
f 5/5/5 1/127/1 4/4/4
f 4/131/4 6/6/6 5/132/5
f 6/133/6 3/129/3 5/5/5
f 92/243/92 97/97/97 91/242/91
f 8/8/8 1/1/1 7/137/7
f 93/244/93 104/104/104 92/243/92
f 8/8/8 9/139/127 1/1/1
f 9/139/127 4/130/4 1/1/1
f 10/141/128 4/131/4 9/9/9
f 8/8/8 10/10/10 9/139/127
f 11/11/11 13/13/13 12/12/130
f 12/12/129 7/135/7 2/2/2
f 11/11/11 12/12/129 2/2/2
f 13/13/13 11/11/11 2/2/2
f 14/144/14 13/13/13 2/2/2
f 15/15/15 7/135/7 12/12/129
f 98/98/98 91/91/91 97/252/97
f 13/13/13 15/15/15 12/12/12
f 96/248/96 93/244/93 95/95/95
f 14/144/14 15/15/15 13/13/13
f 2/128/2 7/7/7 1/127/1
f 3/129/3 14/14/14 2/128/2
f 8/138/8 7/136/7 15/145/15
f 15/145/15 14/143/14 16/16/16
f 14/142/14 3/3/3 16/146/16
f 114/271/114 111/267/111 113/113/113
f 15/145/15 10/140/10 8/138/8
f 15/145/15 16/16/16 10/140/10
f 17/17/17 16/146/16 3/3/3
f 116/116/116 109/109/109 115/275/115
f 17/17/17 3/3/3 6/134/6
f 18/148/18 16/146/16 17/17/17
f 126/286/126 124/284/124 125/125/125
f 119/119/119 120/120/159 110/110/110
f 121/121/121 119/119/119 110/110/110
f 16/16/16 18/149/18 10/140/10
f 125/125/125 111/111/111 114/272/114
f 10/141/128 6/6/6 4/131/4
f 10/141/128 17/147/131 6/6/6
f 10/141/128 18/18/18 17/147/131
f 20/151/20 19/150/19 21/152/21
f 104/257/104 93/93/93 106/261/106
f 23/23/23 21/152/21 19/150/19
f 105/260/105 100/255/100 98/253/98
f 23/23/23 19/150/19 22/22/22
f 22/154/22 24/24/24 23/155/23
f 24/156/24 21/152/21 23/23/23
f 104/259/104 103/103/103 92/92/92
f 26/26/26 19/19/19 25/160/25
f 105/105/105 97/250/97 102/102/154
f 26/26/26 27/162/132 19/19/19
f 27/162/132 22/153/22 19/19/19
f 28/164/133 22/154/22 27/27/27
f 26/26/26 28/28/28 27/162/132
f 29/29/29 31/31/31 30/30/135
f 30/30/134 25/158/25 20/20/20
f 29/29/29 30/30/134 20/20/20
f 31/31/31 29/29/29 20/20/20
f 32/167/32 31/31/31 20/20/20
f 33/33/33 25/158/25 30/30/134
f 98/98/98 100/100/100 99/254/152
f 31/31/31 33/33/33 30/30/30
f 100/256/153 94/246/94 99/99/99
f 32/167/32 33/33/33 31/31/31
f 20/151/20 25/25/25 19/150/19
f 21/152/21 32/32/32 20/151/20
f 26/161/26 25/159/25 33/168/33
f 33/168/33 32/166/32 34/34/34
f 32/165/32 21/21/21 34/169/34
f 116/116/116 117/277/157 109/109/109
f 33/168/33 28/163/28 26/161/26
f 33/168/33 34/34/34 28/163/28
f 35/35/35 34/169/34 21/21/21
f 117/277/157 112/268/112 109/109/109
f 35/35/35 21/21/21 24/157/24
f 36/171/36 34/169/34 35/35/35
f 123/283/123 118/278/118 116/276/116
f 123/123/123 120/120/120 121/121/121
f 123/123/123 121/121/121 122/282/122
f 34/34/34 36/172/36 28/163/28
f 122/280/122 111/111/111 124/284/124
f 28/164/133 24/24/24 22/154/22
f 28/164/133 35/170/136 24/24/24
f 28/164/133 36/36/36 35/170/136
f 113/113/113 111/267/111 109/265/109
f 38/174/38 37/173/37 39/175/39
f 110/266/110 109/265/109 111/267/111
f 39/175/39 37/173/37 41/41/41
f 41/41/41 37/173/37 40/40/40
f 40/177/40 42/42/42 41/178/41
f 42/179/42 39/175/39 41/41/41
f 101/101/101 102/102/154 92/92/92
f 44/44/44 37/37/37 43/183/43
f 103/103/103 101/101/101 92/92/92
f 44/44/44 45/185/137 37/37/37
f 45/185/137 40/176/40 37/37/37
f 46/187/138 40/177/40 45/45/45
f 44/44/44 46/46/46 45/185/137
f 47/47/47 49/49/49 48/48/140
f 48/48/139 43/181/43 38/38/38
f 47/47/47 48/48/139 38/38/38
f 49/49/49 47/47/47 38/38/38
f 50/190/50 49/49/49 38/38/38
f 51/51/51 43/181/43 48/48/139
f 51/51/51 48/48/48 49/49/49
f 101/101/101 103/103/103 102/102/155
f 51/51/51 49/49/49 50/190/50
f 102/102/154 97/250/97 92/92/92
f 38/174/38 43/43/43 37/173/37
f 39/175/39 50/50/50 38/174/38
f 44/184/44 43/182/43 51/191/51
f 51/191/51 50/189/50 52/52/52
f 50/188/50 39/39/39 52/192/52
f 113/113/113 109/265/109 112/112/112
f 51/191/51 46/186/46 44/184/44
f 51/191/51 52/52/52 46/186/46
f 53/53/53 52/192/52 39/39/39
f 112/269/112 114/114/114 113/270/113
f 53/53/53 39/39/39 42/180/42
f 54/194/54 52/192/52 53/53/53
f 118/279/158 126/126/126 125/285/161
f 116/276/116 115/274/115 123/283/123
f 123/283/123 122/281/122 124/124/124
f 52/52/52 54/195/54 46/186/46
f 118/279/158 125/285/161 114/114/114
f 46/187/138 42/42/42 40/177/40
f 46/187/138 53/193/141 42/42/42
f 46/187/138 54/54/54 53/193/141
f 56/197/56 55/196/55 57/198/57
f 106/106/106 108/264/108 100/255/100
f 59/59/59 57/198/57 55/196/55
f 100/256/153 96/96/96 94/246/94
f 59/59/59 55/196/55 58/58/58
f 58/200/58 60/60/60 59/201/59
f 60/202/60 57/198/57 59/59/59
f 103/103/103 105/105/105 102/102/102
f 62/62/62 55/55/55 61/206/61
f 104/259/104 105/105/105 103/103/103
f 62/62/62 63/208/142 55/55/55
f 63/208/142 58/199/58 55/55/55
f 64/210/143 58/200/58 63/63/63
f 62/62/62 64/64/64 63/208/142
f 65/65/65 67/67/67 66/66/145
f 66/66/144 61/204/61 56/56/56
f 65/65/65 66/66/144 56/56/56
f 67/67/67 65/65/65 56/56/56
f 68/213/68 67/67/67 56/56/56
f 69/69/69 61/204/61 66/66/144
f 94/246/94 96/96/96 95/247/95
f 67/67/67 69/69/69 66/66/66
f 95/95/95 91/242/91 94/94/94
f 68/213/68 69/69/69 67/67/67
f 56/197/56 61/61/61 55/196/55
f 57/198/57 68/68/68 56/197/56
f 62/207/62 61/205/61 69/214/69
f 69/214/69 68/212/68 70/70/70
f 68/211/68 57/57/57 70/215/70
f 118/279/158 112/269/112 117/117/117
f 69/214/69 64/209/64 62/207/62
f 69/214/69 70/70/70 64/209/64
f 71/71/71 70/215/70 57/57/57
f 116/116/116 118/118/118 117/277/157
f 71/71/71 57/57/57 60/203/60
f 72/217/72 70/215/70 71/71/71
f 118/279/158 114/114/114 112/269/112
f 110/266/110 115/115/115 109/265/109
f 111/267/111 122/122/122 110/266/110
f 70/70/70 72/218/72 64/209/64
f 124/124/124 126/287/126 118/278/118
f 64/210/143 60/60/60 58/200/58
f 64/210/143 71/216/146 60/60/60
f 64/210/143 72/72/72 71/216/146
f 74/220/74 73/219/73 75/221/75
f 105/260/105 106/106/106 100/255/100
f 77/77/77 75/221/75 73/219/73
f 107/107/107 106/261/106 93/93/93
f 77/77/77 73/219/73 76/76/76
f 76/223/76 78/78/78 77/224/77
f 78/225/78 75/221/75 77/77/77
f 98/253/98 97/251/97 105/260/105
f 80/80/80 73/73/73 79/229/79
f 105/260/105 104/258/104 106/106/106
f 80/80/80 81/231/147 73/73/73
f 81/231/147 76/222/76 73/73/73
f 82/233/148 76/223/76 81/81/81
f 80/80/80 82/82/82 81/231/147
f 83/83/83 85/85/85 84/84/150
f 84/84/149 79/227/79 74/74/74
f 83/83/83 84/84/149 74/74/74
f 85/85/85 83/83/83 74/74/74
f 86/236/86 85/85/85 74/74/74
f 87/87/87 79/227/79 84/84/149
f 99/254/152 94/245/94 91/91/91
f 85/85/85 87/87/87 84/84/84
f 98/98/98 99/254/152 91/91/91
f 86/236/86 87/87/87 85/85/85
f 74/220/74 79/79/79 73/219/73
f 75/221/75 86/86/86 74/220/74
f 80/230/80 79/228/79 87/237/87
f 87/237/87 86/235/86 88/88/88
f 86/234/86 75/75/75 88/238/88
f 119/119/119 121/121/121 120/120/160
f 87/237/87 82/232/82 80/230/80
f 87/237/87 88/88/88 82/232/82
f 89/89/89 88/238/88 75/75/75
f 120/120/159 115/273/115 110/110/110
f 89/89/89 75/75/75 78/226/78
f 90/240/90 88/238/88 89/89/89
f 125/125/125 124/284/124 111/111/111
f 122/282/122 121/121/121 110/110/110
f 123/123/123 115/273/115 120/120/159
f 88/88/88 90/241/90 82/232/82
f 123/283/123 124/124/124 118/278/118
f 82/233/148 78/78/78 76/223/76
f 82/233/148 89/239/151 78/78/78
f 82/233/148 90/90/90 89/239/151
f 92/243/92 91/242/91 93/244/93
f 100/256/153 107/262/156 96/96/96
f 95/95/95 93/244/93 91/242/91
f 100/256/153 108/108/108 107/262/156
