# Blender 3.4.1
# www.blender.org
mtllib stairs.mtl
o Stairs_01_LOD0
v -0.545361 -0.001663 0.449609
v -0.545361 -0.001662 -0.450391
v 0.444639 -0.001663 0.449609
v 0.444639 0.574298 0.449609
v 0.444639 -0.001662 -0.450391
v 0.444639 0.574298 -0.450391
v 0.246639 -0.001662 -0.450391
v 0.048639 -0.001662 -0.450391
v -0.149361 -0.001662 -0.450391
v -0.347361 -0.001662 -0.450391
v 0.246639 0.556069 -0.450391
v -0.347361 -0.001663 0.449609
v -0.149361 -0.001663 0.449609
v 0.048639 -0.001663 0.428713
v 0.246639 -0.001663 0.449609
v 0.246639 0.556068 0.449609
v -0.545361 0.106121 0.449609
v -0.545361 0.106121 -0.450391
v 0.444639 0.459106 -0.450391
v 0.444639 0.343914 -0.450391
v 0.444639 0.228722 -0.450391
v 0.444639 0.113530 -0.450391
v 0.444639 0.459106 0.449609
v 0.444639 0.343914 0.449609
v 0.444639 0.228722 0.449609
v 0.444639 0.113529 0.449609
v 0.246639 0.459106 0.449609
v 0.246639 0.343914 0.449609
v 0.246639 0.228722 0.449609
v 0.246639 0.113529 0.449609
v 0.048639 0.459106 0.449609
v 0.048639 0.343914 0.449609
v 0.048639 0.228722 0.449609
v 0.048639 0.113529 0.449609
v -0.436038 0.091298 0.449609
v -0.149361 0.228722 0.449609
v -0.149361 0.113529 0.449609
v -0.347361 0.113529 0.449609
v -0.347361 0.228722 -0.450391
v -0.347361 0.113530 -0.450391
v -0.149361 0.228722 -0.450391
v -0.149361 0.113530 -0.450391
v 0.048639 0.343914 -0.450391
v 0.048639 0.228722 -0.450391
v 0.048639 0.113530 -0.450391
v 0.246639 0.459106 -0.450391
v 0.246639 0.343914 -0.450391
v 0.246639 0.228722 -0.450391
v 0.246639 0.113530 -0.450391
v -0.347361 0.200629 0.449609
v -0.319269 0.228722 0.449609
v -0.347361 0.228722 0.147985
v 0.048639 0.459106 0.185735
v 0.080723 0.459106 -0.450391
v 0.048639 0.427022 -0.450391
v -0.149361 0.260978 0.449609
v -0.131359 0.343914 0.449609
v -0.149361 0.343914 0.431607
v -0.437569 0.110154 0.417486
v -0.441283 0.105710 0.442704
v 0.064466 -0.001663 0.449609
v 0.034353 -0.001663 0.449609
v -0.149361 0.343914 -0.327258
v -0.128933 0.343914 -0.450391
v -0.149361 0.252010 -0.450391
vn -0.0000 -0.0000 -1.0000
vn 1.0000 -0.0000 -0.0000
vn -0.0000 -1.0000 -0.0000
vn -0.0917 0.9958 -0.0000
vn -0.0000 -0.0000 1.0000
vn -0.0000 1.0000 -0.0000
vn -0.0039 0.0154 0.9999
vn -0.0374 0.9993 -0.0000
vn -0.0295 0.9992 0.0265
vn -0.0411 0.9956 0.0839
vn -0.0477 0.9984 0.0290
vn 0.8212 -0.1018 0.5614
vn -0.0181 0.2169 0.9760
vn 0.0057 0.0420 0.9991
vn -1.0000 -0.0000 -0.0000
vn -0.7056 0.7056 0.0657
vn -0.7067 0.7067 -0.0356
vn -0.6989 0.1517 0.6989
vn -0.0053 0.4305 0.9026
vn -0.0341 0.9851 0.1686
vn -0.7924 -0.1089 0.6002
vn -0.9984 0.0449 -0.0335
vn -0.9636 0.2142 -0.1599
vn -0.9967 0.0647 -0.0483
vt 0.334750 0.024011
vt 0.340194 0.029454
vt 0.340194 0.007680
vt 0.334750 0.018567
vt 0.340194 0.013124
vt 0.340194 0.024011
vt 0.345637 0.024011
vt 0.340194 0.018567
vt 0.345637 0.018567
vt 0.339105 0.018567
vt 0.340194 0.017478
vt 0.338016 0.018567
vt 0.340194 0.016390
vt 0.336928 0.018567
vt 0.340194 0.015301
vt 0.335839 0.018567
vt 0.340194 0.014212
vt 0.346726 0.018567
vt 0.345637 0.017478
vt 0.335839 0.024011
vt 0.340194 0.028365
vt 0.336928 0.024011
vt 0.340194 0.027277
vt 0.338016 0.024011
vt 0.340194 0.026188
vt 0.339105 0.024011
vt 0.340194 0.025099
vt 0.346726 0.024011
vt 0.345637 0.025099
vt 0.341282 0.029454
vt 0.341282 0.007680
vt 0.341282 0.013124
vt 0.344548 0.018567
vt 0.343460 0.018567
vt 0.342371 0.018567
vt 0.341282 0.018567
vt 0.344548 0.024011
vt 0.343460 0.024011
vt 0.342371 0.024011
vt 0.341282 0.024011
vt 0.344548 0.025099
vt 0.343460 0.025099
vt 0.342371 0.025099
vt 0.341282 0.025099
vt 0.344548 0.026188
vt 0.343460 0.026188
vt 0.342371 0.026188
vt 0.341282 0.026188
vt 0.341098 0.028853
vt 0.342371 0.027277
vt 0.341282 0.027277
vt 0.341282 0.028365
vt 0.342371 0.014212
vt 0.341282 0.014212
vt 0.342371 0.015301
vt 0.341282 0.015301
vt 0.343460 0.016390
vt 0.342371 0.016390
vt 0.341282 0.016390
vt 0.344548 0.017478
vt 0.343460 0.017478
vt 0.342371 0.017478
vt 0.341282 0.017478
vt 0.342106 0.028365
vt 0.342371 0.028211
vt 0.342371 0.027924
vt 0.344548 0.016739
vt 0.344548 0.016566
vt 0.344245 0.016390
vt 0.343290 0.027277
vt 0.343460 0.027178
vt 0.343460 0.027037
vt 0.341282 0.018774
vt 0.341282 0.028882
vt 0.341282 0.018553
vt 0.338133 0.024011
vt 0.340194 0.026071
vt 0.337899 0.024011
vt 0.340194 0.026306
vt 0.343460 0.015573
vt 0.343460 0.015413
vt 0.343267 0.015301
s 1
usemtl TropicalEnvironment_01.008
f 46/60/1 11/19/1 6/9/1 19/33/1
f 19/33/2 6/9/2 4/7/2 23/37/2
f 7/10/3 5/8/3 3/6/3 15/26/3
f 6/9/4 11/18/4 16/28/4 4/7/4
f 2/4/3 10/16/3 12/20/3 1/1/3
f 10/16/3 9/14/3 13/22/3 12/20/3
f 9/14/3 8/12/3 14/24/3 62/78/3 13/22/3
f 8/12/3 7/10/3 15/26/3 61/76/3 14/24/3
f 23/37/5 4/7/5 16/29/5 27/41/5
f 8/13/1 45/59/1 49/63/1 7/11/1
f 45/59/1 44/58/1 48/62/1 49/63/1
f 44/58/1 43/57/1 47/61/1 48/62/1
f 54/68/6 53/67/6 31/45/6 27/41/6 46/60/6
f 9/15/1 42/56/1 45/59/1 8/13/1
f 42/56/1 41/55/1 44/58/1 45/59/1
f 64/81/6 63/80/6 58/72/6 57/71/6 32/46/6 43/57/6
f 10/17/1 40/54/1 42/56/1 9/15/1
f 40/54/1 39/53/1 41/55/1 42/56/1
f 2/5/1 18/32/1 40/54/1 10/17/1
f 13/23/5 37/51/5 38/52/7 12/21/5
f 39/53/6 52/66/6 51/65/6 36/50/6 41/55/6
f 18/32/8 17/31/9 59/73/10 38/52/11 40/54/8
f 14/25/12 34/48/12 62/79/12
f 34/48/5 33/47/5 36/50/5 37/51/5
f 37/51/5 36/50/5 51/65/5 50/64/5 38/52/7
f 15/27/5 30/44/5 34/48/5 61/77/5
f 30/44/5 29/43/5 33/47/5 34/48/5
f 29/43/5 28/42/5 32/46/5 33/47/5
f 28/42/5 27/41/5 31/45/5 32/46/5
f 3/6/5 26/40/5 30/44/5 15/27/5
f 26/40/5 25/39/5 29/43/5 30/44/5
f 25/39/5 24/38/5 28/42/5 29/43/5
f 24/38/5 23/37/5 27/41/5 28/42/5
f 12/21/5 38/52/7 35/49/13 17/30/14 1/2/5
f 33/47/5 32/46/5 57/71/5 56/70/5 36/50/5
f 43/57/1 55/69/1 54/68/1 46/60/1 47/61/1
f 5/8/2 22/36/2 26/40/2 3/6/2
f 22/36/2 21/35/2 25/39/2 26/40/2
f 21/35/2 20/34/2 24/38/2 25/39/2
f 20/34/2 19/33/2 23/37/2 24/38/2
f 7/11/1 49/63/1 22/36/1 5/8/1
f 49/63/1 48/62/1 21/35/1 22/36/1
f 48/62/1 47/61/1 20/34/1 21/35/1
f 47/61/1 46/60/1 19/33/1 20/34/1
f 1/3/15 17/31/15 18/32/15 2/5/15
f 11/19/15 46/60/15 27/41/15 16/29/15
f 50/64/16 51/65/16 52/66/16
f 38/52/15 50/64/15 52/66/15 39/53/15 40/54/15
f 53/67/17 54/68/17 55/69/17
f 32/46/15 31/45/15 53/67/15 55/69/15 43/57/15
f 56/70/18 57/71/18 58/72/18
f 41/55/1 65/82/1 64/81/1 43/57/1 44/58/1
f 17/30/14 35/49/13 60/74/19
f 38/52/11 59/73/10 60/75/20
f 60/74/19 35/49/13 38/52/7
f 60/75/20 59/73/10 17/31/9
f 62/79/5 34/48/5 37/51/5 13/23/5
f 61/77/21 34/48/21 14/25/21
f 63/80/22 64/81/23 65/82/24
f 36/50/15 56/70/15 58/72/15 63/80/22 65/82/24 41/55/15
