v 3.297168 -0.009004 -16.62282
v 2.194128 4.51359 -16.62427
v -3.190829 0.148408 -16.79403
v 3.212137 0.148409 -16.78563
v -2.093078 4.450831 -16.79259
v 2.086845 4.45083 16.79258
v 3.184595 0.148407 16.79403
v -3.21837 0.148407 16.78563
v 3.17963 1.651783 -16.78568
v -2.131111 4.272611 -16.79264
v 0.010654 0.604059 -16.78983
v 2.114386 4.450832 -16.78706
v 1.22868 12.14168 16.79145
v -0.016887 0.604058 16.78983
v 2.124877 4.272609 16.79263
v 1.256222 12.14169 -16.78819
v 2.152419 4.272611 -16.78701
v -1.234904 12.14169 -16.79147
v -3.190829 1.461457 -16.79403
v -2.120619 4.45083 16.78707
v -1.262445 12.14168 16.7882
v -1.449414 0.148407 16.78795
v -2.158652 4.272609 16.78702
vn 0.7293497 -0.4488297 -0.5163341
vn 0.9566181 0.153405 -0.247687
vn -0.2660871 -0.4334411 -0.8610032
vn 0.3638591 -0.294278 -0.8837461
vn -0.5462468 0.08792169 -0.8329971
vn 0.5176434 0.07531744 0.852275
vn 0.3617571 -0.2943361 0.8845892
vn -0.268197 -0.4333761 0.8603811
vn 0.472865 0.148613 -0.8685119
vn -0.4712248 0.1558553 -0.8681338
vn -0.04020399 -0.3909539 -0.9195318
vn 0.5195649 0.07526847 -0.8511093
vn 0.3977191 0.6877031 0.6073581
vn -0.04259801 -0.39093 0.9194341
vn 0.4838365 0.1302992 0.8654042
vn 0.3991618 0.6875737 -0.6065577
vn 0.4858205 0.1302191 -0.8643039
vn -0.4066282 0.4589211 -0.7899652
vn -0.4353459 0.02432199 -0.8999346
vn -0.5480843 0.08786898 0.8317948
vn -0.4084989 0.4587809 0.7890809
vn 0.09660497 -0.4683259 0.8782588
vn -0.4732152 0.1557613 0.8670673
vt 0.797253 0.002645
vt 0.7971811 0.103248
vt 0.801444 0.596954
vt 0.801953 0.005865
vt 0.801782 0.497535
vt 0.001531 0.102659
vt 0.001523 0.79399
vt 0.805186 0.279231
vt 0.801926 0.037403
vt 0.8018481 0.501012
vt 0.801905 0.6968181
vt 0.838238 0.092642
vt 0.939081 0.523416
vt 0.9015781 0.288508
vt 0.00145 0.099179
vt 0.801349 0.261788
vt 0.8370931 0.08901401
vt 0.93908 0.249231
vt 0.997971 0.031779
vt 0.001591 0.497555
vt 0.864077 0.523416
vt 0.858447 0.279231
vt 0.001525 0.501032
vt 0.7968161 0.796539
vt 0.997971 0.005046
vt 0.801864 0.793968
vt 0.805186 0.005045
vt 0.964919 0.09264301
vt 0.964919 0.366829
vt 0.001399 0.005892
vt 0.997971 0.279231
vt 0.001933 0.5969731
vt 0.806165 0.035653
vt 0.966064 0.089015
vt 0.9015781 0.014322
vt 0.8018271 0.102644
vt 0.002012 0.261805
vt 0.001477 0.6968381
vt 0.966064 0.3632
vt 0.864075 0.24923
vt 0.801908 0.099162
vt 0.80138 0.338388
vt 0.801986 0.567403
vt 0.838238 0.366829
vt 0.001984 0.338408
vt 0.001582 0.653123
vt 0.8370931 0.3632
g ungrouped
f 15/15/15 2/2/2 6/6/6
f 5/28/5 12/12/12 17/17/17
f 5/28/5 17/17/17 10/34/10
f 20/44/20 23/47/23 15/39/15
f 23/23/23 20/20/20 5/5/5
f 23/23/23 5/5/5 10/10/10
f 17/41/17 12/36/12 2/2/2
f 17/41/17 2/2/2 15/15/15
f 20/44/20 15/39/15 6/29/6
g haut
f 18/42/18 5/5/5 20/20/20
f 16/16/16 2/2/2 12/36/12
f 18/42/18 20/20/20 21/45/21
f 21/45/21 13/37/13 16/16/16
f 2/2/2 16/16/16 13/37/13
f 2/2/2 13/37/13 6/6/6
f 21/21/21 20/44/20 6/29/6
f 21/21/21 6/29/6 13/13/13
f 18/18/18 16/40/16 12/12/12
f 18/18/18 12/12/12 5/28/5
f 21/45/21 16/16/16 18/42/18
g bas
f 23/23/23 10/10/10 19/43/19
f 1/1/1 15/15/15 7/30/7
f 11/11/11 4/26/4 1/24/1
f 15/39/15 14/14/14 7/31/7
f 1/1/1 9/9/9 15/15/15
f 8/32/8 3/3/3 22/46/22
f 19/19/19 9/33/9 11/35/11
f 3/3/3 11/11/11 22/46/22
f 8/32/8 23/23/23 19/43/19
f 19/19/19 11/35/11 3/25/3
f 10/34/10 17/17/17 9/33/9
f 1/1/1 4/4/4 9/9/9
f 11/11/11 1/24/1 14/38/14
f 9/33/9 4/27/4 11/35/11
f 14/38/14 1/24/1 7/7/7
f 8/32/8 19/43/19 3/3/3
f 9/9/9 17/41/17 15/15/15
f 23/47/23 8/8/8 15/39/15
f 8/8/8 14/14/14 15/39/15
f 10/34/10 9/33/9 19/19/19
f 22/46/22 11/11/11 14/38/14
f 8/8/8 22/22/22 14/14/14
