# Blender v3.4.1 OBJ File: ''
# www.blender.org
mtllib pndplante 1 lod.mtl
o PondPlant_03_LOD1_Mesh.669
v 0.000000 -0.448837 0.005277
v -0.005503 0.001483 0.005503
v -0.005503 0.001483 -0.005503
v 0.000000 -0.448838 -0.005277
v 0.005503 0.001481 0.000000
v -0.008164 -0.218758 0.002176
v -0.009607 -0.213748 -0.009399
v 0.001954 -0.209976 -0.007977
v 0.000004 -0.138610 0.005428
v 0.005353 -0.298729 0.000056
v -0.105199 0.044702 -0.034051
v -0.031821 0.006096 -0.039652
v -0.068400 0.018823 -0.046634
v -0.000071 0.003039 0.022591
v -0.105160 0.044667 0.034055
v 0.000032 0.002109 -0.021904
v -0.126782 0.070136 0.000012
v -0.031830 0.006097 0.039646
v -0.068404 0.018833 0.046659
v -0.033117 0.001314 -0.000000
v -0.073313 0.012658 0.000000
v -0.106552 0.039230 0.000000
v -0.033458 -0.001115 -0.000000
v -0.074455 0.010488 0.000000
v -0.108369 0.037584 0.000000
v -0.037585 0.062840 -0.071958
v -0.005800 0.017938 -0.058128
v -0.012602 0.004708 0.012435
v -0.071881 0.060718 -0.034199
v 0.012065 0.003912 -0.012194
v -0.055046 0.089383 -0.055059
v -0.036906 0.005872 0.003610
v -0.064929 0.027355 -0.013286
v -0.043203 0.023713 -0.043203
v -0.020890 0.003410 -0.020890
v -0.044295 0.022267 -0.044295
v -0.056870 0.056735 -0.056870
v 0.009452 0.003700 -0.013893
v 0.009452 0.039452 -0.013893
v 0.009452 0.003700 -0.015786
v 0.009452 0.039452 -0.015786
v 0.011345 0.003700 -0.013893
v 0.011345 0.039452 -0.013893
v 0.011345 0.003700 -0.015786
v 0.011345 0.039452 -0.015786
v 0.007091 0.039461 -0.011532
v 0.007091 0.046076 -0.011532
v 0.007091 0.039461 -0.018147
v 0.007091 0.046076 -0.018147
v 0.013706 0.039461 -0.011532
v 0.013706 0.046076 -0.011532
v 0.013706 0.039461 -0.018147
v 0.013706 0.046076 -0.018147
v -0.001258 0.003700 0.001258
v -0.001258 0.051232 0.001258
v -0.001258 0.003700 -0.001258
v -0.001258 0.051232 -0.001258
v 0.001258 0.003700 0.001258
v 0.001258 0.051232 0.001258
v 0.001258 0.003700 -0.001258
v 0.001258 0.051232 -0.001258
v -0.004397 0.051243 0.004398
v -0.004397 0.060038 0.004398
v -0.004397 0.051243 -0.004397
v -0.004397 0.060038 -0.004397
v 0.004398 0.051243 0.004398
v 0.004398 0.060038 0.004398
v 0.004398 0.051243 -0.004397
v 0.004398 0.060038 -0.004397
v -0.018929 0.003700 -0.008465
v -0.018929 0.039452 -0.008465
v -0.018929 0.003700 -0.010358
v -0.018929 0.039452 -0.010358
v -0.017036 0.003700 -0.008465
v -0.017036 0.039452 -0.008465
v -0.017036 0.003700 -0.010358
v -0.017036 0.039452 -0.010358
v -0.021290 0.039461 -0.006104
v -0.021290 0.046076 -0.006104
v -0.021290 0.039461 -0.012719
v -0.021290 0.046076 -0.012719
v -0.014675 0.039461 -0.006104
v -0.014675 0.046076 -0.006104
v -0.014675 0.039461 -0.012719
v -0.014675 0.046076 -0.012719
v 0.015542 0.003700 0.011435
v 0.015542 0.039452 0.011435
v 0.015542 0.003700 0.009542
v 0.015542 0.039452 0.009542
v 0.017435 0.003700 0.011435
v 0.017435 0.039452 0.011435
v 0.017435 0.003700 0.009542
v 0.017435 0.039452 0.009542
v 0.013181 0.039461 0.013796
v 0.013181 0.046076 0.013796
v 0.013181 0.039461 0.007180
v 0.013181 0.046076 0.007180
v 0.019796 0.039461 0.013796
v 0.019796 0.046076 0.013796
v 0.019796 0.039461 0.007180
v 0.019796 0.046076 0.007180
v -0.006303 0.003700 0.019555
v -0.006303 0.040777 0.019555
v -0.006303 0.003700 0.017591
v -0.006303 0.040777 0.017592
v -0.004340 0.003700 0.019555
v -0.004340 0.040777 0.019555
v -0.004340 0.003700 0.017591
v -0.004340 0.040777 0.017592
v -0.008752 0.040786 0.022003
v -0.008752 0.047647 0.022003
v -0.008752 0.040786 0.015143
v -0.008752 0.047647 0.015143
v -0.001891 0.040786 0.022003
v -0.001891 0.047647 0.022003
v -0.001891 0.040786 0.015143
v -0.001891 0.047647 0.015143
v -0.034051 0.044702 0.105199
v -0.039652 0.006096 0.031821
v -0.046634 0.018823 0.068400
v 0.022591 0.003039 0.000071
v 0.034055 0.044667 0.105160
v -0.021904 0.002109 -0.000032
v 0.000012 0.070136 0.126782
v 0.039646 0.006097 0.031830
v 0.046659 0.018833 0.068404
v 0.000000 0.001314 0.033117
v 0.000000 0.012658 0.073313
v 0.000000 0.039230 0.106552
v 0.000000 -0.001115 0.033458
v 0.000000 0.010488 0.074455
v 0.000000 0.037584 0.108369
v 0.105199 0.044702 0.034051
v 0.031821 0.006096 0.039652
v 0.068400 0.018823 0.046634
v 0.000071 0.003039 -0.022591
v 0.105160 0.044667 -0.034055
v -0.000032 0.002109 0.021904
v 0.126782 0.070136 -0.000012
v 0.031830 0.006097 -0.039646
v 0.068404 0.018833 -0.046659
v 0.033117 0.001314 -0.000000
v 0.073313 0.012658 0.000000
v 0.106552 0.039230 0.000000
v 0.033458 -0.001115 -0.000000
v 0.074455 0.010488 0.000000
v 0.108369 0.037584 0.000000
v 0.034051 0.044703 -0.105199
v 0.039652 0.006096 -0.031821
v 0.046634 0.018823 -0.068400
v -0.022591 0.003039 -0.000071
v -0.034055 0.044667 -0.105160
v 0.021904 0.002109 0.000032
v -0.000012 0.070136 -0.126782
v -0.039646 0.006097 -0.031830
v -0.046659 0.018833 -0.068404
v 0.000000 0.001314 -0.033117
v 0.000000 0.012658 -0.073313
v 0.000000 0.039231 -0.106552
v 0.000000 -0.001115 -0.033458
v 0.000000 0.010488 -0.074455
v 0.000000 0.037584 -0.108369
v 0.071958 0.062840 -0.037585
v 0.058128 0.017938 -0.005800
v -0.012435 0.004708 -0.012602
v 0.034199 0.060718 -0.071881
v 0.012194 0.003912 0.012065
v 0.055059 0.089383 -0.055046
v -0.003610 0.005872 -0.036906
v 0.013286 0.027355 -0.064929
v 0.043203 0.023713 -0.043203
v 0.020890 0.003410 -0.020890
v 0.044295 0.022267 -0.044295
v 0.056870 0.056735 -0.056870
v -0.071958 0.062840 0.037585
v -0.058128 0.017938 0.005800
v 0.012435 0.004708 0.012602
v -0.034199 0.060718 0.071881
v -0.012194 0.003912 -0.012065
v -0.055059 0.089382 0.055047
v 0.003610 0.005872 0.036906
v -0.013286 0.027355 0.064929
v -0.043203 0.023713 0.043203
v -0.020890 0.003410 0.020890
v -0.044295 0.022267 0.044295
v -0.056870 0.056735 0.056870
v 0.037585 0.062840 0.071958
v 0.005800 0.017938 0.058128
v 0.012602 0.004708 -0.012435
v 0.071881 0.060718 0.034199
v -0.012065 0.003912 0.012194
v 0.055046 0.089382 0.055059
v 0.036906 0.005872 -0.003610
v 0.064929 0.027355 0.013286
v 0.043203 0.023713 0.043203
v 0.020890 0.003410 0.020890
v 0.044295 0.022267 0.044295
v 0.056870 0.056735 0.056870
vt 0.401624 0.500977
vt 0.401035 0.455166
vt 0.401071 0.454097
vt 0.401624 0.500977
vt 0.403303 0.455971
vt 0.403966 0.500977
vt 0.402796 0.471159
vt 0.403934 0.437080
vt 0.402795 0.405131
vt 0.402795 0.405131
vt 0.240378 0.898854
vt 0.260656 0.931338
vt 0.240378 0.929376
vt 0.264119 0.868903
vt 0.240378 0.868903
vt 0.240378 0.956306
vt 0.260656 0.931338
vt 0.268223 0.897588
vt 0.253859 0.844825
vt 0.253394 0.844825
vt 0.264119 0.868903
vt 0.240378 0.898854
vt 0.268223 0.897588
vt 0.240378 0.868903
vt 0.240378 0.929376
vt 0.266592 0.886189
vt 0.240378 0.898854
vt 0.262095 0.868903
vt 0.260656 0.931338
vt 0.268223 0.897588
vt 0.253859 0.844825
vt 0.253404 0.844825
vt 0.258896 0.931168
vt 0.240378 0.956306
vt 0.240378 0.898854
vt 0.240378 0.868903
vt 0.240378 0.929376
vt 0.485788 0.837411
vt 0.485788 0.938938
vt 0.485788 0.938938
vt 0.485788 0.837411
vt 0.489313 0.938938
vt 0.489313 0.837411
vt 0.489313 0.938938
vt 0.489313 0.837411
vt 0.646652 0.240236
vt 0.646652 0.256053
vt 0.646652 0.256053
vt 0.646652 0.240236
vt 0.662470 0.256053
vt 0.662470 0.240236
vt 0.662470 0.256053
vt 0.662470 0.240236
vt 0.485788 0.837411
vt 0.485788 0.938938
vt 0.485788 0.938938
vt 0.485788 0.837411
vt 0.489313 0.938938
vt 0.489313 0.837411
vt 0.489313 0.938938
vt 0.489313 0.837411
vt 0.646652 0.240236
vt 0.646652 0.256053
vt 0.646652 0.256053
vt 0.646652 0.240236
vt 0.662470 0.256053
vt 0.662470 0.240236
vt 0.662470 0.256053
vt 0.662470 0.240236
vt 0.485788 0.837411
vt 0.485788 0.938938
vt 0.485788 0.938938
vt 0.485788 0.837411
vt 0.489313 0.938938
vt 0.489313 0.837411
vt 0.489313 0.938938
vt 0.489313 0.837411
vt 0.646652 0.240236
vt 0.646652 0.256053
vt 0.646652 0.256053
vt 0.646652 0.240236
vt 0.662470 0.256053
vt 0.662470 0.240236
vt 0.662470 0.256053
vt 0.662470 0.240236
vt 0.485788 0.837411
vt 0.485788 0.938938
vt 0.485788 0.938938
vt 0.485788 0.837411
vt 0.489313 0.938938
vt 0.489313 0.837411
vt 0.489313 0.938938
vt 0.489313 0.837411
vt 0.646652 0.240236
vt 0.646652 0.256053
vt 0.646652 0.256053
vt 0.646652 0.240236
vt 0.662470 0.256053
vt 0.662470 0.240236
vt 0.662470 0.256053
vt 0.662470 0.240236
vt 0.485788 0.837411
vt 0.485788 0.938938
vt 0.485788 0.938938
vt 0.485788 0.837411
vt 0.489313 0.938938
vt 0.489313 0.837411
vt 0.489313 0.938938
vt 0.489313 0.837411
vt 0.646652 0.240236
vt 0.646652 0.256053
vt 0.646652 0.256053
vt 0.646652 0.240236
vt 0.662470 0.256053
vt 0.662470 0.240236
vt 0.662470 0.256053
vt 0.662470 0.240236
vt 0.240378 0.898854
vt 0.260656 0.931338
vt 0.240378 0.929376
vt 0.264119 0.868903
vt 0.240378 0.868903
vt 0.240378 0.956306
vt 0.260656 0.931338
vt 0.268223 0.897588
vt 0.253859 0.844825
vt 0.253394 0.844825
vt 0.264119 0.868903
vt 0.240378 0.898854
vt 0.268223 0.897588
vt 0.240378 0.868903
vt 0.240378 0.929376
vt 0.240378 0.898854
vt 0.260656 0.931338
vt 0.240378 0.929376
vt 0.264119 0.868903
vt 0.240378 0.868903
vt 0.240378 0.956306
vt 0.260656 0.931338
vt 0.268223 0.897588
vt 0.253859 0.844825
vt 0.253394 0.844825
vt 0.264119 0.868903
vt 0.240378 0.898854
vt 0.268223 0.897588
vt 0.240378 0.868903
vt 0.240378 0.929376
vt 0.240378 0.898854
vt 0.260656 0.931338
vt 0.240378 0.929376
vt 0.264119 0.868903
vt 0.240378 0.868903
vt 0.240378 0.956306
vt 0.260656 0.931338
vt 0.268223 0.897588
vt 0.253859 0.844825
vt 0.253394 0.844825
vt 0.264119 0.868903
vt 0.240378 0.898854
vt 0.268223 0.897588
vt 0.240378 0.868903
vt 0.240378 0.929376
vt 0.266592 0.886189
vt 0.240378 0.898854
vt 0.262095 0.868903
vt 0.260656 0.931338
vt 0.268223 0.897588
vt 0.253859 0.844825
vt 0.253404 0.844825
vt 0.258896 0.931168
vt 0.240378 0.956306
vt 0.240378 0.898854
vt 0.240378 0.868903
vt 0.240378 0.929376
vt 0.266592 0.886189
vt 0.240378 0.898854
vt 0.262095 0.868903
vt 0.260656 0.931338
vt 0.268223 0.897588
vt 0.253859 0.844825
vt 0.253404 0.844825
vt 0.258896 0.931168
vt 0.240378 0.956306
vt 0.240378 0.898854
vt 0.240378 0.868903
vt 0.240378 0.929376
vt 0.266592 0.886189
vt 0.240378 0.898854
vt 0.262095 0.868903
vt 0.260656 0.931338
vt 0.268223 0.897588
vt 0.253859 0.844825
vt 0.253404 0.844825
vt 0.258896 0.931168
vt 0.240378 0.956306
vt 0.240378 0.898854
vt 0.240378 0.868903
vt 0.240378 0.929376
vn -0.9998 0.0188 0.0045
vn -0.9930 -0.0078 0.1182
vn -0.9933 -0.0205 0.1133
vn 0.4366 0.0259 -0.8993
vn 0.1268 0.0049 -0.9919
vn 0.1224 -0.0010 -0.9925
vn 0.9591 -0.0267 0.2818
vn 0.9635 -0.0237 0.2665
vn 0.9988 0.0304 -0.0374
vn -0.2634 -0.0123 0.9646
vn -0.2727 -0.0112 0.9620
vn -0.0435 -0.0320 0.9985
vn 0.2726 0.0206 0.9619
vn 0.9992 -0.0350 -0.0173
vn 0.8771 -0.0115 -0.4802
vn 0.9994 -0.0356 0.0000
vn -0.9994 -0.0356 0.0034
vn -0.9994 -0.0355 0.0000
vn -0.9998 0.0191 0.0000
vn 0.4471 0.0262 -0.8941
vn 0.4472 0.0171 0.8943
vn 0.0002 1.0000 0.0000
vn 0.2868 0.0231 0.9577
vn 0.1260 -0.0122 -0.9920
vn 0.4635 0.8861 -0.0000
vn 0.6914 0.7073 0.1473
vn 0.7338 0.6794 -0.0000
vn 0.1988 0.9708 0.1345
vn 0.1444 0.9895 -0.0036
vn 0.8367 0.5477 -0.0002
vn 0.6913 0.7074 -0.1475
vn 0.4493 0.8783 -0.1635
vn -0.0015 0.9973 -0.0740
vn 0.0119 0.9985 0.0543
vn 0.1884 0.9729 -0.1344
vn -0.4653 -0.8851 -0.0000
vn -0.7024 -0.6809 -0.2075
vn -0.4466 -0.8689 -0.2133
vn -0.1819 -0.9647 -0.1905
vn -0.1213 -0.9926 0.0034
vn -0.7538 -0.6570 0.0000
vn -0.8704 -0.4923 0.0002
vn -0.7022 -0.6810 0.2076
vn 0.0524 -0.9931 0.1051
vn 0.0401 -0.9956 -0.0852
vn -0.1718 -0.9666 0.1904
vn 0.4493 0.8783 0.1634
vn -0.4466 -0.8689 0.2133
vn 0.2817 0.8212 0.4962
vn 0.5077 0.6823 0.5260
vn 0.2421 0.9464 0.2138
vn 0.7291 0.3127 0.6088
vn 0.6319 0.6775 0.3764
vn 0.0437 0.9990 0.0115
vn 0.1011 0.9761 0.1922
vn 0.6303 0.3172 0.7086
vn 0.7375 0.0567 0.6730
vn -0.5184 -0.6730 -0.5276
vn -0.5154 -0.2647 -0.8151
vn -0.2049 -0.7880 -0.5806
vn -0.1672 -0.9632 -0.2105
vn -0.7065 -0.2235 -0.6715
vn -0.7361 0.0784 -0.6723
vn -0.8230 -0.2695 -0.5001
vn -0.0305 -0.9985 0.0465
vn 0.0521 -0.9887 -0.1406
vn -0.3126 -0.9450 -0.0960
vn -0.6648 -0.6689 -0.3326
vn -1.0000 0.0000 0.0000
vn 0.0000 0.0000 -1.0000
vn 1.0000 -0.0000 0.0000
vn 0.0000 -0.0000 1.0000
vn 0.0000 -1.0000 -0.0000
vn 0.0000 1.0000 0.0000
vn -0.0000 0.8861 -0.4635
vn 0.1473 0.7073 -0.6914
vn -0.0000 0.6794 -0.7338
vn 0.1345 0.9708 -0.1988
vn -0.0036 0.9895 -0.1444
vn -0.0002 0.5477 -0.8367
vn -0.1475 0.7074 -0.6913
vn -0.1635 0.8783 -0.4493
vn -0.0740 0.9973 0.0015
vn 0.0543 0.9985 -0.0119
vn -0.1344 0.9729 -0.1884
vn -0.0000 -0.8851 0.4653
vn -0.2075 -0.6809 0.7024
vn -0.2133 -0.8689 0.4466
vn -0.1905 -0.9647 0.1819
vn 0.0034 -0.9926 0.1213
vn 0.0000 -0.6570 0.7538
vn 0.0002 -0.4923 0.8704
vn 0.2076 -0.6810 0.7022
vn 0.1051 -0.9931 -0.0524
vn -0.0852 -0.9956 -0.0401
vn 0.1904 -0.9666 0.1718
vn 0.1634 0.8783 -0.4493
vn 0.2133 -0.8689 0.4466
vn -0.4635 0.8861 0.0000
vn -0.6914 0.7073 -0.1473
vn -0.7338 0.6794 0.0000
vn -0.1988 0.9708 -0.1345
vn -0.1444 0.9895 0.0036
vn -0.8367 0.5477 0.0002
vn -0.6913 0.7074 0.1475
vn -0.4493 0.8783 0.1635
vn 0.0015 0.9973 0.0740
vn -0.0119 0.9985 -0.0543
vn -0.1884 0.9729 0.1344
vn 0.4653 -0.8851 0.0000
vn 0.7024 -0.6809 0.2075
vn 0.4466 -0.8689 0.2133
vn 0.1819 -0.9647 0.1905
vn 0.1213 -0.9926 -0.0034
vn 0.7539 -0.6570 -0.0000
vn 0.8704 -0.4923 -0.0002
vn 0.7022 -0.6810 -0.2076
vn -0.0524 -0.9931 -0.1051
vn -0.0401 -0.9956 0.0852
vn 0.1718 -0.9666 -0.1904
vn -0.4493 0.8783 -0.1634
vn 0.4466 -0.8689 -0.2133
vn 0.0000 0.8861 0.4635
vn -0.1473 0.7073 0.6914
vn 0.0000 0.6794 0.7338
vn -0.1345 0.9708 0.1988
vn 0.0036 0.9895 0.1444
vn 0.0002 0.5477 0.8367
vn 0.1475 0.7074 0.6913
vn 0.1635 0.8783 0.4493
vn 0.0740 0.9973 -0.0015
vn -0.0543 0.9985 0.0119
vn 0.1344 0.9729 0.1884
vn 0.0000 -0.8851 -0.4653
vn 0.2075 -0.6809 -0.7024
vn 0.2133 -0.8689 -0.4466
vn 0.1905 -0.9647 -0.1819
vn -0.0034 -0.9926 -0.1213
vn -0.0000 -0.6570 -0.7539
vn -0.0002 -0.4923 -0.8704
vn -0.2076 -0.6810 -0.7022
vn -0.1051 -0.9931 0.0524
vn 0.0852 -0.9956 0.0401
vn -0.1904 -0.9666 -0.1718
vn -0.1634 0.8783 0.4493
vn -0.2133 -0.8689 -0.4466
vn -0.4962 0.8212 0.2817
vn -0.5260 0.6823 0.5077
vn -0.2138 0.9464 0.2421
vn -0.6088 0.3127 0.7291
vn -0.3764 0.6775 0.6319
vn -0.0115 0.9990 0.0437
vn -0.1922 0.9761 0.1011
vn -0.7086 0.3172 0.6303
vn -0.6730 0.0567 0.7375
vn 0.5276 -0.6730 -0.5184
vn 0.8151 -0.2647 -0.5154
vn 0.5806 -0.7880 -0.2049
vn 0.2105 -0.9632 -0.1672
vn 0.6715 -0.2235 -0.7065
vn 0.6723 0.0784 -0.7361
vn 0.5001 -0.2695 -0.8230
vn -0.0465 -0.9985 -0.0305
vn 0.1406 -0.9887 0.0521
vn 0.0960 -0.9450 -0.3126
vn 0.3326 -0.6689 -0.6648
vn 0.4962 0.8212 -0.2817
vn 0.5260 0.6823 -0.5077
vn 0.2138 0.9464 -0.2421
vn 0.6088 0.3127 -0.7291
vn 0.3764 0.6775 -0.6319
vn 0.0115 0.9990 -0.0437
vn 0.1922 0.9761 -0.1011
vn 0.7086 0.3172 -0.6303
vn 0.6730 0.0567 -0.7375
vn -0.5276 -0.6730 0.5184
vn -0.8151 -0.2647 0.5154
vn -0.5806 -0.7880 0.2049
vn -0.2105 -0.9632 0.1672
vn -0.6715 -0.2235 0.7065
vn -0.6723 0.0784 0.7361
vn -0.5001 -0.2695 0.8230
vn 0.0465 -0.9985 0.0305
vn -0.1406 -0.9887 -0.0521
vn -0.0960 -0.9450 0.3126
vn -0.3326 -0.6689 0.6648
vn -0.2817 0.8212 -0.4962
vn -0.5077 0.6823 -0.5260
vn -0.2421 0.9464 -0.2138
vn -0.7291 0.3127 -0.6088
vn -0.6319 0.6775 -0.3764
vn -0.0437 0.9990 -0.0115
vn -0.1011 0.9761 -0.1922
vn -0.6303 0.3172 -0.7086
vn -0.7375 0.0567 -0.6730
vn 0.5184 -0.6730 0.5276
vn 0.5154 -0.2647 0.8151
vn 0.2049 -0.7880 0.5806
vn 0.1672 -0.9632 0.2105
vn 0.7065 -0.2235 0.6715
vn 0.7361 0.0784 0.6723
vn 0.8230 -0.2695 0.5001
vn 0.0305 -0.9985 -0.0465
vn -0.0521 -0.9887 0.1406
vn 0.3126 -0.9450 0.0960
vn 0.6648 -0.6689 0.3326
usemtl TropicalEnvironment_01.003
s 1
f 2/1/1 7/2/2 6/3/3
f 3/4/4 8/5/5 7/2/6
f 5/6/7 9/7/8 8/5/9
f 9/7/10 2/1/11 6/3/12
f 9/7/10 6/3/12 10/8/13
f 4/9/14 10/8/15 1/10/16
f 6/3/3 4/9/17 1/10/18
f 2/1/1 3/4/19 7/2/2
f 3/4/4 5/6/20 8/5/5
f 9/7/21 5/6/21 2/1/21
f 3/4/22 2/1/22 5/6/22
f 10/8/13 6/3/12 1/10/23
f 4/9/14 8/5/9 10/8/15
f 8/5/9 9/7/8 10/8/15
f 7/2/6 8/5/5 4/9/24
f 6/3/3 7/2/2 4/9/17
f 21/11/25 11/12/26 22/13/27
f 12/14/28 21/11/25 20/15/29
f 22/13/27 11/12/26 17/16/30
f 21/11/25 15/17/31 19/18/32
f 20/15/29 14/19/33 16/20/34
f 21/11/25 18/21/35 20/15/29
f 22/13/27 17/16/30 15/17/31
f 24/22/36 11/12/37 13/23/38
f 24/22/36 12/14/39 23/24/40
f 25/25/41 17/16/42 11/12/37
f 24/22/36 15/17/43 25/25/41
f 14/19/44 23/24/40 16/20/45
f 18/21/46 24/22/36 23/24/40
f 25/25/41 15/17/43 17/16/42
f 21/11/25 13/23/47 11/12/26
f 16/20/34 12/14/28 20/15/29
f 12/14/28 13/23/47 21/11/25
f 21/11/25 22/13/27 15/17/31
f 20/15/29 18/21/35 14/19/33
f 21/11/25 19/18/32 18/21/35
f 24/22/36 25/25/41 11/12/37
f 23/24/40 12/14/39 16/20/45
f 24/22/36 13/23/38 12/14/39
f 24/22/36 19/18/48 15/17/43
f 14/19/44 18/21/46 23/24/40
f 18/21/46 19/18/48 24/22/36
f 27/26/49 34/27/50 32/28/51
f 34/27/50 29/29/52 33/30/53
f 32/28/51 28/31/54 30/32/55
f 26/33/56 31/34/57 29/29/52
f 36/35/58 26/33/59 27/26/60
f 36/35/58 27/26/60 35/36/61
f 37/37/62 31/34/63 26/33/59
f 36/35/58 29/29/64 37/37/62
f 28/31/65 35/36/61 30/32/66
f 32/28/67 36/35/58 35/36/61
f 37/37/62 29/29/64 31/34/63
f 34/27/50 27/26/49 26/33/56
f 30/32/55 27/26/49 32/28/51
f 34/27/50 26/33/56 29/29/52
f 34/27/50 33/30/53 32/28/51
f 36/35/58 37/37/62 26/33/59
f 35/36/61 27/26/60 30/32/66
f 36/35/58 33/30/68 29/29/64
f 28/31/65 32/28/67 35/36/61
f 32/28/67 33/30/68 36/35/58
f 38/38/69 39/39/69 41/40/69 40/41/69
f 40/41/70 41/40/70 45/42/70 44/43/70
f 44/43/71 45/42/71 43/44/71 42/45/71
f 42/45/72 43/44/72 39/39/72 38/38/72
f 40/41/73 44/43/73 42/45/73 38/38/73
f 45/42/74 41/40/74 39/39/74 43/44/74
f 46/46/69 47/47/69 49/48/69 48/49/69
f 48/49/70 49/48/70 53/50/70 52/51/70
f 52/51/71 53/50/71 51/52/71 50/53/71
f 50/53/72 51/52/72 47/47/72 46/46/72
f 48/49/73 52/51/73 50/53/73 46/46/73
f 53/50/74 49/48/74 47/47/74 51/52/74
f 54/54/69 55/55/69 57/56/69 56/57/69
f 56/57/70 57/56/70 61/58/70 60/59/70
f 60/59/71 61/58/71 59/60/71 58/61/71
f 58/61/72 59/60/72 55/55/72 54/54/72
f 56/57/73 60/59/73 58/61/73 54/54/73
f 61/58/74 57/56/74 55/55/74 59/60/74
f 62/62/69 63/63/69 65/64/69 64/65/69
f 64/65/70 65/64/70 69/66/70 68/67/70
f 68/67/71 69/66/71 67/68/71 66/69/71
f 66/69/72 67/68/72 63/63/72 62/62/72
f 64/65/73 68/67/73 66/69/73 62/62/73
f 69/66/74 65/64/74 63/63/74 67/68/74
f 70/70/69 71/71/69 73/72/69 72/73/69
f 72/73/70 73/72/70 77/74/70 76/75/70
f 76/75/71 77/74/71 75/76/71 74/77/71
f 74/77/72 75/76/72 71/71/72 70/70/72
f 72/73/73 76/75/73 74/77/73 70/70/73
f 77/74/74 73/72/74 71/71/74 75/76/74
f 78/78/69 79/79/69 81/80/69 80/81/69
f 80/81/70 81/80/70 85/82/70 84/83/70
f 84/83/71 85/82/71 83/84/71 82/85/71
f 82/85/72 83/84/72 79/79/72 78/78/72
f 80/81/73 84/83/73 82/85/73 78/78/73
f 85/82/74 81/80/74 79/79/74 83/84/74
f 86/86/69 87/87/69 89/88/69 88/89/69
f 88/89/70 89/88/70 93/90/70 92/91/70
f 92/91/71 93/90/71 91/92/71 90/93/71
f 90/93/72 91/92/72 87/87/72 86/86/72
f 88/89/73 92/91/73 90/93/73 86/86/73
f 93/90/74 89/88/74 87/87/74 91/92/74
f 94/94/69 95/95/69 97/96/69 96/97/69
f 96/97/70 97/96/70 101/98/70 100/99/70
f 100/99/71 101/98/71 99/100/71 98/101/71
f 98/101/72 99/100/72 95/95/72 94/94/72
f 96/97/73 100/99/73 98/101/73 94/94/73
f 101/98/74 97/96/74 95/95/74 99/100/74
f 102/102/69 103/103/69 105/104/69 104/105/69
f 104/105/70 105/104/70 109/106/70 108/107/70
f 108/107/71 109/106/71 107/108/71 106/109/71
f 106/109/72 107/108/72 103/103/72 102/102/72
f 104/105/73 108/107/73 106/109/73 102/102/73
f 109/106/74 105/104/74 103/103/74 107/108/74
f 110/110/69 111/111/69 113/112/69 112/113/69
f 112/113/70 113/112/70 117/114/70 116/115/70
f 116/115/71 117/114/71 115/116/71 114/117/71
f 114/117/72 115/116/72 111/111/72 110/110/72
f 112/113/73 116/115/73 114/117/73 110/110/73
f 117/114/74 113/112/74 111/111/74 115/116/74
f 128/118/75 118/119/76 129/120/77
f 119/121/78 128/118/75 127/122/79
f 129/120/77 118/119/76 124/123/80
f 128/118/75 122/124/81 126/125/82
f 127/122/79 121/126/83 123/127/84
f 128/118/75 125/128/85 127/122/79
f 129/120/77 124/123/80 122/124/81
f 131/129/86 118/119/87 120/130/88
f 131/129/86 119/121/89 130/131/90
f 132/132/91 124/123/92 118/119/87
f 131/129/86 122/124/93 132/132/91
f 121/126/94 130/131/90 123/127/95
f 125/128/96 131/129/86 130/131/90
f 132/132/91 122/124/93 124/123/92
f 128/118/75 120/130/97 118/119/76
f 123/127/84 119/121/78 127/122/79
f 119/121/78 120/130/97 128/118/75
f 128/118/75 129/120/77 122/124/81
f 127/122/79 125/128/85 121/126/83
f 128/118/75 126/125/82 125/128/85
f 131/129/86 132/132/91 118/119/87
f 130/131/90 119/121/89 123/127/95
f 131/129/86 120/130/88 119/121/89
f 131/129/86 126/125/98 122/124/93
f 121/126/94 125/128/96 130/131/90
f 125/128/96 126/125/98 131/129/86
f 143/133/99 133/134/100 144/135/101
f 134/136/102 143/133/99 142/137/103
f 144/135/101 133/134/100 139/138/104
f 143/133/99 137/139/105 141/140/106
f 142/137/103 136/141/107 138/142/108
f 143/133/99 140/143/109 142/137/103
f 144/135/101 139/138/104 137/139/105
f 146/144/110 133/134/111 135/145/112
f 146/144/110 134/136/113 145/146/114
f 147/147/115 139/138/116 133/134/111
f 146/144/110 137/139/117 147/147/115
f 136/141/118 145/146/114 138/142/119
f 140/143/120 146/144/110 145/146/114
f 147/147/115 137/139/117 139/138/116
f 143/133/99 135/145/121 133/134/100
f 138/142/108 134/136/102 142/137/103
f 134/136/102 135/145/121 143/133/99
f 143/133/99 144/135/101 137/139/105
f 142/137/103 140/143/109 136/141/107
f 143/133/99 141/140/106 140/143/109
f 146/144/110 147/147/115 133/134/111
f 145/146/114 134/136/113 138/142/119
f 146/144/110 135/145/112 134/136/113
f 146/144/110 141/140/122 137/139/117
f 136/141/118 140/143/120 145/146/114
f 140/143/120 141/140/122 146/144/110
f 158/148/123 148/149/124 159/150/125
f 149/151/126 158/148/123 157/152/127
f 159/150/125 148/149/124 154/153/128
f 158/148/123 152/154/129 156/155/130
f 157/152/127 151/156/131 153/157/132
f 158/148/123 155/158/133 157/152/127
f 159/150/125 154/153/128 152/154/129
f 161/159/134 148/149/135 150/160/136
f 161/159/134 149/151/137 160/161/138
f 162/162/139 154/153/140 148/149/135
f 161/159/134 152/154/141 162/162/139
f 151/156/142 160/161/138 153/157/143
f 155/158/144 161/159/134 160/161/138
f 162/162/139 152/154/141 154/153/140
f 158/148/123 150/160/145 148/149/124
f 153/157/132 149/151/126 157/152/127
f 149/151/126 150/160/145 158/148/123
f 158/148/123 159/150/125 152/154/129
f 157/152/127 155/158/133 151/156/131
f 158/148/123 156/155/130 155/158/133
f 161/159/134 162/162/139 148/149/135
f 160/161/138 149/151/137 153/157/143
f 161/159/134 150/160/136 149/151/137
f 161/159/134 156/155/146 152/154/141
f 151/156/142 155/158/144 160/161/138
f 155/158/144 156/155/146 161/159/134
f 164/163/147 171/164/148 169/165/149
f 171/164/148 166/166/150 170/167/151
f 169/165/149 165/168/152 167/169/153
f 163/170/154 168/171/155 166/166/150
f 173/172/156 163/170/157 164/163/158
f 173/172/156 164/163/158 172/173/159
f 174/174/160 168/171/161 163/170/157
f 173/172/156 166/166/162 174/174/160
f 165/168/163 172/173/159 167/169/164
f 169/165/165 173/172/156 172/173/159
f 174/174/160 166/166/162 168/171/161
f 171/164/148 164/163/147 163/170/154
f 167/169/153 164/163/147 169/165/149
f 171/164/148 163/170/154 166/166/150
f 171/164/148 170/167/151 169/165/149
f 173/172/156 174/174/160 163/170/157
f 172/173/159 164/163/158 167/169/164
f 173/172/156 170/167/166 166/166/162
f 165/168/163 169/165/165 172/173/159
f 169/165/165 170/167/166 173/172/156
f 176/175/167 183/176/168 181/177/169
f 183/176/168 178/178/170 182/179/171
f 181/177/169 177/180/172 179/181/173
f 175/182/174 180/183/175 178/178/170
f 185/184/176 175/182/177 176/175/178
f 185/184/176 176/175/178 184/185/179
f 186/186/180 180/183/181 175/182/177
f 185/184/176 178/178/182 186/186/180
f 177/180/183 184/185/179 179/181/184
f 181/177/185 185/184/176 184/185/179
f 186/186/180 178/178/182 180/183/181
f 183/176/168 176/175/167 175/182/174
f 179/181/173 176/175/167 181/177/169
f 183/176/168 175/182/174 178/178/170
f 183/176/168 182/179/171 181/177/169
f 185/184/176 186/186/180 175/182/177
f 184/185/179 176/175/178 179/181/184
f 185/184/176 182/179/186 178/178/182
f 177/180/183 181/177/185 184/185/179
f 181/177/185 182/179/186 185/184/176
f 188/187/187 195/188/188 193/189/189
f 195/188/188 190/190/190 194/191/191
f 193/189/189 189/192/192 191/193/193
f 187/194/194 192/195/195 190/190/190
f 197/196/196 187/194/197 188/187/198
f 197/196/196 188/187/198 196/197/199
f 198/198/200 192/195/201 187/194/197
f 197/196/196 190/190/202 198/198/200
f 189/192/203 196/197/199 191/193/204
f 193/189/205 197/196/196 196/197/199
f 198/198/200 190/190/202 192/195/201
f 195/188/188 188/187/187 187/194/194
f 191/193/193 188/187/187 193/189/189
f 195/188/188 187/194/194 190/190/190
f 195/188/188 194/191/191 193/189/189
f 197/196/196 198/198/200 187/194/197
f 196/197/199 188/187/198 191/193/204
f 197/196/196 194/191/206 190/190/202
f 189/192/203 193/189/205 196/197/199
f 193/189/205 194/191/206 197/196/196
