# Wavefront OBJ file
# Exported by Misfit Model 3D 1.3.8
# Tue Nov 17 20:05:24 2020

# 35 Vertices
v 0.606816 0.272929 -0.267151
v -0.585578 0.22409 -0.23133
v -1.19067 0.030543 -0.166253
v 0.60386 0.086017 -0.159278
v -0.596073 0.036802 0.091961
v 0.597947 0.086017 0.056468
v -0.596301 0.223511 0.201323
v 0.594991 0.272929 0.164341
v -0.594776 0.410623 0.094947
v 0.597946 0.459841 0.056468
v -0.588864 0.410623 -0.1208
v 0.603859 0.459841 -0.159278
v 1.285521 0.220145 -0.194831
v 1.282158 0.054857 -0.092673
v 1.279879 0.06251 0.094048
v 1.26342 0.222771 0.199599
v 1.304172 0.348624 0.073686
v 1.241109 0.415222 0.104957
v 1.270348 0.403876 -0.10345
v -1.196297 0.223957 -0.277707
v -1.299374 0.175201 -0.156446
v -1.205164 0.037046 0.045912
v -1.208122 0.223957 0.153785
v -1.305732 0.16955 0.022535
v -1.205165 0.410869 0.045912
v -1.199253 0.410869 -0.169834
v -1.30411 0.323473 -0.085092
v -0.782789 0.410747 -0.142268
v -0.788701 0.410747 0.073479
v -0.639405 0.580857 -0.071494
v -0.642317 0.580857 0.034754
v -0.734906 0.580917 -0.082066
v -0.737818 0.580917 0.024182
v -0.665071 0.705912 -0.114232
v -0.707341 0.703619 -0.117396

# 198 Texture Coordinates
vt 0.446414 0.671068
vt 0.513832 0.670519
vt 0.513876 0.740391
vt 0.758944 0.674982
vt 0.702897 0.736318
vt 0.681209 0.674982
vt 0.257908 0.006465
vt 0.305089 0.24554
vt 0.237744 0.246605
vt 0.642928 0.243269
vt 0.700547 0.000998
vt 0.720662 0.241139
vt 0.46422 0.241838
vt 0.515488 0.009037
vt 0.531565 0.240773
vt 0.396874 0.240772
vt 0.446147 0.000998
vt 0.46422 0.241838
vt 0.86887 0.320239
vt 0.823524 0.365606
vt 0.765781 0.327575
vt 0.305089 0.24554
vt 0.255477 0.676351
vt 0.237744 0.246605
vt 0.642928 0.243269
vt 0.706798 0.670884
vt 0.629063 0.673015
vt 0.46422 0.241838
vt 0.513832 0.670519
vt 0.446414 0.671068
vt 0.091528 0.248735
vt 0.143721 0.679031
vt 0.104317 0.678949
vt 0.091528 0.248735
vt 0.01128 0.893186
vt 0.013794 0.246605
vt 0.372435 0.246605
vt 0.322686 0.675168
vt 0.305089 0.24554
vt 0.037792 0.00221
vt 0.091528 0.248735
vt 0.013794 0.246605
vt 0.823524 0.365606
vt 0.86887 0.320239
vt 0.892865 0.331506
vt 0.324107 0.000998
vt 0.372435 0.246605
vt 0.305089 0.24554
vt 0.798335 0.11631
vt 0.84842 0.048288
vt 0.850456 0.112776
vt 0.935369 0.039865
vt 0.84842 0.048288
vt 0.868023 0.000998
vt 0.935369 0.1176
vt 0.903879 0.087067
vt 0.935369 0.039865
vt 0.868023 0.156468
vt 0.903879 0.087067
vt 0.935369 0.1176
vt 0.725342 0.000998
vt 0.792775 0.221523
vt 0.725429 0.220458
vt 0.255388 0.896279
vt 0.322686 0.675168
vt 0.322734 0.895214
vt 0.906878 0.31062
vt 0.97468 0.158435
vt 0.984612 0.308489
vt 0.446575 0.891511
vt 0.513876 0.740391
vt 0.51392 0.890446
vt 0.322686 0.675168
vt 0.392422 0.893186
vt 0.322734 0.895214
vt 0.677129 0.893478
vt 0.621085 0.954792
vt 0.599394 0.893478
vt 0.255477 0.676351
vt 0.194119 0.728972
vt 0.194141 0.694562
vt 0.513876 0.740391
vt 0.575168 0.687648
vt 0.57519 0.722058
vt 0.194119 0.728972
vt 0.149082 0.70381
vt 0.194141 0.694562
vt 0.57519 0.722058
vt 0.620226 0.695847
vt 0.6194 0.711077
vt 0.741178 0.736318
vt 0.756577 0.781376
vt 0.702897 0.736318
vt 0.758944 0.674982
vt 0.741178 0.736318
vt 0.702897 0.736318
vt 0.257908 0.006465
vt 0.324107 0.000998
vt 0.305089 0.24554
vt 0.255432 0.746224
vt 0.255477 0.676351
vt 0.322686 0.675168
vt 0.642928 0.243269
vt 0.625457 0.011533
vt 0.700547 0.000998
vt 0.46422 0.241838
vt 0.446147 0.000998
vt 0.515488 0.009037
vt 0.091528 0.248735
vt 0.105069 0.003031
vt 0.143099 0.008961
vt 0.765781 0.327575
vt 0.763024 0.260298
vt 0.86887 0.320239
vt 0.763024 0.260298
vt 0.822578 0.22349
vt 0.86887 0.320239
vt 0.822578 0.22349
vt 0.888778 0.256415
vt 0.86887 0.320239
vt 0.305089 0.24554
vt 0.322686 0.675168
vt 0.255477 0.676351
vt 0.642928 0.243269
vt 0.720662 0.241139
vt 0.706798 0.670884
vt 0.46422 0.241838
vt 0.531565 0.240773
vt 0.513832 0.670519
vt 0.396874 0.240772
vt 0.46422 0.241838
vt 0.446414 0.671068
vt 0.091528 0.248735
vt 0.104317 0.678949
vt 0.01128 0.893186
vt 0.372435 0.246605
vt 0.392422 0.893186
vt 0.322686 0.675168
vt 0.037792 0.00221
vt 0.105069 0.003031
vt 0.091528 0.248735
vt 0.892865 0.331506
vt 0.86887 0.320239
vt 0.888778 0.256415
vt 0.000984 0.000998
vt 0.037792 0.00221
vt 0.013794 0.246605
vt 0.868023 0.156468
vt 0.798335 0.11631
vt 0.850456 0.112776
vt 0.798335 0.11631
vt 0.800677 0.039865
vt 0.84842 0.048288
vt 0.800677 0.039865
vt 0.868023 0.000998
vt 0.84842 0.048288
vt 0.935369 0.039865
vt 0.903879 0.087067
vt 0.84842 0.048288
vt 0.868023 0.156468
vt 0.850456 0.112776
vt 0.903879 0.087067
vt 0.903879 0.087067
vt 0.850456 0.112776
vt 0.84842 0.048288
vt 0.104317 0.678949
vt 0.143721 0.679031
vt 0.126592 0.899474
vt 0.255388 0.896279
vt 0.255432 0.746224
vt 0.322686 0.675168
vt 0.01128 0.893186
vt 0.104317 0.678949
vt 0.087725 0.898409
vt 0.906878 0.31062
vt 0.896945 0.160565
vt 0.97468 0.158435
vt 0.446575 0.891511
vt 0.446414 0.671068
vt 0.513876 0.740391
vt 0.621085 0.954792
vt 0.659367 0.954792
vt 0.608356 0.999002
vt 0.677129 0.893478
vt 0.659367 0.954792
vt 0.621085 0.954792
vt 0.255477 0.676351
vt 0.255432 0.746224
vt 0.194119 0.728972
vt 0.513876 0.740391
vt 0.513832 0.670519
vt 0.575168 0.687648
vt 0.194119 0.728972
vt 0.149909 0.71904
vt 0.149082 0.70381
vt 0.57519 0.722058
vt 0.575168 0.687648
vt 0.620226 0.695847

# 198 Vertex Normals
vn -0.024763 -0.001089 0.999693
vn 0.153776 0.643869 0.749524
vn -0.377749 0.591879 0.712029
vn 0.30308 0.692563 -0.654599
vn 0.858584 0.462677 0.220823
vn 0.214588 0.708021 0.672799
vn 0.450697 0.800354 -0.395354
vn 0.036963 0.180691 -0.982845
vn 0.031127 0.866063 -0.498965
vn 0.009519 0.947269 0.320297
vn 0.450697 0.800354 -0.395354
vn 0.031127 0.866063 -0.498965
vn -0.012524 0.176253 0.984265
vn 0.358292 0.728482 0.583902
vn 0.009519 0.947269 0.320297
vn -0.00954 -0.87208 0.48927
vn 0.399017 -0.079114 0.913524
vn -0.012524 0.176253 0.984265
vn 0.973976 0.181374 0.135921
vn 0.399017 -0.079114 0.913524
vn 0.67333 -0.614909 0.410505
vn 0.036963 0.180691 -0.982845
vn 0.30308 0.692563 -0.654599
vn 0.031127 0.866063 -0.498965
vn 0.009519 0.947269 0.320297
vn 0.30308 0.692563 -0.654599
vn 0.153776 0.643869 0.749524
vn -0.012524 0.176253 0.984265
vn 0.153776 0.643869 0.749524
vn -0.024763 -0.001089 0.999693
vn -0.00954 -0.87208 0.48927
vn -0.024763 -0.001089 0.999693
vn -0.011509 -0.808481 0.58841
vn -0.00954 -0.87208 0.48927
vn -0.32104 -0.855529 -0.406207
vn 0.020383 -0.741485 -0.67066
vn 0.020383 -0.741485 -0.67066
vn 0.040113 0.103902 -0.993778
vn 0.036963 0.180691 -0.982845
vn 0.336334 -0.900895 -0.27435
vn -0.00954 -0.87208 0.48927
vn 0.020383 -0.741485 -0.67066
vn 0.399017 -0.079114 0.913524
vn 0.973976 0.181374 0.135921
vn 0.358292 0.728482 0.583902
vn 0.617855 -0.131942 -0.775143
vn 0.020383 -0.741485 -0.67066
vn 0.036963 0.180691 -0.982845
vn -0.32104 -0.855529 -0.406207
vn -0.941456 -0.19134 0.277578
vn -0.900567 -0.218564 -0.375777
vn -0.487387 0.794184 0.362941
vn -0.941456 -0.19134 0.277578
vn -0.354088 -0.015975 0.935076
vn -0.312322 0.754904 -0.576693
vn -0.912372 0.369855 -0.175454
vn -0.487387 0.794184 0.362941
vn -0.489972 0.040668 -0.870789
vn -0.912372 0.369855 -0.175454
vn -0.312322 0.754904 -0.576693
vn -0.011509 -0.808481 0.58841
vn -0.354088 -0.015975 0.935076
vn -0.462376 -0.758728 0.458847
vn -0.312322 0.754904 -0.576693
vn 0.040113 0.103902 -0.993778
vn -0.489972 0.040668 -0.870789
vn -0.487387 0.794184 0.362941
vn -0.154594 0.787761 -0.596266
vn -0.312322 0.754904 -0.576693
vn -0.354088 -0.015975 0.935076
vn -0.377749 0.591879 0.712029
vn -0.487387 0.794184 0.362941
vn 0.040113 0.103902 -0.993778
vn -0.32104 -0.855529 -0.406207
vn -0.489972 0.040668 -0.870789
vn -0.377749 0.591879 0.712029
vn -0.966054 0.25698 -0.026476
vn -0.212311 0.860576 -0.46296
vn 0.30308 0.692563 -0.654599
vn 0.105366 0.00383 -0.994426
vn 0.748076 0.170781 -0.641262
vn -0.377749 0.591879 0.712029
vn -0.09669 0.472288 0.876125
vn -0.5689 0.598713 0.563822
vn 0.105366 0.00383 -0.994426
vn 0.095946 -0.298007 -0.949729
vn 0.110029 0.001568 -0.993927
vn -0.5689 0.598713 0.563822
vn 0.351741 0.745175 0.566562
vn -0.679434 0.620536 0.391542
vn 0.863291 0.334945 -0.377545
vn 0.351741 0.745175 0.566562
vn 0.858584 0.462677 0.220823
vn 0.30308 0.692563 -0.654599
vn 0.863291 0.334945 -0.377545
vn 0.858584 0.462677 0.220823
vn 0.450697 0.800354 -0.395354
vn 0.617855 -0.131942 -0.775143
vn 0.036963 0.180691 -0.982845
vn -0.154594 0.787761 -0.596266
vn 0.30308 0.692563 -0.654599
vn 0.040113 0.103902 -0.993778
vn 0.009519 0.947269 0.320297
vn 0.358292 0.728482 0.583902
vn 0.450697 0.800354 -0.395354
vn -0.012524 0.176253 0.984265
vn 0.399017 -0.079114 0.913524
vn 0.358292 0.728482 0.583902
vn -0.00954 -0.87208 0.48927
vn 0.402714 -0.752531 0.521075
vn 0.399017 -0.079114 0.913524
vn 0.851509 -0.506766 0.134615
vn 0.577664 -0.77828 -0.246141
vn 0.973976 0.181374 0.135921
vn 0.881842 -0.282555 -0.377513
vn 0.617855 -0.131942 -0.775143
vn 0.973976 0.181374 0.135921
vn 0.617855 -0.131942 -0.775143
vn 0.450697 0.800354 -0.395354
vn 0.973976 0.181374 0.135921
vn 0.036963 0.180691 -0.982845
vn 0.040113 0.103902 -0.993778
vn 0.30308 0.692563 -0.654599
vn 0.009519 0.947269 0.320297
vn 0.031127 0.866063 -0.498965
vn 0.30308 0.692563 -0.654599
vn -0.012524 0.176253 0.984265
vn 0.009519 0.947269 0.320297
vn 0.153776 0.643869 0.749524
vn -0.00954 -0.87208 0.48927
vn -0.012524 0.176253 0.984265
vn -0.024763 -0.001089 0.999693
vn -0.00954 -0.87208 0.48927
vn -0.011509 -0.808481 0.58841
vn -0.32104 -0.855529 -0.406207
vn 0.020383 -0.741485 -0.67066
vn -0.32104 -0.855529 -0.406207
vn 0.040113 0.103902 -0.993778
vn 0.336334 -0.900895 -0.27435
vn 0.67333 -0.614909 0.410505
vn -0.00954 -0.87208 0.48927
vn 0.358292 0.728482 0.583902
vn 0.973976 0.181374 0.135921
vn 0.450697 0.800354 -0.395354
vn 0.617855 -0.131942 -0.775143
vn 0.577664 -0.77828 -0.246141
vn 0.020383 -0.741485 -0.67066
vn -0.489972 0.040668 -0.870789
vn -0.32104 -0.855529 -0.406207
vn -0.900567 -0.218564 -0.375777
vn -0.32104 -0.855529 -0.406207
vn -0.462376 -0.758728 0.458847
vn -0.941456 -0.19134 0.277578
vn -0.462376 -0.758728 0.458847
vn -0.354088 -0.015975 0.935076
vn -0.941456 -0.19134 0.277578
vn -0.487387 0.794184 0.362941
vn -0.912372 0.369855 -0.175454
vn -0.941456 -0.19134 0.277578
vn -0.489972 0.040668 -0.870789
vn -0.900567 -0.218564 -0.375777
vn -0.912372 0.369855 -0.175454
vn -0.912372 0.369855 -0.175454
vn -0.900567 -0.218564 -0.375777
vn -0.941456 -0.19134 0.277578
vn -0.011509 -0.808481 0.58841
vn -0.024763 -0.001089 0.999693
vn -0.354088 -0.015975 0.935076
vn -0.312322 0.754904 -0.576693
vn -0.154594 0.787761 -0.596266
vn 0.040113 0.103902 -0.993778
vn -0.32104 -0.855529 -0.406207
vn -0.011509 -0.808481 0.58841
vn -0.462376 -0.758728 0.458847
vn -0.487387 0.794184 0.362941
vn -0.377749 0.591879 0.712029
vn -0.154594 0.787761 -0.596266
vn -0.354088 -0.015975 0.935076
vn -0.024763 -0.001089 0.999693
vn -0.377749 0.591879 0.712029
vn -0.966054 0.25698 -0.026476
vn -0.5689 0.598713 0.563822
vn -0.679434 0.620536 0.391542
vn -0.377749 0.591879 0.712029
vn -0.5689 0.598713 0.563822
vn -0.966054 0.25698 -0.026476
vn 0.30308 0.692563 -0.654599
vn 0.060838 0.774435 -0.629722
vn 0.105366 0.00383 -0.994426
vn -0.377749 0.591879 0.712029
vn -0.050348 0.617734 0.784773
vn -0.09669 0.472288 0.876125
vn 0.105366 0.00383 -0.994426
vn 0.087191 -0.293679 -0.951919
vn 0.095946 -0.298007 -0.949729
vn -0.5689 0.598713 0.563822
vn 0.6124 0.499296 0.612919
vn 0.351741 0.745175 0.566562

# tronc, 66 grouped triangles

o tronc
g tronc

f 7/1/1 9/2/2 29/3/3
f 11/4/4 31/5/5 9/6/6
f 19/7/7 1/8/8 12/9/9
f 10/10/10 19/11/11 12/12/12
f 8/13/13 18/14/14 10/15/15
f 6/16/16 16/17/17 8/18/18
f 17/19/19 16/20/20 15/21/21
f 1/22/22 11/23/23 12/24/24
f 10/25/25 11/26/26 9/27/27
f 8/28/28 9/29/29 7/30/30
f 6/31/31 7/32/32 5/33/33
f 6/34/34 3/35/35 4/36/36
f 4/37/37 2/38/38 1/39/39
f 14/40/40 6/41/41 4/42/42
f 16/43/43 17/44/44 18/45/45
f 13/46/46 4/47/47 1/48/48
f 3/49/49 24/50/50 21/51/51
f 25/52/52 24/53/53 23/54/54
f 26/55/55 27/56/56 25/57/57
f 20/58/58 27/59/59 26/60/60
f 5/61/61 23/62/62 22/63/63
f 26/64/64 2/65/65 20/66/66
f 25/67/67 28/68/68 26/69/69
f 23/70/70 29/71/71 25/72/72
f 2/73/73 3/74/74 20/75/75
f 29/76/76 32/77/77 28/78/78
f 11/79/79 32/80/80 30/81/81
f 29/82/82 31/83/83 33/84/84
f 32/85/85 34/86/86 30/87/87
f 33/88/88 34/89/89 35/90/90
f 30/91/91 34/92/92 31/93/93
f 11/94/94 30/95/95 31/96/96
f 19/97/97 13/98/98 1/99/99
f 28/100/100 11/101/101 2/102/102
f 10/103/103 18/104/104 19/105/105
f 8/106/106 16/107/107 18/108/108
f 6/109/109 15/110/110 16/111/111
f 15/112/112 14/113/113 17/114/114
f 14/115/115 13/116/116 17/117/117
f 13/118/118 19/119/119 17/120/120
f 1/121/121 2/122/122 11/123/123
f 10/124/124 12/125/125 11/126/126
f 8/127/127 10/128/128 9/129/129
f 6/130/130 8/131/131 7/132/132
f 6/133/133 5/134/134 3/135/135
f 4/136/136 3/137/137 2/138/138
f 14/139/139 15/140/140 6/141/141
f 18/142/142 17/143/143 19/144/144
f 13/145/145 14/146/146 4/147/147
f 20/148/148 3/149/149 21/150/150
f 3/151/151 22/152/152 24/153/153
f 22/154/154 23/155/155 24/156/156
f 25/157/157 27/158/158 24/159/159
f 20/160/160 21/161/161 27/162/162
f 27/163/163 21/164/164 24/165/165
f 5/166/166 7/167/167 23/168/168
f 26/169/169 28/170/170 2/171/171
f 3/172/172 5/173/173 22/174/174
f 25/175/175 29/176/176 28/177/177
f 23/178/178 7/179/179 29/180/180
f 32/181/181 33/182/182 35/183/183
f 29/184/184 33/185/185 32/186/186
f 11/187/187 28/188/188 32/189/189
f 29/190/190 9/191/191 31/192/192
f 32/193/193 35/194/194 34/195/195
f 33/196/196 31/197/197 34/198/198
