# Blender 3.4.1
# www.blender.org
mtllib tris.mtl
o HousePart_08
v -0.007674 -0.000000 0.002000
v -0.007674 0.000500 0.002000
v -0.007674 0.000000 -0.002000
v -0.007674 0.000500 -0.002000
v -0.005146 -0.000000 0.002000
v -0.005146 0.000500 0.002000
v -0.005146 0.000000 -0.002000
v -0.005146 0.000500 -0.002000
v -0.005146 0.003000 -0.002000
v -0.005146 0.003000 0.002000
v -0.007425 0.003000 0.002000
v -0.007674 0.002751 0.002000
v -0.007674 0.002751 -0.002000
v -0.007425 0.003000 -0.002000
v 0.007674 -0.000000 0.002000
v 0.007674 0.000500 0.002000
v 0.007674 0.000000 -0.002000
v 0.007674 0.000500 -0.002000
v 0.005146 -0.000000 0.002000
v 0.005146 0.000500 0.002000
v 0.005146 0.000000 -0.002000
v 0.005146 0.000500 -0.002000
v 0.005146 0.003000 -0.002000
v 0.005146 0.003000 0.002000
v 0.007425 0.003000 0.002000
v 0.007674 0.002751 0.002000
v 0.007674 0.002751 -0.002000
v 0.007425 0.003000 -0.002000
v -0.002516 0.000414 -0.002103
v -0.002712 0.000414 -0.002103
v 0.002712 0.000414 -0.002103
v 0.002516 0.000414 -0.002103
v -0.002516 0.003086 -0.002103
v -0.002712 0.003086 -0.002103
v 0.002712 0.003086 -0.002103
v 0.002516 0.003086 -0.002103
v -0.002516 0.003000 0.002000
v -0.002712 0.003000 0.002000
v 0.002712 0.003000 0.002000
v 0.002516 0.003000 0.002000
v -0.002516 0.003000 -0.002000
v -0.002712 0.003000 -0.002000
v 0.002712 0.003000 -0.002000
v 0.002516 0.003000 -0.002000
v 0.002516 0.000500 0.002000
v 0.002712 0.000500 0.002000
v -0.002712 0.000500 0.002000
v -0.002516 0.000500 0.002000
v 0.002516 0.000500 -0.002000
v 0.002712 0.000500 -0.002000
v -0.002712 0.000500 -0.002000
v -0.002516 0.000500 -0.002000
v -0.002516 0.003086 0.002103
v -0.002516 0.000414 0.002103
v -0.002712 0.000414 0.002103
v -0.002712 0.003086 0.002103
v 0.002712 0.003086 0.002103
v 0.002712 0.000414 0.002103
v 0.002516 0.000414 0.002103
v 0.002516 0.003086 0.002103
vn -1.0000 -0.0000 -0.0000
vn -0.0000 -0.0000 -1.0000
vn 1.0000 -0.0000 -0.0000
vn -0.0000 -0.0000 1.0000
vn -0.0000 -1.0000 -0.0000
vn -0.0000 1.0000 -0.0000
vn -0.7071 0.7071 -0.0000
vn 0.7071 0.7071 -0.0000
vt 0.141453 0.172567
vt 0.141453 0.173381
vt 0.141453 0.172567
vt 0.141453 0.173381
vt 0.145573 0.172567
vt 0.145573 0.173381
vt 0.145573 0.172567
vt 0.145573 0.173381
vt 0.145573 0.177456
vt 0.145573 0.177456
vt 0.141859 0.177456
vt 0.141453 0.177050
vt 0.141453 0.177050
vt 0.141859 0.177456
vt 0.166468 0.172567
vt 0.166468 0.173381
vt 0.166468 0.172567
vt 0.166468 0.173381
vt 0.162347 0.172567
vt 0.162347 0.173381
vt 0.162347 0.172567
vt 0.162347 0.173381
vt 0.162347 0.177456
vt 0.162347 0.177456
vt 0.166061 0.177456
vt 0.166468 0.177050
vt 0.166468 0.177050
vt 0.166061 0.177456
vt 0.022744 0.162390
vt 0.022537 0.162390
vt 0.031151 0.162390
vt 0.030945 0.162390
vt 0.022744 0.166744
vt 0.022537 0.166744
vt 0.031151 0.166744
vt 0.030945 0.166744
vt 0.149860 0.177456
vt 0.022744 0.166604
vt 0.022537 0.166604
vt 0.149653 0.177456
vt 0.158268 0.177456
vt 0.031151 0.166604
vt 0.158061 0.177456
vt 0.030945 0.166604
vt 0.149860 0.177456
vt 0.022744 0.166604
vt 0.149653 0.177456
vt 0.022537 0.166604
vt 0.158268 0.177456
vt 0.031151 0.166604
vt 0.158061 0.177456
vt 0.030945 0.166604
vt 0.158061 0.173381
vt 0.030945 0.162530
vt 0.158268 0.173381
vt 0.031151 0.162530
vt 0.149653 0.173381
vt 0.022537 0.162530
vt 0.149860 0.173381
vt 0.022744 0.162530
vt 0.158061 0.173381
vt 0.030945 0.162530
vt 0.158268 0.173381
vt 0.031151 0.162530
vt 0.149653 0.173381
vt 0.022537 0.162530
vt 0.149860 0.173381
vt 0.022744 0.162530
vt 0.022744 0.166744
vt 0.022744 0.162390
vt 0.022537 0.162390
vt 0.022537 0.166744
vt 0.031151 0.166744
vt 0.031151 0.162390
vt 0.030945 0.162390
vt 0.030945 0.166744
s 1
usemtl City_05.019
f 1/1/1 2/2/1 3/3/1
f 3/3/1 2/2/1 4/4/1
f 3/3/2 4/4/2 7/7/2
f 7/7/2 4/4/2 8/8/2
f 7/7/3 8/8/3 5/5/3
f 5/5/3 8/8/3 6/6/3
f 5/5/4 6/6/4 1/1/4
f 1/1/4 6/6/4 2/2/4
f 3/3/5 7/7/5 1/1/5
f 1/1/5 7/7/5 5/5/5
f 2/2/4 6/6/4 12/12/4
f 12/12/4 6/6/4 11/11/4
f 6/6/4 10/10/4 11/11/4
f 9/9/6 14/14/6 10/10/6
f 10/10/6 14/14/6 11/11/6
f 8/8/2 4/4/2 9/9/2
f 4/4/2 13/13/2 9/9/2
f 13/13/2 14/14/2 9/9/2
f 11/11/7 14/14/7 12/12/7
f 12/12/7 14/14/7 13/13/7
f 4/4/1 2/2/1 13/13/1
f 13/13/1 2/2/1 12/12/1
f 15/15/3 17/17/3 16/16/3
f 16/16/3 17/17/3 18/18/3
f 17/17/2 21/21/2 18/18/2
f 18/18/2 21/21/2 22/22/2
f 21/21/1 19/19/1 22/22/1
f 22/22/1 19/19/1 20/20/1
f 19/19/4 15/15/4 20/20/4
f 20/20/4 15/15/4 16/16/4
f 17/17/5 15/15/5 21/21/5
f 21/21/5 15/15/5 19/19/5
f 16/16/4 26/26/4 20/20/4
f 26/26/4 25/25/4 20/20/4
f 25/25/4 24/24/4 20/20/4
f 23/23/6 24/24/6 28/28/6
f 28/28/6 24/24/6 25/25/6
f 22/22/2 23/23/2 18/18/2
f 23/23/2 28/28/2 18/18/2
f 28/28/2 27/27/2 18/18/2
f 49/61/2 52/67/2 44/51/2
f 44/51/2 52/67/2 41/45/2
f 42/48/1 38/39/1 34/34/1
f 34/34/1 38/39/1 56/72/1
f 23/23/6 43/49/6 24/24/6
f 24/24/6 43/49/6 39/41/6
f 44/51/6 41/45/6 40/43/6
f 40/43/6 41/45/6 37/37/6
f 25/25/8 26/26/8 28/28/8
f 28/28/8 26/26/8 27/27/8
f 18/18/3 27/27/3 16/16/3
f 16/16/3 27/27/3 26/26/3
f 51/65/2 8/8/2 42/47/2
f 42/47/2 8/8/2 9/9/2
f 42/47/6 9/9/6 38/40/6
f 38/40/6 9/9/6 10/10/6
f 24/24/4 39/41/4 20/20/4
f 20/20/4 39/41/4 46/55/4
f 40/43/4 37/37/4 45/53/4
f 45/53/4 37/37/4 48/59/4
f 45/53/5 48/59/5 49/61/5
f 49/61/5 48/59/5 52/67/5
f 47/57/5 6/6/5 51/65/5
f 51/65/5 6/6/5 8/8/5
f 20/20/5 46/55/5 22/22/5
f 22/22/5 46/55/5 50/63/5
f 22/22/2 50/63/2 23/23/2
f 23/23/2 50/63/2 43/49/2
f 41/46/3 52/68/3 33/33/3
f 33/33/3 52/68/3 29/29/3
f 51/66/1 42/48/1 30/30/1
f 30/30/1 42/48/1 34/34/1
f 48/60/3 37/38/3 54/70/3
f 54/70/3 37/38/3 53/69/3
f 45/54/1 49/62/1 59/75/1
f 59/75/1 49/62/1 32/32/1
f 43/50/3 50/64/3 35/35/3
f 35/35/3 50/64/3 31/31/3
f 37/38/3 41/46/3 53/69/3
f 53/69/3 41/46/3 33/33/3
f 49/62/1 44/52/1 32/32/1
f 32/32/1 44/52/1 36/36/1
f 38/39/1 47/58/1 56/72/1
f 56/72/1 47/58/1 55/71/1
f 38/40/4 10/10/4 47/57/4
f 47/57/4 10/10/4 6/6/4
f 52/68/3 48/60/3 29/29/3
f 29/29/3 48/60/3 54/70/3
f 46/56/3 39/42/3 58/74/3
f 58/74/3 39/42/3 57/73/3
f 39/42/3 43/50/3 57/73/3
f 57/73/3 43/50/3 35/35/3
f 47/58/1 51/66/1 55/71/1
f 55/71/1 51/66/1 30/30/1
f 44/52/1 40/44/1 36/36/1
f 36/36/1 40/44/1 60/76/1
f 50/64/3 46/56/3 31/31/3
f 31/31/3 46/56/3 58/74/3
f 40/44/1 45/54/1 60/76/1
f 60/76/1 45/54/1 59/75/1
f 30/30/2 34/34/2 29/29/2
f 29/29/2 34/34/2 33/33/2
f 32/32/2 36/36/2 31/31/2
f 31/31/2 36/36/2 35/35/2
f 55/71/5 30/30/5 54/70/5
f 54/70/5 30/30/5 29/29/5
f 59/75/5 32/32/5 58/74/5
f 58/74/5 32/32/5 31/31/5
f 34/34/6 56/72/6 33/33/6
f 33/33/6 56/72/6 53/69/6
f 36/36/6 60/76/6 35/35/6
f 35/35/6 60/76/6 57/73/6
f 56/72/4 55/71/4 53/69/4
f 53/69/4 55/71/4 54/70/4
f 60/76/4 59/75/4 57/73/4
f 57/73/4 59/75/4 58/74/4
