# Blender 3.4.1
# www.blender.org
mtllib tris.mtl
o Table_01
v 0.000000 0.000000 -0.002488
v 0.000000 0.000369 -0.002488
v 0.002155 0.000000 -0.001244
v 0.002155 0.000369 -0.001244
v 0.002155 -0.000000 0.001244
v 0.002155 0.000369 0.001244
v -0.000000 -0.000000 0.002488
v -0.000000 0.000369 0.002488
v -0.002155 -0.000000 0.001244
v -0.002155 0.000369 0.001244
v -0.002155 0.000000 -0.001244
v -0.002155 0.000369 -0.001244
v 0.000336 0.000369 -0.000194
v 0.000000 0.000369 -0.000388
v -0.000336 0.000369 -0.000194
v -0.000336 0.000369 0.000194
v 0.000000 0.000369 0.000388
v 0.000336 0.000369 0.000194
v 0.000336 0.008168 -0.000194
v 0.000000 0.008168 -0.000388
v 0.000336 0.008168 0.000194
v -0.000336 0.008168 -0.000194
v -0.000336 0.008168 0.000194
v 0.000000 0.008168 0.000388
v 0.000000 0.007564 -0.006269
v 0.000000 0.008285 -0.006269
v 0.003134 0.007564 -0.005429
v 0.003134 0.008285 -0.005429
v 0.005429 0.007564 -0.003134
v 0.005429 0.008285 -0.003134
v 0.006269 0.007564 0.000000
v 0.006269 0.008285 0.000000
v 0.005429 0.007564 0.003134
v 0.005429 0.008285 0.003134
v 0.003134 0.007564 0.005429
v 0.003134 0.008285 0.005429
v 0.000000 0.007564 0.006269
v 0.000000 0.008285 0.006269
v -0.003134 0.007564 0.005429
v -0.003134 0.008285 0.005429
v -0.005429 0.007564 0.003134
v -0.005429 0.008285 0.003134
v -0.006269 0.007564 0.000000
v -0.006269 0.008285 0.000000
v -0.005429 0.007564 -0.003134
v -0.005429 0.008285 -0.003134
v -0.003134 0.007564 -0.005429
v -0.003134 0.008285 -0.005429
vn 0.5000 -0.0000 -0.8660
vn 1.0000 -0.0000 -0.0000
vn 0.5000 -0.0000 0.8660
vn -0.5000 -0.0000 0.8660
vn -1.0000 -0.0000 -0.0000
vn -0.5000 -0.0000 -0.8660
vn -0.0000 -1.0000 -0.0000
vn -0.0000 1.0000 -0.0000
vn 0.2588 -0.0000 -0.9659
vn 0.7071 -0.0000 -0.7071
vn 0.9659 -0.0000 -0.2588
vn 0.9659 -0.0000 0.2588
vn 0.7071 -0.0000 0.7071
vn 0.2588 -0.0000 0.9659
vn -0.2588 -0.0000 0.9659
vn -0.7071 -0.0000 0.7071
vn -0.9659 -0.0000 0.2588
vn -0.9659 -0.0000 -0.2588
vn -0.7071 -0.0000 -0.7071
vn -0.2588 -0.0000 -0.9659
vt 0.231530 0.022430
vt 0.231530 0.023305
vt 0.234759 0.022430
vt 0.234759 0.023305
vt 0.234759 0.022430
vt 0.234759 0.023305
vt 0.231530 0.022430
vt 0.231530 0.023305
vt 0.228301 0.022430
vt 0.228301 0.023305
vt 0.228301 0.022430
vt 0.228301 0.023305
vt 0.232034 0.023305
vt 0.461463 0.023305
vt 0.231530 0.023305
vt 0.460959 0.023305
vt 0.231027 0.023305
vt 0.460456 0.023305
vt 0.231027 0.023305
vt 0.460456 0.023305
vt 0.231530 0.023305
vt 0.460959 0.023305
vt 0.232034 0.023305
vt 0.461463 0.023305
vt 0.232034 0.034671
vt 0.461463 0.034671
vt 0.231530 0.034671
vt 0.460959 0.034671
vt 0.232034 0.034671
vt 0.461463 0.034671
vt 0.231027 0.034671
vt 0.460456 0.034671
vt 0.231027 0.034671
vt 0.460456 0.034671
vt 0.231530 0.034671
vt 0.460959 0.034671
vt 0.848508 0.168634
vt 0.848508 0.169714
vt 0.853206 0.168634
vt 0.853206 0.169714
vt 0.856645 0.168634
vt 0.856645 0.169714
vt 0.857903 0.168634
vt 0.857903 0.169714
vt 0.856645 0.168634
vt 0.856645 0.169714
vt 0.853206 0.168634
vt 0.853206 0.169714
vt 0.848508 0.168634
vt 0.848508 0.169714
vt 0.843810 0.168634
vt 0.843810 0.169714
vt 0.840371 0.168634
vt 0.840371 0.169714
vt 0.839113 0.168634
vt 0.839113 0.169714
vt 0.840371 0.168634
vt 0.840371 0.169714
vt 0.843810 0.168634
vt 0.843810 0.169714
s 1
usemtl City_05.013
f 1/1/1 2/2/1 3/3/1
f 3/3/1 2/2/1 4/4/1
f 3/3/2 4/4/2 5/5/2
f 5/5/2 4/4/2 6/6/2
f 5/5/3 6/6/3 7/7/3
f 7/7/3 6/6/3 8/8/3
f 7/7/4 8/8/4 9/9/4
f 9/9/4 8/8/4 10/10/4
f 15/18/5 16/20/5 22/32/5
f 22/32/5 16/20/5 23/34/5
f 9/9/5 10/10/5 11/11/5
f 11/11/5 10/10/5 12/12/5
f 11/11/6 12/12/6 1/1/6
f 1/1/6 12/12/6 2/2/6
f 1/1/7 3/3/7 11/11/7
f 3/3/7 5/5/7 11/11/7
f 5/5/7 7/7/7 11/11/7
f 7/7/7 9/9/7 11/11/7
f 4/4/8 2/2/8 13/13/8
f 13/13/8 2/2/8 14/15/8
f 2/2/8 12/12/8 14/15/8
f 14/15/8 12/12/8 15/17/8
f 12/12/8 10/10/8 15/17/8
f 15/17/8 10/10/8 16/19/8
f 10/10/8 8/8/8 16/19/8
f 16/19/8 8/8/8 17/21/8
f 8/8/8 6/6/8 17/21/8
f 17/21/8 6/6/8 18/23/8
f 6/6/8 4/4/8 18/23/8
f 18/23/8 4/4/8 13/13/8
f 19/25/8 20/27/8 21/29/8
f 20/27/8 22/31/8 21/29/8
f 22/31/8 23/33/8 21/29/8
f 23/33/8 24/35/8 21/29/8
f 18/24/2 13/14/2 21/30/2
f 21/30/2 13/14/2 19/26/2
f 16/20/4 17/22/4 23/34/4
f 23/34/4 17/22/4 24/36/4
f 14/16/6 15/18/6 20/28/6
f 20/28/6 15/18/6 22/32/6
f 13/14/1 14/16/1 19/26/1
f 19/26/1 14/16/1 20/28/1
f 17/22/3 18/24/3 24/36/3
f 24/36/3 18/24/3 21/30/3
f 25/37/9 26/38/9 27/39/9
f 27/39/9 26/38/9 28/40/9
f 27/39/10 28/40/10 29/41/10
f 29/41/10 28/40/10 30/42/10
f 29/41/11 30/42/11 31/43/11
f 31/43/11 30/42/11 32/44/11
f 31/43/12 32/44/12 33/45/12
f 33/45/12 32/44/12 34/46/12
f 33/45/13 34/46/13 35/47/13
f 35/47/13 34/46/13 36/48/13
f 35/47/14 36/48/14 37/49/14
f 37/49/14 36/48/14 38/50/14
f 37/49/15 38/50/15 39/51/15
f 39/51/15 38/50/15 40/52/15
f 39/51/16 40/52/16 41/53/16
f 41/53/16 40/52/16 42/54/16
f 41/53/17 42/54/17 43/55/17
f 43/55/17 42/54/17 44/56/17
f 43/55/18 44/56/18 45/57/18
f 45/57/18 44/56/18 46/58/18
f 28/40/8 26/38/8 30/42/8
f 26/38/8 48/60/8 30/42/8
f 48/60/8 46/58/8 30/42/8
f 46/58/8 44/56/8 30/42/8
f 44/56/8 42/54/8 30/42/8
f 42/54/8 40/52/8 30/42/8
f 40/52/8 38/50/8 30/42/8
f 38/50/8 36/48/8 30/42/8
f 36/48/8 34/46/8 30/42/8
f 34/46/8 32/44/8 30/42/8
f 45/57/19 46/58/19 47/59/19
f 47/59/19 46/58/19 48/60/19
f 47/59/20 48/60/20 25/37/20
f 25/37/20 48/60/20 26/38/20
f 25/37/7 27/39/7 47/59/7
f 27/39/7 29/41/7 47/59/7
f 29/41/7 31/43/7 47/59/7
f 31/43/7 33/45/7 47/59/7
f 33/45/7 35/47/7 47/59/7
f 35/47/7 37/49/7 47/59/7
f 37/49/7 39/51/7 47/59/7
f 39/51/7 41/53/7 47/59/7
f 41/53/7 43/55/7 47/59/7
f 43/55/7 45/57/7 47/59/7
