# Blender 3.4.1
# www.blender.org
mtllib tris.mtl
o HousePart_02_2
v -0.021127 0.240012 -0.051004
v -0.021127 0.332540 -0.051004
v 0.021127 0.240012 -0.051004
v 0.021127 0.332540 -0.051004
v 0.051004 0.240012 -0.021127
v 0.051004 0.332540 -0.021127
v 0.051004 0.240012 0.021127
v 0.051004 0.332540 0.021127
v 0.021127 0.240012 0.051004
v 0.021127 0.332540 0.051004
v -0.021127 0.240012 0.051004
v -0.021127 0.332540 0.051004
v -0.051004 0.240012 0.021127
v -0.051004 0.332540 0.021127
v -0.051004 0.240012 -0.021127
v -0.051004 0.332540 -0.021127
v -0.047857 0.295789 -0.080716
v -0.047857 0.322946 -0.080716
v -0.068374 0.295789 -0.192733
v -0.068374 0.322946 -0.192733
v 0.047857 0.295789 -0.080716
v 0.047857 0.322946 -0.080716
v 0.068374 0.295789 -0.192734
v 0.068374 0.322946 -0.192734
v 0.000000 0.295789 -0.203084
v 0.000000 0.322946 -0.203084
v 0.019358 0.295789 -0.061064
v -0.019358 0.295789 -0.061064
v -0.000000 0.295789 -0.103048
v -0.019358 0.322946 -0.061064
v 0.019358 0.322946 -0.061064
v -0.000000 0.322946 -0.103048
v 0.019358 0.295789 -0.050177
v -0.019358 0.295789 -0.050177
v -0.019358 0.322946 -0.050177
v 0.019358 0.322946 -0.050177
v -0.047857 0.295789 0.080716
v -0.047857 0.322946 0.080716
v -0.068374 0.295789 0.192734
v -0.068374 0.322946 0.192734
v 0.047857 0.295789 0.080716
v 0.047857 0.322946 0.080716
v 0.068374 0.295789 0.192734
v 0.068374 0.322946 0.192734
v -0.000000 0.295789 0.203084
v -0.000000 0.322946 0.203084
v 0.019358 0.295789 0.061064
v -0.019358 0.295789 0.061064
v 0.000000 0.295789 0.103048
v -0.019358 0.322946 0.061064
v 0.019358 0.322946 0.061064
v 0.000000 0.322946 0.103048
v 0.019358 0.295789 0.050177
v -0.019358 0.295789 0.050177
v -0.019358 0.322946 0.050177
v 0.019358 0.322946 0.050177
v -0.080716 0.295789 0.047857
v -0.080716 0.322946 0.047857
v -0.192734 0.295789 0.068374
v -0.192734 0.322946 0.068374
v -0.080716 0.295789 -0.047857
v -0.080716 0.322946 -0.047857
v -0.192734 0.295789 -0.068374
v -0.192734 0.322946 -0.068374
v -0.203084 0.295789 0.000000
v -0.203084 0.322946 0.000000
v -0.061064 0.295789 -0.019358
v -0.061064 0.295789 0.019358
v -0.103048 0.295789 0.000000
v -0.061064 0.322946 0.019358
v -0.061064 0.322946 -0.019358
v -0.103048 0.322946 0.000000
v -0.050177 0.295789 -0.019358
v -0.050177 0.295789 0.019358
v -0.050177 0.322946 0.019358
v -0.050177 0.322946 -0.019358
v 0.080716 0.295789 0.047857
v 0.080716 0.322946 0.047857
v 0.192734 0.295789 0.068374
v 0.192734 0.322946 0.068374
v 0.080716 0.295789 -0.047857
v 0.080716 0.322946 -0.047857
v 0.192734 0.295789 -0.068374
v 0.192734 0.322946 -0.068374
v 0.203084 0.295789 0.000000
v 0.203084 0.322946 -0.000000
v 0.061064 0.295789 -0.019358
v 0.061064 0.295789 0.019358
v 0.103048 0.295789 0.000000
v 0.061064 0.322946 0.019358
v 0.061064 0.322946 -0.019358
v 0.103048 0.322946 0.000000
v 0.050177 0.295789 -0.019358
v 0.050177 0.295789 0.019358
v 0.050177 0.322946 0.019358
v 0.050177 0.322946 -0.019358
vn -0.0000 -0.0000 -1.0000
vn 0.7071 -0.0000 -0.7071
vn 1.0000 -0.0000 -0.0000
vn 0.7071 -0.0000 0.7071
vn -0.0000 -0.0000 1.0000
vn -0.7071 -0.0000 0.7071
vn -0.0000 1.0000 -0.0000
vn -1.0000 -0.0000 -0.0000
vn -0.7071 -0.0000 -0.7071
vn -0.0000 -1.0000 -0.0000
vn -0.9836 -0.0000 0.1802
vn 0.1497 -0.0000 -0.9887
vn 0.9836 -0.0000 0.1802
vn -0.5677 -0.0000 0.8232
vn -0.1497 -0.0000 -0.9887
vn 0.5677 -0.0000 0.8232
vn -0.9836 -0.0000 -0.1802
vn 0.1497 -0.0000 0.9887
vn 0.9836 -0.0000 -0.1802
vn -0.5677 -0.0000 -0.8232
vn -0.1497 -0.0000 0.9887
vn 0.5677 -0.0000 -0.8232
vn 0.1802 -0.0000 0.9836
vn -0.9887 -0.0000 -0.1497
vn 0.1802 -0.0000 -0.9836
vn 0.8232 -0.0000 0.5677
vn -0.9887 -0.0000 0.1497
vn 0.8232 -0.0000 -0.5677
vn -0.1802 -0.0000 0.9836
vn 0.9887 -0.0000 -0.1497
vn -0.1802 -0.0000 -0.9836
vn -0.8232 -0.0000 0.5677
vn 0.9887 -0.0000 0.1497
vn -0.8232 -0.0000 -0.5677
vt 0.527259 0.039706
vt 0.527259 0.039706
vt 0.530773 0.039706
vt 0.530773 0.039706
vt 0.533257 0.037221
vt 0.533257 0.037221
vt 0.533257 0.033708
vt 0.533257 0.033708
vt 0.530773 0.031223
vt 0.530773 0.031223
vt 0.527259 0.031223
vt 0.527259 0.031223
vt 0.524775 0.033708
vt 0.524775 0.033708
vt 0.524775 0.037221
vt 0.524775 0.037221
vt 0.650603 0.042176
vt 0.650603 0.042176
vt 0.648896 0.051491
vt 0.648896 0.051491
vt 0.658561 0.042176
vt 0.658561 0.042176
vt 0.660268 0.051491
vt 0.660268 0.051491
vt 0.654582 0.052352
vt 0.654582 0.052352
vt 0.656192 0.040542
vt 0.652972 0.040542
vt 0.654582 0.044033
vt 0.652972 0.040542
vt 0.656192 0.040542
vt 0.654582 0.044033
vt 0.656192 0.039637
vt 0.652972 0.039637
vt 0.652972 0.039637
vt 0.656192 0.039637
vt 0.650603 0.028753
vt 0.650603 0.028753
vt 0.648896 0.019438
vt 0.648896 0.019438
vt 0.658561 0.028753
vt 0.658561 0.028753
vt 0.660268 0.019438
vt 0.660268 0.019438
vt 0.654582 0.018577
vt 0.654582 0.018577
vt 0.656192 0.030387
vt 0.652972 0.030387
vt 0.654582 0.026896
vt 0.652972 0.030387
vt 0.656192 0.030387
vt 0.654582 0.026896
vt 0.656192 0.031292
vt 0.652972 0.031292
vt 0.652972 0.031292
vt 0.656192 0.031292
vt 0.647870 0.031485
vt 0.647870 0.031485
vt 0.638556 0.029779
vt 0.638556 0.029779
vt 0.647870 0.039444
vt 0.647870 0.039444
vt 0.638556 0.041150
vt 0.638556 0.041150
vt 0.637695 0.035464
vt 0.637695 0.035464
vt 0.649504 0.037074
vt 0.649504 0.033855
vt 0.646013 0.035464
vt 0.649504 0.033855
vt 0.649504 0.037074
vt 0.646013 0.035464
vt 0.650410 0.037074
vt 0.650410 0.033855
vt 0.650410 0.033855
vt 0.650410 0.037074
vt 0.661294 0.031485
vt 0.661294 0.031485
vt 0.670608 0.029779
vt 0.670608 0.029779
vt 0.661294 0.039444
vt 0.661294 0.039444
vt 0.670608 0.041150
vt 0.670608 0.041150
vt 0.671469 0.035464
vt 0.671469 0.035464
vt 0.659660 0.037074
vt 0.659660 0.033855
vt 0.663151 0.035464
vt 0.659660 0.033855
vt 0.659660 0.037074
vt 0.663151 0.035464
vt 0.658754 0.037074
vt 0.658754 0.033855
vt 0.658754 0.033855
vt 0.658754 0.037074
s 1
usemtl City_05.010
f 1/1/1 2/2/1 3/3/1
f 3/3/1 2/2/1 4/4/1
f 3/3/2 4/4/2 5/5/2
f 5/5/2 4/4/2 6/6/2
f 5/5/3 6/6/3 7/7/3
f 7/7/3 6/6/3 8/8/3
f 7/7/4 8/8/4 9/9/4
f 9/9/4 8/8/4 10/10/4
f 9/9/5 10/10/5 11/11/5
f 11/11/5 10/10/5 12/12/5
f 11/11/6 12/12/6 13/13/6
f 13/13/6 12/12/6 14/14/6
f 4/4/7 2/2/7 6/6/7
f 2/2/7 16/16/7 6/6/7
f 16/16/7 14/14/7 6/6/7
f 14/14/7 12/12/7 6/6/7
f 12/12/7 10/10/7 6/6/7
f 10/10/7 8/8/7 6/6/7
f 13/13/8 14/14/8 15/15/8
f 15/15/8 14/14/8 16/16/8
f 15/15/9 16/16/9 1/1/9
f 1/1/9 16/16/9 2/2/9
f 1/1/10 3/3/10 15/15/10
f 3/3/10 5/5/10 15/15/10
f 5/5/10 7/7/10 15/15/10
f 7/7/10 9/9/10 15/15/10
f 9/9/10 11/11/10 15/15/10
f 11/11/10 13/13/10 15/15/10
f 17/17/11 18/18/11 19/19/11
f 19/19/11 18/18/11 20/20/11
f 25/25/12 26/26/12 23/23/12
f 23/23/12 26/26/12 24/24/12
f 23/23/13 24/24/13 21/21/13
f 21/21/13 24/24/13 22/22/13
f 30/30/7 32/32/7 18/18/7
f 18/18/7 32/32/7 20/20/7
f 26/26/7 20/20/7 32/32/7
f 28/28/14 30/30/14 17/17/14
f 17/17/14 30/30/14 18/18/14
f 31/31/7 22/22/7 32/32/7
f 22/22/7 24/24/7 32/32/7
f 24/24/7 26/26/7 32/32/7
f 28/28/10 27/27/10 34/34/10
f 34/34/10 27/27/10 33/33/10
f 27/27/10 29/29/10 21/21/10
f 21/21/10 29/29/10 23/23/10
f 25/25/10 23/23/10 29/29/10
f 28/28/10 17/17/10 29/29/10
f 17/17/10 19/19/10 29/29/10
f 19/19/10 25/25/10 29/29/10
f 19/19/15 20/20/15 25/25/15
f 25/25/15 20/20/15 26/26/15
f 27/27/10 28/28/10 29/29/10
f 30/30/7 31/31/7 32/32/7
f 21/21/16 22/22/16 27/27/16
f 27/27/16 22/22/16 31/31/16
f 35/35/5 34/34/5 36/36/5
f 36/36/5 34/34/5 33/33/5
f 30/30/8 28/28/8 35/35/8
f 35/35/8 28/28/8 34/34/8
f 31/31/7 30/30/7 36/36/7
f 36/36/7 30/30/7 35/35/7
f 27/27/3 31/31/3 33/33/3
f 33/33/3 31/31/3 36/36/3
f 37/37/17 39/39/17 38/38/17
f 38/38/17 39/39/17 40/40/17
f 45/45/18 43/43/18 46/46/18
f 46/46/18 43/43/18 44/44/18
f 43/43/19 41/41/19 44/44/19
f 44/44/19 41/41/19 42/42/19
f 50/50/7 38/38/7 52/52/7
f 38/38/7 40/40/7 52/52/7
f 46/46/7 52/52/7 40/40/7
f 48/48/20 37/37/20 50/50/20
f 50/50/20 37/37/20 38/38/20
f 51/51/7 52/52/7 42/42/7
f 42/42/7 52/52/7 44/44/7
f 44/44/7 52/52/7 46/46/7
f 48/48/10 54/54/10 47/47/10
f 47/47/10 54/54/10 53/53/10
f 47/47/10 41/41/10 49/49/10
f 41/41/10 43/43/10 49/49/10
f 45/45/10 49/49/10 43/43/10
f 48/48/10 49/49/10 37/37/10
f 37/37/10 49/49/10 39/39/10
f 39/39/10 49/49/10 45/45/10
f 39/39/21 45/45/21 40/40/21
f 40/40/21 45/45/21 46/46/21
f 47/47/10 49/49/10 48/48/10
f 50/50/7 52/52/7 51/51/7
f 41/41/22 47/47/22 42/42/22
f 42/42/22 47/47/22 51/51/22
f 55/55/1 56/56/1 54/54/1
f 54/54/1 56/56/1 53/53/1
f 50/50/8 55/55/8 48/48/8
f 48/48/8 55/55/8 54/54/8
f 51/51/7 56/56/7 50/50/7
f 50/50/7 56/56/7 55/55/7
f 47/47/3 53/53/3 51/51/3
f 51/51/3 53/53/3 56/56/3
f 57/57/23 58/58/23 59/59/23
f 59/59/23 58/58/23 60/60/23
f 65/65/24 66/66/24 63/63/24
f 63/63/24 66/66/24 64/64/24
f 63/63/25 64/64/25 61/61/25
f 61/61/25 64/64/25 62/62/25
f 70/70/7 72/72/7 58/58/7
f 58/58/7 72/72/7 60/60/7
f 66/66/7 60/60/7 72/72/7
f 68/68/26 70/70/26 57/57/26
f 57/57/26 70/70/26 58/58/26
f 71/71/7 62/62/7 72/72/7
f 62/62/7 64/64/7 72/72/7
f 64/64/7 66/66/7 72/72/7
f 68/68/10 67/67/10 74/74/10
f 74/74/10 67/67/10 73/73/10
f 67/67/10 69/69/10 61/61/10
f 61/61/10 69/69/10 63/63/10
f 65/65/10 63/63/10 69/69/10
f 68/68/10 57/57/10 69/69/10
f 57/57/10 59/59/10 69/69/10
f 59/59/10 65/65/10 69/69/10
f 59/59/27 60/60/27 65/65/27
f 65/65/27 60/60/27 66/66/27
f 67/67/10 68/68/10 69/69/10
f 70/70/7 71/71/7 72/72/7
f 61/61/28 62/62/28 67/67/28
f 67/67/28 62/62/28 71/71/28
f 75/75/3 74/74/3 76/76/3
f 76/76/3 74/74/3 73/73/3
f 70/70/5 68/68/5 75/75/5
f 75/75/5 68/68/5 74/74/5
f 71/71/7 70/70/7 76/76/7
f 76/76/7 70/70/7 75/75/7
f 67/67/1 71/71/1 73/73/1
f 73/73/1 71/71/1 76/76/1
f 77/77/29 79/79/29 78/78/29
f 78/78/29 79/79/29 80/80/29
f 85/85/30 83/83/30 86/86/30
f 86/86/30 83/83/30 84/84/30
f 83/83/31 81/81/31 84/84/31
f 84/84/31 81/81/31 82/82/31
f 90/90/7 78/78/7 92/92/7
f 78/78/7 80/80/7 92/92/7
f 86/86/7 92/92/7 80/80/7
f 88/88/32 77/77/32 90/90/32
f 90/90/32 77/77/32 78/78/32
f 91/91/7 92/92/7 82/82/7
f 82/82/7 92/92/7 84/84/7
f 84/84/7 92/92/7 86/86/7
f 88/88/10 94/94/10 87/87/10
f 87/87/10 94/94/10 93/93/10
f 87/87/10 81/81/10 89/89/10
f 81/81/10 83/83/10 89/89/10
f 85/85/10 89/89/10 83/83/10
f 88/88/10 89/89/10 77/77/10
f 77/77/10 89/89/10 79/79/10
f 79/79/10 89/89/10 85/85/10
f 79/79/33 85/85/33 80/80/33
f 80/80/33 85/85/33 86/86/33
f 87/87/10 89/89/10 88/88/10
f 90/90/7 92/92/7 91/91/7
f 81/81/34 87/87/34 82/82/34
f 82/82/34 87/87/34 91/91/34
f 95/95/8 96/96/8 94/94/8
f 94/94/8 96/96/8 93/93/8
f 90/90/5 95/95/5 88/88/5
f 88/88/5 95/95/5 94/94/5
f 91/91/7 96/96/7 90/90/7
f 90/90/7 96/96/7 95/95/7
f 87/87/1 93/93/1 91/91/1
f 91/91/1 93/93/1 96/96/1
o HousePart_02_1
v 0.086838 0.266842 0.209645
v -0.086838 0.266842 0.209645
v -0.209645 0.266842 0.086838
v -0.209645 0.266842 -0.086838
v -0.086838 0.266842 -0.209645
v 0.086838 0.266842 -0.209645
v 0.209645 0.266842 -0.086838
v 0.209645 0.266842 0.086838
v -0.463919 -0.000000 0.309624
v -0.463919 0.324288 0.309624
v -0.463919 0.000000 -0.309624
v -0.463919 0.324288 -0.309624
v 0.334074 -0.000000 0.309624
v 0.334074 0.324288 0.309624
v 0.334074 0.000000 -0.309624
v 0.334074 0.324288 -0.309624
v 0.209645 0.324288 0.086838
v 0.209645 0.324288 -0.086838
v 0.086838 0.324288 -0.209645
v -0.209645 0.324288 0.086838
v 0.086838 0.324288 0.209645
v -0.086838 0.324288 -0.209645
v -0.209645 0.324288 -0.086838
v -0.086838 0.324288 0.209645
vn -0.0000 1.0000 -0.0000
vn -1.0000 -0.0000 -0.0000
vn -0.0000 -0.0000 -1.0000
vn 1.0000 -0.0000 -0.0000
vn -0.0000 -0.0000 1.0000
vn -0.0000 -1.0000 -0.0000
vn 0.7071 -0.0000 -0.7071
vn -0.7071 -0.0000 0.7071
vn 0.7071 -0.0000 0.7071
vn -0.7071 -0.0000 -0.7071
vt 0.278575 0.023418
vt 0.725032 0.023418
vt 0.270902 0.023418
vt 0.717358 0.023418
vt 0.265476 0.028843
vt 0.711932 0.028843
vt 0.265476 0.036517
vt 0.711932 0.036517
vt 0.270902 0.041943
vt 0.717358 0.041943
vt 0.278575 0.041943
vt 0.725032 0.041943
vt 0.284001 0.036517
vt 0.730457 0.036517
vt 0.284001 0.028843
vt 0.730457 0.028843
vt 0.706435 0.019000
vt 0.706435 0.019000
vt 0.706435 0.046360
vt 0.706435 0.046360
vt 0.735955 0.019000
vt 0.735955 0.019000
vt 0.735955 0.046360
vt 0.735955 0.046360
vt 0.730457 0.028843
vt 0.730457 0.036517
vt 0.725032 0.041943
vt 0.711932 0.028843
vt 0.725032 0.023418
vt 0.717358 0.041943
vt 0.711932 0.036517
vt 0.717358 0.023418
s 1
usemtl City_05.009
f 98/99/35 97/97/35 99/101/35
f 97/97/35 104/111/35 99/101/35
f 104/111/35 103/109/35 99/101/35
f 103/109/35 102/107/35 99/101/35
f 102/107/35 101/105/35 99/101/35
f 101/105/35 100/103/35 99/101/35
f 105/113/36 106/114/36 107/115/36
f 107/115/36 106/114/36 108/116/36
f 107/115/37 108/116/37 111/119/37
f 111/119/37 108/116/37 112/120/37
f 111/119/38 112/120/38 109/117/38
f 109/117/38 112/120/38 110/118/38
f 109/117/39 110/118/39 105/113/39
f 105/113/39 110/118/39 106/114/39
f 107/115/40 111/119/40 105/113/40
f 105/113/40 111/119/40 109/117/40
f 110/118/35 112/120/35 113/121/35
f 113/121/35 112/120/35 114/122/35
f 106/114/35 116/124/35 108/116/35
f 116/124/35 119/127/35 108/116/35
f 114/122/35 112/120/35 115/123/35
f 112/120/35 108/116/35 115/123/35
f 115/123/35 108/116/35 118/126/35
f 108/116/35 119/127/35 118/126/35
f 114/122/36 103/110/36 113/121/36
f 113/121/36 103/110/36 104/112/36
f 113/121/35 117/125/35 110/118/35
f 110/118/35 117/125/35 106/114/35
f 117/125/35 120/128/35 106/114/35
f 120/128/35 116/124/35 106/114/35
f 120/128/41 98/100/41 116/124/41
f 116/124/41 98/100/41 99/102/41
f 115/123/42 102/108/42 114/122/42
f 114/122/42 102/108/42 103/110/42
f 116/124/38 99/102/38 119/127/38
f 119/127/38 99/102/38 100/104/38
f 119/127/43 100/104/43 118/126/43
f 118/126/43 100/104/43 101/106/43
f 113/121/44 104/112/44 117/125/44
f 117/125/44 104/112/44 97/98/44
f 117/125/37 97/98/37 120/128/37
f 120/128/37 97/98/37 98/100/37
f 118/126/39 101/106/39 115/123/39
f 115/123/39 101/106/39 102/108/39
