# Blender 3.4.1
# www.blender.org
mtllib crystal4.mtl
o Crystal_01_LOD1
v -0.000033 0.663879 -0.215495
v 0.158444 -0.005004 -0.055095
v -0.000033 -0.046447 0.001623
v 0.137384 0.663879 -0.115656
v 0.195505 0.524042 -0.063759
v 0.117537 0.022657 0.097236
v -0.103608 0.099065 0.142334
v -0.157439 -0.013710 -0.037113
v -0.007120 0.818208 -0.107508
v -0.204197 0.669675 -0.066023
v 0.054580 0.833899 -0.050408
v 0.125907 0.710743 0.091093
v 0.121765 0.547372 0.167415
v -0.145003 0.617376 0.139897
v -0.097590 0.757940 0.063277
v -0.000033 0.032488 -0.171834
vn -0.0456 0.2607 0.9643
vn 0.0366 0.5719 0.8195
vn 0.0271 0.5997 0.7998
vn 0.3286 -0.9098 0.2535
vn -0.6069 0.7937 -0.0414
vn -0.5545 0.8322 -0.0001
vn -0.4590 0.8857 0.0694
vn -0.5103 0.4772 -0.7155
vn -0.0152 0.1618 0.9867
vn 0.0841 -0.0977 0.9917
vn 0.1540 -0.1322 0.9792
vn 0.9531 0.0284 0.3012
vn 0.9584 -0.0594 0.2791
vn 0.9719 0.1130 0.2063
vn -0.6002 -0.0599 -0.7976
vn -0.6263 -0.0718 -0.7763
vn -0.6354 -0.0760 -0.7684
vn -0.0870 -0.9067 -0.4126
vn 0.0051 -0.9102 -0.4142
vn -0.0027 -0.9102 -0.4142
vn 0.0894 -0.9065 -0.4125
vn -0.1159 -0.7319 0.6715
vn -0.2106 -0.7529 0.6235
vn -0.2041 -0.7517 0.6271
vn -0.2994 -0.7648 0.5705
vn 0.5839 -0.0542 -0.8100
vn 0.5846 -0.0546 -0.8094
vn 0.5864 -0.0556 -0.8081
vn 0.5869 -0.0559 -0.8078
vn -0.3599 0.9232 0.1351
vn 0.5090 0.5131 -0.6911
vn 0.5066 0.5110 -0.6945
vn 0.5076 0.5119 -0.6930
vn 0.5056 0.5101 -0.6958
vn 0.0848 0.7724 0.6295
vn 0.9127 0.4065 -0.0415
vn 0.9481 0.3039 0.0939
vn 0.8895 0.4537 -0.0535
vn 0.9609 -0.0629 0.2695
vn -0.9502 -0.0556 0.3066
vn -0.9633 -0.0757 0.2577
vn -0.9596 -0.0696 0.2726
vn -0.9472 -0.0514 0.3165
vn -0.8121 0.4656 0.3517
vn -0.5908 -0.0557 -0.8049
vt 0.230727 0.925844
vt 0.252603 0.833992
vt 0.230851 0.829147
vt 0.249733 0.925844
vt 0.257772 0.906503
vt 0.247163 0.838899
vt 0.216402 0.847724
vt 0.209512 0.833992
vt 0.229484 0.946238
vt 0.202798 0.926438
vt 0.237995 0.947940
vt 0.247301 0.931698
vt 0.247573 0.909730
vt 0.211776 0.919170
vt 0.217435 0.938523
vt 0.230727 0.838516
s 1
usemtl TropicalEnvironment_01.027
f 14/14/1 12/12/2 15/15/3
f 6/6/4 3/3/4 2/2/4
f 10/10/5 15/15/6 9/9/7
f 9/9/8 1/1/8 10/10/8
f 13/13/9 7/7/10 6/6/11
f 13/13/12 6/6/13 5/5/14
f 10/10/15 16/16/16 8/8/17
f 14/14/1 13/13/9 12/12/2
f 8/8/18 16/16/19 3/3/20
f 16/16/19 2/2/21 3/3/20
f 6/6/22 7/7/23 3/3/24
f 7/7/23 8/8/25 3/3/24
f 2/2/26 16/16/27 5/5/28
f 16/16/27 1/1/29 5/5/28
f 1/1/29 4/4/29 5/5/28
f 15/15/6 11/11/30 9/9/7
f 11/11/31 4/4/32 9/9/33
f 4/4/32 1/1/34 9/9/33
f 13/13/9 14/14/1 7/7/10
f 12/12/2 11/11/35 15/15/3
f 5/5/14 4/4/36 12/12/37
f 12/12/37 4/4/36 11/11/38
f 2/2/39 5/5/14 6/6/13
f 5/5/14 12/12/37 13/13/12
f 7/7/40 14/14/41 10/10/42
f 8/8/43 7/7/40 10/10/42
f 14/14/44 15/15/44 10/10/44
f 10/10/15 1/1/45 16/16/16
