usemtl world_001
v -0.553481 0.062689 0.468171
v -0.645446 0.062689 0.333683
v -0.535205 0.531467 0.42746
v -0.545665 0.608349 0.303082
v -0.625259 0.530619 0.291314
v -0.553481 0.004074 -0.339784
v -0.645446 0.062689 -0.339784
v -0.553481 0.062689 -0.474269
v -0.545665 0.611347 -0.298744
v -0.535205 0.538165 -0.425336
v -0.625259 0.533304 -0.289272
v 0.539296 0.004074 0.333683
v 0.631264 0.062689 0.333683
v 0.539296 0.062689 0.468171
v 0.553803 0.622169 0.305172
v 0.539502 0.546356 0.429715
v 0.627862 0.537803 0.292401
v 0.539296 0.062689 -0.474269
v 0.631264 0.062689 -0.339784
v 0.553803 0.625224 -0.30043
v 0.627862 0.540518 -0.290149
v 0.539502 0.553116 -0.42715
v -0.197418 0.062689 -0.474269
v 0.219212 0.062689 -0.47536
v 0.219212 0.653568 -0.304969
v 0.219212 0.579177 -0.431411
v 0.219212 0.062689 0.46708
v -0.197418 0.062689 0.468171
v 0.219212 0.650695 0.308388
v -0.197418 0.650531 0.309468
v -0.197418 0.572444 0.433665
v 0.219212 0.572607 0.432587
v 0.272752 0.074524 -0.441371
v 0.272752 0.642738 -0.275203
v 0.272752 0.018412 0.30653
v 0.272752 0.565667 0.399365
v 0.272752 0.018412 -0.312629
v 0.272752 0.571524 -0.396245
v 0.272752 0.074524 0.435273
v 0.272752 0.64042 0.280476
v -0.255683 0.018412 -0.312629
v -0.255683 0.571524 -0.396245
v -0.255683 0.074524 0.435273
v -0.255683 0.64042 0.280476
v -0.255683 0.074524 -0.441371
v -0.255683 0.642738 -0.275203
v -0.255683 0.565667 0.399365
v 0.328168 0.572444 0.433665
v 0.328164 0.062689 0.468171
v 0.328168 0.650531 0.309468
v -0.311843 0.579276 -0.430599
v -0.311843 0.062689 -0.474544
v -0.311843 0.653667 -0.304157
v -0.311843 0.004074 0.333413
v 0.328164 0.675427 -0.059074
v -0.311843 0.675427 -0.059074
v -0.553481 0.004074 0.057566
v 0.328164 0.675427 0.057566
v -0.311843 0.675427 0.057566
v -0.645446 0.062689 0.057566
v -0.620262 0.075938 0.00087
v -0.522445 0.621843 0.00087
v 0.600434 0.556631 0.00087
v -0.532695 0.020125 0.00087
v -0.598235 0.546986 0.00087
v 0.529916 0.637879 0.00087
v -0.271552 0.019436 -0.311611
v -0.271552 0.570739 -0.39495
v -0.271552 0.075365 0.43385
v -0.271552 0.63941 0.279557
v -0.271552 0.075365 -0.439931
v -0.271552 0.641722 -0.274305
v -0.271552 0.019436 0.305527
v -0.271552 0.564903 0.39806
v -0.239967 0.019436 -0.311611
v -0.239967 0.570739 -0.39495
v -0.239967 0.075365 0.43385
v -0.239967 0.63941 0.279557
v -0.239967 0.075365 -0.439931
v -0.239967 0.641722 -0.274305
v -0.239967 0.019436 0.305527
v -0.239967 0.564903 0.39806
v -0.239967 0.660013 0.057377
v -0.25576 0.582822 -0.423015
v -0.25576 0.657391 -0.293787
v -0.25576 0.062414 0.46473
v -0.25576 0.003659 0.327282
v -0.25576 0.676607 0.061482
v -0.25576 0.57669 0.426396
v -0.25576 0.654963 0.299466
v -0.25576 0.062414 -0.471195
v -0.25576 0.003659 -0.333747
v 0.256962 0.019436 -0.311611
v 0.256962 0.570739 -0.39495
v 0.256962 0.075365 0.43385
v 0.256962 0.63941 0.279557
v 0.256962 0.075365 -0.439931
v 0.256962 0.641722 -0.274305
v 0.256962 0.019436 0.305527
v 0.256962 0.564903 0.39806
v 0.256962 0.660013 -0.058883
v 0.288548 0.019436 -0.311611
v 0.288548 0.570739 -0.39495
v 0.288548 0.075365 0.43385
v 0.288548 0.63941 0.279557
v 0.288548 0.075365 -0.439931
v 0.288548 0.641722 -0.274305
v 0.288548 0.019436 0.305527
v 0.288548 0.564903 0.39806
v 0.288548 0.660013 0.057377
v 0.272755 0.582822 -0.423015
v 0.272755 0.657391 -0.293787
v 0.272755 0.062414 0.46473
v 0.272755 0.003659 0.327282
v 0.272755 0.676607 0.061482
v 0.272755 0.57669 0.426396
v 0.272755 0.654963 0.299466
v 0.272755 0.062414 -0.471195
v 0.272755 0.003659 -0.333747
v 0.27208 0.669171 0.016663
v -0.255306 0.667736 0.016663
v -0.620174 0.07606 0.016659
v -0.526298 0.620944 0.017041
v 0.598489 0.556348 0.017621
v 0.521508 0.023758 0.016663
v -0.536353 0.021645 0.016663
v -0.60271 0.547909 0.01664
v 0.609116 0.073527 0.023886
v 0.529999 0.631798 0.016663
v 0.223431 0.654195 0.015816
v -0.202312 0.656751 0.016663
v 0.334492 0.65264 0.016663
v -0.317783 0.656988 0.016451
v -0.620174 0.07606 -0.014926
v -0.526298 0.620944 -0.014545
v 0.598489 0.556348 -0.013965
v 0.521508 0.023758 -0.014923
v -0.536353 0.021645 -0.014923
v -0.60271 0.547909 -0.014946
v 0.609177 0.073522 -0.007698
v 0.529999 0.631798 -0.014923
v 0.223431 0.654195 -0.015769
v -0.202312 0.656751 -0.014923
v 0.334492 0.65264 -0.014923
v -0.317783 0.656988 -0.015134
v -0.256164 0.684697 0.000845
v -0.543144 -0.005228 0.000845
v -0.647777 0.06263 0.000844
v 0.546815 0.656258 0.000844
v 0.628037 0.56221 0.000432
v 0.273163 0.685513 0.000845
v 0.531975 -0.007262 0.000845
v 0.634686 0.062278 0.006648
v -0.539333 0.63862 0.001223
v -0.626026 0.552636 0.000824
vn -0.5586279 -0.3768959 0.7388399
vn -0.8710899 -0.456754 0.180494
vn -0.3650571 0.4926581 0.7899501
vn -0.460075 0.857332 0.230896
vn -0.8743631 0.333063 0.352928
vn -0.278617 -0.9513849 -0.131299
vn -0.8770107 -0.3342159 -0.3451839
vn -0.298859 -0.5115 -0.8056371
vn -0.3994759 0.8536388 -0.3342449
vn -0.585507 0.407853 -0.700598
vn -0.8923398 0.4049239 -0.1994149
vn 0.278534 -0.951409 0.1313
vn 0.8695148 -0.3588909 0.3393249
vn 0.2929589 -0.5252139 0.7989528
vn 0.3966761 0.8456252 0.3571641
vn 0.5917462 0.3710271 0.7156643
vn 0.9156839 0.349953 0.197626
vn 0.5598109 -0.3862319 -0.7331008
vn 0.8639816 -0.4708767 -0.1783559
vn 0.469715 0.855508 -0.217885
vn 0.8942658 0.2919289 -0.3392139
vn 0.3606279 0.5022849 -0.7859118
vn -0.1808209 -0.5083879 -0.8419297
vn 0.3917531 -0.4841371 -0.7823942
vn 0.1865441 0.9372934 -0.2944191
vn 0.1854189 0.5293849 -0.8278717
vn 0.189123 -0.5150431 0.8360401
vn -0.3580389 -0.4956019 0.7913197
vn 0.15518 0.935262 0.318126
vn -0.1697979 0.9339755 0.3144178
vn -0.1692171 0.5103492 0.8431544
vn 0.3491448 0.4899528 0.7987767
vn -0.2010291 -0.5199662 -0.8301942
vn -0.020438 0.9544331 -0.297724
vn -0.022605 -0.9798163 0.198618
vn -0.184565 0.5207891 0.8334953
vn 0.03449799 -0.9795996 -0.1979759
vn 0.204565 0.539534 -0.8167351
vn 0.2113881 -0.5247942 0.8245642
vn 0.02981899 0.9485308 0.3152779
vn 0.03193801 -0.9795552 -0.198624
vn 0.190008 0.5393601 -0.8203582
vn 0.2089309 -0.5244959 0.8253798
vn 0.03055999 0.9483818 0.3156549
vn -0.1939381 -0.5188123 -0.8325995
vn -0.02003201 0.9542562 -0.2983181
vn -0.173008 0.5210581 0.835803
vn -0.129474 0.5150781 0.8473081
vn -0.373298 -0.4933071 0.7856822
vn -0.115399 0.9414142 0.3168951
vn 0.106087 0.5351929 -0.8380419
vn 0.372212 -0.486704 -0.790302
vn 0.08820998 0.9499068 -0.2998269
vn 0.178303 -0.9641849 0.196356
vn -0.02446199 0.9984075 0.05083197
vn 0.033963 0.9957641 0.08544301
vn -0.275817 -0.953913 -0.118215
vn -0.06315599 0.9949098 -0.07852197
vn -0.009574004 0.9986923 -0.05022102
vn -0.8408279 -0.4395909 -0.315861
vn -0.875683 -0.456606 0.157132
vn -0.4514471 0.8855311 0.109682
vn 0.9250323 0.3542011 0.13732
vn -0.2710859 -0.9539258 -0.1286
vn -0.9010122 0.4035331 -0.159179
vn 0.4526911 0.8821752 -0.12976
vn -0.9271193 -0.3697391 -0.06118102
vn -0.9726612 0.09956703 -0.209801
vn -0.9749998 -0.130586 0.179785
vn -0.9438482 0.308421 0.118436
vn -0.9755625 -0.1277231 -0.1787871
vn -0.9342543 0.3438361 -0.09458104
vn -0.9361421 -0.341923 0.08201501
vn -0.9728489 0.09374399 0.211606
vn 0.9257522 -0.3728191 -0.06315701
vn 0.965588 0.183639 -0.184164
vn 0.9738057 -0.134902 0.1830409
vn 0.9259746 0.3688788 0.08061797
vn 0.9743196 -0.1319109 -0.1824849
vn 0.9337596 0.3444219 -0.09729596
vn 0.9151801 -0.4008151 0.04233901
vn 0.9663984 0.1761001 0.1872511
vn 0.9096808 0.4135869 -0.03776999
vn 0.002832 0.541422 -0.8407461
vn 0.172455 0.941476 -0.289624
vn -0.2703801 -0.5019884 0.8215243
vn 0.01838101 -0.9805994 0.1951591
vn 0.001948001 0.9994095 -0.03430502
vn 0.002071 0.5209361 0.8535931
vn 0.014902 0.9502662 0.3110821
vn -0.2727773 -0.4940097 -0.8255585
vn 0.167856 -0.966875 -0.192294
vn -0.9271193 -0.3697391 -0.06118102
vn -0.9726612 0.09956703 -0.209801
vn -0.9749998 -0.130586 0.179785
vn -0.9438482 0.308421 0.118436
vn -0.9755625 -0.1277231 -0.1787871
vn -0.9342543 0.3438361 -0.09458104
vn -0.9361421 -0.341923 0.08201501
vn -0.9728489 0.09374399 0.211606
vn -0.9157967 0.4002959 0.03285599
vn 0.9257522 -0.3728191 -0.06315701
vn 0.965588 0.183639 -0.184164
vn 0.9738055 -0.1349019 0.1830419
vn 0.9259746 0.3688788 0.08061797
vn 0.9743196 -0.1319109 -0.1824849
vn 0.9337596 0.3444219 -0.09729596
vn 0.9151801 -0.4008151 0.04233901
vn 0.9663984 0.1761001 0.1872511
vn 0.9156694 0.4004571 -0.03440502
vn 0.002832 0.541422 -0.8407461
vn 0.1724551 0.9414763 -0.2896231
vn -0.2703806 -0.5019886 0.821524
vn 0.01838101 -0.9805994 0.1951591
vn 0.001785 0.9996549 -0.026213
vn 0.002070999 0.5209368 0.8535927
vn 0.01490199 0.9502666 0.3110808
vn -0.2727771 -0.4940096 -0.8255586
vn 0.167856 -0.966875 -0.192294
vn -0.02509801 0.3597031 0.9327292
vn -0.009896 0.325097 0.9456289
vn -0.165096 -0.08265202 0.9828082
vn -0.1247561 0.2536831 0.9592085
vn 0.198537 0.112788 0.973582
vn 0.010614 -0.1739649 0.9846947
vn -0.03696901 -0.2271861 0.9731494
vn -0.204949 0.134784 0.9694479
vn 0.170894 -0.108276 0.979322
vn 0.061564 0.196645 0.9785401
vn 0.294232 -0.955734 -0
vn 0.038405 0.296652 0.9542131
vn -0.2560389 -0.9666665 0
vn 0.169541 -0.985523 -0
vn -0.156052 -0.080806 -0.984438
vn -0.119434 0.2463659 -0.9617897
vn 0.118205 0.02012101 -0.9927853
vn 0.06355503 -0.1632931 -0.9845285
vn -0.07448901 -0.180886 -0.9806792
vn -0.203419 0.07065501 -0.9765391
vn 0.119875 -0.029692 -0.992345
vn 0.08967397 0.141581 -0.9858567
vn 0.294232 -0.955734 0
vn -0.202973 -0.979184 0
vn -0.256039 -0.966667 -0
vn 0.169541 -0.9855232 0
vn 0.011074 0.9998676 0.011921
vn -0.2834519 -0.9585905 0.02755499
vn -0.8623589 -0.448285 0.235325
vn 0.4537161 0.8911412 0.002988
vn 0.9341786 0.3562149 0.02052399
vn -0.02245599 0.9997367 -0.004718999
vn 0.276263 -0.9378519 -0.21003
vn 0.8448591 -0.4613472 0.2708724
vn -0.446447 0.8742591 -0.190673
vn -0.9103064 0.4139342 0.0008730004
vn 0.114737 -0.9933959 0
vn 0.04608602 -0.9989374 0
vn -0.02897399 0.255504 0.9663737
vn -0.2029741 -0.9791842 0
vn 0.05565098 0.2927619 0.9545646
vn -0.04975899 0.290298 0.9556417
vn -0.05002799 0.3192869 -0.9463367
vn 0.018401 0.26898 -0.96297
vn 0.03528898 0.2241759 -0.9739095
vn -0.04827401 0.3059241 -0.9508312
vt 0.3446 0.0328
vt 0.3437 0.0326
vt 0.3443 0.0387
vt 0.3434 0.0396
vt 0.3433 0.0385
vt 0.339 0.0319
vt 0.339 0.0326
vt 0.3382 0.0319
vt 0.3514 0.0219
vt 0.3504 0.0221
vt 0.3393 0.0385
vt 0.3437 0.0223
vt 0.3574 0.0385
vt 0.3446 0.0224
vt 0.345 0.0404
vt 0.3459 0.0403
vt 0.3571 0.0326
vt 0.3519 0.0383
vt 0.3391 0.0216
vt 0.357 0.0216
vt 0.3531 0.0326
vt 0.3522 0.0322
vt 0.3446 0.0248
vt 0.3381 0.0253
vt 0.3519 0.0281
vt 0.3509 0.0282
vt 0.3519 0.0377
vt 0.3446 0.0287
vt 0.3446 0.042
vt 0.3446 0.0343
vt 0.3456 0.0343
vt 0.3446 0.0407
vt 0.3384 0.0249
vt 0.3441 0.0411
vt 0.3435 0.0249
vt 0.3449 0.0407
vt 0.3392 0.0249
vt 0.3509 0.0286
vt 0.3517 0.0381
vt 0.3434 0.0412
vt 0.3392 0.0292
vt 0.3441 0.0411
vt 0.3444 0.0292
vt 0.3447 0.0339
vt 0.3448 0.0243
vt 0.3441 0.0399
vt 0.3457 0.0339
vt 0.3438 0.0399
vt 0.3446 0.0245
vt 0.3438 0.0412
vt 0.3438 0.0412
vt 0.3381 0.0296
vt 0.3438 0.0399
vt 0.3437 0.0296
vt 0.3554 0.0235
vt 0.3554 0.0285
vt 0.3452 0.0407
vt 0.3547 0.0235
vt 0.3547 0.0285
vt 0.3452 0.0417
vt 0.3449 0.0417
vt 0.3549 0.0303
vt 0.3551 0.0323
vt 0.3414 0.0317
vt 0.3413 0.0387
vt 0.3551 0.0312
vt 0.0988 0.9747
vt 0.0996 0.9613001
vt 0.0923 0.9733
vt 0.09370001 0.9596
vt 0.1 0.9733
vt 0.0985 0.9596
vt 0.0935 0.9747
vt 0.09260001 0.9614
vt 0.0907 0.9591
vt 0.0914 0.9725
vt 0.0842 0.9605
vt 0.0855 0.9742
vt 0.0918 0.9605
vt 0.0903 0.9742
vt 0.0853 0.9591
vt 0.0845 0.9723
vt 0.0875 0.9747
vt 0.0916 0.9728
vt 0.0905 0.9746
vt 0.0839 0.9602
vt 0.08510001 0.9587001
vt 0.0956 0.9587001
vt 0.0924 0.9612
vt 0.0853 0.9745001
vt 0.1002 0.9736
vt 0.0909 0.9587
vt 0.0988 0.9747
vt 0.0996 0.9613001
vt 0.0923 0.9733
vt 0.09370001 0.9596
vt 0.1 0.9733
vt 0.0985 0.9596
vt 0.0935 0.9747
vt 0.09260001 0.9614
vt 0.09660001 0.9591
vt 0.0907 0.9591
vt 0.0914 0.9725
vt 0.0842 0.9605
vt 0.0855 0.9742
vt 0.0918 0.9605
vt 0.0903 0.9742
vt 0.0853 0.9591
vt 0.0845 0.9723
vt 0.0875 0.9747
vt 0.0916 0.9728
vt 0.0905 0.9746
vt 0.0839 0.9602
vt 0.08510001 0.9587001
vt 0.0956 0.9587001
vt 0.0924 0.9612
vt 0.0853 0.9745001
vt 0.1002 0.9736
vt 0.0909 0.9587
vt 0.0936 0.9692001
vt 0.09350001 0.9638001
vt 0.0996 0.9598
vt 0.0939 0.9612
vt 0.09460001 0.9726
vt 0.1 0.9721
vt 0.1 0.9605
vt 0.0947 0.9605
vt 0.0993 0.9731
vt 0.09390001 0.9719
vt 0.0936 0.9687
vt 0.0936 0.9644
vt 0.0936 0.9699001
vt 0.0935 0.9632
vt 0.0926 0.9732
vt 0.087 0.9718
vt 0.0877 0.9604
vt 0.0931 0.9608
vt 0.0931 0.9725
vt 0.08780001 0.9725
vt 0.0924 0.9599
vt 0.08690001 0.9611
vt 0.0866 0.9643
vt 0.0866 0.9687
vt 0.0867 0.9632
vt 0.0866 0.9699001
vt 0.09330001 0.9638001
vt 0.09330001 0.9727
vt 0.0927 0.9735
vt 0.08670001 0.9609
vt 0.08760001 0.9601001
vt 0.09330001 0.9693
vt 0.1002 0.9722
vt 0.0925 0.9596
vt 0.0938 0.9611
vt 0.0877 0.9727
vt 0.3446 0.0319
vt 0.3519 0.0311
vt 0.3461 0.0316
vt 0.3451 0.0315
vt 0.3529 0.0305
vt 0.3391 0.0326
vt 0.3381 0.0328
vt 0.3446 0.0216
vt 0.3393 0.0396
vt 0.3569 0.0305
vt 0.3384 0.0388
vt 0.3437 0.0216
vt 0.3583 0.0383
vt 0.3519 0.0407
vt 0.3572 0.0314
vt 0.3529 0.0216
vt 0.3581 0.0323
vt 0.3382 0.0224
vt 0.3446 0.0311
vt 0.3528 0.0385
vt 0.3531 0.0314
vt 0.3516 0.0308
vt 0.3506 0.0307
vt 0.3382 0.0288
vt 0.3446 0.0282
vt 0.3571 0.0243
vt 0.3444 0.0412
vt 0.3444 0.0399
vt 0.3446 0.0253
vt 0.3519 0.0343
vt 0.3529 0.0243
vt 0.3446 0.0377
vt 0.3529 0.0277
vt 0.3519 0.0277
vt 0.3456 0.0377
vt 0.3448 0.0286
vt 0.3568 0.0239
vt 0.3518 0.0285
vt 0.3457 0.0381
vt 0.3434 0.0399
vt 0.3441 0.0399
vt 0.3444 0.0249
vt 0.3449 0.0419
vt 0.3531 0.0239
vt 0.3509 0.0243
vt 0.3517 0.0339
vt 0.3531 0.0281
vt 0.3384 0.0292
vt 0.3518 0.0242
vt 0.3568 0.0281
vt 0.3521 0.0281
vt 0.3456 0.0385
vt 0.3519 0.0385
vt 0.3529 0.0235
vt 0.3446 0.0385
vt 0.3509 0.0239
vt 0.3446 0.0239
vt 0.3571 0.0285
vt 0.3519 0.0239
vt 0.3417 0.0319
vt 0.3418 0.0326
vt 0.3417 0.0326
vt 0.3414 0.0329
vt 0.3414 0.0324
vt 0.3413 0.0398
vt 0.3449 0.0407
vt 0.355 0.0218
vt 0.09980001 0.9610001
vt 0.0987 0.9592
vt 0.0921 0.9736
vt 0.09330001 0.9751
vt 0.0874 0.9751
vt 0.08420001 0.9726
vt 0.0935 0.9593
vt 0.0921 0.9602
vt 0.099 0.9751
vt 0.09980001 0.9610001
vt 0.0987 0.9592
vt 0.0921 0.9736
vt 0.09330001 0.9751
vt 0.0874 0.9751
vt 0.08420001 0.9726
vt 0.0935 0.9593
vt 0.0921 0.9602
vt 0.099 0.9751
vt 0.0864 0.9693
vt 0.1003 0.9604
vt 0.0997 0.9596
vt 0.0936 0.9721
vt 0.0945 0.9729
vt 0.0864 0.9638001
vt 0.0932 0.9607
vt 0.0994 0.9734
vt 0.0869 0.972
vt 0.0947 0.9604
f 43/201/43 47/47/47 3/158/3
f 43/201/43 3/158/3 1/157/1
f 150/245/150 128/128/128 153/248/153
f 119/119/119 102/102/102 114/114/114
f 117/238/117 100/100/100 116/116/116
f 90/229/90 74/74/74 89/89/89
f 100/100/100 95/95/95 113/234/113
f 141/141/141 150/150/150 136/136/136
f 33/191/33 38/38/38 22/178/22
f 33/191/33 22/178/22 18/174/18
f 121/121/157 145/145/145 143/143/143
f 121/121/121 130/130/158 151/151/151
f 6/6/6 7/161/7 8/8/8
f 127/127/127 123/123/123 154/154/154
f 12/12/12 13/167/13 14/14/14
f 152/247/152 147/147/147 137/137/137
f 37/37/37 18/173/18 19/19/19
f 126/126/126 148/243/148 147/242/147
f 57/215/57 54/54/54 2/2/2
f 154/154/154 155/250/155 127/127/127
f 1/1/1 3/3/3 5/5/5
f 99/99/99 114/235/114 113/234/113
f 145/145/165 146/241/146 143/143/163
f 100/100/100 113/234/113 116/116/116
f 10/166/10 8/162/8 7/7/7
f 152/247/152 140/140/140 153/153/153
f 88/227/88 83/83/83 80/80/80
f 94/94/94 118/118/118 97/97/97
f 67/67/67 87/226/87 73/73/73
f 125/125/125 126/126/126 147/242/147
f 151/151/151 129/129/129 149/244/149
f 21/21/21 18/18/18 22/22/22
f 79/79/79 75/75/75 91/230/91
f 117/117/117 116/237/116 109/109/109
f 132/132/132 142/142/142 144/144/144
f 66/66/66 17/17/17 63/63/63
f 16/172/16 14/168/14 13/13/13
f 152/152/152 125/125/125 147/242/147
f 64/221/64 60/60/60 61/61/61
f 129/129/129 150/245/150 149/244/149
f 135/135/135 154/249/154 145/145/165
f 121/121/121 151/151/151 146/146/146
f 66/222/66 59/59/59 58/58/58
f 62/220/62 65/65/65 5/5/5
f 90/90/90 82/82/82 78/78/78
f 88/227/88 78/78/78 83/83/83
f 120/120/156 130/130/130 142/142/142
f 138/138/138 148/148/148 134/134/134
f 40/198/40 29/29/29 32/32/32
f 132/132/160 129/129/129 151/151/151
f 29/187/29 30/30/30 31/31/31
f 29/187/29 31/31/31 32/190/32
f 88/227/88 90/90/90 78/78/78
f 101/101/101 96/96/96 115/115/115
f 106/106/106 118/239/118 103/103/103
f 104/104/104 113/113/113 108/108/108
f 46/204/46 25/25/25 42/200/42
f 119/119/119 118/239/118 102/102/102
f 112/112/112 107/107/107 103/103/103
f 25/25/25 26/26/26 42/200/42
f 154/249/154 139/139/139 155/155/155
f 133/133/161 154/154/154 123/123/123
f 143/143/163 146/241/146 151/246/151
f 94/94/94 111/232/111 118/118/118
f 115/236/115 117/117/117 105/105/105
f 106/106/106 102/102/102 118/239/118
f 23/23/23 42/200/42 26/26/26
f 152/152/152 153/248/153 128/128/128
f 64/64/64 61/219/61 7/161/7
f 58/58/58 29/186/29 40/199/40
f 58/58/58 59/59/59 30/188/30
f 58/58/58 30/188/30 29/186/29
f 132/132/160 151/151/151 120/120/120
f 122/122/122 127/127/127 148/243/148
f 27/27/27 32/190/32 31/31/31
f 98/98/98 112/233/112 94/94/94
f 49/208/49 48/207/48 36/194/36
f 143/143/163 151/246/151 142/142/162
f 20/176/20 66/66/66 63/63/63
f 58/58/58 40/199/40 50/209/50
f 92/92/92 75/75/75 87/87/87
f 124/124/124 150/245/150 129/129/129
f 50/50/50 40/40/40 36/195/36
f 50/50/50 36/195/36 48/48/48
f 79/79/79 91/230/91 76/76/76
f 68/68/68 91/91/91 71/71/71
f 68/68/68 84/223/84 91/91/91
f 132/132/132 120/120/156 142/142/142
f 25/182/25 34/34/34 38/196/38
f 127/127/127 155/250/155 148/243/148
f 142/142/162 149/149/149 144/144/164
f 96/96/96 100/100/100 117/238/117
f 131/131/159 121/121/157 143/143/143
f 120/120/120 151/151/151 130/130/158
f 53/53/53 46/46/46 42/42/42
f 145/145/165 154/249/154 146/241/146
f 77/77/77 82/82/82 86/86/86
f 116/237/116 113/113/113 109/109/109
f 89/228/89 86/86/86 82/82/82
f 137/137/137 147/147/147 138/138/138
f 30/188/30 44/202/44 47/206/47
f 30/188/30 47/206/47 31/189/31
f 72/72/72 85/224/85 68/68/68
f 96/96/96 117/238/117 115/115/115
f 85/85/85 80/80/80 76/76/76
f 59/59/59 44/202/44 30/188/30
f 28/185/28 31/31/31 47/47/47
f 101/101/101 115/115/115 112/233/112
f 15/15/15 50/210/50 48/207/48
f 121/121/157 133/133/133 145/145/145
f 111/111/111 103/103/103 118/239/118
f 112/233/112 111/232/111 94/94/94
f 66/222/66 58/58/58 50/209/50
f 66/222/66 50/209/50 15/171/15
f 14/169/14 16/16/16 48/207/48
f 14/169/14 48/207/48 49/208/49
f 138/138/138 147/147/147 148/148/148
f 64/64/64 12/12/12 35/35/35
f 151/246/151 149/149/149 142/142/162
f 110/110/110 107/107/107 112/112/112
f 34/193/34 20/177/20 38/38/38
f 73/73/73 86/225/86 69/69/69
f 85/224/85 84/223/84 68/68/68
f 133/133/161 146/146/146 154/154/154
f 84/84/84 76/76/76 91/230/91
f 73/73/73 87/226/87 86/225/86
f 131/131/131 130/130/158 121/121/121
f 155/155/155 139/139/139 148/148/148
f 9/9/9 53/214/53 51/211/51
f 152/247/152 137/137/137 140/140/140
f 8/163/8 10/10/10 51/211/51
f 8/163/8 51/211/51 52/212/52
f 44/44/44 4/159/4 47/47/47
f 114/114/114 108/108/108 113/113/113
f 98/98/98 101/101/101 112/233/112
f 136/136/136 150/150/150 140/140/140
f 20/20/20 55/55/55 66/222/66
f 59/59/59 4/160/4 44/202/44
f 114/114/114 102/102/102 108/108/108
f 115/236/115 105/105/105 110/110/110
f 93/93/93 119/240/119 114/235/114
f 144/144/164 149/149/149 141/141/141
f 90/90/90 89/228/89 82/82/82
f 139/139/139 134/134/134 148/148/148
f 92/92/92 91/230/91 75/75/75
f 122/122/122 148/243/148 126/126/126
f 67/67/67 92/231/92 87/226/87
f 67/67/67 91/91/91 92/231/92
f 93/93/93 114/235/114 99/99/99
f 55/55/55 56/56/56 66/222/66
f 128/128/128 125/125/125 152/152/152
f 72/72/72 88/88/88 85/224/85
f 70/70/70 74/74/74 90/229/90
f 85/85/85 76/76/76 84/84/84
f 93/93/93 118/118/118 119/240/119
f 60/217/60 65/65/65 61/218/61
f 112/112/112 103/103/103 111/111/111
f 25/181/25 56/56/56 55/55/55
f 93/93/93 97/97/97 118/118/118
f 37/37/37 12/12/12 64/64/64
f 72/72/72 70/70/70 88/88/88
f 141/141/141 149/149/149 150/150/150
f 77/77/77 86/86/86 81/81/81
f 150/150/150 153/153/153 140/140/140
f 70/70/70 90/229/90 88/88/88
f 121/121/121 146/146/146 133/133/161
f 67/67/67 71/71/71 91/91/91
f 85/85/85 88/227/88 80/80/80
f 12/12/12 37/37/37 19/19/19
f 112/112/112 115/236/115 110/110/110
f 128/128/128 150/245/150 124/124/124
f 74/74/74 69/69/69 86/225/86
f 6/6/6 64/64/64 7/161/7
f 104/104/104 109/109/109 113/113/113
f 74/74/74 86/225/86 89/89/89
f 61/218/61 65/65/65 7/7/7
f 53/213/53 9/165/9 62/62/62
f 53/213/53 62/62/62 56/56/56
f 87/87/87 81/81/81 86/86/86
f 117/117/117 109/109/109 105/105/105
f 87/87/87 75/75/75 81/81/81
f 99/99/99 113/234/113 95/95/95
f 135/135/135 139/139/139 154/249/154
f 32/190/32 39/39/39 36/194/36
f 36/36/36 40/198/40 32/32/32
f 57/57/57 60/60/60 64/221/64
f 64/64/64 35/35/35 57/215/57
f 42/200/42 52/212/52 51/211/51
f 51/51/51 53/53/53 42/42/42
f 26/183/26 25/182/25 38/196/38
f 38/38/38 24/180/24 26/26/26
f 22/178/22 38/38/38 20/177/20
f 20/176/20 21/21/21 22/22/22
f 3/158/3 47/47/47 4/159/4
f 4/4/4 5/5/5 3/3/3
f 10/166/10 7/7/7 11/11/11
f 9/9/9 51/211/51 10/10/10
f 16/172/16 13/13/13 17/17/17
f 15/15/15 48/207/48 16/16/16
f 13/167/13 12/12/12 19/19/19
f 63/63/63 17/17/17 13/13/13
f 5/5/5 65/65/65 60/217/60
f 60/216/60 57/215/57 2/2/2
f 49/49/49 35/35/35 12/12/12
f 49/49/49 12/12/12 14/14/14
f 1/156/1 2/2/2 54/54/54
f 1/156/1 54/54/54 43/43/43
f 9/164/9 10/166/10 11/11/11
f 9/164/9 11/11/11 62/220/62
f 19/175/19 18/18/18 21/21/21
f 19/175/19 63/63/63 13/13/13
f 23/23/23 26/26/26 24/180/24
f 37/37/37 64/64/64 41/41/41
f 15/170/15 16/172/16 17/17/17
f 15/170/15 17/17/17 66/66/66
f 39/39/39 32/190/32 27/27/27
f 27/184/27 35/35/35 39/197/39
f 33/33/33 18/173/18 37/37/37
f 24/24/24 37/37/37 41/41/41
f 2/2/2 1/1/1 5/5/5
f 2/2/2 5/5/5 60/217/60
f 62/220/62 5/5/5 4/4/4
f 4/160/4 59/59/59 62/62/62
f 56/56/56 62/62/62 59/59/59
f 56/56/56 59/59/59 66/222/66
f 46/205/46 53/213/53 56/56/56
f 46/205/46 56/56/56 25/181/25
f 34/192/34 25/181/25 55/55/55
f 34/192/34 55/55/55 20/20/20
f 11/11/11 7/7/7 65/65/65
f 11/11/11 65/65/65 62/220/62
f 23/179/23 24/24/24 41/41/41
f 52/52/52 6/6/6 8/8/8
f 23/179/23 41/41/41 45/203/45
f 45/45/45 42/200/42 23/23/23
f 24/180/24 38/38/38 33/191/33
f 33/33/33 37/37/37 24/24/24
f 52/212/52 42/200/42 45/45/45
f 45/203/45 41/41/41 52/52/52
f 28/28/28 54/54/54 27/184/27
f 27/27/27 31/31/31 28/185/28
f 54/54/54 57/215/57 35/35/35
f 54/54/54 35/35/35 27/184/27
f 49/208/49 36/194/36 39/39/39
f 39/197/39 35/35/35 49/49/49
f 28/185/28 47/47/47 43/201/43
f 43/43/43 54/54/54 28/28/28
f 41/41/41 64/64/64 6/6/6
f 41/41/41 6/6/6 52/52/52
f 21/21/21 20/176/20 63/63/63
f 21/21/21 63/63/63 19/175/19
