# Blender 3.4.1
# www.blender.org
mtllib tris.mtl
o Table_06
v -0.002249 -0.000000 0.002249
v -0.000481 0.000334 0.000481
v -0.002249 0.000000 -0.002249
v -0.000481 0.000334 -0.000481
v 0.002249 -0.000000 0.002249
v 0.000481 0.000334 0.000481
v 0.002249 0.000000 -0.002249
v 0.000481 0.000334 -0.000481
v -0.002249 0.000334 0.002249
v -0.002249 0.000334 -0.002249
v 0.002249 0.000334 -0.002249
v 0.002249 0.000334 0.002249
v -0.000481 0.007696 0.000481
v -0.000481 0.007696 -0.000481
v 0.000481 0.007696 -0.000481
v 0.000481 0.007696 0.000481
v -0.000598 0.008257 0.000598
v -0.000598 0.008257 -0.000598
v 0.000598 0.008257 -0.000598
v 0.000598 0.008257 0.000598
v -0.005778 0.007696 0.005778
v -0.005778 0.007696 -0.005778
v 0.005778 0.007696 -0.005778
v 0.005778 0.007696 0.005778
v -0.005778 0.008257 0.005778
v -0.005778 0.008257 -0.005778
v 0.005778 0.008257 -0.005778
v 0.005778 0.008257 0.005778
vn -1.0000 -0.0000 -0.0000
vn -0.0000 -0.0000 -1.0000
vn 1.0000 -0.0000 -0.0000
vn -0.0000 -0.0000 1.0000
vn -0.0000 -1.0000 -0.0000
vn -0.0000 1.0000 -0.0000
vt 0.021152 0.147541
vt 0.029067 0.150012
vt 0.472423 0.018245
vt 0.021152 0.147541
vt 0.029067 0.150012
vt 0.472423 0.018245
vt 0.041438 0.147541
vt 0.033523 0.150012
vt 0.476879 0.018245
vt 0.041438 0.147541
vt 0.033523 0.150012
vt 0.476879 0.018245
vt 0.021152 0.150012
vt 0.021152 0.150012
vt 0.041438 0.150012
vt 0.041438 0.150012
vt 0.472423 0.044467
vt 0.029272 0.167029
vt 0.472423 0.044467
vt 0.029272 0.167029
vt 0.476879 0.044467
vt 0.033318 0.167029
vt 0.476879 0.044467
vt 0.033318 0.167029
vt 0.029272 0.168928
vt 0.029272 0.168928
vt 0.033318 0.168928
vt 0.033318 0.168928
vt 0.011735 0.167029
vt 0.011735 0.167029
vt 0.050854 0.167029
vt 0.050854 0.167029
vt 0.011735 0.168928
vt 0.011735 0.168928
vt 0.050854 0.168928
vt 0.050854 0.168928
s 1
usemtl City_05.015
f 1/1/1 9/13/1 3/4/1
f 3/4/1 9/13/1 10/14/1
f 3/4/2 10/14/2 7/10/2
f 7/10/2 10/14/2 11/15/2
f 7/10/3 11/15/3 5/7/3
f 5/7/3 11/15/3 12/16/3
f 5/7/4 12/16/4 1/1/4
f 1/1/4 12/16/4 9/13/4
f 3/4/5 7/10/5 1/1/5
f 1/1/5 7/10/5 5/7/5
f 6/9/3 8/12/3 16/23/3
f 16/23/3 8/12/3 15/21/3
f 2/2/6 4/5/6 9/13/6
f 9/13/6 4/5/6 10/14/6
f 4/5/6 8/11/6 10/14/6
f 10/14/6 8/11/6 11/15/6
f 8/11/6 6/8/6 11/15/6
f 11/15/6 6/8/6 12/16/6
f 6/8/6 2/2/6 12/16/6
f 12/16/6 2/2/6 9/13/6
f 27/35/6 26/34/6 19/27/6
f 18/26/6 19/27/6 26/34/6
f 4/6/1 2/3/1 14/19/1
f 14/19/1 2/3/1 13/17/1
f 2/3/4 6/9/4 13/17/4
f 13/17/4 6/9/4 16/23/4
f 8/12/2 4/6/2 15/21/2
f 15/21/2 4/6/2 14/19/2
f 19/27/6 18/26/6 20/28/6
f 20/28/6 18/26/6 17/25/6
f 21/29/5 22/30/5 13/18/5
f 14/20/5 13/18/5 22/30/5
f 25/33/6 28/36/6 17/25/6
f 20/28/6 17/25/6 28/36/6
f 23/31/5 24/32/5 15/22/5
f 16/24/5 15/22/5 24/32/5
f 24/32/3 23/31/3 28/36/3
f 28/36/3 23/31/3 27/35/3
f 22/30/1 21/29/1 26/34/1
f 26/34/1 21/29/1 25/33/1
f 21/29/4 24/32/4 25/33/4
f 25/33/4 24/32/4 28/36/4
f 23/31/2 22/30/2 27/35/2
f 27/35/2 22/30/2 26/34/2
f 24/32/5 21/29/5 16/24/5
f 13/18/5 16/24/5 21/29/5
f 22/30/5 23/31/5 14/20/5
f 15/22/5 14/20/5 23/31/5
f 28/36/6 27/35/6 20/28/6
f 19/27/6 20/28/6 27/35/6
f 26/34/6 25/33/6 18/26/6
f 17/25/6 18/26/6 25/33/6
