# Blender 3.4.1
# www.blender.org
mtllib tris.mtl
o Fountain_01
v -0.008472 0.004260 -0.021180
v -0.008472 0.000000 -0.021180
v -0.021180 0.000000 -0.008472
v -0.021180 0.004260 -0.008472
v 0.000016 0.000000 -0.008472
v 0.000016 0.000000 -0.022027
v 0.000016 0.004260 -0.022027
v -0.017001 0.000000 -0.009517
v -0.009517 0.000000 -0.017001
v -0.005000 -0.000000 -0.009628
v -0.009626 -0.000000 -0.005000
v -0.012329 -0.000000 -0.012329
v -0.009517 0.004260 -0.017001
v -0.017001 0.004260 -0.009517
v -0.012329 0.004260 -0.012329
v -0.019251 0.004260 -0.007445
v -0.007441 0.004260 -0.019255
v -0.008412 0.004260 -0.015371
v -0.011025 0.004260 -0.011029
v -0.015367 0.004260 -0.008415
v -0.019251 0.003187 -0.007445
v -0.007441 0.003187 -0.019255
v -0.004213 0.003187 -0.008519
v -0.008412 0.003187 -0.015371
v -0.011025 0.003187 -0.011029
v -0.015367 0.003187 -0.008415
v -0.008513 0.003187 -0.004218
v 0.008472 0.004260 -0.021180
v 0.008472 0.000000 -0.021180
v 0.021180 0.000000 -0.008472
v 0.021180 0.004260 -0.008472
v -0.000016 0.000000 -0.008472
v -0.000016 0.000000 -0.022027
v -0.000016 0.004260 -0.022027
v 0.017001 0.000000 -0.009517
v 0.009517 0.000000 -0.017001
v 0.005000 -0.000000 -0.009628
v 0.009626 -0.000000 -0.005000
v 0.012329 -0.000000 -0.012329
v 0.009517 0.004260 -0.017001
v 0.017001 0.004260 -0.009517
v 0.012329 0.004260 -0.012329
v 0.019251 0.004260 -0.007445
v 0.007441 0.004260 -0.019255
v 0.000000 0.004260 -0.020042
v 0.008412 0.004260 -0.015371
v 0.011025 0.004260 -0.011029
v 0.015367 0.004260 -0.008415
v 0.019251 0.003187 -0.007445
v 0.007441 0.003187 -0.019255
v 0.000000 0.003187 -0.020042
v 0.000000 0.003187 -0.007445
v 0.004213 0.003187 -0.008519
v 0.008412 0.003187 -0.015371
v 0.011025 0.003187 -0.011029
v 0.015367 0.003187 -0.008415
v 0.008513 0.003187 -0.004218
v -0.008472 0.004260 0.021180
v -0.008472 -0.000000 0.021180
v -0.021180 -0.000000 0.008472
v -0.021180 0.004260 0.008472
v 0.000016 -0.000000 0.008472
v 0.000016 -0.000000 0.022027
v 0.000016 0.004260 0.022027
v -0.008472 0.000000 0.000000
v -0.021688 0.000000 0.000000
v -0.021688 0.004260 0.000000
v 0.000016 0.004260 0.000000
v 0.000016 0.000000 0.000000
v -0.017001 -0.000000 0.009517
v -0.009517 -0.000000 0.017001
v -0.005000 -0.000000 0.009628
v -0.009626 -0.000000 0.005000
v -0.012329 -0.000000 0.012329
v -0.009517 0.004260 0.017001
v -0.017001 0.004260 0.009517
v -0.012329 0.004260 0.012329
v -0.019724 0.004260 0.000000
v -0.019251 0.004260 0.007445
v -0.007441 0.004260 0.019255
v -0.008412 0.004260 0.015371
v -0.011025 0.004260 0.011029
v -0.015367 0.004260 0.008415
v -0.019724 0.003187 0.000000
v -0.019251 0.003187 0.007445
v -0.007441 0.003187 0.019255
v -0.007441 0.003187 0.000000
v -0.004213 0.003187 0.008519
v -0.008412 0.003187 0.015371
v -0.011025 0.003187 0.011029
v -0.015367 0.003187 0.008415
v -0.008513 0.003187 0.004218
v 0.008472 0.004260 0.021180
v 0.008472 -0.000000 0.021180
v 0.021180 -0.000000 0.008472
v 0.021180 0.004260 0.008472
v -0.000016 -0.000000 0.008472
v -0.000016 -0.000000 0.022027
v -0.000016 0.004260 0.022027
v 0.008472 0.000000 0.000000
v 0.021688 0.000000 0.000000
v 0.021688 0.004260 0.000000
v -0.000016 0.004260 0.000000
v -0.000016 0.000000 0.000000
v 0.017001 -0.000000 0.009517
v 0.009517 -0.000000 0.017001
v 0.005000 -0.000000 0.009628
v 0.009626 -0.000000 0.005000
v 0.012329 -0.000000 0.012329
v 0.009517 0.004260 0.017001
v 0.017001 0.004260 0.009517
v 0.012329 0.004260 0.012329
v 0.019724 0.004260 0.000000
v 0.019251 0.004260 0.007445
v 0.007441 0.004260 0.019255
v 0.000000 0.004260 0.020042
v 0.000000 0.004260 0.000000
v 0.008412 0.004260 0.015371
v 0.011025 0.004260 0.011029
v 0.015367 0.004260 0.008415
v 0.019724 0.003187 0.000000
v 0.019251 0.003187 0.007445
v 0.007441 0.003187 0.019255
v 0.000000 0.003187 0.020042
v 0.000000 0.003187 0.007445
v 0.000000 0.003187 0.000000
v 0.007441 0.003187 0.000000
v 0.004213 0.003187 0.008519
v 0.008412 0.003187 0.015371
v 0.011025 0.003187 0.011029
v 0.015367 0.003187 0.008415
v 0.008513 0.003187 0.004218
v -0.002638 0.002918 -0.006370
v -0.002638 0.004543 -0.006370
v 0.002638 0.002918 -0.006370
v 0.002638 0.004543 -0.006370
v 0.006370 0.002918 -0.002638
v 0.006370 0.004543 -0.002638
v 0.006370 0.002918 0.002638
v 0.006370 0.004543 0.002638
v 0.002638 0.002918 0.006370
v 0.002638 0.004543 0.006370
v -0.002638 0.002918 0.006370
v -0.002638 0.004543 0.006370
v -0.006370 0.002918 0.002638
v -0.006370 0.004543 0.002638
v -0.006370 0.002918 -0.002638
v -0.006370 0.004543 -0.002638
v -0.003730 -0.000000 0.003730
v -0.003730 0.007459 0.003730
v -0.003730 0.000000 -0.003730
v -0.003730 0.007459 -0.003730
v 0.003730 -0.000000 0.003730
v 0.003730 0.007459 0.003730
v 0.003730 0.000000 -0.003730
v 0.003730 0.007459 -0.003730
v -0.003193 0.008566 0.003193
v -0.003193 0.008566 -0.003193
v 0.003193 0.008566 -0.003193
v 0.003193 0.008566 0.003193
v -0.003193 0.021273 0.003193
v -0.003193 0.021273 -0.003193
v 0.003193 0.021273 -0.003193
v 0.003193 0.021273 0.003193
v -0.002029 0.022328 0.002029
v -0.002029 0.022328 -0.002029
v 0.002029 0.022328 -0.002029
v 0.002029 0.022328 0.002029
v -0.002029 0.023642 0.002029
v -0.002029 0.023642 -0.002029
v 0.002029 0.023642 -0.002029
v 0.002029 0.023642 0.002029
v -0.003578 0.024802 0.003578
v -0.003578 0.024802 -0.003578
v 0.003578 0.024802 -0.003578
v 0.003578 0.024802 0.003578
v -0.003578 0.026123 0.003578
v -0.003578 0.026123 -0.003578
v 0.003578 0.026123 -0.003578
v 0.003578 0.026123 0.003578
v -0.002665 0.027110 0.002665
v -0.002665 0.027110 -0.002665
v 0.002665 0.027110 -0.002665
v 0.002665 0.027110 0.002665
v 0.003193 0.019615 0.003193
v 0.003193 0.010224 0.003193
v -0.003193 0.010224 0.003193
v -0.003193 0.019615 0.003193
v -0.002381 0.018804 -0.003193
v -0.002381 0.011036 -0.003193
v 0.002381 0.011036 -0.003193
v 0.002381 0.018804 -0.003193
v -0.003193 0.019615 -0.003193
v -0.003193 0.010224 -0.003193
v 0.003193 0.010224 -0.003193
v 0.003193 0.019615 -0.003193
v -0.002381 0.018804 -0.002570
v -0.002381 0.011036 -0.002570
v 0.002381 0.011036 -0.002570
v 0.002381 0.018804 -0.002570
vn -0.0000 -1.0000 -0.0000
vn -0.9982 -0.0000 -0.0599
vn -0.0000 1.0000 -0.0000
vn -0.0993 -0.0000 -0.9951
vn -0.9701 -0.0000 -0.2425
vn -0.8568 -0.0000 -0.5157
vn -0.5157 -0.0000 -0.8568
vn -0.2425 -0.0000 -0.9701
vn 0.9980 -0.0000 0.0633
vn 0.9701 -0.0000 0.2425
vn 0.8568 -0.0000 0.5157
vn 0.2425 -0.0000 0.9701
vn 0.1052 -0.0000 0.9944
vn 0.5157 -0.0000 0.8568
vn 0.9982 -0.0000 -0.0599
vn 0.0993 -0.0000 -0.9951
vn 0.9701 -0.0000 -0.2425
vn 0.8568 -0.0000 -0.5157
vn 0.5157 -0.0000 -0.8568
vn 0.2425 -0.0000 -0.9701
vn -0.9980 -0.0000 0.0633
vn -0.9701 -0.0000 0.2425
vn -0.8568 -0.0000 0.5157
vn -0.2425 -0.0000 0.9701
vn -0.1052 -0.0000 0.9944
vn -0.5157 -0.0000 0.8568
vn -0.9982 -0.0000 0.0599
vn -0.0993 -0.0000 0.9951
vn 0.9980 -0.0000 -0.0633
vn 0.1052 -0.0000 -0.9944
vn 0.9982 -0.0000 0.0599
vn 0.0993 -0.0000 0.9951
vn -0.9980 -0.0000 -0.0633
vn -0.1052 -0.0000 -0.9944
vn -0.0000 -0.0000 -1.0000
vn 0.7071 -0.0000 -0.7071
vn 1.0000 -0.0000 -0.0000
vn 0.7071 -0.0000 0.7071
vn -0.0000 -0.0000 1.0000
vn -0.7071 -0.0000 0.7071
vn -1.0000 -0.0000 -0.0000
vn -0.7071 -0.0000 -0.7071
vn -0.8997 0.4365 -0.0000
vn -0.0000 0.4365 0.8997
vn -0.0000 0.4365 -0.8997
vn 0.8997 0.4365 -0.0000
vn 0.6715 0.7410 -0.0000
vn -0.6715 0.7410 -0.0000
vn -0.0000 0.7410 0.6715
vn -0.0000 0.7410 -0.6715
vn -0.0000 -0.8006 0.5992
vn -0.0000 -0.8006 -0.5992
vn 0.5992 -0.8006 -0.0000
vn -0.5992 -0.8006 -0.0000
vn -0.0000 0.6793 0.7339
vn -0.0000 0.6793 -0.7339
vn 0.7339 0.6793 -0.0000
vn -0.7339 0.6793 -0.0000
vt 0.705426 0.052303
vt 0.705426 0.052303
vt 0.695429 0.042305
vt 0.695429 0.042305
vt 0.712104 0.042305
vt 0.712104 0.052969
vt 0.712104 0.052969
vt 0.698717 0.043127
vt 0.704605 0.049015
vt 0.708158 0.043214
vt 0.704519 0.039574
vt 0.702392 0.045339
vt 0.704605 0.049015
vt 0.698717 0.043127
vt 0.702392 0.045339
vt 0.696946 0.041497
vt 0.706238 0.050788
vt 0.705474 0.047733
vt 0.703418 0.044317
vt 0.700002 0.042261
vt 0.700047 0.360837
vt 0.696946 0.041497
vt 0.709338 0.370129
vt 0.706238 0.050788
vt 0.711877 0.361682
vt 0.708574 0.367073
vt 0.705474 0.047733
vt 0.706518 0.363657
vt 0.703418 0.044317
vt 0.703102 0.361601
vt 0.700002 0.042261
vt 0.708495 0.358299
vt 0.718756 0.052303
vt 0.718756 0.052303
vt 0.728754 0.042305
vt 0.728754 0.042305
vt 0.712079 0.042305
vt 0.712079 0.052969
vt 0.712079 0.052969
vt 0.725466 0.043127
vt 0.719578 0.049015
vt 0.716024 0.043214
vt 0.719664 0.039574
vt 0.721790 0.045339
vt 0.719578 0.049015
vt 0.725466 0.043127
vt 0.721790 0.045339
vt 0.727236 0.041497
vt 0.717945 0.050788
vt 0.712091 0.051408
vt 0.718709 0.047733
vt 0.720765 0.044317
vt 0.724181 0.042261
vt 0.730337 0.360837
vt 0.727236 0.041497
vt 0.721045 0.370129
vt 0.717945 0.050788
vt 0.715192 0.370748
vt 0.712091 0.051408
vt 0.715192 0.360837
vt 0.718506 0.361682
vt 0.721809 0.367073
vt 0.718709 0.047733
vt 0.723865 0.363657
vt 0.720765 0.044317
vt 0.727281 0.361601
vt 0.724181 0.042261
vt 0.721889 0.358299
vt 0.705426 0.018978
vt 0.705426 0.018978
vt 0.695429 0.028975
vt 0.695429 0.028975
vt 0.712104 0.028975
vt 0.712104 0.018311
vt 0.712104 0.018311
vt 0.705426 0.035640
vt 0.695029 0.035640
vt 0.695029 0.035640
vt 0.712104 0.035640
vt 0.698717 0.028153
vt 0.704605 0.022265
vt 0.708158 0.028066
vt 0.704519 0.031707
vt 0.702392 0.025941
vt 0.704605 0.022265
vt 0.698717 0.028153
vt 0.702392 0.025941
vt 0.696575 0.035640
vt 0.696946 0.029784
vt 0.706238 0.020492
vt 0.705474 0.023548
vt 0.703418 0.026964
vt 0.700002 0.029020
vt 0.696575 0.035640
vt 0.699675 0.354981
vt 0.700047 0.349124
vt 0.696946 0.029784
vt 0.709338 0.339833
vt 0.706238 0.020492
vt 0.709338 0.354981
vt 0.711877 0.348279
vt 0.708574 0.342888
vt 0.705474 0.023548
vt 0.706518 0.346304
vt 0.703418 0.026964
vt 0.703102 0.348360
vt 0.700002 0.029020
vt 0.708495 0.351663
vt 0.718756 0.018978
vt 0.718756 0.018978
vt 0.728754 0.028975
vt 0.728754 0.028975
vt 0.712079 0.028975
vt 0.712079 0.018311
vt 0.712079 0.018311
vt 0.718756 0.035640
vt 0.729154 0.035640
vt 0.729154 0.035640
vt 0.712079 0.035640
vt 0.725466 0.028153
vt 0.719578 0.022265
vt 0.716024 0.028066
vt 0.719664 0.031707
vt 0.721790 0.025941
vt 0.719578 0.022265
vt 0.725466 0.028153
vt 0.721790 0.025941
vt 0.727608 0.035640
vt 0.727236 0.029784
vt 0.717945 0.020492
vt 0.712091 0.019873
vt 0.718709 0.023548
vt 0.720765 0.026964
vt 0.724181 0.029020
vt 0.727608 0.035640
vt 0.730708 0.354981
vt 0.730337 0.349124
vt 0.727236 0.029784
vt 0.721045 0.339833
vt 0.717945 0.020492
vt 0.715192 0.339213
vt 0.712091 0.019873
vt 0.715192 0.349124
vt 0.715192 0.354981
vt 0.721045 0.354981
vt 0.718506 0.348279
vt 0.721809 0.342888
vt 0.718709 0.023548
vt 0.723865 0.346304
vt 0.720765 0.026964
vt 0.727281 0.348360
vt 0.724181 0.029020
vt 0.721889 0.351663
vt 0.710016 0.040651
vt 0.710016 0.040651
vt 0.714167 0.040651
vt 0.714167 0.040651
vt 0.717102 0.037716
vt 0.717102 0.037716
vt 0.717102 0.033565
vt 0.717102 0.033565
vt 0.714167 0.030629
vt 0.714167 0.030629
vt 0.710016 0.030629
vt 0.710016 0.030629
vt 0.707080 0.033565
vt 0.707080 0.033565
vt 0.707080 0.037716
vt 0.707080 0.037716
vt 0.709157 0.032706
vt 0.709157 0.032706
vt 0.709157 0.038574
vt 0.709157 0.038574
vt 0.715025 0.032706
vt 0.715025 0.032706
vt 0.715025 0.038574
vt 0.715025 0.038574
vt 0.709580 0.033129
vt 0.709580 0.038152
vt 0.714603 0.038152
vt 0.714603 0.033129
vt 0.709580 0.033129
vt 0.709580 0.038152
vt 0.714603 0.038152
vt 0.714603 0.033129
vt 0.710495 0.034044
vt 0.710495 0.037237
vt 0.713688 0.037237
vt 0.713688 0.034044
vt 0.710495 0.034044
vt 0.710495 0.037237
vt 0.713688 0.037237
vt 0.713688 0.034044
vt 0.709276 0.032825
vt 0.709276 0.038455
vt 0.714907 0.038455
vt 0.714907 0.032825
vt 0.709276 0.032825
vt 0.709276 0.038455
vt 0.714907 0.038455
vt 0.714907 0.032825
vt 0.709995 0.033544
vt 0.709995 0.037737
vt 0.714188 0.037737
vt 0.714188 0.033544
vt 0.714603 0.033129
vt 0.714603 0.033129
vt 0.709580 0.033129
vt 0.709580 0.033129
vt 0.710218 0.038152
vt 0.710218 0.038152
vt 0.713965 0.038152
vt 0.713965 0.038152
vt 0.709580 0.038152
vt 0.709580 0.038152
vt 0.714603 0.038152
vt 0.714603 0.038152
vt 0.710218 0.037662
vt 0.710218 0.037662
vt 0.713965 0.037662
vt 0.713965 0.037662
s 1
usemtl City_05.032
f 69/79/1 65/76/1 5/5/1
f 5/5/1 65/76/1 10/10/1
f 11/11/1 10/10/1 65/76/1
f 65/76/1 66/77/1 11/11/1
f 11/11/1 66/77/1 8/8/1
f 8/8/1 66/77/1 3/3/1
f 66/77/2 67/78/2 3/3/2
f 3/3/2 67/78/2 4/4/2
f 4/4/3 67/78/3 16/16/3
f 16/16/3 67/78/3 78/88/3
f 2/2/4 1/1/4 6/6/4
f 6/6/4 1/1/4 7/7/4
f 5/5/1 10/10/1 6/6/1
f 10/10/1 9/9/1 6/6/1
f 9/9/1 2/2/1 6/6/1
f 9/9/5 13/13/5 2/2/5
f 2/2/5 13/13/5 1/1/5
f 4/4/3 16/16/3 14/14/3
f 14/14/3 16/16/3 20/20/3
f 8/8/1 12/12/1 11/11/1
f 9/9/1 10/10/1 12/12/1
f 12/12/1 10/10/1 11/11/1
f 13/13/3 15/15/3 18/18/3
f 18/18/3 15/15/3 19/19/3
f 13/13/6 9/9/6 15/15/6
f 15/15/6 9/9/6 12/12/6
f 15/15/7 12/12/7 14/14/7
f 14/14/7 12/12/7 8/8/7
f 14/14/8 8/8/8 4/4/8
f 4/4/8 8/8/8 3/3/8
f 16/16/9 78/88/9 21/22/9
f 21/22/9 78/88/9 84/94/9
f 17/17/10 18/18/10 22/24/10
f 22/24/10 18/18/10 24/27/10
f 1/1/3 13/13/3 17/17/3
f 17/17/3 13/13/3 18/18/3
f 14/14/3 20/20/3 15/15/3
f 15/15/3 20/20/3 19/19/3
f 1/1/3 17/17/3 7/7/3
f 7/7/3 17/17/3 45/50/3
f 126/144/3 52/60/3 87/100/3
f 52/60/3 23/25/3 87/100/3
f 23/25/3 27/32/3 87/100/3
f 52/60/3 51/58/3 23/25/3
f 23/25/3 51/58/3 24/26/3
f 24/26/3 51/58/3 22/23/3
f 87/100/3 27/32/3 84/95/3
f 27/32/3 26/30/3 84/95/3
f 26/30/3 21/21/3 84/95/3
f 24/26/3 25/28/3 23/25/3
f 26/30/3 27/32/3 25/28/3
f 25/28/3 27/32/3 23/25/3
f 18/18/11 19/19/11 24/27/11
f 24/27/11 19/19/11 25/29/11
f 20/20/12 16/16/12 26/31/12
f 26/31/12 16/16/12 21/22/12
f 45/50/13 17/17/13 51/59/13
f 51/59/13 17/17/13 22/24/13
f 19/19/14 20/20/14 25/29/14
f 25/29/14 20/20/14 26/31/14
f 104/119/1 32/37/1 100/116/1
f 100/116/1 32/37/1 38/43/1
f 38/43/1 32/37/1 37/42/1
f 100/116/1 38/43/1 101/117/1
f 38/43/1 35/40/1 101/117/1
f 35/40/1 30/35/1 101/117/1
f 101/117/15 30/35/15 102/118/15
f 102/118/15 30/35/15 31/36/15
f 31/36/3 43/48/3 102/118/3
f 102/118/3 43/48/3 113/128/3
f 29/34/16 33/38/16 28/33/16
f 28/33/16 33/38/16 34/39/16
f 32/37/1 33/38/1 37/42/1
f 37/42/1 33/38/1 36/41/1
f 33/38/1 29/34/1 36/41/1
f 36/41/17 29/34/17 40/45/17
f 40/45/17 29/34/17 28/33/17
f 48/53/3 43/48/3 41/46/3
f 41/46/3 43/48/3 31/36/3
f 35/40/1 38/43/1 39/44/1
f 36/41/1 39/44/1 37/42/1
f 38/43/1 37/42/1 39/44/1
f 40/45/3 46/51/3 42/47/3
f 42/47/3 46/51/3 47/52/3
f 40/45/18 42/47/18 36/41/18
f 36/41/18 42/47/18 39/44/18
f 42/47/19 41/46/19 39/44/19
f 39/44/19 41/46/19 35/40/19
f 41/46/20 31/36/20 35/40/20
f 35/40/20 31/36/20 30/35/20
f 43/48/21 49/55/21 113/128/21
f 113/128/21 49/55/21 121/135/21
f 44/49/22 50/57/22 46/51/22
f 46/51/22 50/57/22 54/63/22
f 28/33/3 44/49/3 40/45/3
f 40/45/3 44/49/3 46/51/3
f 47/52/3 48/53/3 42/47/3
f 42/47/3 48/53/3 41/46/3
f 45/50/3 44/49/3 34/39/3
f 34/39/3 44/49/3 28/33/3
f 126/144/3 127/145/3 52/60/3
f 52/60/3 127/145/3 53/61/3
f 127/145/3 57/68/3 53/61/3
f 52/60/3 53/61/3 51/58/3
f 53/61/3 54/62/3 51/58/3
f 54/62/3 50/56/3 51/58/3
f 127/145/3 121/136/3 57/68/3
f 57/68/3 121/136/3 56/66/3
f 121/136/3 49/54/3 56/66/3
f 54/62/3 53/61/3 55/64/3
f 56/66/3 55/64/3 57/68/3
f 53/61/3 57/68/3 55/64/3
f 46/51/23 54/63/23 47/52/23
f 47/52/23 54/63/23 55/65/23
f 48/53/24 56/67/24 43/48/24
f 43/48/24 56/67/24 49/55/24
f 45/50/25 51/59/25 44/49/25
f 44/49/25 51/59/25 50/57/25
f 47/52/26 55/65/26 48/53/26
f 48/53/26 55/65/26 56/67/26
f 69/79/1 62/73/1 65/76/1
f 65/76/1 62/73/1 73/83/1
f 73/83/1 62/73/1 72/82/1
f 65/76/1 73/83/1 66/77/1
f 73/83/1 70/80/1 66/77/1
f 70/80/1 60/71/1 66/77/1
f 66/77/27 60/71/27 67/78/27
f 67/78/27 60/71/27 61/72/27
f 61/72/3 79/89/3 67/78/3
f 67/78/3 79/89/3 78/88/3
f 59/70/28 63/74/28 58/69/28
f 58/69/28 63/74/28 64/75/28
f 62/73/1 63/74/1 72/82/1
f 72/82/1 63/74/1 71/81/1
f 63/74/1 59/70/1 71/81/1
f 71/81/22 59/70/22 75/85/22
f 75/85/22 59/70/22 58/69/22
f 83/93/3 79/89/3 76/86/3
f 76/86/3 79/89/3 61/72/3
f 70/80/1 73/83/1 74/84/1
f 71/81/1 74/84/1 72/82/1
f 73/83/1 72/82/1 74/84/1
f 75/85/3 81/91/3 77/87/3
f 77/87/3 81/91/3 82/92/3
f 75/85/23 77/87/23 71/81/23
f 71/81/23 77/87/23 74/84/23
f 77/87/26 76/86/26 74/84/26
f 74/84/26 76/86/26 70/80/26
f 76/86/24 61/72/24 70/80/24
f 70/80/24 61/72/24 60/71/24
f 79/89/29 85/97/29 78/88/29
f 78/88/29 85/97/29 84/94/29
f 80/90/17 86/99/17 81/91/17
f 81/91/17 86/99/17 89/103/17
f 58/69/3 80/90/3 75/85/3
f 75/85/3 80/90/3 81/91/3
f 82/92/3 83/93/3 77/87/3
f 77/87/3 83/93/3 76/86/3
f 116/131/3 80/90/3 64/75/3
f 64/75/3 80/90/3 58/69/3
f 126/144/3 87/100/3 125/143/3
f 125/143/3 87/100/3 88/101/3
f 87/100/3 92/108/3 88/101/3
f 125/143/3 88/101/3 124/141/3
f 88/101/3 89/102/3 124/141/3
f 89/102/3 86/98/3 124/141/3
f 87/100/3 84/95/3 92/108/3
f 92/108/3 84/95/3 91/106/3
f 84/95/3 85/96/3 91/106/3
f 89/102/3 88/101/3 90/104/3
f 91/106/3 90/104/3 92/108/3
f 88/101/3 92/108/3 90/104/3
f 81/91/18 89/103/18 82/92/18
f 82/92/18 89/103/18 90/105/18
f 83/93/20 91/107/20 79/89/20
f 79/89/20 91/107/20 85/97/20
f 116/131/30 124/142/30 80/90/30
f 80/90/30 124/142/30 86/99/30
f 82/92/19 90/105/19 83/93/19
f 83/93/19 90/105/19 91/107/19
f 104/119/1 100/116/1 97/113/1
f 97/113/1 100/116/1 107/122/1
f 108/123/1 107/122/1 100/116/1
f 100/116/1 101/117/1 108/123/1
f 108/123/1 101/117/1 105/120/1
f 105/120/1 101/117/1 95/111/1
f 101/117/31 102/118/31 95/111/31
f 95/111/31 102/118/31 96/112/31
f 96/112/3 102/118/3 114/129/3
f 114/129/3 102/118/3 113/128/3
f 94/110/32 93/109/32 98/114/32
f 98/114/32 93/109/32 99/115/32
f 97/113/1 107/122/1 98/114/1
f 107/122/1 106/121/1 98/114/1
f 106/121/1 94/110/1 98/114/1
f 106/121/10 110/125/10 94/110/10
f 94/110/10 110/125/10 93/109/10
f 96/112/3 114/129/3 111/126/3
f 111/126/3 114/129/3 120/134/3
f 105/120/1 109/124/1 108/123/1
f 106/121/1 107/122/1 109/124/1
f 109/124/1 107/122/1 108/123/1
f 110/125/3 112/127/3 118/132/3
f 118/132/3 112/127/3 119/133/3
f 110/125/11 106/121/11 112/127/11
f 112/127/11 106/121/11 109/124/11
f 112/127/14 109/124/14 111/126/14
f 111/126/14 109/124/14 105/120/14
f 111/126/12 105/120/12 96/112/12
f 96/112/12 105/120/12 95/111/12
f 114/129/33 113/128/33 122/138/33
f 122/138/33 113/128/33 121/135/33
f 115/130/5 118/132/5 123/140/5
f 123/140/5 118/132/5 129/148/5
f 93/109/3 110/125/3 115/130/3
f 115/130/3 110/125/3 118/132/3
f 111/126/3 120/134/3 112/127/3
f 112/127/3 120/134/3 119/133/3
f 93/109/3 115/130/3 99/115/3
f 99/115/3 115/130/3 116/131/3
f 126/144/3 125/143/3 127/145/3
f 125/143/3 128/146/3 127/145/3
f 128/146/3 132/153/3 127/145/3
f 125/143/3 124/141/3 128/146/3
f 128/146/3 124/141/3 129/147/3
f 129/147/3 124/141/3 123/139/3
f 127/145/3 132/153/3 121/136/3
f 132/153/3 131/151/3 121/136/3
f 131/151/3 122/137/3 121/136/3
f 129/147/3 130/149/3 128/146/3
f 131/151/3 132/153/3 130/149/3
f 130/149/3 132/153/3 128/146/3
f 118/132/6 119/133/6 129/148/6
f 129/148/6 119/133/6 130/150/6
f 120/134/8 114/129/8 131/152/8
f 131/152/8 114/129/8 122/138/8
f 116/131/34 115/130/34 124/142/34
f 124/142/34 115/130/34 123/140/34
f 119/133/7 120/134/7 130/150/7
f 130/150/7 120/134/7 131/152/7
f 133/154/35 134/155/35 135/156/35
f 135/156/35 134/155/35 136/157/35
f 135/156/36 136/157/36 137/158/36
f 137/158/36 136/157/36 138/159/36
f 137/158/37 138/159/37 139/160/37
f 139/160/37 138/159/37 140/161/37
f 139/160/38 140/161/38 141/162/38
f 141/162/38 140/161/38 142/163/38
f 141/162/39 142/163/39 143/164/39
f 143/164/39 142/163/39 144/165/39
f 143/164/40 144/165/40 145/166/40
f 145/166/40 144/165/40 146/167/40
f 136/157/3 134/155/3 138/159/3
f 134/155/3 148/169/3 138/159/3
f 148/169/3 146/167/3 138/159/3
f 146/167/3 144/165/3 138/159/3
f 144/165/3 142/163/3 138/159/3
f 142/163/3 140/161/3 138/159/3
f 145/166/41 146/167/41 147/168/41
f 147/168/41 146/167/41 148/169/41
f 147/168/42 148/169/42 133/154/42
f 133/154/42 148/169/42 134/155/42
f 133/154/1 135/156/1 147/168/1
f 135/156/1 137/158/1 147/168/1
f 137/158/1 139/160/1 147/168/1
f 139/160/1 141/162/1 147/168/1
f 141/162/1 143/164/1 147/168/1
f 143/164/1 145/166/1 147/168/1
f 149/170/41 150/171/41 151/172/41
f 151/172/41 150/171/41 152/173/41
f 151/172/35 152/173/35 155/176/35
f 155/176/35 152/173/35 156/177/35
f 155/176/37 156/177/37 153/174/37
f 153/174/37 156/177/37 154/175/37
f 153/174/39 154/175/39 149/170/39
f 149/170/39 154/175/39 150/171/39
f 151/172/1 155/176/1 149/170/1
f 149/170/1 155/176/1 153/174/1
f 152/173/43 150/171/43 158/179/43
f 158/179/43 150/171/43 157/178/43
f 160/181/37 159/180/37 186/207/37
f 186/207/37 159/180/37 195/216/37
f 150/171/44 154/175/44 157/178/44
f 157/178/44 154/175/44 160/181/44
f 156/177/45 152/173/45 159/180/45
f 159/180/45 152/173/45 158/179/45
f 154/175/46 156/177/46 160/181/46
f 160/181/46 156/177/46 159/180/46
f 164/185/47 163/184/47 168/189/47
f 168/189/47 163/184/47 167/188/47
f 159/180/35 158/179/35 195/216/35
f 195/216/35 158/179/35 194/215/35
f 157/178/39 160/181/39 187/208/39
f 187/208/39 160/181/39 186/207/39
f 196/217/35 193/214/35 163/184/35
f 163/184/35 193/214/35 162/183/35
f 166/187/41 165/186/41 170/191/41
f 170/191/41 165/186/41 169/190/41
f 162/183/48 161/182/48 166/187/48
f 166/187/48 161/182/48 165/186/48
f 161/182/49 164/185/49 165/186/49
f 165/186/49 164/185/49 168/189/49
f 163/184/50 162/183/50 167/188/50
f 167/188/50 162/183/50 166/187/50
f 169/190/51 172/193/51 173/194/51
f 173/194/51 172/193/51 176/197/51
f 165/186/39 168/189/39 169/190/39
f 169/190/39 168/189/39 172/193/39
f 167/188/35 166/187/35 171/192/35
f 171/192/35 166/187/35 170/191/35
f 168/189/37 167/188/37 172/193/37
f 172/193/37 167/188/37 171/192/37
f 176/197/37 175/196/37 180/201/37
f 180/201/37 175/196/37 179/200/37
f 171/192/52 170/191/52 175/196/52
f 175/196/52 170/191/52 174/195/52
f 172/193/53 171/192/53 176/197/53
f 176/197/53 171/192/53 175/196/53
f 170/191/54 169/190/54 174/195/54
f 174/195/54 169/190/54 173/194/54
f 177/198/55 180/201/55 181/202/55
f 181/202/55 180/201/55 184/205/55
f 174/195/41 173/194/41 178/199/41
f 178/199/41 173/194/41 177/198/41
f 173/194/39 176/197/39 177/198/39
f 177/198/39 176/197/39 180/201/39
f 175/196/35 174/195/35 179/200/35
f 179/200/35 174/195/35 178/199/35
f 183/204/3 182/203/3 184/205/3
f 184/205/3 182/203/3 181/202/3
f 179/200/56 178/199/56 183/204/56
f 183/204/56 178/199/56 182/203/56
f 180/201/57 179/200/57 184/205/57
f 184/205/57 179/200/57 183/204/57
f 178/199/58 177/198/58 182/203/58
f 182/203/58 177/198/58 181/202/58
f 193/214/41 188/209/41 162/183/41
f 162/183/41 188/209/41 161/182/41
f 158/179/41 157/178/41 194/215/41
f 194/215/41 157/178/41 187/208/41
f 188/209/39 185/206/39 161/182/39
f 161/182/39 185/206/39 164/185/39
f 188/209/41 193/214/41 187/208/41
f 187/208/41 193/214/41 194/215/41
f 196/217/37 185/206/37 195/216/37
f 195/216/37 185/206/37 186/207/37
f 191/212/3 190/211/3 199/220/3
f 199/220/3 190/211/3 198/219/3
f 185/206/39 188/209/39 186/207/39
f 186/207/39 188/209/39 187/208/39
f 185/206/37 196/217/37 164/185/37
f 164/185/37 196/217/37 163/184/37
f 189/210/35 190/211/35 193/214/35
f 193/214/35 190/211/35 194/215/35
f 191/212/35 192/213/35 195/216/35
f 195/216/35 192/213/35 196/217/35
f 192/213/35 189/210/35 196/217/35
f 196/217/35 189/210/35 193/214/35
f 190/211/35 191/212/35 194/215/35
f 194/215/35 191/212/35 195/216/35
f 197/218/35 200/221/35 198/219/35
f 198/219/35 200/221/35 199/220/35
f 192/213/41 191/212/41 200/221/41
f 200/221/41 191/212/41 199/220/41
f 189/210/1 192/213/1 197/218/1
f 197/218/1 192/213/1 200/221/1
f 190/211/37 189/210/37 198/219/37
f 198/219/37 189/210/37 197/218/37
