# Blender 3.4.1
# www.blender.org
mtllib tris.mtl
o RoadSign_04
v -0.000000 0.000000 -0.000303
v -0.000000 0.017627 -0.000303
v 0.000214 0.000000 -0.000214
v 0.000214 0.017627 -0.000214
v 0.000303 -0.000000 0.000000
v 0.000303 0.017627 0.000000
v 0.000214 -0.000000 0.000214
v 0.000214 0.017627 0.000214
v -0.000000 -0.000000 0.000303
v -0.000000 0.017627 0.000303
v -0.000214 -0.000000 0.000214
v -0.000214 0.017627 0.000214
v -0.000303 -0.000000 -0.000000
v -0.000303 0.017627 0.000000
v -0.000214 0.000000 -0.000214
v -0.000214 0.017627 -0.000214
v -0.002030 0.017092 0.000906
v 0.002030 0.017092 0.000906
v -0.002413 0.017475 0.000906
v -0.002030 0.013032 0.000906
v 0.002030 0.013032 0.000906
v -0.002413 0.012650 0.000906
v -0.002601 0.012728 0.000906
v -0.002334 0.012461 0.000906
v -0.002523 0.012539 0.000906
v -0.002523 0.012539 0.000407
v -0.002334 0.012461 0.000407
v -0.002601 0.012728 0.000407
v -0.002601 0.017397 0.000407
v -0.002523 0.017585 0.000407
v -0.002601 0.017397 0.000906
v -0.002523 0.017585 0.000906
v -0.002334 0.017663 0.000906
v 0.002334 0.017663 0.000906
v -0.002334 0.017663 0.000407
v 0.002334 0.017663 0.000407
v 0.002523 0.017585 0.000407
v 0.002601 0.017397 0.000407
v 0.002523 0.017585 0.000906
v 0.002601 0.017397 0.000906
v 0.002413 0.017475 0.000906
v 0.002601 0.012728 0.000906
v 0.002601 0.012728 0.000407
v 0.002413 0.012650 0.000906
v 0.002523 0.012539 0.000906
v 0.002334 0.012461 0.000906
v 0.002523 0.012539 0.000407
v 0.002334 0.012461 0.000407
v -0.000605 0.016386 0.000922
v -0.000605 0.013801 0.000922
v -0.000234 0.013801 0.000922
v -0.000234 0.014919 0.000922
v 0.000153 0.014919 0.000922
v 0.000645 0.015017 0.000922
v 0.000932 0.015275 0.000922
v 0.001025 0.015643 0.000922
v 0.000937 0.016018 0.000922
v 0.000666 0.016284 0.000922
v 0.000202 0.016386 0.000922
v -0.000234 0.016053 0.000922
v 0.000202 0.016053 0.000922
v 0.000466 0.015992 0.000922
v 0.000603 0.015845 0.000922
v 0.000642 0.015658 0.000922
v 0.000585 0.015439 0.000922
v 0.000428 0.015301 0.000922
v 0.000187 0.015253 0.000922
v -0.000234 0.015253 0.000922
v -0.002160 0.014902 0.000411
v -0.002160 0.015346 0.000411
v -0.002160 0.014902 0.000250
v 0.002160 0.014902 0.000411
v 0.002160 0.015346 0.000411
v 0.002160 0.014902 0.000250
v 0.002160 0.015346 0.000250
v -0.002160 0.015346 0.000250
vn 0.3827 -0.0000 -0.9239
vn 0.9239 -0.0000 -0.3827
vn 0.9239 -0.0000 0.3827
vn 0.3827 -0.0000 0.9239
vn -0.3827 -0.0000 0.9239
vn -0.9239 -0.0000 0.3827
vn -0.0000 1.0000 -0.0000
vn -0.9239 -0.0000 -0.3827
vn -0.3827 -0.0000 -0.9239
vn -0.0000 -1.0000 -0.0000
vn -0.0000 -0.0000 1.0000
vn -0.9239 -0.3827 -0.0000
vn -0.3827 -0.9239 -0.0000
vn -0.0000 -0.0000 -1.0000
vn -1.0000 -0.0000 -0.0000
vn -0.9239 0.3827 -0.0000
vn -0.3827 0.9239 -0.0000
vn 0.3827 0.9239 -0.0000
vn 0.9239 0.3827 -0.0000
vn 1.0000 -0.0000 -0.0000
vn 0.9239 -0.3827 -0.0000
vn 0.3827 -0.9239 -0.0000
vt 0.656546 0.005154
vt 0.656546 0.046183
vt 0.657044 0.005154
vt 0.657044 0.046183
vt 0.657251 0.005154
vt 0.657251 0.046183
vt 0.657044 0.005154
vt 0.657044 0.046183
vt 0.656546 0.005154
vt 0.656546 0.046183
vt 0.656047 0.005154
vt 0.656047 0.046183
vt 0.655841 0.005154
vt 0.655841 0.046183
vt 0.656047 0.005154
vt 0.656047 0.046183
vt 0.523717 0.355821
vt 0.833847 0.030370
vt 0.536505 0.368610
vt 0.850051 0.046574
vt 0.830791 0.030370
vt 0.536505 0.343033
vt 0.850051 0.014166
vt 0.549294 0.355821
vt 0.866256 0.030370
vt 0.850051 0.011110
vt 0.848988 0.010669
vt 0.851115 0.010669
vt 0.850051 0.010229
vt 0.850051 0.010229
vt 0.851115 0.010669
vt 0.848988 0.010669
vt 0.830351 0.029306
vt 0.829910 0.030370
vt 0.830351 0.029306
vt 0.829910 0.030370
vt 0.830351 0.031434
vt 0.848988 0.050071
vt 0.830351 0.031434
vt 0.848988 0.050071
vt 0.850051 0.050511
vt 0.851115 0.050071
vt 0.850051 0.050511
vt 0.851115 0.050071
vt 0.850051 0.049630
vt 0.869752 0.031434
vt 0.869752 0.031434
vt 0.869311 0.030370
vt 0.870192 0.030370
vt 0.869752 0.029306
vt 0.870192 0.030370
vt 0.869752 0.029306
vt 0.839893 0.053441
vt 0.839893 0.031087
vt 0.843105 0.031087
vt 0.843105 0.040757
vt 0.846449 0.040757
vt 0.850705 0.041600
vt 0.853184 0.043835
vt 0.853987 0.047017
vt 0.853229 0.050256
vt 0.850889 0.052562
vt 0.846875 0.053441
vt 0.843105 0.050557
vt 0.846875 0.050557
vt 0.849157 0.050037
vt 0.850339 0.048760
vt 0.850677 0.047148
vt 0.850189 0.045248
vt 0.848827 0.044055
vt 0.846744 0.043641
vt 0.843105 0.043641
vt 0.651518 0.039838
vt 0.651518 0.040872
vt 0.651518 0.039838
vt 0.661573 0.039838
vt 0.661573 0.040872
vt 0.661573 0.039838
vt 0.661573 0.040872
vt 0.651518 0.040872
s 1
usemtl City_05.046
f 1/1/1 2/2/1 3/3/1
f 3/3/1 2/2/1 4/4/1
f 3/3/2 4/4/2 5/5/2
f 5/5/2 4/4/2 6/6/2
f 5/5/3 6/6/3 7/7/3
f 7/7/3 6/6/3 8/8/3
f 7/7/4 8/8/4 9/9/4
f 9/9/4 8/8/4 10/10/4
f 9/9/5 10/10/5 11/11/5
f 11/11/5 10/10/5 12/12/5
f 11/11/6 12/12/6 13/13/6
f 13/13/6 12/12/6 14/14/6
f 4/4/7 2/2/7 6/6/7
f 2/2/7 16/16/7 6/6/7
f 16/16/7 14/14/7 6/6/7
f 14/14/7 12/12/7 6/6/7
f 12/12/7 10/10/7 6/6/7
f 10/10/7 8/8/7 6/6/7
f 13/13/8 14/14/8 15/15/8
f 15/15/8 14/14/8 16/16/8
f 15/15/9 16/16/9 1/1/9
f 1/1/9 16/16/9 2/2/9
f 1/1/10 3/3/10 15/15/10
f 3/3/10 5/5/10 15/15/10
f 5/5/10 7/7/10 15/15/10
f 7/7/10 9/9/10 15/15/10
f 9/9/10 11/11/10 15/15/10
f 11/11/10 13/13/10 15/15/10
f 20/22/11 21/24/11 17/17/11
f 17/17/11 21/24/11 18/19/11
f 41/45/11 34/38/11 18/20/11
f 34/38/11 33/37/11 18/20/11
f 33/37/11 19/21/11 18/20/11
f 17/18/11 18/20/11 19/21/11
f 19/21/11 31/35/11 17/18/11
f 31/35/11 23/27/11 17/18/11
f 23/27/11 22/26/11 17/18/11
f 20/23/11 17/18/11 22/26/11
f 22/26/11 24/28/11 20/23/11
f 24/28/11 46/50/11 20/23/11
f 46/50/11 44/48/11 20/23/11
f 21/25/11 20/23/11 44/48/11
f 23/27/11 25/29/11 22/26/11
f 25/29/11 24/28/11 22/26/11
f 23/27/12 28/32/12 25/29/12
f 25/29/12 28/32/12 26/30/12
f 25/29/13 26/30/13 24/28/13
f 24/28/13 26/30/13 27/31/13
f 30/34/14 35/39/14 29/33/14
f 29/33/14 35/39/14 28/32/14
f 35/39/14 36/40/14 28/32/14
f 36/40/14 37/41/14 28/32/14
f 37/41/14 38/42/14 28/32/14
f 28/32/14 38/42/14 26/30/14
f 26/30/14 38/42/14 27/31/14
f 47/51/14 48/52/14 43/47/14
f 43/47/14 48/52/14 38/42/14
f 38/42/14 48/52/14 27/31/14
f 29/33/15 28/32/15 31/35/15
f 31/35/15 28/32/15 23/27/15
f 29/33/16 31/35/16 30/34/16
f 30/34/16 31/35/16 32/36/16
f 32/36/11 31/35/11 19/21/11
f 30/34/17 32/36/17 35/39/17
f 35/39/17 32/36/17 33/37/17
f 33/37/11 32/36/11 19/21/11
f 33/37/7 34/38/7 35/39/7
f 35/39/7 34/38/7 36/40/7
f 39/43/18 37/41/18 34/38/18
f 34/38/18 37/41/18 36/40/18
f 40/44/19 38/42/19 39/43/19
f 39/43/19 38/42/19 37/41/19
f 40/44/11 39/43/11 41/45/11
f 39/43/11 34/38/11 41/45/11
f 44/48/11 42/46/11 21/25/11
f 42/46/11 40/44/11 21/25/11
f 40/44/11 41/45/11 21/25/11
f 18/20/11 21/25/11 41/45/11
f 43/47/20 38/42/20 42/46/20
f 42/46/20 38/42/20 40/44/20
f 43/47/21 42/46/21 47/51/21
f 47/51/21 42/46/21 45/49/21
f 45/49/11 42/46/11 44/48/11
f 47/51/22 45/49/22 48/52/22
f 48/52/22 45/49/22 46/50/22
f 46/50/11 45/49/11 44/48/11
f 27/31/10 48/52/10 24/28/10
f 24/28/10 48/52/10 46/50/10
f 50/54/11 60/64/11 49/53/11
f 60/64/11 59/63/11 49/53/11
f 60/64/11 58/62/11 59/63/11
f 60/64/11 61/65/11 58/62/11
f 61/65/11 57/61/11 58/62/11
f 50/54/11 68/72/11 60/64/11
f 62/66/11 57/61/11 61/65/11
f 62/66/11 56/60/11 57/61/11
f 63/67/11 56/60/11 62/66/11
f 64/68/11 56/60/11 63/67/11
f 65/69/11 56/60/11 64/68/11
f 65/69/11 55/59/11 56/60/11
f 66/70/11 55/59/11 65/69/11
f 67/71/11 55/59/11 66/70/11
f 67/71/11 54/58/11 55/59/11
f 50/54/11 52/56/11 68/72/11
f 52/56/11 67/71/11 68/72/11
f 52/56/11 54/58/11 67/71/11
f 52/56/11 53/57/11 54/58/11
f 50/54/11 51/55/11 52/56/11
f 72/76/11 73/77/11 69/73/11
f 69/73/11 73/77/11 70/74/11
f 69/73/15 70/74/15 71/75/15
f 71/75/15 70/74/15 76/80/15
f 71/75/10 74/78/10 69/73/10
f 69/73/10 74/78/10 72/76/10
f 74/78/20 75/79/20 72/76/20
f 72/76/20 75/79/20 73/77/20
f 71/75/14 76/80/14 74/78/14
f 74/78/14 76/80/14 75/79/14
f 75/79/7 76/80/7 73/77/7
f 73/77/7 76/80/7 70/74/7
