# Wavefront OBJ file
# Exported by Misfit Model 3D 1.3.8
# Fri Jan 27 21:38:25 2023

mtllib branch.mtl

# 95 Vertices
v -0.460853 0.040431 0.747113
v -0.320228 0.031449 1.005158
v -0.288978 0.013943 0.976379
v -0.413978 0.020412 0.702903
v -0.413978 0.020412 0.702903
v -0.288978 0.013943 0.976379
v -0.320228 -0.009396 0.964743
v -0.460853 -0.011969 0.69304
v -0.523353 0.021053 0.750777
v -0.367103 0.025567 1.022304
v -0.523353 -0.005202 0.723746
v -0.367103 -0.001756 0.995369
v -0.367103 0.025567 1.022304
v -0.523353 0.021053 0.750777
v -0.320228 0.026855 0.334514
v -0.679603 -0.022112 0.280128
v -0.663978 -0.033379 0.330037
v -0.320228 0.015971 0.384388
v -0.320228 0.015971 0.384388
v -0.663978 -0.033379 0.330037
v -0.648353 -0.048261 0.30102
v -0.288978 -0.018367 0.359042
v -0.320228 0.006638 0.274661
v -0.663978 -0.039318 0.235662
v -0.288978 -0.019507 0.295552
v -0.648353 -0.055971 0.254739
v 0.179772 0.048401 -0.319991
v 0.429772 0.089866 0.17928
v 0.492272 0.056322 0.153862
v 0.257897 0.005755 -0.359291
v 0.257897 0.005755 -0.359291
v 0.492272 0.056322 0.153862
v 0.445397 0.029972 0.174771
v 0.211022 -0.031622 -0.336428
v 0.086022 0.023684 -0.267909
v 0.351647 0.075648 0.213796
v 0.101647 -0.016368 -0.276124
v 0.367272 0.037325 0.221085
v 0.039147 -0.025349 -0.084527
v -0.679603 -0.003639 1.108018
v -0.773353 0.002175 1.090878
v -0.085853 -0.00978 -0.119166
v -0.101478 0.040041 -0.11279
v -0.804603 0.033933 1.13307
v -0.742103 0.056159 1.17708
v 0.023522 0.064786 -0.06996
v 0.117272 0.028322 -0.04718
v -0.663978 0.042148 1.163644
v -0.663978 0.042148 1.163644
v 0.117272 0.028322 -0.04718
v 0.757897 0.073429 -1.297978
v 0.867272 0.020872 -1.241462
v 0.867272 0.020872 -1.241462
v 0.757897 -0.039838 -1.261557
v 0.601647 0.054279 -1.341316
v 0.601647 -0.017856 -1.3281
v -1.226478 -0.171185 0.213034
v -1.226478 -0.171185 0.213034
v -1.226478 -0.171185 0.213034
v -1.226478 -0.171185 0.213034
v -1.226478 -0.171185 0.213034
v 0.476647 0.031779 -0.789249
v -0.148353 0.06192 -0.779182
v -0.148353 0.023825 -0.724932
v 0.476647 -0.005755 -0.719389
v 0.476647 -0.005755 -0.719389
v -0.148353 0.023825 -0.724932
v -0.163978 -0.007348 -0.766226
v 0.445397 -0.047854 -0.79006
v 0.445397 0.019562 -0.896811
v -0.163978 0.050234 -0.855471
v 0.445397 -0.030541 -0.90316
v -0.179603 0.010128 -0.863681
v -1.242103 -0.037488 -0.776293
v -1.242103 -0.037488 -0.776293
v -1.242103 -0.037488 -0.776293
v -1.242103 -0.037488 -0.776293
v -1.242103 -0.037488 -0.776293
v -0.085853 -0.051142 1.389981
v -0.367103 0.025567 1.022304
v -0.085853 -0.051142 1.389981
v -0.085853 -0.051142 1.389981
v -0.085853 -0.051142 1.389981
v -0.085853 -0.051142 1.389981
v -0.867103 -0.045543 1.37286
v -0.867103 -0.045543 1.37286
v -0.867103 -0.045543 1.37286
v -0.867103 -0.045543 1.37286
v -0.663978 0.042148 1.163644
v -0.867103 -0.045543 1.37286
v 0.867272 0.088315 1.026553
v 0.867272 0.088315 1.026553
v 0.867272 0.088315 1.026553
v 0.867272 0.088315 1.026553
v 0.867272 0.088315 1.026553

# 255 Texture Coordinates
vt 0.0978 0.9648
vt 0.0975 0.9646
vt 0.0974 0.9645
vt 0.0978 0.9648
vt 0.0974 0.9645
vt 0.0978 0.9648
vt 0.0978 0.9648
vt 0.0974 0.9645
vt 0.0975 0.9645
vt 0.0978 0.9648
vt 0.0975 0.9645
vt 0.0978 0.9647
vt 0.0979 0.9648
vt 0.0975 0.9645
vt 0.0975 0.9646
vt 0.0979 0.9648
vt 0.0975 0.9646
vt 0.0978 0.9648
vt 0.0979 0.9647
vt 0.0975 0.9645
vt 0.0975 0.9645
vt 0.0979 0.9647
vt 0.0975 0.9645
vt 0.0979 0.9648
vt 0.0978 0.9647
vt 0.0975 0.9645
vt 0.0975 0.9645
vt 0.0978 0.9647
vt 0.0975 0.9645
vt 0.0979 0.9647
vt 0.0979 0.9651
vt 0.0984 0.9649
vt 0.0983 0.9649
vt 0.0979 0.9651
vt 0.0983 0.9649
vt 0.0979 0.965
vt 0.0979 0.965
vt 0.0983 0.9649
vt 0.0983 0.9648
vt 0.0979 0.965
vt 0.0983 0.9648
vt 0.0979 0.9649
vt 0.0979 0.965
vt 0.0984 0.9649
vt 0.0984 0.9649
vt 0.0979 0.965
vt 0.0984 0.9649
vt 0.0979 0.9651
vt 0.0979 0.9649
vt 0.0984 0.9648
vt 0.0984 0.9649
vt 0.0979 0.9649
vt 0.0984 0.9649
vt 0.0979 0.965
vt 0.0979 0.9649
vt 0.0983 0.9648
vt 0.0984 0.9648
vt 0.0979 0.9649
vt 0.0984 0.9648
vt 0.0979 0.9649
vt 0.0977 0.9654
vt 0.0971 0.9654
vt 0.0971 0.9653
vt 0.0977 0.9654
vt 0.0971 0.9653
vt 0.0977 0.9653
vt 0.0977 0.9653
vt 0.0971 0.9653
vt 0.0971 0.9652
vt 0.0977 0.9653
vt 0.0971 0.9652
vt 0.0977 0.9652
vt 0.0978 0.9653
vt 0.0972 0.9653
vt 0.0971 0.9654
vt 0.0978 0.9653
vt 0.0971 0.9654
vt 0.0977 0.9654
vt 0.0978 0.9652
vt 0.0972 0.9652
vt 0.0972 0.9653
vt 0.0978 0.9652
vt 0.0972 0.9653
vt 0.0978 0.9653
vt 0.0977 0.9652
vt 0.0971 0.9652
vt 0.0972 0.9652
vt 0.0977 0.9652
vt 0.0972 0.9652
vt 0.0978 0.9652
vt 0.0978 0.9651
vt 0.0978 0.9644
vt 0.0979 0.9644
vt 0.0978 0.9651
vt 0.0979 0.9644
vt 0.0979 0.9652
vt 0.0979 0.9653
vt 0.0979 0.9645
vt 0.0978 0.9645
vt 0.0979 0.9653
vt 0.0978 0.9645
vt 0.0978 0.9654
vt 0.0976 0.9653
vt 0.0977 0.9645
vt 0.0978 0.9644
vt 0.0976 0.9653
vt 0.0978 0.9644
vt 0.0978 0.9651
vt 0.0979 0.9652
vt 0.0979 0.9644
vt 0.0979 0.9645
vt 0.0979 0.9652
vt 0.0979 0.9645
vt 0.0979 0.9653
vt 0.0978 0.9654
vt 0.0978 0.9645
vt 0.0977 0.9645
vt 0.0978 0.9654
vt 0.0977 0.9645
vt 0.0976 0.9653
vt 0.0977 0.9656
vt 0.0978 0.9654
vt 0.0976 0.9653
vt 0.0977 0.9656
vt 0.0976 0.9653
vt 0.0976 0.9654
vt 0.0976 0.9654
vt 0.0976 0.9653
vt 0.0978 0.9651
vt 0.0976 0.9654
vt 0.0978 0.9651
vt 0.0977 0.9652
vt 0.0979 0.9656
vt 0.0979 0.9653
vt 0.0978 0.9654
vt 0.0979 0.9656
vt 0.0978 0.9654
vt 0.0977 0.9656
vt 0.0979 0.9653
vt 0.0979 0.9652
vt 0.0979 0.9653
vt 0.0979 0.9653
vt 0.0979 0.9653
vt 0.0979 0.9656
vt 0.0977 0.9652
vt 0.0978 0.9651
vt 0.0979 0.9652
vt 0.0977 0.9652
vt 0.0979 0.9652
vt 0.0979 0.9653
vt 0.0984 0.9649
vt 0.0991 0.9644
vt 0.0983 0.9649
vt 0.0984 0.9648
vt 0.0991 0.9644
vt 0.0984 0.9649
vt 0.0983 0.9649
vt 0.0991 0.9644
vt 0.0983 0.9648
vt 0.0984 0.9649
vt 0.0991 0.9644
vt 0.0984 0.9649
vt 0.0983 0.9648
vt 0.0991 0.9644
vt 0.0984 0.9648
vt 0.0977 0.9655
vt 0.0984 0.9656
vt 0.0984 0.9655
vt 0.0977 0.9655
vt 0.0984 0.9655
vt 0.0977 0.9653
vt 0.0977 0.9653
vt 0.0984 0.9655
vt 0.0984 0.9654
vt 0.0977 0.9653
vt 0.0984 0.9654
vt 0.0977 0.9652
vt 0.0978 0.9654
vt 0.0985 0.9655
vt 0.0984 0.9656
vt 0.0978 0.9654
vt 0.0984 0.9656
vt 0.0977 0.9655
vt 0.0978 0.9653
vt 0.0985 0.9654
vt 0.0985 0.9655
vt 0.0978 0.9653
vt 0.0985 0.9655
vt 0.0978 0.9654
vt 0.0977 0.9652
vt 0.0984 0.9654
vt 0.0985 0.9654
vt 0.0977 0.9652
vt 0.0985 0.9654
vt 0.0978 0.9653
vt 0.0984 0.9654
vt 0.0997 0.9652
vt 0.0985 0.9654
vt 0.0985 0.9655
vt 0.0997 0.9652
vt 0.0984 0.9656
vt 0.0984 0.9655
vt 0.0997 0.9652
vt 0.0984 0.9654
vt 0.0985 0.9654
vt 0.0997 0.9652
vt 0.0985 0.9655
vt 0.0984 0.9656
vt 0.0997 0.9652
vt 0.0984 0.9655
vt 0.0975 0.9645
vt 0.097 0.9639
vt 0.0975 0.9645
vt 0.0975 0.9645
vt 0.097 0.9639
vt 0.0975 0.9646
vt 0.0974 0.9645
vt 0.097 0.9639
vt 0.0975 0.9645
vt 0.0975 0.9645
vt 0.097 0.9639
vt 0.0975 0.9645
vt 0.0975 0.9646
vt 0.097 0.9639
vt 0.0974 0.9645
vt 0.0979 0.9645
vt 0.0979 0.9644
vt 0.0979 0.964
vt 0.0978 0.9644
vt 0.0977 0.9645
vt 0.0979 0.964
vt 0.0978 0.9645
vt 0.0979 0.9645
vt 0.0979 0.964
vt 0.0979 0.9644
vt 0.0978 0.9644
vt 0.0979 0.964
vt 0.0977 0.9645
vt 0.0978 0.9645
vt 0.0979 0.964
vt 0.0971 0.9652
vt 0.096 0.9648
vt 0.0972 0.9652
vt 0.0972 0.9653
vt 0.096 0.9648
vt 0.0971 0.9654
vt 0.0971 0.9653
vt 0.096 0.9648
vt 0.0971 0.9652
vt 0.0972 0.9652
vt 0.096 0.9648
vt 0.0972 0.9653
vt 0.0971 0.9654
vt 0.096 0.9648
vt 0.0971 0.9653

# 255 Vertex Normals
vn 0.133539 0.990501 -0.032796
vn 0.078268 0.995803 0.047442
vn 0.365937 0.923193 -0.117495
vn 0.133539 0.990501 -0.032796
vn 0.365937 0.923193 -0.117495
vn 0.297642 0.947892 -0.113623
vn 0.612774 -0.730065 -0.302513
vn 0.640563 -0.676656 -0.363064
vn 0.352959 -0.910978 -0.213396
vn 0.612774 -0.730065 -0.302513
vn 0.352959 -0.910978 -0.213396
vn 0.140224 -0.988275 -0.060417
vn -0.19576 0.973704 0.116525
vn -0.107939 0.993111 0.045606
vn 0.078268 0.995803 0.047442
vn -0.19576 0.973704 0.116525
vn 0.078268 0.995803 0.047442
vn 0.133539 0.990501 -0.032796
vn -0.605339 -0.710928 0.357976
vn -0.423558 -0.874689 0.235623
vn -0.762226 -0.457741 0.457694
vn -0.605339 -0.710928 0.357976
vn -0.762226 -0.457741 0.457694
vn -0.765588 -0.461482 0.448229
vn 0.140224 -0.988275 -0.060417
vn 0.352959 -0.910978 -0.213396
vn -0.423558 -0.874689 0.235623
vn 0.140224 -0.988275 -0.060417
vn -0.423558 -0.874689 0.235623
vn -0.605339 -0.710928 0.357976
vn -0.145809 0.987795 0.054778
vn -0.170954 0.978291 -0.117141
vn -0.209119 0.943226 0.258058
vn -0.145809 0.987795 0.054778
vn -0.209119 0.943226 0.258058
vn -0.1714 0.96255 0.210044
vn -0.010781 -0.77114 0.636575
vn 0.078786 -0.869173 0.488191
vn 0.067176 -0.899871 0.430951
vn -0.010781 -0.77114 0.636575
vn 0.067176 -0.899871 0.430951
vn 0.029724 -0.939171 0.34216
vn -0.079968 0.932714 -0.351639
vn -0.136066 0.906914 -0.398739
vn -0.170954 0.978291 -0.117141
vn -0.079968 0.932714 -0.351639
vn -0.170954 0.978291 -0.117141
vn -0.145809 0.987795 0.054778
vn 0.152738 -0.802574 -0.576669
vn 0.149685 -0.957693 -0.245802
vn 0.166739 -0.613912 -0.771563
vn 0.152738 -0.802574 -0.576669
vn 0.166739 -0.613912 -0.771563
vn 0.162664 -0.489915 -0.85646
vn 0.029724 -0.939171 0.34216
vn 0.067176 -0.899871 0.430951
vn 0.149685 -0.957693 -0.245802
vn 0.029724 -0.939171 0.34216
vn 0.149685 -0.957693 -0.245802
vn 0.152738 -0.802574 -0.576669
vn 0.175401 0.970112 -0.167682
vn 0.043665 0.996228 -0.074982
vn 0.377385 0.894595 -0.239332
vn 0.175401 0.970112 -0.167682
vn 0.377385 0.894595 -0.239332
vn 0.361999 0.896983 -0.253728
vn 0.507611 -0.850191 -0.139663
vn 0.439201 -0.888226 -0.13475
vn 0.289668 -0.956068 -0.045014
vn 0.507611 -0.850191 -0.139663
vn 0.289668 -0.956068 -0.045014
vn 0.171921 -0.984413 0.037059
vn -0.208618 0.977872 0.015642
vn -0.163723 0.985866 0.035537
vn 0.043665 0.996228 -0.074982
vn -0.208618 0.977872 0.015642
vn 0.043665 0.996228 -0.074982
vn 0.175401 0.970112 -0.167682
vn -0.649533 -0.633424 0.420573
vn -0.431977 -0.839784 0.328874
vn -0.817292 -0.297565 0.493446
vn -0.649533 -0.633424 0.420573
vn -0.817292 -0.297565 0.493446
vn -0.782495 -0.402673 0.474927
vn 0.171921 -0.984413 0.037059
vn 0.289668 -0.956068 -0.045014
vn -0.431977 -0.839784 0.328874
vn 0.171921 -0.984413 0.037059
vn -0.431977 -0.839784 0.328874
vn -0.649533 -0.633424 0.420573
vn 0.183756 -0.974807 0.126429
vn 0.355039 -0.916133 0.186139
vn -0.456904 -0.851227 -0.258171
vn 0.183756 -0.974807 0.126429
vn -0.456904 -0.851227 -0.258171
vn -0.592103 -0.734995 -0.330449
vn -0.723121 0.557647 -0.407586
vn -0.813746 0.489317 -0.313667
vn -0.088762 0.986472 0.13782
vn -0.438837 0.864247 -0.245966
vn -0.088762 0.986472 0.13782
vn 0.067256 0.996561 0.048394
vn 0.5027 -0.801041 0.325001
vn 0.631257 -0.676407 0.379458
vn 0.355039 -0.916133 0.186139
vn 0.5027 -0.801041 0.325001
vn 0.355039 -0.916133 0.186139
vn 0.183756 -0.974807 0.126429
vn -0.592103 -0.734995 -0.330449
vn -0.456904 -0.851227 -0.258171
vn -0.891152 0.290316 -0.348662
vn -0.592103 -0.734995 -0.330449
vn -0.891152 0.290316 -0.348662
vn -0.86141 0.140285 -0.488153
vn 0.067256 0.996561 0.048394
vn -0.088762 0.986472 0.13782
vn 0.256134 0.953268 0.160239
vn 0.067256 0.996561 0.048394
vn 0.256134 0.953268 0.160239
vn 0.321589 0.926084 0.197354
vn 0.186709 0.975329 0.117785
vn 0.067256 0.996561 0.048394
vn 0.321589 0.926084 0.197354
vn 0.186709 0.975329 0.117785
vn 0.321589 0.926084 0.197354
vn 0.335772 0.919337 0.205127
vn 0.437285 -0.855001 0.278846
vn 0.5027 -0.801041 0.325001
vn 0.183756 -0.974807 0.126429
vn 0.437285 -0.855001 0.278846
vn 0.183756 -0.974807 0.126429
vn 0.071759 -0.99586 0.055807
vn -0.495911 0.822857 -0.277451
vn -0.438837 0.864247 -0.245966
vn 0.067256 0.996561 0.048394
vn -0.495911 0.822857 -0.277451
vn 0.067256 0.996561 0.048394
vn 0.186709 0.975329 0.117785
vn -0.742007 -0.522173 -0.420429
vn -0.592103 -0.734995 -0.330449
vn -0.86141 0.140285 -0.488153
vn -0.742007 -0.522173 -0.420429
vn -0.723121 0.557647 -0.407586
vn -0.495911 0.822857 -0.277451
vn 0.071759 -0.99586 0.055807
vn 0.183756 -0.974807 0.126429
vn -0.592103 -0.734995 -0.330449
vn 0.071759 -0.99586 0.055807
vn -0.592103 -0.734995 -0.330449
vn -0.742007 -0.522173 -0.420429
vn -0.170954 0.978291 -0.117141
vn -0.284814 0.912039 0.29507
vn -0.209119 0.943226 0.258058
vn 0.149685 -0.957693 -0.245802
vn 0.184175 -0.660765 -0.727647
vn 0.166739 -0.613912 -0.771563
vn 0.078786 -0.869173 0.488191
vn 0.106981 -0.860128 0.498734
vn 0.067176 -0.899871 0.430951
vn -0.136066 0.906914 -0.398739
vn -0.192205 0.890609 -0.412156
vn -0.170954 0.978291 -0.117141
vn 0.067176 -0.899871 0.430951
vn 0.181653 -0.969996 0.161584
vn 0.149685 -0.957693 -0.245802
vn 0.046359 0.945009 0.323742
vn -0.006323 0.987629 0.156684
vn 0.004502 0.840559 0.541702
vn 0.046359 0.945009 0.323742
vn 0.004502 0.840559 0.541702
vn 0.037468 0.88029 0.472954
vn -0.039523 -0.821701 0.568547
vn -0.013001 -0.795672 0.605588
vn -0.022665 -0.953605 0.300205
vn -0.039523 -0.821701 0.568547
vn -0.022665 -0.953605 0.300205
vn -0.064087 -0.995258 0.073173
vn 0.009664 0.855049 -0.518458
vn -0.060579 0.61914 -0.78294
vn -0.006323 0.987629 0.156684
vn 0.009664 0.855049 -0.518458
vn -0.006323 0.987629 0.156684
vn 0.046359 0.945009 0.323742
vn -0.054186 0.171943 -0.983615
vn -0.068758 0.225705 -0.971766
vn -0.060579 0.61914 -0.78294
vn -0.081996 -0.289489 -0.953663
vn -0.060579 0.61914 -0.78294
vn 0.009664 0.855049 -0.518458
vn -0.064087 -0.995258 0.073173
vn -0.022665 -0.953605 0.300205
vn -0.038828 -0.985396 -0.16579
vn -0.064087 -0.995258 0.073173
vn -0.038828 -0.985396 -0.16579
vn -0.093728 -0.599342 -0.794987
vn -0.022665 -0.953605 0.300205
vn 0.029172 -0.983056 -0.180967
vn -0.038828 -0.985396 -0.16579
vn -0.060579 0.61914 -0.78294
vn -0.090061 0.98705 -0.132747
vn -0.006323 0.987629 0.156684
vn -0.013001 -0.795672 0.605588
vn 0.016806 -0.801046 0.598366
vn -0.022665 -0.953605 0.300205
vn -0.068758 0.225705 -0.971766
vn -0.090089 0.23329 -0.968225
vn -0.060579 0.61914 -0.78294
vn -0.006323 0.987629 0.156684
vn -0.07267 0.816217 0.573157
vn 0.004502 0.840559 0.541702
vn 0.352959 -0.910978 -0.213396
vn -0.164718 -0.986322 -0.006042
vn -0.423558 -0.874689 0.235623
vn -0.037349 0.972144 0.23139
vn -0.037349 0.972144 0.23139
vn 0.078268 0.995803 0.047442
vn 0.640563 -0.676656 -0.363064
vn 0.638531 -0.647778 -0.415527
vn 0.352959 -0.910978 -0.213396
vn -0.423558 -0.874689 0.235623
vn -0.74666 -0.467 0.473718
vn -0.762226 -0.457741 0.457694
vn 0.078268 0.995803 0.047442
vn 0.435599 0.897197 -0.072743
vn 0.365937 0.923193 -0.117495
vn -0.858649 -0.262443 -0.440279
vn -0.456904 -0.851227 -0.258171
vn -0.856859 -0.379389 -0.34908
vn 0.355039 -0.916133 0.186139
vn 0.631257 -0.676407 0.379458
vn 0.657064 -0.662089 0.360424
vn -0.088762 0.986472 0.13782
vn -0.813746 0.489317 -0.313667
vn -0.438448 0.88101 0.177722
vn -0.456904 -0.851227 -0.258171
vn 0.355039 -0.916133 0.186139
vn -0.028832 -0.983951 -0.176096
vn 0.238729 0.790997 0.563322
vn -0.088762 0.986472 0.13782
vn 0.238729 0.790997 0.563322
vn 0.289668 -0.956068 -0.045014
vn -0.041175 -0.995219 0.088562
vn -0.431977 -0.839784 0.328874
vn -0.163723 0.985866 0.035537
vn -0.145519 0.986359 0.076946
vn 0.043665 0.996228 -0.074982
vn 0.439201 -0.888226 -0.13475
vn 0.431576 -0.889031 -0.152858
vn 0.289668 -0.956068 -0.045014
vn -0.431977 -0.839784 0.328874
vn -0.819209 -0.234471 0.523373
vn -0.817292 -0.297565 0.493446
vn 0.043665 0.996228 -0.074982
vn 0.397428 0.894766 -0.203579
vn 0.377385 0.894595 -0.239332

# bois, 85 grouped triangles

usemtl bois.tga
o bois
g bois

f 1/1/1 2/2/2 3/3/3
f 1/4/4 3/5/5 4/6/6
f 5/7/7 6/8/8 7/9/9
f 5/10/10 7/11/11 8/12/12
f 9/13/13 10/14/14 2/15/15
f 9/16/16 2/17/17 1/18/18
f 11/19/19 12/20/20 13/21/21
f 11/22/22 13/23/23 14/24/24
f 8/25/25 7/26/26 12/27/27
f 8/28/28 12/29/29 11/30/30
f 15/31/31 16/32/32 17/33/33
f 15/34/34 17/35/35 18/36/36
f 19/37/37 20/38/38 21/39/39
f 19/40/40 21/41/41 22/42/42
f 23/43/43 24/44/44 16/45/45
f 23/46/46 16/47/47 15/48/48
f 25/49/49 26/50/50 24/51/51
f 25/52/52 24/53/53 23/54/54
f 22/55/55 21/56/56 26/57/57
f 22/58/58 26/59/59 25/60/60
f 27/61/61 28/62/62 29/63/63
f 27/64/64 29/65/65 30/66/66
f 31/67/67 32/68/68 33/69/69
f 31/70/70 33/71/71 34/72/72
f 35/73/73 36/74/74 28/75/75
f 35/76/76 28/77/77 27/78/78
f 37/79/79 38/80/80 36/81/81
f 37/82/82 36/83/83 35/84/84
f 34/85/85 33/86/86 38/87/87
f 34/88/88 38/89/89 37/90/90
f 39/91/91 40/92/92 41/93/93
f 39/94/94 41/95/95 42/96/96
f 43/97/97 44/98/98 45/99/99
f 43/100/100 45/101/101 46/102/102
f 47/103/103 48/104/104 40/105/105
f 47/106/106 40/107/107 39/108/108
f 42/109/109 41/110/110 44/111/111
f 42/112/112 44/113/113 43/114/114
f 46/115/115 45/116/116 49/117/117
f 46/118/118 49/119/119 50/120/120
f 51/121/121 46/122/122 50/123/123
f 51/124/124 50/125/125 52/126/126
f 53/127/127 47/128/128 39/129/129
f 53/130/130 39/131/131 54/132/132
f 55/133/133 43/134/134 46/135/135
f 55/136/136 46/137/137 51/138/138
f 56/139/139 42/140/140 43/141/141
f 56/142/142 43/143/143 55/144/144
f 54/145/145 39/146/146 42/147/147
f 54/148/148 42/149/149 56/150/150
f 16/151/151 57/152/152 17/153/153
f 26/154/154 58/155/155 24/156/156
f 20/157/157 59/158/158 21/159/159
f 24/160/160 60/161/161 16/162/162
f 21/163/163 61/164/164 26/165/165
f 62/166/166 63/167/167 64/168/168
f 62/169/169 64/170/170 65/171/171
f 66/172/172 67/173/173 68/174/174
f 66/175/175 68/176/176 69/177/177
f 70/178/178 71/179/179 63/180/180
f 70/181/181 63/182/182 62/183/183
f 72/184/184 73/185/185 71/186/186
f 72/187/187 71/188/188 70/189/189
f 69/190/190 68/191/191 73/192/192
f 69/193/193 73/194/194 72/195/195
f 68/196/196 74/197/197 73/198/198
f 71/199/199 75/200/200 63/201/201
f 67/202/202 76/203/203 68/204/204
f 73/205/205 77/206/206 71/207/207
f 63/208/208 78/209/209 64/210/210
f 7/211/211 79/212/212 12/213/213
f 80/214/214 81/215/215 2/216/216
f 6/217/217 82/218/218 7/219/219
f 12/220/220 83/221/221 13/222/222
f 2/223/223 84/224/224 3/225/225
f 44/226/226 41/227/227 85/228/228
f 40/229/229 48/230/230 86/231/231
f 45/232/232 44/233/233 87/234/234
f 41/235/235 40/236/236 88/237/237
f 89/238/238 45/239/239 90/240/240
f 33/241/241 91/242/242 38/243/243
f 36/244/244 92/245/245 28/246/246
f 32/247/247 93/248/248 33/249/249
f 38/250/250 94/251/251 36/252/252
f 28/253/253 95/254/254 29/255/255
