# Wavefront OBJ file
# Exported by Misfit Model 3D 1.3.8
# Thu Oct 03 19:30:23 2024

# 8 Vertices
v -0.243256 -0.295587 0.267798
v 0.09438 -0.278339 0.353526
v -0.405746 0.353354 0.35534
v 0.163002 0.15538 0.430385
v 0.300245 -0.321583 -0.216092
v -0.371465 -0.17082 -0.291358
v 0.231785 0.359353 -0.192152
v -0.486874 0.03208 -0.291358

# 36 Texture Coordinates
vt 1.0 0.0
vt 0.0 0.0
vt 0.0 1.0
vt 1.0 0.0
vt 0.0 0.0
vt 0.0 1.0
vt 1.0 0.0
vt 0.0 0.0
vt 0.0 1.0
vt 1.0 0.0
vt 0.0 0.0
vt 0.0 1.0
vt 0.0 1.0
vt 0.0 0.0
vt 1.0 0.0
vt 0.0 1.0
vt 0.0 0.0
vt 1.0 0.0
vt 0.0 1.0
vt 0.0 0.0
vt 1.0 0.0
vt 0.0 1.0
vt 0.0 0.0
vt 1.0 0.0
vt 0.0 1.0
vt 0.0 0.0
vt 1.0 0.0
vt 0.0 1.0
vt 0.0 0.0
vt 1.0 0.0
vt 0.0 1.0
vt 0.0 0.0
vt 1.0 0.0
vt 0.0 1.0
vt 0.0 0.0
vt 1.0 0.0

# 36 Vertex Normals
vn -0.232768 -0.187029 0.954379
vn -0.205828 -0.165729 0.964453
vn -0.205828 -0.165729 0.964453
vn -0.205828 -0.165729 0.964453
vn -0.178624 -0.144216 0.973291
vn -0.205828 -0.165729 0.964453
vn 0.121663 0.047088 -0.991454
vn 0.115227 0.054483 -0.991844
vn 0.115227 0.054483 -0.991844
vn 0.115227 0.054483 -0.991844
vn 0.10878 0.061874 -0.992138
vn 0.115227 0.054483 -0.991844
vn -0.895888 -0.367182 0.250124
vn -0.895888 -0.367182 0.250124
vn -0.952196 -0.260048 0.160303
vn -0.895888 -0.367182 0.250124
vn -0.819229 -0.465974 0.334264
vn -0.895888 -0.367182 0.250124
vn 0.979419 -0.042127 0.197392
vn 0.979419 -0.042127 0.197392
vn 0.939232 0.082716 0.333168
vn 0.979419 -0.042127 0.197392
vn 0.984703 -0.165469 0.054582
vn 0.979419 -0.042127 0.197392
vn -0.338143 0.859035 -0.384342
vn -0.338143 0.859035 -0.384342
vn -0.338143 0.859035 -0.384342
vn 0.271982 0.905173 0.326629
vn 0.271982 0.905173 0.326629
vn 0.271982 0.905173 0.326629
vn -0.055219 -0.990585 -0.125268
vn -0.055219 -0.990585 -0.125268
vn -0.218475 -0.97583 -0.004876
vn -0.055219 -0.990585 -0.125268
vn 0.110322 -0.964365 -0.240478
vn -0.055219 -0.990585 -0.125268

# 12 Ungrouped triangles

o ungrouped
g ungrouped

f 1/1/1 2/2/2 3/3/3
f 2/4/4 4/5/5 3/6/6
f 5/7/7 6/8/8 7/9/9
f 6/10/10 8/11/11 7/12/12
f 3/13/13 6/14/14 1/15/15
f 3/16/16 8/17/17 6/18/18
f 7/19/19 2/20/20 5/21/21
f 7/22/22 4/23/23 2/24/24
f 3/25/25 7/26/26 8/27/27
f 3/28/28 4/29/29 7/30/30
f 2/31/31 6/32/32 5/33/33
f 2/34/34 1/35/35 6/36/36
