# Blender v3.4.1 OBJ File: ''
# www.blender.org
mtllib tris.mtl
o Pier_01_LOD1_Mesh.004
v -0.739830 2.161063 -1.459565
v -0.739830 2.123410 -1.459565
v -0.732789 2.161063 -1.268176
v 0.736613 2.161063 -1.421815
v 0.736613 2.123410 -1.421815
v 0.730279 2.161063 -1.217010
v 0.730279 2.123410 -1.217010
v -0.732789 2.123410 -1.268176
v -0.923530 0.000000 -1.302006
v -0.946261 2.620106 -1.279274
v -0.923530 0.000000 -1.451295
v -0.946261 2.620106 -1.474025
v -0.774242 0.000000 -1.302006
v -0.751511 2.620106 -1.279274
v -0.774242 0.000000 -1.451295
v -0.751511 2.620106 -1.474025
v 0.923530 0.000000 -1.302006
v 0.923530 0.000000 -1.451295
v 0.946261 2.510246 -1.279275
v 0.774242 0.000000 -1.302006
v 0.774242 0.000000 -1.451295
v 0.751511 2.510246 -1.279275
v 0.751511 2.510246 -1.474025
v 0.946261 2.510246 -1.474025
v 0.923530 -0.000000 1.302007
v 0.923530 -0.000000 1.451295
v 0.946261 2.510245 1.279276
v 0.774242 -0.000000 1.302007
v 0.774242 -0.000000 1.451295
v 0.751511 2.510245 1.279276
v 0.751511 2.510245 1.474027
v 0.946261 2.510245 1.474027
v -0.923530 -0.000000 1.302007
v -0.923530 -0.000000 1.451295
v -0.946261 2.510250 1.279276
v -0.774242 -0.000000 1.302007
v -0.774242 -0.000000 1.451295
v -0.751511 2.510250 1.279276
v -0.751511 2.510250 1.474027
v -0.946261 2.510250 1.474027
v 0.751269 1.994209 1.468306
v 0.697507 1.994209 1.468306
v 0.751269 2.119722 1.468306
v 0.751269 1.994210 -1.468305
v 0.697507 1.994210 -1.468305
v 0.751269 2.119723 -1.468305
v 0.697507 2.119723 -1.468305
v 0.697507 2.119722 1.468306
v -0.751269 1.994209 1.468306
v -0.697507 1.994209 1.468306
v -0.751269 2.119722 1.468306
v -0.751269 1.994210 -1.468305
v -0.697507 1.994210 -1.468305
v -0.751269 2.119723 -1.468305
v -0.697507 2.119723 -1.468305
v -0.697507 2.119722 1.468306
v -0.738082 2.161062 1.280221
v -0.738082 2.123409 1.280221
v -0.739142 2.161062 1.443420
v 0.741351 2.161062 1.260223
v 0.741351 2.123409 1.260223
v 0.735523 2.161062 1.440719
v 0.735523 2.123409 1.440719
v -0.739142 2.123409 1.443420
v -0.836698 2.161062 0.806551
v -0.836698 2.123409 0.806551
v -0.870685 2.161062 1.016899
v 0.856697 2.161062 0.967791
v 0.856697 2.123409 0.967791
v 0.848515 2.161062 1.181286
v 0.848515 2.123409 1.181286
v -0.870685 2.123409 1.016899
v -0.884531 2.161063 0.515411
v -0.884531 2.123409 0.515411
v -0.886419 2.161062 0.761634
v 0.883272 2.161063 0.516670
v 0.883272 2.123409 0.516670
v 0.837956 2.161062 0.761634
v 0.837956 2.123409 0.761634
v -0.886419 2.123409 0.761634
v -0.854950 2.161063 0.192690
v -0.854950 2.123409 0.192690
v -0.845509 2.161063 0.408073
v 0.835439 2.161063 0.243041
v 0.835439 2.123409 0.243041
v 0.827886 2.161063 0.472271
v 0.827886 2.123409 0.472271
v -0.845509 2.123409 0.408073
v -0.892965 2.161063 -0.065828
v -0.892965 2.123409 -0.065828
v -0.852936 2.161063 0.176241
v 0.852936 2.161063 -0.358116
v 0.852936 2.123409 -0.358116
v 0.873328 2.161063 -0.112271
v 0.873328 2.123409 -0.112271
v -0.852936 2.123409 0.176241
v -0.860388 2.161063 -0.621781
v -0.860388 2.123409 -0.621781
v -0.852035 2.161063 -0.408573
v 0.868066 2.161063 -0.620371
v 0.868066 2.123409 -0.620371
v 0.852900 2.161063 -0.408542
v 0.852900 2.123409 -0.408542
v -0.852035 2.123409 -0.408573
v -0.886822 2.161063 -0.918450
v -0.886822 2.123410 -0.918450
v -0.886022 2.161063 -0.672765
v 0.883927 2.161063 -0.918550
v 0.883927 2.123410 -0.918550
v 0.878579 2.161063 -0.671979
v 0.878579 2.123409 -0.671979
v -0.886022 2.123409 -0.672765
v -0.855101 2.161063 -1.238381
v -0.855101 2.123410 -1.238381
v -0.847956 2.161063 -1.027137
v 0.834205 2.161063 -1.194827
v 0.834205 2.123410 -1.194827
v 0.828858 2.161063 -0.960844
v 0.828858 2.123410 -0.960844
v -0.847956 2.123410 -1.027137
vt 0.151549 0.365939
vt 0.152187 0.365939
vt 0.152187 0.367430
vt 0.151549 0.367430
vt 0.151549 0.365939
vt 0.152187 0.365939
vt 0.151549 0.367430
vt 0.152187 0.367430
vt 0.149503 0.342256
vt 0.149233 0.372068
vt 0.149233 0.372068
vt 0.149503 0.342256
vt 0.151546 0.372068
vt 0.151276 0.342256
vt 0.151546 0.372068
vt 0.151276 0.342256
vt 0.151316 0.378410
vt 0.149003 0.378410
vt 0.149003 0.378410
vt 0.151316 0.378410
vt 0.171439 0.342256
vt 0.171439 0.342256
vt 0.171709 0.372068
vt 0.171709 0.372068
vt 0.169666 0.342256
vt 0.169666 0.342256
vt 0.169396 0.372068
vt 0.169396 0.372068
vt 0.169166 0.378410
vt 0.169166 0.378410
vt 0.171478 0.378410
vt 0.171478 0.378410
vt 0.171439 0.342256
vt 0.171709 0.372068
vt 0.171709 0.372068
vt 0.171439 0.342256
vt 0.169666 0.342256
vt 0.169666 0.342256
vt 0.169396 0.372068
vt 0.169396 0.372068
vt 0.169166 0.378410
vt 0.171478 0.378410
vt 0.171478 0.378410
vt 0.169166 0.378410
vt 0.171439 0.342256
vt 0.171439 0.342256
vt 0.171709 0.372068
vt 0.171709 0.372068
vt 0.169666 0.342256
vt 0.169666 0.342256
vt 0.169396 0.372068
vt 0.169396 0.372068
vt 0.169166 0.378410
vt 0.169166 0.378410
vt 0.171478 0.378410
vt 0.171478 0.378410
vt 0.169393 0.365939
vt 0.169393 0.367430
vt 0.168754 0.367430
vt 0.168754 0.365939
vt 0.168754 0.365939
vt 0.169393 0.365939
vt 0.169393 0.367430
vt 0.168754 0.367430
vt 0.151549 0.365939
vt 0.152187 0.365939
vt 0.152187 0.367430
vt 0.151549 0.367430
vt 0.151549 0.365939
vt 0.152187 0.365939
vt 0.151549 0.367430
vt 0.152187 0.367430
vt 0.151549 0.365939
vt 0.152187 0.365939
vt 0.152187 0.367430
vt 0.151549 0.367430
vt 0.151549 0.365939
vt 0.152187 0.365939
vt 0.151549 0.367430
vt 0.152187 0.367430
vt 0.270073 0.362553
vt 0.270711 0.362553
vt 0.270711 0.364043
vt 0.270073 0.364043
vt 0.270073 0.362553
vt 0.270711 0.362553
vt 0.270073 0.364043
vt 0.270711 0.364043
vt 0.151549 0.365939
vt 0.152187 0.365939
vt 0.152187 0.367430
vt 0.151549 0.367430
vt 0.151549 0.365939
vt 0.152187 0.365939
vt 0.151549 0.367430
vt 0.152187 0.367430
vt 0.151549 0.365939
vt 0.152187 0.365939
vt 0.152187 0.367430
vt 0.151549 0.367430
vt 0.151549 0.365939
vt 0.152187 0.365939
vt 0.151549 0.367430
vt 0.152187 0.367430
vt 0.270073 0.362553
vt 0.270711 0.362553
vt 0.270711 0.364043
vt 0.270073 0.364043
vt 0.270073 0.362553
vt 0.270711 0.362553
vt 0.270073 0.364043
vt 0.270711 0.364043
vt 0.151549 0.365939
vt 0.152187 0.365939
vt 0.152187 0.367430
vt 0.151549 0.367430
vt 0.151549 0.365939
vt 0.152187 0.365939
vt 0.151549 0.367430
vt 0.152187 0.367430
vt 0.270073 0.362553
vt 0.270711 0.362553
vt 0.270711 0.364043
vt 0.270073 0.364043
vt 0.270073 0.362553
vt 0.270711 0.362553
vt 0.270073 0.364043
vt 0.270711 0.364043
vt 0.151549 0.365939
vt 0.152187 0.365939
vt 0.152187 0.367430
vt 0.151549 0.367430
vt 0.151549 0.365939
vt 0.152187 0.365939
vt 0.151549 0.367430
vt 0.152187 0.367430
vn -0.9993 0.0000 0.0368
vn 0.0256 0.0000 -0.9997
vn 0.0000 1.0000 -0.0000
vn 0.9995 0.0000 0.0309
vn -0.0350 0.0000 0.9994
vn 0.0000 -1.0000 0.0000
vn -1.0000 -0.0087 0.0000
vn 0.0000 -0.0087 -1.0000
vn 1.0000 -0.0087 0.0000
vn 0.0000 -0.0087 1.0000
vn 1.0000 -0.0091 0.0000
vn 0.0000 -0.0091 1.0000
vn -1.0000 -0.0091 0.0000
vn 0.0000 -0.0091 -1.0000
vn 0.0000 0.0000 1.0000
vn 1.0000 0.0000 -0.0000
vn 0.0000 0.0000 -1.0000
vn -1.0000 0.0000 0.0000
vn -1.0000 0.0000 -0.0065
vn -0.0135 0.0000 -0.9999
vn 0.9995 0.0000 0.0323
vn 0.0018 0.0000 1.0000
vn -0.9872 0.0000 -0.1595
vn 0.0948 0.0000 -0.9955
vn 0.9993 0.0000 0.0383
vn -0.0952 0.0000 0.9955
vn -1.0000 0.0000 -0.0077
vn 0.0007 0.0000 -1.0000
vn 0.9833 0.0000 0.1819
vn -0.9990 0.0000 0.0438
vn 0.0298 0.0000 -0.9996
vn 0.9995 -0.0000 0.0329
vn -0.0383 0.0000 0.9993
vn -0.9866 -0.0000 0.1631
vn -0.1651 0.0000 -0.9863
vn 0.9966 -0.0000 -0.0827
vn 0.1648 -0.0000 0.9863
vn -0.9992 0.0000 0.0391
vn 0.0008 0.0000 -1.0000
vn 0.9974 0.0000 0.0714
vn -1.0000 0.0000 0.0033
vn -0.0001 0.0000 -1.0000
vn 0.9998 0.0000 0.0217
vn -0.0004 0.0000 1.0000
vn -0.9994 0.0000 0.0338
vn 0.0258 0.0000 -0.9997
vn 0.9997 0.0000 0.0228
vn -0.0395 0.0000 0.9992
usemtl TropicalEnvironment_03
s 1
f 1/1/1 2/2/1 8/3/1 3/4/1
f 2/2/2 1/1/2 4/5/2 5/6/2
f 4/5/3 1/1/3 3/4/3 6/7/3
f 5/6/4 4/5/4 6/7/4 7/8/4
f 7/8/5 6/7/5 3/4/5 8/3/5
f 2/2/6 5/6/6 7/8/6 8/3/6
f 9/9/7 10/10/7 12/11/7 11/12/7
f 11/12/8 12/11/8 16/13/8 15/14/8
f 15/14/9 16/13/9 14/15/9 13/16/9
f 13/16/10 14/15/10 10/10/10 9/9/10
f 11/12/6 15/14/6 13/16/6 9/9/6
f 16/17/3 12/18/3 10/19/3 14/20/3
f 17/21/11 18/22/11 24/23/11 19/24/11
f 18/22/6 17/21/6 20/25/6 21/26/6
f 20/25/12 17/21/12 19/24/12 22/27/12
f 21/26/13 20/25/13 22/27/13 23/28/13
f 23/29/3 22/30/3 19/31/3 24/32/3
f 18/22/14 21/26/14 23/28/14 24/23/14
f 25/33/11 27/34/11 32/35/11 26/36/11
f 26/36/6 29/37/6 28/38/6 25/33/6
f 28/38/14 30/39/14 27/34/14 25/33/14
f 29/37/13 31/40/13 30/39/13 28/38/13
f 31/41/3 32/42/3 27/43/3 30/44/3
f 26/36/12 32/35/12 31/40/12 29/37/12
f 33/45/13 34/46/13 40/47/13 35/48/13
f 34/46/6 33/45/6 36/49/6 37/50/6
f 36/49/14 33/45/14 35/48/14 38/51/14
f 37/50/11 36/49/11 38/51/11 39/52/11
f 39/53/3 38/54/3 35/55/3 40/56/3
f 34/46/12 37/50/12 39/52/12 40/47/12
f 41/57/15 43/58/15 48/59/15 42/60/15
f 42/60/6 45/61/6 44/62/6 41/57/6
f 44/62/16 46/63/16 43/58/16 41/57/16
f 45/61/17 47/64/17 46/63/17 44/62/17
f 47/64/3 48/59/3 43/58/3 46/63/3
f 42/60/18 48/59/18 47/64/18 45/61/18
f 49/65/15 50/66/15 56/67/15 51/68/15
f 50/66/6 49/65/6 52/69/6 53/70/6
f 52/69/18 49/65/18 51/68/18 54/71/18
f 53/70/17 52/69/17 54/71/17 55/72/17
f 55/72/3 54/71/3 51/68/3 56/67/3
f 50/66/16 53/70/16 55/72/16 56/67/16
f 57/73/19 58/74/19 64/75/19 59/76/19
f 58/74/20 57/73/20 60/77/20 61/78/20
f 60/77/3 57/73/3 59/76/3 62/79/3
f 61/78/21 60/77/21 62/79/21 63/80/21
f 63/80/22 62/79/22 59/76/22 64/75/22
f 58/74/6 61/78/6 63/80/6 64/75/6
f 65/81/23 66/82/23 72/83/23 67/84/23
f 66/82/24 65/81/24 68/85/24 69/86/24
f 68/85/3 65/81/3 67/84/3 70/87/3
f 69/86/25 68/85/25 70/87/25 71/88/25
f 71/88/26 70/87/26 67/84/26 72/83/26
f 66/82/6 69/86/6 71/88/6 72/83/6
f 73/89/27 74/90/27 80/91/27 75/92/27
f 74/90/28 73/89/28 76/93/28 77/94/28
f 76/93/3 73/89/3 75/92/3 78/95/3
f 77/94/29 76/93/29 78/95/29 79/96/29
f 79/96/15 78/95/15 75/92/15 80/91/15
f 74/90/6 77/94/6 79/96/6 80/91/6
f 81/97/30 82/98/30 88/99/30 83/100/30
f 82/98/31 81/97/31 84/101/31 85/102/31
f 84/101/3 81/97/3 83/100/3 86/103/3
f 85/102/32 84/101/32 86/103/32 87/104/32
f 87/104/33 86/103/33 83/100/33 88/99/33
f 82/98/6 85/102/6 87/104/6 88/99/6
f 89/105/34 90/106/34 96/107/34 91/108/34
f 90/106/35 89/105/35 92/109/35 93/110/35
f 92/109/3 89/105/3 91/108/3 94/111/3
f 93/110/36 92/109/36 94/111/36 95/112/36
f 95/112/37 94/111/37 91/108/37 96/107/37
f 90/106/6 93/110/6 95/112/6 96/107/6
f 97/113/38 98/114/38 104/115/38 99/116/38
f 98/114/39 97/113/39 100/117/39 101/118/39
f 100/117/3 97/113/3 99/116/3 102/119/3
f 101/118/40 100/117/40 102/119/40 103/120/40
f 103/120/15 102/119/15 99/116/15 104/115/15
f 98/114/6 101/118/6 103/120/6 104/115/6
f 105/121/41 106/122/41 112/123/41 107/124/41
f 106/122/42 105/121/42 108/125/42 109/126/42
f 108/125/3 105/121/3 107/124/3 110/127/3
f 109/126/43 108/125/43 110/127/43 111/128/43
f 111/128/44 110/127/44 107/124/44 112/123/44
f 106/122/6 109/126/6 111/128/6 112/123/6
f 113/129/45 114/130/45 120/131/45 115/132/45
f 114/130/46 113/129/46 116/133/46 117/134/46
f 116/133/3 113/129/3 115/132/3 118/135/3
f 117/134/47 116/133/47 118/135/47 119/136/47
f 119/136/48 118/135/48 115/132/48 120/131/48
f 114/130/6 117/134/6 119/136/6 120/131/6
