# Blender v3.4.1 OBJ File: ''
# www.blender.org
mtllib road2.mtl
o Road_19_LOD1_Mesh.136
v -3.370232 0.009999 6.000000
v -3.370232 0.010001 -3.351176
v 6.000000 0.009999 6.000000
v 6.000000 0.010001 -3.351176
v 0.000000 0.000000 0.000000
v 6.000000 -0.000002 2.925000
v 6.000000 -0.000002 3.075000
v 6.000000 0.143856 3.071929
v 6.000000 0.146915 2.931046
v 3.485778 0.145623 3.071204
v 3.479787 0.145333 2.930206
v 3.189213 0.146734 3.184447
v 3.289000 -0.000002 3.099203
v 3.475825 -0.000002 2.926161
v 3.076170 -0.000003 3.481091
v 3.085941 -0.000002 3.083226
v 2.926090 -0.000003 3.473074
v 2.931352 0.145844 3.470604
v 3.075000 -0.000005 6.000000
v 2.928053 0.143755 6.000000
v 2.924999 -0.000005 6.000000
v 3.071996 0.145124 3.478169
v 3.068858 0.146924 6.000000
v 3.090176 0.144325 3.085069
v 6.000000 0.000002 -3.075000
v 6.000000 0.000002 -2.925000
v 6.000000 0.136696 -2.925000
v -1.771114 0.000002 -3.075000
v 6.000000 0.136696 -3.075000
v -1.771114 0.136696 -3.075000
v -1.771114 0.150003 -3.060845
v -2.525153 0.136696 -3.073449
v -2.524375 0.150003 -3.059247
v -2.817767 0.150002 -2.819755
v -2.517679 0.150003 -2.936961
v -2.903752 0.150003 -2.906389
v -2.914059 0.136696 -2.916774
v -3.058975 0.150002 -2.527919
v -3.073174 0.136695 -2.528758
v -3.075001 0.136695 -1.774412
v -3.073174 0.000002 -2.528758
v -2.914059 0.000003 -2.916774
v -2.808393 0.000002 -2.810309
v -2.525153 0.000003 -3.073449
v -2.516952 0.000003 -2.923673
v -2.516952 0.136696 -2.923673
v -1.771114 0.136696 -2.925000
v -1.771114 0.000002 -2.925000
v -1.771114 0.150003 -2.938308
v -2.808393 0.136695 -2.810309
v -2.923435 0.136695 -2.519913
v -2.923435 0.000002 -2.519913
v -2.936720 0.150002 -2.520698
v -2.938308 0.150002 -1.774412
v -3.060847 0.150002 -1.774412
v -3.075001 0.149995 6.000000
v -2.938307 0.149995 6.000000
v -2.925000 -0.000005 6.000000
v -2.925000 0.136695 -1.774412
v -2.925000 0.000002 -1.774412
v -3.075001 -0.000005 6.000000
v -3.075001 0.000002 -1.774412
v 3.140000 0.129998 3.140000
v 2.972529 0.129998 3.429811
v 3.429810 0.129999 3.032044
v 6.000000 0.129999 3.032044
v 3.429810 0.129998 3.429811
v 6.000000 0.129998 3.429811
v 3.429810 0.129997 6.000000
v 5.999999 0.129997 6.000000
v 2.972529 0.129997 6.000000
v -6.000000 0.130001 -3.000000
v -6.000000 0.130003 -6.000002
v -2.890000 0.130001 -2.890000
v -6.000000 0.130001 -2.650001
v -3.016823 0.130001 -2.650000
v -6.000000 0.129997 6.000000
v -3.033646 0.129997 6.000000
v -3.000000 0.130003 -6.000002
v -2.650000 0.130001 -3.000000
v 6.000000 0.130001 -3.000000
v -2.650000 0.130003 -6.000002
v 6.000000 0.130003 -6.000000
vt 0.399017 0.018863
vt 0.416529 0.018863
vt 0.416529 0.036375
vt 0.399017 0.036375
vt 0.575205 0.045114
vt 0.581862 0.042601
vt 0.582296 0.045357
vt 0.575205 0.042601
vt 0.588018 0.051817
vt 0.581909 0.051817
vt 0.588384 0.045480
vt 0.581909 0.025003
vt 0.588018 0.025003
vt 0.581909 0.027516
vt 0.588601 0.042601
vt 0.588517 0.041762
vt 0.594721 0.042092
vt 0.588018 0.028025
vt 0.581909 0.028355
vt 0.581909 0.029195
vt 0.588018 0.029194
vt 0.594721 0.040923
vt 0.575205 0.040922
vt 0.581921 0.040922
vt 0.575205 0.041762
vt 0.581762 0.038410
vt 0.581909 0.031707
vt 0.588613 0.032301
vt 0.575205 0.038410
vt 0.588018 0.031707
vt 0.588634 0.040923
vt 0.594721 0.038410
vt 0.588475 0.038410
vt 0.581821 0.041762
vt 0.594721 0.045114
vt 0.581909 0.051817
vt 0.588613 0.045708
vt 0.588018 0.051817
vt 0.581909 0.025003
vt 0.588018 0.025003
vt 0.581909 0.025841
vt 0.582541 0.045114
vt 0.575205 0.044276
vt 0.581283 0.044276
vt 0.575205 0.045114
vt 0.581283 0.045114
vt 0.582542 0.044276
vt 0.581283 0.043438
vt 0.582545 0.042600
vt 0.582542 0.043438
vt 0.575205 0.043438
vt 0.581283 0.042600
vt 0.588018 0.041762
vt 0.588018 0.042600
vt 0.582563 0.041762
vt 0.582545 0.040924
vt 0.581283 0.041762
vt 0.581283 0.040924
vt 0.581283 0.040086
vt 0.575205 0.040924
vt 0.575205 0.041762
vt 0.581909 0.028355
vt 0.588018 0.028355
vt 0.581909 0.029193
vt 0.581909 0.027517
vt 0.575205 0.042600
vt 0.581909 0.026679
vt 0.588018 0.027517
vt 0.589207 0.042600
vt 0.594721 0.041762
vt 0.594721 0.042600
vt 0.589207 0.043438
vt 0.588018 0.026679
vt 0.594721 0.043438
vt 0.588018 0.025841
vt 0.589207 0.045114
vt 0.594721 0.044276
vt 0.594721 0.045114
vt 0.589207 0.044276
vt 0.588018 0.045114
vt 0.588018 0.044276
vt 0.588018 0.043438
vt 0.589207 0.041762
vt 0.588018 0.040924
vt 0.589207 0.040924
vt 0.594721 0.040924
vt 0.588018 0.040086
vt 0.582542 0.040086
vt 0.581283 0.039248
vt 0.582541 0.038410
vt 0.582541 0.039248
vt 0.588018 0.038410
vt 0.588018 0.039248
vt 0.589207 0.038410
vt 0.594721 0.038410
vt 0.589207 0.039248
vt 0.581909 0.037785
vt 0.588613 0.032301
vt 0.594721 0.039248
vt 0.589207 0.040086
vt 0.594721 0.040086
vt 0.581909 0.030031
vt 0.588018 0.029193
vt 0.588018 0.030031
vt 0.581909 0.031707
vt 0.588018 0.030869
vt 0.588018 0.031707
vt 0.581909 0.030869
vt 0.575205 0.038410
vt 0.581283 0.038410
vt 0.575205 0.039248
vt 0.575205 0.040086
vt 0.639217 0.013725
vt 0.642557 0.013725
vt 0.642557 0.016400
vt 0.639217 0.016400
vt 0.642557 0.038650
vt 0.639217 0.038650
vt 0.664142 0.013725
vt 0.664142 0.016400
vt 0.664142 0.038650
vt 0.639217 0.013725
vt 0.645378 0.013725
vt 0.645378 0.038650
vt 0.639217 0.038650
vt 0.639217 0.013725
vt 0.645378 0.013725
vt 0.639217 0.013725
vt 0.645378 0.013725
vt 0.646149 0.013725
vt 0.646149 0.038650
vt 0.664142 0.013725
vt 0.664142 0.038650
vn 0.0000 1.0000 0.0000
vn -0.0002 0.0316 -0.9995
vn 0.0018 0.0372 -0.9993
vn 0.0003 0.0411 -0.9992
vn -0.0005 0.0278 -0.9996
vn 1.0000 0.0000 0.0000
vn -0.0000 -1.0000 -0.0000
vn 0.0007 0.9998 0.0217
vn 0.0025 1.0000 -0.0022
vn -0.0005 1.0000 -0.0020
vn -0.0006 1.0000 -0.0020
vn 0.0029 1.0000 -0.0022
vn 0.3406 -0.2882 0.8949
vn 0.8340 0.2972 0.4648
vn -0.9249 0.0270 -0.3792
vn -0.9243 0.0309 -0.3805
vn -0.9247 0.0281 -0.3796
vn -0.9993 0.0361 0.0001
vn -0.9993 0.0360 -0.0013
vn -0.9994 0.0355 -0.0013
vn 0.0000 -0.0000 1.0000
vn -0.9998 0.0212 -0.0004
vn -0.9998 0.0212 0.0011
vn 0.9993 0.0381 0.0018
vn 0.9995 0.0324 0.0007
vn 0.9996 0.0288 0.0005
vn 0.9991 0.0418 0.0012
vn 0.0048 1.0000 0.0065
vn 0.0052 1.0000 -0.0007
vn 0.0051 1.0000 -0.0004
vn -0.0225 0.9997 0.0008
vn 0.0047 1.0000 0.0074
vn 0.9282 0.0342 0.3706
vn -0.0144 0.9998 -0.0099
vn -0.0116 0.9999 -0.0127
vn -0.0088 0.9998 -0.0155
vn -0.3727 0.0256 -0.9276
vn -0.3701 0.0331 -0.9284
vn -0.3692 0.0359 -0.9287
vn -0.3736 0.0228 -0.9273
vn -0.9241 0.0320 -0.3808
vn -0.0002 0.1890 0.9820
vn 0.0005 0.1895 0.9819
vn 0.0089 0.0213 0.9997
vn 0.0098 0.0214 0.9997
vn -0.0017 0.0000 -1.0000
vn 0.0002 0.0000 -1.0000
vn 0.0000 0.0000 -1.0000
vn 0.0000 0.7286 -0.6850
vn -0.0007 0.7286 -0.6850
vn -0.0014 0.7297 -0.6837
vn -0.0021 0.0000 -1.0000
vn -0.0014 0.7295 -0.6839
vn -0.0001 1.0000 0.0000
vn -0.2627 0.7112 -0.6520
vn -0.2625 0.7117 -0.6515
vn -0.6501 0.7116 -0.2666
vn -0.6506 0.7110 -0.2668
vn -0.2625 0.7118 -0.6515
vn -0.6842 0.7293 -0.0017
vn -0.6847 0.7289 -0.0017
vn -0.6841 0.7294 -0.0017
vn -1.0000 0.0000 -0.0024
vn -1.0000 0.0000 -0.0021
vn -0.9252 0.0000 -0.3794
vn -0.3737 0.0000 -0.9276
vn 0.3625 0.0000 0.9320
vn 0.0018 0.0000 1.0000
vn 0.0009 0.0000 1.0000
vn 0.0006 0.7071 0.7071
vn 0.0000 0.7071 0.7071
vn 0.0013 0.7066 0.7076
vn 0.0017 1.0000 0.0000
vn 0.0013 1.0000 0.0000
vn 0.2654 0.6825 0.6810
vn 0.2655 0.6824 0.6810
vn 0.6795 0.6823 0.2697
vn 0.6796 0.6822 0.2698
vn 0.6795 0.6822 0.2698
vn 0.9297 0.0000 0.3683
vn 0.7071 0.7071 0.0007
vn 0.7073 0.7069 0.0015
vn -0.6845 0.7290 -0.0015
vn -0.6850 0.7286 -0.0012
vn 0.0458 0.9990 -0.0007
vn 0.0448 0.9990 -0.0007
vn -0.0502 0.9987 0.0008
vn -0.0513 0.9987 0.0008
vn 0.9989 0.0464 0.0008
vn 0.9989 0.0463 0.0008
vn 0.7071 0.7071 0.0000
vn 0.7076 0.7066 0.0008
vn 1.0000 0.0000 0.0021
vn -1.0000 0.0000 0.0000
vn -1.0000 -0.0000 -0.0003
usemtl City_01.007
s 1
f 1/1/1 3/2/1 4/3/1 2/4/1
f 6/5/2 11/6/3 9/7/4
f 14/8/5 11/6/3 6/5/2
f 7/9/6 6/10/6 8/11/6
f 6/12/7 7/13/7 14/14/7
f 6/10/6 9/7/6 8/11/6
f 9/7/8 10/15/8 8/11/8
f 11/6/9 10/15/10 9/7/11
f 11/6/9 12/16/12 10/15/10
f 12/16/13 13/17/13 10/15/13
f 14/14/7 13/18/7 16/19/7
f 17/20/7 13/18/7 15/21/7
f 12/16/14 15/22/14 13/17/14
f 16/19/7 13/18/7 17/20/7
f 17/23/15 18/24/16 16/25/17
f 17/23/18 20/26/19 18/24/20
f 21/27/21 19/28/21 20/26/21
f 21/29/22 20/26/22 17/23/23
f 21/27/7 15/21/7 19/30/7
f 17/20/7 15/21/7 21/27/7
f 22/31/24 19/32/25 15/22/26
f 23/33/27 19/32/25 22/31/24
f 18/24/28 23/33/29 22/31/30
f 20/26/31 23/33/31 18/24/31
f 19/28/21 23/33/21 20/26/21
f 22/31/30 12/16/32 18/24/28
f 22/31/33 15/22/33 12/16/33
f 18/24/34 12/16/35 24/34/35
f 24/34/35 12/16/35 11/6/36
f 14/8/37 24/34/38 11/6/39
f 16/25/40 24/34/38 14/8/37
f 16/25/17 18/24/16 24/34/41
f 10/15/42 13/17/43 8/11/42
f 14/14/7 7/13/7 13/18/7
f 8/11/44 13/17/45 7/35/44
f 25/36/6 27/37/6 26/38/6
f 25/39/7 26/40/7 28/41/7
f 29/42/6 27/37/6 25/36/6
f 28/43/46 30/44/47 25/45/48
f 25/45/48 30/44/47 29/46/48
f 29/46/49 30/44/50 31/47/50
f 30/48/50 33/49/51 31/50/50
f 28/51/46 32/52/52 30/48/47
f 32/52/53 33/49/51 30/48/50
f 33/49/1 34/53/1 35/54/1
f 36/55/1 34/53/1 33/49/1
f 33/49/1 35/54/1 31/50/54
f 32/52/55 36/55/56 33/49/55
f 38/56/1 34/53/1 36/55/1
f 37/57/57 39/58/58 36/55/57
f 37/57/59 36/55/56 32/52/55
f 36/55/57 39/58/58 38/56/58
f 39/58/60 40/59/61 38/56/62
f 41/60/63 40/59/64 39/58/63
f 42/61/65 39/58/65 37/57/65
f 41/60/65 39/58/65 42/61/65
f 42/62/7 43/63/7 41/64/7
f 44/65/7 43/63/7 42/62/7
f 42/61/66 37/57/66 44/66/66
f 28/67/7 45/68/7 44/65/7
f 45/68/7 43/63/7 44/65/7
f 44/66/52 32/52/52 28/51/46
f 44/66/66 37/57/66 32/52/66
f 46/69/67 43/70/67 45/71/67
f 46/69/68 45/71/68 47/72/69
f 48/73/7 45/68/7 28/67/7
f 47/72/69 45/71/68 48/74/21
f 28/41/7 26/40/7 48/75/7
f 27/76/21 48/77/21 26/78/21
f 47/79/69 48/77/21 27/76/21
f 47/79/70 27/80/71 49/81/70
f 47/72/70 49/82/70 46/69/72
f 29/42/73 49/81/74 27/80/73
f 31/47/54 49/81/74 29/42/73
f 31/50/54 35/54/1 49/82/74
f 46/69/72 49/82/70 35/54/72
f 46/69/75 35/54/75 50/83/76
f 50/83/67 43/70/67 46/69/67
f 50/83/76 35/54/75 34/53/76
f 53/84/77 50/83/78 34/53/79
f 51/85/80 52/86/80 50/83/80
f 51/85/77 50/83/78 53/84/77
f 50/83/80 52/86/80 43/70/80
f 53/84/1 34/53/1 38/56/1
f 54/87/81 51/85/82 53/84/82
f 54/87/1 53/84/1 55/88/1
f 55/88/1 53/84/1 38/56/1
f 38/56/62 40/59/61 55/88/83
f 40/89/61 56/90/84 55/91/83
f 56/90/85 57/92/86 55/91/87
f 55/91/87 57/92/86 54/93/88
f 57/94/89 58/95/89 59/96/90
f 56/97/21 58/98/21 57/92/21
f 57/94/91 59/96/92 54/93/81
f 59/96/90 58/95/89 60/99/89
f 59/100/93 60/101/93 51/85/93
f 59/100/92 51/85/82 54/87/81
f 51/85/93 60/101/93 52/86/93
f 62/102/7 52/103/7 60/104/7
f 61/105/7 60/106/7 58/107/7
f 62/108/7 60/106/7 61/105/7
f 41/64/7 52/103/7 62/102/7
f 61/109/94 56/110/94 62/111/95
f 62/111/95 56/110/94 40/89/64
f 62/112/95 40/59/64 41/60/63
f 61/105/21 58/98/21 56/97/21
f 41/64/7 43/63/7 52/103/7
f 63/113/1 64/114/1 67/115/1 65/116/1
f 65/116/1 67/115/1 68/117/1 66/118/1
f 64/114/1 71/119/1 69/120/1 67/115/1
f 67/115/1 69/120/1 70/121/1 68/117/1
f 72/122/1 74/123/1 79/124/1 73/125/1
f 74/123/1 72/122/1 75/126/1 76/127/1
f 76/127/1 75/126/1 77/128/1 78/129/1
f 74/123/1 80/130/1 82/131/1 79/124/1
f 80/130/1 81/132/1 83/133/1 82/131/1
