# Wavefront OBJ file
# Exported by Misfit Model 3D 1.3.8
# Wed Jan 17 16:05:07 2024

# 16 Vertices
v -0.509282 -0.040609 -0.495193
v -0.509282 -0.040609 0.504807
v 0.490718 -0.040609 -0.495193
v 0.490718 -0.040609 0.504807
v 0.490718 43.959391 0.504807
v -0.509282 43.959391 0.504807
v 0.490718 43.959391 -0.495193
v -0.509282 43.959391 -0.495193
v 0.598606 32.0 8.005653
v 0.598606 32.0 -7.994347
v 0.098606 32.0 8.005653
v 0.098606 32.0 -7.994347
v 0.098606 48.0 8.005653
v 0.098606 48.0 -7.994347
v 0.598606 48.0 -7.994347
v 0.598606 48.0 8.005653

# 72 Texture Coordinates
vt 16.25 17.03125
vt 16.28125 17.0625
vt 16.25 17.0625
vt 16.25 17.03125
vt 16.28125 17.03125
vt 16.28125 17.0625
vt 16.25 -15.03125
vt 16.28125 -15.0625
vt 16.28125 -15.03125
vt 16.25 -15.03125
vt 16.25 -15.0625
vt 16.28125 -15.0625
vt 16.5 17.015625
vt 16.0 17.0
vt 16.5 17.0
vt 16.5 17.015625
vt 16.0 17.015625
vt 16.0 17.0
vt 16.5 18.5
vt 16.0 18.0
vt 16.5 18.0
vt 16.5 18.5
vt 16.0 18.5
vt 16.0 18.0
vt 16.015625 18.0
vt 16.0 18.5
vt 16.0 18.0
vt 16.015625 18.0
vt 16.015625 18.5
vt 16.0 18.5
vt 16.0 -15.015625
vt 16.5 -15.0
vt 16.0 -15.0
vt 16.0 -15.015625
vt 16.5 -15.015625
vt 16.5 -15.0
vt -16.015625 18.5
vt -16.0 18.0
vt -16.0 18.5
vt -16.015625 18.5
vt -16.015625 18.0
vt -16.0 18.0
vt -16.28125 18.375
vt -16.25 17.0
vt -16.25 18.375
vt -16.28125 18.375
vt -16.28125 17.0
vt -16.25 17.0
vt 16.28125 17.0
vt 16.25 18.375
vt 16.25 17.0
vt 16.28125 17.0
vt 16.28125 18.375
vt 16.25 18.375
vt 16.0625 17.0
vt 16.03125 18.375
vt 16.03125 17.0
vt 16.0625 17.0
vt 16.0625 18.375
vt 16.03125 18.375
vt -16.0625 18.375
vt -16.03125 17.0
vt -16.03125 18.375
vt -16.0625 18.375
vt -16.0625 17.0
vt -16.03125 17.0
vt -32.0 36.0
vt -33.0 35.0
vt -32.0 35.0
vt -32.0 36.0
vt -33.0 36.0
vt -33.0 35.0

# 72 Vertex Normals
vn 0.0 -1.0 0.0
vn 0.0 -1.0 0.0
vn 0.0 -1.0 0.0
vn 0.0 -1.0 0.0
vn 0.0 -1.0 0.0
vn 0.0 -1.0 0.0
vn 0.0 1.0 0.0
vn 0.0 1.0 0.0
vn -0.000001 1.0 0.0
vn 0.0 1.0 0.0
vn 0.000001 1.0 0.0
vn 0.0 1.0 0.0
vn 0.0 -1.0 0.0
vn 0.0 -1.0 0.0
vn 0.0 -1.0 0.0
vn 0.0 -1.0 0.0
vn 0.0 -1.0 0.0
vn 0.0 -1.0 0.0
vn -1.0 0.0 0.0
vn -1.0 0.0 0.0
vn -1.0 0.0 0.0
vn -1.0 0.0 0.0
vn -1.0 0.0 0.0
vn -1.0 0.0 0.0
vn 0.0 -0.0 -1.0
vn 0.0 -0.0 -1.0
vn 0.0 -0.0 -1.0
vn 0.0 -0.0 -1.0
vn 0.0 0.0 -1.0
vn 0.0 -0.0 -1.0
vn 0.0 1.0 0.0
vn 0.0 1.0 0.0
vn 0.0 1.0 0.0
vn 0.0 1.0 0.0
vn 0.0 1.0 0.0
vn 0.0 1.0 0.0
vn 0.0 -0.0 1.0
vn 0.0 -0.0 1.0
vn 0.0 -0.0 1.0
vn 0.0 -0.0 1.0
vn 0.0 0.0 1.0
vn 0.0 -0.0 1.0
vn 1.0 0.0 -0.0
vn 1.0 0.0 -0.0
vn 1.0 0.0 -0.0
vn 1.0 0.0 -0.0
vn 1.0 0.0 -0.0
vn 1.0 0.0 -0.0
vn -1.0 0.0 -0.0
vn -1.0 0.0 -0.0
vn -1.0 0.0 -0.0
vn -1.0 0.0 -0.0
vn -1.0 0.0 -0.0
vn -1.0 0.0 -0.0
vn 0.0 0.0 -1.0
vn 0.0 0.0 -1.0
vn 0.0 0.0 -1.0
vn 0.0 0.0 -1.0
vn 0.0 0.0 -1.0
vn 0.0 0.0 -1.0
vn 0.0 0.0 1.0
vn 0.0 0.0 1.0
vn 0.0 0.0 1.0
vn 0.0 0.0 1.0
vn 0.0 0.0 1.0
vn 0.0 0.0 1.0
vn 1.0 0.0 0.0
vn 1.0 0.0 0.0
vn 1.0 0.0 0.0
vn 1.0 0.0 0.0
vn 1.0 0.0 0.0
vn 1.0 0.0 0.0

# sign, 10 grouped triangles

o sign
g sign

f 11/13/13 10/14/14 9/15/15
f 11/16/16 12/17/17 10/18/18
f 13/19/19 12/20/20 11/21/21
f 13/22/22 14/23/23 12/24/24
f 12/25/25 15/26/26 10/27/27
f 12/28/28 14/29/29 15/30/30
f 14/31/31 16/32/32 15/33/33
f 14/34/34 13/35/35 16/36/36
f 13/37/37 9/38/38 16/39/39
f 13/40/40 11/41/41 9/42/42
# tex, 2 grouped triangles

o tex
g tex

f 15/67/67 9/68/68 10/69/69
f 15/70/70 16/71/71 9/72/72
# foot, 12 grouped triangles

o foot
g foot

f 3/1/1 2/2/2 1/3/3
f 3/4/4 4/5/5 2/6/6
f 7/7/7 6/8/8 5/9/9
f 7/10/10 8/11/11 6/12/12
f 5/43/43 3/44/44 7/45/45
f 5/46/46 4/47/47 3/48/48
f 2/49/49 8/50/50 1/51/51
f 2/52/52 6/53/53 8/54/54
f 1/55/55 7/56/56 3/57/57
f 1/58/58 8/59/59 7/60/60
f 6/61/61 4/62/62 5/63/63
f 6/64/64 2/65/65 4/66/66
