# Wavefront OBJ file
# Exported by Misfit Model 3D 1.3.8
# Wed Jan 17 16:13:06 2024

# 16 Vertices
v -0.509282 -0.040609 -0.495193
v -0.509282 -0.040609 0.504807
v 0.490718 -0.040609 -0.495193
v 0.490718 -0.040609 0.504807
v 0.490718 43.959393 0.504807
v -0.509282 43.959393 0.504807
v 0.490718 43.959393 -0.495193
v -0.509282 43.959393 -0.495193
v 0.598606 24.01361 8.005653
v 0.598606 24.01361 -7.994347
v 0.098606 24.01361 8.005653
v 0.098606 24.01361 -7.994347
v 0.098606 47.866849 8.005653
v 0.098606 47.866849 -7.994347
v 0.598606 47.866849 -7.994347
v 0.598606 47.866849 8.005653

# 72 Texture Coordinates
vt 16.5 17.015625
vt 16.0 17.0
vt 16.5 17.0
vt 16.5 17.015625
vt 16.0 17.015625
vt 16.0 17.0
vt 16.5 18.5
vt 16.0 18.0
vt 16.5 18.0
vt 16.5 18.5
vt 16.0 18.5
vt 16.0 18.0
vt 16.015625 18.0
vt 16.0 18.5
vt 16.0 18.0
vt 16.015625 18.0
vt 16.015625 18.5
vt 16.0 18.5
vt 16.0 -15.015625
vt 16.5 -15.0
vt 16.0 -15.0
vt 16.0 -15.015625
vt 16.5 -15.015625
vt 16.5 -15.0
vt -16.015625 18.5
vt -16.0 18.0
vt -16.0 18.5
vt -16.015625 18.5
vt -16.015625 18.0
vt -16.0 18.0
vt -32.0 36.0
vt -33.0 35.0
vt -32.0 35.0
vt -32.0 36.0
vt -33.0 36.0
vt -33.0 35.0
vt 16.25 17.03125
vt 16.28125 17.0625
vt 16.25 17.0625
vt 16.25 17.03125
vt 16.28125 17.03125
vt 16.28125 17.0625
vt 16.25 -15.03125
vt 16.28125 -15.0625
vt 16.28125 -15.03125
vt 16.25 -15.03125
vt 16.25 -15.0625
vt 16.28125 -15.0625
vt -16.28125 18.375
vt -16.25 17.0
vt -16.25 18.375
vt -16.28125 18.375
vt -16.28125 17.0
vt -16.25 17.0
vt 16.28125 17.0
vt 16.25 18.375
vt 16.25 17.0
vt 16.28125 17.0
vt 16.28125 18.375
vt 16.25 18.375
vt 16.0625 17.0
vt 16.03125 18.375
vt 16.03125 17.0
vt 16.0625 17.0
vt 16.0625 18.375
vt 16.03125 18.375
vt -16.0625 18.375
vt -16.03125 17.0
vt -16.03125 18.375
vt -16.0625 18.375
vt -16.0625 17.0
vt -16.03125 17.0

# 72 Vertex Normals
vn 0.000001 -1.0 0.0
vn 0.000001 -1.0 0.0
vn 0.000001 -1.0 0.0
vn 0.000001 -1.0 0.0
vn 0.000001 -1.0 0.0
vn 0.000001 -1.0 0.0
vn -1.0 0.0 0.0
vn -1.0 0.0 0.0
vn -1.0 0.0 -0.0
vn -1.0 0.0 0.0
vn -1.0 0.0 0.0
vn -1.0 0.0 0.0
vn 0.0 -0.0 -1.0
vn 0.0 -0.0 -1.0
vn 0.0 -0.0 -1.0
vn 0.0 -0.0 -1.0
vn 0.0 0.0 -1.0
vn 0.0 -0.0 -1.0
vn -0.000003 1.0 0.0
vn -0.000003 1.0 0.0
vn -0.000003 1.0 0.0
vn -0.000003 1.0 0.0
vn -0.000003 1.0 0.0
vn -0.000003 1.0 0.0
vn 0.0 0.0 1.0
vn 0.0 0.0 1.0
vn 0.0 0.0 1.0
vn 0.0 0.0 1.0
vn 0.0 0.0 1.0
vn 0.0 0.0 1.0
vn 1.0 0.0 0.0
vn 1.0 0.0 0.0
vn 1.0 0.0 -0.0
vn 1.0 0.0 0.0
vn 1.0 0.0 0.0
vn 1.0 0.0 0.0
vn 0.0 -1.0 0.0
vn 0.0 -1.0 0.0
vn 0.0 -1.0 0.0
vn 0.0 -1.0 0.0
vn 0.0 -1.0 0.0
vn 0.0 -1.0 0.0
vn 0.0 1.0 0.0
vn 0.0 1.0 0.0
vn 0.0 1.0 0.0
vn 0.0 1.0 0.0
vn 0.0 1.0 0.0
vn 0.0 1.0 0.0
vn 1.0 0.0 0.0
vn 1.0 0.0 0.0
vn 1.0 0.0 0.0
vn 1.0 0.0 0.0
vn 1.0 0.0 0.0
vn 1.0 0.0 0.0
vn -1.0 0.0 -0.0
vn -1.0 0.0 -0.0
vn -1.0 0.0 -0.0
vn -1.0 0.0 -0.0
vn -1.0 0.0 -0.0
vn -1.0 0.0 -0.0
vn 0.0 0.0 -1.0
vn 0.0 0.0 -1.0
vn 0.0 0.0 -1.0
vn 0.0 0.0 -1.0
vn 0.0 0.0 -1.0
vn 0.0 0.0 -1.0
vn 0.0 0.0 1.0
vn 0.0 0.0 1.0
vn 0.0 0.0 1.0
vn 0.0 0.0 1.0
vn 0.0 0.0 1.0
vn 0.0 0.0 1.0

# sign, 10 grouped triangles

o sign
g sign

f 11/1/1 10/2/2 9/3/3
f 11/4/4 12/5/5 10/6/6
f 13/7/7 12/8/8 11/9/9
f 13/10/10 14/11/11 12/12/12
f 12/13/13 15/14/14 10/15/15
f 12/16/16 14/17/17 15/18/18
f 14/19/19 16/20/20 15/21/21
f 14/22/22 13/23/23 16/24/24
f 13/25/25 9/26/26 16/27/27
f 13/28/28 11/29/29 9/30/30
# tex, 2 grouped triangles

o tex
g tex

f 15/31/31 9/32/32 10/33/33
f 15/34/34 16/35/35 9/36/36
# foot, 12 grouped triangles

o foot
g foot

f 3/37/37 2/38/38 1/39/39
f 3/40/40 4/41/41 2/42/42
f 7/43/43 6/44/44 5/45/45
f 7/46/46 8/47/47 6/48/48
f 5/49/49 3/50/50 7/51/51
f 5/52/52 4/53/53 3/54/54
f 2/55/55 8/56/56 1/57/57
f 2/58/58 6/59/59 8/60/60
f 1/61/61 7/62/62 3/63/63
f 1/64/64 8/65/65 7/66/66
f 6/67/67 4/68/68 5/69/69
f 6/70/70 2/71/71 4/72/72
