# Blender 3.4.1
# www.blender.org
mtllib tris.mtl
o Ad_01
v -0.008151 0.007621 0.000282
v -0.008151 0.017959 0.000282
v -0.008151 0.007621 -0.000282
v -0.008151 0.017959 -0.000282
v 0.008151 0.007621 0.000282
v 0.008151 0.017959 0.000282
v 0.008151 0.007621 -0.000282
v 0.008151 0.017959 -0.000282
v -0.007490 0.007621 -0.000282
v 0.007490 0.007621 -0.000282
v 0.007490 0.017959 -0.000282
v -0.007490 0.017959 -0.000282
v 0.007490 0.007621 0.000282
v -0.007490 0.007621 0.000282
v -0.007490 0.017959 0.000282
v 0.007490 0.017959 0.000282
v 0.007490 0.017298 0.000132
v 0.007490 0.008277 0.000132
v -0.007490 0.017298 0.000132
v -0.007490 0.008277 0.000132
v 0.008151 0.008277 0.000282
v 0.008151 0.017298 0.000282
v 0.008151 0.017298 -0.000282
v 0.008151 0.008277 -0.000282
v -0.008151 0.008277 -0.000282
v -0.008151 0.017298 -0.000282
v -0.008151 0.017298 0.000282
v -0.008151 0.008277 0.000282
v -0.007490 0.008277 0.000282
v -0.007490 0.017298 0.000282
v 0.007490 0.008277 0.000282
v 0.007490 0.017298 0.000282
v 0.007490 0.017298 -0.000282
v 0.007490 0.008277 -0.000282
v -0.007490 0.008277 -0.000282
v -0.007490 0.017298 -0.000282
v -0.006976 -0.000000 0.000238
v -0.006976 0.007842 0.000238
v -0.006976 0.000000 -0.000238
v -0.006976 0.007842 -0.000238
v -0.006219 -0.000000 0.000238
v -0.006219 0.007842 0.000238
v -0.006219 0.000000 -0.000238
v -0.006219 0.007842 -0.000238
v 0.006976 -0.000000 0.000238
v 0.006976 0.007842 0.000238
v 0.006976 0.000000 -0.000238
v 0.006976 0.007842 -0.000238
v 0.006219 -0.000000 0.000238
v 0.006219 0.007842 0.000238
v 0.006219 0.000000 -0.000238
v 0.006219 0.007842 -0.000238
v 0.002161 0.011907 0.000389
v 0.002233 0.013199 0.000157
v 0.003516 0.012950 0.000157
v 0.003453 0.011834 0.000389
v 0.002224 0.013023 0.000157
v 0.003526 0.013126 0.000157
v 0.003861 0.012223 0.000430
v 0.003769 0.013721 0.000160
v 0.005280 0.013608 0.000160
v 0.005360 0.012315 0.000430
v 0.003782 0.013517 0.000160
v 0.005268 0.013813 0.000160
v -0.006293 0.009789 0.000430
v -0.006212 0.011288 0.000160
v -0.004724 0.011002 0.000160
v -0.004794 0.009708 0.000430
v -0.006223 0.011083 0.000160
v -0.004713 0.011207 0.000160
v -0.005433 0.014423 0.000389
v -0.005620 0.016155 0.000157
v -0.004314 0.016118 0.000157
v -0.004146 0.014562 0.000389
v -0.005601 0.015979 0.000157
v -0.004333 0.016294 0.000157
v -0.003459 0.009248 0.000376
v -0.003390 0.010471 0.000156
v -0.002176 0.010235 0.000156
v -0.002236 0.009179 0.000376
v -0.003399 0.010304 0.000156
v -0.002167 0.010402 0.000156
v -0.004236 0.010650 0.000459
v -0.004337 0.012297 0.000162
v -0.002676 0.012173 0.000162
v -0.002589 0.010751 0.000459
v -0.004323 0.012072 0.000162
v -0.002690 0.012398 0.000162
v 0.003965 0.009593 0.000533
v 0.004096 0.012323 0.000168
v 0.006111 0.011949 0.000168
v 0.005994 0.009496 0.000533
v 0.004083 0.012046 0.000168
v 0.006125 0.012226 0.000168
v -0.001517 0.012291 0.000474
v -0.001410 0.014615 0.000163
v 0.000306 0.014300 0.000163
v 0.000210 0.012212 0.000474
v -0.001421 0.014379 0.000163
v 0.000317 0.014535 0.000163
v -0.001253 0.014079 0.000207
v -0.001111 0.014156 0.000194
v -0.000832 0.014079 0.000204
v -0.000549 0.014103 0.000198
v -0.000155 0.014082 0.000199
v 0.000092 0.014090 0.000196
v 0.000221 0.013969 0.000213
v -0.000023 0.013977 0.000214
v -0.000331 0.013940 0.000221
v -0.000667 0.014008 0.000213
v -0.001003 0.013964 0.000222
v -0.001200 0.013604 0.000277
v -0.000935 0.013672 0.000265
v -0.000525 0.013627 0.000269
v -0.000052 0.013646 0.000263
v 0.000171 0.013641 0.000262
v 0.000177 0.013551 0.000275
v -0.000168 0.013559 0.000277
v -0.000501 0.013472 0.000292
v -0.000903 0.013538 0.000285
v -0.001226 0.013538 0.000287
v -0.001292 0.013220 0.000335
v -0.001003 0.013262 0.000326
v -0.000585 0.013186 0.000335
v -0.000302 0.013249 0.000323
v 0.000092 0.013199 0.000328
v 0.000190 0.013078 0.000345
v -0.000081 0.013126 0.000340
v -0.000331 0.013099 0.000346
v -0.000664 0.013052 0.000355
v -0.000982 0.013128 0.000346
v -0.001279 0.013139 0.000347
v -0.001402 0.012766 0.000403
v -0.001266 0.012834 0.000392
v -0.001003 0.012860 0.000386
v -0.000593 0.012818 0.000389
v -0.000262 0.012858 0.000381
v 0.000100 0.012810 0.000386
v 0.000150 0.012700 0.000402
v -0.000089 0.012684 0.000406
v -0.000528 0.012637 0.000416
v -0.000717 0.012737 0.000402
v -0.001100 0.012732 0.000406
v -0.001057 0.009704 0.000409
v -0.000919 0.011573 0.000158
v 0.000456 0.011281 0.000158
v 0.000332 0.009602 0.000409
v -0.000933 0.011383 0.000158
v 0.000470 0.011470 0.000158
v 0.000173 0.009783 0.000383
v -0.000774 0.011202 0.000184
v 0.000273 0.011124 0.000184
v -0.000874 0.009861 0.000383
v 0.003395 0.014399 0.000489
v 0.003301 0.016831 0.000165
v 0.005118 0.016654 0.000165
v 0.005202 0.014469 0.000489
v 0.003310 0.016584 0.000165
v 0.005108 0.016901 0.000165
v 0.003512 0.016286 0.000210
v 0.003653 0.016378 0.000197
v 0.003950 0.016323 0.000207
v 0.004244 0.016373 0.000201
v 0.004657 0.016386 0.000202
v 0.004913 0.016416 0.000199
v 0.005058 0.016302 0.000217
v 0.004803 0.016288 0.000217
v 0.004486 0.016223 0.000225
v 0.004129 0.016264 0.000217
v 0.003783 0.016188 0.000226
v 0.003609 0.015795 0.000283
v 0.003880 0.015890 0.000271
v 0.004311 0.015879 0.000275
v 0.004802 0.015940 0.000269
v 0.005035 0.015955 0.000268
v 0.005049 0.015862 0.000282
v 0.004689 0.015840 0.000283
v 0.004349 0.015720 0.000299
v 0.003924 0.015753 0.000291
v 0.003587 0.015724 0.000294
v 0.003547 0.015387 0.000344
v 0.003845 0.015456 0.000335
v 0.004287 0.015414 0.000344
v 0.004577 0.015505 0.000332
v 0.004992 0.015488 0.000337
v 0.005104 0.015370 0.000355
v 0.004818 0.015396 0.000350
v 0.004560 0.015346 0.000356
v 0.004216 0.015267 0.000365
v 0.003878 0.015319 0.000356
v 0.003568 0.015303 0.000356
v 0.003473 0.014904 0.000415
v 0.003609 0.014987 0.000403
v 0.003880 0.015037 0.000397
v 0.004311 0.015030 0.000401
v 0.004653 0.015100 0.000393
v 0.005035 0.015083 0.000397
v 0.005097 0.014972 0.000414
v 0.004849 0.014935 0.000418
v 0.004396 0.014847 0.000429
v 0.004190 0.014934 0.000415
v 0.003790 0.014895 0.000418
v -0.000233 0.014168 0.000376
v -0.000164 0.015391 0.000156
v 0.001050 0.015155 0.000156
v 0.000990 0.014099 0.000376
v -0.000173 0.015224 0.000156
v 0.001060 0.015322 0.000156
v -0.002122 0.014838 0.000459
v -0.002223 0.016485 0.000162
v -0.000562 0.016361 0.000162
v -0.000475 0.014939 0.000459
v -0.002209 0.016260 0.000162
v -0.000576 0.016586 0.000162
v -0.004417 0.012694 0.000447
v -0.004315 0.014830 0.000161
v -0.002738 0.014537 0.000161
v -0.002830 0.012618 0.000447
v -0.004325 0.014613 0.000161
v -0.002728 0.014754 0.000161
vn -0.0000 -0.0000 1.0000
vn -0.0000 1.0000 -0.0000
vn -0.0000 -0.0000 -1.0000
vn -1.0000 -0.0000 -0.0000
vn -0.0000 -1.0000 -0.0000
vn 1.0000 -0.0000 -0.0000
vn 0.0115 0.2034 0.9790
vn -0.0125 0.2033 0.9790
vn 0.0110 0.2034 0.9790
vn -0.0158 0.1461 0.9891
vn 0.0070 0.1468 0.9891
vn 0.0068 0.1468 0.9891
vn 0.0109 0.1466 0.9891
vn -0.0057 0.1469 0.9891
vt 0.388389 0.023405
vt 0.388389 0.040519
vt 0.388389 0.023405
vt 0.388389 0.040519
vt 0.415373 0.023405
vt 0.415373 0.040519
vt 0.415373 0.023405
vt 0.415373 0.040519
vt 0.389483 0.023405
vt 0.414279 0.023405
vt 0.414279 0.040519
vt 0.389483 0.040519
vt 0.414279 0.023405
vt 0.389483 0.023405
vt 0.389483 0.040519
vt 0.414279 0.040519
vt 0.731662 0.043331
vt 0.414279 0.039425
vt 0.731662 0.028398
vt 0.414279 0.024492
vt 0.706866 0.043331
vt 0.389483 0.039425
vt 0.706866 0.028398
vt 0.389483 0.024492
vt 0.415373 0.024492
vt 0.415373 0.039425
vt 0.415373 0.039425
vt 0.415373 0.024492
vt 0.388389 0.024492
vt 0.388389 0.039425
vt 0.388389 0.039425
vt 0.388389 0.024492
vt 0.389483 0.024492
vt 0.389483 0.039425
vt 0.414279 0.024492
vt 0.414279 0.039425
vt 0.414279 0.039425
vt 0.414279 0.024492
vt 0.389483 0.024492
vt 0.389483 0.039425
vt 0.390334 0.010790
vt 0.390334 0.023771
vt 0.390334 0.010790
vt 0.390334 0.023771
vt 0.391586 0.010790
vt 0.391586 0.023771
vt 0.391586 0.010790
vt 0.391586 0.023771
vt 0.413428 0.010790
vt 0.413428 0.023771
vt 0.413428 0.010790
vt 0.413428 0.023771
vt 0.412176 0.010790
vt 0.412176 0.023771
vt 0.412176 0.010790
vt 0.412176 0.023771
vt 0.894092 0.213895
vt 0.894092 0.240326
vt 0.920524 0.236715
vt 0.920524 0.213895
vt 0.894092 0.236715
vt 0.920524 0.240326
vt 0.894092 0.213895
vt 0.894092 0.240326
vt 0.920524 0.236715
vt 0.920524 0.213895
vt 0.894092 0.236715
vt 0.920524 0.240326
vt 0.894092 0.213895
vt 0.894092 0.240326
vt 0.920524 0.236715
vt 0.920524 0.213895
vt 0.894092 0.236715
vt 0.920524 0.240326
vt 0.829639 0.022488
vt 0.829639 0.048920
vt 0.856071 0.045309
vt 0.856071 0.022488
vt 0.829639 0.045309
vt 0.856071 0.048920
vt 0.894092 0.213895
vt 0.894092 0.240326
vt 0.920524 0.236715
vt 0.920524 0.213895
vt 0.894092 0.236715
vt 0.920524 0.240326
vt 0.833545 0.094754
vt 0.833545 0.121185
vt 0.859977 0.117574
vt 0.859977 0.094754
vt 0.833545 0.117574
vt 0.859977 0.121185
vt 0.838436 0.019208
vt 0.838436 0.045639
vt 0.864867 0.042028
vt 0.864867 0.019208
vt 0.838436 0.042028
vt 0.864867 0.045639
vt 0.829639 0.022488
vt 0.829639 0.048920
vt 0.856071 0.045309
vt 0.856071 0.022488
vt 0.829639 0.045309
vt 0.856071 0.048920
vt 0.832415 0.042124
vt 0.451556 0.042124
vt 0.834528 0.043026
vt 0.453669 0.043026
vt 0.838835 0.042335
vt 0.457976 0.042335
vt 0.843152 0.042735
vt 0.462293 0.042735
vt 0.849186 0.042704
vt 0.468327 0.042704
vt 0.852952 0.042914
vt 0.472093 0.042914
vt 0.855003 0.041660
vt 0.474144 0.041660
vt 0.851266 0.041623
vt 0.470407 0.041623
vt 0.846597 0.041068
vt 0.465738 0.041068
vt 0.841413 0.041644
vt 0.460554 0.041644
vt 0.836308 0.040988
vt 0.455449 0.040988
vt 0.833552 0.036963
vt 0.452692 0.036963
vt 0.837556 0.037842
vt 0.456697 0.037842
vt 0.843847 0.037560
vt 0.462988 0.037560
vt 0.851057 0.037998
vt 0.470198 0.037998
vt 0.854472 0.038053
vt 0.473612 0.038053
vt 0.473756 0.037081
vt 0.854615 0.037081
vt 0.468493 0.036995
vt 0.849353 0.036995
vt 0.463458 0.035881
vt 0.844318 0.035881
vt 0.457273 0.036396
vt 0.838132 0.036396
vt 0.452337 0.036234
vt 0.833196 0.036234
vt 0.451558 0.032733
vt 0.832417 0.032733
vt 0.836801 0.033337
vt 0.455942 0.033337
vt 0.843235 0.032716
vt 0.462376 0.032716
vt 0.847524 0.033546
vt 0.466665 0.033546
vt 0.853578 0.033199
vt 0.472719 0.033199
vt 0.474289 0.031930
vt 0.855148 0.031930
vt 0.470122 0.032310
vt 0.850982 0.032310
vt 0.466329 0.031898
vt 0.847188 0.031898
vt 0.461266 0.031215
vt 0.842125 0.031215
vt 0.456357 0.031886
vt 0.837216 0.031886
vt 0.451815 0.031852
vt 0.832675 0.031852
vt 0.450199 0.027725
vt 0.831059 0.027725
vt 0.452230 0.028534
vt 0.833090 0.028534
vt 0.456224 0.028953
vt 0.837084 0.028953
vt 0.462514 0.028700
vt 0.843373 0.028700
vt 0.467542 0.029296
vt 0.848401 0.029296
vt 0.473113 0.028962
vt 0.853972 0.028962
vt 0.473953 0.027784
vt 0.854812 0.027784
vt 0.851171 0.027492
vt 0.470312 0.027492
vt 0.844504 0.026756
vt 0.463644 0.026756
vt 0.841544 0.027750
vt 0.460685 0.027750
vt 0.835690 0.027500
vt 0.454830 0.027500
vt 0.829639 0.022488
vt 0.829639 0.048920
vt 0.856071 0.045309
vt 0.856071 0.022488
vt 0.829639 0.045309
vt 0.856071 0.048920
vt 0.852819 0.342168
vt 0.852819 0.024785
vt 0.832891 0.360395
vt 0.832891 0.043012
vt 0.852819 0.360395
vt 0.852819 0.043012
vt 0.832891 0.342168
vt 0.832891 0.024785
vt 0.829639 0.022488
vt 0.829639 0.048920
vt 0.856071 0.045309
vt 0.856071 0.022488
vt 0.829639 0.045309
vt 0.856071 0.048920
vt 0.832415 0.042124
vt 0.451556 0.042124
vt 0.834528 0.043026
vt 0.453669 0.043026
vt 0.838835 0.042335
vt 0.457976 0.042335
vt 0.843152 0.042735
vt 0.462293 0.042735
vt 0.849186 0.042704
vt 0.468327 0.042704
vt 0.852952 0.042914
vt 0.472093 0.042914
vt 0.855003 0.041660
vt 0.474144 0.041660
vt 0.851266 0.041623
vt 0.470407 0.041623
vt 0.846597 0.041068
vt 0.465738 0.041068
vt 0.841413 0.041644
vt 0.460554 0.041644
vt 0.836308 0.040988
vt 0.455449 0.040988
vt 0.833552 0.036963
vt 0.452692 0.036963
vt 0.837556 0.037842
vt 0.456697 0.037842
vt 0.843847 0.037560
vt 0.462988 0.037560
vt 0.851057 0.037998
vt 0.470198 0.037998
vt 0.854472 0.038053
vt 0.473612 0.038053
vt 0.473756 0.037081
vt 0.854615 0.037081
vt 0.468493 0.036995
vt 0.849353 0.036995
vt 0.463458 0.035881
vt 0.844318 0.035881
vt 0.457273 0.036396
vt 0.838132 0.036396
vt 0.452337 0.036234
vt 0.833196 0.036234
vt 0.451558 0.032733
vt 0.832417 0.032733
vt 0.836801 0.033337
vt 0.455942 0.033337
vt 0.843235 0.032716
vt 0.462376 0.032716
vt 0.847524 0.033546
vt 0.466665 0.033546
vt 0.853578 0.033199
vt 0.472719 0.033199
vt 0.474289 0.031930
vt 0.855148 0.031930
vt 0.470122 0.032310
vt 0.850982 0.032310
vt 0.466329 0.031898
vt 0.847188 0.031898
vt 0.461266 0.031215
vt 0.842125 0.031215
vt 0.456357 0.031886
vt 0.837216 0.031886
vt 0.451815 0.031852
vt 0.832675 0.031852
vt 0.450199 0.027725
vt 0.831059 0.027725
vt 0.452230 0.028534
vt 0.833090 0.028534
vt 0.456224 0.028953
vt 0.837084 0.028953
vt 0.462514 0.028700
vt 0.843373 0.028700
vt 0.467542 0.029296
vt 0.848401 0.029296
vt 0.473113 0.028962
vt 0.853972 0.028962
vt 0.473953 0.027784
vt 0.854812 0.027784
vt 0.851171 0.027492
vt 0.470312 0.027492
vt 0.844504 0.026756
vt 0.463644 0.026756
vt 0.841544 0.027750
vt 0.460685 0.027750
vt 0.835690 0.027500
vt 0.454830 0.027500
vt 0.330616 0.213895
vt 0.330616 0.240326
vt 0.357047 0.236715
vt 0.357047 0.213895
vt 0.330616 0.236715
vt 0.357047 0.240326
vt 0.894092 0.213895
vt 0.894092 0.240326
vt 0.920524 0.236715
vt 0.920524 0.213895
vt 0.894092 0.236715
vt 0.920524 0.240326
vt 0.207569 0.217801
vt 0.207569 0.244232
vt 0.234000 0.240621
vt 0.234000 0.217801
vt 0.207569 0.240621
vt 0.234000 0.244232
s 1
usemtl City_05.026
f 30/34/1 15/15/1 27/31/1
f 27/31/1 15/15/1 2/2/1
f 8/8/2 11/11/2 6/6/2
f 6/6/2 11/11/2 16/16/2
f 10/10/3 34/38/3 7/7/3
f 7/7/3 34/38/3 24/28/3
f 27/31/4 2/2/4 26/30/4
f 26/30/4 2/2/4 4/4/4
f 3/3/5 9/9/5 1/1/5
f 1/1/5 9/9/5 14/14/5
f 5/5/1 21/25/1 13/13/1
f 13/13/1 21/25/1 31/35/1
f 12/12/2 4/4/2 15/15/2
f 15/15/2 4/4/2 2/2/2
f 1/1/4 28/32/4 3/3/4
f 3/3/4 28/32/4 25/29/4
f 14/14/1 29/33/1 1/1/1
f 1/1/1 29/33/1 28/32/1
f 10/10/5 7/7/5 13/13/5
f 13/13/5 7/7/5 5/5/5
f 12/12/2 15/15/2 11/11/2
f 11/11/2 15/15/2 16/16/2
f 10/10/5 13/13/5 9/9/5
f 9/9/5 13/13/5 14/14/5
f 11/11/3 33/37/3 12/12/3
f 12/12/3 33/37/3 36/40/3
f 20/23/1 18/19/1 19/21/1
f 19/21/1 18/19/1 17/17/1
f 3/3/3 25/29/3 9/9/3
f 9/9/3 25/29/3 35/39/3
f 34/38/3 10/10/3 35/39/3
f 35/39/3 10/10/3 9/9/3
f 29/33/1 14/14/1 31/35/1
f 31/35/1 14/14/1 13/13/1
f 15/15/1 30/34/1 16/16/1
f 16/16/1 30/34/1 32/36/1
f 33/37/3 11/11/3 23/27/3
f 23/27/3 11/11/3 8/8/3
f 23/27/6 8/8/6 22/26/6
f 22/26/6 8/8/6 6/6/6
f 22/26/1 6/6/1 32/36/1
f 32/36/1 6/6/1 16/16/1
f 26/30/3 4/4/3 36/40/3
f 36/40/3 4/4/3 12/12/3
f 30/34/1 27/31/1 29/33/1
f 29/33/1 27/31/1 28/32/1
f 32/36/5 30/34/5 17/18/5
f 17/18/5 30/34/5 19/22/5
f 34/38/3 35/39/3 33/37/3
f 33/37/3 35/39/3 36/40/3
f 26/30/3 36/40/3 25/29/3
f 25/29/3 36/40/3 35/39/3
f 33/37/3 23/27/3 34/38/3
f 34/38/3 23/27/3 24/28/3
f 22/26/1 32/36/1 21/25/1
f 21/25/1 32/36/1 31/35/1
f 23/27/6 22/26/6 24/28/6
f 24/28/6 22/26/6 21/25/6
f 27/31/4 26/30/4 28/32/4
f 28/32/4 26/30/4 25/29/4
f 7/7/6 24/28/6 5/5/6
f 5/5/6 24/28/6 21/25/6
f 29/33/2 31/35/2 20/24/2
f 20/24/2 31/35/2 18/20/2
f 30/34/6 29/33/6 19/22/6
f 19/22/6 29/33/6 20/24/6
f 31/35/4 32/36/4 18/20/4
f 18/20/4 32/36/4 17/18/4
f 37/41/4 38/42/4 39/43/4
f 39/43/4 38/42/4 40/44/4
f 39/43/3 40/44/3 43/47/3
f 43/47/3 40/44/3 44/48/3
f 43/47/6 44/48/6 41/45/6
f 41/45/6 44/48/6 42/46/6
f 41/45/1 42/46/1 37/41/1
f 37/41/1 42/46/1 38/42/1
f 39/43/5 43/47/5 37/41/5
f 37/41/5 43/47/5 41/45/5
f 44/48/2 40/44/2 42/46/2
f 42/46/2 40/44/2 38/42/2
f 45/49/6 47/51/6 46/50/6
f 46/50/6 47/51/6 48/52/6
f 47/51/3 51/55/3 48/52/3
f 48/52/3 51/55/3 52/56/3
f 51/55/4 49/53/4 52/56/4
f 52/56/4 49/53/4 50/54/4
f 49/53/1 45/49/1 50/54/1
f 50/54/1 45/49/1 46/50/1
f 47/51/5 45/49/5 51/55/5
f 51/55/5 45/49/5 49/53/5
f 52/56/2 50/54/2 48/52/2
f 48/52/2 50/54/2 46/50/2
f 58/62/1 54/58/1 55/59/1
f 55/59/1 54/58/1 57/61/1
f 55/59/7 57/61/7 56/60/7
f 56/60/7 57/61/7 53/57/7
f 64/68/1 60/64/1 61/65/1
f 61/65/1 60/64/1 63/67/1
f 61/65/8 63/67/8 62/66/8
f 62/66/8 63/67/8 59/63/8
f 70/74/1 66/70/1 67/71/1
f 67/71/1 66/70/1 69/73/1
f 67/71/9 69/73/9 68/72/9
f 68/72/9 69/73/9 65/69/9
f 76/80/1 72/76/1 73/77/1
f 73/77/1 72/76/1 75/79/1
f 73/77/10 75/79/10 74/78/10
f 74/78/10 75/79/10 71/75/10
f 82/86/1 78/82/1 79/83/1
f 79/83/1 78/82/1 81/85/1
f 79/83/7 81/85/7 80/84/7
f 80/84/7 81/85/7 77/81/7
f 88/92/1 84/88/1 85/89/1
f 85/89/1 84/88/1 87/91/1
f 85/89/8 87/91/8 86/90/8
f 86/90/8 87/91/8 83/87/8
f 94/98/1 90/94/1 91/95/1
f 91/95/1 90/94/1 93/97/1
f 91/95/11 93/97/11 92/96/11
f 92/96/11 93/97/11 89/93/11
f 100/104/1 96/100/1 97/101/1
f 97/101/1 96/100/1 99/103/1
f 97/101/12 107/117/12 117/138/12
f 117/138/12 107/117/12 116/135/12
f 99/103/12 121/146/12 101/105/12
f 121/146/12 112/127/12 101/105/12
f 101/105/12 112/127/12 111/125/12
f 112/127/12 113/129/12 111/125/12
f 107/117/12 108/119/12 116/135/12
f 116/135/12 108/119/12 115/133/12
f 108/119/12 109/121/12 115/133/12
f 115/133/12 109/121/12 114/131/12
f 109/121/12 110/123/12 114/131/12
f 114/131/12 110/123/12 113/129/12
f 110/123/12 111/125/12 113/129/12
f 107/117/12 97/101/12 106/115/12
f 97/101/12 99/103/12 106/115/12
f 106/115/12 99/103/12 105/113/12
f 105/113/12 99/103/12 104/111/12
f 104/111/12 99/103/12 103/109/12
f 103/109/12 99/103/12 102/107/12
f 99/103/12 101/105/12 102/107/12
f 107/118/12 106/116/12 108/120/12
f 106/116/12 105/114/12 108/120/12
f 108/120/12 105/114/12 109/122/12
f 105/114/12 104/112/12 109/122/12
f 109/122/12 104/112/12 110/124/12
f 104/112/12 103/110/12 110/124/12
f 110/124/12 103/110/12 111/126/12
f 103/110/12 102/108/12 111/126/12
f 102/108/12 101/106/12 111/126/12
f 121/145/12 120/143/12 112/128/12
f 112/128/12 120/143/12 113/130/12
f 113/130/12 120/143/12 114/132/12
f 120/143/12 119/141/12 114/132/12
f 114/132/12 119/141/12 115/134/12
f 119/141/12 118/139/12 115/134/12
f 118/139/12 117/137/12 115/134/12
f 117/137/12 116/136/12 115/134/12
f 95/99/12 133/170/12 99/103/12
f 99/103/12 133/170/12 121/146/12
f 133/170/12 122/148/12 121/146/12
f 98/102/12 97/101/12 127/158/12
f 97/101/12 117/138/12 127/158/12
f 127/158/12 117/138/12 126/155/12
f 122/148/12 123/149/12 121/146/12
f 121/146/12 123/149/12 120/144/12
f 117/138/12 118/140/12 126/155/12
f 126/155/12 118/140/12 125/153/12
f 118/140/12 119/142/12 125/153/12
f 125/153/12 119/142/12 124/151/12
f 123/149/12 124/151/12 120/144/12
f 119/142/12 120/144/12 124/151/12
f 127/158/12 139/182/12 98/102/12
f 95/99/12 98/102/12 133/170/12
f 133/170/12 98/102/12 143/189/12
f 143/189/12 98/102/12 142/187/12
f 142/187/12 98/102/12 141/185/12
f 141/185/12 98/102/12 140/183/12
f 98/102/12 139/182/12 140/183/12
f 127/157/12 126/156/12 128/159/12
f 126/156/12 125/154/12 128/159/12
f 128/159/12 125/154/12 129/161/12
f 125/154/12 124/152/12 129/161/12
f 129/161/12 124/152/12 130/163/12
f 124/152/12 123/150/12 130/163/12
f 130/163/12 123/150/12 131/165/12
f 131/165/12 123/150/12 132/167/12
f 132/167/12 123/150/12 122/147/12
f 133/169/12 143/190/12 134/171/12
f 134/171/12 143/190/12 135/173/12
f 143/190/12 142/188/12 135/173/12
f 135/173/12 142/188/12 136/175/12
f 142/188/12 141/186/12 136/175/12
f 139/181/12 138/179/12 140/184/12
f 138/179/12 137/177/12 140/184/12
f 140/184/12 137/177/12 141/186/12
f 141/186/12 137/177/12 136/175/12
f 122/148/12 133/170/12 132/168/12
f 139/182/12 127/158/12 138/180/12
f 133/170/12 134/172/12 132/168/12
f 127/158/12 128/160/12 138/180/12
f 138/180/12 128/160/12 137/178/12
f 128/160/12 129/162/12 137/178/12
f 137/178/12 129/162/12 136/176/12
f 129/162/12 130/164/12 136/176/12
f 136/176/12 130/164/12 135/174/12
f 130/164/12 131/166/12 135/174/12
f 132/168/12 134/172/12 131/166/12
f 134/172/12 135/174/12 131/166/12
f 149/196/1 145/192/1 146/193/1
f 146/193/1 145/192/1 148/195/1
f 152/201/13 151/199/13 150/197/13
f 150/197/13 151/199/13 153/203/13
f 151/200/13 152/202/13 148/195/13
f 148/195/13 152/202/13 146/193/13
f 152/202/13 150/198/13 146/193/13
f 146/193/13 150/198/13 147/194/13
f 153/204/13 151/200/13 144/191/13
f 144/191/13 151/200/13 148/195/13
f 150/198/13 153/204/13 147/194/13
f 147/194/13 153/204/13 144/191/13
f 159/210/1 155/206/1 156/207/1
f 156/207/1 155/206/1 158/209/1
f 156/207/14 166/223/14 176/244/14
f 176/244/14 166/223/14 175/241/14
f 158/209/14 180/252/14 160/211/14
f 180/252/14 171/233/14 160/211/14
f 160/211/14 171/233/14 170/231/14
f 171/233/14 172/235/14 170/231/14
f 166/223/14 167/225/14 175/241/14
f 175/241/14 167/225/14 174/239/14
f 167/225/14 168/227/14 174/239/14
f 174/239/14 168/227/14 173/237/14
f 168/227/14 169/229/14 173/237/14
f 173/237/14 169/229/14 172/235/14
f 169/229/14 170/231/14 172/235/14
f 166/223/14 156/207/14 165/221/14
f 156/207/14 158/209/14 165/221/14
f 165/221/14 158/209/14 164/219/14
f 164/219/14 158/209/14 163/217/14
f 163/217/14 158/209/14 162/215/14
f 162/215/14 158/209/14 161/213/14
f 158/209/14 160/211/14 161/213/14
f 166/224/14 165/222/14 167/226/14
f 165/222/14 164/220/14 167/226/14
f 167/226/14 164/220/14 168/228/14
f 164/220/14 163/218/14 168/228/14
f 168/228/14 163/218/14 169/230/14
f 163/218/14 162/216/14 169/230/14
f 169/230/14 162/216/14 170/232/14
f 162/216/14 161/214/14 170/232/14
f 161/214/14 160/212/14 170/232/14
f 180/251/14 179/249/14 171/234/14
f 171/234/14 179/249/14 172/236/14
f 172/236/14 179/249/14 173/238/14
f 179/249/14 178/247/14 173/238/14
f 173/238/14 178/247/14 174/240/14
f 178/247/14 177/245/14 174/240/14
f 177/245/14 176/243/14 174/240/14
f 176/243/14 175/242/14 174/240/14
f 154/205/14 192/276/14 158/209/14
f 158/209/14 192/276/14 180/252/14
f 192/276/14 181/254/14 180/252/14
f 157/208/14 156/207/14 186/264/14
f 156/207/14 176/244/14 186/264/14
f 186/264/14 176/244/14 185/261/14
f 181/254/14 182/255/14 180/252/14
f 180/252/14 182/255/14 179/250/14
f 176/244/14 177/246/14 185/261/14
f 185/261/14 177/246/14 184/259/14
f 177/246/14 178/248/14 184/259/14
f 184/259/14 178/248/14 183/257/14
f 182/255/14 183/257/14 179/250/14
f 178/248/14 179/250/14 183/257/14
f 186/264/14 198/288/14 157/208/14
f 154/205/14 157/208/14 192/276/14
f 192/276/14 157/208/14 202/295/14
f 202/295/14 157/208/14 201/293/14
f 201/293/14 157/208/14 200/291/14
f 200/291/14 157/208/14 199/289/14
f 157/208/14 198/288/14 199/289/14
f 186/263/14 185/262/14 187/265/14
f 185/262/14 184/260/14 187/265/14
f 187/265/14 184/260/14 188/267/14
f 184/260/14 183/258/14 188/267/14
f 188/267/14 183/258/14 189/269/14
f 183/258/14 182/256/14 189/269/14
f 189/269/14 182/256/14 190/271/14
f 190/271/14 182/256/14 191/273/14
f 191/273/14 182/256/14 181/253/14
f 192/275/14 202/296/14 193/277/14
f 193/277/14 202/296/14 194/279/14
f 202/296/14 201/294/14 194/279/14
f 194/279/14 201/294/14 195/281/14
f 201/294/14 200/292/14 195/281/14
f 198/287/14 197/285/14 199/290/14
f 197/285/14 196/283/14 199/290/14
f 199/290/14 196/283/14 200/292/14
f 200/292/14 196/283/14 195/281/14
f 181/254/14 192/276/14 191/274/14
f 198/288/14 186/264/14 197/286/14
f 192/276/14 193/278/14 191/274/14
f 186/264/14 187/266/14 197/286/14
f 197/286/14 187/266/14 196/284/14
f 187/266/14 188/268/14 196/284/14
f 196/284/14 188/268/14 195/282/14
f 188/268/14 189/270/14 195/282/14
f 195/282/14 189/270/14 194/280/14
f 189/270/14 190/272/14 194/280/14
f 191/274/14 193/278/14 190/272/14
f 193/278/14 194/280/14 190/272/14
f 208/302/1 204/298/1 205/299/1
f 205/299/1 204/298/1 207/301/1
f 205/299/7 207/301/7 206/300/7
f 206/300/7 207/301/7 203/297/7
f 214/308/1 210/304/1 211/305/1
f 211/305/1 210/304/1 213/307/1
f 211/305/8 213/307/8 212/306/8
f 212/306/8 213/307/8 209/303/8
f 220/314/1 216/310/1 217/311/1
f 217/311/1 216/310/1 219/313/1
f 217/311/11 219/313/11 218/312/11
f 218/312/11 219/313/11 215/309/11
