# Blender 3.4.1
# www.blender.org
mtllib tris.mtl
o Light_01
v -0.002078 -0.000000 0.002078
v -0.001117 0.000954 0.001117
v -0.002078 0.000000 -0.002078
v -0.001117 0.000954 -0.001117
v 0.002078 -0.000000 0.002078
v 0.001117 0.000954 0.001117
v 0.002078 0.000000 -0.002078
v 0.001117 0.000954 -0.001117
v -0.002078 0.000954 0.002078
v -0.002078 0.000954 -0.002078
v 0.002078 0.000954 -0.002078
v 0.002078 0.000954 0.002078
v -0.001117 0.001156 0.001117
v -0.001117 0.001156 -0.001117
v 0.001117 0.001156 -0.001117
v 0.001117 0.001156 0.001117
v 0.000000 0.001089 -0.000573
v 0.000000 0.041096 -0.000573
v 0.000405 0.001089 -0.000405
v 0.000405 0.041096 -0.000405
v 0.000573 0.001089 0.000000
v 0.000573 0.041096 0.000000
v 0.000405 0.001089 0.000405
v 0.000405 0.041096 0.000405
v -0.000000 0.001089 0.000573
v -0.000000 0.041096 0.000573
v -0.000405 0.001089 0.000405
v -0.000405 0.041096 0.000405
v -0.000573 0.001089 0.000000
v -0.000573 0.041096 0.000000
v -0.000405 0.001089 -0.000405
v -0.000405 0.041096 -0.000405
v 0.000000 0.040088 -0.000293
v -0.019487 0.046223 -0.000293
v 0.000062 0.040286 -0.000207
v -0.019424 0.046421 -0.000207
v 0.000088 0.040367 0.000000
v -0.019399 0.046502 0.000000
v 0.000062 0.040286 0.000207
v -0.019424 0.046421 0.000207
v -0.000000 0.040088 0.000293
v -0.019487 0.046223 0.000293
v -0.000062 0.039891 0.000207
v -0.019549 0.046026 0.000207
v -0.000088 0.039809 0.000000
v -0.019574 0.045944 0.000000
v -0.000062 0.039891 -0.000207
v -0.019549 0.046026 -0.000207
v -0.010727 0.045355 -0.000293
v -0.006100 0.043895 -0.000293
v -0.008245 0.044815 -0.000293
v -0.006104 0.044134 -0.000207
v -0.010574 0.045543 -0.000207
v -0.008176 0.045022 -0.000207
v -0.006091 0.044223 0.000000
v -0.010530 0.045623 0.000000
v -0.008148 0.045106 0.000000
v -0.006104 0.044134 0.000207
v -0.010574 0.045543 0.000207
v -0.008176 0.045022 0.000207
v -0.006100 0.043895 0.000293
v -0.010727 0.045355 0.000293
v -0.008245 0.044815 0.000293
v -0.006228 0.043739 0.000207
v -0.010698 0.045148 0.000207
v -0.008300 0.044627 0.000207
v -0.006266 0.043665 0.000000
v -0.010706 0.045065 0.000000
v -0.008324 0.044547 0.000000
v -0.006228 0.043739 -0.000207
v -0.010698 0.045148 -0.000207
v -0.008300 0.044627 -0.000207
v -0.018495 0.045708 0.000775
v -0.018495 0.045708 -0.000775
v -0.023432 0.045708 0.001256
v -0.023432 0.045708 -0.001255
v -0.017979 0.045708 0.000961
v -0.017979 0.045708 -0.000961
v -0.023947 0.045708 -0.001640
v -0.023947 0.045708 0.001640
v -0.023432 0.045818 0.001256
v -0.023432 0.045818 -0.001255
v -0.018495 0.045818 -0.000776
v -0.018495 0.045818 0.000776
v -0.018414 0.046662 0.000821
v -0.017979 0.046423 0.000961
v -0.018106 0.046592 0.000920
v -0.018414 0.046662 -0.000821
v -0.017979 0.046423 -0.000961
v -0.018106 0.046592 -0.000920
v -0.023513 0.046662 0.001401
v -0.023947 0.046423 0.001640
v -0.023820 0.046592 0.001570
v -0.023513 0.046662 -0.001401
v -0.023947 0.046423 -0.001640
v -0.023820 0.046592 -0.001570
v -0.020963 0.045708 -0.001505
v -0.020963 0.045708 0.001505
v -0.020963 0.045708 -0.001151
v -0.020963 0.045708 0.001151
v -0.020963 0.045818 0.001145
v -0.020963 0.045818 -0.001145
v -0.020963 0.046662 -0.001250
v -0.020963 0.046592 -0.001402
v -0.020963 0.046423 -0.001469
v -0.020963 0.046662 0.001250
v -0.020963 0.046592 0.001402
v -0.020963 0.046423 0.001469
v -0.000786 0.039756 0.000786
v -0.000786 0.041328 0.000786
v -0.000786 0.039756 -0.000786
v -0.000786 0.041328 -0.000786
v 0.000786 0.039756 0.000786
v 0.000786 0.041328 0.000786
v 0.000786 0.039756 -0.000786
v 0.000786 0.041328 -0.000786
vn -1.0000 -0.0000 -0.0000
vn -0.0000 -0.0000 -1.0000
vn 1.0000 -0.0000 -0.0000
vn -0.0000 -0.0000 1.0000
vn -0.0000 -1.0000 -0.0000
vn -0.0000 1.0000 -0.0000
vn 0.3827 -0.0000 -0.9239
vn 0.9239 -0.0000 -0.3827
vn 0.9239 -0.0000 0.3827
vn 0.3827 -0.0000 0.9239
vn -0.3827 -0.0000 0.9239
vn -0.9239 -0.0000 0.3827
vn -0.9239 -0.0000 -0.3827
vn -0.3827 -0.0000 -0.9239
vn -0.2082 -0.3337 -0.9194
vn 0.4914 0.7874 0.3722
vn 0.4914 0.7874 0.3723
vn 0.2082 0.3337 0.9194
vn -0.2082 -0.3337 0.9194
vn -0.4914 -0.7874 0.3722
vn -0.4914 -0.7874 -0.3722
vn -0.9538 0.3003 -0.0000
vn 0.2082 0.3337 -0.9194
vn 0.9538 -0.3003 -0.0000
vn 0.4914 0.7874 -0.3723
vn 0.4914 0.7874 -0.3722
vn -0.0914 -0.9222 -0.3758
vn -0.0915 -0.9222 -0.3757
vn -0.0915 -0.9222 0.3757
vn -0.0914 -0.9222 0.3757
vn -0.0914 -0.9222 0.3758
vn -0.0385 -0.3878 0.9209
vn 0.0385 0.3878 0.9209
vn 0.0915 0.9222 0.3757
vn 0.0915 0.9222 -0.3757
vn 0.0385 0.3878 -0.9209
vn -0.0852 -0.3923 -0.9159
vn -0.0852 -0.3924 -0.9159
vn -0.1591 -0.3709 -0.9149
vn -0.1593 -0.3713 -0.9147
vn -0.1593 -0.3714 -0.9147
vn -0.1969 -0.9064 -0.3736
vn -0.1969 -0.9064 -0.3737
vn -0.3658 -0.8528 -0.3727
vn -0.1969 -0.9064 0.3736
vn -0.1969 -0.9064 0.3737
vn -0.3658 -0.8528 0.3727
vn -0.0852 -0.3923 0.9159
vn -0.0853 -0.3927 0.9157
vn -0.0853 -0.3928 0.9157
vn -0.1593 -0.3712 0.9148
vn -0.1593 -0.3713 0.9147
vn -0.1591 -0.3709 0.9149
vn 0.0781 0.3595 0.9299
vn 0.0780 0.3592 0.9300
vn 0.1445 0.3370 0.9304
vn 0.1445 0.3369 0.9304
vn 0.1444 0.3366 0.9305
vn 0.1955 0.9003 0.3889
vn 0.3631 0.8465 0.3893
vn 0.1955 0.9003 -0.3889
vn 0.3631 0.8465 -0.3893
vn 0.0781 0.3595 -0.9299
vn 0.0780 0.3592 -0.9300
vn 0.1445 0.3370 -0.9304
vn 0.1444 0.3366 -0.9305
vn 0.1445 0.3369 -0.9304
vn -0.0385 -0.3878 -0.9209
vn 0.1735 0.0251 0.9845
vn 0.1734 0.0251 0.9845
vn 0.0513 0.0254 -0.9984
vn -0.1492 -0.0228 0.9885
vn -0.1492 -0.0229 0.9885
vn -0.0436 -0.0280 -0.9987
vn 0.2220 0.9750 -0.0000
vn 0.7986 0.6018 -0.0000
vn 0.0705 0.9056 -0.4183
vn 0.0705 0.9056 -0.4182
vn 0.1564 0.3518 -0.9229
vn -0.2220 0.9750 -0.0000
vn -0.7986 0.6018 -0.0000
vn 0.0247 0.9076 0.4191
vn 0.0247 0.9075 0.4192
vn 0.0247 0.9076 0.4192
vn 0.0542 0.3556 0.9331
vn 0.0542 0.3556 0.9330
vn 0.1564 0.3518 0.9229
vn 0.0705 0.9056 0.4182
vn 0.0705 0.9056 0.4183
vn 0.0705 0.9055 0.4183
vn 0.0542 0.3556 -0.9331
vn 0.0542 0.3556 -0.9330
vn 0.0247 0.9076 -0.4191
vn 0.0247 0.9076 -0.4192
vn 0.0247 0.9075 -0.4192
vn -0.1492 -0.0228 -0.9885
vn -0.1492 -0.0229 -0.9885
vn -0.0436 -0.0280 0.9987
vn 0.1735 0.0251 -0.9845
vn 0.0513 0.0254 0.9984
vt 0.459884 0.012158
vt 0.460893 0.013161
vt 0.459884 0.012158
vt 0.460893 0.013161
vt 0.464252 0.012158
vt 0.463242 0.013161
vt 0.464252 0.012158
vt 0.463242 0.013161
vt 0.459884 0.013161
vt 0.459884 0.013161
vt 0.464252 0.013161
vt 0.464252 0.013161
vt 0.460893 0.013373
vt 0.460893 0.013373
vt 0.463242 0.013373
vt 0.463242 0.013373
vt 0.661441 0.013892
vt 0.661441 0.045434
vt 0.661760 0.013892
vt 0.661760 0.045434
vt 0.661893 0.013892
vt 0.661893 0.045434
vt 0.661760 0.013892
vt 0.661760 0.045434
vt 0.661441 0.013892
vt 0.661441 0.045434
vt 0.661121 0.013892
vt 0.661121 0.045434
vt 0.660989 0.013892
vt 0.660989 0.045434
vt 0.661121 0.013892
vt 0.661121 0.045434
vt 0.661441 0.044640
vt 0.646078 0.049477
vt 0.661490 0.044795
vt 0.646127 0.049632
vt 0.661510 0.044860
vt 0.646147 0.049697
vt 0.661490 0.044795
vt 0.646127 0.049632
vt 0.661441 0.044640
vt 0.646078 0.049477
vt 0.661392 0.044484
vt 0.646029 0.049321
vt 0.661372 0.044420
vt 0.646008 0.049256
vt 0.661392 0.044484
vt 0.646029 0.049321
vt 0.652984 0.048792
vt 0.656632 0.047641
vt 0.654940 0.048367
vt 0.656628 0.047829
vt 0.653105 0.048940
vt 0.654995 0.048530
vt 0.656639 0.047900
vt 0.653139 0.049003
vt 0.655017 0.048595
vt 0.656628 0.047829
vt 0.653105 0.048940
vt 0.654995 0.048530
vt 0.656632 0.047641
vt 0.652984 0.048792
vt 0.654940 0.048367
vt 0.656530 0.047518
vt 0.653007 0.048629
vt 0.654897 0.048218
vt 0.656501 0.047459
vt 0.653000 0.048563
vt 0.654878 0.048155
vt 0.656530 0.047518
vt 0.653007 0.048629
vt 0.654897 0.048218
vt 0.469711 0.042605
vt 0.469711 0.042605
vt 0.464522 0.042605
vt 0.464522 0.042605
vt 0.470253 0.042605
vt 0.470253 0.042605
vt 0.463980 0.042605
vt 0.463980 0.042605
vt 0.652865 0.158689
vt 0.464522 0.042721
vt 0.652865 0.158689
vt 0.464522 0.042721
vt 0.469711 0.042721
vt 0.659777 0.158689
vt 0.469711 0.042721
vt 0.659777 0.158689
vt 0.469796 0.043608
vt 0.470253 0.043357
vt 0.470119 0.043534
vt 0.469796 0.043608
vt 0.470253 0.043357
vt 0.470119 0.043534
vt 0.464436 0.043608
vt 0.463980 0.043357
vt 0.464114 0.043534
vt 0.464436 0.043608
vt 0.463980 0.043357
vt 0.464114 0.043534
vt 0.467116 0.042605
vt 0.467116 0.042605
vt 0.467116 0.042605
vt 0.467116 0.042605
vt 0.467116 0.042721
vt 0.656321 0.158689
vt 0.656321 0.158689
vt 0.467116 0.042721
vt 0.467116 0.043608
vt 0.467116 0.043534
vt 0.467116 0.043357
vt 0.467116 0.043608
vt 0.467116 0.043534
vt 0.467116 0.043357
vt 0.458309 0.032683
vt 0.458309 0.034336
vt 0.458309 0.032683
vt 0.458309 0.034336
vt 0.459962 0.032683
vt 0.459962 0.034336
vt 0.459962 0.032683
vt 0.459962 0.034336
s 1
usemtl City_05.038
f 1/1/1 9/9/1 3/3/1
f 3/3/1 9/9/1 10/10/1
f 3/3/2 10/10/2 7/7/2
f 7/7/2 10/10/2 11/11/2
f 7/7/3 11/11/3 5/5/3
f 5/5/3 11/11/3 12/12/3
f 5/5/4 12/12/4 1/1/4
f 1/1/4 12/12/4 9/9/4
f 3/3/5 7/7/5 1/1/5
f 1/1/5 7/7/5 5/5/5
f 2/2/4 6/6/4 13/13/4
f 13/13/4 6/6/4 16/16/4
f 2/2/6 4/4/6 9/9/6
f 9/9/6 4/4/6 10/10/6
f 4/4/6 8/8/6 10/10/6
f 10/10/6 8/8/6 11/11/6
f 8/8/6 6/6/6 11/11/6
f 11/11/6 6/6/6 12/12/6
f 6/6/6 2/2/6 12/12/6
f 12/12/6 2/2/6 9/9/6
f 15/15/6 14/14/6 16/16/6
f 16/16/6 14/14/6 13/13/6
f 8/8/2 4/4/2 15/15/2
f 15/15/2 4/4/2 14/14/2
f 6/6/3 8/8/3 16/16/3
f 16/16/3 8/8/3 15/15/3
f 4/4/1 2/2/1 14/14/1
f 14/14/1 2/2/1 13/13/1
f 17/17/7 18/18/7 19/19/7
f 19/19/7 18/18/7 20/20/7
f 19/19/8 20/20/8 21/21/8
f 21/21/8 20/20/8 22/22/8
f 21/21/9 22/22/9 23/23/9
f 23/23/9 22/22/9 24/24/9
f 23/23/10 24/24/10 25/25/10
f 25/25/10 24/24/10 26/26/10
f 25/25/11 26/26/11 27/27/11
f 27/27/11 26/26/11 28/28/11
f 27/27/12 28/28/12 29/29/12
f 29/29/12 28/28/12 30/30/12
f 20/20/6 18/18/6 22/22/6
f 18/18/6 32/32/6 22/22/6
f 32/32/6 30/30/6 22/22/6
f 30/30/6 28/28/6 22/22/6
f 28/28/6 26/26/6 22/22/6
f 26/26/6 24/24/6 22/22/6
f 29/29/13 30/30/13 31/31/13
f 31/31/13 30/30/13 32/32/13
f 31/31/14 32/32/14 17/17/14
f 17/17/14 32/32/14 18/18/14
f 17/17/5 19/19/5 31/31/5
f 19/19/5 21/21/5 31/31/5
f 21/21/5 23/23/5 31/31/5
f 23/23/5 25/25/5 31/31/5
f 25/25/5 27/27/5 31/31/5
f 27/27/5 29/29/5 31/31/5
f 47/47/15 70/70/15 33/33/15
f 33/33/15 70/70/15 50/50/15
f 55/55/16 58/58/16 37/37/17
f 37/37/17 58/58/16 39/39/17
f 58/58/18 61/61/18 39/39/18
f 39/39/18 61/61/18 41/41/18
f 61/61/19 64/64/19 41/41/19
f 41/41/19 64/64/19 43/43/19
f 64/64/20 67/67/20 43/43/20
f 43/43/20 67/67/20 45/45/20
f 45/45/21 67/67/21 47/47/21
f 47/47/21 67/67/21 70/70/21
f 36/36/22 34/34/22 38/38/22
f 34/34/22 48/48/22 38/38/22
f 48/48/22 46/46/22 38/38/22
f 46/46/22 44/44/22 38/38/22
f 44/44/22 42/42/22 38/38/22
f 42/42/22 40/40/22 38/38/22
f 33/33/23 50/50/23 35/35/23
f 35/35/23 50/50/23 52/52/23
f 33/33/24 35/35/24 47/47/24
f 35/35/24 37/37/24 47/47/24
f 37/37/24 39/39/24 47/47/24
f 39/39/24 41/41/24 47/47/24
f 41/41/24 43/43/24 47/47/24
f 43/43/24 45/45/24 47/47/24
f 35/35/25 52/52/26 37/37/25
f 37/37/25 52/52/26 55/55/26
f 46/46/27 48/48/27 68/68/28
f 68/68/28 48/48/27 71/71/28
f 65/65/29 44/44/30 68/68/29
f 68/68/29 44/44/30 46/46/31
f 42/42/32 44/44/32 62/62/32
f 62/62/32 44/44/32 65/65/32
f 59/59/33 40/40/33 62/62/33
f 62/62/33 40/40/33 42/42/33
f 56/56/34 38/38/34 59/59/34
f 59/59/34 38/38/34 40/40/34
f 36/36/35 38/38/35 53/53/35
f 53/53/35 38/38/35 56/56/35
f 34/34/36 36/36/36 49/49/36
f 49/49/36 36/36/36 53/53/36
f 49/49/37 51/51/37 71/71/38
f 71/71/38 51/51/37 72/72/37
f 72/72/39 51/51/39 70/70/40
f 70/70/40 51/51/39 50/50/41
f 71/71/42 72/72/43 68/68/42
f 68/68/42 72/72/43 69/69/43
f 72/72/44 70/70/44 69/69/44
f 69/69/44 70/70/44 67/67/44
f 65/65/45 68/68/45 66/66/46
f 66/66/46 68/68/45 69/69/46
f 66/66/47 69/69/47 64/64/47
f 64/64/47 69/69/47 67/67/47
f 62/62/48 65/65/49 63/63/50
f 63/63/50 65/65/49 66/66/50
f 66/66/51 64/64/52 63/63/53
f 63/63/53 64/64/52 61/61/52
f 62/62/54 63/63/54 59/59/54
f 59/59/54 63/63/54 60/60/55
f 60/60/56 63/63/57 58/58/58
f 58/58/58 63/63/57 61/61/58
f 59/59/59 60/60/59 56/56/59
f 56/56/59 60/60/59 57/57/59
f 57/57/60 60/60/60 55/55/60
f 55/55/60 60/60/60 58/58/60
f 53/53/61 56/56/61 54/54/61
f 54/54/61 56/56/61 57/57/61
f 57/57/62 55/55/62 54/54/62
f 54/54/62 55/55/62 52/52/62
f 49/49/63 53/53/63 51/51/64
f 51/51/64 53/53/63 54/54/63
f 54/54/65 52/52/66 51/51/66
f 51/51/66 52/52/66 50/50/67
f 71/71/68 48/48/68 49/49/68
f 49/49/68 48/48/68 34/34/68
f 98/102/69 77/77/69 108/114/69
f 108/114/69 77/77/69 86/90/70
f 95/99/1 79/79/1 92/96/1
f 92/96/1 79/79/1 80/80/1
f 105/111/71 97/101/71 95/99/71
f 95/99/71 97/101/71 79/79/71
f 86/90/3 77/77/3 89/93/3
f 89/93/3 77/77/3 78/78/3
f 74/74/1 73/73/1 83/85/1
f 83/85/1 73/73/1 84/87/1
f 73/73/5 74/74/5 77/77/5
f 77/77/5 74/74/5 78/78/5
f 99/103/5 76/76/5 97/101/5
f 97/101/5 76/76/5 79/79/5
f 76/76/5 75/75/5 79/79/5
f 79/79/5 75/75/5 80/80/5
f 100/104/5 73/73/5 98/102/5
f 98/102/5 73/73/5 77/77/5
f 75/75/3 76/76/3 81/82/3
f 81/82/3 76/76/3 82/84/3
f 99/103/72 74/74/72 102/108/72
f 102/108/72 74/74/72 83/85/73
f 100/104/74 75/75/74 101/105/74
f 101/105/74 75/75/74 81/82/74
f 88/92/75 85/89/75 90/94/75
f 90/94/75 85/89/75 87/91/75
f 90/94/76 87/91/76 89/93/76
f 89/93/76 87/91/76 86/90/76
f 103/109/77 88/92/78 104/110/77
f 104/110/77 88/92/78 90/94/77
f 104/110/79 90/94/79 105/111/79
f 105/111/79 90/94/79 89/93/79
f 91/95/80 94/98/80 93/97/80
f 93/97/80 94/98/80 96/100/80
f 93/97/81 96/100/81 92/96/81
f 92/96/81 96/100/81 95/99/81
f 106/112/82 91/95/83 107/113/84
f 107/113/84 91/95/83 93/97/84
f 107/113/85 93/97/85 108/114/86
f 108/114/86 93/97/85 92/96/85
f 103/109/6 94/98/6 106/112/6
f 106/112/6 94/98/6 91/95/6
f 88/92/6 103/109/6 85/89/6
f 85/89/6 103/109/6 106/112/6
f 107/113/87 108/114/87 87/91/87
f 87/91/87 108/114/87 86/90/87
f 106/112/88 107/113/89 85/89/89
f 85/89/89 107/113/89 87/91/90
f 104/110/91 105/111/92 96/100/92
f 96/100/92 105/111/92 95/99/91
f 103/109/93 104/110/94 94/98/94
f 94/98/94 104/110/94 96/100/95
f 73/73/96 100/104/97 84/87/96
f 84/87/96 100/104/97 101/105/97
f 76/76/98 99/103/98 82/84/98
f 82/84/98 99/103/98 102/108/98
f 100/104/5 98/102/5 75/75/5
f 75/75/5 98/102/5 80/80/5
f 99/103/5 97/101/5 74/74/5
f 74/74/5 97/101/5 78/78/5
f 89/93/99 78/78/99 105/111/99
f 105/111/99 78/78/99 97/101/99
f 80/80/100 98/102/100 92/96/100
f 92/96/100 98/102/100 108/114/100
f 109/115/1 110/116/1 111/117/1
f 111/117/1 110/116/1 112/118/1
f 111/117/2 112/118/2 115/121/2
f 115/121/2 112/118/2 116/122/2
f 115/121/3 116/122/3 113/119/3
f 113/119/3 116/122/3 114/120/3
f 113/119/4 114/120/4 109/115/4
f 109/115/4 114/120/4 110/116/4
f 111/117/5 115/121/5 109/115/5
f 109/115/5 115/121/5 113/119/5
f 116/122/6 112/118/6 114/120/6
f 114/120/6 112/118/6 110/116/6
usemtl City_06.001
f 101/106/5 81/81/5 102/107/5
f 102/107/5 81/81/5 82/83/5
f 84/88/5 101/106/5 83/86/5
f 83/86/5 101/106/5 102/107/5
