# Wavefront OBJ file
# Exported by Misfit Model 3D 1.3.8
# Wed Oct 28 15:54:30 2020

# 16 Vertices
v 1.438067 -0.62907 0.002189
v 1.438067 -0.62907 0.092021
v 0.267391 -1.24154 0.092021
v 0.267391 -1.24154 0.002189
v 1.446588 -1.226855 0.092021
v 1.446588 -1.226855 0.002189
v 0.258872 -0.643754 0.092021
v 0.258872 -0.643754 0.002189
v 0.002445 1.419483 0.019657
v 0.002445 1.419483 0.114467
v -1.168222 0.807013 0.114467
v -1.168222 0.807013 0.019657
v 0.010964 0.821697 0.114467
v 0.010964 0.821697 0.019657
v -1.176743 1.404798 0.114467
v -1.176743 1.404798 0.019657

# 60 Texture Coordinates
vt 0.0267 0.969
vt 0.0264 0.969
vt 0.0264 0.9679
vt 0.0267 0.969
vt 0.0264 0.9679
vt 0.0267 0.9679
vt 0.0348 0.9648
vt 0.0348 0.9659
vt 0.0343 0.9659
vt 0.0348 0.9648
vt 0.0343 0.9659
vt 0.0343 0.9648
vt 0.031 0.9704
vt 0.0307 0.9704
vt 0.0307 0.9699
vt 0.031 0.9704
vt 0.0307 0.9699
vt 0.031 0.9699
vt 0.0346 0.9693
vt 0.0346 0.9682
vt 0.035 0.9682
vt 0.0346 0.9693
vt 0.035 0.9682
vt 0.035 0.9693
vt 0.0303 0.9704
vt 0.0303 0.9699
vt 0.0307 0.9699
vt 0.0303 0.9704
vt 0.0307 0.9699
vt 0.0307 0.9704
vt 0.0253 0.969
vt 0.025 0.969
vt 0.025 0.9679
vt 0.0253 0.969
vt 0.025 0.9679
vt 0.0253 0.9679
vt 0.0262 0.9659
vt 0.0262 0.9671
vt 0.0257 0.9671
vt 0.0262 0.9659
vt 0.0257 0.9671
vt 0.0257 0.9659
vt 0.03 0.9699
vt 0.0303 0.9699
vt 0.0303 0.9704
vt 0.03 0.9699
vt 0.0303 0.9704
vt 0.03 0.9704
vt 0.0239 0.9693
vt 0.0239 0.9682
vt 0.0242 0.9682
vt 0.0239 0.9693
vt 0.0242 0.9682
vt 0.0242 0.9693
vt 0.0274 0.9699
vt 0.0274 0.9693
vt 0.0278 0.9693
vt 0.0274 0.9699
vt 0.0278 0.9693
vt 0.0278 0.9699

# 60 Vertex Normals
vn 0.012452 -0.999923 -0.0
vn 0.012452 -0.999923 -0.0
vn 0.012452 -0.999923 -0.0
vn 0.012452 -0.999923 -0.0
vn 0.012452 -0.999923 -0.0
vn 0.012452 -0.999923 -0.0
vn 0.0 0.0 1.0
vn 0.0 0.0 1.0
vn 0.0 0.0 1.0
vn 0.0 0.0 1.0
vn 0.0 0.0 1.0
vn 0.0 0.0 1.0
vn 0.999898 0.014251 -0.0
vn 0.999898 0.014251 -0.0
vn 0.999898 0.014251 -0.0
vn 0.999898 0.014251 -0.0
vn 0.999898 0.014251 -0.0
vn 0.999898 0.014251 0.0
vn -0.012452 0.999923 -0.0
vn -0.012452 0.999923 -0.0
vn -0.012452 0.999923 -0.0
vn -0.012452 0.999923 -0.0
vn -0.012452 0.999923 -0.0
vn -0.012452 0.999923 -0.0
vn -0.999898 -0.01425 -0.0
vn -0.999898 -0.01425 -0.0
vn -0.999898 -0.01425 -0.0
vn -0.999898 -0.01425 -0.0
vn -0.999898 -0.01425 -0.0
vn -0.999898 -0.01425 0.0
vn 0.012452 -0.999923 -0.0
vn 0.012452 -0.999923 -0.0
vn 0.012452 -0.999923 -0.0
vn 0.012452 -0.999923 -0.0
vn 0.012452 -0.999923 -0.0
vn 0.012452 -0.999923 0.0
vn 0.0 -0.0 1.0
vn 0.0 -0.0 1.0
vn 0.0 -0.0 1.0
vn 0.0 -0.0 1.0
vn 0.0 -0.0 1.0
vn 0.0 -0.0 1.0
vn 0.999898 0.014251 -0.0
vn 0.999898 0.014251 -0.0
vn 0.999898 0.014251 -0.0
vn 0.999898 0.014251 -0.0
vn 0.999898 0.014251 -0.0
vn 0.999898 0.014251 -0.0
vn -0.012453 0.999922 0.0
vn -0.012453 0.999922 0.0
vn -0.012453 0.999922 0.0
vn -0.012453 0.999922 0.0
vn -0.012453 0.999922 0.0
vn -0.012453 0.999922 0.0
vn -0.999898 -0.014253 0.0
vn -0.999898 -0.014253 0.0
vn -0.999898 -0.014253 0.0
vn -0.999898 -0.014253 0.0
vn -0.999898 -0.014253 0.0
vn -0.999898 -0.014253 -0.0

# 20 Ungrouped triangles

o ungrouped
g ungrouped

f 3/1/1 4/2/2 6/3/3
f 3/4/4 6/5/5 5/6/6
f 3/7/7 5/8/8 2/9/9
f 3/10/10 2/11/11 7/12/12
f 5/13/13 6/14/14 1/15/15
f 5/16/16 1/17/17 2/18/18
f 7/19/19 2/20/20 1/21/21
f 7/22/22 1/23/23 8/24/24
f 3/25/25 7/26/26 8/27/27
f 3/28/28 8/29/29 4/30/30
f 11/31/31 12/32/32 14/33/33
f 11/34/34 14/35/35 13/36/36
f 11/37/37 13/38/38 10/39/39
f 11/40/40 10/41/41 15/42/42
f 13/43/43 14/44/44 9/45/45
f 13/46/46 9/47/47 10/48/48
f 15/49/49 10/50/50 9/51/51
f 15/52/52 9/53/53 16/54/54
f 11/55/55 15/56/56 16/57/57
f 11/58/58 16/59/59 12/60/60
