# Wavefront OBJ file
# Exported by Misfit Model 3D 1.3.8
# Tue Sep 17 15:41:19 2019

# 69 Vertices
v -33.820473 5.823248 14.175399
v -33.817072 5.828054 11.175405
v -33.426224 7.784002 14.178987
v -33.422824 7.788807 11.178993
v -1.850052 2.466152 8.062555
v -5.77156 3.254661 8.059377
v -2.441428 -0.474978 8.057173
v -6.362937 0.313531 8.053995
v -5.777224 3.24665 13.059367
v -6.368602 0.305522 13.053985
v -5.972085 2.269478 11.057577
v -5.968687 2.274285 8.057583
v -6.366335 0.308725 11.053989
v 2.065796 1.669632 13.065724
v 2.07146 1.677644 8.065733
v 1.474419 -1.271495 13.060342
v 1.480083 -1.263486 8.060351
v -33.791834 5.863761 -11.111877
v -33.788434 5.868568 -14.111872
v -33.397578 7.824515 -11.10829
v -33.394181 7.829319 -14.108284
v -6.344817 0.339165 -7.945974
v -5.753439 3.280295 -7.940592
v -2.423307 -0.449343 -7.942796
v -1.831929 2.491786 -7.937414
v -5.747776 3.288304 -12.940583
v -6.339154 0.347176 -12.945965
v -1.826268 2.499797 -12.937405
v -5.950566 2.299919 -7.942386
v -5.947167 2.304725 -10.94238
v -6.341417 0.343972 -10.945968
v 2.075989 1.684053 4.065741
v -1.845522 2.472562 4.062563
v 1.484612 -1.257077 4.060359
v -2.436899 -0.468569 4.057181
v -2.427837 -0.455753 -3.942804
v -1.836462 2.485378 -3.937422
v 1.493673 -1.244261 -3.939626
v 2.085049 1.696868 -3.934244
v 0.115234 2.078308 4.064152
v 0.124296 2.091124 -3.935833
v 2.095242 1.711287 -12.934226
v 1.503868 -1.229842 -12.939608
v -0.476144 -0.862822 4.05877
v -0.467082 -0.850007 -3.941215
v -34.017595 4.842871 14.173605
v -34.014198 4.847677 11.173611
v -6.560064 -0.666846 8.052201
v -6.565727 -0.674856 13.052192
v -6.563462 -0.671653 11.052195
v 1.277295 -2.251872 13.058548
v -10.481573 0.121663 8.049023
v 1.282959 -2.243862 8.058557
v -2.638553 -1.455354 8.055379
v -6.53628 -0.633201 -12.947758
v -6.541944 -0.641211 -7.947768
v -33.98556 4.88819 -14.113666
v -6.538546 -0.636405 -10.947762
v -10.460055 0.152102 -10.95094
v 1.287487 -2.237454 4.058565
v -2.634026 -1.448946 4.055387
v -2.624963 -1.436129 -3.944598
v 1.296548 -2.224637 -3.94142
v 1.306742 -2.210218 -12.941402
v -2.61477 -1.421711 -12.94458
v -10.463454 0.147297 -7.950946
v -2.620433 -1.429719 -7.94459
v -0.673268 -1.8432 4.056976
v -0.664207 -1.830384 -3.943009

# 354 Texture Coordinates
vt 15.90625 -14.9375
vt 16.0 -15.0
vt 15.90625 -15.0
vt 15.90625 -14.9375
vt 16.0 -14.9375
vt 16.0 -15.0
vt 16.0 18.0
vt 15.90625 17.875
vt 15.90625 18.0
vt 16.0 18.0
vt 16.0 17.875
vt 15.90625 17.875
vt 16.0 -15.0
vt 15.84375 -14.90625
vt 16.0 -14.90625
vt 16.0 -15.0
vt 15.84375 -15.0
vt 15.84375 -14.90625
vt 16.0 17.875
vt 15.90625 17.0
vt 15.90625 17.875
vt 16.0 17.875
vt 16.0 17.0
vt 15.90625 17.0
vt 16.0 17.0
vt 15.9375 17.875
vt 15.9375 17.0
vt 16.0 17.0
vt 16.0 17.875
vt 15.9375 17.875
vt 16.0 17.875
vt 15.9375 17.0
vt 15.9375 17.875
vt 16.0 17.875
vt 16.0 17.0
vt 15.9375 17.0
vt 16.0 18.125
vt 15.84375 17.875
vt 15.84375 18.125
vt 16.0 18.0
vt 16.0 17.875
vt 15.84375 17.875
vt 16.0 18.125
vt 16.0 18.0
vt 15.84375 17.875
vt 16.0 17.875
vt 15.90625 18.125
vt 15.90625 17.875
vt 16.0 17.875
vt 16.0 18.125
vt 15.90625 18.125
vt 15.84375 -14.90625
vt 16.0 -15.0
vt 16.0 -14.90625
vt 15.84375 -14.90625
vt 15.84375 -15.0
vt 16.0 -15.0
vt 16.5 -14.9375
vt 16.59375 -15.0
vt 16.5 -15.0
vt 16.5 -14.9375
vt 16.59375 -14.9375
vt 16.59375 -15.0
vt 16.0 18.0
vt 15.90625 17.875
vt 16.0 17.875
vt 16.0 18.0
vt 15.90625 18.0
vt 15.90625 17.875
vt 16.65625 -15.0
vt 16.5 -14.90625
vt 16.65625 -14.90625
vt 16.65625 -15.0
vt 16.5 -15.0
vt 16.5 -14.90625
vt 16.5 18.0
vt 16.65625 17.875
vt 16.5 17.875
vt 16.5 18.0
vt 16.65625 18.0
vt 16.65625 17.875
vt 16.59375 17.875
vt 16.5 17.0
vt 16.5 17.875
vt 16.59375 17.875
vt 16.59375 17.0
vt 16.5 17.0
vt 16.0 17.0
vt 15.9375 17.875
vt 15.9375 17.0
vt 16.0 17.0
vt 16.0 17.875
vt 15.9375 17.875
vt 16.0 17.875
vt 15.9375 17.0
vt 15.9375 17.875
vt 16.0 17.875
vt 16.0 17.0
vt 15.9375 17.0
vt 16.0 18.125
vt 15.90625 18.0
vt 15.90625 18.125
vt 16.0 18.125
vt 16.0 18.0
vt 15.90625 18.0
vt 16.125 18.125
vt 16.0 18.0
vt 16.0 18.125
vt 16.125 18.125
vt 16.125 18.0
vt 16.0 18.0
vt 16.0 18.125
vt 15.90625 18.0
vt 16.0 18.0
vt 16.0 18.125
vt 15.90625 18.125
vt 15.90625 18.0
vt 16.375 -14.90625
vt 16.5 -14.90625
vt 16.5 -15.0
vt 16.125 -14.90625
vt 16.375 -14.90625
vt 16.5 -15.0
vt 16.5 -15.0
vt 16.0 -14.90625
vt 16.125 -14.90625
vt 16.5 -15.0
vt 16.0 -15.0
vt 16.0 -14.90625
vt 16.125 18.0625
vt 16.375 18.0
vt 16.125 18.0
vt 16.125 18.0625
vt 16.375 18.0625
vt 16.375 18.0
vt 16.5 18.0
vt 16.375 18.0
vt 16.375 18.125
vt 16.375 18.125
vt 16.65625 18.0
vt 16.5 18.0
vt 16.375 18.125
vt 16.65625 18.125
vt 16.65625 18.0
vt 15.90625 18.0
vt 15.90625 18.125
vt 16.0 18.125
vt 16.0 18.125
vt 15.90625 17.875
vt 15.90625 18.0
vt 16.0 18.125
vt 16.0 17.875
vt 15.90625 17.875
vt 16.0 -14.90625
vt 16.125 -15.0
vt 16.125 -14.90625
vt 16.0 -14.90625
vt 16.0 -15.0
vt 16.125 -15.0
vt 16.125 -15.0
vt 16.375 -14.90625
vt 16.125 -14.90625
vt 16.125 -15.0
vt 16.375 -15.0
vt 16.375 -14.90625
vt 16.375 -15.0
vt 16.65625 -14.90625
vt 16.375 -14.90625
vt 16.375 -15.0
vt 16.65625 -15.0
vt 16.65625 -14.90625
vt 15.90625 -15.0
vt 16.0 -15.03125
vt 15.90625 -15.03125
vt 15.90625 -15.0
vt 16.0 -15.0
vt 16.0 -15.03125
vt 16.0 -15.03125
vt 15.84375 -15.0
vt 16.0 -15.0
vt 16.0 -15.03125
vt 15.84375 -15.03125
vt 15.84375 -15.0
vt 16.03125 17.0
vt 16.0 17.875
vt 16.0 17.0
vt 16.03125 17.0
vt 16.03125 17.875
vt 16.0 17.875
vt 16.03125 17.875
vt 16.0 18.125
vt 16.0 17.875
vt 16.03125 17.875
vt 16.03125 18.125
vt 16.0 18.125
vt 16.0 17.0
vt 15.90625 17.875
vt 15.90625 17.0
vt 16.0 17.75
vt 16.0 17.875
vt 15.90625 17.875
vt 16.0 17.0
vt 16.0 17.75
vt 15.90625 17.875
vt 15.84375 -15.0
vt 16.0 -15.03125
vt 16.0 -15.0
vt 15.84375 -15.0
vt 15.84375 -15.03125
vt 16.0 -15.03125
vt 16.0 17.875
vt 15.84375 18.125
vt 15.84375 17.875
vt 16.0 18.0
vt 16.0 18.125
vt 15.84375 18.125
vt 16.0 17.875
vt 16.0 18.0
vt 15.84375 18.125
vt 16.65625 -15.03125
vt 16.5 -15.0
vt 16.65625 -15.0
vt 16.65625 -15.03125
vt 16.5 -15.03125
vt 16.5 -15.0
vt 16.5 -15.0
vt 16.59375 -15.0
vt 16.59375 -15.03125
vt 16.59375 -15.03125
vt 16.0 -15.0
vt 16.5 -15.0
vt 16.59375 -15.03125
vt 16.0 -15.03125
vt 16.0 -15.0
vt 16.03125 17.875
vt 16.0 17.0
vt 16.0 17.875
vt 16.03125 17.75
vt 16.03125 17.0
vt 16.0 17.0
vt 16.03125 17.875
vt 16.03125 17.75
vt 16.0 17.0
vt 16.03125 18.125
vt 16.0 18.0
vt 16.0 18.125
vt 16.03125 18.125
vt 16.03125 18.0
vt 16.0 18.0
vt 16.03125 18.125
vt 16.0 18.0
vt 16.03125 18.0
vt 16.03125 18.125
vt 16.0 18.125
vt 16.0 18.0
vt 16.03125 18.125
vt 16.0 17.875
vt 16.0 18.125
vt 16.03125 18.0
vt 16.03125 17.875
vt 16.0 17.875
vt 16.03125 18.125
vt 16.03125 18.0
vt 16.0 17.875
vt 16.0 17.75
vt 16.5 17.75
vt 16.5 17.875
vt 16.5 17.875
vt 16.5 18.0
vt 16.0 17.75
vt 16.0 17.875
vt 16.0 17.75
vt 16.5 18.0
vt 16.125 18.0
vt 16.0 18.0
vt 16.0 17.875
vt 16.375 18.0
vt 16.125 18.0
vt 16.0 17.875
vt 16.5 18.0
vt 16.375 18.0
vt 16.0 17.875
vt 16.5 17.75
vt 16.59375 17.875
vt 16.5 17.875
vt 16.5 17.75
vt 16.59375 17.75
vt 16.59375 17.875
vt 16.65625 18.0
vt 16.5 17.875
vt 16.65625 17.875
vt 16.65625 18.0
vt 16.5 18.0
vt 16.5 17.875
vt 16.59375 17.0
vt 16.0 17.75
vt 16.0 17.0
vt 16.5 17.75
vt 16.0 17.75
vt 16.59375 17.0
vt 16.59375 17.0
vt 16.59375 17.75
vt 16.5 17.75
vt 16.0 18.0
vt 16.125 18.125
vt 16.0 18.125
vt 16.0 18.0
vt 16.125 18.0
vt 16.125 18.125
vt 16.0 -15.0
vt 16.125 -15.03125
vt 16.125 -15.0
vt 16.0 -15.0
vt 16.0 -15.03125
vt 16.125 -15.03125
vt 16.125 -15.03125
vt 16.375 -15.0
vt 16.125 -15.0
vt 16.125 -15.03125
vt 16.375 -15.03125
vt 16.375 -15.0
vt 16.375 18.0625
vt 16.125 18.0
vt 16.375 18.0
vt 16.375 18.0625
vt 16.125 18.0625
vt 16.125 18.0
vt 16.375 -15.03125
vt 16.65625 -15.0
vt 16.375 -15.0
vt 16.375 -15.03125
vt 16.65625 -15.03125
vt 16.65625 -15.0
vt 16.5 18.0
vt 16.65625 18.0
vt 16.65625 18.125
vt 16.65625 18.125
vt 16.375 18.0
vt 16.5 18.0
vt 16.65625 18.125
vt 16.375 18.125
vt 16.375 18.0
vt 32.0 17.875
vt 32.0 18.0
vt 33.0 18.0
vt 33.0 18.0
vt 32.0 17.0
vt 32.0 17.875
vt 33.0 17.875
vt 33.0 17.0
vt 32.0 17.0
vt 33.0 18.0
vt 33.0 17.875
vt 32.0 17.0

# 354 Vertex Normals
vn -0.980378 0.197126 -0.000794
vn -0.962143 0.193809 -0.191619
vn -0.980378 0.197125 -0.000794
vn -0.980378 0.197126 -0.000794
vn -0.512867 0.104682 -0.852061
vn -0.962143 0.193809 -0.191619
vn 0.001133 0.001602 -0.999998
vn 0.001133 0.001602 -0.999998
vn 0.001133 0.001602 -0.999998
vn 0.001133 0.001602 -0.999998
vn -0.071894 0.016281 -0.997279
vn 0.001133 0.001602 -0.999998
vn -0.833885 0.168632 -0.525546
vn -0.980378 0.197127 -0.000795
vn -0.980378 0.197127 -0.000795
vn -0.833885 0.168632 -0.525546
vn -0.980377 0.197127 -0.000795
vn -0.980378 0.197127 -0.000795
vn 0.197125 0.980377 0.001794
vn 0.197125 0.980377 0.001794
vn 0.197125 0.980377 0.001794
vn 0.197125 0.980377 0.001794
vn 0.197125 0.980377 0.001794
vn 0.197125 0.980377 0.001794
vn 0.108258 -0.023586 0.993843
vn 0.108258 -0.023586 0.993843
vn 0.108258 -0.023586 0.993843
vn 0.108258 -0.023586 0.993843
vn 0.108258 -0.023586 0.993843
vn 0.108258 -0.023586 0.993843
vn -0.718246 0.145664 -0.680372
vn -0.512867 0.104682 -0.852061
vn -0.108258 0.023586 -0.993843
vn -0.718246 0.145664 -0.680372
vn -0.962143 0.193809 -0.191619
vn -0.512867 0.104682 -0.852061
vn 0.197125 0.980377 0.001794
vn 0.197126 0.980377 0.001794
vn 0.197126 0.980377 0.001794
vn 0.197125 0.980377 0.001794
vn 0.197126 0.980377 0.001794
vn 0.197126 0.980377 0.001794
vn 0.197125 0.980377 0.001794
vn 0.197125 0.980377 0.001794
vn 0.197126 0.980377 0.001794
vn -0.001133 -0.001602 0.999998
vn -0.001133 -0.001602 0.999998
vn -0.001133 -0.001602 0.999998
vn -0.001133 -0.001602 0.999998
vn -0.001133 -0.001602 0.999998
vn -0.001133 -0.001602 0.999998
vn 0.980378 -0.197127 0.000795
vn 0.980378 -0.197127 0.000794
vn 0.980378 -0.197127 0.000794
vn 0.980378 -0.197127 0.000795
vn 0.980378 -0.197126 0.000795
vn 0.980378 -0.197127 0.000794
vn -0.887534 0.177681 0.425103
vn -0.980377 0.197129 -0.000795
vn -0.835074 0.166951 0.524193
vn -0.887534 0.177681 0.425103
vn -0.980377 0.197128 -0.000795
vn -0.980377 0.197129 -0.000795
vn -0.001132 -0.001602 0.999998
vn -0.001132 -0.001602 0.999998
vn -0.055908 0.009415 0.998392
vn -0.001132 -0.001602 0.999998
vn -0.001132 -0.001602 0.999998
vn -0.001132 -0.001602 0.999998
vn -0.980377 0.197128 -0.000795
vn -0.980377 0.197128 -0.000795
vn -0.980377 0.197128 -0.000795
vn -0.980377 0.197128 -0.000795
vn -0.934249 0.187296 0.303477
vn -0.980377 0.197128 -0.000795
vn 0.197126 0.980377 0.001794
vn 0.197125 0.980377 0.001794
vn 0.197126 0.980377 0.001794
vn 0.197126 0.980377 0.001794
vn 0.197126 0.980377 0.001794
vn 0.197125 0.980377 0.001794
vn 0.197125 0.980377 0.001794
vn 0.197125 0.980377 0.001794
vn 0.197125 0.980377 0.001794
vn 0.197125 0.980377 0.001794
vn 0.197125 0.980377 0.001793
vn 0.197125 0.980377 0.001794
vn -0.835074 0.166951 0.524193
vn -0.110509 0.020402 0.993666
vn -0.887534 0.177681 0.425103
vn -0.835074 0.166951 0.524193
vn -0.826072 0.165114 0.538835
vn -0.110509 0.020402 0.993666
vn 0.110509 -0.020402 -0.993666
vn 0.110509 -0.020402 -0.993666
vn 0.110509 -0.020402 -0.993666
vn 0.110509 -0.020402 -0.993666
vn 0.047138 -0.290631 -0.955673
vn 0.110509 -0.020402 -0.993666
vn 0.001133 0.001602 -0.999998
vn 0.001133 0.001602 -0.999998
vn 0.001133 0.001602 -0.999998
vn 0.001133 0.001602 -0.999998
vn 0.001133 0.001602 -0.999998
vn 0.001133 0.001602 -0.999998
vn 0.197125 0.980377 0.001794
vn 0.197125 0.980377 0.001794
vn 0.197125 0.980377 0.001794
vn 0.197125 0.980377 0.001794
vn 0.197126 0.980377 0.001794
vn 0.197125 0.980377 0.001794
vn -0.001133 -0.001602 0.999998
vn -0.001133 -0.001602 0.999998
vn -0.001133 -0.001602 0.999998
vn -0.001133 -0.001602 0.999998
vn -0.001133 -0.001602 0.999998
vn -0.001133 -0.001602 0.999998
vn -0.980378 0.197127 -0.000795
vn -0.980377 0.197128 -0.000795
vn -0.980378 0.197127 -0.000795
vn -0.980378 0.197127 -0.000794
vn -0.980378 0.197127 -0.000795
vn -0.980378 0.197127 -0.000795
vn -0.980378 0.197127 -0.000795
vn -0.980378 0.197127 -0.000794
vn -0.980378 0.197127 -0.000794
vn -0.980378 0.197127 -0.000795
vn -0.980378 0.197127 -0.000794
vn -0.980378 0.197127 -0.000794
vn 0.197125 0.980377 0.001794
vn 0.197126 0.980377 0.001794
vn 0.197126 0.980377 0.001794
vn 0.197125 0.980377 0.001794
vn 0.197125 0.980377 0.001794
vn 0.197126 0.980377 0.001794
vn 0.197126 0.980377 0.001794
vn 0.197126 0.980377 0.001794
vn 0.197126 0.980377 0.001794
vn 0.197126 0.980377 0.001794
vn 0.197126 0.980377 0.001794
vn 0.197126 0.980377 0.001794
vn 0.197126 0.980377 0.001794
vn 0.197126 0.980377 0.001794
vn 0.197126 0.980377 0.001794
vn 0.001133 0.001602 -0.999998
vn 0.001133 0.001602 -0.999998
vn 0.001133 0.001602 -0.999998
vn 0.001133 0.001602 -0.999998
vn 0.001133 0.001602 -0.999998
vn 0.001133 0.001602 -0.999998
vn 0.001133 0.001602 -0.999998
vn 0.001133 0.001602 -0.999998
vn 0.001133 0.001602 -0.999998
vn 0.980378 -0.197127 0.000794
vn 0.980378 -0.197127 0.000794
vn 0.980378 -0.197127 0.000794
vn 0.980378 -0.197127 0.000794
vn 0.980378 -0.197127 0.000794
vn 0.980378 -0.197127 0.000794
vn 0.980378 -0.197127 0.000795
vn 0.980377 -0.197128 0.000795
vn 0.980378 -0.197128 0.000795
vn 0.980378 -0.197127 0.000795
vn 0.980378 -0.197126 0.000795
vn 0.980377 -0.197128 0.000795
vn 0.980378 -0.197127 0.000795
vn 0.980378 -0.197127 0.000795
vn 0.980378 -0.197127 0.000795
vn 0.980378 -0.197127 0.000795
vn 0.980378 -0.197127 0.000795
vn 0.980378 -0.197127 0.000795
vn -0.980378 0.197125 -0.000794
vn -0.980378 0.197125 -0.000794
vn -0.980379 0.197122 -0.000794
vn -0.980378 0.197125 -0.000794
vn -0.962143 0.193809 -0.191619
vn -0.980378 0.197125 -0.000794
vn -0.980378 0.197127 -0.000795
vn -0.980377 0.197127 -0.000795
vn -0.833885 0.168632 -0.525546
vn -0.980378 0.197127 -0.000795
vn -0.980378 0.197126 -0.000795
vn -0.980377 0.197127 -0.000795
vn 0.108258 -0.023587 0.993843
vn 0.108258 -0.023586 0.993843
vn 0.108258 -0.023586 0.993843
vn 0.108258 -0.023587 0.993843
vn 0.108258 -0.023587 0.993843
vn 0.108258 -0.023586 0.993843
vn -0.001133 -0.001601 0.999998
vn -0.001133 -0.001602 0.999998
vn -0.001133 -0.001602 0.999998
vn -0.001133 -0.001601 0.999998
vn -0.001133 -0.001602 0.999998
vn -0.001133 -0.001602 0.999998
vn -0.197125 -0.980377 -0.001794
vn -0.197126 -0.980377 -0.001794
vn -0.197125 -0.980377 -0.001794
vn -0.197125 -0.980377 -0.001794
vn -0.197126 -0.980377 -0.001794
vn -0.197126 -0.980377 -0.001794
vn -0.197125 -0.980377 -0.001794
vn -0.197125 -0.980377 -0.001794
vn -0.197126 -0.980377 -0.001794
vn 0.980378 -0.197126 0.000795
vn 0.980378 -0.197126 0.000795
vn 0.980378 -0.197127 0.000794
vn 0.980378 -0.197126 0.000795
vn 0.980378 -0.197126 0.000795
vn 0.980378 -0.197126 0.000795
vn -0.197126 -0.980377 -0.001794
vn -0.197125 -0.980377 -0.001794
vn -0.197125 -0.980377 -0.001794
vn -0.197125 -0.980377 -0.001794
vn -0.197125 -0.980377 -0.001794
vn -0.197125 -0.980377 -0.001794
vn -0.197126 -0.980377 -0.001794
vn -0.197125 -0.980377 -0.001794
vn -0.197125 -0.980377 -0.001794
vn -0.980378 0.197128 -0.000795
vn -0.934249 0.187296 0.303477
vn -0.980377 0.197128 -0.000795
vn -0.980378 0.197128 -0.000795
vn -0.980377 0.197128 -0.000795
vn -0.934249 0.187296 0.303477
vn -0.835074 0.166951 0.524193
vn -0.980377 0.197129 -0.000795
vn -0.980378 0.197127 -0.000795
vn -0.980378 0.197127 -0.000795
vn -0.962143 0.193809 -0.191619
vn -0.835074 0.166951 0.524193
vn -0.980378 0.197127 -0.000795
vn -0.980378 0.197125 -0.000794
vn -0.962143 0.193809 -0.191619
vn -0.047729 -0.591465 -0.804917
vn 0.047138 -0.290631 -0.955673
vn 0.110509 -0.020402 -0.993666
vn -0.036617 -0.593858 -0.803737
vn 0.128451 -0.024014 -0.991425
vn 0.047138 -0.290631 -0.955673
vn -0.146028 -0.903258 -0.403487
vn -0.140477 -0.904436 -0.402818
vn 0.047138 -0.290631 -0.955673
vn 0.001133 0.001602 -0.999998
vn 0.001133 0.001602 -0.999998
vn 0.001133 0.001602 -0.999998
vn 0.001133 0.001602 -0.999998
vn 0.001133 0.001602 -0.999998
vn 0.001133 0.001602 -0.999998
vn -0.001133 -0.001602 0.999998
vn -0.001133 -0.001602 0.999998
vn -0.001132 -0.001602 0.999998
vn -0.001133 -0.001602 0.999998
vn -0.001133 -0.001602 0.999998
vn -0.001133 -0.001602 0.999998
vn 0.001133 0.001602 -0.999998
vn 0.001133 0.001602 -0.999998
vn 0.001133 0.001602 -0.999998
vn 0.001132 0.001601 -0.999998
vn 0.001132 0.001602 -0.999998
vn 0.001133 0.001602 -0.999998
vn 0.001133 0.001602 -0.999998
vn 0.001132 0.001601 -0.999998
vn 0.001133 0.001602 -0.999998
vn -0.197125 -0.980377 -0.001794
vn -0.197125 -0.980377 -0.001794
vn -0.197125 -0.980377 -0.001794
vn -0.197125 -0.980377 -0.001794
vn -0.197126 -0.980377 -0.001794
vn -0.197125 -0.980377 -0.001794
vn -0.197126 -0.980377 -0.001794
vn -0.197125 -0.980377 -0.001794
vn -0.197126 -0.980377 -0.001794
vn -0.197125 -0.980377 -0.001794
vn -0.197125 -0.980377 -0.001794
vn -0.197126 -0.980377 -0.001794
vn -0.197126 -0.980377 -0.001794
vn -0.197125 -0.980377 -0.001794
vn -0.197126 -0.980377 -0.001794
vn -0.197126 -0.980377 -0.001794
vn -0.197126 -0.980377 -0.001794
vn -0.197126 -0.980377 -0.001794
vn -0.197125 -0.980377 -0.001794
vn -0.195979 -0.975088 -0.103903
vn -0.197125 -0.980377 -0.001794
vn -0.197125 -0.980377 -0.001794
vn -0.195979 -0.975088 -0.103903
vn -0.195979 -0.975088 -0.103903
vn -0.197125 -0.980377 -0.001794
vn -0.197125 -0.980377 -0.001794
vn -0.197126 -0.980377 -0.001794
vn -0.197125 -0.980377 -0.001794
vn -0.197126 -0.980377 -0.001794
vn -0.197125 -0.980377 -0.001794
vn -0.197125 -0.980377 -0.001794
vn -0.197125 -0.980377 -0.001794
vn -0.197125 -0.980377 -0.001794
vn -0.197125 -0.980377 -0.001794
vn -0.197125 -0.980377 -0.001794
vn -0.197125 -0.980377 -0.001794
vn -0.197125 -0.980377 -0.001794
vn -0.195979 -0.975088 -0.103903
vn -0.197125 -0.980377 -0.001794
vn -0.197125 -0.980377 -0.001794
vn -0.197125 -0.980377 -0.001794
vn -0.197125 -0.980377 -0.001794
vn -0.197125 -0.980377 -0.001794
vn -0.197125 -0.980377 -0.001794
vn -0.197125 -0.980377 -0.001794
vn 0.980378 -0.197127 0.000794
vn 0.980378 -0.197127 0.000794
vn 0.980378 -0.197127 0.000794
vn 0.980378 -0.197127 0.000794
vn 0.980378 -0.197126 0.000795
vn 0.980378 -0.197127 0.000794
vn 0.980378 -0.197126 0.000795
vn 0.980378 -0.197126 0.000795
vn 0.980378 -0.197127 0.000795
vn 0.980378 -0.197126 0.000795
vn 0.980378 -0.197126 0.000795
vn 0.980378 -0.197126 0.000795
vn -0.197126 -0.980377 -0.001794
vn -0.197125 -0.980377 -0.001794
vn -0.197126 -0.980377 -0.001794
vn -0.197126 -0.980377 -0.001794
vn -0.197126 -0.980377 -0.001794
vn -0.197125 -0.980377 -0.001794
vn 0.980378 -0.197127 0.000795
vn 0.980378 -0.197127 0.000795
vn 0.980378 -0.197127 0.000795
vn 0.980378 -0.197127 0.000795
vn 0.980377 -0.197128 0.000795
vn 0.980378 -0.197127 0.000795
vn -0.197126 -0.980377 -0.001794
vn -0.197125 -0.980377 -0.001794
vn -0.197125 -0.980377 -0.001794
vn -0.197125 -0.980377 -0.001794
vn -0.197126 -0.980377 -0.001794
vn -0.197126 -0.980377 -0.001794
vn -0.197125 -0.980377 -0.001794
vn -0.197125 -0.980377 -0.001794
vn -0.197126 -0.980377 -0.001794
vn 0.197126 0.980377 0.001794
vn 0.197126 0.980377 0.001794
vn 0.197126 0.980377 0.001794
vn 0.197126 0.980377 0.001794
vn 0.197125 0.980377 0.001794
vn 0.197126 0.980377 0.001794
vn 0.197125 0.980377 0.001794
vn 0.197125 0.980377 0.001794
vn 0.197125 0.980377 0.001794
vn 0.197126 0.980377 0.001794
vn 0.197125 0.980377 0.001794
vn 0.197125 0.980377 0.001794

# slot1, 114 grouped triangles

o slot1
g slot1

f 3/1/1 2/2/2 1/3/3
f 3/4/4 4/5/5 2/6/6
f 7/7/7 6/8/8 5/9/9
f 7/10/10 8/11/11 6/12/12
f 8/13/13 9/14/14 6/15/15
f 8/16/16 10/17/17 9/18/18
f 12/19/19 3/20/20 11/21/21
f 12/22/22 4/23/23 3/24/24
f 1/25/25 11/26/26 3/27/27
f 1/28/28 13/29/29 11/30/30
f 8/31/31 4/32/32 12/33/33
f 8/34/34 2/35/35 4/36/36
f 15/37/37 9/38/38 14/39/39
f 5/40/40 6/41/41 9/42/42
f 15/43/43 5/44/44 9/45/45
f 10/46/46 14/47/47 9/48/48
f 10/49/49 16/50/50 14/51/51
f 14/52/52 17/53/53 15/54/54
f 14/55/55 16/56/56 17/57/57
f 20/58/58 19/59/59 18/60/60
f 20/61/61 21/62/62 19/63/63
f 24/64/64 23/65/65 22/66/66
f 24/67/67 25/68/68 23/69/69
f 27/70/70 23/71/71 26/72/72
f 27/73/73 22/74/74 23/75/75
f 25/76/76 26/77/77 23/78/78
f 25/79/79 28/80/80 26/81/81
f 30/82/82 20/83/83 29/84/84
f 30/85/85 21/86/86 20/87/87
f 18/88/88 29/89/89 20/90/90
f 18/91/91 22/92/92 29/93/93
f 31/94/94 21/95/95 30/96/96
f 31/97/97 19/98/98 21/99/99
f 34/100/100 33/101/101 32/102/102
f 34/103/103 35/104/104 33/105/105
f 32/106/106 5/107/107 15/108/108
f 32/109/109 33/110/110 5/111/111
f 38/112/112 37/113/113 36/114/114
f 38/115/115 39/116/116 37/117/117
f 37/118/118 25/119/119 24/120/120
f 33/121/121 37/122/122 24/123/123
f 24/124/124 5/125/125 33/126/126
f 24/127/127 7/128/128 5/129/129
f 40/130/130 37/131/131 33/132/132
f 40/133/133 41/134/134 37/135/135
f 25/136/136 37/137/137 39/138/138
f 39/139/139 28/140/140 25/141/141
f 39/142/142 42/143/143 28/144/144
f 28/145/145 42/146/146 43/147/147
f 43/148/148 26/149/149 28/150/150
f 43/151/151 27/152/152 26/153/153
f 15/154/154 34/155/155 32/156/156
f 15/157/157 17/158/158 34/159/159
f 44/160/160 41/161/161 40/162/162
f 44/163/163 45/164/164 41/165/165
f 38/166/166 42/167/167 39/168/168
f 38/169/169 43/170/170 42/171/171
f 1/172/172 47/173/173 46/174/174
f 1/175/175 2/176/176 47/177/177
f 48/178/178 10/179/179 8/180/180
f 48/181/181 49/182/182 10/183/183
f 46/184/184 13/185/185 1/186/186
f 46/187/187 50/188/188 13/189/189
f 49/190/190 16/191/191 10/192/192
f 49/193/193 51/194/194 16/195/195
f 47/196/196 50/197/197 46/198/198
f 52/199/199 48/200/200 50/201/201
f 47/202/202 52/203/203 50/204/204
f 16/205/205 53/206/206 17/207/207
f 16/208/208 51/209/209 53/210/210
f 48/211/211 51/212/212 49/213/213
f 54/214/214 53/215/215 51/216/216
f 48/217/217 54/218/218 51/219/219
f 55/220/220 22/221/221 27/222/222
f 55/223/223 56/224/224 22/225/225
f 18/226/226 19/227/227 57/228/228
f 57/229/229 2/230/230 18/231/231
f 57/232/232 47/233/233 2/234/234
f 58/235/235 19/236/236 31/237/237
f 59/238/238 57/239/239 19/240/240
f 58/241/241 59/242/242 19/243/243
f 60/244/244 35/245/245 34/246/246
f 60/247/247 61/248/248 35/249/249
f 63/250/250 36/251/251 62/252/252
f 63/253/253 38/254/254 36/255/255
f 64/256/256 27/257/257 43/258/258
f 65/259/259 55/260/260 27/261/261
f 64/262/262 65/263/263 27/264/264
f 52/265/265 66/266/266 56/267/267
f 56/268/268 67/269/269 52/270/270
f 48/271/271 52/272/272 67/273/273
f 61/274/274 54/275/275 48/276/276
f 62/277/277 61/278/278 48/279/279
f 67/280/280 62/281/281 48/282/282
f 66/283/283 58/284/284 56/285/285
f 66/286/286 59/287/287 58/288/288
f 65/289/289 56/290/290 55/291/291
f 65/292/292 67/293/293 56/294/294
f 57/295/295 52/296/296 47/297/297
f 66/298/298 52/299/299 57/300/300
f 57/301/301 59/302/302 66/303/303
f 54/304/304 60/305/305 53/306/306
f 54/307/307 61/308/308 60/309/309
f 17/310/310 60/311/311 34/312/312
f 17/313/313 53/314/314 60/315/315
f 68/316/316 45/317/317 44/318/318
f 68/319/319 69/320/320 45/321/321
f 69/322/322 61/323/323 62/324/324
f 69/325/325 68/326/326 61/327/327
f 63/328/328 43/329/329 38/330/330
f 63/331/331 64/332/332 43/333/333
f 67/334/334 65/335/335 64/336/336
f 64/337/337 62/338/338 67/339/339
f 64/340/340 63/341/341 62/342/342
# slot582, 4 grouped triangles

o slot582
g slot582

f 8/343/343 7/344/344 24/345/345
f 24/346/346 2/347/347 8/348/348
f 22/349/349 18/350/350 2/351/351
f 24/352/352 22/353/353 2/354/354
