# Blender 3.4.1
# www.blender.org
mtllib coconut.mtl
o Coconut_01_LOD2
v 0.002639 0.093653 -0.095242
v 0.000000 0.000000 -0.130691
v -0.002639 -0.093653 -0.095242
v -0.025692 0.130358 0.031816
v 0.083801 0.093653 -0.045336
v 0.111547 -0.038750 -0.066380
v 0.028838 -0.130222 -0.016650
v 0.081162 0.093653 0.049906
v 0.113318 -0.032090 0.063590
v 0.056591 -0.113182 0.032673
v -0.001713 0.038750 0.129793
v 0.002639 -0.093653 0.095242
v -0.113319 0.032090 0.063590
v -0.081162 -0.093653 0.049906
v -0.081162 0.093653 -0.049906
v -0.113182 0.000000 -0.065346
v -0.083801 -0.093653 -0.045336
vn 0.0069 0.0248 -0.9997
vn 0.8413 -0.2245 -0.4917
vn -0.0222 -0.6535 -0.7566
vn 0.2050 -0.9689 -0.1389
vn 0.0459 0.6632 -0.7470
vn -0.1932 0.9475 0.2549
vn 0.6774 0.6353 -0.3709
vn 0.5011 -0.8237 0.2653
vn 0.8603 -0.1802 0.4768
vn 0.6531 0.6463 0.3946
vn -0.0206 0.2380 0.9711
vn -0.0076 -0.6302 0.7764
vn -0.6554 -0.6358 0.4076
vn -0.8524 0.1898 0.4872
vn -0.6754 -0.6557 -0.3376
vn -0.6393 0.6652 -0.3856
vn -0.8684 -0.0202 -0.4955
vt 0.219707 0.306762
vt 0.219323 0.293162
vt 0.218940 0.279561
vt 0.215592 0.312093
vt 0.231493 0.306762
vt 0.235523 0.287534
vt 0.223512 0.274250
vt 0.231110 0.306762
vt 0.235780 0.288501
vt 0.227542 0.276725
vt 0.219075 0.298789
vt 0.219707 0.279561
vt 0.202867 0.297822
vt 0.207537 0.279561
vt 0.207537 0.306762
vt 0.202887 0.293162
vt 0.207153 0.279561
s 1
usemtl TropicalEnvironment_01.033
f 2/2/1 6/6/2 3/3/3
f 3/3/3 6/6/2 7/7/4
f 1/1/5 6/6/2 2/2/1
f 1/1/5 4/4/6 5/5/7
f 6/6/2 10/10/8 7/7/4
f 5/5/7 9/9/9 6/6/2
f 5/5/7 4/4/6 8/8/10
f 8/8/10 11/11/11 9/9/9
f 7/7/4 10/10/8 12/12/12
f 7/7/4 12/12/12 14/14/13
f 11/11/11 14/14/13 12/12/12
f 11/11/11 4/4/6 13/13/14
f 7/7/4 14/14/13 17/17/15
f 13/13/14 17/17/15 14/14/13
f 4/4/6 15/15/16 13/13/14
f 15/15/16 2/2/1 16/16/17
f 15/15/16 4/4/6 1/1/5
f 7/7/4 17/17/15 3/3/3
f 16/16/17 3/3/3 17/17/15
f 1/1/5 5/5/7 6/6/2
f 6/6/2 9/9/9 10/10/8
f 5/5/7 8/8/10 9/9/9
f 10/10/8 9/9/9 12/12/12
f 9/9/9 11/11/11 12/12/12
f 8/8/10 4/4/6 11/11/11
f 11/11/11 13/13/14 14/14/13
f 13/13/14 15/15/16 16/16/17
f 13/13/14 16/16/17 17/17/15
f 15/15/16 1/1/5 2/2/1
f 16/16/17 2/2/1 3/3/3
