# Blender 3.4.1
# www.blender.org
mtllib brick1.mtl
o Brick_01_LOD0
v -0.213398 -0.119917 -0.120408
v 0.213042 -0.119917 0.120349
v 0.213042 -0.119917 -0.120408
v 0.213042 0.120840 -0.011713
v 0.213042 0.120840 0.011848
v 0.146549 0.120840 -0.001076
v 0.213042 0.104595 -0.001131
v 0.024608 0.120840 0.120349
v 0.213042 0.109334 0.120349
v 0.213042 0.120840 0.108844
v 0.033978 -0.119917 0.120349
v -0.213398 -0.100251 0.120349
v -0.213398 -0.119917 0.100683
v -0.213398 0.120840 -0.062761
v -0.213398 0.084701 -0.120408
v -0.175763 0.120840 -0.120408
v -0.194755 0.120840 0.120349
v -0.213398 0.102511 0.120349
v -0.213398 0.120840 0.090829
v 0.171734 0.120840 -0.120408
v 0.213042 0.068628 -0.120408
v 0.213042 0.120840 -0.045243
vn -0.6311 0.6572 -0.4120
vn 0.7202 0.5698 -0.3958
vn 0.1328 0.5410 0.8305
vn 0.1501 0.6171 -0.7724
vn 0.0431 0.7064 0.7064
vn -0.0561 -0.7060 0.7060
vn -0.0000 -1.0000 -0.0000
vn -0.6411 0.6520 0.4048
vn -1.0000 -0.0000 -0.0000
vn -0.0000 -0.0000 1.0000
vn -0.0000 1.0000 -0.0000
vn 1.0000 -0.0000 -0.0000
vn -0.0000 -0.0000 -1.0000
vt 0.384372 0.046787
vt 0.391096 0.040064
vt 0.391096 0.053510
vt 0.391096 0.046787
vt 0.397819 0.049822
vt 0.397819 0.050480
vt 0.398867 0.050119
vt 0.397819 0.050118
vt 0.397819 0.053692
vt 0.398000 0.053510
vt 0.397819 0.053510
vt 0.397498 0.053510
vt 0.397819 0.053189
vt 0.384682 0.053510
vt 0.391096 0.059923
vt 0.384372 0.053510
vt 0.391645 0.033341
vt 0.391645 0.060233
vt 0.384372 0.052961
vt 0.391096 0.033890
vt 0.397819 0.038454
vt 0.404542 0.048397
vt 0.396810 0.040064
vt 0.403949 0.046787
vt 0.397819 0.040657
vt 0.397819 0.059721
vt 0.404030 0.053510
vt 0.397307 0.033341
vt 0.397307 0.060233
vt 0.397819 0.034165
vt 0.404542 0.052686
vt 0.398470 0.046787
vt 0.397819 0.046136
vt 0.396361 0.046787
vt 0.397819 0.048886
s 1
usemtl TropicalEnvironment_01
f 16/25/1 15/23/1 14/21/1
f 22/35/2 21/34/2 20/33/2
f 4/5/3 6/7/3 7/8/3
f 7/8/4 6/7/4 5/6/4
f 8/10/5 9/11/5 10/13/5
f 11/14/6 12/16/6 13/19/6
f 1/1/7 3/4/7 2/3/7 11/14/7 13/19/7
f 19/30/8 18/28/8 17/26/8
f 13/20/9 12/17/9 18/28/9 19/30/9 14/21/9 15/23/9 1/2/9
f 2/3/10 9/12/10 8/9/10 17/26/10 18/29/10 12/18/10 11/15/10
f 20/32/11 16/24/11 14/22/11 19/31/11 17/27/11 8/10/11 10/13/11 5/6/11 6/7/11 4/5/11 22/35/11
f 3/4/12 21/34/12 22/35/12 4/5/12 7/8/12 5/6/12 10/13/12 9/12/12 2/3/12
f 1/2/13 15/23/13 16/25/13 20/33/13 21/34/13 3/4/13
