v -0.5 -0 -13.01127
v -0.5 -0 -11.01127
v 1.5 -0 -13.01127
v 1.5 -0 -11.01127
v 1.5 32 -11
v 1.5 32 -9
v -0.5 32 -9
v 1.5 34 -11
v 1.5 34 -8
v -0.5 32 -11
v -0.5 32 -8
v -0.5 34 -11
v -0.5 0 11.01127
v -0.5 0 13.01127
v 1.5 0 11.01127
v 1.5 0 13.01127
v 1.5 32 9
v 1.5 32 11
v -0.5 32 9
v -0.5 32 11
v -0.5 32 8
v 1.5 34 11
v -0.5 34 11
v -1.5 0 -8
v -0.5 0 -8
v -1.5 -0 -13.01127
v -1.5 34 -11
v -1.5 34 -8
v -1.5 0 13.01127
v -0.5 0 8
v -1.5 34 11
vn 0.188021 0.04794899 -0.9809939
vn 1 0 0
vn 0 -1 0
vn 1 0 0
vn 0.982405 -0 -0.18676
vn 0 -0.062728 0.998031
vn 0 -0.728947 0.6845701
vn 0.832276 0.01247271 -0.5542211
vn 1 0 0
vn 0 -1 0
vn 1 0 0
vn 0 0.7276852 -0.6859112
vn 0 -0.8427891 -0.5382441
vn 1 -0 0
vn 0 -0.9001703 -0.4355381
vn 0.4320456 0.05535487 0.9001513
vn 1 0 -0
vn 0.9711251 0.014965 0.238101
vn 0 -0.062728 -0.998031
vn 0 -1 0
vn 1 0 0
vn 1 0 0
vn 0.01407709 0.6045199 0.7964656
vn -1 0 0
vn 1 0 0
vn 0 -1 0
vn 0 0.7276852 -0.6859112
vn 0 1 0
vn 0 -1 0
vn 1 0 0
vn 0 0.488623 0.8724951
vn 0 -1 0
vn 0 -0.9711272 0.2385621
vn 0 0.062728 -0.998031
vn 1 0 0
vn 0 -0.4911469 0.8710768
vn 0.884964 0.01340617 -0.4654664
vn 0 -1 0
vn 1 0 0
vn 0 -0.728947 0.6845701
vn 1 0 -0
vn 0.08667568 0.8598859 -0.503074
vn 0 1 0
vn 0 -1 0
vn 0 -0.8427891 -0.538244
vn 1 0 0
vn 0 -1 0
vn 0 0.059052 0.998255
vn 0 -1 0
vn 1 0 0
vn 0 -1 0
vn 0 -0.06272798 -0.9980307
vn 0 -1 0
vn 0.031333 0.031333 0.999018
vn 0.9514976 0.01466274 0.3073064
vn 1 0 0
vn 0 -1 0
vn 0 1 0
vn 0 0 1
vn 0 -1 0
vn 0 -1 0
vn -1 0 0
vn 0 0.05905199 -0.9982549
vn -1 0 0
vn -1 0 0
vn 0 0.059052 0.998255
vn -1 0 0
vn 0 -1 0
vn -1 0 -0
vt 16 17
vt 31.9375 33
vt 15.90625 -14.9375
vt 15.96875 17
vt 15.90625 18
vt 15.9375 18
vt 16 18
vt 15.90625 18.0625
vt 16 18.0625
vt 15.90625 -15
vt 32 35
vt 15.90625 -15
vt 16.53125 -15
vt 33.1875 33
vt 16.53125 -14.9375
vt 16.59375 17
vt 16.53125 18
vt 16.59375 18
vt 16 18
vt 16.59375 -15
vt 33 35
vt 16.59375 18.0625
vt 16 18.0625
vt 16 17
vt 32 17
vt 15.90625 -15.03125
vt 16.03125 18.0625
vt 16 -15.03125
vt 16.59375 -15.03125
vt 33 33
vt 16.03125 18.0625
vt 15.90625 -15
vt 15.96875 -15
vt 16 17
vt 15.9375 17
vt 15.90625 17
vt 15.96875 -14.9375
vt 15.9375 17
vt 15.9375 18
vt 15.90625 18
vt 15.90625 -14.9375
vt 15.96875 18
vt 15.96875 -15
vt 31.9375 35
vt 15.9375 18.0625
vt 15.90625 -14.9375
vt 16 -14.9375
vt 16 -15
vt 32 18
vt 16 18.0625
vt 16 17
vt 16.53125 -15
vt 33.0625 33
vt 16.59375 -15
vt 16 17
vt 16.59375 -15
vt 15.9375 17
vt 16.53125 17
vt 16.59375 -14.9375
vt 15.9375 17
vt 15.9375 18
vt 16.59375 -14.9375
vt 15.9375 18
vt 16.59375 18
vt 33.1875 35
vt 16.5 -15
vt 33 18
vt 16.59375 -14.9375
vt 15.9375 18.0625
vt 16.59375 -15
vt 16 -15.03125
vt 32 33
vt 16 -15
vt 15.90625 17
vt 16.03125 17
vt 15.90625 18.0625
vt 15.90625 -15.03125
vt 16 18.0625
vt 16.03125 17
vt 16.59375 17
vt 16.5 -15
vt 33 17
vt 16.59375 -15.03125
vt 16.59375 18.0625
g slot8
f 3/3/3 2/33/33 1/32/32
f 3/3/3 4/37/36 2/33/33
f 6/42/39 3/36/35 5/5/5
f 6/42/39 4/4/4 3/36/35
f 7/7/7 4/38/36 6/6/6
f 7/7/7 2/34/33 4/38/36
f 9/9/9 5/40/37 8/8/8
f 9/9/9 18/18/18 5/40/37
f 7/43/40 10/10/10 5/41/38
f 5/41/38 11/48/44 7/43/40
f 5/41/38 18/62/53 11/48/44
f 5/39/37 3/35/34 1/1/1
f 1/1/1 8/45/8 5/39/37
f 1/1/1 12/50/12 8/45/42
f 28/28/28 23/70/23 9/47/43
f 8/46/42 12/12/12 9/47/43
f 15/15/15 14/54/47 13/52/45
f 15/15/15 16/59/51 14/54/47
f 18/64/55 15/58/50 17/17/17
f 18/64/55 16/16/16 15/58/50
f 13/51/45 17/61/52 15/57/15
f 13/51/45 19/19/19 17/61/52
f 28/28/28 31/83/31 23/70/23
f 21/66/57 11/48/44 18/62/53
f 20/20/20 21/66/57 18/62/53
f 29/80/67 28/78/65 24/24/24
f 9/9/9 22/22/22 18/18/18
f 18/63/54 22/69/59 23/23/23
f 23/23/23 16/60/16 18/63/55
f 23/23/23 14/55/48 16/60/16
f 29/80/67 31/84/69 28/78/65
f 9/47/43 23/70/23 22/68/58
f 2/33/33 25/73/61 24/71/60
f 24/71/60 1/32/32 2/33/33
f 24/71/60 26/26/26 1/32/32
f 26/75/63 12/50/12 1/1/1
f 26/75/63 27/27/27 12/50/12
f 12/12/12 28/28/28 9/47/43
f 12/12/12 27/77/27 28/28/28
f 24/24/24 27/76/64 26/74/62
f 24/24/24 28/78/65 27/76/64
f 13/13/13 14/56/49 29/29/29
f 30/81/68 13/13/13 29/29/29
f 29/29/29 25/73/61 30/81/68
f 29/29/29 24/71/60 25/73/61
f 31/31/31 14/55/48 23/23/23
f 31/31/31 29/79/66 14/55/48
g slot137
f 13/53/46 30/30/30 20/65/56
f 11/11/11 25/72/25 2/2/2
f 20/65/56 30/30/30 21/21/21
f 20/65/56 14/14/14 13/53/46
f 11/11/11 2/2/2 7/44/41
g slot258
f 21/67/21 25/25/25 11/49/11
f 21/67/21 30/82/30 25/25/25
