# Wavefront OBJ file
# Exported by Misfit Model 3D 1.3.8
# Tue Mar 04 13:29:33 2014

mtllib tris.mtl

# 80 Vertices
v 1.687872 -2.454744 1.643836
v 1.687872 -2.454744 -1.643836
v 1.276913 -2.454744 1.643836
v 1.276913 -2.454744 -1.643836
v 1.276913 -2.454744 -1.232877
v 1.276913 -2.454744 1.232877
v 1.687872 -1.632826 -1.643836
v -1.599799 -2.454744 -1.643836
v -1.599799 -1.632826 -1.643836
v 2.50979 -1.632826 -1.643836
v 2.50979 -1.632826 1.643836
v 1.687872 -1.632826 1.643836
v 2.50979 1.654845 -1.643836
v 2.50979 -1.221867 -1.643836
v 2.50979 1.654845 -1.232877
v 2.50979 -1.221867 -1.232877
v 2.50979 1.243886 -1.232877
v -1.599799 -1.632826 -2.465753
v 1.687872 -1.632826 -2.465753
v -1.599799 -1.221867 -2.465753
v 1.687872 -1.221867 -2.465753
v 1.276913 -1.221867 -2.465753
v -1.18884 -1.221867 -2.465753
v 1.687872 1.654845 -1.643836
v 1.687872 1.654845 -2.465753
v -1.599799 -1.632826 1.643836
v -1.599799 -2.454744 1.643836
v 2.50979 -1.221867 1.643836
v 2.50979 -1.221867 1.232877
v 2.50979 1.654845 1.643836
v 2.50979 1.654845 1.232877
v 2.50979 1.243886 1.232877
v 1.687872 -1.632826 2.465753
v -1.599799 -1.632826 2.465753
v 1.687872 -1.221867 2.465753
v -1.599799 -1.221867 2.465753
v -1.18884 -1.221867 2.465753
v 1.276913 -1.221867 2.465753
v 1.687872 1.654845 1.643836
v 1.687872 1.654845 2.465753
v -1.599799 -2.454744 -1.232877
v -1.18884 -2.454744 -1.232877
v -1.18884 -2.454744 1.232877
v -1.599799 -2.454744 1.232877
v -1.599799 1.243886 -2.465753
v -1.599799 1.654845 -2.465753
v -1.599799 1.654845 -1.643836
v -2.421717 -1.632826 -1.643836
v -2.421717 -1.632826 1.643836
v -2.421717 -1.221867 -1.643836
v -2.421717 1.654845 -1.643836
v -2.421717 -1.221867 -1.232877
v -2.421717 1.654845 -1.232877
v -2.421717 1.243886 -1.232877
v -1.599799 1.654845 1.643836
v -1.599799 1.654845 2.465753
v -1.599799 1.243886 2.465753
v -2.421717 -1.221867 1.643836
v -2.421717 -1.221867 1.232877
v -2.421717 1.243886 1.232877
v -2.421717 1.654845 1.232877
v -2.421717 1.654845 1.643836
v 1.276913 1.654845 -2.465753
v 1.276913 1.243886 -2.465753
v -1.18884 1.243886 -2.465753
v 1.687872 2.476763 -1.643836
v 1.276913 2.476763 -1.643836
v -1.599799 2.476763 -1.643836
v 1.687872 2.476763 1.643836
v 1.276913 2.476763 1.643836
v 1.276913 2.476763 1.232877
v 1.276913 2.476763 -1.232877
v 1.276913 1.654845 2.465753
v 1.276913 1.243886 2.465753
v -1.18884 1.243886 2.465753
v -1.599799 2.476763 1.643836
v -1.18884 2.476763 1.643836
v -1.599799 2.476763 -1.232877
v -1.18884 2.476763 -1.232877
v -1.18884 2.476763 1.232877

# 468 Texture Coordinates
vt 4080.0 -4247.0
vt 4016.0 -4239.0
vt 4080.0 -4239.0
vt 4024.0 -4247.0
vt 4016.0 -4247.0
vt 4016.0 -4239.0
vt 4072.0 -4247.0
vt 4024.0 -4247.0
vt 4016.0 -4239.0
vt 4080.0 -4247.0
vt 4072.0 -4247.0
vt 4016.0 -4239.0
vt 4240.0 4113.0
vt 4240.0 4097.0
vt 4248.0 4097.0
vt 4248.0 4097.0
vt 4304.0 4097.0
vt 4240.0 4113.0
vt 4304.0 4097.0
vt 4304.0 4113.0
vt 4240.0 4113.0
vt 4080.0 -4223.0
vt 4016.0 -4239.0
vt 4016.0 -4223.0
vt 4080.0 -4223.0
vt 4080.0 -4239.0
vt 4016.0 -4239.0
vt 4024.0 4177.0
vt 4016.0 4121.0
vt 4016.0 4177.0
vt 4024.0 4169.0
vt 4024.0 4121.0
vt 4016.0 4121.0
vt 4024.0 4177.0
vt 4024.0 4169.0
vt 4016.0 4121.0
vt 4304.0 4121.0
vt 4240.0 4113.0
vt 4304.0 4113.0
vt 4248.0 4121.0
vt 4240.0 4121.0
vt 4240.0 4113.0
vt 4296.0 4121.0
vt 4248.0 4121.0
vt 4240.0 4113.0
vt 4304.0 4121.0
vt 4296.0 4121.0
vt 4240.0 4113.0
vt 4000.0 4121.0
vt 4000.0 4177.0
vt 4016.0 4177.0
vt 4016.0 4177.0
vt 4000.0 4113.0
vt 4000.0 4121.0
vt 4016.0 4177.0
vt 4016.0 4113.0
vt 4000.0 4113.0
vt 4080.0 4113.0
vt 4016.0 4097.0
vt 4016.0 4113.0
vt 4080.0 4113.0
vt 4080.0 4097.0
vt 4016.0 4097.0
vt 4304.0 4113.0
vt 4240.0 4097.0
vt 4240.0 4113.0
vt 4248.0 4097.0
vt 4240.0 4097.0
vt 4304.0 4113.0
vt 4304.0 4113.0
vt 4304.0 4097.0
vt 4248.0 4097.0
vt 4016.0 4121.0
vt 4080.0 4113.0
vt 4016.0 4113.0
vt 4072.0 4121.0
vt 4080.0 4121.0
vt 4080.0 4113.0
vt 4024.0 4121.0
vt 4072.0 4121.0
vt 4080.0 4113.0
vt 4016.0 4121.0
vt 4024.0 4121.0
vt 4080.0 4113.0
vt 4072.0 4169.0
vt 4072.0 4177.0
vt 4080.0 4177.0
vt 4080.0 4177.0
vt 4072.0 4121.0
vt 4072.0 4169.0
vt 4080.0 4177.0
vt 4080.0 4121.0
vt 4072.0 4121.0
vt 4240.0 4121.0
vt 4304.0 4113.0
vt 4240.0 4113.0
vt 4296.0 4121.0
vt 4304.0 4121.0
vt 4304.0 4113.0
vt 4248.0 4121.0
vt 4296.0 4121.0
vt 4304.0 4113.0
vt 4240.0 4121.0
vt 4248.0 4121.0
vt 4304.0 4113.0
vt 4096.0 4177.0
vt 4080.0 4113.0
vt 4080.0 4177.0
vt 4096.0 4121.0
vt 4096.0 4113.0
vt 4080.0 4113.0
vt 4096.0 4177.0
vt 4096.0 4121.0
vt 4080.0 4113.0
vt 4024.0 -4247.0
vt 4016.0 -4303.0
vt 4016.0 -4247.0
vt 4024.0 -4295.0
vt 4024.0 -4303.0
vt 4016.0 -4303.0
vt 4024.0 -4247.0
vt 4024.0 -4295.0
vt 4016.0 -4303.0
vt 4072.0 -4303.0
vt 4024.0 -4295.0
vt 4072.0 -4295.0
vt 4072.0 -4303.0
vt 4024.0 -4303.0
vt 4024.0 -4295.0
vt 4016.0 -4239.0
vt 4000.0 -4303.0
vt 4000.0 -4239.0
vt 4016.0 -4239.0
vt 4016.0 -4303.0
vt 4000.0 -4303.0
vt 4000.0 4121.0
vt 4000.0 4113.0
vt 4016.0 4113.0
vt 4000.0 4169.0
vt 4000.0 4121.0
vt 4016.0 4113.0
vt 4016.0 4113.0
vt 4000.0 4177.0
vt 4000.0 4169.0
vt 4016.0 4113.0
vt 4016.0 4177.0
vt 4000.0 4177.0
vt 4080.0 -4303.0
vt 4016.0 -4319.0
vt 4016.0 -4303.0
vt 4080.0 -4303.0
vt 4080.0 -4319.0
vt 4016.0 -4319.0
vt 4024.0 4121.0
vt 4016.0 4177.0
vt 4016.0 4121.0
vt 4024.0 4169.0
vt 4024.0 4177.0
vt 4016.0 4177.0
vt 4024.0 4121.0
vt 4024.0 4169.0
vt 4016.0 4177.0
vt 4016.0 4113.0
vt 4016.0 4097.0
vt 4024.0 4097.0
vt 4072.0 4097.0
vt 4080.0 4097.0
vt 4016.0 4113.0
vt 4024.0 4097.0
vt 4072.0 4097.0
vt 4016.0 4113.0
vt 4080.0 4097.0
vt 4080.0 4113.0
vt 4016.0 4113.0
vt 4072.0 -4295.0
vt 4072.0 -4247.0
vt 4080.0 -4247.0
vt 4080.0 -4247.0
vt 4072.0 -4303.0
vt 4072.0 -4295.0
vt 4080.0 -4247.0
vt 4080.0 -4303.0
vt 4072.0 -4303.0
vt 4096.0 -4239.0
vt 4080.0 -4303.0
vt 4080.0 -4239.0
vt 4096.0 -4239.0
vt 4096.0 -4303.0
vt 4080.0 -4303.0
vt 4096.0 4113.0
vt 4080.0 4177.0
vt 4080.0 4113.0
vt 4096.0 4169.0
vt 4096.0 4177.0
vt 4080.0 4177.0
vt 4096.0 4121.0
vt 4096.0 4169.0
vt 4080.0 4177.0
vt 4096.0 4113.0
vt 4096.0 4121.0
vt 4080.0 4177.0
vt 4080.0 4121.0
vt 4016.0 4113.0
vt 4080.0 4113.0
vt 4024.0 4121.0
vt 4016.0 4121.0
vt 4016.0 4113.0
vt 4072.0 4121.0
vt 4024.0 4121.0
vt 4016.0 4113.0
vt 4080.0 4121.0
vt 4072.0 4121.0
vt 4016.0 4113.0
vt 4072.0 4169.0
vt 4072.0 4121.0
vt 4080.0 4121.0
vt 4080.0 4121.0
vt 4072.0 4177.0
vt 4072.0 4169.0
vt 4080.0 4121.0
vt 4080.0 4177.0
vt 4072.0 4177.0
vt 4224.0 4121.0
vt 4224.0 4113.0
vt 4240.0 4113.0
vt 4240.0 4113.0
vt 4224.0 4177.0
vt 4224.0 4121.0
vt 4240.0 4113.0
vt 4240.0 4177.0
vt 4224.0 4177.0
vt 4080.0 -4239.0
vt 4016.0 -4223.0
vt 4016.0 -4239.0
vt 4024.0 -4223.0
vt 4016.0 -4223.0
vt 4080.0 -4239.0
vt 4072.0 -4223.0
vt 4024.0 -4223.0
vt 4080.0 -4239.0
vt 4080.0 -4239.0
vt 4080.0 -4223.0
vt 4072.0 -4223.0
vt 4248.0 4121.0
vt 4240.0 4177.0
vt 4240.0 4121.0
vt 4248.0 4169.0
vt 4248.0 4177.0
vt 4240.0 4177.0
vt 4248.0 4121.0
vt 4248.0 4169.0
vt 4240.0 4177.0
vt 4296.0 4169.0
vt 4304.0 4169.0
vt 4304.0 4177.0
vt 4304.0 4177.0
vt 4248.0 4169.0
vt 4296.0 4169.0
vt 4304.0 4177.0
vt 4248.0 4177.0
vt 4248.0 4169.0
vt 4304.0 4177.0
vt 4240.0 4193.0
vt 4240.0 4177.0
vt 4248.0 4193.0
vt 4240.0 4193.0
vt 4304.0 4177.0
vt 4304.0 4177.0
vt 4304.0 4193.0
vt 4248.0 4193.0
vt 4016.0 -4247.0
vt 4080.0 -4239.0
vt 4016.0 -4239.0
vt 4072.0 -4247.0
vt 4080.0 -4247.0
vt 4080.0 -4239.0
vt 4024.0 -4247.0
vt 4072.0 -4247.0
vt 4080.0 -4239.0
vt 4016.0 -4247.0
vt 4024.0 -4247.0
vt 4080.0 -4239.0
vt 4024.0 4177.0
vt 4072.0 4169.0
vt 4024.0 4169.0
vt 4024.0 4177.0
vt 4072.0 4177.0
vt 4072.0 4169.0
vt 4224.0 4121.0
vt 4224.0 4177.0
vt 4240.0 4177.0
vt 4240.0 4177.0
vt 4224.0 4113.0
vt 4224.0 4121.0
vt 4240.0 4177.0
vt 4240.0 4113.0
vt 4224.0 4113.0
vt 4248.0 4177.0
vt 4240.0 4121.0
vt 4240.0 4177.0
vt 4248.0 4169.0
vt 4248.0 4121.0
vt 4240.0 4121.0
vt 4248.0 4177.0
vt 4248.0 4169.0
vt 4240.0 4121.0
vt 4296.0 4169.0
vt 4248.0 4169.0
vt 4248.0 4177.0
vt 4248.0 4177.0
vt 4304.0 4169.0
vt 4296.0 4169.0
vt 4248.0 4177.0
vt 4304.0 4177.0
vt 4304.0 4169.0
vt 4080.0 4193.0
vt 4016.0 4177.0
vt 4016.0 4193.0
vt 4080.0 4193.0
vt 4080.0 4177.0
vt 4016.0 4177.0
vt 4240.0 4177.0
vt 4240.0 4193.0
vt 4248.0 4193.0
vt 4296.0 4193.0
vt 4304.0 4193.0
vt 4240.0 4177.0
vt 4248.0 4193.0
vt 4296.0 4193.0
vt 4240.0 4177.0
vt 4304.0 4193.0
vt 4304.0 4177.0
vt 4240.0 4177.0
vt 4304.0 4121.0
vt 4296.0 4169.0
vt 4296.0 4121.0
vt 4304.0 4121.0
vt 4304.0 4169.0
vt 4296.0 4169.0
vt 4000.0 -4247.0
vt 4000.0 -4303.0
vt 4016.0 -4303.0
vt 4016.0 -4303.0
vt 4000.0 -4239.0
vt 4000.0 -4247.0
vt 4016.0 -4303.0
vt 4016.0 -4239.0
vt 4000.0 -4239.0
vt 4320.0 4113.0
vt 4304.0 4177.0
vt 4304.0 4113.0
vt 4320.0 4121.0
vt 4320.0 4177.0
vt 4304.0 4177.0
vt 4320.0 4113.0
vt 4320.0 4121.0
vt 4304.0 4177.0
vt 4016.0 -4303.0
vt 4016.0 -4319.0
vt 4024.0 -4319.0
vt 4072.0 -4319.0
vt 4080.0 -4319.0
vt 4016.0 -4303.0
vt 4024.0 -4319.0
vt 4072.0 -4319.0
vt 4016.0 -4303.0
vt 4080.0 -4319.0
vt 4080.0 -4303.0
vt 4016.0 -4303.0
vt 4024.0 -4303.0
vt 4016.0 -4247.0
vt 4016.0 -4303.0
vt 4024.0 -4295.0
vt 4024.0 -4247.0
vt 4016.0 -4247.0
vt 4024.0 -4303.0
vt 4024.0 -4295.0
vt 4016.0 -4247.0
vt 4072.0 -4295.0
vt 4024.0 -4295.0
vt 4024.0 -4303.0
vt 4024.0 -4303.0
vt 4080.0 -4295.0
vt 4072.0 -4295.0
vt 4024.0 -4303.0
vt 4080.0 -4303.0
vt 4080.0 -4295.0
vt 4304.0 4169.0
vt 4296.0 4121.0
vt 4296.0 4169.0
vt 4304.0 4169.0
vt 4304.0 4121.0
vt 4296.0 4121.0
vt 4096.0 -4303.0
vt 4080.0 -4239.0
vt 4080.0 -4303.0
vt 4096.0 -4247.0
vt 4096.0 -4239.0
vt 4080.0 -4239.0
vt 4096.0 -4303.0
vt 4096.0 -4247.0
vt 4080.0 -4239.0
vt 4320.0 4177.0
vt 4304.0 4113.0
vt 4304.0 4177.0
vt 4320.0 4121.0
vt 4320.0 4113.0
vt 4304.0 4113.0
vt 4320.0 4177.0
vt 4320.0 4121.0
vt 4304.0 4113.0
vt 4072.0 4177.0
vt 4024.0 4169.0
vt 4072.0 4169.0
vt 4072.0 4177.0
vt 4024.0 4177.0
vt 4024.0 4169.0
vt 4080.0 4177.0
vt 4016.0 4193.0
vt 4016.0 4177.0
vt 4024.0 4193.0
vt 4016.0 4193.0
vt 4080.0 4177.0
vt 4080.0 4177.0
vt 4080.0 4193.0
vt 4024.0 4193.0
vt 4080.0 -4295.0
vt 4072.0 -4247.0
vt 4072.0 -4295.0
vt 4080.0 -4295.0
vt 4080.0 -4247.0
vt 4072.0 -4247.0
vt 4024.0 4169.0
vt 4072.0 4121.0
vt 4024.0 4121.0
vt 4024.0 4169.0
vt 4072.0 4169.0
vt 4072.0 4121.0
vt 4072.0 -4295.0
vt 4024.0 -4247.0
vt 4072.0 -4247.0
vt 4072.0 -4295.0
vt 4024.0 -4295.0
vt 4024.0 -4247.0
vt 4072.0 4169.0
vt 4024.0 4121.0
vt 4072.0 4121.0
vt 4072.0 4169.0
vt 4024.0 4169.0
vt 4024.0 4121.0
vt 4296.0 4121.0
vt 4248.0 4169.0
vt 4248.0 4121.0
vt 4296.0 4121.0
vt 4296.0 4169.0
vt 4248.0 4169.0
vt 4296.0 4169.0
vt 4248.0 4121.0
vt 4248.0 4169.0
vt 4296.0 4169.0
vt 4296.0 4121.0
vt 4248.0 4121.0
vt 4024.0 -4295.0
vt 4072.0 -4247.0
vt 4024.0 -4247.0
vt 4024.0 -4295.0
vt 4072.0 -4295.0
vt 4072.0 -4247.0

# 468 Vertex Normals
vn -0.0 -1.0 0.0
vn 0.0 -1.0 0.0
vn -0.0 -1.0 0.0
vn 0.0 -1.0 0.0
vn 0.0 -1.0 0.0
vn 0.0 -1.0 0.0
vn 0.0 -1.0 0.0
vn 0.0 -1.0 0.0
vn 0.0 -1.0 0.0
vn -0.0 -1.0 0.0
vn 0.0 -1.0 0.0
vn 0.0 -1.0 0.0
vn 0.0 -0.0 -1.0
vn 0.0 0.0 -1.0
vn 0.0 -0.0 -1.0
vn 0.0 -0.0 -1.0
vn 0.0 -0.0 -1.0
vn 0.0 -0.0 -1.0
vn 0.0 -0.0 -1.0
vn 0.0 0.0 -1.0
vn 0.0 -0.0 -1.0
vn 0.0 -1.0 0.0
vn 0.0 -1.0 0.0
vn 0.0 -1.0 0.0
vn 0.0 -1.0 0.0
vn -0.0 -1.0 0.0
vn 0.0 -1.0 0.0
vn 1.0 0.0 -0.0
vn 1.0 0.0 -0.0
vn 1.0 0.0 -0.0
vn 1.0 0.0 -0.0
vn 1.0 0.0 -0.0
vn 1.0 0.0 -0.0
vn 1.0 0.0 -0.0
vn 1.0 0.0 -0.0
vn 1.0 0.0 -0.0
vn 0.0 0.0 -1.0
vn 0.0 0.0 -1.0
vn 0.0 -0.0 -1.0
vn 0.0 0.0 -1.0
vn 0.0 0.0 -1.0
vn 0.0 0.0 -1.0
vn 0.0 0.0 -1.0
vn 0.0 0.0 -1.0
vn 0.0 0.0 -1.0
vn 0.0 0.0 -1.0
vn 0.0 0.0 -1.0
vn 0.0 0.0 -1.0
vn 1.0 0.0 -0.0
vn 1.0 0.0 0.0
vn 1.0 0.0 -0.0
vn 1.0 0.0 -0.0
vn 1.0 0.0 -0.0
vn 1.0 0.0 -0.0
vn 1.0 0.0 -0.0
vn 1.0 0.0 -0.0
vn 1.0 0.0 -0.0
vn 1.0 0.0 -0.0
vn 1.0 0.0 -0.0
vn 1.0 0.0 -0.0
vn 1.0 0.0 -0.0
vn 1.0 0.0 -0.0
vn 1.0 0.0 -0.0
vn 0.0 -0.0 1.0
vn 0.0 -0.0 1.0
vn 0.0 0.0 1.0
vn 0.0 -0.0 1.0
vn 0.0 -0.0 1.0
vn 0.0 -0.0 1.0
vn 0.0 -0.0 1.0
vn 0.0 0.0 1.0
vn 0.0 -0.0 1.0
vn 1.0 0.0 -0.0
vn 1.0 0.0 -0.0
vn 1.0 0.0 0.0
vn 1.0 0.0 -0.0
vn 1.0 0.0 -0.0
vn 1.0 0.0 -0.0
vn 1.0 0.0 -0.0
vn 1.0 0.0 -0.0
vn 1.0 0.0 -0.0
vn 1.0 0.0 -0.0
vn 1.0 0.0 -0.0
vn 1.0 0.0 -0.0
vn 1.0 0.0 0.0
vn 1.0 0.0 -0.0
vn 1.0 0.0 -0.0
vn 1.0 0.0 -0.0
vn 1.0 0.0 -0.0
vn 1.0 0.0 0.0
vn 1.0 0.0 -0.0
vn 1.0 0.0 -0.0
vn 1.0 0.0 -0.0
vn 0.0 0.0 1.0
vn 0.0 0.0 1.0
vn 0.0 -0.0 1.0
vn 0.0 0.0 1.0
vn 0.0 0.0 1.0
vn 0.0 0.0 1.0
vn 0.0 0.0 1.0
vn 0.0 0.0 1.0
vn 0.0 0.0 1.0
vn 0.0 0.0 1.0
vn 0.0 0.0 1.0
vn 0.0 0.0 1.0
vn 1.0 0.0 -0.0
vn 1.0 0.0 -0.0
vn 1.0 0.0 -0.0
vn 1.0 0.0 -0.0
vn 1.0 0.0 0.0
vn 1.0 0.0 -0.0
vn 1.0 0.0 -0.0
vn 1.0 0.0 -0.0
vn 1.0 0.0 -0.0
vn 0.0 -1.0 0.0
vn -0.0 -1.0 0.0
vn 0.0 -1.0 0.0
vn 0.0 -1.0 0.0
vn 0.0 -1.0 0.0
vn -0.0 -1.0 0.0
vn 0.0 -1.0 0.0
vn 0.0 -1.0 0.0
vn -0.0 -1.0 0.0
vn 0.0 -1.0 0.0
vn 0.0 -1.0 0.0
vn 0.0 -1.0 0.0
vn 0.0 -1.0 0.0
vn 0.0 -1.0 0.0
vn 0.0 -1.0 0.0
vn 0.0 -1.0 0.0
vn 0.0 -1.0 0.0
vn -0.0 -1.0 0.0
vn 0.0 -1.0 0.0
vn 0.0 -1.0 0.0
vn 0.0 -1.0 0.0
vn -1.0 0.0 -0.0
vn -1.0 0.0 -0.0
vn -1.0 0.0 -0.0
vn -1.0 0.0 0.0
vn -1.0 0.0 -0.0
vn -1.0 0.0 -0.0
vn -1.0 0.0 -0.0
vn -1.0 0.0 -0.0
vn -1.0 0.0 0.0
vn -1.0 0.0 -0.0
vn -1.0 0.0 0.0
vn -1.0 0.0 -0.0
vn 0.0 -1.0 0.0
vn 0.0 -1.0 0.0
vn 0.0 -1.0 0.0
vn 0.0 -1.0 0.0
vn -0.0 -1.0 0.0
vn 0.0 -1.0 0.0
vn -1.0 0.0 0.0
vn -1.0 0.0 0.0
vn -1.0 0.0 0.0
vn -1.0 0.0 0.0
vn -1.0 0.0 0.0
vn -1.0 0.0 0.0
vn -1.0 0.0 0.0
vn -1.0 0.0 0.0
vn -1.0 0.0 0.0
vn -1.0 0.0 -0.0
vn -1.0 0.0 -0.0
vn -1.0 0.0 -0.0
vn -1.0 0.0 -0.0
vn -1.0 0.0 -0.0
vn -1.0 0.0 -0.0
vn -1.0 0.0 -0.0
vn -1.0 0.0 -0.0
vn -1.0 0.0 -0.0
vn -1.0 0.0 -0.0
vn -1.0 0.0 0.0
vn -1.0 0.0 -0.0
vn 0.0 -1.0 0.0
vn 0.0 -1.0 0.0
vn -0.0 -1.0 0.0
vn -0.0 -1.0 0.0
vn 0.0 -1.0 0.0
vn 0.0 -1.0 0.0
vn -0.0 -1.0 0.0
vn -0.0 -1.0 0.0
vn 0.0 -1.0 0.0
vn 0.0 -1.0 0.0
vn 0.0 -1.0 0.0
vn -0.0 -1.0 0.0
vn 0.0 -1.0 0.0
vn 0.0 -1.0 0.0
vn 0.0 -1.0 0.0
vn -1.0 0.0 0.0
vn -1.0 0.0 0.0
vn -1.0 0.0 0.0
vn -1.0 0.0 0.0
vn -1.0 0.0 0.0
vn -1.0 0.0 0.0
vn -1.0 0.0 0.0
vn -1.0 0.0 0.0
vn -1.0 0.0 0.0
vn -1.0 0.0 0.0
vn -1.0 0.0 0.0
vn -1.0 0.0 0.0
vn -1.0 0.0 -0.0
vn -1.0 0.0 0.0
vn -1.0 0.0 -0.0
vn -1.0 0.0 0.0
vn -1.0 0.0 0.0
vn -1.0 0.0 0.0
vn -1.0 0.0 0.0
vn -1.0 0.0 0.0
vn -1.0 0.0 0.0
vn -1.0 0.0 -0.0
vn -1.0 0.0 0.0
vn -1.0 0.0 0.0
vn -1.0 0.0 -0.0
vn -1.0 0.0 0.0
vn -1.0 0.0 -0.0
vn -1.0 0.0 -0.0
vn -1.0 0.0 -0.0
vn -1.0 0.0 -0.0
vn -1.0 0.0 -0.0
vn -1.0 0.0 -0.0
vn -1.0 0.0 -0.0
vn 0.0 0.0 -1.0
vn 0.0 0.0 -1.0
vn 0.0 -0.0 -1.0
vn 0.0 -0.0 -1.0
vn 0.0 0.0 -1.0
vn 0.0 0.0 -1.0
vn 0.0 -0.0 -1.0
vn 0.0 -0.0 -1.0
vn 0.0 0.0 -1.0
vn -0.0 1.0 0.0
vn -0.0 1.0 0.0
vn -0.0 1.0 0.0
vn -0.0 1.0 0.0
vn -0.0 1.0 0.0
vn -0.0 1.0 0.0
vn -0.0 1.0 0.0
vn -0.0 1.0 0.0
vn -0.0 1.0 0.0
vn -0.0 1.0 0.0
vn -0.0 1.0 0.0
vn -0.0 1.0 0.0
vn 0.0 0.0 -1.0
vn 0.0 0.0 -1.0
vn 0.0 0.0 -1.0
vn 0.0 -0.0 -1.0
vn 0.0 -0.0 -1.0
vn 0.0 0.0 -1.0
vn 0.0 0.0 -1.0
vn 0.0 -0.0 -1.0
vn 0.0 0.0 -1.0
vn 0.0 -0.0 -1.0
vn 0.0 -0.0 -1.0
vn 0.0 -0.0 -1.0
vn 0.0 -0.0 -1.0
vn 0.0 -0.0 -1.0
vn 0.0 -0.0 -1.0
vn 0.0 -0.0 -1.0
vn 0.0 -0.0 -1.0
vn 0.0 -0.0 -1.0
vn 0.0 0.0 -1.0
vn 0.0 0.0 -1.0
vn 0.0 -0.0 -1.0
vn 0.0 0.0 -1.0
vn 0.0 0.0 -1.0
vn 0.0 0.0 -1.0
vn 0.0 0.0 -1.0
vn 0.0 0.0 -1.0
vn 0.0 0.0 -1.0
vn -0.0 1.0 0.0
vn -0.0 1.0 0.0
vn 0.0 1.0 0.0
vn 0.0 1.0 0.0
vn 0.0 1.0 0.0
vn -0.0 1.0 0.0
vn -0.0 1.0 0.0
vn 0.0 1.0 0.0
vn -0.0 1.0 0.0
vn -0.0 1.0 0.0
vn -0.0 1.0 0.0
vn -0.0 1.0 0.0
vn 1.0 0.0 -0.0
vn 1.0 0.0 0.0
vn 1.0 0.0 -0.0
vn 1.0 0.0 -0.0
vn 1.0 0.0 -0.0
vn 1.0 0.0 0.0
vn 0.0 -0.0 1.0
vn 0.0 0.0 1.0
vn 0.0 0.0 1.0
vn 0.0 0.0 1.0
vn 0.0 -0.0 1.0
vn 0.0 -0.0 1.0
vn 0.0 0.0 1.0
vn 0.0 0.0 1.0
vn 0.0 -0.0 1.0
vn 0.0 -0.0 1.0
vn 0.0 0.0 1.0
vn 0.0 -0.0 1.0
vn 0.0 0.0 1.0
vn 0.0 0.0 1.0
vn 0.0 0.0 1.0
vn 0.0 -0.0 1.0
vn 0.0 0.0 1.0
vn 0.0 0.0 1.0
vn 0.0 -0.0 1.0
vn 0.0 0.0 1.0
vn 0.0 -0.0 1.0
vn 0.0 -0.0 1.0
vn 0.0 -0.0 1.0
vn 0.0 -0.0 1.0
vn 0.0 -0.0 1.0
vn 0.0 -0.0 1.0
vn 0.0 -0.0 1.0
vn 1.0 0.0 -0.0
vn 1.0 0.0 -0.0
vn 1.0 0.0 -0.0
vn 1.0 0.0 -0.0
vn 1.0 0.0 -0.0
vn 1.0 0.0 -0.0
vn 0.0 0.0 1.0
vn 0.0 0.0 1.0
vn 0.0 0.0 1.0
vn 0.0 0.0 1.0
vn 0.0 0.0 1.0
vn 0.0 0.0 1.0
vn 0.0 0.0 1.0
vn 0.0 0.0 1.0
vn 0.0 0.0 1.0
vn 0.0 0.0 1.0
vn 0.0 -0.0 1.0
vn 0.0 0.0 1.0
vn 0.0 0.0 -1.0
vn 0.0 -0.0 -1.0
vn 0.0 0.0 -1.0
vn 0.0 0.0 -1.0
vn 0.0 -0.0 -1.0
vn 0.0 -0.0 -1.0
vn 0.0 1.0 0.0
vn 0.0 1.0 0.0
vn 0.0 1.0 0.0
vn 0.0 1.0 0.0
vn 0.0 1.0 0.0
vn 0.0 1.0 0.0
vn 0.0 1.0 0.0
vn -0.0 1.0 0.0
vn 0.0 1.0 0.0
vn 0.0 0.0 -1.0
vn 0.0 0.0 -1.0
vn 0.0 0.0 -1.0
vn 0.0 0.0 -1.0
vn 0.0 0.0 -1.0
vn 0.0 0.0 -1.0
vn 0.0 0.0 -1.0
vn 0.0 0.0 -1.0
vn 0.0 0.0 -1.0
vn 0.0 1.0 0.0
vn 0.0 1.0 0.0
vn 0.0 1.0 0.0
vn 0.0 1.0 0.0
vn 0.0 1.0 0.0
vn 0.0 1.0 0.0
vn 0.0 1.0 0.0
vn 0.0 1.0 0.0
vn 0.0 1.0 0.0
vn 0.0 1.0 0.0
vn 0.0 1.0 0.0
vn 0.0 1.0 0.0
vn 0.0 1.0 0.0
vn -0.0 1.0 0.0
vn -0.0 1.0 0.0
vn 0.0 1.0 0.0
vn -0.0 1.0 0.0
vn -0.0 1.0 0.0
vn 0.0 1.0 0.0
vn 0.0 1.0 0.0
vn -0.0 1.0 0.0
vn 0.0 1.0 0.0
vn 0.0 1.0 0.0
vn 0.0 1.0 0.0
vn 0.0 1.0 0.0
vn 0.0 1.0 0.0
vn 0.0 1.0 0.0
vn 0.0 1.0 0.0
vn 0.0 1.0 0.0
vn 0.0 1.0 0.0
vn 0.0 -0.0 1.0
vn 0.0 0.0 1.0
vn 0.0 -0.0 1.0
vn 0.0 -0.0 1.0
vn 0.0 0.0 1.0
vn 0.0 0.0 1.0
vn -0.0 1.0 0.0
vn -0.0 1.0 0.0
vn 0.0 1.0 0.0
vn -0.0 1.0 0.0
vn -0.0 1.0 0.0
vn -0.0 1.0 0.0
vn -0.0 1.0 0.0
vn -0.0 1.0 0.0
vn -0.0 1.0 0.0
vn 0.0 -0.0 1.0
vn 0.0 -0.0 1.0
vn 0.0 -0.0 1.0
vn 0.0 0.0 1.0
vn 0.0 0.0 1.0
vn 0.0 -0.0 1.0
vn 0.0 -0.0 1.0
vn 0.0 0.0 1.0
vn 0.0 -0.0 1.0
vn -1.0 0.0 -0.0
vn -1.0 0.0 0.0
vn -1.0 0.0 -0.0
vn -1.0 0.0 -0.0
vn -1.0 0.0 0.0
vn -1.0 0.0 0.0
vn -1.0 0.0 0.0
vn -1.0 0.0 0.0
vn -1.0 0.0 0.0
vn -1.0 0.0 0.0
vn -1.0 0.0 0.0
vn -1.0 0.0 0.0
vn -1.0 0.0 0.0
vn -1.0 0.0 0.0
vn -1.0 0.0 0.0
vn 0.0 1.0 0.0
vn 0.0 1.0 0.0
vn 0.0 1.0 0.0
vn 0.0 1.0 0.0
vn 0.0 1.0 0.0
vn 0.0 1.0 0.0
vn 1.0 0.0 -0.0
vn 1.0 0.0 -0.0
vn 1.0 0.0 -0.0
vn 1.0 0.0 -0.0
vn 1.0 0.0 0.0
vn 1.0 0.0 -0.0
vn 0.0 -1.0 0.0
vn 0.0 -1.0 0.0
vn 0.0 -1.0 0.0
vn 0.0 -1.0 0.0
vn 0.0 -1.0 0.0
vn 0.0 -1.0 0.0
vn -1.0 0.0 -0.0
vn -1.0 0.0 0.0
vn -1.0 0.0 0.0
vn -1.0 0.0 -0.0
vn -1.0 0.0 0.0
vn -1.0 0.0 0.0
vn 0.0 0.0 -1.0
vn 0.0 -0.0 -1.0
vn 0.0 0.0 -1.0
vn 0.0 0.0 -1.0
vn 0.0 -0.0 -1.0
vn 0.0 -0.0 -1.0
vn 0.0 -0.0 1.0
vn 0.0 0.0 1.0
vn 0.0 0.0 1.0
vn 0.0 -0.0 1.0
vn 0.0 0.0 1.0
vn 0.0 0.0 1.0
vn 0.0 1.0 0.0
vn 0.0 1.0 0.0
vn -0.0 1.0 0.0
vn 0.0 1.0 0.0
vn 0.0 1.0 0.0
vn 0.0 1.0 0.0

# slot47, 144 grouped triangles

usemtl slot47
o slot47
g slot47

f 3/1/1 2/2/2 1/3/3
f 5/4/4 4/5/5 2/6/6
f 6/7/7 5/8/8 2/9/9
f 3/10/10 6/11/11 2/12/12
f 7/13/13 2/14/14 4/15/15
f 4/16/16 8/17/17 7/18/18
f 8/19/19 9/20/20 7/21/21
f 11/22/22 7/23/23 10/24/24
f 11/25/25 12/26/26 7/27/27
f 15/28/28 14/29/29 13/30/30
f 17/31/31 16/32/32 14/33/33
f 15/34/34 17/35/35 14/36/36
f 20/37/37 19/38/38 18/39/39
f 22/40/40 21/41/41 19/42/42
f 23/43/43 22/44/44 19/45/45
f 20/46/46 23/47/47 19/48/48
f 21/49/49 25/50/50 24/51/51
f 24/52/52 19/53/53 21/54/54
f 24/55/55 7/56/56 19/57/57
f 12/58/58 2/59/59 7/60/60
f 12/61/61 1/62/62 2/63/63
f 26/64/64 1/65/65 12/66/66
f 3/67/67 1/68/68 26/69/69
f 26/70/70 27/71/71 3/72/72
f 14/73/73 11/74/74 10/75/75
f 29/76/76 28/77/77 11/78/78
f 16/79/79 29/80/80 11/81/81
f 14/82/82 16/83/83 11/84/84
f 32/85/85 31/86/86 30/87/87
f 30/88/88 29/89/89 32/90/90
f 30/91/91 28/92/92 29/93/93
f 35/94/94 34/95/95 33/96/96
f 37/97/97 36/98/98 34/99/99
f 38/100/100 37/101/101 34/102/102
f 35/103/103 38/104/104 34/105/105
f 40/106/106 12/107/107 39/108/108
f 35/109/109 33/110/110 12/111/111
f 40/112/112 35/113/113 12/114/114
f 5/115/115 8/116/116 4/117/117
f 42/118/118 41/119/119 8/120/120
f 5/121/121 42/122/122 8/123/123
f 44/124/124 42/125/125 43/126/126
f 44/127/127 41/128/128 42/129/129
f 7/130/130 18/131/131 19/132/132
f 7/133/133 9/134/134 18/135/135
f 20/136/136 18/137/137 9/138/138
f 45/139/139 20/140/140 9/141/141
f 9/142/142 46/143/143 45/144/144
f 9/145/145 47/146/146 46/147/147
f 26/148/148 48/149/149 9/150/150
f 26/151/151 49/152/152 48/153/153
f 52/154/154 51/155/155 50/156/156
f 54/157/157 53/158/158 51/159/159
f 52/160/160 54/161/161 51/162/162
f 9/163/163 8/164/164 41/165/165
f 44/166/166 27/167/167 9/168/168
f 41/169/169 44/170/170 9/171/171
f 27/172/172 26/173/173 9/174/174
f 43/175/175 6/176/176 3/177/177
f 3/178/178 44/179/179 43/180/180
f 3/181/181 27/182/182 44/183/183
f 33/184/184 26/185/185 12/186/186
f 33/187/187 34/188/188 26/189/189
f 34/190/190 55/191/191 26/192/192
f 57/193/193 56/194/194 55/195/195
f 36/196/196 57/197/197 55/198/198
f 34/199/199 36/200/200 55/201/201
f 58/202/202 48/203/203 49/204/204
f 52/205/205 50/206/206 48/207/207
f 59/208/208 52/209/209 48/210/210
f 58/211/211 59/212/212 48/213/213
f 60/214/214 59/215/215 58/216/216
f 58/217/217 61/218/218 60/219/219
f 58/220/220 62/221/221 61/222/222
f 14/223/223 10/224/224 7/225/225
f 7/226/226 13/227/227 14/228/228
f 7/229/229 24/230/230 13/231/231
f 39/232/232 13/233/233 24/234/234
f 15/235/235 13/236/236 39/237/237
f 31/238/238 15/239/239 39/240/240
f 39/241/241 30/242/242 31/243/243
f 22/244/244 25/245/245 21/246/246
f 64/247/247 63/248/248 25/249/249
f 22/250/250 64/251/251 25/252/252
f 65/253/253 45/254/254 46/255/255
f 46/256/256 64/257/257 65/258/258
f 46/259/259 63/260/260 64/261/261
f 47/262/262 66/263/263 24/264/264
f 67/265/265 66/266/266 47/267/267
f 47/268/268 68/269/269 67/270/270
f 67/271/271 69/272/272 66/273/273
f 71/274/274 70/275/275 69/276/276
f 72/277/277 71/278/278 69/279/279
f 67/280/280 72/281/281 69/282/282
f 15/283/283 32/284/284 17/285/285
f 15/286/286 31/287/287 32/288/288
f 28/289/289 30/290/290 39/291/291
f 39/292/292 11/293/293 28/294/294
f 39/295/295 12/296/296 11/297/297
f 73/298/298 35/299/299 40/300/300
f 74/301/301 38/302/302 35/303/303
f 73/304/304 74/305/305 35/306/306
f 75/307/307 74/308/308 73/309/309
f 73/310/310 57/311/311 75/312/312
f 73/313/313 56/314/314 57/315/315
f 69/316/316 24/317/317 66/318/318
f 69/319/319 39/320/320 24/321/321
f 39/322/322 69/323/323 70/324/324
f 77/325/325 76/326/326 39/327/327
f 70/328/328 77/329/329 39/330/330
f 76/331/331 55/332/332 39/333/333
f 20/334/334 65/335/335 23/336/336
f 20/337/337 45/338/338 65/339/339
f 63/340/340 46/341/341 47/342/342
f 47/343/343 25/344/344 63/345/345
f 47/346/346 24/347/347 25/348/348
f 48/349/349 47/350/350 9/351/351
f 50/352/352 51/353/353 47/354/354
f 48/355/355 50/356/356 47/357/357
f 47/358/358 51/359/359 53/360/360
f 61/361/361 62/362/362 47/363/363
f 53/364/364 61/365/365 47/366/366
f 62/367/367 55/368/368 47/369/369
f 78/370/370 67/371/371 68/372/372
f 79/373/373 72/374/374 67/375/375
f 78/376/376 79/377/377 67/378/378
f 80/379/379 79/380/380 78/381/381
f 78/382/382 77/383/383 80/384/384
f 78/385/385 76/386/386 77/387/387
f 57/388/388 37/389/389 75/390/390
f 57/391/391 36/392/392 37/393/393
f 56/394/394 39/395/395 55/396/396
f 73/397/397 40/398/398 39/399/399
f 56/400/400 73/401/401 39/402/402
f 62/403/403 26/404/404 55/405/405
f 58/406/406 49/407/407 26/408/408
f 62/409/409 58/410/410 26/411/411
f 61/412/412 54/413/413 60/414/414
f 61/415/415 53/416/416 54/417/417
f 55/418/418 68/419/419 47/420/420
f 78/421/421 68/422/422 55/423/423
f 55/424/424 76/425/425 78/426/426
f 77/427/427 71/428/428 80/429/429
f 77/430/430 70/431/431 71/432/432
# slot592, 12 grouped triangles

usemtl slot59
o slot592
g slot592

f 17/433/433 29/434/434 16/435/435
f 17/436/436 32/437/437 29/438/438
f 43/439/439 5/440/440 6/441/441
f 43/442/442 42/443/443 5/444/444
f 60/445/445 52/446/446 59/447/447
f 60/448/448 54/449/449 52/450/450
f 23/451/451 64/452/452 22/453/453
f 23/454/454 65/455/455 64/456/456
f 75/457/457 38/458/458 74/459/459
f 75/460/460 37/461/461 38/462/462
f 79/463/463 71/464/464 72/465/465
f 79/466/466 80/467/467 71/468/468
