v 52.89891 2.790463 70.98812
v -24.05812 2.790441 88.55306
v -24.05812 2.790485 -88.81493
v 94.40086 1.370304 -0.13093
v 57.42094 1.370304 -76.92042
v 59.34148 17.10135 -79.32869
v 97.48112 17.10135 -0.130926
v -25.67201 1.370327 -95.88586
v -26.35744 17.10138 -98.88892
v -92.30745 1.370304 -42.74586
v -95.08272 17.10135 -44.08235
v -92.30745 1.370304 42.48402
v -95.08272 17.10135 43.82051
v -25.67207 1.370281 95.62399
v -26.3575 17.10133 98.62704
v 57.42094 1.370304 76.65857
v 59.34148 17.10135 79.06683
v 107.5066 123.5488 -0.130915
v 65.59227 123.5488 -87.16688
v 54.6823 212.9123 -73.48619
v 90.00835 212.9123 -0.130903
v -28.58833 123.5488 -108.663
v -24.69459 212.9123 -91.60345
v -104.1153 123.5488 -48.43222
v -88.34999 212.9123 -40.84001
v -104.1153 123.5488 48.17041
v -88.34993 212.9123 40.57822
v -28.58833 123.5488 108.4012
v -24.69459 212.9123 91.34167
v 65.59227 123.5488 86.90507
v 54.6823 212.9123 73.22442
v 52.89891 227.5197 -71.24994
v 44.36052 227.5197 -60.54311
v 73.45348 227.5197 -0.1309
v -24.05812 227.5197 -88.81489
v -21.01082 227.5197 -75.46367
v -85.77296 227.5197 -39.59898
v -73.43459 227.5197 -33.65713
v -85.77296 227.5197 39.33719
v -73.43452 227.5197 33.39534
v -24.05812 227.5197 88.55311
v -21.01082 227.5197 75.20189
v 52.89891 227.5197 70.98817
v 44.36052 227.5197 60.2813
v 46.41417 212.9888 -63.11831
v 76.7473 212.9888 -0.130903
v -21.74373 212.9888 -78.6749
v -76.40218 212.9888 -35.08626
v -76.40218 212.9888 34.82447
v -21.74379 212.9888 78.41312
v 46.41417 212.9888 62.8565
v 59.20433 214.3325 -79.15663
v 57.42094 228.9399 -76.92037
v 94.40086 228.9399 -0.1309
v 97.26109 214.3325 -0.1309
v -26.30849 214.3325 -98.67437
v -25.67201 228.9399 -95.88581
v -94.88448 214.3325 -43.98686
v -92.30745 228.9399 -42.74584
v -94.88448 214.3325 43.72506
v -92.30745 228.9399 42.48404
v -26.30849 214.3324 98.4126
v -25.67207 228.9398 95.62402
v 59.20433 214.3325 78.89486
v 57.42094 228.9399 76.65862
v 54.8195 18.52151 -73.65826
v 65.59227 106.7614 -87.16688
v 107.5066 106.7614 -0.130915
v 90.22838 18.52151 -0.130926
v -24.74354 18.52153 -91.81799
v -28.58833 106.7614 -108.663
v -88.54817 18.52151 -40.93549
v -104.1153 106.7614 -48.43222
v -88.54817 18.52151 40.67366
v -104.1153 106.7614 48.17041
v -24.7436 18.52149 91.55612
v -28.58833 106.7614 108.4012
v 54.81944 18.52151 73.39639
v 65.59227 106.7614 86.90507
v 70.20018 106.7614 -92.94501
v 70.20018 123.5488 -92.94501
v 114.8971 123.5488 -0.130915
v 114.8971 106.7614 -0.130915
v -30.23286 106.7614 -115.8682
v -30.23286 123.5488 -115.8682
v -110.7739 106.7614 -51.63884
v -110.7739 123.5488 -51.63884
v -110.7739 106.7614 51.37703
v -110.7739 123.5488 51.37703
v -30.23286 106.7614 115.6064
v -30.23286 123.5488 115.6064
v 70.20018 106.7614 92.6832
v 70.20018 123.5488 92.6832
v 87.14806 2.790463 -0.13093
v -85.77296 2.790463 -39.59901
v -85.77296 2.790463 39.33717
v 53.1151 217.4264 71.506
v 87.44719 217.4264 0.214788
v 53.1151 217.4264 -71.0764
v -24.02821 217.4264 -88.68387
v -85.89241 217.4264 -39.34882
v -85.89241 217.4264 39.77842
v -24.02821 217.4264 89.11345
vn -0.08658198 -0.9931228 -0.07880899
vn 0.006359 -0.9952309 -0.09733899
vn 0.031278 -0.9965011 0.077507
vn 0.8872671 -0.173735 -0.4272861
vn 0.887267 -0.173736 -0.427286
vn 0.8872671 -0.173735 -0.4272861
vn 0.19207 0.9808968 -0.03083199
vn 0.219137 -0.173735 -0.960102
vn -0.614008 -0.173735 -0.769942
vn -0.614008 -0.173736 -0.769942
vn -0.984792 -0.173737 -0
vn -0.984792 -0.173737 -0
vn -0.614008 -0.173736 0.769942
vn -0.614008 -0.173735 0.769942
vn 0.219137 -0.173735 0.960102
vn -0.095647 -0.9808971 -0.169389
vn 0.2191369 -0.1737349 0.9601017
vn 0.3168714 0.9471035 -0.05086561
vn 0.1577974 0.9471037 -0.2794541
vn 0.7095261 -0.2475972 -0.6597487
vn 0.9581945 -0.2475974 0.1433834
vn -0.1201009 0.9471036 -0.297608
vn -0.07279799 -0.9808969 -0.180393
vn -0.3075614 0.9471034 -0.09165683
vn -0.186425 -0.9808971 -0.05555701
vn -0.2634216 0.9471035 0.1833137
vn -0.1596691 -0.9808974 0.111113
vn -0.0209201 0.9471035 0.3202454
vn -0.01267999 -0.9808975 0.1941119
vn 0.2373347 0.9471034 0.216026
vn 0.485323 -0.2475974 0.8385446
vn -0.072138 0.995231 0.06566101
vn -0.882748 -0.200097 0.425109
vn 0 1 0
vn 0.006358999 0.9952309 0.09733998
vn -0.21802 -0.200098 0.955211
vn 0.080067 0.9952309 0.055719
vn 0.61088 -0.200096 0.76602
vn 0.09348301 0.9952311 -0.027859
vn 0.979776 -0.2001 -1e-06
vn 0.036504 0.9952311 -0.09045701
vn 0.61088 -0.200099 -0.766019
vn -0.047963 0.995231 -0.08494001
vn 0 1 0
vn -0.218021 -0.200097 0.955211
vn -0.882748 -0.200098 0.425109
vn 0.610881 -0.200096 0.76602
vn 0.979776 -0.200095 -0
vn 0.61088 -0.200099 -0.76602
vn -0.218021 -0.200097 -0.955211
vn -0.882748 -0.200097 -0.425109
vn 0.143857 -0.9808972 -0.130942
vn 0.2191371 0.1737361 -0.9601015
vn 0.8872674 0.1737351 -0.4272852
vn 0.8872671 0.173735 0.4272861
vn 0.2191371 0.1737361 -0.9601015
vn -0.6140078 0.1737359 -0.7699417
vn -0.6140078 0.1737359 -0.7699417
vn -0.9847924 0.1737361 0
vn -0.9847924 0.1737361 0
vn -0.6140079 0.173735 0.7699419
vn -0.6140079 0.173735 0.7699419
vn 0.2191371 0.1737361 0.9601015
vn 0.09564704 -0.9808974 0.1693871
vn 0.8872671 0.173735 0.4272861
vn 0.143859 0.9808969 -0.130942
vn 0.1577975 -0.9471036 -0.2794542
vn 0.3168714 -0.9471035 -0.05086561
vn 0.192069 0.9808971 0.030832
vn -0.05161132 0.3346473 -0.9409289
vn -0.1201009 -0.9471036 -0.297608
vn -0.7678275 0.3346473 -0.5463077
vn -0.3075608 -0.9471037 -0.0916568
vn -0.9058533 0.3346473 0.2596941
vn -0.2634216 -0.9471035 0.1833137
vn -0.3617528 0.3346469 0.8701415
vn -0.02092009 -0.9471036 0.3202452
vn 0.095647 0.9808971 0.169389
vn 0.2373347 -0.9471035 0.2160255
vn 0 -1 0
vn 0.222521 0 -0.9749279
vn 0.9009688 0 -0.4338839
vn 0.9009688 0 0.4338839
vn 0 -1 0
vn 0.222521 0 -0.974928
vn -0.6234897 0 -0.7818316
vn -1 0 0
vn -1 0 0
vn -0.6234897 0 0.7818316
vn -0.6234897 0 0.7818316
vn 0.222521 0 0.9749279
vn 0 -1 0
vn 0.9009688 0 0.4338839
vn -0.115598 -0.9931228 0.018556
vn 0.112202 -0.9931228 0.03343699
vn 0.120071 -0.9892427 -0.08355698
vn 0 1 0
vn -0 1 0
vn 0 1 0
vn 0 1 0
vn -0 1 0
vn 0 1 0
vn 0 1 0
vn 0.887267 -0.173734 0.427286
vn -0.192068 -0.9808971 -0.030832
vn -0.143858 -0.9808971 0.130942
vn 0.2191369 -0.1737359 -0.9601015
vn 0.219137 -0.173736 -0.960101
vn 0.095648 0.9808969 -0.169389
vn 0.887267 -0.173734 -0.427286
vn 0.8872671 -0.173735 0.4272861
vn 0.01268 -0.9808971 0.194114
vn -0.6140078 -0.1737359 -0.7699417
vn 0.2191369 -0.1737359 -0.9601015
vn -0.07279801 0.9808971 -0.180392
vn 0.159671 -0.9808969 0.111114
vn -0.9847921 -0.173737 0
vn -0.6140078 -0.1737359 -0.7699417
vn -0.186425 0.9808971 -0.05555701
vn 0.186426 -0.9808969 -0.055557
vn -0.6140078 -0.1737359 0.7699417
vn -0.9847921 -0.173737 0
vn -0.15967 0.9808971 0.111114
vn 0.07279801 -0.9808971 -0.180392
vn 0.2191369 -0.1737349 0.9601017
vn -0.6140078 -0.1737359 0.7699417
vn -0.012681 0.9808971 0.194114
vn 0.8872671 -0.173735 0.4272861
vn 0.219137 -0.173735 0.960102
vn 0.143858 0.9808971 0.130942
vn 0.887267 -0.173735 0.427286
vn 0.09564701 -0.9808972 -0.169388
vn 0.192069 -0.9808971 -0.030832
vn -0.0734299 -0.2475964 -0.9660766
vn -0.8010918 -0.2475975 -0.5449288
vn -0.9255153 -0.2475975 0.2865607
vn -0.3530066 -0.2475975 0.9022648
vn 0.143858 -0.9808971 0.130941
vn 0 1 0
vn -0.21802 -0.200098 0.9552111
vn -0.8827476 -0.2000979 0.4251088
vn -0.882748 -0.200098 -0.425109
vn 0 1 1e-06
vn 0.6108803 -0.2000961 0.7660203
vn 0 1 0
vn 0.9797759 -0.200098 0
vn 0 1 0
vn 0.6108803 -0.2000991 -0.7660193
vn 0 1 1e-06
vn -0.218021 -0.200097 -0.955211
vn -0.8827476 -0.2000979 -0.4251088
vn -0.218021 -0.200097 -0.955211
vn -0.8827476 -0.2000979 0.4251088
vn -0.8827476 -0.2000979 -0.4251088
vn -0.21802 -0.200098 0.9552111
vn 0.6108803 -0.2000961 0.7660203
vn 0.9797759 -0.200098 0
vn 0.6108803 -0.2000991 -0.7660193
vn -0.218021 -0.200097 -0.955211
vn 0.219137 0.173736 -0.960101
vn 0.8872674 0.1737351 -0.4272852
vn -0.095648 0.9808969 0.169389
vn 0.887267 0.173738 -0.427286
vn -0.192068 0.9808971 0.030832
vn 0.887267 0.173733 0.427286
vn 0.887268 0.173733 -0.427285
vn 0.192069 -0.9808971 0.030832
vn -0.012681 -0.9808971 -0.194114
vn -0.614008 0.173736 -0.769942
vn 0.219137 0.173735 -0.960102
vn 0.07279799 0.9808969 0.180393
vn -0.15967 -0.9808971 -0.111114
vn -0.984792 0.173736 -0
vn -0.614008 0.173736 -0.769942
vn 0.186425 0.9808971 0.05555701
vn -0.186425 -0.9808971 0.05555701
vn -0.614008 0.173736 0.769942
vn -0.984792 0.173736 -0
vn 0.1596691 0.9808974 -0.111113
vn -0.07279697 -0.9808977 0.1803899
vn 0.219137 0.173737 0.960101
vn -0.614008 0.173734 0.769942
vn 0.012679 0.9808977 -0.1941109
vn 0.887267 0.173737 0.427285
vn 0.2191371 0.1737361 0.9601015
vn -0.143858 0.9808971 -0.130941
vn 0.219137 0.173735 0.960102
vn 0.7034683 0.3346472 -0.6270116
vn 0.9288228 0.3346469 0.1590589
vn -0.01268 0.9808971 -0.194114
vn -0.15967 0.9808971 -0.111114
vn -0.186425 0.9808971 0.05555701
vn -0.07279801 0.9808971 0.180392
vn 0.454754 0.3346463 0.8253549
vn 0.222521 -0 -0.974928
vn 0.9009688 0 -0.4338839
vn 0 1 0
vn 0.900969 0 -0.433884
vn 0 1 0
vn 0.900969 0 0.433884
vn 0.900969 -0 -0.433884
vn 0 -1 0
vn -0.62349 -0 -0.781832
vn 0.222521 0 -0.9749279
vn -0.6234897 0 -0.7818316
vn 0 1 0
vn 0 -1 0
vn -1 0 -0
vn -0.62349 0 -0.781832
vn 0 1 0
vn 0 -1 0
vn -0.62349 0 0.781832
vn -1 0 -0
vn 0 1 0
vn 0 -1 0
vn 0.222521 0 0.974928
vn -0.62349 0 0.781832
vn 0 1 0
vn 0.900969 0 0.433883
vn 0.222521 0 0.9749279
vn 0 1 0
vn 0.222521 0 0.974928
vt 0.607143 0
vt 0.148855 0
vt 0.035714 0
vt 0.75 0
vt 0.892857 0
vt 0.892857 0.07000001
vt 0.75 0.07
vt 0.035714 0
vt 0.035714 0.07
vt 0.178571 0
vt 0.178571 0.07
vt 0.321429 0
vt 0.321429 0.07
vt 0.464286 0
vt 0.464286 0.07
vt 0.607143 0
vt 0.607143 0.07
vt 0.75 0.53735
vt 0.892857 0.5373501
vt 0.892857 0.9350001
vt 0.75 0.9350001
vt 0.035714 0.53735
vt 0.035714 0.9350001
vt 0.178571 0.53735
vt 0.178571 0.9350001
vt 0.321429 0.53735
vt 0.321429 0.9350001
vt 0.464286 0.53735
vt 0.464286 0.9350001
vt 0.607143 0.53735
vt 0.607143 0.9350001
vt -0.107143 1
vt 0.892857 1
vt 0.75 1
vt 0.739885 1
vt 0.739885 1
vt 0.406274 1
vt 0.406274 1
vt 0.143241 1
vt 0.143241 1
vt 0.148855 1
vt 0.148855 1
vt 0.607143 1
vt 0.607143 1
vt 0.892857 1
vt 0.75 1
vt 0.739885 1
vt 0.406274 1
vt 0.143241 1
vt 0.148855 1
vt 0.607143 1
vt 0.892857 0.935
vt -0.107143 1
vt 0.75 1
vt 0.75 0.9350001
vt 0.035714 0.9350001
vt 0.035714 1
vt 0.178571 0.9350001
vt 0.178571 1
vt 0.321429 0.9350001
vt 0.321429 1
vt 0.464286 0.9350001
vt 0.464286 1
vt 0.607143 0.9350001
vt 0.607143 1
vt 0.892857 0.07
vt 0.892857 0.46265
vt 0.75 0.46265
vt 0.75 0.07
vt 0.035714 0.07
vt 0.035729 0.508158
vt 0.178571 0.07
vt 0.178571 0.46265
vt 0.321429 0.07
vt 0.321429 0.46265
vt 0.464286 0.07
vt 0.464286 0.46265
vt 0.607143 0.07
vt 0.607143 0.46265
vt 0.892857 0.46265
vt -0.107143 0.53735
vt 0.75 0.53735
vt 0.75 0.46265
vt 0.035729 0.508158
vt 0.035714 0.53735
vt 0.178571 0.46265
vt 0.178571 0.53735
vt 0.321429 0.46265
vt 0.321429 0.53735
vt 0.464286 0.46265
vt 0.464286 0.53735
vt 0.607143 0.46265
vt 0.607143 0.53735
vt 0.75 0
vt 0.178571 0
vt 0.143241 0
vt 0.607143 1
vt 0.75 1
vt 0.892857 1
vt 0.739885 1
vt 0.406274 1
vt 0.143241 1
vt 0.148855 1
vt 0.418888 0
vt 0.464286 0
vt 0.739885 0
vt -0.107143 0
vt -0.107143 0.07000001
vt -0.107143 0.5373501
vt -0.107143 0.9350001
vt 0.892857 1
vt 0.035714 1
vt 0.178571 1
vt 0.321429 1
vt 0.464286 1
vt -0.107143 0.935
vt 0.892857 1
vt -0.107143 0.07
vt -0.107143 0.46265
vt -0.107157 0.508158
vt 0.035714 0.46265
vt -0.107157 0.508158
vt 0.892857 0.53735
vt 0.035714 0.46265
vt 0.406274 0
vt 0.321429 0
g ungrouped
f 1/104/1 2/2/2 3/106/3
f 4/4/4 5/5/5 6/6/6
f 4/4/4 6/6/6 7/7/110
f 5/107/107 8/8/8 9/9/114
f 5/107/107 9/9/114 6/108/108
f 8/8/113 10/10/10 11/11/118
f 8/8/113 11/11/118 9/9/9
f 10/10/117 12/12/12 13/13/122
f 10/10/117 13/13/122 11/11/11
f 12/12/121 14/14/14 15/15/126
f 12/12/121 15/15/126 13/13/13
f 14/14/125 16/16/129 17/17/17
f 14/14/125 17/17/17 15/15/15
f 16/16/128 4/4/104 7/7/111
f 16/16/128 7/7/111 17/17/131
f 54/54/164 32/111/32 33/33/139
f 54/54/164 33/33/139 34/34/34
f 32/111/32 35/35/35 36/36/143
f 32/111/32 36/36/143 33/33/139
f 35/35/35 37/37/37 38/38/145
f 35/35/35 38/38/145 36/36/143
f 37/37/37 39/39/39 40/40/147
f 37/37/37 40/40/147 38/38/145
f 39/39/39 41/41/41 42/42/149
f 39/39/39 42/42/149 40/40/147
f 41/41/41 43/43/43 44/44/44
f 41/41/41 44/44/44 42/42/149
f 43/43/43 54/54/164 34/34/34
f 43/43/43 34/34/34 44/44/44
f 34/34/141 33/33/33 45/45/153
f 34/34/141 45/45/153 46/46/46
f 33/33/140 36/36/36 47/47/155
f 33/33/140 47/47/155 45/45/45
f 36/36/144 38/38/38 48/48/156
f 36/36/144 48/48/156 47/47/47
f 38/38/146 40/40/40 49/49/157
f 38/38/146 49/49/157 48/48/48
f 40/40/148 42/42/42 50/50/158
f 40/40/148 50/50/158 49/49/49
f 42/42/150 44/44/152 51/51/159
f 42/42/150 51/51/159 50/50/50
f 44/44/151 34/34/142 46/46/154
f 44/44/151 46/46/154 51/51/51
f 52/52/161 53/117/163 54/54/54
f 52/52/161 54/54/54 55/55/166
f 56/56/56 57/57/170 53/53/53
f 56/56/56 53/53/53 52/116/160
f 58/58/58 59/59/174 57/57/57
f 58/58/58 57/57/57 56/56/169
f 60/60/60 61/61/178 59/59/59
f 60/60/60 59/59/59 58/58/173
f 62/62/62 63/63/182 61/61/61
f 62/62/62 61/61/61 60/60/177
f 64/64/185 65/65/187 63/63/63
f 64/64/185 63/63/63 62/62/181
f 55/55/55 54/54/165 65/65/65
f 55/55/55 65/65/65 64/64/184
f 80/80/196 81/123/198 82/82/82
f 80/80/196 82/82/82 83/83/201
f 84/84/204 85/85/85 81/81/81
f 84/84/204 81/81/81 80/122/195
f 86/86/86 87/87/209 85/85/205
f 86/86/86 85/85/205 84/124/203
f 88/88/88 89/89/213 87/87/87
f 88/88/88 87/87/87 86/86/208
f 90/90/90 91/91/217 89/89/89
f 90/90/90 89/89/89 88/88/212
f 92/92/220 93/93/222 91/91/91
f 92/92/220 91/91/91 90/90/216
f 83/83/83 82/82/200 93/93/93
f 83/83/83 93/93/93 92/92/219
f 97/97/97 99/99/99 100/100/100
f 32/111/32 54/54/164 53/117/162
f 54/54/164 43/43/43 65/65/186
f 100/100/100 101/101/101 102/102/102
f 43/43/43 41/115/41 63/63/183
f 43/43/43 63/63/183 65/65/186
f 41/115/41 39/114/39 61/61/179
f 41/115/41 61/61/179 63/63/183
f 39/114/39 37/113/37 59/59/175
f 39/114/39 59/59/175 61/61/179
f 37/113/37 35/112/35 57/57/171
f 37/113/37 57/57/171 59/59/175
f 35/112/35 32/32/32 53/53/162
f 35/112/35 53/53/162 57/57/171
f 21/21/133 20/20/132 52/52/52
f 21/21/133 52/52/52 55/55/167
f 20/110/132 23/23/23 56/56/168
f 20/110/132 56/56/168 52/116/52
f 23/23/23 25/25/25 58/58/172
f 23/23/23 58/58/172 56/56/168
f 25/25/25 27/27/27 60/60/176
f 25/25/25 60/60/176 58/58/172
f 27/27/27 29/29/29 62/62/180
f 27/27/27 62/62/180 60/60/176
f 29/29/29 31/31/138 64/64/64
f 29/29/29 64/64/64 62/62/180
f 31/31/138 21/21/133 55/55/167
f 31/31/138 55/55/167 64/64/64
f 68/68/68 67/67/67 80/80/80
f 68/68/68 80/80/80 83/83/202
f 67/120/67 71/71/71 84/84/84
f 67/120/67 84/84/84 80/122/80
f 71/121/71 73/73/73 86/86/207
f 71/121/71 86/86/207 84/124/84
f 73/73/73 75/75/75 88/88/211
f 73/73/73 88/88/211 86/86/207
f 75/75/75 77/77/77 90/90/215
f 75/75/75 90/90/215 88/88/211
f 77/77/77 79/79/79 92/92/92
f 77/77/77 92/92/92 90/90/215
f 79/79/79 68/68/68 83/83/202
f 79/79/79 83/83/202 92/92/92
f 19/19/19 18/18/18 82/82/199
f 19/19/19 82/82/199 81/123/197
f 18/18/18 30/30/30 93/93/221
f 18/18/18 93/93/221 82/82/199
f 30/30/30 28/28/28 91/91/218
f 30/30/30 91/91/218 93/93/221
f 28/28/28 26/26/26 89/89/214
f 28/28/28 89/89/214 91/91/218
f 26/26/26 24/24/24 87/87/210
f 26/26/26 87/87/210 89/89/214
f 24/24/24 22/22/22 85/85/206
f 24/24/24 85/85/206 87/87/210
f 22/22/22 19/109/19 81/81/197
f 22/22/22 81/81/197 85/85/206
f 94/94/94 3/106/3 5/5/106
f 94/94/94 5/5/106 4/4/105
f 100/100/100 102/102/102 103/103/103
f 3/3/3 8/8/112 5/107/106
f 3/3/3 95/95/95 10/10/116
f 3/3/3 10/10/116 8/8/112
f 95/95/95 96/126/96 12/12/120
f 95/95/95 12/12/120 10/10/116
f 96/126/96 2/105/2 14/14/124
f 96/126/96 14/14/124 12/12/120
f 2/105/2 1/1/1 16/16/16
f 2/105/2 16/16/16 14/14/124
f 1/1/1 94/94/94 4/4/105
f 1/1/1 4/4/105 16/16/16
f 66/66/66 69/69/69 7/7/7
f 66/66/66 7/7/7 6/6/109
f 69/69/69 78/78/78 17/17/130
f 69/69/69 17/17/130 7/7/7
f 78/78/78 76/76/193 15/15/127
f 78/78/78 15/15/127 17/17/130
f 76/76/193 74/74/192 13/13/123
f 76/76/193 13/13/123 15/15/127
f 74/74/192 72/72/191 11/11/119
f 74/74/192 11/11/119 13/13/123
f 72/72/191 70/70/190 9/9/115
f 72/72/191 9/9/115 11/11/119
f 70/70/190 66/118/66 6/108/109
f 70/70/190 6/108/109 9/9/115
f 2/2/2 96/96/96 95/125/95
f 2/2/2 95/125/95 3/106/3
f 103/103/103 97/97/97 100/100/100
f 3/106/3 94/94/94 1/104/1
f 97/97/97 98/98/98 99/99/99
g bois1
f 78/78/194 79/79/79 77/77/77
f 78/78/194 77/77/77 76/76/76
f 69/69/189 79/79/79 78/78/194
f 69/69/189 68/68/68 79/79/79
f 18/18/18 19/19/19 20/20/20
f 18/18/18 20/20/20 21/21/21
f 19/109/19 22/22/22 23/23/134
f 19/109/19 23/23/134 20/110/20
f 22/22/22 24/24/24 25/25/135
f 22/22/22 25/25/135 23/23/134
f 24/24/24 26/26/26 27/27/136
f 24/24/24 27/27/136 25/25/135
f 26/26/26 28/28/28 29/29/137
f 26/26/26 29/29/137 27/27/136
f 28/28/28 30/30/30 31/31/31
f 28/28/28 31/31/31 29/29/137
f 30/30/30 18/18/18 21/21/21
f 30/30/30 21/21/21 31/31/31
f 66/66/188 67/67/67 68/68/68
f 66/66/188 68/68/68 69/69/189
f 70/70/70 71/121/71 67/119/67
f 70/70/70 67/119/67 66/118/188
f 72/72/72 73/73/73 71/121/71
f 72/72/72 71/121/71 70/70/70
f 74/74/74 75/75/75 73/73/73
f 74/74/74 73/73/73 72/72/72
f 76/76/76 77/77/77 75/75/75
f 76/76/76 75/75/75 74/74/74
