# Wavefront OBJ file
# Exported by Misfit Model 3D 1.3.8
# Sun Mar 16 18:00:09 2014

# 4 Vertices
v -7.999978 8.0 -0.018585
v 7.999979 8.0 0.018585
v -7.999979 -8.0 -0.018585
v 7.999978 -8.0 0.018585

# 6 Texture Coordinates
vt 0.00495 0.00495
vt 0.995049 0.00495
vt 0.995049 0.995049
vt 0.00495 0.00495
vt 0.995049 0.995049
vt 0.00495 0.995049

# 6 Vertex Normals
vn -0.002323 -0.0 0.999997
vn -0.002323 -0.0 0.999997
vn -0.002323 -0.0 0.999997
vn -0.002323 -0.0 0.999997
vn -0.002323 -0.0 0.999997
vn -0.002323 -0.0 0.999997

# base, 2 grouped triangles

o base
g base

f 3/1/1 4/2/2 2/3/3
f 3/4/4 2/5/5 1/6/6
