# Wavefront OBJ file
# Exported by Misfit Model 3D 1.3.8
# Thu May 26 21:34:24 2022

mtllib fromage.mtl

# 44 Vertices
v -0.0001 0.143329 0.002369
v -0.0001 -0.000932 0.002369
v 0.183334 -0.000932 0.115744
v 0.195649 0.015411 0.123354
v 0.223865 0.015411 -0.050497
v 0.209776 -0.000932 -0.047171
v 0.120886 0.015411 -0.19338
v 0.113275 -0.000932 -0.181066
v -0.052965 0.015411 -0.221596
v -0.049639 -0.000932 -0.207506
v -0.195848 0.015411 -0.118616
v -0.183535 -0.000932 -0.111006
v -0.224064 0.015411 0.055235
v -0.209977 -0.000932 0.051909
v -0.121087 0.015411 0.198118
v -0.113474 -0.000932 0.185805
v 0.052764 0.015411 0.226334
v 0.049439 -0.000932 0.212244
v 0.195649 0.126987 0.123354
v 0.183334 0.143329 0.115744
v 0.209776 0.143329 -0.047171
v 0.223865 0.126987 -0.050497
v 0.113275 0.143329 -0.181066
v 0.120886 0.126987 -0.19338
v -0.049639 0.143329 -0.207506
v -0.052965 0.126987 -0.221596
v -0.183535 0.143329 -0.111006
v -0.195848 0.126987 -0.118616
v -0.209977 0.143329 0.051909
v -0.224064 0.126987 0.055235
v -0.113474 0.143329 0.185805
v -0.121087 0.126987 0.198118
v 0.049439 0.143329 0.212244
v 0.052764 0.126987 0.226334
v -0.209977 0.121514 0.051909
v -0.113474 0.12019 0.185805
v -0.0001 0.126987 0.002369
v -0.113474 0.020539 0.185805
v -0.209977 0.020348 0.051909
v -0.0001 0.015411 0.002369
v -0.202552 0.127023 0.050156
v -0.110252 0.124853 0.18059
v -0.20638 0.015337 0.05106
v -0.111264 0.015411 0.182226

# 252 Texture Coordinates
vt 0.275 0.3428
vt 0.2822 0.3427
vt 0.2766 0.3421
vt 0.2895 0.3426
vt 0.2822 0.3427
vt 0.2878 0.3434
vt 0.283 0.3444
vt 0.283 0.3481
vt 0.2882 0.3477
vt 0.283 0.3444
vt 0.2882 0.3477
vt 0.2882 0.344
vt 0.2869 0.3419
vt 0.2822 0.3427
vt 0.2895 0.3426
vt 0.2766 0.3421
vt 0.2822 0.3427
vt 0.2816 0.3417
vt 0.2776 0.3435
vt 0.2822 0.3427
vt 0.275 0.3428
vt 0.2878 0.3482
vt 0.2822 0.3476
vt 0.2895 0.3475
vt 0.2895 0.3475
vt 0.2822 0.3476
vt 0.2869 0.3468
vt 0.2816 0.3465
vt 0.2822 0.3476
vt 0.2766 0.3469
vt 0.275 0.3476
vt 0.2822 0.3476
vt 0.2776 0.3483
vt 0.2766 0.3469
vt 0.2822 0.3476
vt 0.275 0.3476
vt 0.2776 0.3483
vt 0.2822 0.3476
vt 0.2829 0.3486
vt 0.2829 0.3486
vt 0.2822 0.3476
vt 0.2878 0.3482
vt 0.2745 0.3434
vt 0.2745 0.3471
vt 0.2773 0.3479
vt 0.2745 0.3434
vt 0.2773 0.3479
vt 0.2773 0.3441
vt 0.2882 0.344
vt 0.2882 0.3477
vt 0.29 0.3469
vt 0.2882 0.344
vt 0.29 0.3469
vt 0.29 0.3432
vt 0.2829 0.3438
vt 0.2822 0.3427
vt 0.2776 0.3435
vt 0.2763 0.3426
vt 0.2763 0.3463
vt 0.2745 0.3471
vt 0.2763 0.3426
vt 0.2745 0.3471
vt 0.2745 0.3434
vt 0.2773 0.3441
vt 0.2773 0.3479
vt 0.283 0.3481
vt 0.2773 0.3441
vt 0.283 0.3481
vt 0.283 0.3444
vt 0.29 0.3432
vt 0.29 0.3469
vt 0.2872 0.3462
vt 0.29 0.3432
vt 0.2872 0.3462
vt 0.2872 0.3424
vt 0.2815 0.3422
vt 0.2815 0.3459
vt 0.2763 0.3463
vt 0.2815 0.3422
vt 0.2763 0.3463
vt 0.2763 0.3426
vt 0.2829 0.3438
vt 0.283 0.3444
vt 0.2882 0.344
vt 0.2829 0.3438
vt 0.2882 0.344
vt 0.2878 0.3434
vt 0.2776 0.3435
vt 0.2773 0.3441
vt 0.283 0.3444
vt 0.2776 0.3435
vt 0.283 0.3444
vt 0.2829 0.3438
vt 0.275 0.3428
vt 0.2745 0.3434
vt 0.2773 0.3441
vt 0.275 0.3428
vt 0.2773 0.3441
vt 0.2776 0.3435
vt 0.2766 0.3421
vt 0.2763 0.3426
vt 0.2745 0.3434
vt 0.2766 0.3421
vt 0.2745 0.3434
vt 0.275 0.3428
vt 0.2816 0.3417
vt 0.2815 0.3422
vt 0.2763 0.3426
vt 0.2816 0.3417
vt 0.2763 0.3426
vt 0.2766 0.3421
vt 0.2895 0.3426
vt 0.29 0.3432
vt 0.2872 0.3424
vt 0.2895 0.3426
vt 0.2872 0.3424
vt 0.2869 0.3419
vt 0.2878 0.3434
vt 0.2882 0.344
vt 0.29 0.3432
vt 0.2878 0.3434
vt 0.29 0.3432
vt 0.2895 0.3426
vt 0.283 0.3481
vt 0.2829 0.3486
vt 0.2878 0.3482
vt 0.283 0.3481
vt 0.2878 0.3482
vt 0.2882 0.3477
vt 0.2773 0.3479
vt 0.2776 0.3483
vt 0.2829 0.3486
vt 0.2773 0.3479
vt 0.2829 0.3486
vt 0.283 0.3481
vt 0.2745 0.3471
vt 0.275 0.3476
vt 0.2776 0.3483
vt 0.2745 0.3471
vt 0.2776 0.3483
vt 0.2773 0.3479
vt 0.2763 0.3463
vt 0.2766 0.3469
vt 0.275 0.3476
vt 0.2763 0.3463
vt 0.275 0.3476
vt 0.2745 0.3471
vt 0.2815 0.3459
vt 0.2816 0.3465
vt 0.2766 0.3469
vt 0.2815 0.3459
vt 0.2766 0.3469
vt 0.2763 0.3463
vt 0.29 0.3469
vt 0.2895 0.3475
vt 0.2869 0.3468
vt 0.29 0.3469
vt 0.2869 0.3468
vt 0.2872 0.3462
vt 0.2882 0.3477
vt 0.2878 0.3482
vt 0.2895 0.3475
vt 0.2882 0.3477
vt 0.2895 0.3475
vt 0.29 0.3469
vt 0.2878 0.3434
vt 0.2822 0.3427
vt 0.2829 0.3438
vt 0.2816 0.346
vt 0.2822 0.347
vt 0.2822 0.3476
vt 0.2816 0.346
vt 0.2822 0.3476
vt 0.2816 0.3465
vt 0.2869 0.3461
vt 0.2869 0.3468
vt 0.2868 0.3462
vt 0.2872 0.3462
vt 0.2869 0.3468
vt 0.2869 0.3461
vt 0.2815 0.3459
vt 0.2816 0.346
vt 0.2816 0.3465
vt 0.2822 0.3427
vt 0.2869 0.3419
vt 0.2868 0.3425
vt 0.2822 0.3427
vt 0.2868 0.3425
vt 0.2822 0.3432
vt 0.2869 0.3419
vt 0.2872 0.3424
vt 0.2869 0.3425
vt 0.2815 0.3422
vt 0.2816 0.3417
vt 0.2816 0.3422
vt 0.2816 0.3422
vt 0.2816 0.3417
vt 0.2816 0.3423
vt 0.2869 0.3468
vt 0.2822 0.3476
vt 0.2822 0.347
vt 0.2869 0.3468
vt 0.2822 0.347
vt 0.2868 0.3462
vt 0.2816 0.346
vt 0.2816 0.346
vt 0.2816 0.3465
vt 0.2228 0.3446
vt 0.2228 0.348
vt 0.2227 0.3481
vt 0.2228 0.3446
vt 0.2227 0.3481
vt 0.2182 0.349
vt 0.2228 0.3446
vt 0.2182 0.349
vt 0.2182 0.3452
vt 0.2228 0.3446
vt 0.2182 0.3452
vt 0.2228 0.3445
vt 0.2869 0.3419
vt 0.2869 0.3425
vt 0.2868 0.3425
vt 0.2816 0.3417
vt 0.2822 0.3427
vt 0.2822 0.3432
vt 0.2816 0.3417
vt 0.2822 0.3432
vt 0.2816 0.3423
vt 0.2815 0.3459
vt 0.2815 0.3422
vt 0.2816 0.3424
vt 0.2815 0.3459
vt 0.2816 0.3424
vt 0.2816 0.346
vt 0.2175 0.3442
vt 0.2182 0.3452
vt 0.2182 0.349
vt 0.2175 0.3442
vt 0.2182 0.349
vt 0.2175 0.348
vt 0.2175 0.3442
vt 0.2175 0.348
vt 0.2175 0.3478
vt 0.2175 0.3442
vt 0.2175 0.3478
vt 0.2175 0.3444
vt 0.2872 0.3424
vt 0.2872 0.3462
vt 0.2869 0.346
vt 0.2872 0.3424
vt 0.2869 0.346
vt 0.2869 0.3425

# 252 Vertex Normals
vn -0.04585 -0.874287 -0.483239
vn 0.0 -1.0 0.0
vn -0.374135 -0.874278 -0.30929
vn 0.045852 -0.874286 0.48324
vn 0.0 -1.0 0.0
vn 0.374125 -0.874284 0.309286
vn 0.911476 -0.360411 -0.19828
vn 0.903928 0.360428 -0.23023
vn 0.801972 0.360424 0.476378
vn 0.911476 -0.360411 -0.19828
vn 0.801972 0.360424 0.476378
vn 0.784717 -0.360408 0.504307
vn -0.068594 -0.903691 0.422655
vn 0.0 -1.0 0.0
vn 0.045852 -0.874286 0.48324
vn -0.374135 -0.874278 -0.30929
vn 0.0 -1.0 0.0
vn -0.556667 -0.825808 -0.09035
vn 0.309282 -0.874285 -0.374126
vn 0.0 -1.0 0.0
vn -0.04585 -0.874287 -0.483239
vn 0.443923 0.874292 0.19633
vn -0.0 1.0 0.0
vn 0.175078 0.874294 0.452722
vn 0.175078 0.874294 0.452722
vn -0.0 1.0 0.0
vn -0.090336 0.825844 0.556616
vn -0.422665 0.903686 -0.068601
vn -0.0 1.0 0.0
vn -0.443945 0.874279 -0.196339
vn -0.17508 0.874292 -0.452725
vn -0.0 1.0 0.0
vn 0.196326 0.874294 -0.443922
vn -0.443945 0.874279 -0.196339
vn -0.0 1.0 0.0
vn -0.17508 0.874292 -0.452725
vn 0.196326 0.874294 -0.443922
vn -0.0 1.0 0.0
vn 0.452724 0.874294 -0.175074
vn 0.452724 0.874294 -0.175074
vn -0.0 1.0 0.0
vn 0.443923 0.874292 0.19633
vn -0.198287 -0.360409 -0.911475
vn -0.230236 0.360429 -0.903926
vn 0.476373 0.360425 -0.801974
vn -0.198287 -0.360409 -0.911475
vn 0.476373 0.360425 -0.801974
vn 0.504302 -0.36041 -0.784719
vn 0.784717 -0.360408 0.504307
vn 0.801972 0.360424 0.476378
vn 0.230235 0.360428 0.903927
vn 0.784717 -0.360408 0.504307
vn 0.230235 0.360428 0.903927
vn 0.198286 -0.360411 0.911475
vn 0.48324 -0.874287 -0.045846
vn 0.0 -1.0 0.0
vn 0.309282 -0.874285 -0.374126
vn -0.784727 -0.360386 -0.504306
vn -0.801977 0.360413 -0.476378
vn -0.230236 0.360429 -0.903926
vn -0.784727 -0.360386 -0.504306
vn -0.230236 0.360429 -0.903926
vn -0.198287 -0.360409 -0.911475
vn 0.504302 -0.36041 -0.784719
vn 0.476373 0.360425 -0.801974
vn 0.903928 0.360428 -0.23023
vn 0.504302 -0.36041 -0.784719
vn 0.903928 0.360428 -0.23023
vn 0.911476 -0.360411 -0.19828
vn 0.198286 -0.360411 0.911475
vn 0.230235 0.360428 0.903927
vn -0.156181 0.222594 0.96232
vn 0.198286 -0.360411 0.911475
vn -0.156181 0.222594 0.96232
vn -0.143449 -0.445178 0.883877
vn -0.962324 -0.222568 -0.15619
vn -0.883885 0.445158 -0.143459
vn -0.801977 0.360413 -0.476378
vn -0.962324 -0.222568 -0.15619
vn -0.801977 0.360413 -0.476378
vn -0.784727 -0.360386 -0.504306
vn 0.48324 -0.874287 -0.045846
vn 0.911476 -0.360411 -0.19828
vn 0.784717 -0.360408 0.504307
vn 0.48324 -0.874287 -0.045846
vn 0.784717 -0.360408 0.504307
vn 0.374125 -0.874284 0.309286
vn 0.309282 -0.874285 -0.374126
vn 0.504302 -0.36041 -0.784719
vn 0.911476 -0.360411 -0.19828
vn 0.309282 -0.874285 -0.374126
vn 0.911476 -0.360411 -0.19828
vn 0.48324 -0.874287 -0.045846
vn -0.04585 -0.874287 -0.483239
vn -0.198287 -0.360409 -0.911475
vn 0.504302 -0.36041 -0.784719
vn -0.04585 -0.874287 -0.483239
vn 0.504302 -0.36041 -0.784719
vn 0.309282 -0.874285 -0.374126
vn -0.374135 -0.874278 -0.30929
vn -0.784727 -0.360386 -0.504306
vn -0.198287 -0.360409 -0.911475
vn -0.374135 -0.874278 -0.30929
vn -0.198287 -0.360409 -0.911475
vn -0.04585 -0.874287 -0.483239
vn -0.556667 -0.825808 -0.09035
vn -0.962324 -0.222568 -0.15619
vn -0.784727 -0.360386 -0.504306
vn -0.556667 -0.825808 -0.09035
vn -0.784727 -0.360386 -0.504306
vn -0.374135 -0.874278 -0.30929
vn 0.045852 -0.874286 0.48324
vn 0.198286 -0.360411 0.911475
vn -0.143449 -0.445178 0.883877
vn 0.045852 -0.874286 0.48324
vn -0.143449 -0.445178 0.883877
vn -0.068594 -0.903691 0.422655
vn 0.374125 -0.874284 0.309286
vn 0.784717 -0.360408 0.504307
vn 0.198286 -0.360411 0.911475
vn 0.374125 -0.874284 0.309286
vn 0.198286 -0.360411 0.911475
vn 0.045852 -0.874286 0.48324
vn 0.903928 0.360428 -0.23023
vn 0.452724 0.874294 -0.175074
vn 0.443923 0.874292 0.19633
vn 0.903928 0.360428 -0.23023
vn 0.443923 0.874292 0.19633
vn 0.801972 0.360424 0.476378
vn 0.476373 0.360425 -0.801974
vn 0.196326 0.874294 -0.443922
vn 0.452724 0.874294 -0.175074
vn 0.476373 0.360425 -0.801974
vn 0.452724 0.874294 -0.175074
vn 0.903928 0.360428 -0.23023
vn -0.230236 0.360429 -0.903926
vn -0.17508 0.874292 -0.452725
vn 0.196326 0.874294 -0.443922
vn -0.230236 0.360429 -0.903926
vn 0.196326 0.874294 -0.443922
vn 0.476373 0.360425 -0.801974
vn -0.801977 0.360413 -0.476378
vn -0.443945 0.874279 -0.196339
vn -0.17508 0.874292 -0.452725
vn -0.801977 0.360413 -0.476378
vn -0.17508 0.874292 -0.452725
vn -0.230236 0.360429 -0.903926
vn -0.883885 0.445158 -0.143459
vn -0.422665 0.903686 -0.068601
vn -0.443945 0.874279 -0.196339
vn -0.883885 0.445158 -0.143459
vn -0.443945 0.874279 -0.196339
vn -0.801977 0.360413 -0.476378
vn 0.230235 0.360428 0.903927
vn 0.175078 0.874294 0.452722
vn -0.090336 0.825844 0.556616
vn 0.230235 0.360428 0.903927
vn -0.090336 0.825844 0.556616
vn -0.156181 0.222594 0.96232
vn 0.801972 0.360424 0.476378
vn 0.443923 0.874292 0.19633
vn 0.175078 0.874294 0.452722
vn 0.801972 0.360424 0.476378
vn 0.175078 0.874294 0.452722
vn 0.230235 0.360428 0.903927
vn 0.374125 -0.874284 0.309286
vn 0.0 -1.0 0.0
vn 0.48324 -0.874287 -0.045846
vn 0.229747 -0.000003 0.97325
vn 0.229727 0.000001 0.973255
vn 0.229727 -0.000012 0.973255
vn 0.229747 -0.000003 0.97325
vn 0.229727 -0.000012 0.973255
vn 0.22977 -0.000008 0.973245
vn -0.850614 0.0 -0.525791
vn -0.850629 0.000001 -0.525766
vn -0.850642 0.000001 -0.525746
vn -0.850593 0.0 -0.525824
vn -0.850629 0.000001 -0.525766
vn -0.850614 0.0 -0.525791
vn 0.229803 -0.0 0.973237
vn 0.229772 0.000001 0.973244
vn 0.22977 -0.000008 0.973245
vn -0.850639 -0.000024 -0.525751
vn -0.850657 -0.000016 -0.525721
vn -0.850663 0.000027 -0.525711
vn -0.850639 -0.000024 -0.525751
vn -0.850663 0.000027 -0.525711
vn -0.850638 0.000052 -0.525751
vn -0.850657 -0.000016 -0.525721
vn -0.850594 -0.0 -0.525824
vn -0.850641 0.000022 -0.525747
vn 0.229803 -0.0 0.973237
vn 0.22974 -0.000002 0.973252
vn 0.229762 -0.0 0.973247
vn 0.229762 -0.0 0.973247
vn 0.22974 -0.000002 0.973252
vn 0.229727 0.0 0.973255
vn -0.850629 0.000001 -0.525766
vn -0.85064 -0.0 -0.525749
vn -0.85064 0.000001 -0.525749
vn -0.850629 0.000001 -0.525766
vn -0.85064 0.000001 -0.525749
vn -0.850642 0.000001 -0.525746
vn 0.229772 0.000001 0.973244
vn 0.229747 -0.000003 0.97325
vn 0.22977 -0.000008 0.973245
vn -0.850641 0.000022 -0.525747
vn -0.850614 0.0 -0.525791
vn -0.850642 0.000001 -0.525746
vn -0.850641 0.000022 -0.525747
vn -0.850642 0.000001 -0.525746
vn -0.85064 0.000001 -0.525749
vn -0.850641 0.000022 -0.525747
vn -0.85064 0.000001 -0.525749
vn -0.850638 0.000052 -0.525751
vn -0.850641 0.000022 -0.525747
vn -0.850638 0.000052 -0.525751
vn -0.850663 0.000027 -0.525711
vn -0.850657 -0.000016 -0.525721
vn -0.850641 0.000022 -0.525747
vn -0.850663 0.000027 -0.525711
vn 0.22974 -0.000002 0.973252
vn 0.229728 0.0 0.973255
vn 0.229728 -0.000002 0.973255
vn 0.22974 -0.000002 0.973252
vn 0.229728 -0.000002 0.973255
vn 0.229727 0.0 0.973255
vn 0.229803 -0.0 0.973237
vn 0.229803 -0.0 0.973237
vn 0.229762 -0.0 0.973247
vn 0.229803 -0.0 0.973237
vn 0.229762 -0.0 0.973247
vn 0.229772 0.000001 0.973244
vn 0.229727 0.0 0.973255
vn 0.229728 -0.000002 0.973255
vn 0.229727 0.000001 0.973255
vn 0.229727 0.0 0.973255
vn 0.229727 0.000001 0.973255
vn 0.229747 -0.000003 0.97325
vn 0.229727 0.0 0.973255
vn 0.229747 -0.000003 0.97325
vn 0.229772 0.000001 0.973244
vn 0.229727 0.0 0.973255
vn 0.229772 0.000001 0.973244
vn 0.229762 -0.0 0.973247
vn -0.850594 -0.0 -0.525824
vn -0.850593 0.0 -0.525824
vn -0.850614 0.0 -0.525791
vn -0.850594 -0.0 -0.525824
vn -0.850614 0.0 -0.525791
vn -0.850641 0.000022 -0.525747

# , 84 grouped triangles

usemtl world_001
o 
g 

f 10/1/1 2/2/2 12/3/3
f 18/4/4 2/5/5 3/6/6
f 5/7/7 22/8/8 19/9/9
f 5/10/10 19/11/11 4/12/12
f 16/13/13 2/14/14 18/15/15
f 12/16/16 2/17/17 14/18/18
f 8/19/19 2/20/20 10/21/21
f 20/22/22 1/23/23 33/24/24
f 33/25/25 1/26/26 31/27/27
f 29/28/28 1/29/29 27/30/30
f 25/31/31 1/32/32 23/33/33
f 27/34/34 1/35/35 25/36/36
f 23/37/37 1/38/38 21/39/39
f 21/40/40 1/41/41 20/42/42
f 9/43/43 26/44/44 24/45/45
f 9/46/46 24/47/47 7/48/48
f 4/49/49 19/50/50 34/51/51
f 4/52/52 34/53/53 17/54/54
f 6/55/55 2/56/56 8/57/57
f 11/58/58 28/59/59 26/60/60
f 11/61/61 26/62/62 9/63/63
f 7/64/64 24/65/65 22/66/66
f 7/67/67 22/68/68 5/69/69
f 17/70/70 34/71/71 32/72/72
f 17/73/73 32/74/74 15/75/75
f 13/76/76 30/77/77 28/78/78
f 13/79/79 28/80/80 11/81/81
f 6/82/82 5/83/83 4/84/84
f 6/85/85 4/86/86 3/87/87
f 8/88/88 7/89/89 5/90/90
f 8/91/91 5/92/92 6/93/93
f 10/94/94 9/95/95 7/96/96
f 10/97/97 7/98/98 8/99/99
f 12/100/100 11/101/101 9/102/102
f 12/103/103 9/104/104 10/105/105
f 14/106/106 13/107/107 11/108/108
f 14/109/109 11/110/110 12/111/111
f 18/112/112 17/113/113 15/114/114
f 18/115/115 15/116/116 16/117/117
f 3/118/118 4/119/119 17/120/120
f 3/121/121 17/122/122 18/123/123
f 22/124/124 21/125/125 20/126/126
f 22/127/127 20/128/128 19/129/129
f 24/130/130 23/131/131 21/132/132
f 24/133/133 21/134/134 22/135/135
f 26/136/136 25/137/137 23/138/138
f 26/139/139 23/140/140 24/141/141
f 28/142/142 27/143/143 25/144/144
f 28/145/145 25/146/146 26/147/147
f 30/148/148 29/149/149 27/150/150
f 30/151/151 27/152/152 28/153/153
f 34/154/154 33/155/155 31/156/156
f 34/157/157 31/158/158 32/159/159
f 19/160/160 20/161/161 33/162/162
f 19/163/163 33/164/164 34/165/165
f 3/166/166 2/167/167 6/168/168
f 41/169/169 37/170/170 1/171/171
f 41/172/172 1/173/173 29/174/174
f 36/175/175 31/176/176 42/177/177
f 32/178/178 31/179/179 36/180/180
f 30/181/181 35/182/182 29/183/183
f 2/184/184 16/185/185 44/186/186
f 2/187/187 44/188/188 40/189/189
f 16/190/190 15/191/191 38/192/192
f 13/193/193 14/194/194 39/195/195
f 39/196/196 14/197/197 43/198/198
f 31/199/199 1/200/200 37/201/201
f 31/202/202 37/203/203 42/204/204
f 35/205/205 41/206/206 29/207/207
f 38/208/208 36/209/209 42/210/210
f 38/211/211 42/212/212 37/213/213
f 38/214/214 37/215/215 40/216/216
f 38/217/217 40/218/218 44/219/219
f 16/220/220 38/221/221 44/222/222
f 14/223/223 2/224/224 40/225/225
f 14/226/226 40/227/227 43/228/228
f 30/229/229 13/230/230 39/231/231
f 30/232/232 39/233/233 35/234/234
f 43/235/235 40/236/236 37/237/237
f 43/238/238 37/239/239 41/240/240
f 43/241/241 41/242/242 35/243/243
f 43/244/244 35/245/245 39/246/246
f 15/247/247 32/248/248 36/249/249
f 15/250/250 36/251/251 38/252/252
