# Blender 3.4.1
# www.blender.org
mtllib tris.mtl
o Fountain_02
v -0.005633 0.000000 -0.021024
v -0.004933 0.004252 -0.018409
v 0.005633 0.000000 -0.021024
v 0.004933 0.004252 -0.018409
v 0.015390 0.000000 -0.015390
v 0.013476 0.004252 -0.013476
v 0.021024 0.000000 -0.005633
v 0.018409 0.004252 -0.004933
v 0.021024 -0.000000 0.005633
v 0.018409 0.004252 0.004933
v 0.015390 -0.000000 0.015390
v 0.013476 0.004252 0.013476
v 0.005633 -0.000000 0.021024
v 0.004933 0.004252 0.018409
v -0.005633 -0.000000 0.021024
v -0.004933 0.004252 0.018409
v -0.015390 -0.000000 0.015390
v -0.013476 0.004252 0.013476
v -0.021024 -0.000000 0.005633
v -0.018409 0.004252 0.004933
v -0.021024 0.000000 -0.005633
v -0.018409 0.004252 -0.004933
v -0.015390 0.000000 -0.015390
v -0.013476 0.004252 -0.013476
v 0.005633 0.004252 -0.021024
v -0.005633 0.004252 -0.021024
v 0.015390 0.004252 -0.015390
v 0.021024 0.004252 -0.005633
v 0.021024 0.004252 0.005633
v 0.015390 0.004252 0.015390
v 0.005633 0.004252 0.021024
v -0.005633 0.004252 0.021024
v -0.015390 0.004252 0.015390
v -0.021024 0.004252 0.005633
v -0.021024 0.004252 -0.005633
v -0.015390 0.004252 -0.015390
v 0.004933 0.003459 -0.018409
v -0.004933 0.003459 -0.018409
v 0.013476 0.003459 -0.013476
v 0.018409 0.003459 -0.004933
v 0.018409 0.003459 0.004933
v 0.013476 0.003459 0.013476
v 0.004933 0.003459 0.018409
v -0.004933 0.003459 0.018409
v -0.013476 0.003459 0.013476
v -0.018409 0.003459 0.004933
v -0.018409 0.003459 -0.004933
v -0.013476 0.003459 -0.013476
v -0.002638 0.002918 -0.006370
v -0.002638 0.004543 -0.006370
v 0.002638 0.002918 -0.006370
v 0.002638 0.004543 -0.006370
v 0.006370 0.002918 -0.002638
v 0.006370 0.004543 -0.002638
v 0.006370 0.002918 0.002638
v 0.006370 0.004543 0.002638
v 0.002638 0.002918 0.006370
v 0.002638 0.004543 0.006370
v -0.002638 0.002918 0.006370
v -0.002638 0.004543 0.006370
v -0.006370 0.002918 0.002638
v -0.006370 0.004543 0.002638
v -0.006370 0.002918 -0.002638
v -0.006370 0.004543 -0.002638
v -0.003730 -0.000000 0.003730
v -0.003730 0.007459 0.003730
v -0.003730 0.000000 -0.003730
v -0.003730 0.007459 -0.003730
v 0.003730 -0.000000 0.003730
v 0.003730 0.007459 0.003730
v 0.003730 0.000000 -0.003730
v 0.003730 0.007459 -0.003730
v -0.003193 0.008566 0.003193
v -0.003193 0.008566 -0.003193
v 0.003193 0.008566 -0.003193
v 0.003193 0.008566 0.003193
v -0.003193 0.018990 0.003193
v -0.003193 0.018990 -0.003193
v 0.003193 0.018990 -0.003193
v 0.003193 0.018990 0.003193
v -0.002029 0.020044 0.002029
v -0.002029 0.020044 -0.002029
v 0.002029 0.020044 -0.002029
v 0.002029 0.020044 0.002029
v -0.002029 0.021359 0.002029
v -0.002029 0.021359 -0.002029
v 0.002029 0.021359 -0.002029
v 0.002029 0.021359 0.002029
v -0.003578 0.022519 0.003578
v -0.003578 0.022519 -0.003578
v 0.003578 0.022519 -0.003578
v 0.003578 0.022519 0.003578
v -0.003578 0.023840 0.003578
v -0.003578 0.023840 -0.003578
v 0.003578 0.023840 -0.003578
v 0.003578 0.023840 0.003578
v -0.002665 0.024202 0.002665
v -0.002665 0.024202 -0.002665
v 0.002665 0.024202 -0.002665
v 0.002665 0.024202 0.002665
v 0.003193 0.018417 0.003193
v 0.003193 0.009026 0.003193
v -0.003193 0.009026 0.003193
v -0.003193 0.018417 0.003193
v -0.003193 0.018417 -0.003193
v -0.003193 0.009026 -0.003193
v 0.003193 0.009026 -0.003193
v 0.003193 0.018417 -0.003193
vn -0.0000 -0.0000 -1.0000
vn 0.5000 -0.0000 -0.8660
vn 0.8660 -0.0000 -0.5000
vn 1.0000 -0.0000 -0.0000
vn 0.8660 -0.0000 0.5000
vn 0.5000 -0.0000 0.8660
vn -0.0000 -0.0000 1.0000
vn -0.5000 -0.0000 0.8660
vn -0.8660 -0.0000 0.5000
vn -1.0000 -0.0000 -0.0000
vn -0.8660 -0.0000 -0.5000
vn -0.5000 -0.0000 -0.8660
vn -0.0000 -1.0000 -0.0000
vn -0.0000 1.0000 -0.0000
vn 0.7071 -0.0000 -0.7071
vn 0.7071 -0.0000 0.7071
vn -0.7071 -0.0000 0.7071
vn -0.7071 -0.0000 -0.7071
vn -0.8997 0.4365 -0.0000
vn -0.0000 0.4365 0.8997
vn -0.0000 0.4365 -0.8997
vn 0.8997 0.4365 -0.0000
vn 0.6715 0.7410 -0.0000
vn -0.6715 0.7410 -0.0000
vn -0.0000 0.7410 0.6715
vn -0.0000 0.7410 -0.6715
vn -0.0000 -0.8006 0.5992
vn -0.0000 -0.8006 -0.5992
vn 0.5992 -0.8006 -0.0000
vn -0.5992 -0.8006 -0.0000
vn -0.0000 0.9297 0.3683
vn -0.0000 0.9297 -0.3683
vn 0.3683 0.9297 -0.0000
vn -0.3683 0.9297 -0.0000
vt 0.659695 0.045482
vt 0.660174 0.043697
vt 0.667387 0.045482
vt 0.666909 0.043697
vt 0.674049 0.041636
vt 0.672742 0.040329
vt 0.677895 0.034975
vt 0.676110 0.034497
vt 0.677895 0.027283
vt 0.676110 0.027761
vt 0.674049 0.020621
vt 0.672742 0.021928
vt 0.667387 0.016775
vt 0.666909 0.018561
vt 0.659695 0.016775
vt 0.660174 0.018561
vt 0.653034 0.020621
vt 0.654341 0.021928
vt 0.649188 0.027283
vt 0.650973 0.027761
vt 0.649188 0.034975
vt 0.650973 0.034496
vt 0.653034 0.041636
vt 0.654341 0.040329
vt 0.667387 0.045482
vt 0.659695 0.045482
vt 0.674049 0.041636
vt 0.677895 0.034975
vt 0.677895 0.027283
vt 0.674049 0.020621
vt 0.667387 0.016775
vt 0.659695 0.016775
vt 0.653034 0.020621
vt 0.649188 0.027283
vt 0.649188 0.034975
vt 0.653034 0.041636
vt 0.718065 0.370788
vt 0.666909 0.043697
vt 0.711330 0.370788
vt 0.660174 0.043697
vt 0.723898 0.367421
vt 0.672742 0.040329
vt 0.727266 0.361588
vt 0.676110 0.034497
vt 0.727266 0.354853
vt 0.676110 0.027761
vt 0.723898 0.349020
vt 0.672742 0.021928
vt 0.718065 0.345652
vt 0.666909 0.018561
vt 0.711330 0.345652
vt 0.660174 0.018561
vt 0.705497 0.349020
vt 0.654341 0.021928
vt 0.702129 0.354853
vt 0.650973 0.027761
vt 0.702129 0.361588
vt 0.650973 0.034496
vt 0.705497 0.367421
vt 0.654341 0.040329
vt 0.661740 0.035478
vt 0.661740 0.035478
vt 0.665343 0.035478
vt 0.665343 0.035478
vt 0.667890 0.032930
vt 0.667890 0.032930
vt 0.667890 0.029328
vt 0.667890 0.029328
vt 0.665343 0.026780
vt 0.665343 0.026780
vt 0.661740 0.026780
vt 0.661740 0.026780
vt 0.659193 0.029328
vt 0.659193 0.029328
vt 0.659193 0.032930
vt 0.659193 0.032930
vt 0.660995 0.028583
vt 0.660995 0.028583
vt 0.660995 0.033675
vt 0.660995 0.033675
vt 0.666088 0.028583
vt 0.666088 0.028583
vt 0.666088 0.033675
vt 0.666088 0.033675
vt 0.661362 0.028949
vt 0.661362 0.033308
vt 0.665721 0.033308
vt 0.665721 0.028949
vt 0.661362 0.028949
vt 0.661362 0.033308
vt 0.665721 0.033308
vt 0.665721 0.028949
vt 0.662156 0.029744
vt 0.662156 0.032514
vt 0.664927 0.032514
vt 0.664927 0.029744
vt 0.662156 0.029744
vt 0.662156 0.032514
vt 0.664927 0.032514
vt 0.664927 0.029744
vt 0.661098 0.028686
vt 0.661098 0.033572
vt 0.665984 0.033572
vt 0.665984 0.028686
vt 0.661098 0.028686
vt 0.661098 0.033572
vt 0.665984 0.033572
vt 0.665984 0.028686
vt 0.661722 0.029309
vt 0.661722 0.032948
vt 0.665361 0.032948
vt 0.665361 0.029309
vt 0.665721 0.028949
vt 0.665721 0.028949
vt 0.661362 0.028949
vt 0.661362 0.028949
vt 0.661362 0.033308
vt 0.661362 0.033308
vt 0.665721 0.033308
vt 0.665721 0.033308
s 1
usemtl City_05.034
f 1/1/1 26/26/1 3/3/1
f 3/3/1 26/26/1 25/25/1
f 3/3/2 25/25/2 5/5/2
f 5/5/2 25/25/2 27/27/2
f 5/5/3 27/27/3 7/7/3
f 7/7/3 27/27/3 28/28/3
f 7/7/4 28/28/4 9/9/4
f 9/9/4 28/28/4 29/29/4
f 9/9/5 29/29/5 11/11/5
f 11/11/5 29/29/5 30/30/5
f 11/11/6 30/30/6 13/13/6
f 13/13/6 30/30/6 31/31/6
f 13/13/7 31/31/7 15/15/7
f 15/15/7 31/31/7 32/32/7
f 15/15/8 32/32/8 17/17/8
f 17/17/8 32/32/8 33/33/8
f 17/17/9 33/33/9 19/19/9
f 19/19/9 33/33/9 34/34/9
f 19/19/10 34/34/10 21/21/10
f 21/21/10 34/34/10 35/35/10
f 18/18/2 16/16/2 45/54/2
f 45/54/2 16/16/2 44/52/2
f 21/21/11 35/35/11 23/23/11
f 23/23/11 35/35/11 36/36/11
f 23/23/12 36/36/12 1/1/12
f 1/1/12 36/36/12 26/26/12
f 1/1/13 3/3/13 23/23/13
f 3/3/13 5/5/13 23/23/13
f 5/5/13 7/7/13 23/23/13
f 7/7/13 9/9/13 23/23/13
f 9/9/13 11/11/13 23/23/13
f 11/11/13 13/13/13 23/23/13
f 13/13/13 15/15/13 23/23/13
f 15/15/13 17/17/13 23/23/13
f 17/17/13 19/19/13 23/23/13
f 19/19/13 21/21/13 23/23/13
f 2/2/14 4/4/14 26/26/14
f 26/26/14 4/4/14 25/25/14
f 4/4/14 6/6/14 25/25/14
f 25/25/14 6/6/14 27/27/14
f 6/6/14 8/8/14 27/27/14
f 27/27/14 8/8/14 28/28/14
f 8/8/14 10/10/14 28/28/14
f 28/28/14 10/10/14 29/29/14
f 10/10/14 12/12/14 29/29/14
f 29/29/14 12/12/14 30/30/14
f 12/12/14 14/14/14 30/30/14
f 30/30/14 14/14/14 31/31/14
f 14/14/14 16/16/14 31/31/14
f 31/31/14 16/16/14 32/32/14
f 16/16/14 18/18/14 32/32/14
f 32/32/14 18/18/14 33/33/14
f 18/18/14 20/20/14 33/33/14
f 33/33/14 20/20/14 34/34/14
f 20/20/14 22/22/14 34/34/14
f 34/34/14 22/22/14 35/35/14
f 22/22/14 24/24/14 35/35/14
f 35/35/14 24/24/14 36/36/14
f 24/24/14 2/2/14 36/36/14
f 36/36/14 2/2/14 26/26/14
f 37/37/14 38/39/14 39/41/14
f 38/39/14 48/59/14 39/41/14
f 48/59/14 47/57/14 39/41/14
f 47/57/14 46/55/14 39/41/14
f 46/55/14 45/53/14 39/41/14
f 45/53/14 44/51/14 39/41/14
f 44/51/14 43/49/14 39/41/14
f 43/49/14 42/47/14 39/41/14
f 42/47/14 41/45/14 39/41/14
f 41/45/14 40/43/14 39/41/14
f 12/12/11 10/10/11 42/48/11
f 42/48/11 10/10/11 41/46/11
f 2/2/6 24/24/6 38/40/6
f 38/40/6 24/24/6 48/60/6
f 6/6/8 4/4/8 39/42/8
f 39/42/8 4/4/8 37/38/8
f 20/20/3 18/18/3 46/56/3
f 46/56/3 18/18/3 45/54/3
f 14/14/12 12/12/12 43/50/12
f 43/50/12 12/12/12 42/48/12
f 8/8/9 6/6/9 40/44/9
f 40/44/9 6/6/9 39/42/9
f 22/22/4 20/20/4 47/58/4
f 47/58/4 20/20/4 46/56/4
f 16/16/1 14/14/1 44/52/1
f 44/52/1 14/14/1 43/50/1
f 10/10/10 8/8/10 41/46/10
f 41/46/10 8/8/10 40/44/10
f 24/24/5 22/22/5 48/60/5
f 48/60/5 22/22/5 47/58/5
f 4/4/7 2/2/7 37/38/7
f 37/38/7 2/2/7 38/40/7
f 49/61/1 50/62/1 51/63/1
f 51/63/1 50/62/1 52/64/1
f 51/63/15 52/64/15 53/65/15
f 53/65/15 52/64/15 54/66/15
f 53/65/4 54/66/4 55/67/4
f 55/67/4 54/66/4 56/68/4
f 55/67/16 56/68/16 57/69/16
f 57/69/16 56/68/16 58/70/16
f 57/69/7 58/70/7 59/71/7
f 59/71/7 58/70/7 60/72/7
f 59/71/17 60/72/17 61/73/17
f 61/73/17 60/72/17 62/74/17
f 52/64/14 50/62/14 54/66/14
f 50/62/14 64/76/14 54/66/14
f 64/76/14 62/74/14 54/66/14
f 62/74/14 60/72/14 54/66/14
f 60/72/14 58/70/14 54/66/14
f 58/70/14 56/68/14 54/66/14
f 61/73/10 62/74/10 63/75/10
f 63/75/10 62/74/10 64/76/10
f 63/75/18 64/76/18 49/61/18
f 49/61/18 64/76/18 50/62/18
f 49/61/13 51/63/13 63/75/13
f 51/63/13 53/65/13 63/75/13
f 53/65/13 55/67/13 63/75/13
f 55/67/13 57/69/13 63/75/13
f 57/69/13 59/71/13 63/75/13
f 59/71/13 61/73/13 63/75/13
f 65/77/10 66/78/10 67/79/10
f 67/79/10 66/78/10 68/80/10
f 67/79/1 68/80/1 71/83/1
f 71/83/1 68/80/1 72/84/1
f 71/83/4 72/84/4 69/81/4
f 69/81/4 72/84/4 70/82/4
f 69/81/7 70/82/7 65/77/7
f 65/77/7 70/82/7 66/78/7
f 67/79/13 71/83/13 65/77/13
f 65/77/13 71/83/13 69/81/13
f 68/80/19 66/78/19 74/86/19
f 74/86/19 66/78/19 73/85/19
f 76/88/4 75/87/4 102/114/4
f 102/114/4 75/87/4 107/119/4
f 66/78/20 70/82/20 73/85/20
f 73/85/20 70/82/20 76/88/20
f 72/84/21 68/80/21 75/87/21
f 75/87/21 68/80/21 74/86/21
f 70/82/22 72/84/22 76/88/22
f 76/88/22 72/84/22 75/87/22
f 80/92/23 79/91/23 84/96/23
f 84/96/23 79/91/23 83/95/23
f 75/87/1 74/86/1 107/119/1
f 107/119/1 74/86/1 106/118/1
f 73/85/7 76/88/7 103/115/7
f 103/115/7 76/88/7 102/114/7
f 108/120/1 105/117/1 79/91/1
f 79/91/1 105/117/1 78/90/1
f 82/94/10 81/93/10 86/98/10
f 86/98/10 81/93/10 85/97/10
f 78/90/24 77/89/24 82/94/24
f 82/94/24 77/89/24 81/93/24
f 77/89/25 80/92/25 81/93/25
f 81/93/25 80/92/25 84/96/25
f 79/91/26 78/90/26 83/95/26
f 83/95/26 78/90/26 82/94/26
f 85/97/27 88/100/27 89/101/27
f 89/101/27 88/100/27 92/104/27
f 81/93/7 84/96/7 85/97/7
f 85/97/7 84/96/7 88/100/7
f 83/95/1 82/94/1 87/99/1
f 87/99/1 82/94/1 86/98/1
f 84/96/4 83/95/4 88/100/4
f 88/100/4 83/95/4 87/99/4
f 92/104/4 91/103/4 96/108/4
f 96/108/4 91/103/4 95/107/4
f 87/99/28 86/98/28 91/103/28
f 91/103/28 86/98/28 90/102/28
f 88/100/29 87/99/29 92/104/29
f 92/104/29 87/99/29 91/103/29
f 86/98/30 85/97/30 90/102/30
f 90/102/30 85/97/30 89/101/30
f 93/105/31 96/108/31 97/109/31
f 97/109/31 96/108/31 100/112/31
f 90/102/10 89/101/10 94/106/10
f 94/106/10 89/101/10 93/105/10
f 89/101/7 92/104/7 93/105/7
f 93/105/7 92/104/7 96/108/7
f 91/103/1 90/102/1 95/107/1
f 95/107/1 90/102/1 94/106/1
f 99/111/14 98/110/14 100/112/14
f 100/112/14 98/110/14 97/109/14
f 95/107/32 94/106/32 99/111/32
f 99/111/32 94/106/32 98/110/32
f 96/108/33 95/107/33 100/112/33
f 100/112/33 95/107/33 99/111/33
f 94/106/34 93/105/34 98/110/34
f 98/110/34 93/105/34 97/109/34
f 105/117/10 104/116/10 78/90/10
f 78/90/10 104/116/10 77/89/10
f 74/86/10 73/85/10 106/118/10
f 106/118/10 73/85/10 103/115/10
f 104/116/7 101/113/7 77/89/7
f 77/89/7 101/113/7 80/92/7
f 101/113/4 108/120/4 80/92/4
f 80/92/4 108/120/4 79/91/4
f 108/120/4 101/113/4 107/119/4
f 107/119/4 101/113/4 102/114/4
f 101/113/7 104/116/7 102/114/7
f 102/114/7 104/116/7 103/115/7
f 104/116/10 105/117/10 103/115/10
f 103/115/10 105/117/10 106/118/10
f 105/117/1 108/120/1 106/118/1
f 106/118/1 108/120/1 107/119/1
