# Wavefront OBJ file
# Exported by Misfit Model 3D 1.3.8
# Thu Jan 14 14:19:11 2021

# 14 Vertices
v -2.220178 0.350138 5.249642
v -0.245985 0.030064 4.999415
v -2.380153 -0.636982 5.25017
v -0.40596 -0.957058 4.999943
v -0.24795 0.025035 -5.000583
v -2.222242 0.344859 -5.250356
v -0.407925 -0.962085 -5.000056
v -2.382217 -0.642262 -5.249829
v -15.882307 3.570746 -6.999294
v -15.879555 3.577785 7.000705
v -16.042281 2.583625 -6.998766
v -16.03953 2.590663 7.001232
v -0.08601 1.017184 4.998887
v -0.087976 1.012157 -5.001111

# 72 Texture Coordinates
vt 17.0625 17.4375
vt 17.03125 17.5
vt 17.03125 17.4375
vt 17.0625 17.4375
vt 17.0625 17.5
vt 17.03125 17.5
vt -17.0625 17.5
vt -17.03125 17.4375
vt -17.03125 17.5
vt -17.0625 17.5
vt -17.0625 17.4375
vt -17.03125 17.4375
vt 15.46875 18.03125
vt 15.03125 18.0
vt 15.46875 18.0
vt 15.46875 18.03125
vt 15.03125 18.03125
vt 15.03125 18.0
vt 15.414063 17.4375
vt 15.03125 17.0
vt 15.46875 17.0
vt 15.414063 17.4375
vt 15.085938 17.4375
vt 15.03125 17.0
vt 15.414063 18.0625
vt 15.085938 18.03125
vt 15.414063 18.03125
vt 15.414063 18.0625
vt 15.085938 18.0625
vt 15.085938 18.03125
vt 17.03125 17.0
vt 17.0 17.5
vt 17.0 17.0
vt 17.03125 17.4375
vt 17.03125 17.5
vt 17.0 17.5
vt 17.03125 17.0
vt 17.03125 17.4375
vt 17.0 17.5
vt 15.40625 -16.0
vt 15.09375 -16.0
vt 15.09375 -16.03125
vt 15.09375 -16.03125
vt 15.09375 -16.0625
vt 15.40625 -16.0
vt 15.40625 -16.03125
vt 15.40625 -16.0
vt 15.09375 -16.0625
vt 15.09375 -16.0625
vt 15.40625 -16.0625
vt 15.40625 -16.03125
vt 15.414063 17.4375
vt 15.09375 17.5
vt 15.085938 17.4375
vt 15.414063 17.4375
vt 15.40625 17.5
vt 15.09375 17.5
vt -17.03125 17.5
vt -17.0 17.0
vt -17.0 17.5
vt -17.03125 17.4375
vt -17.03125 17.0
vt -17.0 17.0
vt -17.03125 17.5
vt -17.03125 17.4375
vt -17.0 17.0
vt -30.8125 34.0
vt -30.0625 33.0
vt -30.1875 34.0
vt -30.8125 34.0
vt -30.9375 33.0
vt -30.0625 33.0

# 72 Vertex Normals
vn 0.122632 -0.019343 0.992264
vn 0.615322 -0.099302 0.781996
vn 0.122632 -0.019343 0.992264
vn 0.122632 -0.019343 0.992264
vn 0.940863 -0.152316 0.302615
vn 0.615322 -0.099302 0.781996
vn 0.525343 -0.08559 -0.846575
vn 0.122242 -0.020341 -0.992292
vn 0.615014 -0.100088 -0.782138
vn 0.525343 -0.08559 -0.846575
vn 0.122242 -0.020341 -0.992292
vn 0.122242 -0.020341 -0.992292
vn -0.987121 0.159975 0.000114
vn -0.987121 0.159975 0.000114
vn -0.987121 0.159975 0.000114
vn -0.987121 0.159975 0.000114
vn -0.987121 0.159975 0.000114
vn -0.987121 0.159975 0.000114
vn -0.159975 -0.987121 0.000528
vn -0.159975 -0.987121 0.000528
vn -0.159975 -0.987121 0.000528
vn -0.159975 -0.987121 0.000528
vn -0.159975 -0.987121 0.000528
vn -0.159975 -0.987121 0.000528
vn -0.987121 0.159975 0.000114
vn -0.987121 0.159975 0.000114
vn -0.987121 0.159975 0.000114
vn -0.987121 0.159975 0.000114
vn -0.987121 0.159975 0.000114
vn -0.987121 0.159975 0.000114
vn 0.122632 -0.019344 0.992264
vn 0.413388 -0.066509 0.908123
vn 0.122632 -0.019344 0.992264
vn 0.122632 -0.019343 0.992264
vn 0.615322 -0.099302 0.781996
vn 0.413388 -0.066509 0.908123
vn 0.122632 -0.019344 0.992264
vn 0.122632 -0.019343 0.992264
vn 0.413388 -0.066509 0.908123
vn 0.940744 -0.152621 -0.302832
vn 0.413388 -0.066509 0.908123
vn 0.615322 -0.099302 0.781996
vn 0.615322 -0.099302 0.781996
vn 0.940863 -0.152316 0.302615
vn 0.940744 -0.152621 -0.302832
vn 0.615014 -0.100088 -0.782138
vn 0.940744 -0.152621 -0.302832
vn 0.940863 -0.152316 0.302615
vn 0.940863 -0.152316 0.302615
vn 0.525343 -0.08559 -0.846575
vn 0.615014 -0.100088 -0.782138
vn -0.159975 -0.987121 0.000528
vn -0.159975 -0.987121 0.000528
vn -0.159975 -0.987121 0.000528
vn -0.159975 -0.987121 0.000528
vn -0.159974 -0.987121 0.000528
vn -0.159975 -0.987121 0.000528
vn 0.615014 -0.100088 -0.782138
vn 0.122242 -0.020341 -0.992292
vn 0.940744 -0.152621 -0.302832
vn 0.122242 -0.020341 -0.992292
vn 0.122242 -0.020341 -0.992292
vn 0.122242 -0.020341 -0.992292
vn 0.615014 -0.100088 -0.782138
vn 0.122242 -0.020341 -0.992292
vn 0.122242 -0.020341 -0.992292
vn 0.159975 0.987121 -0.000528
vn 0.159975 0.987121 -0.000528
vn 0.159975 0.987121 -0.000528
vn 0.159975 0.987121 -0.000528
vn 0.159975 0.987121 -0.000528
vn 0.159975 0.987121 -0.000528

# slot4, 22 grouped triangles

o slot4
g slot4

f 3/1/1 2/2/2 1/3/3
f 3/4/4 4/5/5 2/6/6
f 7/7/7 6/8/8 5/9/9
f 7/10/10 8/11/11 6/12/12
f 11/13/13 10/14/14 9/15/15
f 11/16/16 12/17/17 10/18/18
f 6/19/19 12/20/20 11/21/21
f 6/22/22 1/23/23 12/24/24
f 8/25/25 1/26/26 6/27/27
f 8/28/28 3/29/29 1/30/30
f 12/31/31 13/32/32 10/33/33
f 1/34/34 2/35/35 13/36/36
f 12/37/37 1/38/38 13/39/39
f 14/40/40 13/41/41 2/42/42
f 2/43/43 4/44/44 14/45/45
f 5/46/46 14/47/47 4/48/48
f 4/49/49 7/50/50 5/51/51
f 8/52/52 4/53/53 3/54/54
f 8/55/55 7/56/56 4/57/57
f 5/58/58 9/59/59 14/60/60
f 6/61/61 11/62/62 9/63/63
f 5/64/64 6/65/65 9/66/66
# slot23, 2 grouped triangles

o slot23
g slot23

f 14/67/67 10/68/68 13/69/69
f 14/70/70 9/71/71 10/72/72
