# Wavefront OBJ file
# Exported by Misfit Model 3D 1.3.8
# Tue Oct 27 20:38:26 2020

mtllib tris.mtl

# 32 Vertices
v 0.523906 2.281493 0.347743
v 0.460422 1.948832 -0.506646
v -0.060239 1.908545 -0.63495
v 0.036272 1.891501 0.670951
v -0.279713 1.857401 0.59304
v 0.323454 2.306843 0.478221
v 0.160465 2.580787 0.238132
v -0.606546 1.796118 0.161403
v -0.369859 2.192271 0.334525
v -0.553171 1.917323 -0.371251
v -0.282314 2.098444 -0.518106
v 0.224057 2.582337 -0.02488
v 0.157641 2.580718 0.237273
v -0.595427 1.94639 -0.045438
v 0.615583 2.227553 0.025477
v 0.335553 2.585046 0.088088
v 0.335553 2.585046 -0.002305
v 0.549094 2.312434 -0.189233
v -0.020917 -0.090618 -0.63495
v -0.513471 -0.1011 -0.371251
v -0.242433 -0.037994 0.59304
v -0.581161 -0.124257 0.161403
v -0.550914 -0.28672 -0.050046
v 0.073131 0.017488 0.670951
v -0.175727 -0.484203 0.046527
v 0.570623 -0.093615 0.347743
v 0.451395 -0.156957 0.426356
v 0.108881 -0.434172 0.126101
v 0.496613 0.108882 -0.506646
v 0.197802 -0.190555 -0.581616
v 0.660907 -0.076817 0.025477
v 0.222207 -0.421091 -0.218186

# 180 Texture Coordinates
vt 0.999905 0.363432
vt 0.909104 0.236341
vt 0.899327 0.075442
vt 0.999904 0.365705
vt 0.999905 0.363432
vt 1.0 0.222503
vt 0.791002 0.131423
vt 0.781686 0.550913
vt 0.999941 0.312247
vt 1.0 0.222503
vt 1.0 0.222503
vt 0.881007 0.002479
vt 0.899327 0.075442
vt 0.909104 0.236341
vt 0.775397 0.473517
vt 0.845439 0.726782
vt 0.788212 0.94737
vt 0.798032 0.980938
vt 0.120726 1.0
vt 0.0 0.679118
vt 0.146426 0.726205
vt 0.766587 0.728244
vt 0.876774 0.795832
vt 0.748968 0.9921
vt 0.909104 0.236341
vt 0.999905 0.363432
vt 0.999904 0.365705
vt 1.0 0.222503
vt 1.0 0.222503
vt 0.999941 0.312247
vt 1.0 0.222503
vt 0.90926 0.054721
vt 0.999941 0.312247
vt 0.845439 0.726782
vt 0.999941 0.312247
vt 0.781686 0.550913
vt 0.788212 0.94737
vt 0.845439 0.726782
vt 0.781686 0.550913
vt 0.798032 0.980938
vt 0.788212 0.94737
vt 0.127797 0.945198
vt 0.791002 0.131423
vt 0.90926 0.054721
vt 0.881007 0.002479
vt 0.162232 0.471501
vt 0.0 0.679118
vt 0.014253 0.449401
vt 0.127573 0.548762
vt 0.127797 0.945198
vt 0.781686 0.550913
vt 0.127797 0.945198
vt 0.127573 0.548762
vt 0.01769 0.358032
vt 0.120726 1.0
vt 0.146426 0.726205
vt 0.748968 0.9921
vt 0.748968 0.9921
vt 0.798032 0.980938
vt 0.120726 1.0
vt 0.122207 0.072886
vt 0.127032 0.0
vt 0.881007 0.002479
vt 0.162232 0.471501
vt 0.102375 0.169744
vt 0.775397 0.473517
vt 0.899327 0.075442
vt 0.122207 0.072886
vt 0.881007 0.002479
vt 0.899327 0.075442
vt 0.881007 0.002479
vt 1.0 0.222503
vt 0.775397 0.473517
vt 0.102375 0.169744
vt 0.122207 0.072886
vt 0.781686 0.550913
vt 0.791002 0.131423
vt 0.188982 0.129443
vt 0.127032 0.0
vt 0.188982 0.129443
vt 0.791002 0.131423
vt 0.788212 0.94737
vt 0.781686 0.550913
vt 0.127797 0.945198
vt 0.127573 0.548762
vt 0.781686 0.550913
vt 0.188982 0.129443
vt 1.0 0.222503
vt 0.999905 0.363432
vt 0.899327 0.075442
vt 0.766587 0.728244
vt 0.748968 0.9921
vt 0.146426 0.726205
vt 0.120726 1.0
vt 0.798032 0.980938
vt 0.127797 0.945198
vt 0.188982 0.129443
vt 0.127032 0.0
vt 0.01769 0.358032
vt 0.775397 0.473517
vt 0.766587 0.728244
vt 0.162232 0.471501
vt 0.791002 0.131423
vt 0.881007 0.002479
vt 0.127032 0.0
vt 0.014253 0.449401
vt 0.01769 0.358032
vt 0.127032 0.0
vt 0.909104 0.236341
vt 0.999904 0.365705
vt 0.775397 0.473517
vt 0.999941 0.312247
vt 0.999904 0.365705
vt 1.0 0.222503
vt 0.90926 0.054721
vt 0.791002 0.131423
vt 0.999941 0.312247
vt 0.90926 0.054721
vt 1.0 0.222503
vt 0.881007 0.002479
vt 0.120726 1.0
vt 0.067368 0.978061
vt 0.0 0.679118
vt 0.014253 0.449401
vt 0.102375 0.169744
vt 0.162232 0.471501
vt 0.014253 0.449401
vt 0.0 0.679118
vt 0.01769 0.358032
vt 0.067368 0.978061
vt 0.127797 0.945198
vt 0.0 0.679118
vt 0.127573 0.548762
vt 0.093268 0.374267
vt 0.01769 0.358032
vt 0.01769 0.358032
vt 0.0 0.679118
vt 0.127797 0.945198
vt 0.899327 0.075442
vt 0.775397 0.473517
vt 0.122207 0.072886
vt 0.093268 0.374267
vt 0.127573 0.548762
vt 0.188982 0.129443
vt 0.845439 0.726782
vt 0.798032 0.980938
vt 0.999941 0.312247
vt 0.067368 0.978061
vt 0.120726 1.0
vt 0.127797 0.945198
vt 0.093268 0.374267
vt 0.188982 0.129443
vt 0.01769 0.358032
vt 0.127032 0.0
vt 0.122207 0.072886
vt 0.014253 0.449401
vt 0.102375 0.169744
vt 0.014253 0.449401
vt 0.122207 0.072886
vt 0.162232 0.471501
vt 0.146426 0.726205
vt 0.0 0.679118
vt 0.162232 0.471501
vt 0.766587 0.728244
vt 0.146426 0.726205
vt 0.876774 0.795832
vt 0.798032 0.980938
vt 0.748968 0.9921
vt 0.999904 0.365705
vt 0.876774 0.795832
vt 0.775397 0.473517
vt 0.999904 0.365705
vt 0.999941 0.312247
vt 0.876774 0.795832
vt 0.766587 0.728244
vt 0.775397 0.473517
vt 0.876774 0.795832
vt 0.798032 0.980938
vt 0.876774 0.795832
vt 0.999941 0.312247

# 180 Vertex Normals
vn 0.166335 0.837953 0.519777
vn -0.026351 0.649967 0.759505
vn 0.575426 0.707701 0.409932
vn -0.228007 0.972284 -0.051743
vn 0.303426 0.87429 0.37888
vn 0.096458 0.985369 0.140514
vn 0.181577 0.445445 -0.876703
vn 0.200501 0.337655 -0.919667
vn 0.139036 0.631792 -0.762566
vn 0.787234 0.616654 -0.000002
vn 0.701488 0.675132 0.228278
vn 0.955792 0.293726 0.01362
vn 0.726185 0.014284 0.687351
vn 0.546452 0.01075 0.837421
vn 0.546452 0.010748 0.837421
vn -0.603993 0.783091 -0.148193
vn -0.603996 0.783088 -0.148196
vn -0.6965 0.715831 -0.049747
vn -0.491581 -0.713186 0.499713
vn -0.269194 -0.765879 0.583922
vn -0.489813 -0.566172 0.662973
vn -0.503573 0.161985 0.848631
vn -0.591253 0.469841 0.655492
vn -0.898976 0.126657 0.419286
vn -0.026351 0.649967 0.759505
vn 0.221269 0.713907 0.664362
vn -0.2556 0.546731 0.797342
vn 0.096458 0.985369 0.140514
vn -0.024289 0.999705 -0.0
vn -0.391628 0.915353 -0.093572
vn 0.13905 0.631799 -0.762558
vn 0.139044 0.631795 -0.762563
vn 0.139036 0.631792 -0.762566
vn 0.139027 0.63179 -0.762569
vn 0.139036 0.631792 -0.762566
vn 0.200501 0.337655 -0.919667
vn -0.471812 -0.00928 -0.88165
vn -0.471812 -0.009279 -0.88165
vn -0.20026 -0.003939 -0.979735
vn -0.995527 0.093007 -0.016608
vn -0.991726 -0.019506 -0.126879
vn -0.991726 -0.019505 -0.126878
vn 0.957157 0.018828 -0.288957
vn 0.928414 0.338224 -0.153794
vn 0.955792 0.293726 0.01362
vn -0.000613 -0.771659 0.636036
vn -0.188365 -0.850619 0.490883
vn 0.194877 -0.90084 0.387957
vn 0.002136 0.00004 -0.999998
vn -0.471812 -0.00928 -0.88165
vn -0.20026 -0.003939 -0.979735
vn -0.262372 -0.813597 -0.518865
vn -0.253344 -0.824494 -0.505991
vn -0.15071 -0.902182 -0.40417
vn -0.954705 -0.01262 0.297286
vn -0.63844 -0.01078 0.769596
vn -0.898976 0.126657 0.419286
vn -0.898976 0.126657 0.419286
vn -0.995527 0.093007 -0.016608
vn -0.996673 -0.016559 0.079804
vn 0.805922 0.015852 0.59181
vn 0.994154 0.019554 -0.106187
vn 0.955792 0.293726 0.01362
vn 0.546453 0.010748 0.837421
vn 0.546452 0.010748 0.837422
vn 0.546452 0.010748 0.837421
vn 0.795746 0.178486 0.578732
vn 0.805922 0.015852 0.59181
vn 0.955792 0.293726 0.01362
vn 0.720459 0.566858 0.399513
vn 0.955792 0.293726 0.01362
vn 0.701488 0.675132 0.228278
vn 0.546452 0.010748 0.837421
vn 0.546452 0.010748 0.837422
vn 0.805922 0.015852 0.59181
vn -0.105148 0.198509 -0.974442
vn 0.181577 0.445445 -0.876703
vn 0.238922 0.004697 -0.971027
vn 0.969723 -0.144022 -0.19722
vn 0.823688 -0.405896 -0.395963
vn 0.957157 0.018828 -0.288957
vn -0.471812 -0.00928 -0.88165
vn -0.20026 -0.003939 -0.979735
vn -0.471812 -0.00928 -0.88165
vn 0.002136 0.00004 -0.999998
vn -0.105148 0.198509 -0.974442
vn 0.238922 0.004697 -0.971027
vn 0.363354 0.923537 0.122692
vn 0.166335 0.837953 0.519777
vn 0.575426 0.707701 0.409932
vn -0.55193 0.053434 0.832177
vn -0.898976 0.126657 0.419286
vn -0.633382 -0.203051 0.746725
vn -0.994245 -0.017408 -0.105709
vn -0.995527 0.093007 -0.016608
vn -0.991726 -0.019505 -0.126878
vn 0.823688 -0.405896 -0.395963
vn 0.849446 -0.500458 -0.167279
vn 0.678186 -0.694849 -0.239267
vn -0.259709 0.422329 0.868441
vn -0.503573 0.161985 0.848631
vn -0.238917 -0.004699 0.971029
vn 0.957157 0.018828 -0.288957
vn 0.955792 0.293726 0.01362
vn 0.969723 -0.144022 -0.19722
vn 0.395917 -0.890059 0.225932
vn 0.569105 -0.802334 -0.179945
vn 0.628301 -0.776112 -0.053744
vn -0.026351 0.649967 0.759505
vn -0.2556 0.546731 0.797342
vn -0.259709 0.422329 0.868441
vn -0.391628 0.915353 -0.093572
vn -0.228007 0.972284 -0.051743
vn 0.096458 0.985369 0.140514
vn 0.139044 0.631795 -0.762563
vn 0.181577 0.445445 -0.876703
vn 0.139036 0.631792 -0.762566
vn 0.928414 0.338224 -0.153794
vn 0.787234 0.616654 -0.000002
vn 0.955792 0.293726 0.01362
vn -0.491581 -0.713186 0.499713
vn -0.502133 -0.718964 0.480576
vn -0.269194 -0.765879 0.583922
vn 0.328584 -0.893646 0.305663
vn 0.319015 -0.849438 0.420339
vn -0.000613 -0.771659 0.636036
vn 0.328584 -0.893646 0.305663
vn -0.102232 -0.993166 0.056304
vn -0.003993 -0.950679 -0.310149
vn -0.297403 -0.81122 -0.503461
vn -0.262372 -0.813597 -0.518865
vn -0.129396 -0.921695 -0.365699
vn -0.253344 -0.824494 -0.505991
vn -0.253342 -0.824494 -0.505992
vn -0.15071 -0.902182 -0.40417
vn -0.15071 -0.902182 -0.40417
vn -0.129396 -0.921695 -0.365699
vn -0.262372 -0.813597 -0.518865
vn 0.726185 0.014284 0.687351
vn 0.546452 0.010748 0.837421
vn 0.805922 0.015852 0.59181
vn 0.238923 0.004693 -0.971027
vn 0.002136 0.00004 -0.999998
vn 0.238922 0.004697 -0.971027
vn -0.603993 0.783091 -0.148193
vn -0.6965 0.715831 -0.049747
vn -0.391628 0.915353 -0.093572
vn -0.991727 -0.019504 -0.126878
vn -0.994245 -0.017408 -0.105709
vn -0.991726 -0.019505 -0.126878
vn 0.693067 -0.586775 -0.418753
vn 0.823688 -0.405896 -0.395963
vn 0.678186 -0.694849 -0.239267
vn 0.628301 -0.776112 -0.053744
vn 0.546878 -0.826868 0.131198
vn 0.395917 -0.890059 0.225932
vn 0.319015 -0.849438 0.420339
vn 0.328584 -0.893646 0.305663
vn 0.546878 -0.826868 0.131198
vn -0.000613 -0.771659 0.636036
vn -0.257611 -0.76363 0.592035
vn -0.188365 -0.850619 0.490883
vn -0.238917 -0.004699 0.971029
vn -0.503573 0.161985 0.848631
vn -0.63844 -0.01078 0.769596
vn -0.785499 0.602081 0.143145
vn -0.89928 0.429856 -0.080736
vn -0.898976 0.126657 0.419286
vn -0.2556 0.546731 0.797342
vn -0.457516 0.462925 0.759197
vn -0.259709 0.422329 0.868441
vn -0.228007 0.972284 -0.051743
vn -0.391628 0.915353 -0.093572
vn -0.724975 0.688607 -0.015218
vn -0.409944 0.204896 0.888799
vn -0.259709 0.422329 0.868441
vn -0.457516 0.462925 0.759197
vn -0.6965 0.715831 -0.049747
vn -0.724975 0.688607 -0.015218
vn -0.391628 0.915353 -0.093572

# 60 Ungrouped triangles

o ungrouped
g ungrouped

f 7/1/1 6/2/2 1/3/3
f 13/4/4 7/5/5 16/6/6
f 2/7/7 3/8/8 12/9/9
f 17/10/10 16/11/11 15/12/12
f 1/13/13 6/14/14 4/15/15
f 11/16/16 10/17/17 14/18/18
f 22/19/19 25/20/20 21/21/21
f 5/22/22 9/23/23 8/24/24
f 6/25/25 7/26/26 13/27/27
f 16/28/28 17/29/29 12/30/30
f 17/31/31 18/32/32 12/33/33
f 11/34/34 12/35/35 3/36/36
f 10/37/37 11/38/38 3/39/39
f 14/40/40 10/41/41 20/42/42
f 2/43/43 18/44/44 15/45/45
f 24/46/46 25/47/47 28/48/48
f 19/49/49 20/50/50 3/51/51
f 20/52/52 19/53/53 32/54/54
f 22/55/55 21/56/56 8/57/57
f 8/58/58 14/59/59 22/60/60
f 26/61/61 31/62/62 15/63/63
f 24/64/64 27/65/65 4/66/66
f 1/67/67 26/68/68 15/69/69
f 1/70/70 15/71/71 16/72/72
f 4/73/73 27/74/74 26/75/75
f 3/76/76 2/77/77 29/78/78
f 31/79/79 29/80/80 2/81/81
f 10/82/82 3/83/83 20/84/84
f 19/85/85 3/86/86 29/87/87
f 16/88/88 7/89/89 1/90/90
f 5/91/91 8/92/92 21/93/93
f 22/94/94 14/95/95 20/96/96
f 29/97/97 31/98/98 32/99/99
f 4/100/100 5/101/101 24/102/102
f 2/103/103 15/104/104 31/105/105
f 28/106/106 32/107/107 31/108/108
f 6/109/109 13/110/110 4/111/111
f 12/112/112 13/113/113 16/114/114
f 18/115/115 2/116/116 12/117/117
f 18/118/118 17/119/119 15/120/120
f 22/121/121 23/122/122 25/123/123
f 28/124/124 27/125/125 24/126/126
f 28/127/127 25/128/128 32/129/129
f 23/130/130 20/131/131 25/132/132
f 19/133/133 30/134/134 32/135/135
f 32/136/136 25/137/137 20/138/138
f 1/139/139 4/140/140 26/141/141
f 30/142/142 19/143/143 29/144/144
f 11/145/145 14/146/146 12/147/147
f 23/148/148 22/149/149 20/150/150
f 30/151/151 29/152/152 32/153/153
f 31/154/154 26/155/155 28/156/156
f 27/157/157 28/158/158 26/159/159
f 24/160/160 21/161/161 25/162/162
f 24/163/163 5/164/164 21/165/165
f 9/166/166 14/167/167 8/168/168
f 13/169/169 9/170/170 4/171/171
f 13/172/172 12/173/173 9/174/174
f 5/175/175 4/176/176 9/177/177
f 14/178/178 9/179/179 12/180/180
