# Blender 3.4.1
# www.blender.org
mtllib brick1LOD.mtl
o Brick_01_LOD1
v -0.213397 -0.119918 -0.120408
v 0.212816 -0.121336 0.121767
v 0.213042 -0.119918 -0.120408
v 0.213544 0.118912 -0.002629
v 0.212954 0.117967 0.117477
v -0.213264 -0.111505 0.117545
v -0.213397 0.120839 -0.062761
v -0.199756 0.116104 -0.117439
v -0.208196 0.119881 0.120044
v 0.171734 0.120839 -0.120408
v 0.213042 0.068628 -0.120408
vn 0.7575 0.5993 -0.2591
vn -0.9994 0.0216 0.0285
vn -0.9951 0.0309 -0.0936
vn -0.9999 0.0089 0.0122
vn -0.0102 -0.0106 0.9999
vn 0.0009 0.0088 1.0000
vn -0.0049 -0.0013 1.0000
vn 0.0341 0.9994 -0.0090
vn 0.0122 0.9999 -0.0114
vn -0.0027 1.0000 0.0076
vn -0.0020 0.0032 -1.0000
vn -0.0000 -0.0000 -1.0000
vn -0.0234 -0.9991 0.0353
vn -0.0157 -0.9996 0.0218
vn -0.0076 -0.9999 0.0075
vn -0.0000 -1.0000 -0.0059
vn -0.9993 0.0088 -0.0367
vn -0.9674 0.0590 -0.2464
vn 0.0062 0.0179 0.9998
vn -0.0126 0.9997 0.0208
vn 0.3138 0.9495 -0.0039
vn 0.0046 1.0000 0.0079
vn 1.0000 -0.0019 0.0021
vn 1.0000 -0.0018 -0.0006
vn 1.0000 -0.0011 0.0012
vn 1.0000 -0.0000 -0.0043
vn 1.0000 -0.0005 0.0049
vn -0.0051 0.0082 -1.0000
vn -0.0082 0.0130 -0.9999
vt 0.384372 0.046787
vt 0.391096 0.040064
vt 0.391088 0.053510
vt 0.391096 0.046787
vt 0.397831 0.050135
vt 0.397819 0.053350
vt 0.391645 0.060233
vt 0.384372 0.053314
vt 0.391449 0.033537
vt 0.397819 0.038454
vt 0.404542 0.048397
vt 0.403949 0.046787
vt 0.397421 0.040423
vt 0.397479 0.033618
vt 0.404413 0.052869
vt 0.398470 0.046787
vt 0.397819 0.046136
vt 0.396361 0.046787
s 1
usemtl TropicalEnvironment_01
f 4/5/1 11/18/1 10/17/1
f 9/14/2 7/10/3 6/9/4
f 6/7/5 2/3/6 9/15/7
f 8/12/8 9/15/9 4/5/10
f 10/17/11 11/18/12 3/4/12
f 6/8/13 1/1/14 2/3/15
f 1/1/14 3/4/16 2/3/15
f 1/2/17 6/9/4 7/10/3
f 1/2/17 7/10/3 8/13/18
f 5/6/19 9/15/7 2/3/6
f 10/16/20 8/12/8 4/5/10
f 8/12/8 7/11/21 9/15/9
f 9/15/9 5/6/22 4/5/10
f 2/3/23 3/4/24 4/5/25
f 3/4/24 11/18/26 4/5/25
f 5/6/27 2/3/23 4/5/25
f 3/4/12 1/2/28 10/17/11
f 10/17/11 1/2/28 8/13/29
