# Blender v3.4.1 OBJ File: ''
# www.blender.org
mtllib road2.mtl
o Road_20_LOD1_Mesh.131
v -3.332899 0.010000 0.000000
v -3.332899 0.010001 -3.252718
v 3.332899 0.010000 0.000000
v 3.332899 0.010001 -3.252718
v -0.000000 0.000002 -3.075000
v -3.075001 0.000000 -0.000000
v 0.000000 0.000002 -2.925000
v -2.925000 0.000000 -0.000000
v 0.000000 0.150003 -2.938308
v 0.000000 0.136696 -2.925000
v -2.931142 0.146929 0.000000
v -2.914059 0.000003 -2.916774
v -2.810787 0.146739 -2.815553
v -2.711000 0.000003 -2.900797
v -2.524174 0.000003 -3.073840
v -3.073910 0.000002 -2.526927
v -2.928004 0.145129 -2.521830
v -2.923830 0.000002 -2.518908
v -2.514221 0.145628 -2.928795
v -0.000000 0.136696 -3.075000
v -0.000000 0.150003 -3.061693
v -3.071947 0.143760 0.000000
v -2.909824 0.144330 -2.914931
v -3.068648 0.145848 -2.529396
v -2.520213 0.145338 -3.069794
v 3.075000 -0.000000 0.000000
v 0.000000 0.000003 -3.075001
v 2.925000 0.000000 0.000000
v 0.000000 0.000003 -2.925000
v 2.928071 0.143858 0.000000
v 2.916774 0.000003 -2.914059
v 2.815553 0.146739 -2.810787
v 2.900797 0.000002 -2.711000
v 3.073840 0.000002 -2.524174
v 2.526927 0.000003 -3.073910
v 2.521831 0.145130 -2.928004
v 2.518908 0.000003 -2.923830
v 2.928796 0.145627 -2.514221
v 3.068954 0.146918 0.000001
v 2.914931 0.144330 -2.909824
v 2.529396 0.145849 -3.068648
v 3.069794 0.145337 -2.520213
v 2.873684 0.010002 -2.894737
v 3.000000 0.010002 -2.632835
v 2.565626 0.010002 -3.000000
v -2.880701 0.010002 -2.887719
v -2.573354 0.010002 -3.000000
v -2.999999 0.010002 -2.624270
v -6.000000 0.130001 -3.000000
v -2.890000 0.130001 -2.890000
v -6.000000 0.130003 -6.000002
v -6.000000 0.130001 -2.650001
v -3.016823 0.130001 -2.650000
v -6.000000 0.130000 0.000000
v -3.033646 0.130000 0.000000
v -3.000000 0.130003 -6.000002
v -2.650000 0.130003 -6.000002
v 0.000000 0.130003 -6.000000
v -2.650000 0.130001 -3.000000
v 0.000000 0.130001 -3.000000
v 2.650000 0.130001 -3.000000
v 2.650000 0.130003 -6.000002
v 2.890000 0.130001 -2.890000
v 3.000000 0.130003 -6.000002
v 6.000000 0.130001 -3.000000
v 3.016823 0.130001 -2.650000
v 3.033646 0.130000 0.000000
v 6.000000 0.130001 -2.650001
v 6.000000 0.130000 0.000000
v 6.000000 0.130003 -6.000002
v 0.000000 0.000000 0.000000
vt 0.399017 0.018863
vt 0.416529 0.018863
vt 0.416529 0.036375
vt 0.399017 0.036375
vt 0.588601 0.036400
vt 0.594721 0.035891
vt 0.589207 0.038913
vt 0.594721 0.038913
vt 0.575205 0.036400
vt 0.581862 0.036400
vt 0.575205 0.038913
vt 0.581283 0.038913
vt 0.581909 0.022994
vt 0.588018 0.022993
vt 0.581909 0.025506
vt 0.588018 0.025506
vt 0.575205 0.032209
vt 0.582149 0.031822
vt 0.575205 0.034721
vt 0.581921 0.034722
vt 0.575205 0.035561
vt 0.581821 0.035561
vt 0.588018 0.038913
vt 0.582541 0.038913
vt 0.588517 0.035561
vt 0.581909 0.021315
vt 0.588018 0.021824
vt 0.581909 0.022154
vt 0.588634 0.034722
vt 0.594721 0.034722
vt 0.588475 0.032209
vt 0.588613 0.026101
vt 0.594721 0.032209
vt 0.581909 0.018802
vt 0.588018 0.018802
vt 0.588018 0.045617
vt 0.581909 0.045617
vt 0.588613 0.039508
vt 0.581909 0.039539
vt 0.588601 0.036400
vt 0.594721 0.035891
vt 0.588750 0.038913
vt 0.594721 0.038913
vt 0.575206 0.036400
vt 0.581862 0.036400
vt 0.575205 0.038913
vt 0.582052 0.038913
vt 0.581909 0.022994
vt 0.588018 0.022993
vt 0.581909 0.025506
vt 0.588018 0.025506
vt 0.575205 0.032209
vt 0.581283 0.032209
vt 0.575205 0.034721
vt 0.581921 0.034722
vt 0.575205 0.035561
vt 0.581821 0.035561
vt 0.588517 0.035561
vt 0.581909 0.021315
vt 0.588018 0.021824
vt 0.581909 0.022154
vt 0.588634 0.034722
vt 0.594721 0.034722
vt 0.589207 0.032209
vt 0.588018 0.032209
vt 0.582541 0.032209
vt 0.588613 0.026101
vt 0.581909 0.031584
vt 0.588613 0.031615
vt 0.594721 0.032209
vt 0.581909 0.018802
vt 0.588018 0.018802
vt 0.588018 0.045617
vt 0.581909 0.045617
vt 0.404235 0.039924
vt 0.406567 0.038439
vt 0.406567 0.039924
vt 0.390462 0.037907
vt 0.392752 0.039924
vt 0.390462 0.039924
vt 0.645378 0.013725
vt 0.639217 0.013725
vt 0.639217 0.013725
vt 0.645378 0.013725
vt 0.645378 0.038650
vt 0.639217 0.038650
vt 0.639217 0.013725
vt 0.645378 0.013725
vt 0.646149 0.013725
vt 0.646149 0.038650
vt 0.664142 0.013725
vt 0.664142 0.038650
vt 0.646149 0.013725
vt 0.646149 0.038650
vt 0.645378 0.013725
vt 0.645378 0.038650
vt 0.639217 0.013725
vt 0.639217 0.038650
vt 0.645378 0.013725
vt 0.639217 0.013725
vt 0.645378 0.013725
vt 0.639217 0.013725
vn 0.0000 1.0000 0.0000
vn -0.0003 0.1899 0.9818
vn -0.0001 0.1904 0.9817
vn -0.0008 0.1899 0.9818
vn 0.0089 0.0000 1.0000
vn 0.0098 0.0000 1.0000
vn -0.0004 0.0283 -0.9996
vn 0.0006 0.0278 -0.9996
vn -0.0005 0.0278 -0.9996
vn -0.0021 0.0000 -1.0000
vn -0.0010 -0.0000 -1.0000
vn 0.0000 -1.0000 -0.0000
vn -0.9998 0.0212 -0.0004
vn -0.9998 0.0212 0.0007
vn -0.9993 0.0361 -0.0001
vn -0.9993 0.0360 -0.0013
vn -0.9994 0.0354 -0.0013
vn -0.3736 0.0228 -0.9273
vn -0.3701 0.0331 -0.9284
vn -0.3727 0.0256 -0.9276
vn -0.3692 0.0359 -0.9286
vn 0.0008 0.7071 0.7071
vn 0.0014 0.7071 0.7071
vn 0.0023 1.0000 -0.0022
vn -0.0016 1.0000 -0.0020
vn -0.0018 1.0000 -0.0020
vn -0.0017 1.0000 0.0000
vn -0.0116 0.9999 -0.0127
vn -0.0088 0.9998 -0.0155
vn 0.0029 1.0000 -0.0022
vn 0.9282 0.0342 0.3706
vn 0.8340 0.2972 0.4648
vn 0.3406 -0.2882 0.8949
vn 0.0051 1.0000 -0.0004
vn 0.0047 1.0000 0.0074
vn 0.0048 1.0000 0.0065
vn -0.0144 0.9998 -0.0099
vn -0.9249 0.0270 -0.3792
vn -0.9243 0.0309 -0.3805
vn -0.9247 0.0281 -0.3796
vn -0.9241 0.0320 -0.3808
vn -0.0225 0.9997 0.0008
vn 0.0052 1.0000 -0.0007
vn 0.0000 -0.0000 1.0000
vn 0.9991 0.0418 0.0012
vn 0.9995 0.0324 0.0007
vn 0.9993 0.0381 0.0019
vn 0.9996 0.0288 0.0009
vn 0.0008 0.7181 -0.6959
vn 0.0159 0.7071 -0.7070
vn 0.0008 0.7180 -0.6961
vn 1.0000 0.0000 -0.0000
vn -0.9820 0.1890 0.0004
vn -0.9819 0.1893 0.0002
vn -0.9820 0.1890 -0.0002
vn -0.9997 0.0213 0.0089
vn -0.9997 0.0214 0.0093
vn 0.9996 0.0283 -0.0004
vn 0.9993 0.0373 0.0016
vn 0.9995 0.0316 -0.0002
vn 0.9992 0.0411 0.0003
vn 0.0004 0.0000 -1.0000
vn -0.0009 0.0000 -1.0000
vn 0.0009 0.0361 -0.9993
vn 0.0024 0.0360 -0.9993
vn 0.0024 0.0349 -0.9994
vn 0.9273 0.0228 -0.3736
vn 0.9284 0.0331 -0.3701
vn 0.9276 0.0256 -0.3727
vn 0.9287 0.0359 -0.3692
vn 0.0022 1.0000 0.0025
vn 0.0020 1.0000 -0.0005
vn 0.0020 1.0000 -0.0006
vn -0.0217 0.9998 0.0007
vn 0.0127 0.9999 -0.0116
vn 0.0155 0.9998 -0.0087
vn 0.0022 1.0000 0.0029
vn -0.3706 0.0342 0.9282
vn -0.4648 0.2972 0.8340
vn -0.8949 -0.2882 0.3406
vn 0.0016 1.0000 0.0052
vn -0.0074 1.0000 0.0047
vn -0.0064 1.0000 0.0048
vn 0.0099 0.9998 -0.0144
vn 0.3792 0.0270 -0.9249
vn 0.3805 0.0309 -0.9243
vn 0.3796 0.0280 -0.9247
vn 0.3808 0.0320 -0.9241
vn -0.0015 0.7071 0.7071
vn 0.0016 1.0000 0.0000
vn 0.0019 1.0000 0.0052
vn -1.0000 -0.0000 -0.0000
vn 0.0012 -0.0000 1.0000
vn 0.0003 -0.0001 1.0000
vn -0.0005 0.0278 0.9996
vn -0.0005 0.0288 0.9996
vn -0.0009 0.0288 0.9996
vn -0.0157 0.7070 -0.7071
vn -0.0008 0.7179 -0.6961
vn -0.0009 0.7181 -0.6959
usemtl City_01.008
s 1
f 1/1/1 3/2/1 4/3/1 2/4/1
f 19/5/2 14/6/3 10/7/4
f 10/7/5 14/6/6 7/8/5
f 15/9/7 25/10/8 5/11/9
f 5/11/10 25/10/11 20/12/10
f 16/13/12 18/14/12 6/15/12
f 6/15/12 18/14/12 8/16/12
f 6/17/13 22/18/13 16/19/14
f 16/19/15 22/18/16 24/20/17
f 12/21/18 23/22/19 15/9/20
f 15/9/20 23/22/19 25/10/21
f 19/5/22 10/7/23 9/23/23
f 25/10/24 19/5/25 21/24/26
f 21/24/27 19/5/27 9/23/27
f 23/22/28 13/25/28 25/10/29
f 25/10/24 13/25/30 19/5/25
f 15/26/12 14/27/12 12/28/12
f 17/29/31 18/30/31 13/25/31
f 13/25/32 18/30/32 14/6/32
f 13/25/33 14/6/33 19/5/33
f 17/29/34 13/25/35 24/20/36
f 24/20/37 13/25/28 23/22/28
f 16/19/38 24/20/39 12/21/40
f 12/21/40 24/20/39 23/22/41
f 12/28/12 14/27/12 16/13/12
f 16/13/12 14/27/12 18/14/12
f 22/18/42 11/31/42 24/20/42
f 24/20/36 11/31/43 17/29/34
f 6/15/44 8/32/44 22/18/44
f 8/32/44 11/31/44 22/18/44
f 11/31/45 8/33/46 17/29/47
f 17/29/47 8/33/46 18/30/48
f 5/34/12 7/35/12 15/26/12
f 15/26/12 7/35/12 14/27/12
f 20/12/49 25/10/50 21/24/51
f 7/36/52 5/37/52 10/38/52
f 10/38/52 5/37/52 9/23/52
f 5/37/52 20/39/52 9/23/52
f 20/39/52 21/24/52 9/23/52
f 38/40/53 33/41/54 30/42/55
f 30/42/56 33/41/57 28/43/56
f 34/44/58 42/45/59 26/46/60
f 26/46/60 42/45/59 39/47/61
f 35/48/12 37/49/12 27/50/12
f 27/50/12 37/49/12 29/51/12
f 27/52/62 20/53/62 35/54/63
f 35/54/64 20/53/65 41/55/66
f 31/56/67 40/57/68 34/44/69
f 34/44/69 40/57/68 42/45/70
f 42/45/71 38/40/72 39/47/73
f 39/47/74 38/40/74 30/42/74
f 40/57/75 32/58/75 42/45/76
f 42/45/71 32/58/77 38/40/72
f 34/59/12 33/60/12 31/61/12
f 36/62/78 37/63/78 32/58/78
f 32/58/79 37/63/79 33/41/79
f 32/58/80 33/41/80 38/40/80
f 36/62/81 32/58/82 41/55/83
f 41/55/84 32/58/75 40/57/75
f 35/54/85 41/55/86 31/56/87
f 31/56/87 41/55/86 40/57/88
f 31/61/12 33/60/12 35/48/12
f 35/48/12 33/60/12 37/49/12
f 10/64/89 36/62/89 9/65/89
f 21/66/90 9/65/90 41/55/90
f 41/55/83 9/65/91 36/62/81
f 27/50/92 29/67/92 20/68/92
f 20/68/92 29/67/92 21/66/92
f 29/67/92 10/69/92 21/66/92
f 10/69/92 9/65/92 21/66/92
f 10/64/93 29/70/93 36/62/94
f 36/62/95 29/70/96 37/63/97
f 26/71/12 28/72/12 34/59/12
f 34/59/12 28/72/12 33/60/12
f 41/55/98 20/53/99 21/66/100
f 28/73/44 26/74/44 30/42/44
f 26/74/44 39/47/44 30/42/44
f 45/75/1 44/76/1 43/77/1
f 48/78/1 47/79/1 46/80/1
f 50/81/1 49/82/1 52/83/1 53/84/1
f 49/82/1 50/81/1 56/85/1 51/86/1
f 53/84/1 52/83/1 54/87/1 55/88/1
f 50/81/1 59/89/1 57/90/1 56/85/1
f 59/89/1 60/91/1 58/92/1 57/90/1
f 61/93/1 62/94/1 58/92/1 60/91/1
f 63/95/1 64/96/1 62/94/1 61/93/1
f 65/97/1 70/98/1 64/96/1 63/95/1
f 63/95/1 66/99/1 68/100/1 65/97/1
f 66/99/1 67/101/1 69/102/1 68/100/1
