# Blender 3.4.1
# www.blender.org
mtllib column1LOD.mtl
o Column_01_LOD1
v -0.139502 2.496873 0.240829
v -0.196895 2.490714 0.173196
v 0.273405 0.000654 -0.275736
v 0.265958 2.757682 -0.270912
v 0.236368 0.360600 0.180428
v 0.250139 2.495090 -0.249550
v 0.118368 0.366985 0.246715
v 0.174101 0.382010 0.170805
v -0.280703 2.868670 -0.282071
v 0.282660 2.868670 0.281291
v -0.248011 2.622242 0.245805
v 0.250130 2.494791 0.248741
v 0.282660 2.868670 -0.282071
v 0.260979 2.757682 0.281291
v -0.179835 0.371454 0.180425
v 0.181793 2.495094 0.180436
v -0.050229 1.620288 0.181826
v -0.179835 0.371454 -0.181205
v -0.179835 2.495090 -0.181204
v -0.248140 0.371668 0.248794
v -0.163495 1.546056 0.150559
v -0.248182 2.494881 -0.249540
v 0.181793 2.495090 -0.181204
v 0.181704 0.371200 -0.181205
v -0.264443 2.757686 -0.260392
v -0.264005 2.758171 0.261576
v -0.280066 0.000733 0.273771
v -0.272187 0.002140 -0.284093
v 0.278446 0.003821 0.272596
v -0.248181 0.371454 -0.249551
v 0.249974 0.371752 -0.249482
v -0.280703 2.868670 0.281291
vn -0.0089 0.9999 0.0103
vn 0.0562 0.9708 0.2334
vn 0.1762 0.9365 0.3033
vn -0.0302 -0.0934 0.9952
vn -0.0227 -0.1332 0.9908
vn -0.1007 -0.1264 0.9869
vn 0.0215 0.9996 0.0159
vn 0.3281 0.9444 -0.0219
vn 0.2911 0.9566 -0.0160
vn 0.0017 0.0670 0.9977
vn 0.0040 0.0703 0.9975
vn 0.0035 0.0696 0.9976
vn 0.0086 -0.9971 0.0750
vn 0.0100 -0.9966 0.0823
vn -0.0042 -1.0000 0.0040
vn 0.0093 0.9998 0.0166
vn 0.2524 0.8970 0.3628
vn 0.9928 -0.1197 0.0020
vn 0.9991 -0.0412 -0.0000
vn 0.9985 -0.0543 0.0065
vn -0.9889 -0.1489 0.0008
vn -0.9894 -0.1450 -0.0000
vn -0.9938 -0.1108 0.0063
vn -0.0325 -0.1118 0.9932
vn 0.9881 -0.1538 0.0077
vn 0.9814 -0.1917 -0.0000
vn -0.0321 -0.0195 0.9993
vn -0.0000 -0.1756 0.9845
vn 0.0269 -0.0040 0.9996
vn -0.0122 0.0048 0.9999
vn -0.1091 -0.0077 0.9940
vn -0.0133 -0.1286 -0.9916
vn -0.0167 -0.1812 -0.9833
vn -0.0105 -0.0966 -0.9953
vn 0.0066 0.0740 0.9972
vn 0.9976 0.0606 0.0331
vn 0.9955 0.0944 0.0064
vn 0.9963 0.0847 0.0140
vn -0.0375 -0.0525 0.9979
vn -0.9973 0.0731 -0.0057
vn -0.9970 0.0774 -0.0087
vn -0.9979 0.0649 0.0001
vn -0.0001 -1.0000 -0.0001
vn -0.0002 -1.0000 -0.0000
vn 0.0068 -1.0000 -0.0040
vn -0.0142 0.9998 -0.0172
vn -0.0000 1.0000 0.0003
vn -0.6108 -0.5512 0.5685
vn -0.0140 -0.0687 -0.9975
vn -0.0000 -0.0413 -0.9991
vn -0.9909 -0.1348 0.0010
vn -0.9948 -0.1022 0.0050
vn 0.9943 -0.1063 0.0090
vn -0.0000 -0.1000 -0.9950
vn -0.0392 0.0033 0.9992
vn 0.9934 0.1146 -0.0098
vn -0.9980 -0.0611 0.0161
vn 0.4824 0.2720 0.8326
vn -0.9993 -0.0268 -0.0274
vn -0.9994 -0.0025 0.0335
vn -0.9982 -0.0341 -0.0485
vn -0.9057 -0.4104 0.1058
vn 0.0084 -0.0020 1.0000
vn -0.2714 0.0087 0.9624
vn -0.0045 -1.0000 0.0004
vn 0.0073 -1.0000 -0.0042
vn -0.0000 -0.0000 -1.0000
vn 0.0147 -0.9998 -0.0116
vn -0.9963 0.0848 -0.0139
vn -0.9999 0.0115 0.0086
vn -0.0003 1.0000 0.0006
vn 1.0000 -0.0036 -0.0000
vn 0.9998 -0.0004 0.0193
vn 1.0000 -0.0033 0.0023
vn -0.0000 1.0000 -0.0000
vn 0.9998 -0.0000 0.0216
vn 0.0097 0.0840 -0.9964
vn 0.0064 0.0794 -0.9968
vn 0.0155 0.0921 -0.9956
vn -0.9999 0.0139 -0.0000
vn 0.0001 0.0706 -0.9975
vn 0.0014 -1.0000 0.0016
vn 0.0055 -1.0000 0.0057
vn -0.0027 -1.0000 -0.0026
vt 0.341416 0.041791
vt 0.341137 0.041754
vt 0.396604 0.051264
vt 0.350894 0.041677
vt 0.343449 0.043090
vt 0.350726 0.043275
vt 0.343357 0.041782
vt 0.350083 0.043487
vt 0.350337 0.043596
vt 0.398341 0.040811
vt 0.340713 0.043643
vt 0.343519 0.043643
vt 0.340876 0.042416
vt 0.343356 0.041781
vt 0.343519 0.043643
vt 0.343411 0.043090
vt 0.348597 0.043510
vt 0.396602 0.040728
vt 0.343016 0.041782
vt 0.398403 0.051305
vt 0.397248 0.046948
vt 0.348597 0.043510
vt 0.396602 0.040728
vt 0.341215 0.041782
vt 0.396602 0.051305
vt 0.348257 0.043511
vt 0.396698 0.046615
vt 0.340875 0.041781
vt 0.343016 0.041782
vt 0.398403 0.051305
vt 0.350398 0.043508
vt 0.398403 0.040727
vt 0.340807 0.043090
vt 0.340803 0.043090
vt 0.348098 0.041671
vt 0.348101 0.041677
vt 0.350893 0.041689
vt 0.348257 0.043510
vt 0.350738 0.043511
vt 0.340713 0.043643
s 1
usemtl TropicalEnvironment_01.001
f 20/26/1 7/8/2 8/9/3
f 1/1/4 26/34/5 11/13/6
f 24/31/7 8/9/8 5/6/9
f 27/35/10 29/37/11 20/26/12
f 1/1/13 2/2/14 16/19/15
f 24/31/7 5/6/9 31/39/16
f 5/6/17 8/9/3 7/8/2
f 14/16/18 12/14/19 6/7/20
f 32/40/21 9/11/22 25/33/23
f 12/14/24 26/34/5 1/1/4
f 14/16/18 13/15/25 10/12/26
f 26/34/5 10/12/27 32/40/28
f 8/10/29 16/20/30 17/21/31
f 25/33/32 9/11/33 4/5/34
f 29/37/11 7/8/35 20/26/12
f 31/39/36 5/6/37 3/4/38
f 26/34/5 12/14/24 14/16/39
f 28/36/40 20/26/41 30/38/42
f 6/7/43 23/29/44 22/28/45
f 20/26/1 15/17/46 30/38/47
f 11/13/48 2/2/48 1/1/48
f 25/33/32 6/7/49 22/28/50
f 25/33/23 26/34/51 32/40/21
f 26/34/51 25/33/23 11/13/52
f 4/5/53 14/16/18 6/7/20
f 26/34/5 14/16/39 10/12/27
f 25/33/32 4/5/34 6/7/49
f 4/5/34 9/11/33 13/15/54
f 16/20/30 2/3/55 17/21/31
f 29/37/56 3/4/38 5/6/37
f 14/16/18 4/5/53 13/15/25
f 22/28/57 11/13/52 25/33/23
f 7/8/58 29/37/58 5/6/58
f 19/25/59 21/27/60 2/3/61
f 11/13/62 22/28/62 2/2/62
f 15/18/63 17/21/31 21/27/64
f 16/19/15 23/29/44 12/14/65
f 23/29/44 19/24/66 22/28/45
f 23/29/44 6/7/43 12/14/65
f 16/19/15 12/14/65 1/1/13
f 24/32/67 18/23/67 19/25/67
f 22/28/45 19/24/66 2/2/68
f 8/9/3 15/17/46 20/26/1
f 20/26/41 28/36/40 27/35/69
f 17/21/31 15/18/63 8/10/29
f 18/23/70 21/27/60 19/25/59
f 24/32/67 19/25/67 23/30/67
f 30/38/47 18/22/71 31/39/16
f 16/20/72 8/10/73 23/30/74
f 9/11/75 32/40/75 10/12/75
f 15/17/46 18/22/71 30/38/47
f 18/22/71 24/31/7 31/39/16
f 2/3/55 21/27/64 17/21/31
f 24/32/76 23/30/74 8/10/73
f 30/38/77 3/4/78 28/36/79
f 15/18/80 21/27/60 18/23/70
f 30/38/77 31/39/81 3/4/78
f 3/4/82 29/37/83 27/35/82
f 9/11/75 10/12/75 13/15/75
f 3/4/82 27/35/82 28/36/84
