# Blender 3.4.1
# www.blender.org
mtllib anchorlod.mtl
o Circle
v 0.031978 0.419115 -0.022729
v 0.064470 0.469758 0.014994
v 0.069285 0.423348 0.004908
v 0.087120 0.483573 -0.020427
v 0.053255 0.464396 -0.008368
v 0.025327 0.545488 0.016022
v 0.090020 0.511692 0.017156
v 0.061565 0.551110 -0.018021
v 0.031251 0.425693 0.009780
v 0.036718 0.425745 -0.013321
v 0.151368 0.294604 -0.019945
v 0.061282 -0.255433 0.013252
v 0.062754 -0.255314 -0.021498
v 0.366011 -0.141255 -0.009050
v 0.321456 -0.135879 0.015987
v 0.179365 -0.282251 0.008380
v 0.289279 -0.313047 -0.015017
v 0.286024 -0.312283 0.007188
v 0.268563 -0.275691 -0.026089
v 0.276758 -0.199050 -0.004492
v 0.168680 -0.285058 -0.017295
v 0.154541 -0.390779 0.009980
v 0.064442 -0.416943 -0.024392
v 0.218851 -0.329961 0.020165
v 0.316067 -0.135804 -0.027182
v 0.261091 -0.130115 -0.004361
v 0.415354 -0.154812 -0.004361
v 0.365956 0.007380 -0.004361
v 0.142263 0.265353 -0.004361
v 0.184216 0.247714 0.025369
v 0.156734 0.295298 0.043742
v 0.139749 0.324707 -0.004361
v 0.156734 0.295298 -0.052464
v 0.184216 0.247714 -0.034090
v 0.207631 0.296166 0.043742
v 0.180150 0.343750 0.025369
v 0.180150 0.343750 -0.034090
v 0.207631 0.296166 -0.052464
v 0.224616 0.266757 -0.004361
v 0.222103 0.326111 -0.004361
v -0.015846 0.440342 -0.008583
v -0.028983 0.408760 0.015735
v 0.003536 0.396434 -0.009027
v -0.055731 0.429156 -0.019806
v -0.019641 0.430194 0.014985
v -0.080219 0.483686 -0.020472
v -0.050788 0.487159 0.005020
v -0.083770 0.486443 0.015406
v 0.031139 0.534602 -0.009100
v 0.003380 0.577557 0.008329
v -0.046443 0.540640 0.018785
v -0.020969 0.558564 -0.024506
v -0.033290 0.525951 -0.009384
v -0.058433 0.555325 -0.009384
v 0.011206 -0.350327 -0.044266
v 0.004310 -0.231899 0.024945
v -0.030758 0.425659 -0.010334
v -0.144295 0.264598 -0.009555
v -0.144295 0.325103 -0.006810
v -0.144295 0.294604 0.011223
v -0.054323 -0.255520 0.012362
v -0.055622 -0.255166 -0.021629
v -0.301975 -0.132656 -0.004361
v -0.350927 -0.142135 0.015832
v -0.172298 -0.282243 0.008352
v -0.261547 -0.275643 0.017361
v -0.282206 -0.313047 -0.015017
v -0.261653 -0.337134 0.007264
v -0.213585 -0.329122 -0.028519
v -0.269533 -0.199250 -0.004361
v -0.161535 -0.285071 -0.017228
v -0.057369 -0.416943 -0.024392
v -0.072894 -0.350685 0.031231
v 0.003464 -0.436400 0.011437
v -0.346848 -0.141212 -0.024875
v -0.254018 -0.130115 -0.004361
v -0.408281 -0.154812 -0.004361
v -0.358883 0.007380 -0.004361
v 0.151368 0.325274 -0.003549
v 0.151368 0.294604 0.011223
v 0.151368 0.263933 -0.005172
v -0.135190 0.265353 -0.004361
v -0.177143 0.247714 0.025369
v -0.149661 0.295298 0.043742
v -0.132677 0.324707 -0.004361
v -0.149661 0.295298 -0.052464
v -0.177143 0.247714 -0.034090
v -0.200558 0.296166 0.043742
v -0.173077 0.343750 0.025369
v -0.173077 0.343750 -0.034090
v -0.200558 0.296166 -0.052464
v -0.217543 0.266757 -0.004361
v -0.215030 0.326111 -0.004361
vn 0.1816 -0.7642 0.6189
vn -0.1192 0.3506 -0.9289
vn 0.5625 -0.4565 -0.6893
vn -0.0337 -0.0310 0.9990
vn 0.8803 0.3447 -0.3258
vn 0.5249 0.7455 0.4108
vn 0.1181 0.8191 -0.5614
vn 0.0220 -0.5064 -0.8620
vn 0.2066 0.0141 0.9783
vn -0.1102 0.2805 -0.9535
vn -0.8275 0.5517 0.1043
vn 0.2805 -0.4395 0.8533
vn -0.3505 -0.9323 0.0888
vn 0.0908 0.1852 -0.9785
vn 0.0853 -0.2516 0.9641
vn -0.2729 -0.8184 0.5057
vn -0.0986 -0.9951 0.0106
vn -0.3463 0.2641 -0.9002
vn 0.2365 0.0720 -0.9690
vn 0.2244 0.0684 0.9721
vn -0.2922 0.2229 0.9300
vn 0.0502 -0.1821 0.9820
vn -0.6214 -0.5675 0.5402
vn -0.3876 -0.9218 -0.0000
vn -0.9496 -0.0402 0.3107
vn -0.9496 -0.0402 -0.3107
vn -0.6214 -0.5675 -0.5402
vn 0.4264 -0.9045 -0.0000
vn 0.0061 -0.3571 0.9340
vn -0.6512 0.5232 0.5498
vn -0.6512 0.5232 -0.5498
vn 0.0061 -0.3571 -0.9340
vn 0.6512 -0.5232 0.5498
vn -0.0061 0.3571 0.9340
vn -0.4264 0.9045 -0.0000
vn -0.0061 0.3571 -0.9340
vn 0.6512 -0.5232 -0.5498
vn 0.9496 0.0402 0.3107
vn 0.6214 0.5675 0.5402
vn 0.3876 0.9218 -0.0000
vn 0.6214 0.5675 -0.5402
vn 0.9496 0.0402 -0.3107
vn -0.4545 -0.8761 -0.1608
vn -0.0802 -0.4398 -0.8945
vn 0.8451 -0.1966 0.4972
vn -0.3808 0.2534 -0.8892
vn -0.4178 0.7206 0.5534
vn -0.9986 0.0358 0.0385
vn 0.0124 -0.4339 -0.9009
vn 0.1170 0.2829 0.9520
vn 0.0427 0.2005 -0.9788
vn -0.3792 0.9126 0.1530
vn -0.1356 -0.1603 0.9777
vn 0.2160 -0.9764 -0.0005
vn 0.1963 0.1497 -0.9691
vn -0.3354 0.1021 -0.9365
vn -0.3511 0.1069 0.9302
vn 0.1851 0.1412 0.9725
vn -0.0873 -0.2012 -0.9757
vn -0.0000 -0.8788 -0.4772
vn 0.6214 -0.5675 0.5402
vn 0.3876 -0.9218 -0.0000
vn 0.9496 -0.0402 0.3107
vn 0.9496 -0.0402 -0.3107
vn 0.6214 -0.5675 -0.5402
vn -0.4264 -0.9045 -0.0000
vn -0.0061 -0.3571 0.9340
vn 0.6512 0.5232 0.5498
vn 0.6512 0.5232 -0.5498
vn -0.0061 -0.3571 -0.9340
vn -0.6512 -0.5232 0.5498
vn 0.0061 0.3571 0.9340
vn 0.4264 0.9045 -0.0000
vn 0.0061 0.3571 -0.9340
vn -0.6512 -0.5232 -0.5498
vn -0.9496 0.0402 0.3107
vn -0.6214 0.5675 0.5402
vn -0.3876 0.9218 -0.0000
vn -0.6214 0.5675 -0.5402
vn -0.9496 0.0402 -0.3107
vn -0.0499 0.1978 -0.9790
vn -0.0000 -0.2859 -0.9583
vn 0.1006 -0.1422 0.9847
vn 0.4184 -0.7926 -0.4435
vn -0.8979 -0.3774 0.2265
vn 0.2225 -0.1849 0.9572
vn -0.5202 0.4705 -0.7127
vn 0.9647 -0.2411 0.1060
vn 0.1366 0.0350 -0.9900
vn 0.1562 0.3302 0.9309
vn 0.9921 0.0404 0.1191
vn -0.2682 -0.0812 -0.9599
vn 0.3312 -0.1132 0.9367
vn -0.0452 0.2042 0.9779
vn -0.6256 0.7597 0.1773
vn -0.0589 0.0122 -0.9982
vn 0.3122 -0.1067 -0.9440
vn 0.4424 -0.8544 -0.2724
vn -0.8008 0.4323 0.4145
vn 0.9014 -0.4077 0.1461
vn 0.1287 -0.1977 -0.9718
vn -0.1264 0.6237 -0.7714
vn 0.2438 0.9665 -0.0802
vn 0.1126 0.3251 0.9390
vn 0.0656 0.0951 0.9933
vn -0.2387 -0.9454 -0.2217
vn 0.1623 0.1778 0.9706
vn 0.0452 0.6226 -0.7813
vn 0.3846 0.3353 -0.8600
vn -0.8484 -0.5076 0.1502
vn -0.8965 0.3990 0.1924
vn 0.7980 0.4962 0.3421
vn 0.2951 -0.2606 0.9192
vn 0.0959 -0.8836 0.4582
vn 0.0206 0.2466 0.9689
vn -0.2682 0.0373 0.9626
vn -0.2232 0.9063 -0.3588
vn 0.0629 -0.4393 -0.8961
vn -0.2868 0.0264 -0.9576
vn -0.0069 -0.5224 0.8527
vn -0.0050 0.4726 0.8813
vn -0.0223 0.2054 -0.9784
vn 0.6021 -0.5066 -0.6172
vn 0.4523 0.3065 -0.8376
vn 0.6251 0.7598 0.1790
vn -0.2500 -0.1565 0.9555
vn -0.2224 -0.1390 -0.9650
vn 0.3922 0.2456 0.8865
vn -0.9187 -0.3852 0.0874
vn -0.2446 0.9664 -0.0790
vn -0.3818 -0.7818 -0.4929
vn 0.1230 0.4707 0.8737
vn -0.2825 -0.5397 -0.7930
vn -0.0805 0.2089 0.9746
vn -0.1536 0.4117 -0.8983
vn -0.1425 -0.3415 0.9290
vn 0.0501 -0.9453 -0.3223
vn 0.0507 -0.9563 0.2880
vn -0.2955 0.2410 0.9245
vn 0.2887 -0.9570 -0.0283
vt 0.544809 0.765446
vt 0.545238 0.766084
vt 0.545239 0.765436
vt 0.545417 0.766169
vt 0.545047 0.765966
vt 0.544865 0.767058
vt 0.545498 0.766561
vt 0.545200 0.767054
vt 0.544894 0.765466
vt 0.544911 0.765443
vt 0.545875 0.764043
vt 0.545036 0.759969
vt 0.544979 0.760130
vt 0.546979 0.760921
vt 0.546813 0.760837
vt 0.545749 0.759987
vt 0.546307 0.760036
vt 0.546366 0.759927
vt 0.546189 0.760249
vt 0.546386 0.760505
vt 0.545619 0.760085
vt 0.545556 0.759401
vt 0.544940 0.759364
vt 0.545932 0.759832
vt 0.546669 0.760979
vt 0.546380 0.760887
vt 0.547278 0.760868
vt 0.547212 0.761827
vt 0.545827 0.763746
vt 0.546281 0.763547
vt 0.546167 0.763984
vt 0.545855 0.764325
vt 0.545812 0.764080
vt 0.546056 0.763639
vt 0.546632 0.764004
vt 0.546361 0.764514
vt 0.546115 0.764533
vt 0.546223 0.764096
vt 0.546519 0.763780
vt 0.546575 0.764349
vt 0.544768 0.765682
vt 0.544948 0.765352
vt 0.544586 0.765105
vt 0.545133 0.765472
vt 0.544853 0.765630
vt 0.545418 0.766169
vt 0.545239 0.766221
vt 0.545591 0.766250
vt 0.544868 0.766813
vt 0.544613 0.767584
vt 0.545219 0.767063
vt 0.544781 0.767065
vt 0.544988 0.766753
vt 0.545276 0.767158
vt 0.544901 0.759915
vt 0.544635 0.759961
vt 0.544900 0.765450
vt 0.545909 0.763784
vt 0.545948 0.764315
vt 0.545988 0.764012
vt 0.545037 0.759969
vt 0.544979 0.760131
vt 0.546679 0.760921
vt 0.547009 0.760839
vt 0.545749 0.759987
vt 0.546315 0.760051
vt 0.546307 0.760036
vt 0.546220 0.759832
vt 0.545819 0.760086
vt 0.546386 0.760505
vt 0.545618 0.760085
vt 0.544940 0.759364
vt 0.545140 0.759443
vt 0.544799 0.759087
vt 0.546869 0.760973
vt 0.546380 0.760887
vt 0.547278 0.760868
vt 0.547212 0.761827
vt 0.545961 0.764313
vt 0.545988 0.764012
vt 0.545902 0.763753
vt 0.545827 0.763746
vt 0.546281 0.763547
vt 0.546167 0.763984
vt 0.545855 0.764325
vt 0.545812 0.764080
vt 0.546056 0.763639
vt 0.546632 0.764004
vt 0.546361 0.764514
vt 0.546115 0.764533
vt 0.546223 0.764096
vt 0.546519 0.763780
vt 0.546575 0.764349
s 0
usemtl Pal
f 43/43/1 3/3/1 42/42/1
f 5/5/2 1/1/2 41/41/2
f 4/4/3 3/3/3 1/1/3
f 7/7/4 6/6/4 2/2/4
f 8/8/5 7/7/5 4/4/5
f 8/8/6 50/50/6 7/7/6
f 8/8/7 52/52/7 50/50/7
f 49/49/8 52/52/8 8/8/8
f 9/9/9 56/56/9 12/12/9
f 19/19/10 21/21/10 20/20/10
f 25/25/11 20/20/11 15/15/11
f 18/18/12 24/24/12 22/22/12
f 72/72/13 74/74/13 68/68/13
f 21/21/14 55/55/14 13/13/14
f 22/22/15 24/24/15 74/74/15
f 14/14/16 25/25/16 27/27/16
f 15/15/17 26/26/17 25/25/17
f 25/25/18 26/26/18 28/28/18
f 27/27/19 25/25/19 28/28/19
f 15/15/20 27/27/20 28/28/20
f 26/26/21 15/15/21 28/28/21
f 74/74/22 24/24/22 73/73/22
f 29/29/23 30/30/23 31/31/23
f 30/30/24 29/29/24 34/34/24
f 29/29/25 31/31/25 32/32/25
f 29/29/26 32/32/26 33/33/26
f 29/29/27 33/33/27 34/34/27
f 30/30/28 34/34/28 39/39/28
f 31/31/29 30/30/29 35/35/29
f 32/32/30 31/31/30 36/36/30
f 33/33/31 32/32/31 37/37/31
f 34/34/32 33/33/32 38/38/32
f 30/30/33 39/39/33 35/35/33
f 31/31/34 35/35/34 36/36/34
f 32/32/35 36/36/35 37/37/35
f 33/33/36 37/37/36 38/38/36
f 34/34/37 38/38/37 39/39/37
f 35/35/38 39/39/38 40/40/38
f 36/36/39 35/35/39 40/40/39
f 37/37/40 36/36/40 40/40/40
f 38/38/41 37/37/41 40/40/41
f 39/39/42 38/38/42 40/40/42
f 43/43/43 42/42/43 44/44/43
f 43/43/44 44/44/44 1/1/44
f 47/47/45 53/53/45 51/51/45
f 46/46/46 54/54/46 52/52/46
f 50/50/47 54/54/47 51/51/47
f 61/61/48 57/57/48 62/62/48
f 81/81/49 58/58/49 11/11/49
f 66/66/50 65/65/50 70/70/50
f 71/71/51 69/69/51 70/70/51
f 5/5/52 41/41/52 45/45/52 2/2/52
f 68/68/53 73/73/53 66/66/53
f 77/77/54 75/75/54 64/64/54
f 75/75/55 78/78/55 76/76/55
f 77/77/56 78/78/56 75/75/56
f 64/64/57 78/78/57 77/77/57
f 76/76/58 78/78/58 64/64/58
f 69/69/59 55/55/59 72/72/59
f 72/72/60 23/23/60 74/74/60
f 82/82/61 84/84/61 83/83/61
f 83/83/62 87/87/62 82/82/62
f 82/82/63 85/85/63 84/84/63
f 82/82/64 86/86/64 85/85/64
f 82/82/65 87/87/65 86/86/65
f 83/83/66 92/92/66 87/87/66
f 84/84/67 88/88/67 83/83/67
f 85/85/68 89/89/68 84/84/68
f 86/86/69 90/90/69 85/85/69
f 87/87/70 91/91/70 86/86/70
f 83/83/71 88/88/71 92/92/71
f 84/84/72 89/89/72 88/88/72
f 85/85/73 90/90/73 89/89/73
f 86/86/74 91/91/74 90/90/74
f 87/87/75 92/92/75 91/91/75
f 88/88/76 93/93/76 92/92/76
f 89/89/77 93/93/77 88/88/77
f 90/90/78 93/93/78 89/89/78
f 91/91/79 93/93/79 90/90/79
f 92/92/80 93/93/80 91/91/80
f 55/55/81 69/69/81 62/62/81
f 55/55/82 23/23/82 72/72/82
f 2/2/83 45/45/83 42/42/83 3/3/83
f 1/1/84 3/3/84 43/43/84
f 49/49/85 5/5/85 2/2/85 6/6/85
f 3/3/86 7/7/86 2/2/86
f 5/5/87 4/4/87 1/1/87
f 3/3/88 4/4/88 7/7/88
f 10/10/89 13/13/89 55/55/89 57/57/89
f 6/6/90 7/7/90 50/50/90
f 12/12/91 13/13/91 10/10/91 9/9/91
f 4/4/92 5/5/92 49/49/92 8/8/92
f 24/24/93 18/18/93 14/14/93 15/15/93
f 24/24/94 20/20/94 16/16/94
f 20/20/95 21/21/95 16/16/95
f 19/19/96 20/20/96 25/25/96 14/14/96
f 14/14/97 17/17/97 19/19/97
f 22/22/98 23/23/98 17/17/98 18/18/98
f 15/15/99 20/20/99 24/24/99
f 14/14/100 18/18/100 17/17/100
f 55/55/101 19/19/101 17/17/101 23/23/101
f 19/19/102 55/55/102 21/21/102
f 12/12/103 16/16/103 21/21/103 13/13/103
f 16/16/104 12/12/104 24/24/104
f 24/24/105 12/12/105 56/56/105 73/73/105
f 14/14/106 27/27/106 15/15/106
f 47/47/107 48/48/107 42/42/107 45/45/107
f 1/1/108 44/44/108 41/41/108
f 47/47/109 41/41/109 44/44/109 46/46/109
f 48/48/110 46/46/110 44/44/110 42/42/110
f 54/54/111 46/46/111 48/48/111 51/51/111
f 45/45/112 41/41/112 47/47/112
f 48/48/113 47/47/113 51/51/113
f 6/6/114 51/51/114 53/53/114 49/49/114
f 51/51/115 6/6/115 50/50/115
f 57/57/116 61/61/116 56/56/116 9/9/116
f 54/54/117 50/50/117 52/52/117
f 52/52/118 49/49/118 53/53/118
f 55/55/119 62/62/119 57/57/119
f 58/58/120 81/81/120 80/80/120 60/60/120
f 60/60/121 80/80/121 79/79/121 59/59/121
f 59/59/122 79/79/122 11/11/122 58/58/122
f 53/53/123 47/47/123 46/46/123 52/52/123
f 69/69/124 75/75/124 63/63/124 70/70/124
f 65/65/125 71/71/125 70/70/125
f 64/64/126 68/68/126 66/66/126
f 69/69/127 67/67/127 75/75/127
f 63/63/128 64/64/128 66/66/128 70/70/128
f 64/64/129 75/75/129 67/67/129 68/68/129
f 71/71/130 65/65/130 61/61/130 62/62/130
f 67/67/131 72/72/131 68/68/131
f 66/66/132 73/73/132 65/65/132
f 69/69/133 72/72/133 67/67/133
f 73/73/134 61/61/134 65/65/134
f 71/71/135 62/62/135 69/69/135
f 68/68/136 74/74/136 73/73/136
f 63/63/137 76/76/137 64/64/137
f 75/75/138 76/76/138 63/63/138
f 56/56/139 61/61/139 73/73/139
f 23/23/140 22/22/140 74/74/140
