# Wavefront OBJ file
# Exported by Misfit Model 3D 1.3.8
# Sun Mar 10 20:25:14 2024

# 12 Vertices
v 1.881914 6.172263 2.0
v -2.118086 6.172263 2.0
v 1.881914 6.172263 -2.0
v -2.118086 6.172263 -2.0
v 1.881914 -1.827737 -2.0
v 1.881914 -1.827737 2.0
v -2.118086 -1.827737 -2.0
v -2.118086 -1.827737 2.0
v -2.118086 -5.827737 -2.0
v 1.881914 -5.827737 -2.0
v 1.881914 -5.827737 2.0
v -2.118086 -5.827737 2.0

# 60 Texture Coordinates
vt 4096.0 -4063.0
vt 4128.0 -4095.0
vt 4128.0 -4063.0
vt 4096.0 -4063.0
vt 4096.0 -4095.0
vt 4128.0 -4095.0
vt 4128.0 4193.0
vt 4096.0 4129.0
vt 4096.0 4193.0
vt 4128.0 4193.0
vt 4128.0 4129.0
vt 4096.0 4129.0
vt 4128.0 4129.0
vt 4096.0 4193.0
vt 4096.0 4129.0
vt 4128.0 4129.0
vt 4128.0 4193.0
vt 4096.0 4193.0
vt 4096.0 4129.0
vt 4064.0 4193.0
vt 4064.0 4129.0
vt 4096.0 4129.0
vt 4096.0 4193.0
vt 4064.0 4193.0
vt 4096.0 4193.0
vt 4064.0 4129.0
vt 4064.0 4193.0
vt 4096.0 4193.0
vt 4096.0 4129.0
vt 4064.0 4129.0
vt 4096.0 4129.0
vt 4064.0 4097.0
vt 4096.0 4097.0
vt 4096.0 4129.0
vt 4064.0 4129.0
vt 4064.0 4097.0
vt 4096.0 4129.0
vt 4064.0 4097.0
vt 4064.0 4129.0
vt 4096.0 4129.0
vt 4096.0 4097.0
vt 4064.0 4097.0
vt 4128.0 4129.0
vt 4096.0 4097.0
vt 4096.0 4129.0
vt 4128.0 4129.0
vt 4128.0 4097.0
vt 4096.0 4097.0
vt 4096.0 4097.0
vt 4128.0 4129.0
vt 4096.0 4129.0
vt 4096.0 4097.0
vt 4128.0 4097.0
vt 4128.0 4129.0
vt 4096.0 -4063.0
vt 4128.0 -4095.0
vt 4096.0 -4095.0
vt 4096.0 -4063.0
vt 4128.0 -4063.0
vt 4128.0 -4095.0

# 60 Vertex Normals
vn 0.0 1.0 0.0
vn 0.0 1.0 0.0
vn 0.0 1.0 0.0
vn 0.0 1.0 0.0
vn 0.0 1.0 0.0
vn 0.0 1.0 0.0
vn 1.0 0.0 -0.0
vn 1.0 0.0 0.0
vn 1.0 0.0 -0.0
vn 1.0 0.0 -0.0
vn 1.0 0.0 0.0
vn 1.0 0.0 0.0
vn -1.0 0.0 -0.0
vn -1.0 0.0 -0.0
vn -1.0 0.0 0.0
vn -1.0 0.0 -0.0
vn -1.0 0.0 -0.0
vn -1.0 0.0 -0.0
vn 0.0 -0.0 -1.0
vn 0.0 -0.0 -1.0
vn 0.0 -0.0 -1.0
vn 0.0 -0.0 -1.0
vn 0.0 0.0 -1.0
vn 0.0 -0.0 -1.0
vn 0.0 0.0 1.0
vn 0.0 0.0 1.0
vn 0.0 0.0 1.0
vn 0.0 0.0 1.0
vn 0.0 0.0 1.0
vn 0.0 0.0 1.0
vn 0.0 -0.0 -1.0
vn 0.0 -0.0 -1.0
vn 0.0 -0.0 -1.0
vn 0.0 -0.0 -1.0
vn 0.0 -0.0 -1.0
vn 0.0 -0.0 -1.0
vn 0.0 0.0 1.0
vn 0.0 0.0 1.0
vn 0.0 0.0 1.0
vn 0.0 0.0 1.0
vn 0.0 0.0 1.0
vn 0.0 0.0 1.0
vn 1.0 0.0 0.0
vn 1.0 0.0 0.0
vn 1.0 0.0 0.0
vn 1.0 0.0 0.0
vn 1.0 0.0 0.0
vn 1.0 0.0 0.0
vn -1.0 0.0 0.0
vn -1.0 0.0 -0.0
vn -1.0 0.0 0.0
vn -1.0 0.0 0.0
vn -1.0 0.0 -0.0
vn -1.0 0.0 -0.0
vn 0.0 -1.0 0.0
vn 0.0 -1.0 0.0
vn 0.0 -1.0 0.0
vn 0.0 -1.0 0.0
vn 0.0 -1.0 0.0
vn 0.0 -1.0 0.0

# slot82, 10 grouped triangles

o slot82
g slot82

f 3/1/1 2/2/2 1/3/3
f 3/4/4 4/5/5 2/6/6
f 1/7/7 5/8/8 3/9/9
f 1/10/10 6/11/11 5/12/12
f 8/13/13 4/14/14 7/15/15
f 8/16/16 2/17/17 4/18/18
f 7/19/19 3/20/20 5/21/21
f 7/22/22 4/23/23 3/24/24
f 2/25/25 6/26/26 1/27/27
f 2/28/28 8/29/29 6/30/30
# slot134, 10 grouped triangles

o slot134
g slot134

f 7/31/31 10/32/32 9/33/33
f 7/34/34 5/35/35 10/36/36
f 8/37/37 11/38/38 6/39/39
f 8/40/40 12/41/41 11/42/42
f 6/43/43 10/44/44 5/45/45
f 6/46/46 11/47/47 10/48/48
f 9/49/49 8/50/50 7/51/51
f 9/52/52 12/53/53 8/54/54
f 10/55/55 12/56/56 9/57/57
f 10/58/58 11/59/59 12/60/60
