# Wavefront OBJ file
# Exported by Misfit Model 3D 1.3.8
# Thu Dec 08 14:57:34 2022

# 80 Vertices
v -0.196261 -0.003554 0.2057
v -0.193896 0.448076 0.203337
v -0.196261 -0.003554 0.111549
v -0.193896 0.448076 0.113915
v -0.10211 -0.003554 0.2057
v -0.104472 0.448076 0.203337
v -0.10211 -0.003554 0.111549
v -0.104472 0.448076 0.113915
v 0.212255 -0.003554 0.2057
v 0.20989 0.448076 0.203337
v 0.212255 -0.003554 0.111549
v 0.20989 0.448076 0.113915
v 0.118105 -0.003554 0.2057
v 0.12047 0.448076 0.203337
v 0.118105 -0.003554 0.111549
v 0.12047 0.448076 0.113915
v 0.2003 0.230004 0.200302
v 0.2003 0.230004 0.11088
v 0.112901 0.211087 0.11088
v 0.112901 0.211087 0.200302
v -0.196261 -0.003554 -0.20302
v -0.193896 0.448076 -0.200657
v -0.196261 -0.003554 -0.108868
v -0.193896 0.448076 -0.111233
v -0.10211 -0.003554 -0.20302
v -0.104472 0.448076 -0.200657
v -0.10211 -0.003554 -0.108868
v -0.104472 0.448076 -0.111233
v -0.184305 0.230004 -0.197622
v -0.184305 0.230004 -0.108198
v -0.096907 0.211087 -0.108198
v -0.096907 0.211087 -0.197622
v 0.212255 -0.003554 -0.20302
v 0.20989 0.448076 -0.200657
v 0.212255 -0.003554 -0.108868
v 0.20989 0.448076 -0.111233
v 0.118105 -0.003554 -0.20302
v 0.12047 0.448076 -0.200657
v 0.118105 -0.003554 -0.108868
v 0.12047 0.448076 -0.111233
v -0.239492 0.444792 -0.229088
v -0.239492 0.509587 -0.235096
v 0.236011 0.444792 -0.229088
v 0.236011 0.509587 -0.235096
v -0.239492 0.444824 0.240881
v -0.239492 0.509555 0.234226
v 0.236011 0.444824 0.240881
v 0.236011 0.509555 0.234226
v -0.174212 0.064396 0.126
v -0.174212 0.12947 0.126
v -0.132899 0.064396 0.126
v -0.132899 0.12947 0.126
v -0.174212 0.064396 -0.120312
v -0.174212 0.12947 -0.120312
v -0.132899 0.064396 -0.120312
v -0.132899 0.12947 -0.120312
v 0.142416 0.064396 0.126
v 0.142416 0.12947 0.126
v 0.183729 0.064396 0.126
v 0.183729 0.12947 0.126
v 0.142416 0.064396 -0.120312
v 0.142416 0.12947 -0.120312
v 0.183729 0.064396 -0.120312
v 0.183729 0.12947 -0.120312
v 0.127916 0.064396 0.181812
v 0.127916 0.12947 0.181812
v 0.127916 0.064396 0.140503
v 0.127916 0.12947 0.140503
v -0.118395 0.064396 0.181812
v -0.118395 0.12947 0.181812
v -0.118395 0.064396 0.140503
v -0.118395 0.12947 0.140503
v 0.127916 0.064396 -0.134815
v 0.127916 0.12947 -0.134815
v 0.127916 0.064396 -0.176126
v 0.127916 0.12947 -0.176126
v -0.118395 0.064396 -0.134815
v -0.118395 0.12947 -0.134815
v -0.118395 0.064396 -0.176126
v -0.118395 0.12947 -0.176126

# 276 Texture Coordinates
vt 0.2843 0.0281
vt 0.2854 0.0281
vt 0.2855 0.0337
vt 0.2769 0.0282
vt 0.2769 0.0338
vt 0.2758 0.0338
vt 0.2844 0.0279
vt 0.2833 0.0279
vt 0.2833 0.0223
vt 0.2796 0.0337
vt 0.2797 0.0281
vt 0.2807 0.0281
vt 0.2796 0.0337
vt 0.2807 0.0281
vt 0.2807 0.0337
vt 0.2844 0.0223
vt 0.2844 0.0279
vt 0.2833 0.0223
vt 0.2769 0.0282
vt 0.2758 0.0338
vt 0.2757 0.0282
vt 0.2843 0.0337
vt 0.2843 0.0281
vt 0.2855 0.0337
vt 0.2905 0.0213
vt 0.2916 0.0213
vt 0.2915 0.024
vt 0.2905 0.0213
vt 0.2915 0.024
vt 0.2904 0.024
vt 0.2803 0.027
vt 0.2793 0.0272
vt 0.2794 0.0243
vt 0.2803 0.027
vt 0.2794 0.0243
vt 0.2805 0.0243
vt 0.2892 0.0271
vt 0.2881 0.0271
vt 0.2881 0.0242
vt 0.2892 0.0271
vt 0.2881 0.0242
vt 0.2891 0.0242
vt 0.2819 0.0269
vt 0.2829 0.0271
vt 0.283 0.0298
vt 0.2819 0.0269
vt 0.283 0.0298
vt 0.282 0.0298
vt 0.2819 0.0242
vt 0.283 0.0242
vt 0.2829 0.0271
vt 0.2819 0.0242
vt 0.2829 0.0271
vt 0.2819 0.0269
vt 0.2892 0.0298
vt 0.2881 0.0298
vt 0.2881 0.0271
vt 0.2892 0.0298
vt 0.2881 0.0271
vt 0.2892 0.0271
vt 0.2805 0.0299
vt 0.2793 0.0298
vt 0.2793 0.0272
vt 0.2805 0.0299
vt 0.2793 0.0272
vt 0.2803 0.027
vt 0.2904 0.0184
vt 0.2916 0.0184
vt 0.2916 0.0213
vt 0.2904 0.0184
vt 0.2916 0.0213
vt 0.2905 0.0213
vt 0.2904 0.0271
vt 0.2915 0.0271
vt 0.2914 0.0298
vt 0.2904 0.0271
vt 0.2914 0.0298
vt 0.2903 0.0298
vt 0.2868 0.0269
vt 0.2857 0.0271
vt 0.2858 0.0242
vt 0.2868 0.0269
vt 0.2858 0.0242
vt 0.2869 0.0242
vt 0.2881 0.0213
vt 0.2871 0.0213
vt 0.287 0.0184
vt 0.2881 0.0213
vt 0.287 0.0184
vt 0.2881 0.0184
vt 0.2832 0.0269
vt 0.2842 0.0272
vt 0.2844 0.0299
vt 0.2832 0.0269
vt 0.2844 0.0299
vt 0.2833 0.0299
vt 0.2832 0.0243
vt 0.2844 0.0243
vt 0.2842 0.0272
vt 0.2832 0.0243
vt 0.2842 0.0272
vt 0.2832 0.0269
vt 0.2881 0.024
vt 0.287 0.024
vt 0.2871 0.0213
vt 0.2881 0.024
vt 0.2871 0.0213
vt 0.2881 0.0213
vt 0.2869 0.0298
vt 0.2858 0.0298
vt 0.2857 0.0271
vt 0.2869 0.0298
vt 0.2857 0.0271
vt 0.2868 0.0269
vt 0.2903 0.0242
vt 0.2915 0.0242
vt 0.2915 0.0271
vt 0.2903 0.0242
vt 0.2915 0.0271
vt 0.2904 0.0271
vt 0.2825 0.0214
vt 0.2835 0.0213
vt 0.2836 0.0269
vt 0.2721 0.0271
vt 0.2721 0.0327
vt 0.271 0.0327
vt 0.2812 0.0327
vt 0.2801 0.0327
vt 0.2801 0.0271
vt 0.2694 0.0328
vt 0.2695 0.0272
vt 0.2705 0.0272
vt 0.276 0.0301
vt 0.2826 0.0359
vt 0.2772 0.0301
vt 0.2694 0.0328
vt 0.2705 0.0272
vt 0.2705 0.0328
vt 0.2812 0.0271
vt 0.2812 0.0327
vt 0.2801 0.0271
vt 0.276 0.0301
vt 0.2772 0.0301
vt 0.2725 0.0356
vt 0.2721 0.0271
vt 0.271 0.0327
vt 0.2709 0.0272
vt 0.2824 0.0269
vt 0.2825 0.0214
vt 0.2836 0.0269
vt 0.2818 0.0301
vt 0.2826 0.0359
vt 0.2818 0.0359
vt 0.2725 0.0356
vt 0.2733 0.0415
vt 0.2725 0.0414
vt 0.276 0.0243
vt 0.276 0.0301
vt 0.2747 0.0301
vt 0.276 0.0301
vt 0.276 0.0243
vt 0.2772 0.0243
vt 0.2761 0.0269
vt 0.2761 0.03
vt 0.2753 0.03
vt 0.2837 0.0332
vt 0.2842 0.0302
vt 0.2842 0.0332
vt 0.2763 0.03
vt 0.2758 0.033
vt 0.2758 0.03
vt 0.2837 0.0332
vt 0.2837 0.0302
vt 0.2842 0.0302
vt 0.2747 0.0243
vt 0.2733 0.0415
vt 0.276 0.0243
vt 0.276 0.0301
vt 0.2772 0.0243
vt 0.2772 0.0301
vt 0.276 0.0243
vt 0.2747 0.0301
vt 0.2747 0.0243
vt 0.2725 0.0356
vt 0.2733 0.0357
vt 0.2733 0.0415
vt 0.2818 0.0301
vt 0.2826 0.0301
vt 0.2826 0.0359
vt 0.2747 0.0243
vt 0.276 0.0243
vt 0.2818 0.0301
vt 0.2761 0.0269
vt 0.2753 0.03
vt 0.2753 0.0269
vt 0.2853 0.0155
vt 0.2853 0.0185
vt 0.2846 0.0185
vt 0.2763 0.03
vt 0.2763 0.033
vt 0.2758 0.033
vt 0.2853 0.0155
vt 0.2846 0.0185
vt 0.2846 0.0155
vt 0.2757 0.032967
vt 0.2757 0.0299
vt 0.2765 0.0299
vt 0.2757 0.032967
vt 0.2765 0.0299
vt 0.2765 0.033
vt 0.2883 0.0332
vt 0.2883 0.0302
vt 0.2888 0.0302
vt 0.2883 0.0332
vt 0.2888 0.0302
vt 0.2888 0.0332
vt 0.2752 0.0329
vt 0.2752 0.0299
vt 0.2757 0.0299
vt 0.2752 0.0329
vt 0.2757 0.0299
vt 0.2757 0.032967
vt 0.2883 0.0302
vt 0.2883 0.0332
vt 0.2875 0.0332
vt 0.2883 0.0302
vt 0.2875 0.0332
vt 0.2875 0.0302
vt 0.2793 0.0329
vt 0.2793 0.0299
vt 0.2801 0.0299
vt 0.2793 0.0329
vt 0.2801 0.0299
vt 0.2801 0.0329
vt 0.2837 0.0329
vt 0.2837 0.0359
vt 0.2832 0.0359
vt 0.2837 0.0329
vt 0.2832 0.0359
vt 0.2832 0.0329
vt 0.2801 0.0359
vt 0.2801 0.0329
vt 0.2806 0.0329
vt 0.2801 0.0359
vt 0.2806 0.0329
vt 0.2806 0.0359
vt 0.2822 0.0299
vt 0.2822 0.033
vt 0.2814 0.033
vt 0.2822 0.0299
vt 0.2814 0.033
vt 0.2814 0.0299
vt 0.2845 0.0272
vt 0.2845 0.0302
vt 0.2837 0.0302
vt 0.2845 0.0272
vt 0.2837 0.0302
vt 0.2837 0.0272
vt 0.2741 0.03
vt 0.2741 0.0331
vt 0.2736 0.0331
vt 0.2741 0.03
vt 0.2736 0.0331
vt 0.2736 0.03
vt 0.2731 0.0331
vt 0.2731 0.03
vt 0.2736 0.03
vt 0.2731 0.0331
vt 0.2736 0.03
vt 0.2736 0.0331
vt 0.2715 0.033
vt 0.2715 0.03
vt 0.2722 0.03
vt 0.2715 0.033
vt 0.2722 0.03
vt 0.2722 0.033

# 276 Vertex Normals
vn -0.999986 0.005237 -0.0
vn -0.999986 0.005237 -0.0
vn -0.999986 0.005237 -0.0
vn -0.0 0.005239 -0.999986
vn -0.0 0.005239 -0.999986
vn -0.0 0.005239 -0.999986
vn 0.999986 0.00523 -0.0
vn 0.999986 0.00523 -0.0
vn 0.999986 0.00523 -0.0
vn -0.0 0.005232 0.999986
vn -0.0 0.005232 0.999986
vn -0.0 0.005232 0.999986
vn -0.0 0.005232 0.999986
vn -0.0 0.005232 0.999986
vn 0.0 0.005232 0.999986
vn 0.999986 0.00523 0.0
vn 0.999986 0.00523 -0.0
vn 0.999986 0.00523 -0.0
vn -0.0 0.005239 -0.999986
vn -0.0 0.005239 -0.999986
vn -0.0 0.005239 -0.999986
vn -0.999986 0.005237 -0.0
vn -0.999986 0.005237 -0.0
vn -0.999986 0.005237 -0.0
vn 0.999925 -0.012262 0.0
vn 0.999811 0.019455 0.0
vn 0.999034 -0.043934 0.0
vn 0.999925 -0.012262 0.0
vn 0.999034 -0.043934 0.0
vn 0.999034 -0.043934 0.0
vn -0.000726 0.007993 -0.999968
vn -0.000726 0.002315 -0.999997
vn -0.001395 0.013405 -0.999909
vn -0.000726 0.007993 -0.999968
vn -0.001395 0.013405 -0.999909
vn 0.0 0.013916 -0.999903
vn -0.999913 0.013207 0.0
vn -0.999985 -0.00552 0.0
vn -0.99949 0.031922 0.0
vn -0.999913 0.013207 0.0
vn -0.99949 0.031922 0.0
vn -0.99949 0.031922 -0.0
vn -0.000791 -0.000615 1.0
vn -0.000791 0.011357 0.999935
vn 0.00152 -0.013428 0.999909
vn -0.000791 -0.000615 1.0
vn 0.00152 -0.013428 0.999909
vn 0.0 -0.012805 0.999918
vn -0.002707 0.024058 0.999707
vn 0.0 0.023106 0.999733
vn -0.000791 0.011357 0.999935
vn -0.002707 0.024058 0.999707
vn -0.000791 0.011357 0.999935
vn -0.000791 -0.000615 1.0
vn -0.999706 -0.024238 0.0
vn -0.999706 -0.024238 0.0
vn -0.999985 -0.00552 0.0
vn -0.999706 -0.024238 0.0
vn -0.999985 -0.00552 0.0
vn -0.999913 0.013207 0.0
vn 0.000307 -0.002975 -0.999996
vn 0.0 -0.003117 -0.999995
vn -0.000726 0.002315 -0.999997
vn 0.000307 -0.002975 -0.999996
vn -0.000726 0.002315 -0.999997
vn -0.000726 0.007993 -0.999968
vn 0.998693 0.05112 0.0
vn 0.998693 0.05112 -0.0
vn 0.999811 0.019455 0.0
vn 0.998693 0.05112 0.0
vn 0.999811 0.019455 0.0
vn 0.999925 -0.012262 0.0
vn -0.999925 -0.012263 0.0
vn -0.999811 0.019456 0.0
vn -0.999034 -0.043938 0.0
vn -0.999925 -0.012263 0.0
vn -0.999034 -0.043938 0.0
vn -0.999034 -0.043938 0.0
vn 0.000726 0.007991 0.999968
vn 0.000726 0.002312 0.999997
vn 0.001395 0.013405 0.999909
vn 0.000726 0.007991 0.999968
vn 0.001395 0.013405 0.999909
vn 0.0 0.013916 0.999903
vn 0.999913 0.013197 0.0
vn 0.999985 -0.005522 0.0
vn 0.999491 0.031905 -0.0
vn 0.999913 0.013197 0.0
vn 0.999491 0.031905 -0.0
vn 0.999491 0.031905 -0.0
vn 0.000791 -0.000615 -1.0
vn 0.000791 0.011357 -0.999935
vn -0.001521 -0.013428 -0.999909
vn 0.000791 -0.000615 -1.0
vn -0.001521 -0.013428 -0.999909
vn -0.0 -0.012805 -0.999918
vn 0.002707 0.024058 -0.999707
vn -0.0 0.023106 -0.999733
vn 0.000791 0.011357 -0.999935
vn 0.002707 0.024058 -0.999707
vn 0.000791 0.011357 -0.999935
vn 0.000791 -0.000615 -1.0
vn 0.999706 -0.024233 0.0
vn 0.999706 -0.024233 0.0
vn 0.999985 -0.005522 0.0
vn 0.999706 -0.024233 0.0
vn 0.999985 -0.005522 0.0
vn 0.999913 0.013197 0.0
vn -0.000307 -0.002979 0.999996
vn 0.0 -0.003121 0.999995
vn 0.000726 0.002312 0.999997
vn -0.000307 -0.002979 0.999996
vn 0.000726 0.002312 0.999997
vn 0.000726 0.007991 0.999968
vn -0.998692 0.051124 0.0
vn -0.998692 0.051124 -0.0
vn -0.999811 0.019456 0.0
vn -0.998692 0.051124 0.0
vn -0.999811 0.019456 0.0
vn -0.999925 -0.012263 0.0
vn 0.999986 0.005237 -0.0
vn 0.999986 0.005237 -0.0
vn 0.999986 0.005237 -0.0
vn -0.0 0.005237 0.999986
vn -0.0 0.005237 0.999986
vn -0.0 0.005237 0.999986
vn -0.999986 0.005237 0.0
vn -0.999986 0.005237 0.0
vn -0.999986 0.005237 0.0
vn -0.0 0.005232 -0.999986
vn -0.0 0.005232 -0.999986
vn -0.0 0.005232 -0.999986
vn -0.0 0.102269 0.994757
vn 0.0 0.102269 0.994757
vn -0.0 0.102269 0.994757
vn -0.0 0.005232 -0.999986
vn -0.0 0.005232 -0.999986
vn -0.0 0.005232 -0.999986
vn -0.999986 0.005237 0.0
vn -0.999986 0.005237 0.0
vn -0.999986 0.005237 0.0
vn -0.0 0.102269 0.994757
vn -0.0 0.102269 0.994757
vn -0.0 0.102269 0.994757
vn -0.0 0.005237 0.999986
vn -0.0 0.005237 0.999986
vn -0.0 0.005237 0.999986
vn 0.999986 0.005237 -0.0
vn 0.999986 0.005237 -0.0
vn 0.999986 0.005237 -0.0
vn 1.0 0.0 -0.0
vn 1.0 0.0 -0.0
vn 1.0 0.0 -0.0
vn -1.0 0.0 0.0
vn -1.0 0.0 0.0
vn -1.0 0.0 0.0
vn -0.0 -1.0 0.000066
vn -0.0 -1.0 0.000066
vn -0.0 -1.0 0.000066
vn -0.0 1.0 0.000068
vn -0.0 1.0 0.000068
vn -0.0 1.0 0.000068
vn 0.0 -0.0 1.0
vn 0.0 -0.0 1.0
vn 0.0 -0.0 1.0
vn 0.0 1.0 0.0
vn 0.0 1.0 0.0
vn -0.0 1.0 0.0
vn 0.0 -1.0 0.0
vn 0.0 -1.0 0.0
vn 0.0 -1.0 0.0
vn 0.0 1.0 0.0
vn 0.0 1.0 0.0
vn 0.0 1.0 0.0
vn -0.0 -0.092327 -0.995729
vn -0.0 -0.092327 -0.995729
vn -0.0 -0.092327 -0.995729
vn -0.0 1.0 0.000068
vn -0.0 1.0 0.000068
vn -0.0 1.0 0.000068
vn -0.0 -1.0 0.000066
vn -0.0 -1.0 0.000066
vn 0.0 -1.0 0.000066
vn -1.0 0.0 0.0
vn -1.0 0.0 0.0
vn -1.0 0.0 0.0
vn 1.0 0.0 -0.0
vn 1.0 0.0 -0.0
vn 1.0 0.0 -0.0
vn -0.0 -0.092327 -0.995729
vn -0.0 -0.092327 -0.995729
vn 0.0 -0.092327 -0.995729
vn 0.0 -0.0 1.0
vn 0.0 -0.0 1.0
vn 0.0 -0.0 1.0
vn 0.0 -0.0 -1.0
vn 0.0 -0.0 -1.0
vn 0.0 -0.0 -1.0
vn 0.0 -1.0 0.0
vn -0.0 -1.0 0.0
vn 0.0 -1.0 0.0
vn 0.0 -0.0 -1.0
vn 0.0 -0.0 -1.0
vn 0.0 -0.0 -1.0
vn -1.0 0.0 0.0
vn -1.0 0.0 -0.0
vn -1.0 0.0 0.0
vn -1.0 0.0 0.0
vn -1.0 0.0 0.0
vn -1.0 0.0 0.0
vn 0.0 -1.0 0.0
vn 0.0 -1.0 0.0
vn 0.0 -1.0 0.0
vn 0.0 -1.0 0.0
vn 0.0 -1.0 0.0
vn 0.0 -1.0 0.0
vn -0.0 1.0 0.0
vn -0.0 1.0 0.0
vn -0.0 1.0 0.0
vn -0.0 1.0 0.0
vn -0.0 1.0 0.0
vn -0.0 1.0 0.0
vn 1.0 0.0 0.0
vn 1.0 0.0 -0.0
vn 1.0 0.0 0.0
vn 1.0 0.0 0.0
vn 1.0 0.0 0.0
vn 1.0 0.0 0.0
vn -1.0 0.0 0.0
vn -1.0 0.0 0.0
vn -1.0 0.0 0.0
vn -1.0 0.0 0.0
vn -1.0 0.0 0.0
vn -1.0 0.0 -0.0
vn 0.0 -1.0 0.0
vn 0.0 -1.0 0.0
vn 0.0 -1.0 0.0
vn 0.0 -1.0 0.0
vn 0.0 -1.0 0.0
vn 0.0 -1.0 0.0
vn -0.0 1.0 0.0
vn -0.0 1.0 0.0
vn -0.0 1.0 0.0
vn -0.0 1.0 0.0
vn -0.0 1.0 0.0
vn -0.0 1.0 0.0
vn 1.0 0.0 0.0
vn 1.0 0.0 0.0
vn 1.0 0.0 0.0
vn 1.0 0.0 0.0
vn 1.0 0.0 0.0
vn 1.0 0.0 -0.0
vn 0.0 -0.0 1.0
vn 0.0 -0.0 1.0
vn 0.0 -0.0 1.0
vn 0.0 -0.0 1.0
vn 0.0 -0.0 1.0
vn 0.0 -0.0 1.0
vn 0.0 -1.0 0.0
vn -0.0 -1.0 0.0
vn 0.0 -1.0 0.0
vn 0.0 -1.0 0.0
vn 0.0 -1.0 0.0
vn 0.0 -1.0 0.0
vn 0.0 1.0 0.0
vn -0.0 1.0 0.0
vn 0.0 1.0 0.0
vn 0.0 1.0 0.0
vn 0.0 1.0 0.0
vn 0.0 1.0 0.0
vn 0.0 0.0 -1.0
vn 0.0 0.0 -1.0
vn 0.0 0.0 -1.0
vn 0.0 0.0 -1.0
vn 0.0 0.0 -1.0
vn 0.0 0.0 -1.0

# 92 Ungrouped triangles

o ungrouped
g ungrouped

f 2/1/1 4/2/2 3/3/3
f 3/4/4 4/5/5 8/6/6
f 8/7/7 6/8/8 5/9/9
f 5/10/10 6/11/11 2/12/12
f 5/13/13 2/14/14 1/15/15
f 7/16/16 8/17/17 5/18/18
f 3/19/19 8/20/20 7/21/21
f 1/22/22 2/23/23 3/24/24
f 17/25/25 18/26/26 12/27/27
f 17/28/28 12/29/29 10/30/30
f 18/31/31 19/32/32 16/33/33
f 18/34/34 16/35/35 12/36/36
f 19/37/37 20/38/38 14/39/39
f 19/40/40 14/41/41 16/42/42
f 20/43/43 17/44/44 10/45/45
f 20/46/46 10/47/47 14/48/48
f 13/49/49 9/50/50 17/51/51
f 13/52/52 17/53/53 20/54/54
f 15/55/55 13/56/56 20/57/57
f 15/58/58 20/59/59 19/60/60
f 11/61/61 15/62/62 19/63/63
f 11/64/64 19/65/65 18/66/66
f 9/67/67 11/68/68 18/69/69
f 9/70/70 18/71/71 17/72/72
f 29/73/73 30/74/74 24/75/75
f 29/76/76 24/77/77 22/78/78
f 30/79/79 31/80/80 28/81/81
f 30/82/82 28/83/83 24/84/84
f 31/85/85 32/86/86 26/87/87
f 31/88/88 26/89/89 28/90/90
f 32/91/91 29/92/92 22/93/93
f 32/94/94 22/95/95 26/96/96
f 25/97/97 21/98/98 29/99/99
f 25/100/100 29/101/101 32/102/102
f 27/103/103 25/104/104 32/105/105
f 27/106/106 32/107/107 31/108/108
f 23/109/109 27/110/110 31/111/111
f 23/112/112 31/113/113 30/114/114
f 21/115/115 23/116/116 30/117/117
f 21/118/118 30/119/119 29/120/120
f 34/121/121 36/122/122 35/123/123
f 35/124/124 36/125/125 40/126/126
f 40/127/127 38/128/128 37/129/129
f 37/130/130 38/131/131 34/132/132
f 47/133/133 48/134/134 46/135/135
f 37/136/136 34/137/137 33/138/138
f 39/139/139 40/140/140 37/141/141
f 47/142/142 46/143/143 45/144/144
f 35/145/145 40/146/146 39/147/147
f 33/148/148 34/149/149 35/150/150
f 43/151/151 48/152/152 47/153/153
f 45/154/154 42/155/155 41/156/156
f 43/157/157 47/158/158 45/159/159
f 48/160/160 44/161/161 42/162/162
f 74/163/163 78/164/164 77/165/165
f 76/166/166 78/167/167 74/168/168
f 73/169/169 79/170/170 75/171/171
f 76/172/172 80/173/173 78/174/174
f 41/175/175 42/176/176 44/177/177
f 48/178/178 42/179/179 46/180/180
f 43/181/181 45/182/182 41/183/183
f 45/184/184 46/185/185 42/186/186
f 43/187/187 44/188/188 48/189/189
f 41/190/190 44/191/191 43/192/192
f 74/193/193 77/194/194 73/195/195
f 75/196/196 79/197/197 80/198/198
f 73/199/199 77/200/200 79/201/201
f 75/202/202 80/203/203 76/204/204
f 50/205/205 54/206/206 53/207/207
f 50/208/208 53/209/209 49/210/210
f 49/211/211 53/212/212 55/213/213
f 49/214/214 55/215/215 51/216/216
f 52/217/217 56/218/218 54/219/219
f 52/220/220 54/221/221 50/222/222
f 51/223/223 55/224/224 56/225/225
f 51/226/226 56/227/227 52/228/228
f 58/229/229 62/230/230 61/231/231
f 58/232/232 61/233/233 57/234/234
f 57/235/235 61/236/236 63/237/237
f 57/238/238 63/239/239 59/240/240
f 60/241/241 64/242/242 62/243/243
f 60/244/244 62/245/245 58/246/246
f 59/247/247 63/248/248 64/249/249
f 59/250/250 64/251/251 60/252/252
f 66/253/253 70/254/254 69/255/255
f 66/256/256 69/257/257 65/258/258
f 65/259/259 69/260/260 71/261/261
f 65/262/262 71/263/263 67/264/264
f 68/265/265 72/266/266 70/267/267
f 68/268/268 70/269/269 66/270/270
f 67/271/271 71/272/272 72/273/273
f 67/274/274 72/275/275 68/276/276
