usemtl world_001
v -0.196261 -0.003554 0.2057
v -0.193896 0.448076 0.203337
v -0.196261 -0.003554 0.111549
v -0.193896 0.448076 0.113915
v -0.10211 -0.003554 0.2057
v -0.104472 0.448076 0.203337
v -0.10211 -0.003554 0.111549
v -0.104472 0.448076 0.113915
v 0.212255 -0.003554 0.2057
v 0.20989 0.448076 0.203337
v 0.212255 -0.003554 0.111549
v 0.20989 0.448076 0.113915
v 0.118105 -0.003554 0.2057
v 0.12047 0.448076 0.203337
v 0.118105 -0.003554 0.111549
v 0.12047 0.448076 0.113915
v 0.2003 0.230004 0.200302
v 0.2003 0.230004 0.11088
v 0.112901 0.211087 0.11088
v 0.112901 0.211087 0.200302
v -0.196261 -0.003554 -0.20302
v -0.193896 0.448076 -0.200657
v -0.196261 -0.003554 -0.108868
v -0.193896 0.448076 -0.111233
v -0.10211 -0.003554 -0.20302
v -0.104472 0.448076 -0.200657
v -0.10211 -0.003554 -0.108868
v -0.104472 0.448076 -0.111233
v -0.184305 0.230004 -0.197622
v -0.184305 0.230004 -0.108198
v -0.096907 0.211087 -0.108198
v -0.096907 0.211087 -0.197622
v 0.212255 -0.003554 -0.20302
v 0.20989 0.448076 -0.200657
v 0.212255 -0.003554 -0.108868
v 0.20989 0.448076 -0.111233
v 0.118105 -0.003554 -0.20302
v 0.12047 0.448076 -0.200657
v 0.118105 -0.003554 -0.108868
v 0.12047 0.448076 -0.111233
v -0.222498 0.443222 -0.229088
v -0.222498 0.508017 -0.235096
v -0.117052 0.443222 -0.229088
v -0.117052 0.508017 -0.235096
v -0.222498 0.443253 0.240881
v -0.222498 0.507985 0.234226
v -0.117052 0.443253 0.240881
v -0.117052 0.507985 0.234226
v 0.132765 0.443122 -0.240101
v 0.132765 0.508117 -0.236912
v 0.238493 0.443122 -0.240101
v 0.238493 0.508117 -0.236912
v 0.132765 0.443265 0.234966
v 0.132765 0.507974 0.241848
v 0.238493 0.443265 0.234966
v 0.238493 0.507974 0.241848
v 0.128797 0.508003 0.222363
v 0.128797 0.443236 0.228676
v 0.001718 0.508003 0.222363
v 0.001718 0.443236 0.228676
v 0.128797 0.508102 -0.247312
v 0.128797 0.443137 -0.243559
v 0.001722 0.508102 -0.247312
v 0.001722 0.443137 -0.243559
v -0.11281 0.443099 -0.241735
v -0.11281 0.50814 -0.23967
v -0.005236 0.443099 -0.241735
v -0.005236 0.50814 -0.23967
v -0.11281 0.443352 0.225947
v -0.11281 0.507886 0.234306
v -0.005236 0.443352 0.225947
v -0.005236 0.507886 0.234306
v -0.174212 0.064396 0.126
v -0.174212 0.12947 0.126
v -0.132899 0.064396 0.126
v -0.132899 0.12947 0.126
v -0.174212 0.064396 -0.120312
v -0.174212 0.12947 -0.120312
v -0.132899 0.064396 -0.120312
v -0.132899 0.12947 -0.120312
v 0.142416 0.064396 0.126
v 0.142416 0.12947 0.126
v 0.183729 0.064396 0.126
v 0.183729 0.12947 0.126
v 0.142416 0.064396 -0.120312
v 0.142416 0.12947 -0.120312
v 0.183729 0.064396 -0.120312
v 0.183729 0.12947 -0.120312
v 0.127916 0.064396 0.181812
v 0.127916 0.12947 0.181812
v 0.127916 0.064396 0.140503
v 0.127916 0.12947 0.140503
v -0.118395 0.064396 0.181812
v -0.118395 0.12947 0.181812
v -0.118395 0.064396 0.140503
v -0.118395 0.12947 0.140503
v 0.127916 0.064396 -0.134815
v 0.127916 0.12947 -0.134815
v 0.127916 0.064396 -0.176126
v 0.127916 0.12947 -0.176126
v -0.118395 0.064396 -0.134815
v -0.118395 0.12947 -0.134815
v -0.118395 0.064396 -0.176126
v -0.118395 0.12947 -0.176126
v 0.229967 0.443071 0.109848
v 0.229967 0.44375 0.043202
v 0.229967 0.408956 0.11026
v 0.229967 0.409634 0.043614
v -0.213389 0.409634 0.043614
v -0.213389 0.408955 0.11026
v -0.213389 0.443071 0.109848
v -0.213389 0.44375 0.043202
v 0.229967 0.443982 -0.042715
v 0.229967 0.445209 -0.109356
v 0.229967 0.409864 -0.042583
v 0.229967 0.411091 -0.109224
v -0.213389 0.411091 -0.109224
v -0.213389 0.409864 -0.042583
v -0.213389 0.443982 -0.042715
v -0.213389 0.445209 -0.109356
vn -0.9986925 0.05112097 0
vn -0.00152 -0.013426 0.9999087
vn -0.0003069999 -0.002976999 -0.9999955
vn -0.9990345 -0.04393502 0
vn 0.002707 0.024057 0.999707
vn 0.999491 0.031903 0
vn 0.9997063 -0.02423501 0
vn 0.001395 0.013403 -0.9999092
vn 0 0.023105 0.999733
vn 0.999034 -0.043935 0
vn 0.998693 0.051121 -0
vn -0 0.013914 -0.999903
vn -0.999706 -0.024235 -0
vn -0 -0.012804 0.999918
vn 0 -0.003119 -0.999995
vn -0.99949 0.031919 0
vn -0.0007910002 0.011357 0.9999352
vn 0.9998108 0.019455 0
vn -0.0007260001 0.002313 -0.9999971
vn -0.9999847 -0.005518999 0
vn -0 0.023105 -0.999733
vn -0.999034 -0.043935 0
vn -0.998693 0.051121 0
vn 0 0.013914 0.999903
vn 0.999706 -0.024235 -0
vn 0 -0.012804 -0.999918
vn -0 -0.003119 0.999995
vn 0.999491 0.031903 0
vn 0.0007910002 0.011357 -0.9999352
vn -0.9998108 0.019455 0
vn 0.0007260001 0.002313 0.9999971
vn 0.9999847 -0.005523999 0
vn 0.9986925 0.05112097 0
vn 0.00152 -0.013426 -0.9999087
vn 0.0003069999 -0.002976999 0.9999955
vn 0.9990345 -0.04393502 0
vn -0.002707 0.024057 -0.999707
vn -0.9994905 0.03191901 0
vn -0.9997063 -0.02423501 0
vn -0.001395 0.013404 0.9999092
vn -1 0 -0
vn 0 -0.092329 -0.995728
vn 1 0 0
vn 0 -0.09232906 -0.9957286
vn -1 0 0
vn -1 0 0
vn 0 0.102265 0.9947572
vn 0 0.9187512 0.3948371
vn -1 0 0
vn 0 0.9013401 -0.433112
vn 0 -0.9999735 -0.007295003
vn 0 0.483008 -0.875616
vn -1 0 0
vn -1 0 -0
vn 0 -0.5172827 0.8558145
vn 1 0 0
vn 1 0 0
vn 1 0 0
vn 0 0.7358034 0.6771953
vn -1 -1e-06 -1.8e-05
vn 0 0.999935 -0.011386
vn 0 -0.903491 -0.428607
vn 0 0.9999352 -0.011386
vn 0 -0.4897398 -0.8718687
vn 0 -0.99951 -0.031313
vn 0 0.031743 -0.9994961
vn 0 -0.9995096 -0.03131299
vn -0 0.031743 -0.999496
vn -1 0 0
vn -1 0 -0
vn 0 -0.5325891 0.846374
vn 1 0 0
vn 0 -1 0
vn -1 0 0
vn 1 0 0
vn 0 1 0
vn -1 0 0
vn 0 1 0
vn 0 -1 0
vn 1 0 0
vn 0 -1 0
vn -1 0 0
vn 1 0 0
vn 0 1 0
vn -1 0 0
vn 0 1 0
vn 0 -1 0
vn 1 0 0
vn 0 -1 0
vn 0 0 1
vn 0 0 -1
vn 0 1 0
vn 0 0 1
vn 0 1 0
vn 0 -1 0
vn 0 0 -1
vn 0 -1 0
vn 0 0 1
vn 0 0 -1
vn 0 1 0
vn 0 0 1
vn 0 1 0
vn 0 -1 0
vn 0 0 -1
vn 0 0.453966 0.891019
vn 0 0.9999481 0.010188
vn 1 0 0
vn 0 -0.4539692 -0.8910174
vn 1e-06 -0.8918771 -0.452278
vn 2e-06 -0.999948 -0.010188
vn 0 0.891874 0.452284
vn -1 0 0
vn 0 0.4466279 0.8947198
vn 0 0.9998305 0.01840899
vn 1 0 0
vn 0 -0.4466279 -0.8947198
vn 0 -0.8881256 -0.4596008
vn -0 -0.999831 -0.018409
vn 0 0.8881256 0.4596008
vn -1 0 0
vn -0 0.023105 0.999733
vn -0.999034 -0.043935 0
vn -0.998693 0.051121 -0
vn -0 0.013914 -0.999903
vn 0.999706 -0.024235 0
vn -0 -0.012804 0.999918
vn -0 -0.003119 -0.999995
vn 0.999491 0.031903 0
vn 0.9986925 0.05112097 0
vn 0.00152 -0.013426 0.9999087
vn 0.0003069999 -0.002976999 -0.9999955
vn 0.9990345 -0.04393502 0
vn -0.002707 0.024057 0.999707
vn -0.9994905 0.03191901 0
vn -0.9997063 -0.02423501 0
vn -0.001395 0.013404 -0.9999092
vn 0.9999248 -0.012262 0
vn -0.0007259998 0.007990998 -0.9999678
vn -0.9999127 0.013206 0
vn -0.0007909996 -0.0006139997 0.9999995
vn -0.9986925 0.05112097 0
vn -0.00152 -0.013426 -0.9999087
vn -0.0003069999 -0.002976999 0.9999955
vn -0.9990345 -0.04393502 0
vn 0.002707 0.024057 -0.999707
vn 0.999491 0.031903 0
vn 0.9997063 -0.02423501 0
vn 0.001395 0.013403 0.9999092
vn -0.9999248 -0.012262 0
vn 0.0007259998 0.007990998 0.9999678
vn 0.9999129 0.013195 0
vn 0.0007909996 -0.0006139997 -0.9999995
vn 0 0.023105 -0.999733
vn 0.999034 -0.043935 0
vn 0.998693 0.051121 0
vn 0 0.013914 0.999903
vn -0.999706 -0.024235 0
vn 0 -0.012804 -0.999918
vn 0 -0.003119 0.999995
vn -0.99949 0.031919 0
vn 0 -0.506476 -0.8622541
vn -1 0 0
vn 0 0.9997244 0.02347501
vn 0 -0.894501 -0.447066
vn 0 0.999724 0.023475
vn 1 0 0
vn 0 -0.9989269 0.046317
vn -0 0.102265 0.994757
vn 0 0.5264828 0.8501858
vn 0 -0.998927 0.046317
vn 1 0 0
vn 1 0 0
vn 0 0.04900802 -0.9987985
vn -0 -0.999973 -0.007295
vn -1 0 0
vn -0 0.049008 -0.998798
vn 1 0 0
vn 1 0 -0
vn 0 -0.8990909 0.437762
vn 0 -0.105752 0.9943926
vn -0 0.999921 -0.012549
vn 1 0 -0
vn 0 -0.105752 0.994393
vn 0 0.9999213 -0.012549
vn 0 0.7358034 0.6771953
vn -0 0.097018 0.995283
vn 0 -0.999923 -0.012447
vn -1 -2e-06 -1.8e-05
vn 0 0.09701797 0.9952826
vn 0 -0.9999225 -0.01244699
vn 1 0 -0
vn 0 -0.05768399 -0.9983349
vn 1 0 0
vn -0 -0.057684 -0.998335
vn -1 0 0
vn -1 0 -0
vn -1 0 0
vn 0 0.031743 -0.999496
vn -1 0 0
vn 0 0.9995021 0.031553
vn 0 0.031743 -0.9994961
vn 1 0 0
vn -0 0.999502 0.031553
vn 1 0 -0
vn 0 -0.9018601 0.432028
vn 0 -0.1284691 0.9917136
vn 0 0.999928 -0.01197
vn 1 0 -0
vn -0 -0.128469 0.991714
vn 0 0.9999284 -0.01197
vn -1 0 -0
vn 0 1 0
vn -0 -1 0
vn 1 0 0
vn -0 -1 0
vn -1 0 0
vn 1 0 -0
vn 0 1 0
vn -1 0 -0
vn 0 1 0
vn -0 -1 0
vn 1 0 0
vn -0 -1 0
vn -1 0 0
vn 1 0 -0
vn 0 1 0
vn 0 -0 1
vn 0 1 0
vn 0 -1 0
vn 0 -0 -1
vn -0 -1 0
vn 0 -0 1
vn 0 -0 -1
vn -0 1 0
vn 0 0 1
vn 0 1 0
vn -0 -1 0
vn 0 -0 -1
vn 0 -1 0
vn 0 0 1
vn 0 -0 -1
vn -0 1 0
vn 1 0 0
vn 1 0 0
vn -0 -0.012075 -0.999927
vn -0 0.012076 0.999927
vn 1e-06 -0.9999483 -0.01018
vn 1 0 0
vn -1 0 0
vn 0 0.012075 0.9999271
vn -1 0 0
vn -1 0 0
vn 0 -0.012075 -0.9999271
vn 0 0.999948 0.010188
vn 1 0 -0
vn 1 0 0
vn 0 -0.003857 -0.999993
vn 0 0.003857 0.999993
vn 0 -0.9998305 -0.01840899
vn 1 0 0
vn -1 0 0
vn 0 0.003856998 0.9999925
vn -1 0 0
vn -1 0 0
vn 0 -0.003856998 -0.9999925
vn 0 0.999831 0.018409
vt 0.2843 0.0337
vt 0.2807 0.0281
vt 0.2769 0.0282
vt 0.2854 0.0281
vt 0.2796 0.0337
vt 0.2833 0.0279
vt 0.2844 0.0223
vt 0.2758 0.0338
vt 0.283 0.0242
vt 0.2904 0.024
vt 0.2916 0.0184
vt 0.2805 0.0243
vt 0.2881 0.0298
vt 0.282 0.0298
vt 0.2793 0.0298
vt 0.2891 0.0242
vt 0.2829 0.0271
vt 0.2916 0.0213
vt 0.2793 0.0272
vt 0.2881 0.0271
vt 0.2844 0.0243
vt 0.2903 0.0298
vt 0.2915 0.0242
vt 0.2869 0.0242
vt 0.287 0.024
vt 0.2833 0.0299
vt 0.2858 0.0298
vt 0.2881 0.0184
vt 0.2842 0.0272
vt 0.2915 0.0271
vt 0.2857 0.0271
vt 0.2871 0.0213
vt 0.2824 0.0269
vt 0.2705 0.0272
vt 0.2721 0.0271
vt 0.2835 0.0213
vt 0.2694 0.0328
vt 0.2801 0.0327
vt 0.2812 0.0271
vt 0.271 0.0327
vt 0.2725 0.0414
vt 0.2733 0.0415
vt 0.2818 0.0301
vt 0.276 0.0243
vt 0.2725 0.0356
vt 0.2733 0.0357
vt 0.276 0.0301
vt 0.2826 0.0359
vt 0.2875 0.0311
vt 0.2883 0.0311
vt 0.2783 0.0253
vt 0.2757 0.0194
vt 0.2875 0.0253
vt 0.2883 0.0252
vt 0.2783 0.0194
vt 0.2828 0.0367
vt 0.2858 0.0299
vt 0.2865 0.0298
vt 0.2793 0.0242
vt 0.2885 0.0357
vt 0.2777 0.0184
vt 0.2865 0.0356
vt 0.2793 0.0184
vt 0.2777 0.0243
vt 0.2721 0.0243
vt 0.2814 0.0415
vt 0.2734 0.0243
vt 0.2695 0.0243
vt 0.2806 0.0358
vt 0.2814 0.0357
vt 0.2734 0.0301
vt 0.2803 0.0415
vt 0.2883 0.0332
vt 0.2757 0.03296667
vt 0.2883 0.0302
vt 0.2752 0.0329
vt 0.2765 0.0299
vt 0.2757 0.0299
vt 0.2888 0.0302
vt 0.2875 0.0332
vt 0.2837 0.0329
vt 0.2793 0.0329
vt 0.2822 0.0299
vt 0.2801 0.0359
vt 0.2801 0.0299
vt 0.2806 0.0329
vt 0.2832 0.0359
vt 0.2814 0.033
vt 0.2741 0.03
vt 0.2845 0.0272
vt 0.2715 0.033
vt 0.2731 0.0331
vt 0.2837 0.0302
vt 0.2736 0.03
vt 0.2736 0.0331
vt 0.2722 0.03
vt 0.2763 0.03
vt 0.2761 0.0269
vt 0.2853 0.0155
vt 0.2837 0.0332
vt 0.2753 0.03
vt 0.2842 0.0302
vt 0.2758 0.033
vt 0.2846 0.0185
vt 0.2916 0.0184
vt 0.2924 0.0184
vt 0.2774 0.0353
vt 0.2785 0.0353
vt 0.2857 0.0353
vt 0.2777 0.0298
vt 0.277 0.0298
vt 0.2924 0.0239
vt 0.2844 0.0298
vt 0.2852 0.0298
vt 0.279 0.0353
vt 0.2762 0.0298
vt 0.2885 0.0298
vt 0.277 0.0353
vt 0.2785 0.0298
vt 0.2852 0.0353
vt 0.2807 0.0337
vt 0.2843 0.0281
vt 0.2855 0.0337
vt 0.2769 0.0338
vt 0.2833 0.0223
vt 0.2797 0.0281
vt 0.2757 0.0282
vt 0.2844 0.0279
vt 0.2904 0.0184
vt 0.283 0.0298
vt 0.2805 0.0299
vt 0.2915 0.024
vt 0.2819 0.0242
vt 0.2881 0.0242
vt 0.2892 0.0298
vt 0.2794 0.0243
vt 0.2905 0.0213
vt 0.2803 0.027
vt 0.2892 0.0271
vt 0.2819 0.0269
vt 0.2903 0.0242
vt 0.2844 0.0299
vt 0.2869 0.0298
vt 0.2914 0.0298
vt 0.2832 0.0243
vt 0.287 0.0184
vt 0.2881 0.024
vt 0.2858 0.0242
vt 0.2904 0.0271
vt 0.2868 0.0269
vt 0.2881 0.0213
vt 0.2832 0.0269
vt 0.2705 0.0328
vt 0.2825 0.0214
vt 0.2836 0.0269
vt 0.2721 0.0327
vt 0.2801 0.0271
vt 0.2695 0.0272
vt 0.2709 0.0272
vt 0.2812 0.0327
vt 0.2747 0.0243
vt 0.2772 0.0243
vt 0.276 0.0243
vt 0.2826 0.0301
vt 0.2747 0.0301
vt 0.2772 0.0301
vt 0.2818 0.0359
vt 0.276 0.0301
vt 0.2796 0.0253
vt 0.277 0.0194
vt 0.2821 0.0308
vt 0.2828 0.0308
vt 0.2796 0.0194
vt 0.277 0.0253
vt 0.2821 0.0366
vt 0.2757 0.0253
vt 0.2777 0.0242
vt 0.2762 0.0184
vt 0.2878 0.0356
vt 0.2777 0.0184
vt 0.2858 0.0357
vt 0.2762 0.0243
vt 0.2878 0.0298
vt 0.2885 0.0298
vt 0.2806 0.0415
vt 0.2708 0.0243
vt 0.2795 0.0357
vt 0.2803 0.0357
vt 0.2721 0.0301
vt 0.2708 0.0301
vt 0.2795 0.0414
vt 0.2695 0.0301
vt 0.2765 0.033
vt 0.2888 0.0332
vt 0.2875 0.0302
vt 0.2883 0.0302
vt 0.2883 0.0332
vt 0.2752 0.0299
vt 0.2801 0.0329
vt 0.2806 0.0359
vt 0.2832 0.0329
vt 0.2814 0.0299
vt 0.2837 0.0359
vt 0.2793 0.0299
vt 0.2822 0.033
vt 0.2801 0.0329
vt 0.2837 0.0272
vt 0.2736 0.0331
vt 0.2736 0.03
vt 0.2722 0.033
vt 0.2741 0.0331
vt 0.2845 0.0302
vt 0.2715 0.03
vt 0.2731 0.03
vt 0.2753 0.0269
vt 0.2842 0.0332
vt 0.2758 0.03
vt 0.2846 0.0155
vt 0.2763 0.033
vt 0.2761 0.03
vt 0.2853 0.0185
vt 0.2837 0.0302
vt 0.277 0.0353
vt 0.2852 0.0298
vt 0.2777 0.0353
vt 0.2857 0.0298
vt 0.2785 0.0298
vt 0.2774 0.0298
vt 0.2916 0.0239
vt 0.2852 0.0353
vt 0.2785 0.0353
vt 0.289 0.0353
vt 0.277 0.0298
vt 0.2885 0.0353
vt 0.2762 0.0353
vt 0.279 0.0298
vt 0.2844 0.0353
vt 0.289 0.0298
f 118/118/263 119/119/264 120/120/120
f 2/122/122 4/4/4 3/123/123
f 3/3/3 4/124/124 8/8/8
f 116/234/116 120/238/265 114/232/257
f 116/234/116 117/117/117 120/238/265
f 8/128/128 6/6/6 5/125/125
f 5/5/5 6/126/126 2/2/2
f 118/118/263 120/120/120 117/117/261
f 107/107/107 108/108/248 106/224/244
f 5/5/5 2/2/2 1/121/121
f 7/7/7 8/128/128 5/125/125
f 107/107/107 106/224/244 105/105/243
f 113/231/113 119/119/119 118/236/262
f 3/3/3 8/8/8 7/127/127
f 1/1/1 2/122/122 3/123/123
f 113/231/113 118/236/262 115/115/258
f 17/137/137 18/18/18 12/132/132
f 17/137/137 12/132/132 10/10/10
f 18/138/138 19/19/19 16/136/136
f 18/138/138 16/136/136 12/12/12
f 19/139/139 20/20/20 14/134/134
f 19/139/139 14/134/134 16/16/16
f 20/140/140 17/17/17 10/130/130
f 20/140/140 10/130/130 14/14/14
f 13/133/133 9/9/9 17/17/17
f 13/133/133 17/17/17 20/140/140
f 15/135/135 13/13/13 20/20/20
f 15/135/135 20/20/20 19/139/139
f 11/131/131 15/15/15 19/19/19
f 11/131/131 19/19/19 18/138/138
f 9/129/129 11/11/11 18/18/18
f 9/129/129 18/18/18 17/137/137
f 29/149/149 30/30/30 24/144/144
f 29/149/149 24/144/144 22/22/22
f 30/150/150 31/31/31 28/148/148
f 30/150/150 28/148/148 24/24/24
f 31/151/151 32/32/32 26/146/146
f 31/151/151 26/146/146 28/28/28
f 32/152/152 29/29/29 22/142/142
f 32/152/152 22/142/142 26/26/26
f 25/145/145 21/21/21 29/29/29
f 25/145/145 29/29/29 32/152/152
f 27/147/147 25/25/25 32/32/32
f 27/147/147 32/32/32 31/151/151
f 23/143/143 27/27/27 31/31/31
f 23/143/143 31/31/31 30/150/150
f 21/141/141 23/23/23 30/30/30
f 21/141/141 30/30/30 29/149/149
f 60/60/189 58/178/186 57/57/185
f 34/154/154 36/36/36 35/155/155
f 35/35/35 36/156/156 40/40/40
f 64/64/64 61/61/192 62/62/62
f 64/64/64 63/183/194 61/61/192
f 40/160/160 38/38/38 37/157/157
f 37/37/37 38/158/158 34/34/34
f 60/60/189 57/57/185 59/59/59
f 47/47/47 48/48/48 46/166/169
f 37/37/37 34/34/34 33/153/153
f 39/39/39 40/160/160 37/157/157
f 47/47/47 46/166/169 45/45/168
f 115/233/259 118/118/118 117/235/117
f 35/35/35 40/40/40 39/159/159
f 33/33/33 34/154/154 35/155/155
f 115/233/259 117/235/117 116/116/116
f 55/55/55 56/56/183 54/174/180
f 43/43/43 48/48/172 47/167/171
f 66/66/66 67/187/201 65/65/198
f 45/45/45 42/42/162 41/41/41
f 43/163/164 47/47/170 45/165/167
f 49/169/173 52/52/52 51/171/176
f 48/168/48 44/44/165 42/162/163
f 66/66/66 68/68/68 67/187/201
f 98/98/98 102/220/240 101/101/101
f 51/171/177 56/56/56 55/175/182
f 100/100/100 102/102/102 98/216/236
f 53/53/53 50/50/175 49/49/49
f 51/51/51 55/55/55 53/173/179
f 97/97/97 103/103/103 99/217/237
f 56/176/184 52/52/52 50/170/50
f 100/100/100 104/222/242 102/102/102
f 62/182/62 58/178/187 60/180/190
f 115/115/115 116/116/260 114/232/256
f 106/106/106 111/229/111 105/105/105
f 62/62/193 57/57/57 58/58/58
f 105/223/105 111/111/111 110/228/250
f 60/60/60 63/183/195 64/184/196
f 57/177/185 61/61/61 63/63/63
f 105/223/105 110/228/250 107/107/246
f 72/192/210 68/68/203 66/186/200
f 108/226/108 109/109/109 112/230/253
f 41/161/161 42/42/42 44/44/44
f 67/187/202 72/72/72 71/191/208
f 67/67/67 71/71/71 69/189/205
f 114/114/114 119/237/119 113/113/113
f 108/226/108 112/230/253 106/224/245
f 69/69/69 66/66/199 65/185/197
f 55/55/55 54/174/180 53/53/179
f 48/168/48 42/162/163 46/166/169
f 71/71/71 72/72/209 70/190/206
f 43/163/164 45/165/167 41/161/161
f 45/45/45 46/46/46 42/42/162
f 49/169/173 50/50/50 52/52/52
f 43/43/43 44/164/166 48/48/172
f 71/71/71 70/190/206 69/69/205
f 69/69/69 70/70/70 66/66/199
f 114/114/114 120/120/266 119/237/119
f 107/225/247 110/110/110 109/227/109
f 67/67/67 69/189/205 65/65/65
f 67/187/202 68/188/204 72/72/72
f 107/225/247 109/227/109 108/108/108
f 41/161/161 44/44/44 43/43/164
f 72/192/210 66/186/200 70/190/207
f 106/106/106 112/112/254 111/229/111
f 57/177/185 63/63/63 59/59/59
f 60/60/60 59/179/188 63/183/195
f 115/115/115 114/232/256 113/113/255
f 62/62/193 61/181/191 57/57/57
f 110/110/251 111/111/252 112/112/112
f 110/110/251 112/112/112 109/109/249
f 62/182/62 60/180/190 64/64/64
f 98/98/98 101/101/101 97/215/235
f 56/176/184 50/170/50 54/174/181
f 99/99/99 103/221/241 104/104/104
f 51/51/51 53/173/179 49/169/174
f 53/53/53 54/54/54 50/50/175
f 97/97/97 101/219/239 103/103/103
f 51/171/177 52/172/178 56/56/56
f 99/99/99 104/104/104 100/218/238
f 74/74/74 78/78/216 77/77/77
f 74/74/74 77/77/77 73/193/211
f 73/73/73 77/196/215 79/79/79
f 73/73/73 79/79/79 75/194/213
f 76/76/76 80/198/218 78/78/78
f 76/76/76 78/78/78 74/74/212
f 75/75/75 79/197/217 80/80/80
f 75/75/75 80/80/80 76/195/214
f 82/82/82 86/204/224 85/85/85
f 82/82/82 85/85/85 81/199/219
f 81/81/81 85/203/223 87/87/87
f 81/81/81 87/87/87 83/201/221
f 84/84/84 88/206/226 86/86/86
f 84/84/84 86/86/86 82/200/220
f 83/83/83 87/205/225 88/88/88
f 83/83/83 88/88/88 84/202/222
f 90/90/90 94/212/232 93/93/93
f 90/90/90 93/93/93 89/207/227
f 89/89/89 93/211/231 95/95/95
f 89/89/89 95/95/95 91/209/229
f 92/92/92 96/214/234 94/94/94
f 92/92/92 94/94/94 90/208/228
f 91/91/91 95/213/233 96/96/96
f 91/91/91 96/96/96 92/210/230
