# Blender v3.4.1 OBJ File: ''
# www.blender.org
mtllib anchor.mtl
o Circle
v 0.052937 0.435878 -0.024127
v 0.038299 0.450632 -0.009027
v 0.043890 0.444997 0.015406
v 0.061984 0.426760 0.015406
v 0.067576 0.421124 -0.009027
v 0.078007 0.485945 -0.024127
v 0.057239 0.485139 -0.009027
v 0.065172 0.485447 0.015406
v 0.090843 0.486443 0.015406
v 0.098775 0.486751 -0.009027
v 0.045164 0.531561 0.016919
v 0.060704 0.549715 0.016919
v 0.052934 0.540638 -0.025640
v 0.040362 0.525951 -0.009384
v 0.065506 0.555325 -0.009384
v 0.054423 -0.204350 0.009380
v 0.054423 -0.204350 -0.018102
v 0.036718 0.425745 0.004599
v 0.036718 0.425745 -0.013321
v 0.151368 0.294604 -0.019945
v 0.151368 0.323459 -0.012153
v 0.151368 0.323459 0.003431
v 0.151368 0.294604 0.011223
v 0.151368 0.265748 0.003431
v 0.151368 0.265748 -0.012153
v 0.066210 -0.258529 0.012563
v 0.066210 -0.258529 -0.021285
v 0.337711 -0.138252 -0.019042
v 0.310867 -0.133963 -0.011701
v 0.310867 -0.133963 0.002980
v 0.337711 -0.138252 0.010321
v 0.364555 -0.142541 0.002980
v 0.364555 -0.142541 -0.011701
v 0.239929 -0.296107 -0.027921
v 0.216188 -0.259509 -0.016141
v 0.216189 -0.259509 0.007419
v 0.239929 -0.296107 0.019199
v 0.263669 -0.332706 0.007419
v 0.263669 -0.332706 -0.016141
v 0.325815 -0.244732 0.005200
v 0.325815 -0.244732 -0.013921
v 0.275230 -0.203844 0.005200
v 0.300522 -0.224288 0.014760
v 0.300522 -0.224288 -0.023482
v 0.275230 -0.203844 -0.013921
v 0.152376 -0.337717 -0.033042
v 0.150211 -0.284654 -0.018701
v 0.150211 -0.284654 0.009980
v 0.152376 -0.337717 0.024321
v 0.154541 -0.390779 0.009980
v 0.154541 -0.390779 -0.018701
v 0.071845 -0.342051 -0.040756
v 0.071845 -0.342051 0.032034
v 0.070143 -0.413462 0.014928
v 0.070143 -0.413462 -0.023650
v 0.337783 -0.145043 -0.044639
v 0.264138 -0.133276 -0.024500
v 0.264138 -0.133276 0.015778
v 0.337783 -0.145043 0.035917
v 0.411428 -0.156809 0.015778
v 0.411428 -0.156809 -0.024500
v 0.365956 0.007380 -0.004361
v 0.036913 -0.423388 -0.023650
v 0.036913 -0.423388 0.014928
v 0.142263 0.265353 -0.004361
v 0.184216 0.247714 0.025369
v 0.156734 0.295298 0.043742
v 0.139749 0.324707 -0.004361
v 0.156734 0.295298 -0.052464
v 0.184216 0.247714 -0.034090
v 0.207631 0.296166 0.043742
v 0.180150 0.343750 0.025369
v 0.180150 0.343750 -0.034090
v 0.207631 0.296166 -0.052464
v 0.224616 0.266757 -0.004361
v 0.222103 0.326111 -0.004361
v 0.003536 0.417217 -0.024127
v 0.003536 0.437999 -0.009027
v 0.003536 0.430061 0.015406
v 0.003536 0.404372 0.015406
v 0.003536 0.396434 -0.009027
v -0.045864 0.435878 -0.024127
v -0.031226 0.450632 -0.009027
v -0.036817 0.444997 0.015406
v -0.054911 0.426760 0.015406
v -0.060503 0.421124 -0.009027
v -0.070935 0.485945 -0.024127
v -0.050167 0.485139 -0.009027
v -0.058099 0.485447 0.015406
v -0.083770 0.486443 0.015406
v -0.091703 0.486751 -0.009027
v 0.003536 0.558817 -0.024127
v 0.003536 0.538036 -0.009027
v 0.003536 0.545973 0.015406
v 0.003536 0.571660 0.015406
v 0.003536 0.579598 -0.009027
v -0.038091 0.531561 0.016919
v -0.053631 0.549715 0.016919
v -0.045861 0.540638 -0.025640
v -0.033290 0.525951 -0.009384
v -0.058433 0.555325 -0.009384
v 0.003536 -0.204350 -0.031843
v 0.003536 -0.204350 0.023122
v -0.047350 -0.204350 0.009380
v -0.047350 -0.204350 -0.018102
v 0.003536 0.425745 -0.022281
v 0.003536 0.425745 0.013559
v -0.029645 0.425745 0.004599
v -0.029645 0.425745 -0.013321
v -0.144295 0.294604 -0.019945
v -0.144295 0.323459 -0.012153
v -0.144295 0.323459 0.003431
v -0.144295 0.294604 0.011223
v -0.144295 0.265748 0.003431
v -0.144295 0.265748 -0.012153
v 0.003536 -0.258529 -0.038209
v 0.003536 -0.258529 0.029487
v -0.059137 -0.258529 0.012563
v -0.059137 -0.258529 -0.021285
v -0.330638 -0.138252 -0.019042
v -0.303794 -0.133963 -0.011701
v -0.303794 -0.133963 0.002980
v -0.330638 -0.138252 0.010321
v -0.357482 -0.142541 0.002980
v -0.357482 -0.142541 -0.011701
v -0.232856 -0.296107 -0.027921
v -0.209116 -0.259509 -0.016141
v -0.209116 -0.259509 0.007419
v -0.232856 -0.296107 0.019199
v -0.256596 -0.332706 0.007419
v -0.256596 -0.332706 -0.016141
v -0.318742 -0.244732 0.005200
v -0.318742 -0.244732 -0.013921
v -0.268157 -0.203844 0.005200
v -0.293449 -0.224288 0.014760
v -0.293449 -0.224288 -0.023482
v -0.268157 -0.203844 -0.013921
v -0.145303 -0.337717 -0.033042
v -0.143138 -0.284654 -0.018701
v -0.143138 -0.284654 0.009980
v -0.145303 -0.337717 0.024321
v -0.147469 -0.390779 0.009980
v -0.147468 -0.390779 -0.018701
v -0.064772 -0.342051 -0.040756
v -0.064772 -0.342051 0.032034
v -0.063070 -0.413462 0.014928
v -0.063070 -0.413462 -0.023650
v -0.330710 -0.145043 -0.044639
v -0.257065 -0.133276 -0.024500
v -0.257065 -0.133276 0.015778
v -0.330710 -0.145043 0.035917
v -0.404355 -0.156809 0.015778
v -0.404355 -0.156809 -0.024500
v -0.358883 0.007380 -0.004361
v 0.003536 0.323459 -0.012153
v 0.003536 0.265748 0.003431
v 0.003536 0.294604 0.011223
v 0.003536 0.294604 -0.019945
v 0.003536 0.265748 -0.012153
v 0.003536 0.323459 0.003431
v 0.003536 -0.345241 -0.042939
v 0.003536 -0.345241 0.034217
v -0.029840 -0.423388 -0.023650
v -0.029840 -0.423388 0.014928
v -0.135190 0.265353 -0.004361
v -0.177143 0.247714 0.025369
v -0.149661 0.295298 0.043742
v -0.132677 0.324707 -0.004361
v -0.149661 0.295298 -0.052464
v -0.177143 0.247714 -0.034090
v -0.200558 0.296166 0.043742
v -0.173077 0.343750 0.025369
v -0.173077 0.343750 -0.034090
v -0.200558 0.296166 -0.052464
v -0.217543 0.266757 -0.004361
v -0.215030 0.326111 -0.004361
v 0.003536 -0.446477 -0.002758
vt 0.544586 0.765105
vt 0.545229 0.765386
vt 0.545249 0.765482
vt 0.544634 0.765216
vt 0.544632 0.765538
vt 0.545068 0.765719
vt 0.544945 0.765753
vt 0.544581 0.765606
vt 0.544554 0.765337
vt 0.545048 0.765548
vt 0.545321 0.766156
vt 0.545583 0.766191
vt 0.545591 0.766250
vt 0.545315 0.766249
vt 0.545153 0.766189
vt 0.545122 0.766927
vt 0.544988 0.766753
vt 0.545082 0.766894
vt 0.545276 0.767158
vt 0.545310 0.767190
vt 0.544632 0.767584
vt 0.544636 0.767174
vt 0.544574 0.767584
vt 0.544582 0.766954
vt 0.544545 0.767198
vt 0.544556 0.760391
vt 0.544557 0.765440
vt 0.544911 0.765443
vt 0.544920 0.760374
vt 0.544967 0.760245
vt 0.544957 0.765463
vt 0.544630 0.765481
vt 0.544631 0.760128
vt 0.544565 0.764014
vt 0.545875 0.764043
vt 0.545878 0.763762
vt 0.544579 0.763723
vt 0.544607 0.763700
vt 0.545933 0.763741
vt 0.545988 0.764012
vt 0.544622 0.763980
vt 0.544607 0.764291
vt 0.545987 0.764309
vt 0.545929 0.764319
vt 0.544578 0.764301
vt 0.544639 0.759797
vt 0.545042 0.759948
vt 0.544983 0.760112
vt 0.544549 0.760134
vt 0.546627 0.760374
vt 0.546689 0.760291
vt 0.546243 0.759789
vt 0.546178 0.759900
vt 0.546586 0.760334
vt 0.546416 0.760464
vt 0.546006 0.760108
vt 0.546160 0.759889
vt 0.546357 0.760546
vt 0.546464 0.760499
vt 0.546033 0.760107
vt 0.545944 0.760216
vt 0.546705 0.760891
vt 0.546653 0.760950
vt 0.547035 0.760884
vt 0.546898 0.760858
vt 0.546791 0.760974
vt 0.546979 0.760942
vt 0.545556 0.759401
vt 0.545496 0.759544
vt 0.545578 0.759907
vt 0.545599 0.759574
vt 0.545476 0.759854
vt 0.545515 0.760043
vt 0.545496 0.759544
vt 0.544976 0.759386
vt 0.545037 0.759185
vt 0.545556 0.759401
vt 0.545098 0.759417
vt 0.544969 0.759808
vt 0.544976 0.759386
vt 0.545037 0.759185
vt 0.547197 0.760947
vt 0.547358 0.760789
vt 0.546989 0.760711
vt 0.546445 0.760805
vt 0.546316 0.760968
vt 0.546697 0.761033
vt 0.547212 0.761827
vt 0.544773 0.759310
vt 0.544546 0.759730
vt 0.544828 0.759106
vt 0.544643 0.759329
vt 0.545827 0.763746
vt 0.546281 0.763547
vt 0.546167 0.763984
vt 0.546056 0.763639
vt 0.545855 0.764325
vt 0.545812 0.764080
vt 0.546519 0.763780
vt 0.546632 0.764004
vt 0.546361 0.764514
vt 0.546115 0.764533
vt 0.546223 0.764096
vt 0.546575 0.764349
vt 0.544595 0.758972
vt 0.545249 0.765482
vt 0.545229 0.765386
vt 0.544945 0.765753
vt 0.545068 0.765719
vt 0.545048 0.765548
vt 0.545583 0.766191
vt 0.545321 0.766156
vt 0.545315 0.766249
vt 0.545591 0.766250
vt 0.545153 0.766189
vt 0.544988 0.766753
vt 0.545122 0.766927
vt 0.545276 0.767158
vt 0.545082 0.766894
vt 0.545310 0.767190
vt 0.544920 0.760374
vt 0.544911 0.765443
vt 0.544967 0.760245
vt 0.544957 0.765463
vt 0.545878 0.763762
vt 0.545875 0.764043
vt 0.545988 0.764012
vt 0.545933 0.763741
vt 0.545929 0.764319
vt 0.545987 0.764309
vt 0.545042 0.759948
vt 0.544983 0.760112
vt 0.546627 0.760374
vt 0.546178 0.759900
vt 0.546243 0.759789
vt 0.546689 0.760291
vt 0.546586 0.760334
vt 0.546160 0.759889
vt 0.546006 0.760108
vt 0.546416 0.760464
vt 0.546357 0.760546
vt 0.545944 0.760216
vt 0.546033 0.760107
vt 0.546464 0.760499
vt 0.546705 0.760891
vt 0.546653 0.760950
vt 0.547035 0.760884
vt 0.546898 0.760858
vt 0.546791 0.760974
vt 0.546979 0.760942
vt 0.545599 0.759574
vt 0.545578 0.759907
vt 0.545515 0.760043
vt 0.545476 0.759854
vt 0.545098 0.759417
vt 0.544969 0.759808
vt 0.547358 0.760789
vt 0.547197 0.760947
vt 0.546445 0.760805
vt 0.546989 0.760711
vt 0.546697 0.761033
vt 0.546316 0.760968
vt 0.547212 0.761827
vt 0.544773 0.759310
vt 0.544571 0.759175
vt 0.544828 0.759106
vt 0.544617 0.758967
vt 0.545827 0.763746
vt 0.546167 0.763984
vt 0.546281 0.763547
vt 0.546056 0.763639
vt 0.545855 0.764325
vt 0.545812 0.764080
vt 0.546519 0.763780
vt 0.546632 0.764004
vt 0.546361 0.764514
vt 0.546115 0.764533
vt 0.546223 0.764096
vt 0.546575 0.764349
vn 0.3436 -0.8940 0.2876
vn -0.3300 0.8991 0.2875
vn 0.2206 -0.5773 -0.7862
vn -0.0000 -0.0000 1.0000
vn -0.2154 0.5793 -0.7861
vn 0.5600 -0.2724 -0.7824
vn -0.5533 0.2879 -0.7816
vn 0.8645 -0.4144 0.2844
vn -0.8450 0.4535 0.2833
vn -0.8859 -0.3795 0.2666
vn 0.5910 0.2682 -0.7608
vn 0.0106 -0.0228 0.9997
vn 0.8695 0.4158 0.2667
vn -0.0271 0.0096 0.9996
vn 0.3457 0.8979 0.2725
vn -0.3115 -0.9103 0.2726
vn 0.2167 0.6024 -0.7682
vn -0.2268 -0.5987 -0.7682
vn 0.2607 0.0146 -0.9653
vn 0.2607 0.0146 0.9653
vn 0.9996 0.0281 0.0000
vn 0.0000 -0.2607 -0.9654
vn 0.0000 -0.2607 0.9654
vn 0.0000 1.0000 0.0000
vn 0.0000 -1.0000 0.0000
vn 0.0000 0.2607 0.9654
vn 0.0000 0.2607 -0.9654
vn -0.5885 -0.2734 -0.7608
vn 0.2590 0.1127 0.9593
vn 0.9771 0.2126 0.0000
vn 0.2590 0.1127 -0.9593
vn 0.8168 -0.5770 -0.0000
vn -0.1722 0.2119 0.9620
vn -0.1722 0.2119 -0.9620
vn 0.2448 -0.1481 -0.9582
vn 0.2448 -0.1481 0.9582
vn -0.6860 0.7276 0.0000
vn -0.8909 0.4543 0.0000
vn 0.2743 -0.0768 0.9586
vn 0.2743 -0.0768 -0.9586
vn -0.2386 0.1524 -0.9591
vn -0.2386 0.1524 0.9591
vn 0.9351 -0.3545 -0.0000
vn 0.4698 -0.8828 -0.0000
vn -0.0656 0.2616 0.9629
vn -0.0656 0.2616 -0.9629
vn 0.1563 -0.2344 -0.9595
vn 0.1563 -0.2344 0.9595
vn -0.3561 0.9344 0.0000
vn -0.2595 -0.9657 0.0000
vn 0.0928 0.2442 0.9653
vn 0.0928 0.2442 -0.9653
vn 0.1138 -0.2430 -0.9633
vn 0.1138 -0.2430 0.9633
vn 0.2970 0.9549 0.0000
vn -0.2912 -0.9567 0.0000
vn -0.0841 -0.9632 -0.2553
vn -0.0841 -0.9632 0.2553
vn -0.2190 -0.9433 0.2496
vn -0.2190 -0.9433 -0.2496
vn -0.0147 -0.9999 0.0000
vn -0.2100 0.2859 -0.9350
vn 0.2875 0.1947 -0.9378
vn 0.2875 0.1947 0.9378
vn -0.8100 0.5864 0.0000
vn 0.9637 0.2669 0.0000
vn -0.2100 0.2859 0.9350
vn 0.0415 -0.2227 -0.9740
vn 0.0415 -0.2227 0.9740
vn 0.0699 -0.2340 0.9697
vn 0.2862 -0.9582 -0.0000
vn 0.0699 -0.2340 -0.9697
vn 0.1394 0.1439 0.9797
vn -0.6214 -0.5675 0.5402
vn -0.3876 -0.9218 0.0000
vn -0.9496 -0.0402 0.3107
vn -0.9496 -0.0402 -0.3107
vn -0.6214 -0.5675 -0.5402
vn 0.4264 -0.9045 0.0000
vn 0.0061 -0.3571 0.9340
vn -0.6512 0.5232 0.5498
vn -0.6512 0.5232 -0.5498
vn 0.0061 -0.3571 -0.9340
vn 0.6512 -0.5232 0.5498
vn -0.0061 0.3571 0.9340
vn -0.4264 0.9045 0.0000
vn -0.0061 0.3571 -0.9340
vn 0.6512 -0.5232 -0.5498
vn 0.9496 0.0402 0.3107
vn 0.6214 0.5675 0.5402
vn 0.3876 0.9218 0.0000
vn 0.6214 0.5675 -0.5402
vn 0.9496 0.0402 -0.3107
vn 0.1394 0.1439 -0.9797
vn 0.5689 -0.8224 -0.0000
vn -0.3436 -0.8940 0.2876
vn 0.3300 0.8991 0.2875
vn -0.2206 -0.5773 -0.7862
vn 0.2154 0.5793 -0.7861
vn -0.5600 -0.2724 -0.7824
vn 0.5533 0.2879 -0.7816
vn -0.8645 -0.4144 0.2844
vn 0.8450 0.4535 0.2833
vn 0.8859 -0.3795 0.2666
vn -0.5910 0.2682 -0.7608
vn -0.0106 -0.0228 0.9997
vn -0.8695 0.4158 0.2667
vn 0.0271 0.0096 0.9996
vn -0.3457 0.8979 0.2725
vn 0.3115 -0.9103 0.2726
vn -0.2167 0.6024 -0.7682
vn 0.2268 -0.5987 -0.7682
vn -0.2607 0.0146 -0.9653
vn -0.2607 0.0146 0.9653
vn -0.9996 0.0281 0.0000
vn 0.5885 -0.2734 -0.7608
vn -0.2590 0.1127 0.9593
vn -0.9771 0.2126 0.0000
vn -0.2590 0.1127 -0.9593
vn -0.8168 -0.5770 -0.0000
vn 0.1722 0.2119 0.9620
vn 0.1722 0.2119 -0.9620
vn -0.2448 -0.1481 -0.9582
vn -0.2448 -0.1481 0.9582
vn 0.6860 0.7276 0.0000
vn 0.8909 0.4543 0.0000
vn -0.2743 -0.0768 0.9586
vn -0.2743 -0.0768 -0.9586
vn 0.2386 0.1524 -0.9591
vn 0.2386 0.1524 0.9591
vn -0.9351 -0.3545 -0.0000
vn -0.4698 -0.8828 -0.0000
vn 0.0656 0.2616 0.9629
vn 0.0656 0.2616 -0.9629
vn -0.1563 -0.2344 -0.9595
vn -0.1563 -0.2344 0.9595
vn 0.3561 0.9344 0.0000
vn -0.0928 0.2442 0.9653
vn -0.0928 0.2442 -0.9653
vn -0.1138 -0.2430 -0.9633
vn -0.1138 -0.2430 0.9633
vn -0.2970 0.9549 0.0000
vn 0.2912 -0.9567 0.0000
vn 0.0841 -0.9632 -0.2553
vn 0.0841 -0.9632 0.2553
vn 0.2190 -0.9433 0.2496
vn 0.2190 -0.9433 -0.2496
vn 0.0147 -0.9999 0.0000
vn 0.2100 0.2859 -0.9350
vn -0.2875 0.1947 -0.9378
vn -0.2875 0.1947 0.9378
vn 0.8100 0.5864 0.0000
vn -0.9637 0.2669 0.0000
vn 0.2100 0.2859 0.9350
vn -0.0415 -0.2227 -0.9740
vn 0.0000 -0.6710 -0.7415
vn -0.0415 -0.2227 0.9740
vn -0.0699 -0.2340 0.9697
vn -0.2862 -0.9582 0.0000
vn -0.0699 -0.2340 -0.9697
vn -0.1394 0.1439 0.9797
vn 0.0000 -0.2396 0.9709
vn 0.6214 -0.5675 0.5402
vn 0.3876 -0.9218 0.0000
vn 0.9496 -0.0402 0.3107
vn 0.9496 -0.0402 -0.3107
vn 0.6214 -0.5675 -0.5402
vn -0.4264 -0.9045 0.0000
vn -0.0061 -0.3571 0.9340
vn 0.6512 0.5232 0.5498
vn 0.6512 0.5232 -0.5498
vn -0.0061 -0.3571 -0.9340
vn -0.6512 -0.5232 0.5498
vn 0.0061 0.3571 0.9340
vn 0.4264 0.9045 0.0000
vn 0.0061 0.3571 -0.9340
vn -0.6512 -0.5232 -0.5498
vn -0.9496 0.0402 0.3107
vn -0.6214 0.5675 0.5402
vn -0.3876 0.9218 0.0000
vn -0.6214 0.5675 -0.5402
vn -0.9496 0.0402 -0.3107
vn -0.1394 0.1439 -0.9797
vn 0.0000 -0.2396 -0.9709
vn -0.5689 -0.8224 -0.0000
vn 0.0000 -0.6081 0.7939
vn 0.2595 -0.9657 0.0000
usemtl Pal
s off
f 81/1/1 5/2/1 4/3/1 80/4/1
f 79/5/2 3/6/2 2/7/2 78/8/2
f 77/9/3 1/10/3 5/2/3 81/1/3
f 80/4/4 4/3/4 3/6/4 79/5/4
f 78/8/5 2/7/5 1/10/5 77/9/5
f 1/10/6 6/11/6 10/12/6 5/2/6
f 4/3/4 9/13/4 8/14/4 3/6/4
f 2/7/7 7/15/7 6/11/7 1/10/7
f 5/2/8 10/12/8 9/13/8 4/3/8
f 3/6/9 8/14/9 7/15/9 2/7/9
f 8/14/10 11/16/10 14/17/10 7/15/10
f 6/11/11 13/18/11 15/19/11 10/12/11
f 9/13/12 12/20/12 11/16/12 8/14/12
f 10/12/13 15/19/13 12/20/13 9/13/13
f 11/16/14 12/20/14 95/21/14 94/22/14
f 12/20/15 15/19/15 96/23/15 95/21/15
f 14/17/16 11/16/16 94/22/16 93/24/16
f 15/19/17 13/18/17 92/25/17 96/23/17
f 13/18/18 14/17/18 93/24/18 92/25/18
f 102/26/19 106/27/19 19/28/19 17/29/19
f 16/30/20 18/31/20 107/32/20 103/33/20
f 17/29/21 19/28/21 18/31/21 16/30/21
f 158/34/22 20/35/22 25/36/22 159/37/22
f 156/38/23 24/39/23 23/40/23 157/41/23
f 160/42/24 22/43/24 21/44/24 155/45/24
f 159/37/25 25/36/25 24/39/25 156/38/25
f 157/41/26 23/40/26 22/43/26 160/42/26
f 155/45/27 21/44/27 20/35/27 158/34/27
f 7/15/28 14/17/28 13/18/28 6/11/28
f 16/30/29 103/33/29 117/46/29 26/47/29
f 17/29/30 16/30/30 26/47/30 27/48/30
f 102/26/31 17/29/31 27/48/31 116/49/31
f 41/50/32 40/51/32 38/52/32 39/53/32
f 43/54/33 42/55/33 36/56/33 37/57/33
f 45/58/34 44/59/34 34/60/34 35/61/34
f 44/59/35 41/50/35 39/53/35 34/60/35
f 40/51/36 43/54/36 37/57/36 38/52/36
f 42/55/37 45/58/37 35/61/37 36/56/37
f 30/62/38 29/63/38 45/58/38 42/55/38
f 32/64/39 31/65/39 43/54/39 40/51/39
f 28/66/40 33/67/40 41/50/40 44/59/40
f 29/63/41 28/66/41 44/59/41 45/58/41
f 31/65/42 30/62/42 42/55/42 43/54/42
f 33/67/43 32/64/43 40/51/43 41/50/43
f 39/53/44 38/52/44 50/68/44 51/69/44
f 37/57/45 36/56/45 48/70/45 49/71/45
f 35/61/46 34/60/46 46/72/46 47/73/46
f 34/60/47 39/53/47 51/69/47 46/72/47
f 38/52/48 37/57/48 49/71/48 50/68/48
f 36/56/49 35/61/49 47/73/49 48/70/49
f 143/74/50 147/75/50 146/76/50 142/77/50
f 49/71/51 48/70/51 26/47/51 53/78/51
f 47/73/52 46/72/52 52/79/52 27/48/52
f 46/72/53 51/69/53 55/80/53 52/79/53
f 50/68/54 49/71/54 53/78/54 54/81/54
f 48/70/55 47/73/55 27/48/55 26/47/55
f 32/64/56 33/67/56 61/82/56 60/83/56
f 30/62/57 31/65/57 59/84/57 58/85/57
f 28/66/58 29/63/58 57/86/58 56/87/58
f 33/67/59 28/66/59 56/87/59 61/82/59
f 31/65/60 32/64/60 60/83/60 59/84/60
f 29/63/61 30/62/61 58/85/61 57/86/61
f 56/87/62 57/86/62 62/88/62
f 61/82/63 56/87/63 62/88/63
f 59/84/64 60/83/64 62/88/64
f 57/86/65 58/85/65 62/88/65
f 60/83/66 61/82/66 62/88/66
f 58/85/67 59/84/67 62/88/67
f 52/79/68 63/89/68 161/90/68
f 64/91/69 53/78/69 162/92/69
f 54/81/70 53/78/70 64/91/70
f 55/80/71 54/81/71 64/91/71 63/89/71
f 52/79/72 55/80/72 63/89/72
f 117/46/73 162/92/73 53/78/73 26/47/73
f 65/93/74 66/94/74 67/95/74
f 66/94/75 65/93/75 70/96/75
f 65/93/76 67/95/76 68/97/76
f 65/93/77 68/97/77 69/98/77
f 65/93/78 69/98/78 70/96/78
f 66/94/79 70/96/79 75/99/79
f 67/95/80 66/94/80 71/100/80
f 68/97/81 67/95/81 72/101/81
f 69/98/82 68/97/82 73/102/82
f 70/96/83 69/98/83 74/103/83
f 66/94/84 75/99/84 71/100/84
f 67/95/85 71/100/85 72/101/85
f 68/97/86 72/101/86 73/102/86
f 69/98/87 73/102/87 74/103/87
f 70/96/88 74/103/88 75/99/88
f 71/100/89 75/99/89 76/104/89
f 72/101/90 71/100/90 76/104/90
f 73/102/91 72/101/91 76/104/91
f 74/103/92 73/102/92 76/104/92
f 75/99/93 74/103/93 76/104/93
f 27/48/94 52/79/94 161/90/94 116/49/94
f 177/105/95 63/89/95 64/91/95
f 81/1/96 80/4/96 85/106/96 86/107/96
f 79/5/97 78/8/97 83/108/97 84/109/97
f 77/9/98 81/1/98 86/107/98 82/110/98
f 80/4/4 79/5/4 84/109/4 85/106/4
f 78/8/99 77/9/99 82/110/99 83/108/99
f 82/110/100 86/107/100 91/111/100 87/112/100
f 85/106/4 84/109/4 89/113/4 90/114/4
f 83/108/101 82/110/101 87/112/101 88/115/101
f 86/107/102 85/106/102 90/114/102 91/111/102
f 84/109/103 83/108/103 88/115/103 89/113/103
f 89/113/104 88/115/104 100/116/104 97/117/104
f 87/112/105 91/111/105 101/118/105 99/119/105
f 90/114/106 89/113/106 97/117/106 98/120/106
f 91/111/107 90/114/107 98/120/107 101/118/107
f 97/117/108 94/22/108 95/21/108 98/120/108
f 98/120/109 95/21/109 96/23/109 101/118/109
f 100/116/110 93/24/110 94/22/110 97/117/110
f 101/118/111 96/23/111 92/25/111 99/119/111
f 99/119/112 92/25/112 93/24/112 100/116/112
f 102/26/113 105/121/113 109/122/113 106/27/113
f 104/123/114 103/33/114 107/32/114 108/124/114
f 105/121/115 104/123/115 108/124/115 109/122/115
f 158/34/22 159/37/22 115/125/22 110/126/22
f 156/38/23 157/41/23 113/127/23 114/128/23
f 160/42/24 155/45/24 111/129/24 112/130/24
f 159/37/25 156/38/25 114/128/25 115/125/25
f 157/41/26 160/42/26 112/130/26 113/127/26
f 155/45/27 158/34/27 110/126/27 111/129/27
f 88/115/116 87/112/116 99/119/116 100/116/116
f 104/123/117 118/131/117 117/46/117 103/33/117
f 105/121/118 119/132/118 118/131/118 104/123/118
f 102/26/119 116/49/119 119/132/119 105/121/119
f 133/133/120 131/134/120 130/135/120 132/136/120
f 135/137/121 129/138/121 128/139/121 134/140/121
f 137/141/122 127/142/122 126/143/122 136/144/122
f 136/144/123 126/143/123 131/134/123 133/133/123
f 132/136/124 130/135/124 129/138/124 135/137/124
f 134/140/125 128/139/125 127/142/125 137/141/125
f 122/145/126 134/140/126 137/141/126 121/146/126
f 124/147/127 132/136/127 135/137/127 123/148/127
f 120/149/128 136/144/128 133/133/128 125/150/128
f 121/146/129 137/141/129 136/144/129 120/149/129
f 123/148/130 135/137/130 134/140/130 122/145/130
f 125/150/131 133/133/131 132/136/131 124/147/131
f 131/134/132 143/74/132 142/77/132 130/135/132
f 129/138/133 141/151/133 140/152/133 128/139/133
f 127/142/134 139/153/134 138/154/134 126/143/134
f 126/143/135 138/154/135 143/74/135 131/134/135
f 130/135/136 142/77/136 141/151/136 129/138/136
f 128/139/137 140/152/137 139/153/137 127/142/137
f 141/151/138 145/155/138 118/131/138 140/152/138
f 139/153/139 119/132/139 144/156/139 138/154/139
f 138/154/140 144/156/140 147/75/140 143/74/140
f 142/77/141 146/76/141 145/155/141 141/151/141
f 140/152/142 118/131/142 119/132/142 139/153/142
f 124/147/143 152/157/143 153/158/143 125/150/143
f 122/145/144 150/159/144 151/160/144 123/148/144
f 120/149/145 148/161/145 149/162/145 121/146/145
f 125/150/146 153/158/146 148/161/146 120/149/146
f 123/148/147 151/160/147 152/157/147 124/147/147
f 121/146/148 149/162/148 150/159/148 122/145/148
f 148/161/149 154/163/149 149/162/149
f 153/158/150 154/163/150 148/161/150
f 151/160/151 154/163/151 152/157/151
f 149/162/152 154/163/152 150/159/152
f 152/157/153 154/163/153 153/158/153
f 150/159/154 154/163/154 151/160/154
f 144/156/155 161/90/155 163/164/155
f 163/164/156 63/165/156 177/105/156
f 164/166/157 162/92/157 145/155/157
f 146/76/158 164/166/158 145/155/158
f 147/75/159 163/164/159 164/166/159 146/76/159
f 144/156/160 163/164/160 147/75/160
f 117/46/161 118/131/161 145/155/161 162/92/161
f 162/92/162 164/166/162 64/167/162
f 165/168/163 167/169/163 166/170/163
f 166/170/164 170/171/164 165/168/164
f 165/168/165 168/172/165 167/169/165
f 165/168/166 169/173/166 168/172/166
f 165/168/167 170/171/167 169/173/167
f 166/170/168 175/174/168 170/171/168
f 167/169/169 171/175/169 166/170/169
f 168/172/170 172/176/170 167/169/170
f 169/173/171 173/177/171 168/172/171
f 170/171/172 174/178/172 169/173/172
f 166/170/173 171/175/173 175/174/173
f 167/169/174 172/176/174 171/175/174
f 168/172/175 173/177/175 172/176/175
f 169/173/176 174/178/176 173/177/176
f 170/171/177 175/174/177 174/178/177
f 171/175/178 176/179/178 175/174/178
f 172/176/179 176/179/179 171/175/179
f 173/177/180 176/179/180 172/176/180
f 174/178/181 176/179/181 173/177/181
f 175/174/182 176/179/182 174/178/182
f 119/132/183 116/49/183 161/90/183 144/156/183
f 161/90/184 63/165/184 163/164/184
f 177/105/185 164/166/185 163/164/185
f 164/166/186 177/105/186 64/167/186
f 51/69/187 50/68/187 54/81/187 55/80/187
