# Blender 3.4.1
# www.blender.org
mtllib adryerlod.mtl
o Dryer_01_LOD2
v -1.356025 -0.012948 -0.011453
v 1.356025 -0.012948 -0.011453
v 0.000000 -0.111353 -0.015286
v -1.357804 0.003246 0.016772
v -0.000000 -0.104788 0.018308
v -1.357880 0.017199 -0.010233
v 1.357888 0.009448 0.009952
v 0.000000 -0.087851 -0.005653
v 0.302154 -0.815091 0.023527
v 0.267773 -0.060253 0.023497
v 0.296885 -0.704081 -0.023515
v 0.950379 -0.012916 -0.031222
v 1.011741 -0.663443 -0.023517
v 0.266866 -0.060179 -0.023516
v 0.950728 -0.025023 -0.015807
v 0.266484 -0.054127 0.000000
v 0.949898 -0.012916 0.000000
v 0.267186 -0.066233 0.000000
v 0.950546 -0.025023 0.000000
v 1.018547 -0.783351 0.023186
v 0.952002 -0.013605 0.031219
v 0.954465 -0.025640 0.015913
v -0.892493 -0.509174 0.025074
v -0.350715 -0.541199 0.020977
v -0.314450 -0.066415 0.033632
v -0.889058 -0.544569 -0.023499
v -0.843584 -0.027583 -0.031220
v -0.354800 -0.584995 -0.023528
v -0.843442 -0.039660 -0.015807
v -0.308483 -0.070017 -0.023494
v -0.841901 -0.027537 0.000000
v -0.307192 -0.063991 0.000000
v -0.842617 -0.039633 0.000000
v -0.308209 -0.076085 0.000000
v -0.316360 -0.077961 0.015592
v -0.841664 -0.033705 0.020921
v 0.015781 -0.071035 0.026539
v -0.015781 -0.071035 0.026539
v -0.015759 -0.066547 -0.037137
v -0.169900 -0.075308 -0.004011
v -0.169092 -0.330152 -0.026135
v -0.169782 -0.063459 -0.049359
v -0.015842 -0.134179 -0.038070
v -0.168774 -0.331471 -0.051222
v 0.169816 -0.061650 0.034947
v 0.169900 -0.075308 -0.004011
v 0.015759 -0.066547 -0.037137
v -0.169816 -0.061650 0.034947
v 0.015842 -0.134179 -0.038070
v 0.169092 -0.330152 -0.026135
v -0.000000 -0.149708 -0.026134
v -0.000000 -0.149708 -0.035456
v -0.000000 -0.342963 -0.026135
v -0.000000 -0.342963 -0.050015
v 0.168774 -0.331471 -0.051222
v -0.000000 -0.319664 -0.050015
v -0.000000 -0.342963 -0.052812
v -0.000000 -0.319664 -0.052812
v 0.157520 -0.750043 0.028816
v 0.031572 -0.749278 0.026085
v 0.169782 -0.063459 -0.049359
v -0.157520 -0.750886 0.028713
v -0.031581 -0.750124 0.026236
v -0.125169 -0.478910 0.040525
v -0.074641 -0.549330 0.043072
v -0.063590 -0.481985 0.040240
v -0.129801 -0.543213 0.041721
vn -0.0412 0.6892 -0.7234
vn -0.0002 0.3795 -0.9252
vn -0.0413 0.6921 -0.7206
vn 0.0067 0.0446 -0.9990
vn 0.0065 0.0409 -0.9991
vn -0.0650 0.8149 0.5760
vn -0.0001 0.8171 0.5764
vn -0.0003 0.8166 0.5772
vn 0.0670 0.8857 0.4595
vn 0.0705 -0.9790 0.1913
vn -0.0005 -0.9810 0.1942
vn -0.0000 -0.9814 0.1918
vn -0.0696 -0.8695 0.4890
vn 0.0517 -0.9692 0.2407
vn 0.0601 -0.9968 -0.0535
vn 0.0600 -0.9972 -0.0457
vn -0.0602 0.9978 0.0261
vn -0.0684 0.9662 0.2487
vn -0.0604 0.9977 0.0315
vn 0.9875 0.1577 -0.0084
vn 0.9825 0.1553 -0.1026
vn 0.9964 0.0533 -0.0660
vn -0.0055 -0.0060 -1.0000
vn -0.0049 -0.0065 -1.0000
vn 0.0007 -0.0118 -0.9999
vn -0.0055 -0.0060 1.0000
vn -0.0049 -0.0067 1.0000
vn -0.0112 -0.0005 0.9999
vn -0.0000 -0.0000 1.0000
vn 0.0515 -0.9987 -0.0050
vn 0.0582 -0.9675 -0.2461
vn 0.0513 -0.9987 0.0006
vn -0.0690 0.9976 -0.0011
vn 0.9958 0.0817 0.0417
vn 0.9990 0.0434 0.0115
vn 0.9973 0.0676 0.0305
vn 0.9607 0.2713 -0.0587
vn 0.9921 0.0848 0.0929
vn -0.0052 -0.0054 -1.0000
vn -0.0057 -0.0049 -1.0000
vn -0.0001 -0.0096 -1.0000
vn -0.0054 -0.0052 1.0000
vn -0.0113 -0.0005 0.9999
vn -0.0047 -0.0058 1.0000
vn 0.0009 -0.0104 0.9999
vn -0.0672 -0.9858 -0.1538
vn 0.0678 0.9940 0.0863
vn 0.9754 -0.0820 0.2046
vn -0.9969 0.0580 0.0532
vn -0.9949 0.0751 0.0676
vn -0.9954 0.0706 0.0645
vn 0.0067 -0.0079 -0.9999
vn 0.0064 -0.0082 -0.9999
vn 0.0143 -0.0012 -0.9999
vn 0.0069 -0.0080 0.9999
vn 0.0064 -0.0084 0.9999
vn -0.0011 -0.0151 0.9999
vn -0.0566 -0.9984 0.0047
vn 0.0788 0.9968 -0.0126
vn 0.0664 0.9678 -0.2427
vn 0.0791 0.9968 -0.0057
vn -0.0108 -0.0076 -0.9999
vn -0.0094 -0.0094 -0.9999
vn -0.0096 -0.0092 -0.9999
vn 0.0217 0.9995 -0.0214
vn 0.1700 -0.0093 -0.9854
vn 0.0113 -0.0425 -0.9990
vn -0.0193 -0.0487 -0.9986
vn 0.0245 -0.0077 0.9997
vn 0.0502 -0.0026 0.9987
vn 0.0197 -0.0087 0.9998
vn 0.0416 -0.9967 -0.0702
vn 0.1912 -0.0663 0.9793
vn 0.1974 -0.0499 0.9791
vn 0.2108 -0.0137 0.9774
vn -0.3458 0.3240 0.8806
vn -0.0679 -0.9977 -0.0000
vn -0.0754 -0.9958 0.0514
vn 0.0420 0.0439 -0.9982
vn 0.0772 0.0089 -0.9970
vn 0.0971 -0.0064 -0.9953
vn 0.0889 0.0038 -0.9960
vn 0.0012 0.0853 -0.9964
vn -0.0217 0.9995 -0.0214
vn -0.0096 -0.0426 -0.9990
vn -0.1698 -0.0092 -0.9854
vn 0.0214 -0.0490 -0.9986
vn -0.0263 -0.0076 0.9996
vn -0.0504 -0.0027 0.9987
vn -0.0544 -0.0019 0.9985
vn -0.0416 -0.9967 -0.0702
vn 1.0000 -0.0032 0.0012
vn 1.0000 -0.0017 -0.0031
vn 0.9999 -0.0127 0.0066
vn -0.1974 -0.0499 0.9791
vn -0.1912 -0.0663 0.9793
vn -0.2108 -0.0137 0.9774
vn -0.1842 -0.0844 0.9793
vn -1.0000 -0.0000 -0.0000
vn 0.2411 0.2259 0.9439
vn 0.0356 0.0334 0.9988
vn 0.3458 0.3240 0.8806
vn 0.0679 -0.9977 -0.0000
vn 0.0747 -0.9961 0.0464
vn 0.0686 -0.9976 0.0048
vn 0.0754 -0.9958 0.0514
vn -0.0012 0.0853 -0.9964
vn -0.0195 0.0452 0.9988
vn -0.0000 0.3793 -0.9253
vn 0.0670 0.8865 0.4578
vn 0.0627 -0.6923 0.7189
vn -0.0696 -0.8672 0.4931
vn -0.9975 -0.0578 0.0396
vn 0.0515 -0.9681 0.2451
vn -0.0686 0.9644 0.2552
vn -0.9983 -0.0579 -0.0013
vn -0.0112 -0.0005 -0.9999
vn 0.9942 0.0944 0.0516
vn 0.0007 -0.0120 0.9999
vn 0.0583 -0.9666 -0.2496
vn -0.0583 0.9666 -0.2497
vn 0.9985 0.0535 0.0154
vn -0.0110 -0.0005 -0.9999
vn -0.9978 0.0591 0.0287
vn -0.0097 -0.0067 0.9999
vn -0.0075 -0.0095 0.9999
vn -0.0234 0.0112 0.9997
vn -0.0779 -0.9583 0.2751
vn 0.0526 0.9580 0.2818
vn 0.7327 -0.6058 0.3101
vn -0.9968 0.0590 0.0536
vn -0.0012 -0.0148 -0.9999
vn 0.0143 -0.0014 0.9999
vn -0.9930 0.0885 0.0785
vn -0.0659 -0.9663 -0.2488
vn 0.0658 0.9657 -0.2513
vn 0.9959 -0.0838 -0.0333
vn 0.9955 -0.0745 -0.0577
vn -0.0082 -0.0110 -0.9999
vn 0.0060 -0.0271 0.9996
vn -0.9999 -0.0126 0.0066
vn -1.0000 -0.0032 0.0012
vn -0.9998 -0.0179 0.0084
vn 0.1945 -0.0041 -0.9809
vn 0.0544 -0.0017 0.9985
vn -1.0000 -0.0017 -0.0031
vn 0.7000 0.7141 -0.0000
vn 0.0794 0.0137 -0.9968
vn -0.9999 -0.0021 -0.0126
vn -0.9999 -0.0023 -0.0115
vn 0.1842 -0.0844 0.9793
vn -0.0094 -0.0000 -1.0000
vn -0.0698 0.9976 -0.0000
vn 0.9998 -0.0179 0.0085
vn -0.1945 -0.0039 -0.9809
vn -0.0217 -0.0085 0.9997
vn -0.7000 0.7141 -0.0000
vn -0.0772 0.0089 -0.9970
vn -0.0971 -0.0064 -0.9953
vn -0.0794 0.0137 -0.9968
vn 0.9999 -0.0023 -0.0115
vn 0.9999 -0.0021 -0.0126
vn -0.0828 0.0023 -0.9966
vn 0.0094 -0.0000 -1.0000
vn -0.1297 -0.0345 -0.9910
vn 0.0698 0.9976 -0.0000
vn 0.0645 0.9954 0.0702
vn -0.0645 0.9954 0.0702
vn -0.9978 -0.0603 -0.0283
vn 0.0055 0.0182 0.9998
vt 0.774452 0.108421
vt 0.788066 0.108421
vt 0.781110 0.107979
vt 0.774444 0.108516
vt 0.781450 0.108023
vt 0.774438 0.108554
vt 0.788076 0.108527
vt 0.781259 0.108112
vt 0.406488 0.368040
vt 0.406488 0.343282
vt 0.413556 0.368045
vt 0.420627 0.360974
vt 0.413415 0.343305
vt 0.406485 0.368045
vt 0.406485 0.343297
vt 0.413556 0.360970
vt 0.406485 0.357439
vt 0.413556 0.368045
vt 0.413417 0.343296
vt 0.420627 0.360974
vt 0.413277 0.353903
vt 0.413556 0.346832
vt 0.420627 0.353903
vt 0.413556 0.353903
vt 0.413277 0.346832
vt 0.413277 0.353903
vt 0.406461 0.357445
vt 0.413555 0.364447
vt 0.413554 0.360970
vt 0.413274 0.353903
vt 0.531138 0.087488
vt 0.531138 0.111289
vt 0.531093 0.099618
vt 0.531137 0.099331
vt 0.531137 0.107767
vt 0.537707 0.104667
vt 0.537707 0.108117
vt 0.531137 0.111289
vt 0.531137 0.088175
vt 0.544349 0.104680
vt 0.537743 0.111289
vt 0.537743 0.084868
vt 0.531137 0.101396
vt 0.537482 0.091471
vt 0.537612 0.101374
vt 0.537743 0.091471
vt 0.544349 0.098077
vt 0.537743 0.098077
vt 0.537482 0.091471
vt 0.537482 0.098077
vt 0.537448 0.098077
vt 0.537742 0.111289
vt 0.537585 0.088855
vt 0.544349 0.104681
vt 0.416395 0.100039
vt 0.416395 0.100039
vt 0.416400 0.098633
vt 0.416368 0.095167
vt 0.346055 0.095194
vt 0.416368 0.095194
vt 0.416426 0.095167
vt 0.416368 0.098633
vt 0.416368 0.095232
vt 0.346055 0.095231
vt 0.416429 0.105564
vt 0.416423 0.092337
vt 0.416368 0.095167
vt 0.416400 0.098633
vt 0.416429 0.105564
vt 0.416429 0.092065
vt 0.416368 0.098633
vt 0.346055 0.095194
vt 0.416368 0.095194
vt 0.416368 0.098633
vt 0.416368 0.098633
vt 0.416368 0.098633
vt 0.346055 0.098633
vt 0.416368 0.098633
vt 0.346055 0.098633
vt 0.416368 0.095232
vt 0.346055 0.095231
vt 0.416368 0.098633
vt 0.346055 0.098633
vt 0.346055 0.098633
vt 0.346055 0.098633
vt 0.413256 0.092906
vt 0.413256 0.105564
vt 0.413256 0.099837
vt 0.416426 0.095167
vt 0.413256 0.105564
vt 0.413256 0.092965
vt 0.413256 0.099887
vt 0.100325 0.244595
vt 0.095147 0.238901
vt 0.100454 0.235282
vt 0.097896 0.231034
vt 0.097893 0.241921
s 1
usemtl CartoonTown_01.076
f 2/2/1 8/8/2 7/7/3
f 8/8/2 1/1/4 6/6/5
f 7/7/6 8/8/7 5/5/8
f 8/8/7 4/4/9 5/5/8
f 2/2/10 5/5/11 3/3/12
f 5/5/11 1/1/13 3/3/12
f 18/25/14 19/26/15 22/30/16
f 17/24/17 16/23/18 21/29/19
f 21/29/20 19/26/21 17/24/22
f 11/14/23 12/16/24 13/17/25
f 11/15/26 15/21/27 14/19/28
f 19/26/29 16/22/29 18/25/29
f 19/26/30 14/19/31 15/21/32
f 14/20/33 17/24/33 12/16/33
f 12/16/34 19/26/35 15/21/36
f 22/30/37 21/28/20 20/27/38
f 9/10/39 22/30/40 20/27/41
f 21/28/42 10/11/43 9/9/44
f 21/28/42 9/9/44 20/27/45
f 33/49/46 34/50/46 35/51/46
f 32/48/47 31/47/47 25/36/47
f 25/36/48 34/50/48 32/48/48
f 33/49/49 27/42/50 29/44/51
f 28/43/52 27/41/53 30/45/54
f 28/43/55 29/44/56 26/39/57
f 34/50/29 31/46/29 33/49/29
f 30/45/58 33/49/58 29/44/58
f 31/47/59 30/45/60 27/40/61
f 36/53/62 35/51/63 23/31/64
f 39/57/65 42/61/65 48/70/65
f 40/58/66 63/92/67 62/91/68
f 63/92/69 48/69/70 62/90/71
f 40/58/72 39/57/72 38/56/72
f 40/58/73 43/62/74 39/57/75
f 41/60/76 51/74/76 43/62/76
f 44/64/77 57/84/77 54/79/77
f 44/64/78 53/77/78 41/59/78
f 44/63/79 42/61/80 43/62/81
f 44/63/79 52/75/82 56/82/83
f 61/89/84 47/68/84 45/66/84
f 60/88/85 46/67/86 59/86/87
f 60/88/88 45/65/89 37/55/90
f 47/68/91 46/67/91 37/55/91
f 46/67/92 61/89/93 45/66/94
f 49/71/95 46/67/96 47/68/97
f 49/71/95 50/73/98 46/67/96
f 56/82/99 53/76/99 51/74/99
f 51/74/100 50/73/101 49/71/102
f 57/84/103 55/81/104 54/79/103
f 53/77/105 55/81/104 50/72/106
f 52/75/107 55/80/107 56/82/107
f 58/85/99 54/79/99 56/83/99
f 66/95/108 67/96/108 65/94/108
f 2/2/1 3/3/109 8/8/2
f 8/8/2 3/3/109 1/1/4
f 8/8/7 6/6/110 4/4/9
f 2/2/111 7/7/111 5/5/111
f 5/5/11 4/4/112 1/1/13
f 10/13/113 16/22/113 18/25/113
f 22/30/16 10/13/114 18/25/14
f 16/23/18 10/12/115 21/29/19
f 21/29/20 22/30/37 19/26/21
f 18/25/116 16/22/116 14/19/116
f 11/14/23 14/18/117 12/16/24
f 13/17/118 12/16/34 15/21/36
f 11/15/26 13/17/119 15/21/27
f 19/26/29 17/24/29 16/22/29
f 19/26/30 18/25/120 14/19/31
f 14/20/121 16/23/121 17/24/121
f 12/16/122 17/24/122 19/26/122
f 9/10/39 10/13/123 22/30/40
f 36/53/124 31/46/124 33/49/124
f 23/32/125 25/37/126 36/52/127
f 35/51/128 36/53/128 33/49/128
f 36/54/129 25/36/129 31/47/129
f 25/36/130 35/51/130 34/50/130
f 33/49/49 31/46/131 27/42/50
f 28/43/52 26/38/132 27/41/53
f 28/43/55 30/45/133 29/44/56
f 26/39/134 29/44/51 27/42/50
f 34/50/29 32/48/29 31/46/29
f 30/45/135 34/50/135 33/49/135
f 31/47/59 32/48/136 30/45/60
f 30/45/137 32/48/137 34/50/137
f 35/51/138 25/37/138 24/33/138
f 23/31/64 35/51/63 24/34/139
f 24/35/140 25/37/126 23/32/125
f 48/70/141 40/58/142 62/91/143
f 40/58/66 38/56/144 63/92/67
f 63/92/69 38/56/145 48/69/70
f 40/58/142 48/70/141 42/61/146
f 43/62/147 51/74/147 52/75/147
f 39/57/148 43/62/81 42/61/80
f 41/60/149 40/58/142 44/63/150
f 40/58/142 42/61/146 44/63/150
f 43/62/74 40/58/73 41/60/151
f 41/60/29 53/76/29 51/74/29
f 44/64/77 54/79/77 53/77/77
f 44/64/152 58/85/152 57/84/152
f 44/63/79 43/62/81 52/75/82
f 56/83/153 58/85/153 44/64/153
f 59/86/154 46/67/92 45/66/94
f 60/88/85 37/55/155 46/67/86
f 60/88/88 59/87/156 45/65/89
f 52/75/157 51/74/157 49/71/157
f 61/89/158 49/71/159 47/68/160
f 61/89/93 46/67/92 55/80/161
f 46/67/92 50/73/162 55/80/161
f 51/74/99 52/75/99 56/82/99
f 56/82/99 54/78/99 53/76/99
f 51/74/100 53/76/29 50/73/101
f 53/77/105 54/79/103 55/81/104
f 55/80/163 49/71/159 61/89/158
f 57/84/164 58/85/164 55/81/164
f 52/75/165 49/71/159 55/80/163
f 58/85/99 57/84/99 54/79/99
f 55/81/166 58/85/166 56/83/166
f 38/56/167 39/57/167 48/70/167
f 45/66/168 47/68/168 37/55/168
f 1/1/169 4/4/169 6/6/169
f 67/97/170 66/95/170 64/93/170
