usemtl world_001
v -0.324208 0.459462 -0.109908
v -0.324265 0.35152 -0.10555
v -0.301674 0.301324 -0.00957
v -0.316509 0.359069 0.081535
v -0.321442 0.467011 0.077108
v -0.315129 0.517207 -0.018474
v -0.31015 0.443494 -0.079282
v -0.310192 0.369888 -0.07631
v -0.287178 0.335659 -0.010754
v -0.301613 0.375036 0.051309
v -0.306561 0.448642 0.048268
v -0.300671 0.482871 -0.016887
v 0.316776 0.459461 -0.101039
v 0.316715 0.35152 -0.096681
v 0.291477 0.301324 -0.001363
v 0.303787 0.359069 0.090118
v 0.308838 0.46701 0.08583
v 0.305172 0.517207 -0.00989
v 0.30188 0.443494 -0.070813
v 0.301838 0.369888 -0.067841
v 0.277019 0.335659 -0.002948
v 0.28973 0.375036 0.059491
v 0.294761 0.448642 0.05659
v 0.290676 0.482871 -0.008704
v -0.348461 0.342172 0.167836
v -0.346989 0.361262 0.061517
v -0.322109 0.278722 -0.007842
v -0.33619 0.177094 0.0286
v -0.342652 0.158004 0.134849
v -0.338627 0.240543 0.204608
v -0.333676 0.315917 0.145869
v -0.332672 0.328934 0.073369
v -0.308102 0.27265 0.026178
v -0.322022 0.203349 0.050967
v -0.328011 0.190331 0.123399
v -0.323681 0.246615 0.170989
v 0.292522 0.342172 0.176705
v 0.293991 0.361261 0.070386
v 0.271042 0.278722 0.000365
v 0.284107 0.177094 0.037181
v 0.287624 0.158004 0.143569
v 0.281673 0.240543 0.213191
v 0.278351 0.315917 0.154336
v 0.279354 0.328934 0.081838
v 0.256096 0.27265 0.033984
v 0.269325 0.203349 0.05915
v 0.273311 0.190331 0.131719
v 0.267666 0.246615 0.179172
v -0.312256 0.147985 -0.152861
v -0.31374 0.161498 -0.045691
v -0.290402 0.261075 -0.003476
v -0.303074 0.34714 -0.068951
v -0.30658 0.333628 -0.17619
v -0.30101 0.23405 -0.218005
v -0.297962 0.17966 -0.139338
v -0.298973 0.188874 -0.066258
v -0.275452 0.256777 -0.037366
v -0.28841 0.315465 -0.082074
v -0.292389 0.306251 -0.155223
v -0.287007 0.238348 -0.183715
v 0.328728 0.147985 -0.143992
v 0.327244 0.161498 -0.036822
v 0.302749 0.261076 0.004731
v 0.317226 0.347141 -0.060368
v 0.323696 0.333628 -0.16747
v 0.31929 0.23405 -0.209422
v 0.314064 0.17966 -0.13087
v 0.313053 0.188874 -0.05779
v 0.288742 0.256777 -0.029559
v 0.302933 0.315466 -0.073892
v 0.308933 0.306251 -0.146903
v 0.30434 0.238348 -0.175532
v -0.340592 -0.015592 -0.205865
v -0.341961 0.027516 -0.106818
v -0.318215 0.134855 -0.094293
v -0.330586 0.199085 -0.181332
v -0.334206 0.155977 -0.280448
v -0.329048 0.048638 -0.292573
v -0.326168 0.018551 -0.201785
v -0.327103 0.047947 -0.134244
v -0.303303 0.121142 -0.125598
v -0.316056 0.164942 -0.185012
v -0.320111 0.135546 -0.252622
v -0.315007 0.062351 -0.260867
v 0.300388 -0.015592 -0.196996
v 0.299019 0.027516 -0.097949
v 0.274936 0.134855 -0.086085
v 0.289711 0.199085 -0.172749
v 0.29607 0.155977 -0.271727
v 0.291248 0.048639 -0.28399
v 0.285858 0.018552 -0.193316
v 0.284923 0.047947 -0.125775
v 0.260895 0.121142 -0.117791
v 0.275287 0.164942 -0.176829
v 0.281212 0.135546 -0.2443
v 0.276336 0.062351 -0.252684
v -0.293717 0.174286 0.075315
v -0.292244 0.193375 -0.031005
v -0.267365 0.110836 -0.100364
v -0.281445 0.009207 -0.063924
v -0.287903 -0.009882 0.042327
v -0.283879 0.072657 0.112086
v -0.278931 0.14803 0.053346
v -0.277928 0.161048 -0.019153
v -0.253353 0.104764 -0.066344
v -0.267273 0.035463 -0.041554
v -0.273266 0.022445 0.030875
v -0.268936 0.078729 0.078467
v 0.347267 0.174285 0.084184
v 0.348739 0.193375 -0.022136
v 0.325786 0.110836 -0.092156
v 0.338852 0.009207 -0.055341
v 0.342373 -0.009882 0.051047
v 0.336418 0.072657 0.120669
v 0.333095 0.14803 0.061814
v 0.334099 0.161048 -0.010684
v 0.31084 0.104764 -0.058537
v 0.32407 0.035462 -0.033372
v 0.328056 0.022445 0.039197
v 0.32241 0.078729 0.08665
v -0.346199 0.199776 0.199323
v -0.344902 0.145761 0.105775
v -0.320988 0.037732 0.106105
v -0.335858 -0.016283 0.199466
v -0.34214 0.037732 0.292943
v -0.337151 0.145761 0.293013
v -0.331723 0.165412 0.199523
v -0.330838 0.128579 0.135732
v -0.306923 0.054913 0.136064
v -0.321381 0.01808 0.199666
v -0.327252 0.054913 0.263387
v -0.322262 0.128579 0.263456
v 0.294784 0.199776 0.208192
v 0.296078 0.145761 0.114644
v 0.272163 0.037732 0.114312
v 0.284443 -0.016283 0.208049
v 0.288135 0.037731 0.301664
v 0.283146 0.145761 0.301596
v 0.280308 0.165412 0.207992
v 0.281189 0.128579 0.1442
v 0.257274 0.054913 0.14387
v 0.269966 0.01808 0.207849
v 0.274071 0.054913 0.271707
v 0.269081 0.128579 0.271638
vn -0.976859 0.2058492 -0.05807158
vn -0.9863768 -0.1634124 -0.01890034
vn -0.7147314 -0.6984988 -0.03547788
vn -0.9135094 -0.3907722 0.1131274
vn -0.9703569 0.08568961 0.2259746
vn -0.7444053 0.6619453 0.08768773
vn -0.77266 -0.150984 0.6166039
vn -0.765651 0.320938 0.5574741
vn -0.856454 0.502582 -0.11789
vn -0.7828559 0.081207 -0.616881
vn -0.7790721 -0.4143191 -0.4705171
vn -0.8098821 -0.5635581 0.162767
vn 0.9908158 0.1343197 0.01557323
vn 0.7124956 -0.5632958 -0.4183874
vn 0.6993904 -0.6745803 0.2362089
vn 0.9668239 -0.2516715 0.04373774
vn 0.7302393 0.4564006 0.5083787
vn 0.7453824 0.6519159 -0.1393228
vn 0.7553168 -0.150983 0.6377309
vn 0.749944 0.320924 0.5784391
vn 0.8593894 0.5025812 -0.09413803
vn 0.7996358 0.08120798 -0.5949688
vn 0.791802 -0.414314 -0.448769
vn 0.805079 -0.563543 0.185114
vn -0.9803916 -0.001033591 0.1970564
vn -0.9842602 0.04044795 -0.1720342
vn -0.7057248 0.1760412 -0.6862667
vn -0.906135 -0.03822152 -0.4212583
vn -0.9674916 -0.2522251 0.01851207
vn -0.751698 -0.2388266 0.6147454
vn -0.760032 -0.579763 -0.293643
vn -0.7604229 -0.623983 0.180006
vn -0.8650401 -0.005164001 0.5016761
vn -0.7941566 0.5740764 0.1993781
vn -0.781187 0.538451 -0.315939
vn -0.7993065 -0.04794697 -0.5990077
vn 0.9890308 -0.0308605 0.144449
vn 0.7128591 0.5399435 -0.4475409
vn 0.7122945 -0.07523105 -0.6978374
vn 0.9707248 0.02473526 -0.2389176
vn 0.7324165 -0.5851948 0.3480132
vn 0.7340439 0.005051369 0.6790831
vn 0.767864 -0.579766 -0.2725
vn 0.755134 -0.624004 0.200977
vn 0.8508015 -0.005172997 0.5254617
vn 0.7883258 0.5740908 0.2212739
vn 0.789645 0.538432 -0.294197
vn 0.815592 -0.047942 -0.576638
vn -0.9746855 -0.06187951 -0.2148472
vn -0.9887159 0.008734075 0.1495474
vn -0.7247624 0.03386233 0.6881663
vn -0.9170365 0.1584172 0.3659891
vn -0.965592 0.2311881 -0.1190967
vn -0.7338057 0.0413867 -0.6780977
vn -0.7653207 0.6377988 0.08658496
vn -0.7527017 0.5386978 -0.3784769
vn -0.8511212 -0.148347 -0.5035731
vn -0.7908331 -0.6106991 -0.04036701
vn -0.7916939 -0.422818 0.44096
vn -0.815036 0.221197 0.535526
vn 0.9926958 -0.009548012 -0.1202655
vn 0.6983012 -0.3788027 0.6073583
vn 0.6934893 0.2830008 0.662558
vn 0.96381 0.05164539 0.2615398
vn 0.7439728 0.457692 -0.4868497
vn 0.7521125 -0.2044371 -0.6265239
vn 0.7626292 0.6378022 0.107727
vn 0.762881 0.538692 -0.357524
vn 0.8647073 -0.148354 -0.4798672
vn 0.7916375 -0.6107116 -0.01847499
vn 0.7791731 -0.4228351 0.4627091
vn 0.7998973 0.2211981 0.5578852
vn -0.9750308 -0.1160614 -0.1893265
vn -0.9885824 0.05416735 0.1406085
vn -0.7241985 0.2288168 0.6505224
vn -0.9161639 0.2586434 0.306182
vn -0.9647194 0.1922254 -0.1799051
vn -0.7339953 -0.148098 -0.6628106
vn -0.7627463 0.6394293 -0.09668703
vn -0.7507777 0.4134729 -0.5151438
vn -0.8519436 -0.2806622 -0.4420643
vn -0.793184 -0.594388 0.132522
vn -0.7930429 -0.278717 0.5416639
vn -0.8138421 0.3660491 0.4512971
vn 0.9925698 -0.04699987 -0.1122325
vn 0.6971256 -0.1955122 0.6897758
vn 0.6949597 0.4551806 0.556634
vn 0.9641472 0.1193661 0.2370065
vn 0.7454942 0.2994049 -0.595479
vn 0.750946 -0.3753007 -0.5433502
vn 0.7651271 0.6394331 -0.07553801
vn 0.7647496 0.4134708 -0.4941657
vn 0.8638679 -0.280657 -0.418287
vn 0.7892468 -0.5943439 0.154417
vn 0.777804 -0.278694 0.5633389
vn 0.8010518 0.3660359 0.4736389
vn -0.9803894 -0.001057843 0.1970674
vn -0.9842603 0.04044728 -0.1720336
vn -0.7057242 0.1760454 -0.6862662
vn -0.9061389 -0.03822431 -0.4212498
vn -0.9674684 -0.2523103 0.01855468
vn -0.7516755 -0.23885 0.6147637
vn -0.7600539 -0.5797449 -0.2936219
vn -0.7604102 -0.6240002 0.1800001
vn -0.8650163 -0.005179001 0.5017172
vn -0.7941471 0.574092 0.199371
vn -0.7812161 0.538417 -0.315925
vn -0.79935 -0.047957 -0.598949
vn 0.9890293 -0.03086928 0.1444578
vn 0.7128925 0.5399023 -0.4475373
vn 0.7123047 -0.07526147 -0.6978236
vn 0.9707218 0.02474302 -0.2389284
vn 0.732453 -0.5851499 0.3480117
vn 0.7340572 0.005087874 0.6790686
vn 0.767878 -0.579755 -0.272484
vn 0.7551341 -0.6240051 0.200973
vn 0.8508095 -0.005168998 0.5254487
vn 0.7883361 0.5740801 0.221265
vn 0.789668 0.538401 -0.294192
vn 0.8156078 -0.04794899 -0.5766149
vn -0.9797061 0.1351209 0.1480485
vn -0.9844124 -0.0712613 -0.1607918
vn -0.7063504 -0.3019007 -0.6402539
vn -0.9077988 -0.2929021 -0.3001828
vn -0.9696375 -0.1721218 0.1737159
vn -0.7518027 0.2208032 0.62132
vn -0.7661433 -0.6255962 0.147153
vn -0.7653821 -0.353844 0.537573
vn -0.8633929 0.327431 0.383851
vn -0.7883333 0.5743423 -0.2205941
vn -0.7774233 0.2145471 -0.5912552
vn -0.801703 -0.41589 -0.429311
vn 0.9891761 0.06081928 0.1335349
vn 0.716217 0.1174472 -0.6879238
vn 0.7093441 -0.5140174 -0.4823041
vn 0.9701293 -0.1438465 -0.1953385
vn 0.7282934 -0.2291349 0.6458219
vn 0.7362529 0.4353964 0.5180363
vn 0.761786 -0.625586 0.168298
vn 0.7502371 -0.3538371 0.5585191
vn 0.8524541 0.327416 0.4075791
vn 0.794128 0.574352 -0.198697
vn 0.7934631 0.214562 -0.5695431
vn 0.8132624 -0.4159012 -0.4069772
vn -0.2242124 0.6322659 -0.7415988
vn -0.1050943 -0.3900019 -0.9147971
vn -0.4219062 -0.6059967 0.6743613
vn -0.3643129 0.3323636 0.8699486
vn 0.1325065 0.3032865 -0.9436415
vn 0.1985445 -0.3066303 0.9308909
vn -0.2451833 0.5842052 0.7736858
vn -0.1151939 0.9759878 -0.1848731
vn -0.4023027 -0.532966 -0.7443789
vn -0.3540756 -0.9260831 0.1303859
vn 0.1124998 0.8574127 0.5021824
vn 0.2182894 -0.839775 -0.4971193
vn -0.2265792 -0.7894671 -0.5704417
vn -0.1241854 -0.876824 0.4644973
vn -0.420085 0.7291433 0.5402581
vn -0.3465982 0.8435054 -0.4103273
vn 0.1224963 -0.967732 -0.2202034
vn 0.2082462 0.950752 0.2295741
vn -0.2299595 -0.917125 -0.3255767
vn -0.1273284 -0.7103429 0.692243
vn -0.4168971 0.8532929 0.3131902
vn -0.3435287 0.6954405 -0.6311502
vn 0.1185977 -0.9910772 0.06083261
vn 0.2120641 0.9761297 -0.0469002
vn -0.2451802 0.5841985 0.7736916
vn -0.1151943 0.9759881 -0.1848711
vn -0.402306 -0.532968 -0.7443755
vn -0.3540562 -0.9260894 0.130394
vn 0.1124998 0.8574134 0.5021812
vn 0.2182915 -0.8397756 -0.4971176
vn -0.2374176 0.9476513 0.2135181
vn -0.1070802 0.6274676 -0.7712445
vn -0.4094621 -0.8838266 -0.2262546
vn -0.3619044 -0.6202803 0.6959006
vn 0.1217845 0.9780575 -0.1690328
vn 0.2091662 -0.964264 0.1626182
vt 0.0963 0.9599
vt 0.09550001 0.9590999
vt 0.0954 0.9582
vt 0.0963 0.9579
vt 0.0972 0.9586
vt 0.0971 0.9596
vt 0.0963 0.9596
vt 0.2738 0.7822
vt 0.2736 0.7816
vt 0.2743 0.7814
vt 0.2749 0.7818
vt 0.0968 0.9595
vt 0.0926 0.9627
vt 0.09170001 0.9618999
vt 0.09190001 0.9608001
vt 0.0926 0.9606
vt 0.0934 0.9613
vt 0.09350001 0.9623
vt 0.09260001 0.9623
vt 0.09210001 0.9618
vt 0.0922 0.9610001
vt 0.0927 0.9608001
vt 0.09330001 0.9614
vt 0.2714 0.7851
vt 0.0963 0.9599
vt 0.09550001 0.9590999
vt 0.0954 0.9582
vt 0.0963 0.9579
vt 0.0972 0.9586
vt 0.0971 0.9596
vt 0.0963 0.9596
vt 0.2738 0.7822
vt 0.2736 0.7816
vt 0.2743 0.7814
vt 0.2749 0.7818
vt 0.0968 0.9595
vt 0.0926 0.9627
vt 0.09170001 0.9618999
vt 0.09190001 0.9608001
vt 0.0926 0.9606
vt 0.0934 0.9613
vt 0.09350001 0.9623
vt 0.09260001 0.9623
vt 0.09210001 0.9618
vt 0.0922 0.9610001
vt 0.0927 0.9608001
vt 0.09330001 0.9614
vt 0.2714 0.7851
vt 0.0963 0.9599
vt 0.09550001 0.9590999
vt 0.0954 0.9582
vt 0.0963 0.9579
vt 0.0972 0.9586
vt 0.0971 0.9596
vt 0.0963 0.9596
vt 0.2738 0.7822
vt 0.2736 0.7816
vt 0.2743 0.7814
vt 0.2749 0.7818
vt 0.0968 0.9595
vt 0.0926 0.9627
vt 0.09170001 0.9618999
vt 0.09190001 0.9608001
vt 0.0926 0.9606
vt 0.0934 0.9613
vt 0.09350001 0.9623
vt 0.09260001 0.9623
vt 0.09210001 0.9618
vt 0.0922 0.9610001
vt 0.0927 0.9608001
vt 0.09330001 0.9614
vt 0.2714 0.7851
vt 0.0963 0.9599
vt 0.09550001 0.9590999
vt 0.0954 0.9582
vt 0.0963 0.9579
vt 0.0972 0.9586
vt 0.0971 0.9596
vt 0.0963 0.9596
vt 0.2738 0.7822
vt 0.2736 0.7816
vt 0.2743 0.7814
vt 0.2749 0.7818
vt 0.0968 0.9595
vt 0.0926 0.9627
vt 0.09170001 0.9618999
vt 0.09190001 0.9608001
vt 0.0926 0.9606
vt 0.0934 0.9613
vt 0.09350001 0.9623
vt 0.09260001 0.9623
vt 0.09210001 0.9618
vt 0.0922 0.9610001
vt 0.0927 0.9608001
vt 0.09330001 0.9614
vt 0.2714 0.7851
vt 0.0963 0.9599
vt 0.09550001 0.9590999
vt 0.0954 0.9582
vt 0.0963 0.9579
vt 0.0972 0.9586
vt 0.0971 0.9596
vt 0.0963 0.9596
vt 0.2738 0.7822
vt 0.2736 0.7816
vt 0.2743 0.7814
vt 0.2749 0.7818
vt 0.0968 0.9595
vt 0.0926 0.9627
vt 0.09170001 0.9618999
vt 0.09190001 0.9608001
vt 0.0926 0.9606
vt 0.0934 0.9613
vt 0.09350001 0.9623
vt 0.09260001 0.9623
vt 0.09210001 0.9618
vt 0.0922 0.9610001
vt 0.0927 0.9608001
vt 0.09330001 0.9614
vt 0.2714 0.7851
vt 0.0963 0.9599
vt 0.09550001 0.9590999
vt 0.0954 0.9582
vt 0.0963 0.9579
vt 0.0972 0.9586
vt 0.0971 0.9596
vt 0.0963 0.9596
vt 0.2738 0.7822
vt 0.2736 0.7816
vt 0.2743 0.7814
vt 0.2749 0.7818
vt 0.0968 0.9595
vt 0.0926 0.9627
vt 0.09170001 0.9618999
vt 0.09190001 0.9608001
vt 0.0926 0.9606
vt 0.0934 0.9613
vt 0.09350001 0.9623
vt 0.09260001 0.9623
vt 0.09210001 0.9618
vt 0.0922 0.9610001
vt 0.0927 0.9608001
vt 0.09330001 0.9614
vt 0.2714 0.7851
vt 0.2744 0.7827
vt 0.09570001 0.9591
vt 0.09550001 0.9585001
vt 0.0962 0.9583
vt 0.0968 0.9587001
vt 0.2749 0.7825
vt 0.2707 0.7854
vt 0.2702 0.7849
vt 0.2703 0.7841
vt 0.2708 0.7839
vt 0.2713 0.7845
vt 0.09330001 0.9620001
vt 0.2744 0.7827
vt 0.09570001 0.9591
vt 0.09550001 0.9585001
vt 0.0962 0.9583
vt 0.0968 0.9587001
vt 0.2749 0.7825
vt 0.2707 0.7854
vt 0.2702 0.7849
vt 0.2703 0.7841
vt 0.2708 0.7839
vt 0.2713 0.7845
vt 0.09330001 0.9620001
vt 0.2744 0.7827
vt 0.09570001 0.9591
vt 0.09550001 0.9585001
vt 0.0962 0.9583
vt 0.0968 0.9587001
vt 0.2749 0.7825
vt 0.2707 0.7854
vt 0.2702 0.7849
vt 0.2703 0.7841
vt 0.2708 0.7839
vt 0.2713 0.7845
vt 0.09330001 0.9620001
vt 0.2744 0.7827
vt 0.09570001 0.9591
vt 0.09550001 0.9585001
vt 0.0962 0.9583
vt 0.0968 0.9587001
vt 0.2749 0.7825
vt 0.2707 0.7854
vt 0.2702 0.7849
vt 0.2703 0.7841
vt 0.2708 0.7839
vt 0.2713 0.7845
vt 0.09330001 0.9620001
vt 0.2744 0.7827
vt 0.09570001 0.9591
vt 0.09550001 0.9585001
vt 0.0962 0.9583
vt 0.0968 0.9587001
vt 0.2749 0.7825
vt 0.2707 0.7854
vt 0.2702 0.7849
vt 0.2703 0.7841
vt 0.2708 0.7839
vt 0.2713 0.7845
vt 0.09330001 0.9620001
vt 0.2744 0.7827
vt 0.09570001 0.9591
vt 0.09550001 0.9585001
vt 0.0962 0.9583
vt 0.0968 0.9587001
vt 0.2749 0.7825
vt 0.2707 0.7854
vt 0.2702 0.7849
vt 0.2703 0.7841
vt 0.2708 0.7839
vt 0.2713 0.7845
vt 0.09330001 0.9620001
f 1/1/145 6/6/6 18/18/18
f 1/1/145 18/18/18 13/13/149
f 5/5/148 4/4/147 16/16/150
f 5/5/148 16/16/150 17/17/17
f 3/3/3 2/2/146 14/14/14
f 3/3/3 14/14/14 15/15/15
f 6/6/6 5/5/148 17/17/17
f 6/6/6 17/17/17 18/18/18
f 4/4/147 3/3/3 15/15/15
f 4/4/147 15/15/15 16/16/150
f 125/125/178 124/124/177 136/136/180
f 98/98/170 109/109/173 110/110/110
f 98/98/170 97/97/169 109/109/173
f 114/114/114 119/119/119 120/204/120
f 2/2/2 8/146/8 7/7/7
f 2/2/2 7/7/7 1/1/1
f 1/1/1 7/7/7 6/6/6
f 121/121/175 138/138/138 133/133/179
f 121/121/175 126/126/126 138/138/138
f 117/201/117 116/200/116 120/120/120
f 112/112/112 111/111/111 117/117/117
f 3/3/3 8/146/8 2/2/2
f 116/200/116 115/199/115 120/120/120
f 7/7/7 12/12/12 6/6/6
f 5/5/5 11/149/11 10/148/10
f 5/5/5 10/148/10 4/4/4
f 3/3/3 9/147/9 8/146/8
f 118/202/118 117/201/117 120/120/120
f 6/6/6 12/12/12 11/149/11
f 6/6/6 11/149/11 5/5/5
f 4/4/4 10/148/10 9/147/9
f 4/4/4 9/147/9 3/3/3
f 112/112/112 117/117/117 118/118/118
f 119/203/119 118/202/118 120/120/120
f 88/88/88 87/87/87 93/93/93
f 10/10/10 12/150/12 9/9/9
f 8/8/8 12/150/12 7/145/7
f 90/90/90 95/95/95 96/192/96
f 11/11/11 12/150/12 10/10/10
f 9/9/9 12/150/12 8/8/8
f 131/131/131 132/210/132 130/130/130
f 129/129/129 132/210/132 128/128/128
f 125/125/125 130/208/130 124/124/124
f 124/124/124 129/207/129 123/123/123
f 14/14/14 13/13/13 19/19/19
f 14/14/14 19/19/19 20/20/20
f 134/134/134 133/133/133 139/139/139
f 13/13/13 18/18/18 19/19/19
f 130/130/130 132/210/132 129/129/129
f 128/128/128 132/210/132 127/205/127
f 15/15/15 14/14/14 20/20/20
f 125/125/125 131/209/131 130/208/130
f 19/19/19 18/18/18 24/156/24
f 124/124/124 130/208/130 129/207/129
f 17/17/17 16/16/16 22/22/22
f 17/17/17 22/22/22 23/23/23
f 123/123/123 129/207/129 128/206/128
f 15/15/15 20/20/20 21/21/21
f 18/18/18 17/17/17 23/23/23
f 18/18/18 23/23/23 24/156/24
f 16/16/16 15/15/15 21/21/21
f 16/16/16 21/21/21 22/22/22
f 126/126/126 131/209/131 125/125/125
f 126/126/126 132/132/132 131/209/131
f 88/88/88 93/93/93 94/94/94
f 22/154/22 21/153/21 24/24/24
f 20/152/20 19/151/19 24/24/24
f 94/190/94 93/189/93 96/96/96
f 23/155/23 22/154/22 24/24/24
f 21/153/21 20/152/20 24/24/24
f 2/2/146 1/1/145 13/13/149
f 2/2/146 13/13/149 14/14/14
f 25/25/151 30/30/30 42/42/42
f 25/25/151 42/42/42 37/37/155
f 29/29/154 28/28/153 40/40/156
f 29/29/154 40/40/156 41/41/41
f 27/27/27 26/26/152 38/38/38
f 27/27/27 38/38/38 39/39/39
f 30/30/30 29/29/154 41/41/41
f 30/30/30 41/41/41 42/42/42
f 28/28/153 27/27/27 39/39/39
f 28/28/153 39/39/39 40/40/156
f 98/98/98 104/194/104 103/103/103
f 102/102/102 113/113/113 114/114/114
f 102/102/102 101/101/172 113/113/113
f 74/74/164 85/85/167 86/86/86
f 26/26/26 32/158/32 31/31/31
f 26/26/26 31/31/31 25/25/25
f 25/25/25 31/31/31 30/30/30
f 100/100/171 111/111/111 112/112/174
f 100/100/171 99/99/99 111/111/111
f 99/99/99 110/110/110 111/111/111
f 97/97/169 102/102/102 114/114/114
f 27/27/27 32/158/32 26/26/26
f 101/101/172 112/112/174 113/113/113
f 31/31/31 36/36/36 30/30/30
f 29/29/29 35/161/35 34/160/34
f 29/29/29 34/160/34 28/28/28
f 27/27/27 33/159/33 32/158/32
f 101/101/172 100/100/171 112/112/174
f 30/30/30 36/36/36 35/161/35
f 30/30/30 35/161/35 29/29/29
f 28/28/28 34/160/34 33/159/33
f 28/28/28 33/159/33 27/27/27
f 97/97/169 114/114/114 109/109/173
f 99/99/99 98/98/170 110/110/110
f 91/91/91 90/90/90 96/192/96
f 34/34/34 36/162/36 33/33/33
f 32/32/32 36/162/36 31/157/31
f 87/87/87 86/86/86 92/92/92
f 35/35/35 36/162/36 34/34/34
f 33/33/33 36/162/36 32/32/32
f 113/113/113 118/118/118 119/119/119
f 111/111/111 116/116/116 117/117/117
f 107/107/107 108/198/108 106/106/106
f 111/111/111 110/110/110 116/116/116
f 38/38/38 37/37/37 43/43/43
f 38/38/38 43/43/43 44/44/44
f 114/114/114 113/113/113 119/119/119
f 37/37/37 42/42/42 43/43/43
f 115/115/115 114/114/114 120/204/120
f 113/113/113 112/112/112 118/118/118
f 39/39/39 38/38/38 44/44/44
f 104/104/104 108/198/108 103/193/103
f 43/43/43 42/42/42 48/168/48
f 109/109/109 114/114/114 115/115/115
f 41/41/41 40/40/40 46/46/46
f 41/41/41 46/46/46 47/47/47
f 105/105/105 108/198/108 104/104/104
f 39/39/39 44/44/44 45/45/45
f 42/42/42 41/41/41 47/47/47
f 42/42/42 47/47/47 48/168/48
f 40/40/40 39/39/39 45/45/45
f 40/40/40 45/45/45 46/46/46
f 110/110/110 115/115/115 116/116/116
f 110/110/110 109/109/109 115/115/115
f 89/89/89 88/88/88 94/94/94
f 46/166/46 45/165/45 48/48/48
f 44/164/44 43/163/43 48/48/48
f 89/89/89 94/94/94 95/95/95
f 47/167/47 46/166/46 48/48/48
f 45/165/45 44/164/44 48/48/48
f 26/26/152 25/25/151 37/37/155
f 26/26/152 37/37/155 38/38/38
f 49/49/157 54/54/54 66/66/66
f 49/49/157 66/66/66 61/61/161
f 53/53/160 52/52/159 64/64/162
f 53/53/160 64/64/162 65/65/65
f 51/51/51 50/50/158 62/62/62
f 51/51/51 62/62/62 63/63/63
f 54/54/54 53/53/160 65/65/65
f 54/54/54 65/65/65 66/66/66
f 52/52/159 51/51/51 63/63/63
f 52/52/159 63/63/63 64/64/162
f 127/127/127 132/132/132 126/126/126
f 122/122/122 127/127/127 121/121/121
f 122/122/122 128/206/128 127/127/127
f 125/125/178 136/136/180 137/137/137
f 50/50/50 56/170/56 55/55/55
f 50/50/50 55/55/55 49/49/49
f 49/49/49 55/55/55 54/54/54
f 123/123/123 128/206/128 122/122/122
f 121/121/121 127/127/127 126/126/126
f 124/124/177 135/135/135 136/136/180
f 123/123/123 122/122/176 134/134/134
f 51/51/51 56/170/56 50/50/50
f 126/126/126 137/137/137 138/138/138
f 55/55/55 60/60/60 54/54/54
f 53/53/53 59/173/59 58/172/58
f 53/53/53 58/172/58 52/52/52
f 51/51/51 57/171/57 56/170/56
f 126/126/126 125/125/178 137/137/137
f 54/54/54 60/60/60 59/173/59
f 54/54/54 59/173/59 53/53/53
f 52/52/52 58/172/58 57/171/57
f 52/52/52 57/171/57 51/51/51
f 123/123/123 134/134/134 135/135/135
f 124/124/177 123/123/123 135/135/135
f 95/191/95 94/190/94 96/96/96
f 58/58/58 60/174/60 57/57/57
f 56/56/56 60/174/60 55/169/55
f 92/188/92 91/187/91 96/96/96
f 59/59/59 60/174/60 58/58/58
f 57/57/57 60/174/60 56/56/56
f 100/100/100 106/196/106 105/195/105
f 100/100/100 105/195/105 99/99/99
f 97/97/97 103/103/103 102/102/102
f 99/99/99 105/195/105 104/194/104
f 62/62/62 61/61/61 67/67/67
f 62/62/62 67/67/67 68/68/68
f 106/106/106 108/198/108 105/105/105
f 61/61/61 66/66/66 67/67/67
f 102/102/102 108/108/108 107/197/107
f 102/102/102 107/197/107 101/101/101
f 63/63/63 62/62/62 68/68/68
f 98/98/98 103/103/103 97/97/97
f 67/67/67 66/66/66 72/180/72
f 101/101/101 106/196/106 100/100/100
f 65/65/65 64/64/64 70/70/70
f 65/65/65 70/70/70 71/71/71
f 99/99/99 104/194/104 98/98/98
f 63/63/63 68/68/68 69/69/69
f 66/66/66 65/65/65 71/71/71
f 66/66/66 71/71/71 72/180/72
f 64/64/64 63/63/63 69/69/69
f 64/64/64 69/69/69 70/70/70
f 101/101/101 107/197/107 106/196/106
f 103/103/103 108/108/108 102/102/102
f 87/87/87 92/92/92 93/93/93
f 70/178/70 69/177/69 72/72/72
f 68/176/68 67/175/67 72/72/72
f 90/90/90 89/89/89 95/95/95
f 71/179/71 70/178/70 72/72/72
f 69/177/69 68/176/68 72/72/72
f 50/50/158 49/49/157 61/61/161
f 50/50/158 61/61/161 62/62/62
f 73/73/163 78/78/78 90/90/90
f 73/73/163 90/90/90 85/85/167
f 77/77/166 76/76/165 88/88/168
f 77/77/166 88/88/168 89/89/89
f 75/75/75 74/74/164 86/86/86
f 75/75/75 86/86/86 87/87/87
f 78/78/78 77/77/166 89/89/89
f 78/78/78 89/89/89 90/90/90
f 76/76/165 75/75/75 87/87/87
f 76/76/165 87/87/87 88/88/168
f 122/122/176 133/133/179 134/134/134
f 143/215/143 142/214/142 144/144/144
f 140/212/140 139/211/139 144/144/144
f 137/137/137 142/142/142 143/143/143
f 74/74/74 80/182/80 79/79/79
f 74/74/74 79/79/79 73/73/73
f 73/73/73 79/79/79 78/78/78
f 122/122/176 121/121/175 133/133/179
f 141/213/141 140/212/140 144/144/144
f 142/214/142 141/213/141 144/144/144
f 135/135/135 140/140/140 141/141/141
f 75/75/75 80/182/80 74/74/74
f 136/136/136 135/135/135 141/141/141
f 79/79/79 84/84/84 78/78/78
f 77/77/77 83/185/83 82/184/82
f 77/77/77 82/184/82 76/76/76
f 75/75/75 81/183/81 80/182/80
f 138/138/138 143/143/143 144/216/144
f 78/78/78 84/84/84 83/185/83
f 78/78/78 83/185/83 77/77/77
f 76/76/76 82/184/82 81/183/81
f 76/76/76 81/183/81 75/75/75
f 138/138/138 137/137/137 143/143/143
f 136/136/136 141/141/141 142/142/142
f 74/74/164 73/73/163 85/85/167
f 82/82/82 84/186/84 81/81/81
f 80/80/80 84/186/84 79/181/79
f 93/189/93 92/188/92 96/96/96
f 83/83/83 84/186/84 82/82/82
f 81/81/81 84/186/84 80/80/80
f 135/135/135 134/134/134 140/140/140
f 139/139/139 138/138/138 144/216/144
f 134/134/134 139/139/139 140/140/140
f 133/133/133 138/138/138 139/139/139
f 86/86/86 85/85/85 91/91/91
f 86/86/86 91/91/91 92/92/92
f 137/137/137 136/136/136 142/142/142
f 85/85/85 90/90/90 91/91/91
