# Blender 3.4.1
# www.blender.org
mtllib tris.mtl
o Flags_01
v -0.037346 -0.002526 0.000037
v -0.038208 0.000690 0.000037
v -0.037346 -0.002526 -0.000037
v -0.038208 0.000690 -0.000037
v -0.036074 0.000550 0.000037
v -0.036074 0.000550 -0.000037
v -0.032635 -0.002796 0.000037
v -0.033507 0.000417 0.000037
v -0.032635 -0.002796 -0.000037
v -0.033507 0.000417 -0.000037
v -0.031373 0.000284 0.000037
v -0.031373 0.000284 -0.000037
v -0.027937 -0.003114 0.000037
v -0.028800 0.000101 0.000037
v -0.027937 -0.003114 -0.000037
v -0.028800 0.000101 -0.000037
v -0.026666 -0.000037 0.000037
v -0.026666 -0.000037 -0.000037
v -0.023231 -0.003410 0.000037
v -0.024097 -0.000196 0.000037
v -0.023231 -0.003410 -0.000037
v -0.024097 -0.000196 -0.000037
v -0.021963 -0.000332 0.000037
v -0.021963 -0.000332 -0.000037
v -0.018516 -0.003699 0.000037
v -0.019398 -0.000489 0.000037
v -0.018516 -0.003699 -0.000037
v -0.019398 -0.000489 -0.000037
v -0.017264 -0.000614 0.000037
v -0.017264 -0.000614 -0.000037
v -0.013739 -0.003796 0.000037
v -0.014732 -0.000618 0.000037
v -0.013739 -0.003796 -0.000037
v -0.014732 -0.000618 -0.000037
v -0.012594 -0.000670 0.000037
v -0.012594 -0.000670 -0.000037
v -0.009052 -0.003864 0.000037
v -0.010019 -0.000679 0.000037
v -0.009052 -0.003864 -0.000037
v -0.010019 -0.000679 -0.000037
v -0.007881 -0.000748 0.000037
v -0.007881 -0.000748 -0.000037
v -0.004320 -0.003992 0.000037
v -0.005329 -0.000820 0.000037
v -0.004320 -0.003992 -0.000037
v -0.005329 -0.000820 -0.000037
v -0.003191 -0.000861 0.000037
v -0.003191 -0.000861 -0.000037
v 0.037346 -0.002526 0.000037
v 0.038208 0.000690 0.000037
v 0.037346 -0.002526 -0.000037
v 0.038208 0.000690 -0.000037
v 0.036074 0.000550 0.000037
v 0.036074 0.000550 -0.000037
v 0.032635 -0.002796 0.000037
v 0.033507 0.000417 0.000037
v 0.032635 -0.002796 -0.000037
v 0.033507 0.000417 -0.000037
v 0.031373 0.000284 0.000037
v 0.031373 0.000284 -0.000037
v 0.027937 -0.003114 0.000037
v 0.028800 0.000101 0.000037
v 0.027937 -0.003114 -0.000037
v 0.028800 0.000101 -0.000037
v 0.026666 -0.000037 0.000037
v 0.026666 -0.000037 -0.000037
v 0.023231 -0.003410 0.000037
v 0.024097 -0.000196 0.000037
v 0.023231 -0.003410 -0.000037
v 0.024097 -0.000196 -0.000037
v 0.021963 -0.000332 0.000037
v 0.021963 -0.000332 -0.000037
v 0.018516 -0.003699 0.000037
v 0.019398 -0.000489 0.000037
v 0.018516 -0.003699 -0.000037
v 0.019398 -0.000489 -0.000037
v 0.017264 -0.000614 0.000037
v 0.017264 -0.000614 -0.000037
v 0.013739 -0.003796 0.000037
v 0.014732 -0.000618 0.000037
v 0.013739 -0.003796 -0.000037
v 0.014732 -0.000618 -0.000037
v 0.012594 -0.000670 0.000037
v 0.012594 -0.000670 -0.000037
v 0.009052 -0.003864 0.000037
v 0.010019 -0.000679 0.000037
v 0.009052 -0.003864 -0.000037
v 0.010019 -0.000679 -0.000037
v 0.007881 -0.000748 0.000037
v 0.007881 -0.000748 -0.000037
v 0.004320 -0.003992 0.000037
v 0.005329 -0.000820 0.000037
v 0.004320 -0.003992 -0.000037
v 0.005329 -0.000820 -0.000037
v 0.003191 -0.000861 0.000037
v 0.003191 -0.000861 -0.000037
v -0.039900 0.000777 0.000075
v -0.039900 0.000927 0.000075
v -0.039900 0.000777 -0.000075
v -0.039900 0.000927 -0.000075
v 0.039900 0.000777 0.000075
v 0.039900 0.000927 0.000075
v 0.039900 0.000777 -0.000075
v 0.039900 0.000927 -0.000075
v -0.017189 -0.000639 -0.000075
v 0.017189 -0.000639 -0.000075
v 0.017189 -0.000489 -0.000075
v -0.017189 -0.000489 -0.000075
v 0.017189 -0.000639 0.000075
v -0.017189 -0.000639 0.000075
v -0.017189 -0.000489 0.000075
v 0.017189 -0.000489 0.000075
v -0.000000 -0.000829 -0.000075
v -0.000000 -0.000829 0.000075
v -0.000000 -0.000979 -0.000075
v -0.000000 -0.000979 0.000075
v -0.000001 -0.004087 0.000037
v -0.001044 -0.000926 0.000037
v -0.000001 -0.004087 -0.000037
v -0.001044 -0.000926 -0.000037
v 0.001094 -0.000944 0.000037
v 0.001094 -0.000944 -0.000037
vn -0.9660 -0.2587 -0.0000
vn -0.0000 -0.0000 -1.0000
vn 0.9240 -0.3823 -0.0000
vn -0.0000 -0.0000 1.0000
vn 0.0653 0.9979 -0.0000
vn -0.9651 -0.2619 -0.0000
vn 0.9253 -0.3792 -0.0000
vn 0.0620 0.9981 -0.0000
vn -0.9658 -0.2592 -0.0000
vn 0.9242 -0.3818 -0.0000
vn 0.0648 0.9979 -0.0000
vn -0.9656 -0.2600 -0.0000
vn 0.9246 -0.3810 -0.0000
vn 0.0639 0.9980 -0.0000
vn -0.9642 -0.2652 -0.0000
vn 0.9266 -0.3761 -0.0000
vn 0.0586 0.9983 -0.0000
vn -0.9545 -0.2981 -0.0000
vn 0.9390 -0.3440 -0.0000
vn 0.0242 0.9997 -0.0000
vn -0.9569 -0.2903 -0.0000
vn 0.9361 -0.3517 -0.0000
vn 0.0324 0.9995 -0.0000
vn -0.9530 -0.3030 -0.0000
vn 0.9407 -0.3392 -0.0000
vn 0.0191 0.9998 -0.0000
vn 0.9660 -0.2587 -0.0000
vn -0.9240 -0.3823 -0.0000
vn -0.0653 0.9979 -0.0000
vn 0.9651 -0.2619 -0.0000
vn -0.9253 -0.3792 -0.0000
vn -0.0620 0.9981 -0.0000
vn 0.9658 -0.2592 -0.0000
vn -0.9242 -0.3818 -0.0000
vn -0.0648 0.9979 -0.0000
vn 0.9656 -0.2600 -0.0000
vn -0.9246 -0.3810 -0.0000
vn -0.0639 0.9980 -0.0000
vn 0.9642 -0.2652 -0.0000
vn -0.9266 -0.3761 -0.0000
vn -0.0586 0.9983 -0.0000
vn 0.9545 -0.2981 -0.0000
vn -0.9390 -0.3440 -0.0000
vn -0.0242 0.9997 -0.0000
vn 0.9569 -0.2903 -0.0000
vn -0.9361 -0.3517 -0.0000
vn -0.0324 0.9995 -0.0000
vn 0.9530 -0.3030 -0.0000
vn -0.9407 -0.3392 -0.0000
vn -0.0191 0.9998 -0.0000
vn -1.0000 -0.0000 -0.0000
vn -0.0623 0.9981 -0.0000
vn 1.0000 -0.0000 -0.0000
vn -0.0623 -0.9981 -0.0000
vn 0.0623 0.9981 -0.0000
vn 0.0623 -0.9981 -0.0000
vn -0.0198 0.9998 -0.0000
vn -0.0198 -0.9998 -0.0000
vn 0.0198 -0.9998 -0.0000
vn 0.0198 0.9998 -0.0000
vn -0.9496 -0.3133 -0.0000
vn 0.9443 -0.3290 -0.0000
vn 0.0083 1.0000 -0.0000
vt 0.862092 0.630797
vt 0.853382 0.663322
vt 0.862092 0.630797
vt 0.853382 0.663322
vt 0.874964 0.661910
vt 0.874964 0.661910
vt 0.720620 0.489117
vt 0.711803 0.521613
vt 0.720620 0.489117
vt 0.711803 0.521613
vt 0.733390 0.520273
vt 0.733390 0.520273
vt 0.865031 0.631126
vt 0.856304 0.663646
vt 0.865031 0.631126
vt 0.856304 0.663646
vt 0.877887 0.662246
vt 0.877887 0.662246
vt 0.719709 0.489338
vt 0.710836 0.521820
vt 0.719709 0.489338
vt 0.710836 0.521820
vt 0.732426 0.520516
vt 0.732426 0.520516
vt 0.864081 0.631716
vt 0.854177 0.663898
vt 0.864081 0.631716
vt 0.854177 0.663898
vt 0.875797 0.663283
vt 0.875797 0.663283
vt 0.720303 0.488145
vt 0.710264 0.520285
vt 0.720303 0.488145
vt 0.710264 0.520285
vt 0.731886 0.519761
vt 0.731886 0.519761
vt 0.863823 0.630845
vt 0.854048 0.663067
vt 0.863823 0.630845
vt 0.854048 0.663067
vt 0.875665 0.662366
vt 0.875665 0.662366
vt 0.720239 0.488487
vt 0.710036 0.520575
vt 0.720239 0.488487
vt 0.710036 0.520575
vt 0.731661 0.520161
vt 0.731661 0.520161
vt 0.862092 0.630797
vt 0.853382 0.663322
vt 0.862092 0.630797
vt 0.853382 0.663322
vt 0.874964 0.661910
vt 0.874964 0.661910
vt 0.720620 0.489117
vt 0.711803 0.521613
vt 0.720620 0.489117
vt 0.711803 0.521613
vt 0.733390 0.520273
vt 0.733390 0.520273
vt 0.865031 0.631126
vt 0.856304 0.663646
vt 0.865031 0.631126
vt 0.856304 0.663646
vt 0.877887 0.662246
vt 0.877887 0.662246
vt 0.719709 0.489338
vt 0.710836 0.521820
vt 0.719709 0.489338
vt 0.710836 0.521820
vt 0.732426 0.520516
vt 0.732426 0.520516
vt 0.864081 0.631716
vt 0.854177 0.663898
vt 0.864081 0.631716
vt 0.854177 0.663898
vt 0.875797 0.663283
vt 0.875797 0.663283
vt 0.720303 0.488145
vt 0.710264 0.520285
vt 0.720303 0.488145
vt 0.710264 0.520285
vt 0.731886 0.519761
vt 0.731886 0.519761
vt 0.863823 0.630845
vt 0.854048 0.663067
vt 0.863823 0.630845
vt 0.854048 0.663067
vt 0.875665 0.662366
vt 0.875665 0.662366
vt 0.720239 0.488487
vt 0.710036 0.520575
vt 0.720239 0.488487
vt 0.710036 0.520575
vt 0.731661 0.520161
vt 0.731661 0.520161
vt 0.831994 0.022289
vt 0.831994 0.022329
vt 0.831994 0.022289
vt 0.831994 0.022329
vt 0.852818 0.022289
vt 0.852818 0.022329
vt 0.852818 0.022289
vt 0.852818 0.022329
vt 0.837920 0.021920
vt 0.846892 0.021920
vt 0.846892 0.021959
vt 0.837920 0.021959
vt 0.846892 0.021920
vt 0.837920 0.021920
vt 0.837920 0.021959
vt 0.846892 0.021959
vt 0.842406 0.021870
vt 0.842406 0.021870
vt 0.842406 0.021831
vt 0.842406 0.021831
vt 0.863823 0.630845
vt 0.854048 0.663067
vt 0.863823 0.630845
vt 0.854048 0.663067
vt 0.875665 0.662366
vt 0.875665 0.662366
s 1
usemtl City_05.060
f 1/1/1 2/2/1 3/3/1
f 3/3/1 2/2/1 4/4/1
f 3/3/2 4/4/2 6/6/2
f 3/3/3 6/6/3 1/1/3
f 1/1/3 6/6/3 5/5/3
f 1/1/4 5/5/4 2/2/4
f 6/6/5 4/4/5 5/5/5
f 5/5/5 4/4/5 2/2/5
f 7/7/6 8/8/6 9/9/6
f 9/9/6 8/8/6 10/10/6
f 9/9/2 10/10/2 12/12/2
f 9/9/7 12/12/7 7/7/7
f 7/7/7 12/12/7 11/11/7
f 7/7/4 11/11/4 8/8/4
f 12/12/8 10/10/8 11/11/8
f 11/11/8 10/10/8 8/8/8
f 13/13/9 14/14/9 15/15/9
f 15/15/9 14/14/9 16/16/9
f 15/15/2 16/16/2 18/18/2
f 15/15/10 18/18/10 13/13/10
f 13/13/10 18/18/10 17/17/10
f 13/13/4 17/17/4 14/14/4
f 18/18/11 16/16/11 17/17/11
f 17/17/11 16/16/11 14/14/11
f 19/19/12 20/20/12 21/21/12
f 21/21/12 20/20/12 22/22/12
f 21/21/2 22/22/2 24/24/2
f 21/21/13 24/24/13 19/19/13
f 19/19/13 24/24/13 23/23/13
f 19/19/4 23/23/4 20/20/4
f 24/24/14 22/22/14 23/23/14
f 23/23/14 22/22/14 20/20/14
f 25/25/15 26/26/15 27/27/15
f 27/27/15 26/26/15 28/28/15
f 27/27/2 28/28/2 30/30/2
f 27/27/16 30/30/16 25/25/16
f 25/25/16 30/30/16 29/29/16
f 25/25/4 29/29/4 26/26/4
f 30/30/17 28/28/17 29/29/17
f 29/29/17 28/28/17 26/26/17
f 31/31/18 32/32/18 33/33/18
f 33/33/18 32/32/18 34/34/18
f 33/33/2 34/34/2 36/36/2
f 33/33/19 36/36/19 31/31/19
f 31/31/19 36/36/19 35/35/19
f 31/31/4 35/35/4 32/32/4
f 36/36/20 34/34/20 35/35/20
f 35/35/20 34/34/20 32/32/20
f 37/37/21 38/38/21 39/39/21
f 39/39/21 38/38/21 40/40/21
f 39/39/2 40/40/2 42/42/2
f 39/39/22 42/42/22 37/37/22
f 37/37/22 42/42/22 41/41/22
f 37/37/4 41/41/4 38/38/4
f 42/42/23 40/40/23 41/41/23
f 41/41/23 40/40/23 38/38/23
f 43/43/24 44/44/24 45/45/24
f 45/45/24 44/44/24 46/46/24
f 45/45/2 46/46/2 48/48/2
f 45/45/25 48/48/25 43/43/25
f 43/43/25 48/48/25 47/47/25
f 43/43/4 47/47/4 44/44/4
f 48/48/26 46/46/26 47/47/26
f 47/47/26 46/46/26 44/44/26
f 49/49/27 51/51/27 50/50/27
f 50/50/27 51/51/27 52/52/27
f 51/51/2 54/54/2 52/52/2
f 51/51/28 49/49/28 54/54/28
f 54/54/28 49/49/28 53/53/28
f 49/49/4 50/50/4 53/53/4
f 54/54/29 53/53/29 52/52/29
f 52/52/29 53/53/29 50/50/29
f 55/55/30 57/57/30 56/56/30
f 56/56/30 57/57/30 58/58/30
f 57/57/2 60/60/2 58/58/2
f 57/57/31 55/55/31 60/60/31
f 60/60/31 55/55/31 59/59/31
f 55/55/4 56/56/4 59/59/4
f 60/60/32 59/59/32 58/58/32
f 58/58/32 59/59/32 56/56/32
f 61/61/33 63/63/33 62/62/33
f 62/62/33 63/63/33 64/64/33
f 63/63/2 66/66/2 64/64/2
f 63/63/34 61/61/34 66/66/34
f 66/66/34 61/61/34 65/65/34
f 61/61/4 62/62/4 65/65/4
f 66/66/35 65/65/35 64/64/35
f 64/64/35 65/65/35 62/62/35
f 67/67/36 69/69/36 68/68/36
f 68/68/36 69/69/36 70/70/36
f 69/69/2 72/72/2 70/70/2
f 69/69/37 67/67/37 72/72/37
f 72/72/37 67/67/37 71/71/37
f 67/67/4 68/68/4 71/71/4
f 72/72/38 71/71/38 70/70/38
f 70/70/38 71/71/38 68/68/38
f 73/73/39 75/75/39 74/74/39
f 74/74/39 75/75/39 76/76/39
f 75/75/2 78/78/2 76/76/2
f 75/75/40 73/73/40 78/78/40
f 78/78/40 73/73/40 77/77/40
f 73/73/4 74/74/4 77/77/4
f 78/78/41 77/77/41 76/76/41
f 76/76/41 77/77/41 74/74/41
f 79/79/42 81/81/42 80/80/42
f 80/80/42 81/81/42 82/82/42
f 81/81/2 84/84/2 82/82/2
f 81/81/43 79/79/43 84/84/43
f 84/84/43 79/79/43 83/83/43
f 79/79/4 80/80/4 83/83/4
f 84/84/44 83/83/44 82/82/44
f 82/82/44 83/83/44 80/80/44
f 85/85/45 87/87/45 86/86/45
f 86/86/45 87/87/45 88/88/45
f 87/87/2 90/90/2 88/88/2
f 87/87/46 85/85/46 90/90/46
f 90/90/46 85/85/46 89/89/46
f 85/85/4 86/86/4 89/89/4
f 90/90/47 89/89/47 88/88/47
f 88/88/47 89/89/47 86/86/47
f 91/91/48 93/93/48 92/92/48
f 92/92/48 93/93/48 94/94/48
f 93/93/2 96/96/2 94/94/2
f 93/93/49 91/91/49 96/96/49
f 96/96/49 91/91/49 95/95/49
f 91/91/4 92/92/4 95/95/4
f 96/96/50 95/95/50 94/94/50
f 94/94/50 95/95/50 92/92/50
f 97/97/51 98/98/51 99/99/51
f 99/99/51 98/98/51 100/100/51
f 104/104/52 107/107/52 102/102/52
f 102/102/52 107/107/52 112/112/52
f 103/103/53 104/104/53 101/101/53
f 101/101/53 104/104/53 102/102/53
f 99/99/54 105/105/54 97/97/54
f 97/97/54 105/105/54 110/110/54
f 102/102/4 112/112/4 101/101/4
f 101/101/4 112/112/4 109/109/4
f 108/108/55 100/100/55 111/111/55
f 111/111/55 100/100/55 98/98/55
f 106/106/2 107/107/2 103/103/2
f 103/103/2 107/107/2 104/104/2
f 110/110/4 111/111/4 97/97/4
f 97/97/4 111/111/4 98/98/4
f 106/106/56 103/103/56 109/109/56
f 109/109/56 103/103/56 101/101/56
f 113/113/57 114/114/57 107/107/57
f 107/107/57 114/114/57 112/112/57
f 115/115/58 116/116/58 105/105/58
f 105/105/58 116/116/58 110/110/58
f 114/114/4 116/116/4 112/112/4
f 112/112/4 116/116/4 109/109/4
f 113/113/2 115/115/2 108/108/2
f 108/108/2 115/115/2 105/105/2
f 100/100/2 108/108/2 99/99/2
f 99/99/2 108/108/2 105/105/2
f 107/107/2 106/106/2 113/113/2
f 113/113/2 106/106/2 115/115/2
f 111/111/4 110/110/4 114/114/4
f 114/114/4 110/110/4 116/116/4
f 106/106/59 109/109/59 115/115/59
f 115/115/59 109/109/59 116/116/59
f 108/108/60 111/111/60 113/113/60
f 113/113/60 111/111/60 114/114/60
f 117/117/61 118/118/61 119/119/61
f 119/119/61 118/118/61 120/120/61
f 119/119/2 120/120/2 122/122/2
f 119/119/62 122/122/62 117/117/62
f 117/117/62 122/122/62 121/121/62
f 117/117/4 121/121/4 118/118/4
f 122/122/63 120/120/63 121/121/63
f 121/121/63 120/120/63 118/118/63
