# Blender 3.4.1
# www.blender.org
mtllib tris.mtl
o stone_fence001.001
v -0.077309 0.821400 -1.888615
v -0.072954 0.818269 -1.452028
v -0.064440 1.039691 -1.450525
v -0.068795 1.042822 -1.887113
v -0.211614 1.045347 -1.450176
v -0.220126 0.823925 -1.451679
v -0.224481 0.827055 -1.888266
v -0.215969 1.048478 -1.886764
v -0.143695 0.523390 -1.392967
v -0.139339 0.520259 -0.956379
v -0.130825 0.741681 -0.954876
v -0.135181 0.744812 -1.391464
v -0.150826 -0.119476 -1.814819
v -0.124431 1.599611 -1.779409
v 0.148052 -0.130965 -1.814557
v 0.249172 1.572896 -1.788936
v -0.160827 1.530924 1.781616
v -0.100267 1.528108 1.853696
v 0.133596 -0.155229 1.842769
v 0.213461 1.550383 1.856603
v -0.213010 -0.117585 -1.740164
v 0.208631 -0.133788 -1.741055
v 0.193478 -0.157044 1.770800
v -0.225287 -0.140934 1.769849
v -0.164748 -0.143751 1.841969
v -0.230866 -0.130915 0.325788
v 0.217066 -0.150520 0.676809
v 0.273737 1.548694 -0.619361
v 0.210552 -0.140172 -0.809970
v -0.152309 1.573212 -1.090012
v 0.201611 0.781540 -1.833105
v 0.271753 1.548026 1.783454
v -0.135630 0.818979 -1.833997
v 0.262217 0.778720 -1.760857
v -0.175606 1.556984 0.691855
v 0.296607 1.541617 0.730081
v 0.267019 0.846774 -0.765876
v -0.191203 0.751410 -1.773088
v 0.318832 1.538323 -1.869878
v 0.339451 1.506475 0.696231
v 0.326085 1.505730 -0.884784
v -0.176839 1.569374 -1.871551
v 0.304855 1.513339 1.890484
v -0.192612 1.497685 1.888493
v -0.220413 1.506046 0.723429
v -0.186081 1.529366 -1.010143
v -0.174624 1.675756 -1.866235
v 0.321047 1.644704 -1.864562
v 0.341666 1.612857 0.701547
v 0.307069 1.619721 1.895800
v -0.205489 1.606481 1.892495
v 0.321913 1.614249 -0.748105
v -0.184918 1.632241 -0.805573
v -0.155385 0.287633 -1.110297
v -0.151029 0.284502 -0.673710
v -0.142515 0.505925 -0.672207
v -0.146871 0.509055 -1.108795
v -0.147776 0.528764 -0.928902
v -0.143420 0.525634 -0.492315
v -0.134906 0.747056 -0.490812
v -0.139262 0.750187 -0.927399
v -0.135297 0.756918 -1.328675
v -0.130941 0.753788 -0.892088
v -0.122427 0.975210 -0.890585
v -0.126783 0.978340 -1.327173
v -0.130013 1.110398 -0.427483
v -0.125658 1.107267 0.009104
v -0.117144 1.328689 0.010607
v -0.121499 1.331820 -0.425981
v -0.141146 0.879087 -0.186588
v -0.136790 0.875956 0.250000
v -0.128276 1.097378 0.251502
v -0.132632 1.100509 -0.185085
v -0.157468 0.408282 -0.382083
v -0.153112 0.405151 0.054504
v -0.144598 0.626574 0.056007
v -0.148954 0.629704 -0.380581
v -0.180370 0.022533 0.489009
v -0.176015 0.019402 0.925597
v -0.167501 0.240825 0.927100
v -0.171856 0.243955 0.490512
v -0.163371 0.583306 0.986106
v -0.159015 0.580176 1.422694
v -0.150501 0.801598 1.424196
v -0.154857 0.804728 0.987609
v -0.156006 0.812067 1.142335
v -0.151650 0.808936 1.578922
v -0.143136 1.030358 1.580425
v -0.147492 1.033489 1.143837
v -0.173787 0.356548 1.168506
v -0.169432 0.353418 1.605094
v -0.160918 0.574840 1.606596
v -0.165274 0.577971 1.170009
v -0.140491 1.087030 0.609105
v -0.136136 1.083899 1.045693
v -0.127622 1.305322 1.047196
v -0.131977 1.308452 0.610608
v -0.162222 0.000856 -1.565403
v -0.157866 -0.002275 -1.128816
v -0.149352 0.219148 -1.127313
v -0.153708 0.222278 -1.563900
v -0.113773 1.256977 -1.574215
v -0.109418 1.253847 -1.137628
v -0.100904 1.475269 -1.136125
v -0.105259 1.478400 -1.572712
v 0.200149 0.969011 -0.867908
v 0.195793 0.972142 -1.304496
v 0.204304 1.193564 -1.302993
v 0.208659 1.190434 -0.866406
v 0.189702 0.732859 -0.721423
v 0.185347 0.735990 -1.158011
v 0.193857 0.957412 -1.156508
v 0.198213 0.954282 -0.719921
v 0.195883 0.966709 -0.415835
v 0.191528 0.969840 -0.852423
v 0.200038 1.191262 -0.850920
v 0.204393 1.188132 -0.414332
v 0.195855 0.500694 0.785242
v 0.191500 0.503824 0.348654
v 0.200010 0.725247 0.350157
v 0.204365 0.722116 0.786745
v 0.169326 0.263166 0.524590
v 0.164977 0.266435 0.088003
v 0.177114 0.487688 0.089539
v 0.181463 0.484419 0.526126
v 0.195359 1.122417 1.499631
v 0.191003 1.125547 1.063044
v 0.199513 1.346970 1.064547
v 0.203869 1.343839 1.501134
v 0.184453 0.880681 1.672566
v 0.180097 0.883811 1.235978
v 0.188607 1.105233 1.237481
v 0.192963 1.102103 1.674068
v 0.182608 0.635520 1.411150
v 0.188089 0.638272 0.974572
v 0.196599 0.859694 0.976075
v 0.191118 0.856942 1.412653
v 0.150601 0.082106 1.468027
v 0.150716 0.085065 1.031417
v 0.159226 0.306487 1.032919
v 0.159111 0.303529 1.469530
v 0.206610 1.012711 0.734449
v 0.202254 1.015842 0.297862
v 0.210765 1.237264 0.299364
v 0.215120 1.234133 0.735952
v 0.173780 0.471323 -0.088107
v 0.169424 0.474453 -0.524695
v 0.177935 0.695876 -0.523192
v 0.182290 0.692745 -0.086604
v 0.169886 0.087862 -1.264575
v 0.165530 0.090992 -1.701163
v 0.174040 0.312415 -1.699660
v 0.178396 0.309284 -1.263072
v 0.160112 -0.053507 -0.795988
v 0.155757 -0.050377 -1.232576
v 0.164267 0.171046 -1.231073
v 0.168622 0.167915 -0.794486
v -0.137485 0.055106 1.430548
v -0.133129 0.051976 1.867135
v -0.124615 0.273398 1.868638
v -0.128971 0.276528 1.432051
v -0.271789 0.279054 1.868987
v -0.280301 0.057631 1.867485
v -0.284657 0.060762 1.430897
v -0.276145 0.282184 1.432400
v 0.269424 0.340800 1.460353
v 0.269905 0.337818 1.896963
v 0.278419 0.559240 1.898466
v 0.277938 0.562222 1.461856
v 0.131249 0.564905 1.897508
v 0.122737 0.343482 1.896005
v 0.122255 0.346464 1.459395
v 0.130767 0.567886 1.460897
v 0.331943 1.171066 -1.845768
v 0.332424 1.168085 -1.409158
v 0.340938 1.389507 -1.407655
v 0.340457 1.392488 -1.844265
v 0.193767 1.395171 -1.408614
v 0.185255 1.173748 -1.410117
v 0.184774 1.176730 -1.846727
v 0.193286 1.398153 -1.845224
vn -0.0030 -0.0080 1.0000
vn -0.9962 0.0781 -0.0373
vn 0.9998 -0.0060 -0.0170
vn -0.7649 0.0250 0.6436
vn -0.7676 0.0557 -0.6386
vn 0.0004 -1.0000 -0.0072
vn 0.0314 -0.9995 0.0067
vn -0.9992 0.0383 0.0102
vn -0.9927 -0.1183 0.0228
vn 0.0384 0.9992 0.0068
vn -0.0384 -0.9992 -0.0068
vn -0.0021 0.0069 -1.0000
vn 0.0021 -0.0069 1.0000
vn 0.9992 -0.0384 -0.0102
vn 0.9999 0.0053 -0.0137
vn 0.0002 -0.0204 -0.9998
vn 0.7742 -0.0408 0.6316
vn -0.7652 0.0250 0.6433
vn 0.7665 -0.0584 -0.6396
vn 0.9986 -0.0468 0.0225
vn 0.9983 -0.0578 -0.0016
vn -0.9994 0.0347 0.0085
vn 0.9987 -0.0507 -0.0005
vn -0.0064 0.0629 -0.9980
vn -0.9997 0.0248 -0.0085
vn -0.9989 0.0467 0.0007
vn -0.0088 -0.0067 0.9999
vn 0.7659 -0.0101 -0.6429
vn -0.7541 -0.0035 -0.6567
vn -0.0210 -0.9998 -0.0069
vn -0.9993 0.0355 -0.0127
vn 0.9999 0.0114 -0.0035
vn -0.9887 0.1498 -0.0106
vn 0.0065 0.0498 -0.9987
vn 0.9998 0.0163 -0.0109
vn -0.0492 -0.9980 -0.0393
vn 0.0468 0.9983 0.0341
vn -0.9996 0.0252 -0.0091
vn 0.9993 -0.0223 0.0291
vn -0.0258 0.9996 -0.0065
vn -0.0040 -0.0435 0.9990
vn 0.0181 0.9998 0.0065
vn -0.9993 0.0384 0.0014
vn 0.0068 0.0065 -1.0000
vn -0.0068 -0.0065 1.0000
vn 0.9993 -0.0384 -0.0014
vt 0.024034 0.977311
vt 0.022765 0.977411
vt 0.022765 0.977293
vt 0.026137 0.977315
vt 0.026734 0.977389
vt 0.026137 0.977364
vt 0.026734 0.977271
vt 0.024034 0.977360
vt 0.022765 0.977192
vt 0.026749 0.977389
vt 0.026121 0.977364
vt 0.022814 0.977192
vt 0.022780 0.977293
vt 0.026121 0.977315
vt 0.022814 0.977073
vt 0.022780 0.977411
vt 0.024049 0.977311
vt 0.022765 0.977073
vt 0.026749 0.977271
vt 0.024049 0.977360
vt 0.023639 0.907995
vt 0.023869 0.911956
vt 0.023639 0.907780
vt 0.023814 0.911956
vt 0.036499 0.911956
vt 0.036980 0.911956
vt 0.036980 0.908140
vt 0.036980 0.911957
vt 0.030904 0.908218
vt 0.024120 0.907995
vt 0.024120 0.907780
vt 0.036499 0.908140
vt 0.036499 0.907992
vt 0.036980 0.907966
vt 0.032963 0.908218
vt 0.031805 0.907993
vt 0.034436 0.908080
vt 0.025894 0.911956
vt 0.025610 0.907824
vt 0.025125 0.911956
vt 0.023639 0.909868
vt 0.036499 0.911956
vt 0.023639 0.909976
vt 0.024120 0.909868
vt 0.034436 0.911956
vt 0.034436 0.911957
vt 0.025667 0.909891
vt 0.031931 0.909204
vt 0.024126 0.909974
vt 0.024097 0.967198
vt 0.036476 0.967198
vt 0.034413 0.967198
vt 0.025566 0.967198
vt 0.024097 0.967198
vt 0.036476 0.967198
vt 0.036476 0.967198
vt 0.034413 0.967198
vt 0.025358 0.967198
vt 0.024097 0.967198
vt 0.024097 0.967198
vt 0.034413 0.967198
vt 0.036476 0.967198
vt 0.036473 0.967198
vt 0.025761 0.967198
vt 0.030162 0.966806
vt 0.025652 0.967198
vt 0.030162 0.966806
vt 0.024034 0.977311
vt 0.022765 0.977411
vt 0.022765 0.977293
vt 0.026137 0.977315
vt 0.026734 0.977389
vt 0.026137 0.977364
vt 0.026734 0.977271
vt 0.024034 0.977360
vt 0.022765 0.977192
vt 0.026749 0.977389
vt 0.026121 0.977364
vt 0.022814 0.977192
vt 0.022780 0.977293
vt 0.026121 0.977315
vt 0.022814 0.977073
vt 0.022780 0.977411
vt 0.024049 0.977311
vt 0.022765 0.977073
vt 0.026749 0.977271
vt 0.024049 0.977360
vt 0.024034 0.977311
vt 0.022765 0.977411
vt 0.022765 0.977293
vt 0.026137 0.977315
vt 0.026734 0.977389
vt 0.026137 0.977364
vt 0.026734 0.977271
vt 0.024034 0.977360
vt 0.022765 0.977192
vt 0.026749 0.977389
vt 0.026121 0.977364
vt 0.022814 0.977192
vt 0.022780 0.977293
vt 0.026121 0.977315
vt 0.022814 0.977073
vt 0.022780 0.977411
vt 0.024049 0.977311
vt 0.022765 0.977073
vt 0.026749 0.977271
vt 0.024049 0.977360
vt 0.024034 0.977311
vt 0.022765 0.977411
vt 0.022765 0.977293
vt 0.026137 0.977315
vt 0.026734 0.977389
vt 0.026137 0.977364
vt 0.026734 0.977271
vt 0.024034 0.977360
vt 0.022765 0.977192
vt 0.026749 0.977389
vt 0.026121 0.977364
vt 0.022814 0.977192
vt 0.022780 0.977293
vt 0.026121 0.977315
vt 0.022814 0.977073
vt 0.022780 0.977411
vt 0.024049 0.977311
vt 0.022765 0.977073
vt 0.026749 0.977271
vt 0.024049 0.977360
s 0
usemtl world_001.004
f 25/34/1 19/27/1 20/28/1
f 38/49/2 30/40/2 14/22/2
f 28/38/3 36/46/3 37/47/3
f 17/25/4 25/34/4 18/26/4
f 38/49/5 14/22/5 33/43/5
f 40/51/6 44/56/6 45/57/6
f 40/51/7 43/55/7 44/56/7
f 7/15/8 6/12/8 5/9/8 8/18/8
f 44/56/9 51/63/9 45/57/9
f 5/10/10 3/5/10 4/7/10 8/19/10
f 1/2/11 2/3/11 6/13/11 7/16/11
f 8/20/12 4/8/12 1/1/12 7/17/12
f 2/4/13 3/6/13 5/11/13 6/14/13
f 4/8/14 3/6/14 2/4/14 1/2/14
f 16/24/15 28/38/15 37/47/15 34/44/15
f 13/21/16 33/43/16 31/41/16 15/23/16
f 23/32/17 32/42/17 20/28/17 19/27/17
f 17/25/18 24/33/18 25/34/18
f 31/41/19 34/44/19 22/31/19 15/23/19
f 23/32/20 27/37/20 36/46/20 32/42/20
f 29/39/21 22/31/21 34/44/21 37/47/21
f 24/33/22 17/25/22 35/45/22 26/36/22
f 27/37/23 29/39/23 37/47/23 36/46/23
f 33/43/24 14/22/24 16/24/24 31/41/24
f 38/48/25 21/29/25 26/35/25
f 30/40/26 38/49/26 26/36/26
f 18/26/27 25/34/27 20/28/27
f 34/44/28 31/41/28 16/24/28
f 33/43/29 13/21/29 21/30/29 38/49/29
f 46/58/30 41/53/30 40/52/30 45/57/30
f 35/45/31 30/40/31 26/36/31
f 48/60/32 52/64/32 41/53/32 39/50/32
f 53/66/33 46/58/33 45/57/33 51/63/33
f 48/60/34 39/50/34 42/54/34 47/59/34
f 52/64/35 49/61/35 40/52/35 41/53/35
f 42/54/36 39/50/36 41/53/36 46/58/36
f 47/59/37 53/66/37 52/64/37 48/60/37
f 53/66/38 47/59/38 42/54/38 46/58/38
f 49/61/39 50/62/39 43/55/39 40/52/39
f 50/62/40 49/61/40 51/63/40
f 51/63/41 44/56/41 43/55/41 50/62/41
f 49/61/42 52/65/42 53/67/42 51/63/42
f 164/82/8 163/79/8 162/76/8 165/85/8
f 162/77/10 160/72/10 161/74/10 165/86/10
f 158/69/11 159/70/11 163/80/11 164/83/11
f 165/87/12 161/75/12 158/68/12 164/84/12
f 159/71/13 160/73/13 162/78/13 163/81/13
f 161/75/14 160/73/14 159/71/14 158/69/14
f 172/102/43 171/99/43 170/96/43 173/105/43
f 170/97/10 168/92/10 169/94/10 173/106/10
f 166/89/11 167/90/11 171/100/11 172/103/11
f 173/107/44 169/95/44 166/88/44 172/104/44
f 167/91/45 168/93/45 170/98/45 171/101/45
f 169/95/46 168/93/46 167/91/46 166/89/46
f 180/122/43 179/119/43 178/116/43 181/125/43
f 178/117/10 176/112/10 177/114/10 181/126/10
f 174/109/11 175/110/11 179/120/11 180/123/11
f 181/127/44 177/115/44 174/108/44 180/124/44
f 175/111/45 176/113/45 178/118/45 179/121/45
f 177/115/46 176/113/46 175/111/46 174/109/46
l 101 98
l 9 10
l 11 12
l 55 56
l 59 60
l 145 142
l 63 64
l 67 68
l 75 76
l 79 80
l 141 138
l 83 84
l 87 88
l 91 92
l 69 66
l 99 100
l 103 104
l 109 106
l 107 108
l 111 112
l 149 146
l 115 116
l 119 120
l 12 9
l 123 124
l 127 128
l 131 132
l 135 136
l 139 140
l 143 144
l 73 70
l 151 152
l 150 151
l 113 110
l 153 150
l 77 74
l 95 96
l 117 114
l 157 154
l 65 62
l 81 78
l 121 118
l 10 11
l 125 122
l 85 82
l 56 57
l 58 59
l 60 61
l 62 63
l 64 65
l 66 67
l 68 69
l 70 71
l 72 73
l 74 75
l 76 77
l 78 79
l 80 81
l 82 83
l 84 85
l 86 87
l 88 89
l 90 91
l 92 93
l 94 95
l 96 97
l 98 99
l 89 86
l 100 101
l 102 103
l 104 105
l 147 148
l 106 107
l 108 109
l 129 126
l 110 111
l 112 113
l 114 115
l 116 117
l 118 119
l 120 121
l 122 123
l 124 125
l 126 127
l 128 129
l 130 131
l 132 133
l 134 135
l 136 137
l 138 139
l 140 141
l 142 143
l 144 145
l 146 147
l 148 149
l 71 72
l 93 90
l 152 153
l 154 155
l 156 157
l 133 130
l 54 55
l 57 54
l 97 94
l 137 134
l 155 156
l 105 102
l 61 58
