# Wavefront OBJ file
# Exported by Misfit Model 3D 1.3.8
# Fri Jul 07 18:42:13 2023

# 96 Vertices
v 0.010277 0.000762 0.062135
v 0.010277 0.002479 0.062135
v 0.010277 0.000762 -0.056405
v 0.010277 0.002479 -0.056405
v 0.012154 0.000762 0.062135
v 0.012154 0.002479 0.062135
v 0.012154 0.000762 -0.056405
v 0.012154 0.002479 -0.056405
v -0.010613 0.000762 0.062135
v -0.010613 0.002479 0.062135
v -0.010613 0.000762 -0.056405
v -0.010613 0.002479 -0.056405
v -0.01249 0.000762 0.062135
v -0.01249 0.002479 0.062135
v -0.01249 0.000762 -0.056405
v -0.01249 0.002479 -0.056405
v -0.016 -0.0005 -0.049064
v -0.016 0.000772 -0.049064
v -0.016 -0.0005 -0.052059
v -0.016 0.000772 -0.052059
v 0.016 -0.0005 -0.049064
v 0.016 0.000772 -0.049064
v 0.016 -0.0005 -0.052059
v 0.016 0.000772 -0.052059
v -0.016 -0.0005 -0.037089
v -0.016 0.000772 -0.037089
v -0.016 -0.0005 -0.040082
v -0.016 0.000772 -0.040082
v 0.016 -0.0005 -0.037089
v 0.016 0.000772 -0.037089
v 0.016 -0.0005 -0.040082
v 0.016 0.000772 -0.040082
v -0.016 -0.0005 -0.025112
v -0.016 0.000772 -0.025112
v -0.016 -0.0005 -0.028107
v -0.016 0.000772 -0.028107
v 0.016 -0.0005 -0.025112
v 0.016 0.000772 -0.025112
v 0.016 -0.0005 -0.028107
v 0.016 0.000772 -0.028107
v -0.016 -0.0005 -0.013137
v -0.016 0.000772 -0.013137
v -0.016 -0.0005 -0.016131
v -0.016 0.000772 -0.016131
v 0.016 -0.0005 -0.013137
v 0.016 0.000772 -0.013137
v 0.016 -0.0005 -0.016131
v 0.016 0.000772 -0.016131
v -0.016 -0.0005 -0.001162
v -0.016 0.000772 -0.001162
v -0.016 -0.0005 -0.004155
v -0.016 0.000772 -0.004155
v 0.016 -0.0005 -0.001162
v 0.016 0.000772 -0.001162
v 0.016 -0.0005 -0.004155
v 0.016 0.000772 -0.004155
v -0.016 -0.0005 0.010815
v -0.016 0.000772 0.010815
v -0.016 -0.0005 0.007821
v -0.016 0.000772 0.007821
v 0.016 -0.0005 0.010815
v 0.016 0.000772 0.010815
v 0.016 -0.0005 0.007821
v 0.016 0.000772 0.007821
v -0.016 -0.0005 0.022791
v -0.016 0.000772 0.022791
v -0.016 -0.0005 0.019796
v -0.016 0.000772 0.019796
v 0.016 -0.0005 0.022791
v 0.016 0.000772 0.022791
v 0.016 -0.0005 0.019796
v 0.016 0.000772 0.019796
v -0.016 -0.0005 0.034766
v -0.016 0.000772 0.034766
v -0.016 -0.0005 0.031773
v -0.016 0.000772 0.031773
v 0.016 -0.0005 0.034766
v 0.016 0.000772 0.034766
v 0.016 -0.0005 0.031773
v 0.016 0.000772 0.031773
v -0.016 -0.0005 0.046743
v -0.016 0.000772 0.046743
v -0.016 -0.0005 0.043748
v -0.016 0.000772 0.043748
v 0.016 -0.0005 0.046743
v 0.016 0.000772 0.046743
v 0.016 -0.0005 0.043748
v 0.016 0.000772 0.043748
v -0.016 -0.0005 0.058718
v -0.016 0.000772 0.058718
v -0.016 -0.0005 0.055724
v -0.016 0.000772 0.055724
v 0.016 -0.0005 0.058718
v 0.016 0.000772 0.058718
v 0.016 -0.0005 0.055724
v 0.016 0.000772 0.055724

# 432 Texture Coordinates
vt 0.899125 0.084347
vt 0.906977 0.084347
vt 0.899125 0.092198
vt 0.899125 0.092198
vt 0.906977 0.084347
vt 0.906977 0.092198
vt 0.899125 0.092198
vt 0.906977 0.092198
vt 0.899125 0.100049
vt 0.899125 0.100049
vt 0.906977 0.092198
vt 0.906977 0.100049
vt 0.899125 0.100049
vt 0.906977 0.100049
vt 0.899125 0.107901
vt 0.899125 0.107901
vt 0.906977 0.100049
vt 0.906977 0.107901
vt 0.899125 0.107901
vt 0.906977 0.107901
vt 0.899125 0.115752
vt 0.899125 0.115752
vt 0.906977 0.107901
vt 0.906977 0.115752
vt 0.891274 0.100049
vt 0.899125 0.100049
vt 0.891274 0.107901
vt 0.891274 0.107901
vt 0.899125 0.100049
vt 0.899125 0.107901
vt 0.906977 0.100049
vt 0.914828 0.100049
vt 0.906977 0.107901
vt 0.906977 0.107901
vt 0.914828 0.100049
vt 0.914828 0.107901
vt 0.899125 0.084347
vt 0.899125 0.092198
vt 0.906977 0.084347
vt 0.906977 0.084347
vt 0.899125 0.092198
vt 0.906977 0.092198
vt 0.899125 0.092198
vt 0.899125 0.100049
vt 0.906977 0.092198
vt 0.906977 0.092198
vt 0.899125 0.100049
vt 0.906977 0.100049
vt 0.899125 0.100049
vt 0.899125 0.107901
vt 0.906977 0.100049
vt 0.906977 0.100049
vt 0.899125 0.107901
vt 0.906977 0.107901
vt 0.899125 0.107901
vt 0.899125 0.115752
vt 0.906977 0.107901
vt 0.906977 0.107901
vt 0.899125 0.115752
vt 0.906977 0.115752
vt 0.891274 0.100049
vt 0.891274 0.107901
vt 0.899125 0.100049
vt 0.899125 0.100049
vt 0.891274 0.107901
vt 0.899125 0.107901
vt 0.906977 0.100049
vt 0.906977 0.107901
vt 0.914828 0.100049
vt 0.914828 0.100049
vt 0.906977 0.107901
vt 0.914828 0.107901
vt 0.215357 0.3365
vt 0.223472 0.3365
vt 0.215357 0.344616
vt 0.215357 0.344616
vt 0.223472 0.3365
vt 0.223472 0.344616
vt 0.215357 0.344616
vt 0.223472 0.344616
vt 0.215357 0.352731
vt 0.215357 0.352731
vt 0.223472 0.344616
vt 0.223472 0.352731
vt 0.215357 0.352731
vt 0.223472 0.352731
vt 0.215357 0.360847
vt 0.215357 0.360847
vt 0.223472 0.352731
vt 0.223472 0.360847
vt 0.215357 0.360847
vt 0.223472 0.360847
vt 0.215357 0.368963
vt 0.215357 0.368963
vt 0.223472 0.360847
vt 0.223472 0.368963
vt 0.207241 0.352731
vt 0.215357 0.352731
vt 0.207241 0.360847
vt 0.207241 0.360847
vt 0.215357 0.352731
vt 0.215357 0.360847
vt 0.223472 0.352731
vt 0.231588 0.352731
vt 0.223472 0.360847
vt 0.223472 0.360847
vt 0.231588 0.352731
vt 0.231588 0.360847
vt 0.215357 0.3365
vt 0.223472 0.3365
vt 0.215357 0.344616
vt 0.215357 0.344616
vt 0.223472 0.3365
vt 0.223472 0.344616
vt 0.215357 0.344616
vt 0.223472 0.344616
vt 0.215357 0.352731
vt 0.215357 0.352731
vt 0.223472 0.344616
vt 0.223472 0.352731
vt 0.215357 0.352731
vt 0.223472 0.352731
vt 0.215357 0.360847
vt 0.215357 0.360847
vt 0.223472 0.352731
vt 0.223472 0.360847
vt 0.215357 0.360847
vt 0.223472 0.360847
vt 0.215357 0.368963
vt 0.215357 0.368963
vt 0.223472 0.360847
vt 0.223472 0.368963
vt 0.207241 0.352731
vt 0.215357 0.352731
vt 0.207241 0.360847
vt 0.207241 0.360847
vt 0.215357 0.352731
vt 0.215357 0.360847
vt 0.223472 0.352731
vt 0.231588 0.352731
vt 0.223472 0.360847
vt 0.223472 0.360847
vt 0.231588 0.352731
vt 0.231588 0.360847
vt 0.215357 0.3365
vt 0.223472 0.3365
vt 0.215357 0.344616
vt 0.215357 0.344616
vt 0.223472 0.3365
vt 0.223472 0.344616
vt 0.215357 0.344616
vt 0.223472 0.344616
vt 0.215357 0.352731
vt 0.215357 0.352731
vt 0.223472 0.344616
vt 0.223472 0.352731
vt 0.215357 0.352731
vt 0.223472 0.352731
vt 0.215357 0.360847
vt 0.215357 0.360847
vt 0.223472 0.352731
vt 0.223472 0.360847
vt 0.215357 0.360847
vt 0.223472 0.360847
vt 0.215357 0.368963
vt 0.215357 0.368963
vt 0.223472 0.360847
vt 0.223472 0.368963
vt 0.207241 0.352731
vt 0.215357 0.352731
vt 0.207241 0.360847
vt 0.207241 0.360847
vt 0.215357 0.352731
vt 0.215357 0.360847
vt 0.223472 0.352731
vt 0.231588 0.352731
vt 0.223472 0.360847
vt 0.223472 0.360847
vt 0.231588 0.352731
vt 0.231588 0.360847
vt 0.215357 0.3365
vt 0.223472 0.3365
vt 0.215357 0.344616
vt 0.215357 0.344616
vt 0.223472 0.3365
vt 0.223472 0.344616
vt 0.215357 0.344616
vt 0.223472 0.344616
vt 0.215357 0.352731
vt 0.215357 0.352731
vt 0.223472 0.344616
vt 0.223472 0.352731
vt 0.215357 0.352731
vt 0.223472 0.352731
vt 0.215357 0.360847
vt 0.215357 0.360847
vt 0.223472 0.352731
vt 0.223472 0.360847
vt 0.215357 0.360847
vt 0.223472 0.360847
vt 0.215357 0.368963
vt 0.215357 0.368963
vt 0.223472 0.360847
vt 0.223472 0.368963
vt 0.207241 0.352731
vt 0.215357 0.352731
vt 0.207241 0.360847
vt 0.207241 0.360847
vt 0.215357 0.352731
vt 0.215357 0.360847
vt 0.223472 0.352731
vt 0.231588 0.352731
vt 0.223472 0.360847
vt 0.223472 0.360847
vt 0.231588 0.352731
vt 0.231588 0.360847
vt 0.215357 0.3365
vt 0.223472 0.3365
vt 0.215357 0.344616
vt 0.215357 0.344616
vt 0.223472 0.3365
vt 0.223472 0.344616
vt 0.215357 0.344616
vt 0.223472 0.344616
vt 0.215357 0.352731
vt 0.215357 0.352731
vt 0.223472 0.344616
vt 0.223472 0.352731
vt 0.215357 0.352731
vt 0.223472 0.352731
vt 0.215357 0.360847
vt 0.215357 0.360847
vt 0.223472 0.352731
vt 0.223472 0.360847
vt 0.215357 0.360847
vt 0.223472 0.360847
vt 0.215357 0.368963
vt 0.215357 0.368963
vt 0.223472 0.360847
vt 0.223472 0.368963
vt 0.207241 0.352731
vt 0.215357 0.352731
vt 0.207241 0.360847
vt 0.207241 0.360847
vt 0.215357 0.352731
vt 0.215357 0.360847
vt 0.223472 0.352731
vt 0.231588 0.352731
vt 0.223472 0.360847
vt 0.223472 0.360847
vt 0.231588 0.352731
vt 0.231588 0.360847
vt 0.215357 0.3365
vt 0.223472 0.3365
vt 0.215357 0.344616
vt 0.215357 0.344616
vt 0.223472 0.3365
vt 0.223472 0.344616
vt 0.215357 0.344616
vt 0.223472 0.344616
vt 0.215357 0.352731
vt 0.215357 0.352731
vt 0.223472 0.344616
vt 0.223472 0.352731
vt 0.215357 0.352731
vt 0.223472 0.352731
vt 0.215357 0.360847
vt 0.215357 0.360847
vt 0.223472 0.352731
vt 0.223472 0.360847
vt 0.215357 0.360847
vt 0.223472 0.360847
vt 0.215357 0.368963
vt 0.215357 0.368963
vt 0.223472 0.360847
vt 0.223472 0.368963
vt 0.207241 0.352731
vt 0.215357 0.352731
vt 0.207241 0.360847
vt 0.207241 0.360847
vt 0.215357 0.352731
vt 0.215357 0.360847
vt 0.223472 0.352731
vt 0.231588 0.352731
vt 0.223472 0.360847
vt 0.223472 0.360847
vt 0.231588 0.352731
vt 0.231588 0.360847
vt 0.215357 0.3365
vt 0.223472 0.3365
vt 0.215357 0.344616
vt 0.215357 0.344616
vt 0.223472 0.3365
vt 0.223472 0.344616
vt 0.215357 0.344616
vt 0.223472 0.344616
vt 0.215357 0.352731
vt 0.215357 0.352731
vt 0.223472 0.344616
vt 0.223472 0.352731
vt 0.215357 0.352731
vt 0.223472 0.352731
vt 0.215357 0.360847
vt 0.215357 0.360847
vt 0.223472 0.352731
vt 0.223472 0.360847
vt 0.215357 0.360847
vt 0.223472 0.360847
vt 0.215357 0.368963
vt 0.215357 0.368963
vt 0.223472 0.360847
vt 0.223472 0.368963
vt 0.207241 0.352731
vt 0.215357 0.352731
vt 0.207241 0.360847
vt 0.207241 0.360847
vt 0.215357 0.352731
vt 0.215357 0.360847
vt 0.223472 0.352731
vt 0.231588 0.352731
vt 0.223472 0.360847
vt 0.223472 0.360847
vt 0.231588 0.352731
vt 0.231588 0.360847
vt 0.215357 0.3365
vt 0.223472 0.3365
vt 0.215357 0.344616
vt 0.215357 0.344616
vt 0.223472 0.3365
vt 0.223472 0.344616
vt 0.215357 0.344616
vt 0.223472 0.344616
vt 0.215357 0.352731
vt 0.215357 0.352731
vt 0.223472 0.344616
vt 0.223472 0.352731
vt 0.215357 0.352731
vt 0.223472 0.352731
vt 0.215357 0.360847
vt 0.215357 0.360847
vt 0.223472 0.352731
vt 0.223472 0.360847
vt 0.215357 0.360847
vt 0.223472 0.360847
vt 0.215357 0.368963
vt 0.215357 0.368963
vt 0.223472 0.360847
vt 0.223472 0.368963
vt 0.207241 0.352731
vt 0.215357 0.352731
vt 0.207241 0.360847
vt 0.207241 0.360847
vt 0.215357 0.352731
vt 0.215357 0.360847
vt 0.223472 0.352731
vt 0.231588 0.352731
vt 0.223472 0.360847
vt 0.223472 0.360847
vt 0.231588 0.352731
vt 0.231588 0.360847
vt 0.215357 0.3365
vt 0.223472 0.3365
vt 0.215357 0.344616
vt 0.215357 0.344616
vt 0.223472 0.3365
vt 0.223472 0.344616
vt 0.215357 0.344616
vt 0.223472 0.344616
vt 0.215357 0.352731
vt 0.215357 0.352731
vt 0.223472 0.344616
vt 0.223472 0.352731
vt 0.215357 0.352731
vt 0.223472 0.352731
vt 0.215357 0.360847
vt 0.215357 0.360847
vt 0.223472 0.352731
vt 0.223472 0.360847
vt 0.215357 0.360847
vt 0.223472 0.360847
vt 0.215357 0.368963
vt 0.215357 0.368963
vt 0.223472 0.360847
vt 0.223472 0.368963
vt 0.207241 0.352731
vt 0.215357 0.352731
vt 0.207241 0.360847
vt 0.207241 0.360847
vt 0.215357 0.352731
vt 0.215357 0.360847
vt 0.223472 0.352731
vt 0.231588 0.352731
vt 0.223472 0.360847
vt 0.223472 0.360847
vt 0.231588 0.352731
vt 0.231588 0.360847
vt 0.215357 0.3365
vt 0.223472 0.3365
vt 0.215357 0.344616
vt 0.215357 0.344616
vt 0.223472 0.3365
vt 0.223472 0.344616
vt 0.215357 0.344616
vt 0.223472 0.344616
vt 0.215357 0.352731
vt 0.215357 0.352731
vt 0.223472 0.344616
vt 0.223472 0.352731
vt 0.215357 0.352731
vt 0.223472 0.352731
vt 0.215357 0.360847
vt 0.215357 0.360847
vt 0.223472 0.352731
vt 0.223472 0.360847
vt 0.215357 0.360847
vt 0.223472 0.360847
vt 0.215357 0.368963
vt 0.215357 0.368963
vt 0.223472 0.360847
vt 0.223472 0.368963
vt 0.207241 0.352731
vt 0.215357 0.352731
vt 0.207241 0.360847
vt 0.207241 0.360847
vt 0.215357 0.352731
vt 0.215357 0.360847
vt 0.223472 0.352731
vt 0.231588 0.352731
vt 0.223472 0.360847
vt 0.223472 0.360847
vt 0.231588 0.352731
vt 0.231588 0.360847

# 432 Vertex Normals
vn -1.0 0.0 0.0
vn -1.0 0.0 0.0
vn -1.0 0.0 0.0
vn -1.0 0.0 0.0
vn -1.0 0.0 0.0
vn -1.0 0.0 0.0
vn 0.0 0.0 -1.0
vn 0.0 0.0 -1.0
vn 0.0 0.0 -1.0
vn 0.0 0.0 -1.0
vn 0.0 0.0 -1.0
vn 0.0 0.000001 -1.0
vn 1.0 0.0 -0.0
vn 1.0 0.0 -0.0
vn 1.0 0.0 -0.0
vn 1.0 0.0 -0.0
vn 1.0 0.0 -0.0
vn 1.0 0.0 -0.0
vn 0.0 0.0 1.0
vn 0.0 -0.0 1.0
vn 0.0 -0.0 1.0
vn 0.0 -0.0 1.0
vn 0.0 -0.0 1.0
vn 0.0 -0.000001 1.0
vn 0.0 -1.0 0.0
vn 0.0 -1.0 0.0
vn 0.0 -1.0 0.0
vn 0.0 -1.0 0.0
vn 0.0 -1.0 0.0
vn 0.0 -1.0 0.0
vn -0.0 1.0 0.0
vn -0.0 1.0 0.0
vn -0.0 1.0 0.0
vn -0.0 1.0 0.0
vn -0.0 1.0 0.0
vn -0.0 1.0 0.0
vn 1.0 0.0 -0.0
vn 1.0 -0.0 -0.0
vn 1.0 -0.0 -0.0
vn 1.0 -0.0 -0.0
vn 1.0 -0.0 -0.0
vn 1.0 -0.0 -0.0
vn 0.0 0.000001 -1.0
vn 0.0 0.000001 -1.0
vn 0.0 0.000001 -1.0
vn 0.0 0.000001 -1.0
vn 0.0 0.000001 -1.0
vn 0.0 0.000001 -1.0
vn -1.0 0.0 0.0
vn -1.0 0.0 0.0
vn -1.0 0.0 0.0
vn -1.0 0.0 0.0
vn -1.0 0.0 0.0
vn -1.0 -0.0 0.0
vn 0.0 -0.000001 1.0
vn 0.0 -0.000001 1.0
vn 0.0 -0.000001 1.0
vn 0.0 -0.000001 1.0
vn 0.0 -0.000001 1.0
vn 0.0 -0.000001 1.0
vn 0.0 -1.0 0.0
vn 0.0 -1.0 0.0
vn 0.0 -1.0 0.0
vn 0.0 -1.0 0.0
vn 0.0 -1.0 0.0
vn 0.0 -1.0 0.0
vn 0.0 1.0 0.0
vn 0.0 1.0 0.0
vn 0.0 1.0 0.0
vn 0.0 1.0 0.0
vn 0.0 1.0 0.0
vn 0.0 1.0 0.0
vn -1.0 0.0 -0.0
vn -1.0 0.0 -0.0
vn -1.0 0.0 -0.0
vn -1.0 0.0 -0.0
vn -1.0 0.0 -0.0
vn -1.0 0.0 -0.0
vn 0.0 0.0 -1.0
vn 0.0 0.000001 -1.0
vn 0.0 0.000001 -1.0
vn 0.0 0.000001 -1.0
vn 0.0 0.000001 -1.0
vn 0.0 0.000001 -1.0
vn 1.0 0.0 0.0
vn 1.0 0.0 0.0
vn 1.0 0.0 0.0
vn 1.0 0.0 0.0
vn 1.0 0.0 0.0
vn 1.0 0.0 0.0
vn 0.0 0.0 1.0
vn 0.0 -0.0 1.0
vn 0.0 -0.0 1.0
vn 0.0 -0.0 1.0
vn 0.0 -0.0 1.0
vn 0.0 -0.000001 1.0
vn -0.0 -1.0 0.0
vn -0.0 -1.0 0.0
vn -0.0 -1.0 0.0
vn -0.0 -1.0 0.0
vn -0.0 -1.0 0.0
vn -0.0 -1.0 0.0
vn -0.0 1.0 0.0
vn -0.0 1.0 0.0
vn -0.0 1.0 0.0
vn -0.0 1.0 0.0
vn -0.0 1.0 0.0
vn -0.0 1.0 0.0
vn -1.0 0.0 -0.0
vn -1.0 0.0 -0.0
vn -1.0 0.0 -0.0
vn -1.0 0.0 -0.0
vn -1.0 0.0 -0.0
vn -1.0 0.0 -0.0
vn 0.0 0.0 -1.0
vn 0.0 -0.000001 -1.0
vn 0.0 -0.000001 -1.0
vn 0.0 -0.000001 -1.0
vn 0.0 -0.000001 -1.0
vn 0.0 -0.000001 -1.0
vn 1.0 0.0 0.0
vn 1.0 0.0 0.0
vn 1.0 0.0 0.0
vn 1.0 0.0 0.0
vn 1.0 0.0 0.0
vn 1.0 0.0 0.0
vn 0.0 0.0 1.0
vn 0.0 -0.000001 1.0
vn 0.0 -0.000001 1.0
vn 0.0 -0.000001 1.0
vn 0.0 -0.000001 1.0
vn 0.0 -0.000001 1.0
vn 0.0 -1.0 0.0
vn 0.0 -1.0 0.0
vn 0.0 -1.0 0.0
vn 0.0 -1.0 0.0
vn 0.0 -1.0 0.0
vn 0.0 -1.0 0.0
vn -0.0 1.0 0.0
vn -0.0 1.0 0.0
vn -0.0 1.0 0.0
vn -0.0 1.0 0.0
vn -0.0 1.0 0.0
vn -0.0 1.0 0.0
vn -1.0 0.0 -0.0
vn -1.0 0.0 -0.0
vn -1.0 0.0 -0.0
vn -1.0 0.0 -0.0
vn -1.0 0.0 -0.0
vn -1.0 0.0 -0.0
vn 0.0 0.0 -1.0
vn 0.0 -0.0 -1.0
vn 0.0 -0.0 -1.0
vn 0.0 -0.0 -1.0
vn 0.0 -0.0 -1.0
vn 0.0 -0.000001 -1.0
vn 1.0 0.0 0.0
vn 1.0 0.0 0.0
vn 1.0 0.0 0.0
vn 1.0 0.0 0.0
vn 1.0 0.0 0.0
vn 1.0 0.0 0.0
vn 0.0 0.0 1.0
vn 0.0 -0.0 1.0
vn 0.0 -0.0 1.0
vn 0.0 -0.0 1.0
vn 0.0 -0.0 1.0
vn 0.0 -0.0 1.0
vn -0.0 -1.0 0.0
vn -0.0 -1.0 0.0
vn -0.0 -1.0 0.0
vn -0.0 -1.0 0.0
vn -0.0 -1.0 0.0
vn -0.0 -1.0 0.0
vn 0.0 1.0 0.0
vn 0.0 1.0 0.0
vn 0.0 1.0 0.0
vn 0.0 1.0 0.0
vn 0.0 1.0 0.0
vn 0.0 1.0 0.0
vn -1.0 0.0 -0.0
vn -1.0 0.0 -0.0
vn -1.0 0.0 -0.0
vn -1.0 0.0 -0.0
vn -1.0 0.0 -0.0
vn -1.0 0.0 -0.0
vn 0.0 0.0 -1.0
vn 0.0 -0.0 -1.0
vn 0.0 -0.0 -1.0
vn 0.0 -0.0 -1.0
vn 0.0 -0.0 -1.0
vn 0.0 -0.0 -1.0
vn 1.0 0.0 0.0
vn 1.0 0.0 0.0
vn 1.0 0.0 0.0
vn 1.0 0.0 0.0
vn 1.0 0.0 0.0
vn 1.0 0.0 0.0
vn 0.0 0.0 1.0
vn 0.0 -0.0 1.0
vn 0.0 -0.0 1.0
vn 0.0 -0.0 1.0
vn 0.0 -0.0 1.0
vn 0.0 -0.0 1.0
vn -0.0 -1.0 0.0
vn -0.0 -1.0 0.0
vn -0.0 -1.0 0.0
vn -0.0 -1.0 0.0
vn -0.0 -1.0 0.0
vn -0.0 -1.0 0.0
vn -0.0 1.0 0.0
vn -0.0 1.0 0.0
vn -0.0 1.0 0.0
vn -0.0 1.0 0.0
vn -0.0 1.0 0.0
vn -0.0 1.0 0.0
vn -1.0 0.0 -0.0
vn -1.0 0.0 -0.0
vn -1.0 0.0 -0.0
vn -1.0 0.0 -0.0
vn -1.0 0.0 -0.0
vn -1.0 0.0 -0.0
vn 0.0 0.0 -1.0
vn 0.0 -0.0 -1.0
vn 0.0 -0.0 -1.0
vn 0.0 -0.0 -1.0
vn 0.0 -0.0 -1.0
vn 0.0 -0.0 -1.0
vn 1.0 0.0 0.0
vn 1.0 0.0 0.0
vn 1.0 0.0 0.0
vn 1.0 0.0 0.0
vn 1.0 0.0 0.0
vn 1.0 0.0 0.0
vn 0.0 0.0 1.0
vn 0.0 -0.0 1.0
vn 0.0 -0.0 1.0
vn 0.0 -0.0 1.0
vn 0.0 -0.0 1.0
vn 0.0 -0.0 1.0
vn -0.0 -1.0 0.0
vn -0.0 -1.0 0.0
vn -0.0 -1.0 0.0
vn -0.0 -1.0 0.0
vn -0.0 -1.0 0.0
vn -0.0 -1.0 0.0
vn -0.0 1.0 0.0
vn -0.0 1.0 0.0
vn -0.0 1.0 0.0
vn -0.0 1.0 0.0
vn -0.0 1.0 0.0
vn -0.0 1.0 0.0
vn -1.0 0.0 -0.0
vn -1.0 0.0 -0.0
vn -1.0 0.0 -0.0
vn -1.0 0.0 -0.0
vn -1.0 0.0 -0.0
vn -1.0 0.0 -0.0
vn -0.0 0.0 -1.0
vn -0.0 -0.0 -1.0
vn -0.0 -0.0 -1.0
vn -0.0 -0.0 -1.0
vn -0.0 -0.0 -1.0
vn -0.0 -0.0 -1.0
vn 1.0 0.0 0.0
vn 1.0 0.0 0.0
vn 1.0 0.0 0.0
vn 1.0 0.0 0.0
vn 1.0 0.0 0.0
vn 1.0 0.0 0.0
vn 0.0 0.0 1.0
vn 0.0 0.0 1.0
vn 0.0 0.0 1.0
vn 0.0 0.0 1.0
vn 0.0 0.0 1.0
vn 0.0 0.0 1.0
vn -0.0 -1.0 0.0
vn -0.0 -1.0 0.0
vn -0.0 -1.0 0.0
vn -0.0 -1.0 0.0
vn -0.0 -1.0 0.0
vn -0.0 -1.0 0.0
vn -0.0 1.0 0.0
vn -0.0 1.0 0.0
vn -0.0 1.0 0.0
vn -0.0 1.0 0.0
vn -0.0 1.0 0.0
vn -0.0 1.0 0.0
vn -1.0 0.0 -0.0
vn -1.0 0.0 -0.0
vn -1.0 0.0 -0.0
vn -1.0 0.0 -0.0
vn -1.0 0.0 -0.0
vn -1.0 0.0 -0.0
vn 0.0 0.0 -1.0
vn 0.0 0.0 -1.0
vn 0.0 0.0 -1.0
vn 0.0 0.0 -1.0
vn 0.0 0.0 -1.0
vn 0.0 0.0 -1.0
vn 1.0 0.0 0.0
vn 1.0 0.0 0.0
vn 1.0 0.0 0.0
vn 1.0 0.0 0.0
vn 1.0 0.0 0.0
vn 1.0 0.0 0.0
vn 0.0 0.0 1.0
vn 0.0 0.0 1.0
vn 0.0 0.0 1.0
vn 0.0 0.0 1.0
vn 0.0 0.0 1.0
vn 0.0 0.0 1.0
vn -0.0 -1.0 0.0
vn -0.0 -1.0 0.0
vn -0.0 -1.0 0.0
vn -0.0 -1.0 0.0
vn -0.0 -1.0 0.0
vn -0.0 -1.0 0.0
vn -0.0 1.0 0.0
vn -0.0 1.0 0.0
vn -0.0 1.0 0.0
vn -0.0 1.0 0.0
vn -0.0 1.0 0.0
vn -0.0 1.0 0.0
vn -1.0 0.0 -0.0
vn -1.0 0.0 -0.0
vn -1.0 0.0 -0.0
vn -1.0 0.0 -0.0
vn -1.0 0.0 -0.0
vn -1.0 0.0 -0.0
vn 0.0 0.0 -1.0
vn 0.0 -0.0 -1.0
vn 0.0 -0.0 -1.0
vn 0.0 -0.0 -1.0
vn 0.0 -0.0 -1.0
vn 0.0 -0.000001 -1.0
vn 1.0 0.0 0.0
vn 1.0 0.0 0.0
vn 1.0 0.0 0.0
vn 1.0 0.0 0.0
vn 1.0 0.0 0.0
vn 1.0 0.0 0.0
vn 0.0 0.0 1.0
vn 0.0 0.000001 1.0
vn 0.0 0.000001 1.0
vn 0.0 0.000001 1.0
vn 0.0 0.000001 1.0
vn 0.0 0.000001 1.0
vn 0.0 -1.0 0.0
vn 0.0 -1.0 0.0
vn 0.0 -1.0 0.0
vn 0.0 -1.0 0.0
vn 0.0 -1.0 0.0
vn 0.0 -1.0 0.0
vn -0.0 1.0 0.0
vn -0.0 1.0 0.0
vn -0.0 1.0 0.0
vn -0.0 1.0 0.0
vn -0.0 1.0 0.0
vn -0.0 1.0 0.0
vn -1.0 0.0 -0.0
vn -1.0 0.0 -0.0
vn -1.0 0.0 -0.0
vn -1.0 0.0 -0.0
vn -1.0 0.0 -0.0
vn -1.0 0.0 -0.0
vn 0.0 0.0 -1.0
vn 0.0 -0.0 -1.0
vn 0.0 -0.0 -1.0
vn 0.0 -0.0 -1.0
vn 0.0 -0.0 -1.0
vn 0.0 -0.0 -1.0
vn 1.0 0.0 0.0
vn 1.0 0.0 0.0
vn 1.0 0.0 0.0
vn 1.0 0.0 0.0
vn 1.0 0.0 0.0
vn 1.0 0.0 0.0
vn 0.0 0.0 1.0
vn 0.0 0.0 1.0
vn 0.0 0.0 1.0
vn 0.0 0.0 1.0
vn 0.0 0.0 1.0
vn 0.0 0.000001 1.0
vn 0.0 -1.0 0.0
vn 0.0 -1.0 0.0
vn 0.0 -1.0 0.0
vn 0.0 -1.0 0.0
vn 0.0 -1.0 0.0
vn 0.0 -1.0 0.0
vn 0.0 1.0 0.0
vn 0.0 1.0 0.0
vn 0.0 1.0 0.0
vn 0.0 1.0 0.0
vn 0.0 1.0 0.0
vn 0.0 1.0 0.0
vn -1.0 0.0 -0.0
vn -1.0 0.0 -0.0
vn -1.0 0.0 -0.0
vn -1.0 0.0 -0.0
vn -1.0 0.0 -0.0
vn -1.0 0.0 -0.0
vn 0.0 0.0 -1.0
vn 0.0 0.0 -1.0
vn 0.0 0.0 -1.0
vn 0.0 0.0 -1.0
vn 0.0 0.0 -1.0
vn 0.0 0.0 -1.0
vn 1.0 0.0 0.0
vn 1.0 0.0 0.0
vn 1.0 0.0 0.0
vn 1.0 0.0 0.0
vn 1.0 0.0 0.0
vn 1.0 0.0 0.0
vn 0.0 0.0 1.0
vn 0.0 0.0 1.0
vn 0.0 0.0 1.0
vn 0.0 0.0 1.0
vn 0.0 0.0 1.0
vn 0.0 0.0 1.0
vn -0.0 -1.0 0.0
vn -0.0 -1.0 0.0
vn -0.0 -1.0 0.0
vn -0.0 -1.0 0.0
vn -0.0 -1.0 0.0
vn -0.0 -1.0 0.0
vn -0.0 1.0 0.0
vn -0.0 1.0 0.0
vn -0.0 1.0 0.0
vn -0.0 1.0 0.0
vn -0.0 1.0 0.0
vn -0.0 1.0 0.0

# 144 Ungrouped triangles

o ungrouped
g ungrouped

f 1/1/1 2/2/2 3/3/3
f 3/4/4 2/5/5 4/6/6
f 3/7/7 4/8/8 7/9/9
f 7/10/10 4/11/11 8/12/12
f 7/13/13 8/14/14 5/15/15
f 5/16/16 8/17/17 6/18/18
f 5/19/19 6/20/20 1/21/21
f 1/22/22 6/23/23 2/24/24
f 3/25/25 7/26/26 1/27/27
f 1/28/28 7/29/29 5/30/30
f 8/31/31 4/32/32 6/33/33
f 6/34/34 4/35/35 2/36/36
f 9/37/37 11/38/38 10/39/39
f 10/40/40 11/41/41 12/42/42
f 11/43/43 15/44/44 12/45/45
f 12/46/46 15/47/47 16/48/48
f 15/49/49 13/50/50 16/51/51
f 16/52/52 13/53/53 14/54/54
f 13/55/55 9/56/56 14/57/57
f 14/58/58 9/59/59 10/60/60
f 11/61/61 9/62/62 15/63/63
f 15/64/64 9/65/65 13/66/66
f 16/67/67 14/68/68 12/69/69
f 12/70/70 14/71/71 10/72/72
f 17/73/73 18/74/74 19/75/75
f 19/76/76 18/77/77 20/78/78
f 19/79/79 20/80/80 23/81/81
f 23/82/82 20/83/83 24/84/84
f 23/85/85 24/86/86 21/87/87
f 21/88/88 24/89/89 22/90/90
f 21/91/91 22/92/92 17/93/93
f 17/94/94 22/95/95 18/96/96
f 19/97/97 23/98/98 17/99/99
f 17/100/100 23/101/101 21/102/102
f 24/103/103 20/104/104 22/105/105
f 22/106/106 20/107/107 18/108/108
f 25/109/109 26/110/110 27/111/111
f 27/112/112 26/113/113 28/114/114
f 27/115/115 28/116/116 31/117/117
f 31/118/118 28/119/119 32/120/120
f 31/121/121 32/122/122 29/123/123
f 29/124/124 32/125/125 30/126/126
f 29/127/127 30/128/128 25/129/129
f 25/130/130 30/131/131 26/132/132
f 27/133/133 31/134/134 25/135/135
f 25/136/136 31/137/137 29/138/138
f 32/139/139 28/140/140 30/141/141
f 30/142/142 28/143/143 26/144/144
f 33/145/145 34/146/146 35/147/147
f 35/148/148 34/149/149 36/150/150
f 35/151/151 36/152/152 39/153/153
f 39/154/154 36/155/155 40/156/156
f 39/157/157 40/158/158 37/159/159
f 37/160/160 40/161/161 38/162/162
f 37/163/163 38/164/164 33/165/165
f 33/166/166 38/167/167 34/168/168
f 35/169/169 39/170/170 33/171/171
f 33/172/172 39/173/173 37/174/174
f 40/175/175 36/176/176 38/177/177
f 38/178/178 36/179/179 34/180/180
f 41/181/181 42/182/182 43/183/183
f 43/184/184 42/185/185 44/186/186
f 43/187/187 44/188/188 47/189/189
f 47/190/190 44/191/191 48/192/192
f 47/193/193 48/194/194 45/195/195
f 45/196/196 48/197/197 46/198/198
f 45/199/199 46/200/200 41/201/201
f 41/202/202 46/203/203 42/204/204
f 43/205/205 47/206/206 41/207/207
f 41/208/208 47/209/209 45/210/210
f 48/211/211 44/212/212 46/213/213
f 46/214/214 44/215/215 42/216/216
f 49/217/217 50/218/218 51/219/219
f 51/220/220 50/221/221 52/222/222
f 51/223/223 52/224/224 55/225/225
f 55/226/226 52/227/227 56/228/228
f 55/229/229 56/230/230 53/231/231
f 53/232/232 56/233/233 54/234/234
f 53/235/235 54/236/236 49/237/237
f 49/238/238 54/239/239 50/240/240
f 51/241/241 55/242/242 49/243/243
f 49/244/244 55/245/245 53/246/246
f 56/247/247 52/248/248 54/249/249
f 54/250/250 52/251/251 50/252/252
f 57/253/253 58/254/254 59/255/255
f 59/256/256 58/257/257 60/258/258
f 59/259/259 60/260/260 63/261/261
f 63/262/262 60/263/263 64/264/264
f 63/265/265 64/266/266 61/267/267
f 61/268/268 64/269/269 62/270/270
f 61/271/271 62/272/272 57/273/273
f 57/274/274 62/275/275 58/276/276
f 59/277/277 63/278/278 57/279/279
f 57/280/280 63/281/281 61/282/282
f 64/283/283 60/284/284 62/285/285
f 62/286/286 60/287/287 58/288/288
f 65/289/289 66/290/290 67/291/291
f 67/292/292 66/293/293 68/294/294
f 67/295/295 68/296/296 71/297/297
f 71/298/298 68/299/299 72/300/300
f 71/301/301 72/302/302 69/303/303
f 69/304/304 72/305/305 70/306/306
f 69/307/307 70/308/308 65/309/309
f 65/310/310 70/311/311 66/312/312
f 67/313/313 71/314/314 65/315/315
f 65/316/316 71/317/317 69/318/318
f 72/319/319 68/320/320 70/321/321
f 70/322/322 68/323/323 66/324/324
f 73/325/325 74/326/326 75/327/327
f 75/328/328 74/329/329 76/330/330
f 75/331/331 76/332/332 79/333/333
f 79/334/334 76/335/335 80/336/336
f 79/337/337 80/338/338 77/339/339
f 77/340/340 80/341/341 78/342/342
f 77/343/343 78/344/344 73/345/345
f 73/346/346 78/347/347 74/348/348
f 75/349/349 79/350/350 73/351/351
f 73/352/352 79/353/353 77/354/354
f 80/355/355 76/356/356 78/357/357
f 78/358/358 76/359/359 74/360/360
f 81/361/361 82/362/362 83/363/363
f 83/364/364 82/365/365 84/366/366
f 83/367/367 84/368/368 87/369/369
f 87/370/370 84/371/371 88/372/372
f 87/373/373 88/374/374 85/375/375
f 85/376/376 88/377/377 86/378/378
f 85/379/379 86/380/380 81/381/381
f 81/382/382 86/383/383 82/384/384
f 83/385/385 87/386/386 81/387/387
f 81/388/388 87/389/389 85/390/390
f 88/391/391 84/392/392 86/393/393
f 86/394/394 84/395/395 82/396/396
f 89/397/397 90/398/398 91/399/399
f 91/400/400 90/401/401 92/402/402
f 91/403/403 92/404/404 95/405/405
f 95/406/406 92/407/407 96/408/408
f 95/409/409 96/410/410 93/411/411
f 93/412/412 96/413/413 94/414/414
f 93/415/415 94/416/416 89/417/417
f 89/418/418 94/419/419 90/420/420
f 91/421/421 95/422/422 89/423/423
f 89/424/424 95/425/425 93/426/426
f 96/427/427 92/428/428 94/429/429
f 94/430/430 92/431/431 90/432/432
