# Blender 3.4.1
# www.blender.org
mtllib tris.mtl
o Pot_04
v 0.000000 0.004566 0.000000
v 0.002137 0.006199 0.001553
v -0.000816 0.006199 0.002512
v -0.002642 0.006199 0.000000
v -0.000816 0.006199 -0.002512
v 0.002137 0.006199 -0.001553
v 0.000816 0.008840 0.002512
v -0.002137 0.008840 0.001553
v -0.002137 0.008840 -0.001553
v 0.000816 0.008840 -0.002512
v 0.002642 0.008840 0.000000
v 0.000000 0.010473 0.000000
v 0.000000 0.000326 -0.001286
v 0.000000 0.002899 -0.001781
v 0.000910 0.000326 -0.000910
v 0.001260 0.002899 -0.001260
v 0.001286 0.000326 0.000000
v 0.001781 0.002899 0.000000
v 0.000910 0.000326 0.000910
v 0.001260 0.002899 0.001260
v -0.000000 0.000326 0.001286
v -0.000000 0.002899 0.001781
v -0.000910 0.000326 0.000910
v -0.001260 0.002899 0.001260
v -0.001286 0.000326 0.000000
v -0.001781 0.002899 0.000000
v -0.000910 0.000326 -0.000910
v -0.001260 0.002899 -0.001260
v 0.000000 0.000000 -0.001286
v 0.000910 0.000000 -0.000910
v 0.001286 -0.000000 0.000000
v 0.000910 -0.000000 0.000910
v -0.000000 -0.000000 0.001286
v -0.000910 -0.000000 0.000910
v -0.001286 0.000000 -0.000000
v -0.000910 0.000000 -0.000910
v 0.000000 0.002899 -0.001939
v 0.001371 0.002899 -0.001371
v 0.001939 0.002899 0.000000
v 0.001371 0.002899 0.001371
v -0.000000 0.002899 0.001939
v -0.001371 0.002899 0.001371
v -0.001939 0.002899 0.000000
v -0.001371 0.002899 -0.001371
v 0.000000 0.003429 -0.001746
v 0.001235 0.003429 -0.001235
v 0.001746 0.003429 0.000000
v 0.001235 0.003429 0.001235
v -0.000000 0.003429 0.001746
v -0.001235 0.003429 0.001235
v -0.001746 0.003429 0.000000
v -0.001235 0.003429 -0.001235
v 0.001371 0.003429 -0.001371
v 0.000000 0.003429 -0.001939
v 0.001939 0.003429 0.000000
v 0.001371 0.003429 0.001371
v -0.000000 0.003429 0.001939
v -0.001371 0.003429 0.001371
v -0.001939 0.003429 0.000000
v -0.001371 0.003429 -0.001371
v 0.001235 0.003144 -0.001235
v 0.000000 0.003144 -0.001746
v 0.001746 0.003144 0.000000
v 0.001235 0.003144 0.001235
v -0.000000 0.003144 0.001746
v -0.001235 0.003144 0.001235
v -0.001746 0.003144 0.000000
v -0.001235 0.003144 -0.001235
v 0.000000 0.002851 -0.000237
v 0.000000 0.005033 -0.000237
v 0.000206 0.002851 -0.000119
v 0.000206 0.005033 -0.000119
v 0.000206 0.002851 0.000119
v 0.000206 0.005033 0.000119
v -0.000000 0.002851 0.000237
v -0.000000 0.005033 0.000237
v -0.000206 0.002851 0.000119
v -0.000206 0.005033 0.000119
v -0.000206 0.002851 -0.000119
v -0.000206 0.005033 -0.000119
vn 0.1876 -0.7947 0.5774
vn 0.6071 -0.7947 -0.0000
vn -0.4911 -0.7947 0.3568
vn -0.4911 -0.7947 -0.3568
vn 0.1876 -0.7947 -0.5774
vn 0.9822 -0.1876 -0.0000
vn 0.3035 -0.1876 0.9342
vn -0.7946 -0.1876 0.5774
vn -0.7946 -0.1876 -0.5774
vn 0.3035 -0.1876 -0.9342
vn 0.7946 0.1876 0.5774
vn -0.3035 0.1876 0.9342
vn -0.9822 0.1876 -0.0000
vn -0.3035 0.1876 -0.9342
vn 0.7946 0.1876 -0.5774
vn 0.4911 0.7947 0.3568
vn -0.1876 0.7947 0.5774
vn -0.6071 0.7947 -0.0000
vn -0.1876 0.7947 -0.5774
vn 0.4911 0.7947 -0.3568
vn 0.3768 -0.1750 -0.9096
vn 0.9096 -0.1750 -0.3768
vn 0.9096 -0.1750 0.3768
vn 0.3768 -0.1750 0.9096
vn -0.3768 -0.1750 0.9096
vn -0.9096 -0.1750 0.3768
vn -0.0000 -1.0000 -0.0000
vn -0.9096 -0.1750 -0.3768
vn -0.3768 -0.1750 -0.9096
vn 0.9239 -0.0000 0.3827
vn -0.9239 -0.0000 0.3827
vn 0.3827 -0.0000 0.9239
vn -0.9239 -0.0000 -0.3827
vn 0.9239 -0.0000 -0.3827
vn -0.3827 -0.0000 0.9239
vn -0.3827 -0.0000 -0.9239
vn 0.3827 -0.0000 -0.9239
vn -0.0000 1.0000 -0.0000
vn 0.5000 -0.0000 -0.8660
vn 1.0000 -0.0000 -0.0000
vn 0.5000 -0.0000 0.8660
vn -0.5000 -0.0000 0.8660
vn -1.0000 -0.0000 -0.0000
vn -0.5000 -0.0000 -0.8660
vt 0.557428 0.493810
vt 0.583611 0.513813
vt 0.547427 0.513813
vt 0.525063 0.513813
vt 0.547427 0.513813
vt 0.583611 0.513813
vt 0.567428 0.546177
vt 0.531245 0.546177
vt 0.531245 0.546177
vt 0.567428 0.546177
vt 0.589792 0.546177
vt 0.557428 0.566179
vt 0.470606 0.091110
vt 0.470606 0.100112
vt 0.473789 0.091110
vt 0.475013 0.100112
vt 0.475107 0.091110
vt 0.476838 0.100112
vt 0.473789 0.091110
vt 0.475013 0.100112
vt 0.470606 0.091110
vt 0.470606 0.100112
vt 0.467424 0.091110
vt 0.466199 0.100112
vt 0.466105 0.091110
vt 0.464374 0.100112
vt 0.467424 0.091110
vt 0.466199 0.100112
vt 0.470606 0.089968
vt 0.473789 0.089968
vt 0.475107 0.089968
vt 0.473789 0.089968
vt 0.470606 0.089968
vt 0.467424 0.089968
vt 0.466105 0.089968
vt 0.467424 0.089968
vt 0.470606 0.100112
vt 0.475404 0.100112
vt 0.477391 0.100112
vt 0.475404 0.100112
vt 0.470606 0.100112
vt 0.465809 0.100112
vt 0.463821 0.100112
vt 0.465809 0.100112
vt 0.470606 0.101965
vt 0.474927 0.101965
vt 0.476716 0.101965
vt 0.474927 0.101965
vt 0.470606 0.101965
vt 0.466286 0.101965
vt 0.464496 0.101965
vt 0.466286 0.101965
vt 0.475404 0.101965
vt 0.470606 0.101965
vt 0.477391 0.101965
vt 0.475404 0.101965
vt 0.470606 0.101965
vt 0.465809 0.101965
vt 0.463821 0.101965
vt 0.465809 0.101965
vt 0.103348 0.350736
vt 0.474927 0.100967
vt 0.099028 0.350736
vt 0.470606 0.100967
vt 0.105138 0.350736
vt 0.476716 0.100967
vt 0.103348 0.350736
vt 0.474927 0.100967
vt 0.099028 0.350736
vt 0.470606 0.100967
vt 0.094707 0.350736
vt 0.466286 0.100967
vt 0.092918 0.350736
vt 0.464496 0.100967
vt 0.094707 0.350736
vt 0.466286 0.100967
vt 0.348797 0.093792
vt 0.348797 0.101424
vt 0.349517 0.093792
vt 0.349517 0.101424
vt 0.349517 0.093792
vt 0.349517 0.101424
vt 0.348797 0.093792
vt 0.348797 0.101424
vt 0.348078 0.093792
vt 0.348078 0.101424
vt 0.348078 0.093792
vt 0.348078 0.101424
s 1
usemtl City_05.014
f 1/1/1 2/2/1 3/3/1
f 2/2/2 1/1/2 6/6/2
f 1/1/3 3/3/3 4/4/3
f 1/1/4 4/4/4 5/5/4
f 1/1/5 5/5/5 6/6/5
f 2/2/6 6/6/6 11/11/6
f 3/3/7 2/2/7 7/7/7
f 4/4/8 3/3/8 8/8/8
f 5/5/9 4/4/9 9/9/9
f 6/6/10 5/5/10 10/10/10
f 2/2/11 11/11/11 7/7/11
f 3/3/12 7/7/12 8/8/12
f 4/4/13 8/8/13 9/9/13
f 5/5/14 9/9/14 10/10/14
f 6/6/15 10/10/15 11/11/15
f 7/7/16 11/11/16 12/12/16
f 8/8/17 7/7/17 12/12/17
f 9/9/18 8/8/18 12/12/18
f 10/10/19 9/9/19 12/12/19
f 11/11/20 10/10/20 12/12/20
f 13/13/21 14/14/21 15/15/21
f 15/15/21 14/14/21 16/16/21
f 15/15/22 16/16/22 17/17/22
f 17/17/22 16/16/22 18/18/22
f 17/17/23 18/18/23 19/19/23
f 19/19/23 18/18/23 20/20/23
f 19/19/24 20/20/24 21/21/24
f 21/21/24 20/20/24 22/22/24
f 21/21/25 22/22/25 23/23/25
f 23/23/25 22/22/25 24/24/25
f 23/23/26 24/24/26 25/25/26
f 25/25/26 24/24/26 26/26/26
f 28/28/27 26/26/27 44/44/27
f 44/44/27 26/26/27 43/43/27
f 25/25/28 26/26/28 27/27/28
f 27/27/28 26/26/28 28/28/28
f 27/27/29 28/28/29 13/13/29
f 13/13/29 28/28/29 14/14/29
f 17/17/30 19/19/30 31/31/30
f 31/31/30 19/19/30 32/32/30
f 29/29/27 30/30/27 36/36/27
f 30/30/27 31/31/27 36/36/27
f 31/31/27 32/32/27 36/36/27
f 32/32/27 33/33/27 36/36/27
f 33/33/27 34/34/27 36/36/27
f 34/34/27 35/35/27 36/36/27
f 23/23/31 25/25/31 34/34/31
f 34/34/31 25/25/31 35/35/31
f 19/19/32 21/21/32 32/32/32
f 32/32/32 21/21/32 33/33/32
f 25/25/33 27/27/33 35/35/33
f 35/35/33 27/27/33 36/36/33
f 15/15/34 17/17/34 30/30/34
f 30/30/34 17/17/34 31/31/34
f 21/21/35 23/23/35 33/33/35
f 33/33/35 23/23/35 34/34/35
f 27/27/36 13/13/36 36/36/36
f 36/36/36 13/13/36 29/29/36
f 13/13/37 15/15/37 29/29/37
f 29/29/37 15/15/37 30/30/37
f 40/40/30 39/39/30 56/56/30
f 56/56/30 39/39/30 55/55/30
f 18/18/27 16/16/27 39/39/27
f 39/39/27 16/16/27 38/38/27
f 24/24/27 22/22/27 42/42/27
f 42/42/27 22/22/27 41/41/27
f 14/14/27 28/28/27 37/37/27
f 37/37/27 28/28/27 44/44/27
f 16/16/27 14/14/27 38/38/27
f 38/38/27 14/14/27 37/37/27
f 20/20/27 18/18/27 40/40/27
f 40/40/27 18/18/27 39/39/27
f 26/26/27 24/24/27 43/43/27
f 43/43/27 24/24/27 42/42/27
f 22/22/27 20/20/27 41/41/27
f 41/41/27 20/20/27 40/40/27
f 49/49/36 48/48/36 65/70/36
f 65/70/36 48/48/36 64/68/36
f 38/38/37 37/37/37 53/53/37
f 53/53/37 37/37/37 54/54/37
f 37/37/36 44/44/36 54/54/36
f 54/54/36 44/44/36 60/60/36
f 43/43/31 42/42/31 59/59/31
f 59/59/31 42/42/31 58/58/31
f 41/41/32 40/40/32 57/57/32
f 57/57/32 40/40/32 56/56/32
f 39/39/34 38/38/34 55/55/34
f 55/55/34 38/38/34 53/53/34
f 44/44/33 43/43/33 60/60/33
f 60/60/33 43/43/33 59/59/33
f 42/42/35 41/41/35 58/58/35
f 58/58/35 41/41/35 57/57/35
f 45/45/38 46/46/38 54/54/38
f 54/54/38 46/46/38 53/53/38
f 46/46/38 47/47/38 53/53/38
f 53/53/38 47/47/38 55/55/38
f 47/47/38 48/48/38 55/55/38
f 55/55/38 48/48/38 56/56/38
f 48/48/38 49/49/38 56/56/38
f 56/56/38 49/49/38 57/57/38
f 49/49/38 50/50/38 57/57/38
f 57/57/38 50/50/38 58/58/38
f 50/50/38 51/51/38 58/58/38
f 58/58/38 51/51/38 59/59/38
f 51/51/38 52/52/38 59/59/38
f 59/59/38 52/52/38 60/60/38
f 52/52/38 45/45/38 60/60/38
f 60/60/38 45/45/38 54/54/38
f 61/61/38 62/63/38 63/65/38
f 62/63/38 68/75/38 63/65/38
f 68/75/38 67/73/38 63/65/38
f 67/73/38 66/71/38 63/65/38
f 66/71/38 65/69/38 63/65/38
f 65/69/38 64/67/38 63/65/38
f 47/47/31 46/46/31 63/66/31
f 63/66/31 46/46/31 61/62/31
f 52/52/30 51/51/30 68/76/30
f 68/76/30 51/51/30 67/74/30
f 50/50/37 49/49/37 66/72/37
f 66/72/37 49/49/37 65/70/37
f 48/48/33 47/47/33 64/68/33
f 64/68/33 47/47/33 63/66/33
f 46/46/35 45/45/35 61/62/35
f 61/62/35 45/45/35 62/64/35
f 45/45/32 52/52/32 62/64/32
f 62/64/32 52/52/32 68/76/32
f 51/51/34 50/50/34 67/74/34
f 67/74/34 50/50/34 66/72/34
f 69/77/39 70/78/39 71/79/39
f 71/79/39 70/78/39 72/80/39
f 71/79/40 72/80/40 73/81/40
f 73/81/40 72/80/40 74/82/40
f 73/81/41 74/82/41 75/83/41
f 75/83/41 74/82/41 76/84/41
f 75/83/42 76/84/42 77/85/42
f 77/85/42 76/84/42 78/86/42
f 72/80/38 70/78/38 74/82/38
f 70/78/38 80/88/38 74/82/38
f 80/88/38 78/86/38 74/82/38
f 78/86/38 76/84/38 74/82/38
f 77/85/43 78/86/43 79/87/43
f 79/87/43 78/86/43 80/88/43
f 79/87/44 80/88/44 69/77/44
f 69/77/44 80/88/44 70/78/44
f 69/77/27 71/79/27 79/87/27
f 71/79/27 73/81/27 79/87/27
f 73/81/27 75/83/27 79/87/27
f 75/83/27 77/85/27 79/87/27
