# Blender 3.4.1
# www.blender.org
mtllib tris.mtl
o RoadSign_03
v -0.000000 0.000000 -0.000303
v -0.000000 0.017627 -0.000303
v 0.000214 0.000000 -0.000214
v 0.000214 0.017627 -0.000214
v 0.000303 -0.000000 0.000000
v 0.000303 0.017627 0.000000
v 0.000214 -0.000000 0.000214
v 0.000214 0.017627 0.000214
v -0.000000 -0.000000 0.000303
v -0.000000 0.017627 0.000303
v -0.000214 -0.000000 0.000214
v -0.000214 0.017627 0.000214
v -0.000303 -0.000000 -0.000000
v -0.000303 0.017627 0.000000
v -0.000214 0.000000 -0.000214
v -0.000214 0.017627 -0.000214
v -0.002160 0.014902 0.000411
v -0.002160 0.015346 0.000411
v -0.002160 0.014902 0.000250
v -0.002160 0.015346 0.000250
v 0.002160 0.014902 0.000411
v 0.002160 0.015346 0.000411
v 0.002160 0.014902 0.000250
v 0.002160 0.015346 0.000250
v -0.000228 0.012361 0.000789
v 0.000228 0.012361 0.000789
v -0.000046 0.012150 0.000789
v -0.000000 0.012134 0.000789
v 0.000046 0.012150 0.000789
v 0.000690 0.012033 0.000350
v -0.000690 0.012033 0.000350
v 0.000374 0.011666 0.000350
v -0.000000 0.011537 0.000350
v -0.000374 0.011666 0.000350
v 0.002830 0.016867 0.000789
v 0.002602 0.017263 0.000789
v 0.002922 0.017131 0.000789
v 0.002912 0.017178 0.000789
v 0.002876 0.017210 0.000789
v 0.002655 0.017827 0.000350
v 0.003346 0.016631 0.000350
v 0.003131 0.017736 0.000350
v 0.003429 0.017477 0.000350
v 0.003505 0.017089 0.000350
v -0.002602 0.017263 0.000789
v -0.002830 0.016867 0.000789
v -0.002876 0.017210 0.000789
v -0.002912 0.017178 0.000789
v -0.002922 0.017131 0.000789
v -0.003346 0.016631 0.000350
v -0.002655 0.017827 0.000350
v -0.003505 0.017089 0.000350
v -0.003429 0.017477 0.000350
v -0.003131 0.017736 0.000350
v -0.000374 0.011666 0.000789
v -0.000690 0.012033 0.000789
v -0.000000 0.011537 0.000789
v 0.000374 0.011666 0.000789
v 0.000690 0.012033 0.000789
v 0.002655 0.017827 0.000789
v 0.003131 0.017736 0.000789
v 0.003429 0.017477 0.000789
v 0.003505 0.017089 0.000789
v 0.003346 0.016631 0.000789
v -0.003346 0.016631 0.000789
v -0.003505 0.017089 0.000789
v -0.003429 0.017477 0.000789
v -0.003131 0.017736 0.000789
v -0.002655 0.017827 0.000789
vn 0.3827 -0.0000 -0.9239
vn 0.9239 -0.0000 -0.3827
vn 0.9239 -0.0000 0.3827
vn 0.3827 -0.0000 0.9239
vn -0.3827 -0.0000 0.9239
vn -0.9239 -0.0000 0.3827
vn -0.0000 1.0000 -0.0000
vn -0.9239 -0.0000 -0.3827
vn -0.3827 -0.0000 -0.9239
vn -0.0000 -1.0000 -0.0000
vn -1.0000 -0.0000 -0.0000
vn -0.0000 -0.0000 -1.0000
vn 1.0000 -0.0000 -0.0000
vn -0.0000 -0.0000 1.0000
vn -0.8660 -0.5000 -0.0000
vn 0.8660 -0.5000 -0.0000
vn -0.7567 -0.6538 -0.0000
vn -0.3257 -0.9455 -0.0000
vn 0.3257 -0.9455 -0.0000
vn 0.7567 -0.6538 -0.0000
vn 0.1879 0.9822 -0.0000
vn 0.6559 0.7548 -0.0000
vn 0.9817 0.1906 -0.0000
vn 0.9445 -0.3284 -0.0000
vn -0.9445 -0.3284 -0.0000
vn -0.9817 0.1906 -0.0000
vn -0.6559 0.7548 -0.0000
vn -0.1879 0.9822 -0.0000
vt 0.660237 0.011675
vt 0.660237 0.054426
vt 0.660756 0.011675
vt 0.660756 0.054426
vt 0.660971 0.011675
vt 0.660971 0.054426
vt 0.660756 0.011675
vt 0.660756 0.054426
vt 0.660237 0.011675
vt 0.660237 0.054426
vt 0.659717 0.011675
vt 0.659717 0.054426
vt 0.659502 0.011675
vt 0.659502 0.054426
vt 0.659717 0.011675
vt 0.659717 0.054426
vt 0.654998 0.047816
vt 0.654998 0.048892
vt 0.654998 0.047816
vt 0.654998 0.048892
vt 0.665475 0.047816
vt 0.665475 0.048892
vt 0.665475 0.047816
vt 0.665475 0.048892
vt 0.842767 0.024120
vt 0.286408 0.222814
vt 0.844992 0.024120
vt 0.288048 0.222814
vt 0.843655 0.023092
vt 0.287063 0.222057
vt 0.843880 0.023015
vt 0.287228 0.222000
vt 0.844104 0.023092
vt 0.287393 0.222057
vt 0.289708 0.221635
vt 0.284749 0.221635
vt 0.288570 0.220318
vt 0.287228 0.219856
vt 0.285887 0.220318
vt 0.857668 0.046076
vt 0.297391 0.238996
vt 0.856555 0.048002
vt 0.296571 0.240416
vt 0.858114 0.047359
vt 0.297719 0.239942
vt 0.858069 0.047592
vt 0.297686 0.240113
vt 0.857890 0.047747
vt 0.297554 0.240228
vt 0.296763 0.242443
vt 0.299242 0.238149
vt 0.298472 0.242116
vt 0.299543 0.241185
vt 0.299813 0.239792
vt 0.831204 0.048003
vt 0.277886 0.240416
vt 0.830091 0.046076
vt 0.277066 0.238996
vt 0.829869 0.047747
vt 0.276902 0.240228
vt 0.829690 0.047592
vt 0.276771 0.240113
vt 0.829645 0.047359
vt 0.276737 0.239942
vt 0.275215 0.238149
vt 0.277694 0.242443
vt 0.274643 0.239792
vt 0.274914 0.241185
vt 0.275985 0.242116
vt 0.285887 0.220318
vt 0.284749 0.221635
vt 0.287228 0.219856
vt 0.288570 0.220318
vt 0.289708 0.221635
vt 0.296763 0.242443
vt 0.298472 0.242116
vt 0.299543 0.241185
vt 0.299813 0.239792
vt 0.299242 0.238149
vt 0.275215 0.238149
vt 0.274643 0.239792
vt 0.274914 0.241185
vt 0.275985 0.242116
vt 0.277694 0.242443
s 1
usemtl City_05.045
f 1/1/1 2/2/1 3/3/1
f 3/3/1 2/2/1 4/4/1
f 3/3/2 4/4/2 5/5/2
f 5/5/2 4/4/2 6/6/2
f 5/5/3 6/6/3 7/7/3
f 7/7/3 6/6/3 8/8/3
f 7/7/4 8/8/4 9/9/4
f 9/9/4 8/8/4 10/10/4
f 9/9/5 10/10/5 11/11/5
f 11/11/5 10/10/5 12/12/5
f 11/11/6 12/12/6 13/13/6
f 13/13/6 12/12/6 14/14/6
f 4/4/7 2/2/7 6/6/7
f 2/2/7 16/16/7 6/6/7
f 16/16/7 14/14/7 6/6/7
f 14/14/7 12/12/7 6/6/7
f 12/12/7 10/10/7 6/6/7
f 10/10/7 8/8/7 6/6/7
f 13/13/8 14/14/8 15/15/8
f 15/15/8 14/14/8 16/16/8
f 15/15/9 16/16/9 1/1/9
f 1/1/9 16/16/9 2/2/9
f 1/1/10 3/3/10 15/15/10
f 3/3/10 5/5/10 15/15/10
f 5/5/10 7/7/10 15/15/10
f 7/7/10 9/9/10 15/15/10
f 9/9/10 11/11/10 15/15/10
f 11/11/10 13/13/10 15/15/10
f 17/17/11 18/18/11 19/19/11
f 19/19/11 18/18/11 20/20/11
f 19/19/12 20/20/12 23/23/12
f 23/23/12 20/20/12 24/24/12
f 23/23/13 24/24/13 21/21/13
f 21/21/13 24/24/13 22/22/13
f 21/21/14 22/22/14 17/17/14
f 17/17/14 22/22/14 18/18/14
f 19/19/10 23/23/10 17/17/10
f 17/17/10 23/23/10 21/21/10
f 24/24/7 20/20/7 22/22/7
f 22/22/7 20/20/7 18/18/7
f 65/80/15 50/65/15 56/71/15
f 56/71/15 50/65/15 31/36/15
f 60/75/7 40/50/7 69/84/7
f 69/84/7 40/50/7 51/66/7
f 43/53/12 44/54/12 42/52/12
f 42/52/12 44/54/12 40/50/12
f 44/54/12 41/51/12 40/50/12
f 40/50/12 41/51/12 51/66/12
f 41/51/12 30/35/12 51/66/12
f 30/35/12 32/37/12 51/66/12
f 32/37/12 33/38/12 51/66/12
f 33/38/12 34/39/12 51/66/12
f 34/39/12 31/36/12 51/66/12
f 51/66/12 31/36/12 54/69/12
f 54/69/12 31/36/12 53/68/12
f 52/67/12 53/68/12 50/65/12
f 31/36/12 50/65/12 53/68/12
f 59/74/16 30/35/16 64/79/16
f 64/79/16 30/35/16 41/51/16
f 56/71/17 31/36/17 55/70/17
f 55/70/17 31/36/17 34/39/17
f 55/70/18 34/39/18 57/72/18
f 57/72/18 34/39/18 33/38/18
f 57/72/19 33/38/19 58/73/19
f 58/73/19 33/38/19 32/37/19
f 58/73/20 32/37/20 59/74/20
f 59/74/20 32/37/20 30/35/20
f 40/50/21 60/75/21 42/52/21
f 42/52/21 60/75/21 61/76/21
f 42/52/22 61/76/22 43/53/22
f 43/53/22 61/76/22 62/77/22
f 43/53/23 62/77/23 44/54/23
f 44/54/23 62/77/23 63/78/23
f 44/54/24 63/78/24 41/51/24
f 41/51/24 63/78/24 64/79/24
f 50/65/25 65/80/25 52/67/25
f 52/67/25 65/80/25 66/81/25
f 52/67/26 66/81/26 53/68/26
f 53/68/26 66/81/26 67/82/26
f 53/68/27 67/82/27 54/69/27
f 54/69/27 67/82/27 68/83/27
f 54/69/28 68/83/28 51/66/28
f 51/66/28 68/83/28 69/84/28
f 28/31/14 29/33/14 27/29/14
f 27/29/14 29/33/14 25/25/14
f 29/33/14 26/27/14 25/25/14
f 25/25/14 26/27/14 46/57/14
f 38/46/14 39/48/14 37/44/14
f 37/44/14 39/48/14 35/40/14
f 39/48/14 36/42/14 35/40/14
f 35/40/14 36/42/14 26/27/14
f 48/61/14 49/63/14 47/59/14
f 47/59/14 49/63/14 45/55/14
f 49/63/14 46/57/14 45/55/14
f 46/57/14 26/27/14 45/55/14
f 26/27/14 36/42/14 45/55/14
f 25/26/14 56/71/14 27/30/14
f 27/30/14 56/71/14 55/70/14
f 27/30/14 55/70/14 28/32/14
f 28/32/14 55/70/14 57/72/14
f 29/34/14 28/32/14 58/73/14
f 28/32/14 57/72/14 58/73/14
f 26/28/14 29/34/14 59/74/14
f 59/74/14 29/34/14 58/73/14
f 36/43/14 39/49/14 60/75/14
f 60/75/14 39/49/14 61/76/14
f 39/49/14 38/47/14 61/76/14
f 38/47/14 62/77/14 61/76/14
f 37/45/14 63/78/14 38/47/14
f 38/47/14 63/78/14 62/77/14
f 35/41/14 64/79/14 37/45/14
f 37/45/14 64/79/14 63/78/14
f 46/58/14 49/64/14 65/80/14
f 65/80/14 49/64/14 66/81/14
f 49/64/14 48/62/14 66/81/14
f 48/62/14 67/82/14 66/81/14
f 47/60/14 68/83/14 48/62/14
f 48/62/14 68/83/14 67/82/14
f 45/56/14 69/84/14 47/60/14
f 47/60/14 69/84/14 68/83/14
f 25/26/14 46/58/14 56/71/14
f 56/71/14 46/58/14 65/80/14
f 35/41/14 26/28/14 64/79/14
f 64/79/14 26/28/14 59/74/14
f 45/56/14 36/43/14 69/84/14
f 69/84/14 36/43/14 60/75/14
