# Blender 3.4.1
# www.blender.org
mtllib tent2LOD.mtl
o Tent_01_LOD2
v 0.059866 2.698009 0.002319
v 0.038093 2.671817 -0.020224
v 0.041391 2.689862 -0.043724
v 0.033406 2.711954 -0.036152
v 0.000000 2.703952 -0.061835
v -0.014348 2.729475 -0.047333
v -0.001153 2.684971 -0.046101
v -0.043601 2.704571 -0.040461
v -0.023868 2.712078 -0.027490
v -0.058536 2.723880 -0.000000
v -0.038676 2.737154 0.022357
v -0.049609 2.701194 -0.000583
v -0.043292 2.703063 0.040696
v -0.025392 2.712596 0.026823
v 0.000000 2.703952 0.061835
v 0.008137 2.719581 0.045028
v -0.006546 2.686533 0.046073
v 0.035466 2.679750 0.041374
v 0.039617 2.710951 0.031234
v 0.034177 2.687665 0.009773
v 0.063099 2.732468 0.000000
v 0.039921 2.742062 0.000000
v 0.056693 2.708426 0.000000
v 0.047372 2.712928 -0.045005
v 0.026959 2.736915 -0.035395
v -0.005128 2.718631 -0.065019
v -0.020929 2.708703 -0.041005
v 0.019265 2.696037 -0.048820
v -0.047372 2.698700 -0.045005
v -0.026959 2.674714 -0.035395
v -0.063100 2.679160 -0.000000
v -0.056693 2.703202 -0.000000
v -0.039921 2.669566 -0.000000
v -0.047372 2.698700 0.045005
v -0.020929 2.708703 0.041005
v -0.026959 2.674714 0.035395
v -0.005128 2.718631 0.065019
v 0.019265 2.696037 0.048820
v 0.047372 2.712928 0.045005
v 0.026959 2.736915 0.035395
v 0.129626 3.095424 -0.051154
v -1.019004 0.000000 0.602815
v 0.106337 3.095424 -0.090066
v -0.955874 0.000000 0.598503
v -0.979163 0.000000 0.559591
v 0.153800 3.077705 -0.092047
v -0.021233 3.095424 0.137727
v -0.006352 0.000000 -1.183941
v 0.024113 3.095424 0.137252
v -0.034481 0.000000 -1.127260
v 0.010866 0.000000 -1.127735
v 0.001877 3.077705 0.179231
v -0.095280 3.095424 -0.101692
v 0.935604 0.000000 0.725534
v -0.122887 3.095424 -0.065714
v 0.908356 0.000000 0.668425
v 0.880749 0.000000 0.704402
v -0.142201 3.077705 -0.109115
v -0.000000 0.000000 -1.316860
v 0.000036 2.268845 -0.246042
v 0.658430 0.000000 -1.140434
v 0.123107 2.268845 -0.213066
v 1.140433 0.000000 -0.658430
v 0.213200 2.268845 -0.122972
v 1.316859 0.000000 -0.000000
v 0.246177 2.268845 0.000098
v 1.140433 0.000000 0.658429
v 0.213200 2.268845 0.123169
v 0.658429 -0.000000 1.140433
v 0.123107 2.268845 0.213262
v 0.000036 2.268845 0.246239
v -0.658429 -0.000000 1.140433
v -0.123034 2.268845 0.213262
v -1.140433 0.000000 0.658429
v -0.213127 2.268845 0.123169
v -1.316859 0.000000 0.000000
v -0.246104 2.268845 0.000098
v -1.140434 -0.000000 -0.658430
v -0.213127 2.268845 -0.122972
v -0.658430 0.000000 -1.140433
v -0.123034 2.268845 -0.213065
v -0.000000 1.247836 -0.720878
v 0.360439 1.247836 -0.624299
v 0.624298 1.247836 -0.360439
v 0.720878 1.247836 -0.000000
v 0.624298 1.247836 0.360439
v 0.203097 1.128761 0.684194
v 0.000000 1.430631 0.621377
v -0.211052 1.124113 0.727941
v -0.624298 1.247836 0.360439
v -0.720878 1.247836 0.000000
v -0.624299 1.247835 -0.360439
v -0.360439 1.247836 -0.624298
v 0.000000 -0.005548 -1.305242
v 0.000036 2.246014 -0.229312
v 0.652621 -0.005548 -1.130373
v 0.114742 2.246014 -0.198577
v 1.130372 -0.005548 -0.652621
v 0.198712 2.246014 -0.114607
v 1.305241 -0.005548 -0.000000
v 0.229447 2.246014 0.000098
v 1.130792 -0.005825 0.652193
v 0.199753 2.245930 0.113413
v 0.651209 -0.005791 1.131483
v 0.115245 2.246492 0.197782
v -0.001213 2.246102 0.229438
v -0.650901 -0.005683 1.131671
v -0.115863 2.246193 0.197880
v -1.130669 -0.005746 0.652314
v -0.199345 2.245957 0.113825
v -1.305241 -0.005548 0.000000
v -0.229374 2.246014 0.000098
v -1.130373 -0.005548 -0.652621
v -0.198639 2.246014 -0.114607
v -0.652622 -0.005548 -1.130372
v -0.114669 2.246014 -0.198577
v 0.000000 1.242287 -0.709260
v 0.354630 1.242287 -0.614237
v 0.614237 1.242287 -0.354630
v 0.709260 1.242287 -0.000000
v 0.614761 1.242185 0.353892
v 0.196573 1.123326 0.674517
v -0.000842 1.425203 0.609733
v -0.204344 1.118599 0.718435
v -0.614600 1.242214 0.354107
v -0.709260 1.242287 0.000000
v -0.614237 1.242287 -0.354630
v -0.354631 1.242287 -0.614237
vn -0.2138 0.8621 0.4595
vn 0.8396 -0.4813 -0.2517
vn 0.4811 0.4348 -0.7612
vn -0.0860 0.3588 0.9295
vn 0.1246 -0.7953 -0.5932
vn 0.7725 0.2453 0.5857
vn -0.3649 -0.5809 -0.7276
vn -0.6234 0.5909 -0.5121
vn 0.9326 -0.1235 0.3392
vn 0.3687 -0.9293 -0.0231
vn 0.6761 0.2390 -0.6969
vn -0.9176 -0.3651 0.1570
vn -0.3937 0.4763 0.7862
vn 0.4609 0.0888 -0.8830
vn -0.1970 -0.6707 -0.7151
vn 0.4580 0.5295 0.7141
vn -0.3667 0.1338 -0.9207
vn -0.0241 -0.6658 0.7458
vn 0.8314 0.0686 0.5515
vn -0.9765 -0.2149 -0.0140
vn 0.3372 0.8148 -0.4716
vn -0.6990 -0.3486 0.6244
vn 0.9425 -0.2512 -0.2203
vn 0.3434 0.5862 -0.7338
vn 0.2257 0.1195 0.9668
vn 0.0222 -0.5666 -0.8237
vn -0.3278 0.9309 -0.1610
vn 0.9382 -0.1124 0.3272
vn -0.6464 -0.6849 -0.3363
vn -0.9425 0.2512 0.2203
vn 0.6851 0.3416 -0.6434
vn -0.3372 -0.8148 0.4716
vn -0.3686 0.9194 -0.1376
vn -0.1736 -0.4900 0.8543
vn -0.5093 0.8604 -0.0206
vn 0.0809 -0.3247 -0.9423
vn 0.3089 -0.3110 0.8988
vn 0.6464 0.6849 0.3363
vn -0.9400 0.0671 -0.3345
vn 0.5245 -0.8296 0.1916
vn 0.8091 0.4298 -0.4007
vn -0.9889 -0.1378 -0.0563
vn 0.3859 0.6101 -0.6920
vn -0.5787 -0.1494 0.8018
vn 0.1159 -0.6381 -0.7612
vn -0.4225 0.2564 -0.8693
vn -0.2140 -0.6684 0.7124
vn -0.3547 0.9078 -0.2239
vn 0.7129 -0.5182 0.4725
vn -0.9187 -0.3572 -0.1687
vn -0.7928 0.3685 0.4855
vn 0.4524 -0.8914 -0.0289
vn -0.0451 0.7424 0.6685
vn 0.5017 -0.2491 -0.8284
vn -0.3576 -0.5491 0.7554
vn 0.5811 0.1806 0.7936
vn -0.5204 0.6413 -0.5639
vn -0.1803 -0.9558 -0.2321
vn -0.4421 0.6615 -0.6057
vn 0.7104 -0.6935 0.1196
vn 0.6464 0.6849 -0.3363
vn -0.9400 0.0671 0.3345
vn 0.5245 -0.8296 -0.1916
vn -0.5093 0.8604 0.0206
vn 0.0809 -0.3247 0.9423
vn 0.3089 -0.3110 -0.8988
vn -0.3686 0.9194 0.1376
vn -0.1736 -0.4900 -0.8543
vn -0.9425 0.2512 -0.2203
vn 0.6851 0.3416 0.6434
vn -0.3372 -0.8148 -0.4716
vn -0.3278 0.9309 0.1610
vn 0.9382 -0.1124 -0.3272
vn -0.6464 -0.6849 0.3363
vn 0.2257 0.1195 -0.9668
vn 0.0222 -0.5666 0.8237
vn 0.3434 0.5862 0.7338
vn 0.3372 0.8148 0.4716
vn -0.6990 -0.3486 -0.6244
vn 0.9425 -0.2512 0.2203
vn -0.7304 0.1148 -0.6733
vn 0.7898 -0.3908 -0.4727
vn 0.0670 0.1824 0.9809
vn 0.9498 0.1148 -0.2910
vn 0.0096 -0.3908 0.9204
vn -0.8807 0.1824 -0.4371
vn -0.3571 0.1148 0.9270
vn -0.7303 -0.3908 -0.5603
vn 0.8874 0.1824 -0.4234
vn -0.7892 0.3926 0.4723
vn -0.1041 -0.1692 -0.9801
vn 0.8146 -0.1692 0.5549
vn -0.0000 -1.0000 -0.0000
vn 0.3353 0.9205 -0.2007
vn -0.0096 0.3926 -0.9196
vn 0.8987 -0.1692 0.4046
vn -0.8900 -0.1692 0.4234
vn 0.0041 0.9205 0.3907
vn 0.7296 0.3926 0.5599
vn -0.8729 -0.1692 0.4576
vn 0.2160 -0.1692 -0.9616
vn -0.3100 0.9205 -0.2379
vn 0.2355 0.4147 -0.8790
vn 0.2361 0.4098 -0.8811
vn 0.6435 0.4146 -0.6435
vn 0.6450 0.4097 -0.6450
vn 0.8790 0.4146 -0.2355
vn 0.8811 0.4097 -0.2361
vn 0.8790 0.4146 0.2355
vn 0.8812 0.4097 0.2361
vn 0.5307 0.3704 0.7623
vn 0.2779 0.3872 0.8791
vn -0.1785 0.4094 0.8947
vn -0.5678 0.3837 0.7283
vn -0.8810 0.4100 0.2361
vn -0.8811 0.4097 0.2361
vn -0.8810 0.4101 -0.2361
vn -0.8811 0.4097 -0.2361
vn -0.0000 1.0000 -0.0000
vn -0.6449 0.4100 -0.6449
vn -0.6450 0.4098 -0.6450
vn -0.6449 0.4101 -0.6449
vn -0.2355 0.4147 -0.8790
vn -0.2361 0.4098 -0.8811
vn -0.2350 0.4189 -0.8771
vn -0.6421 0.4189 -0.6421
vn -0.8771 0.4189 -0.2350
vn -0.8771 0.4189 0.2350
vn -0.5848 0.4414 0.6806
vn 0.5608 0.4498 0.6951
vn 0.8771 0.4189 0.2350
vn 0.8771 0.4189 -0.2350
vn 0.6421 0.4189 -0.6421
vn 0.2350 0.4189 -0.8771
vn -0.2350 -0.4191 0.8770
vn -0.2350 -0.4193 0.8769
vn -0.6420 -0.4191 0.6420
vn -0.6420 -0.4193 0.6420
vn -0.8770 -0.4191 0.2350
vn -0.8769 -0.4192 0.2350
vn -0.8773 -0.4190 -0.2341
vn -0.8774 -0.4191 -0.2334
vn -0.5247 -0.3794 -0.7621
vn -0.2887 -0.3963 -0.8715
vn 0.1884 -0.4191 -0.8881
vn 0.5626 -0.3927 -0.7275
vn 0.8772 -0.4190 -0.2344
vn 0.8773 -0.4192 -0.2339
vn 0.8770 -0.4191 0.2350
vn 0.8769 -0.4193 0.2350
vn 0.0001 -1.0000 0.0004
vn 0.6420 -0.4191 0.6420
vn 0.6419 -0.4193 0.6419
vn 0.2350 -0.4191 0.8770
vn 0.2350 -0.4193 0.8769
vn 0.2350 -0.4189 0.8771
vn 0.6421 -0.4189 0.6421
vn 0.8771 -0.4189 0.2350
vn 0.8772 -0.4189 -0.2348
vn 0.5843 -0.4413 -0.6810
vn -0.5602 -0.4498 -0.6956
vn -0.8772 -0.4189 -0.2347
vn -0.8771 -0.4189 0.2350
vn -0.6421 -0.4189 0.6421
vn -0.2350 -0.4189 0.8771
vn 0.1147 -0.8964 -0.4281
vn 0.3134 -0.8964 -0.3134
vn 0.4281 -0.8964 -0.1147
vn 0.4413 -0.8896 0.1180
vn 0.3225 -0.8899 0.3226
vn -0.7835 -0.0659 0.6179
vn 0.7657 -0.0696 0.6394
vn -0.3174 -0.8936 0.3175
vn -0.4375 -0.8916 0.1170
vn -0.4281 -0.8964 -0.1147
vn -0.3134 -0.8964 -0.3134
vn -0.1147 -0.8964 -0.4281
vn 0.8107 -0.3971 0.4303
vn -0.7750 -0.4131 0.4782
vt 0.731495 0.226859
vt 0.725863 0.221731
vt 0.727736 0.225296
vt 0.726542 0.229618
vt 0.718048 0.228594
vt 0.715093 0.233896
vt 0.716854 0.225085
vt 0.708283 0.228982
vt 0.711866 0.230699
vt 0.704348 0.233258
vt 0.710198 0.235578
vt 0.706525 0.228599
vt 0.708276 0.228695
vt 0.711866 0.230699
vt 0.718048 0.228594
vt 0.719197 0.231968
vt 0.716853 0.225083
vt 0.726274 0.223290
vt 0.726741 0.229684
vt 0.725693 0.225051
vt 0.732816 0.235268
vt 0.727532 0.237207
vt 0.731417 0.230061
vt 0.728740 0.230525
vt 0.724327 0.235866
vt 0.716940 0.231653
vt 0.713603 0.230384
vt 0.721557 0.226554
vt 0.707356 0.227535
vt 0.711770 0.222194
vt 0.703280 0.222792
vt 0.704680 0.227999
vt 0.708564 0.220852
vt 0.707356 0.227535
vt 0.713603 0.230384
vt 0.711770 0.222194
vt 0.716940 0.231653
vt 0.721557 0.226554
vt 0.728740 0.230525
vt 0.724327 0.235866
vt 0.090825 0.340464
vt 0.090825 0.366563
vt 0.097349 0.360038
vt 0.084300 0.366563
vt 0.084300 0.343336
vt 0.077775 0.357167
vt 0.090825 0.346989
vt 0.097349 0.353514
vt 0.084300 0.360038
vt 0.084300 0.353514
vt 0.090825 0.356776
vt 0.090825 0.340464
vt 0.090825 0.366563
vt 0.097349 0.360038
vt 0.084300 0.366563
vt 0.084300 0.343336
vt 0.077775 0.357167
vt 0.090825 0.346989
vt 0.097349 0.353514
vt 0.084300 0.360038
vt 0.084300 0.353514
vt 0.090825 0.356776
vt 0.090825 0.340464
vt 0.090825 0.366563
vt 0.097349 0.360038
vt 0.084300 0.366563
vt 0.084300 0.343336
vt 0.077775 0.357167
vt 0.090825 0.346989
vt 0.097349 0.353514
vt 0.084300 0.360038
vt 0.084300 0.353514
vt 0.090825 0.356776
vt 0.420061 0.598139
vt 0.420061 0.764782
vt 0.431384 0.598139
vt 0.421024 0.764782
vt 0.439672 0.598139
vt 0.421729 0.764782
vt 0.442706 0.598139
vt 0.421986 0.764782
vt 0.439672 0.598139
vt 0.421729 0.764782
vt 0.431384 0.598139
vt 0.421024 0.764782
vt 0.420061 0.764782
vt 0.408739 0.598139
vt 0.419098 0.764782
vt 0.400450 0.598139
vt 0.418394 0.764782
vt 0.397416 0.598139
vt 0.418136 0.764782
vt 0.400450 0.598139
vt 0.418394 0.764782
vt 0.408739 0.598139
vt 0.419098 0.764782
vt 0.420061 0.680566
vt 0.426259 0.680566
vt 0.430797 0.680566
vt 0.432457 0.680566
vt 0.430797 0.680566
vt 0.423554 0.672700
vt 0.420061 0.692641
vt 0.416432 0.672394
vt 0.409326 0.680566
vt 0.407665 0.680566
vt 0.409326 0.680566
vt 0.413863 0.680566
vt 0.420061 0.597772
vt 0.420061 0.764096
vt 0.431284 0.597772
vt 0.420958 0.764096
vt 0.439499 0.597772
vt 0.421615 0.764096
vt 0.442506 0.597772
vt 0.421856 0.764096
vt 0.439506 0.597754
vt 0.421623 0.764093
vt 0.431259 0.597757
vt 0.420962 0.764110
vt 0.420051 0.764098
vt 0.408868 0.597764
vt 0.419155 0.764101
vt 0.400618 0.597759
vt 0.418502 0.764094
vt 0.397616 0.597772
vt 0.418267 0.764096
vt 0.400623 0.597772
vt 0.418507 0.764096
vt 0.408839 0.597772
vt 0.419164 0.764096
vt 0.420061 0.680200
vt 0.426159 0.680200
vt 0.430624 0.680200
vt 0.432258 0.680200
vt 0.430633 0.680193
vt 0.423441 0.672342
vt 0.420047 0.692282
vt 0.416547 0.672029
vt 0.409493 0.680195
vt 0.407865 0.680200
vt 0.409499 0.680200
vt 0.413963 0.680200
s 1
usemtl TropicalEnvironment_01.008
f 1/1/1 4/4/1 20/20/1
f 2/2/2 3/3/2 1/1/2
f 5/5/3 4/4/3 3/3/3
f 6/6/4 2/2/4 4/4/4
f 7/7/5 3/3/5 2/2/5
f 9/9/6 7/7/6 6/6/6
f 8/8/7 5/5/7 7/7/7
f 10/10/8 6/6/8 8/8/8
f 11/11/9 9/9/9 6/6/9
f 9/9/10 12/12/10 8/8/10
f 14/14/11 12/12/11 11/11/11
f 12/12/12 13/13/12 10/10/12
f 15/15/13 11/11/13 13/13/13
f 11/11/14 16/16/14 14/14/14
f 17/17/15 13/13/15 14/14/15
f 15/15/16 19/19/16 16/16/16
f 19/19/17 17/17/17 16/16/17
f 17/17/18 18/18/18 15/15/18
f 1/1/19 19/19/19 18/18/19
f 20/20/20 2/2/20 18/18/20
f 24/24/21 22/22/21 21/21/21
f 22/22/22 28/28/22 23/23/22
f 24/24/23 21/21/23 23/23/23
f 26/26/24 25/25/24 24/24/24
f 27/27/25 30/30/25 28/28/25
f 30/30/26 26/26/26 28/28/26
f 32/32/27 27/27/27 29/29/27
f 27/27/28 33/33/28 30/30/28
f 33/33/29 29/29/29 30/30/29
f 31/31/30 34/34/30 32/32/30
f 35/35/31 33/33/31 32/32/31
f 33/33/32 34/34/32 31/31/32
f 37/37/33 35/35/33 34/34/33
f 36/36/34 37/37/34 34/34/34
f 40/40/35 35/35/35 37/37/35
f 40/40/36 38/38/36 35/35/36
f 38/38/37 39/39/37 37/37/37
f 39/39/38 22/22/38 40/40/38
f 22/22/39 38/38/39 40/40/39
f 38/38/40 23/23/40 39/39/40
f 3/3/41 4/4/41 1/1/41
f 4/4/42 2/2/42 20/20/42
f 5/5/43 6/6/43 4/4/43
f 6/6/44 7/7/44 2/2/44
f 7/7/45 5/5/45 3/3/45
f 5/5/46 8/8/46 6/6/46
f 7/7/47 9/9/47 8/8/47
f 10/10/48 11/11/48 6/6/48
f 11/11/49 12/12/49 9/9/49
f 8/8/50 12/12/50 10/10/50
f 10/10/51 13/13/51 11/11/51
f 12/12/52 14/14/52 13/13/52
f 15/15/53 16/16/53 11/11/53
f 16/16/54 17/17/54 14/14/54
f 13/13/55 17/17/55 15/15/55
f 15/15/56 18/18/56 19/19/56
f 19/19/57 20/20/57 17/17/57
f 20/20/58 18/18/58 17/17/58
f 1/1/59 20/20/59 19/19/59
f 18/18/60 2/2/60 1/1/60
f 24/24/61 25/25/61 22/22/61
f 22/22/62 25/25/62 28/28/62
f 28/28/63 24/24/63 23/23/63
f 25/25/64 26/26/64 27/27/64
f 25/25/65 27/27/65 28/28/65
f 28/28/66 26/26/66 24/24/66
f 26/26/67 29/29/67 27/27/67
f 30/30/68 29/29/68 26/26/68
f 31/31/69 32/32/69 29/29/69
f 27/27/70 32/32/70 33/33/70
f 33/33/71 31/31/71 29/29/71
f 32/32/72 34/34/72 35/35/72
f 35/35/73 36/36/73 33/33/73
f 33/33/74 36/36/74 34/34/74
f 35/35/75 38/38/75 36/36/75
f 36/36/76 38/38/76 37/37/76
f 37/37/77 39/39/77 40/40/77
f 39/39/78 21/21/78 22/22/78
f 22/22/79 23/23/79 38/38/79
f 39/39/80 23/23/80 21/21/80
f 43/47/81 45/50/81 42/45/81
f 46/51/82 44/49/82 45/50/82
f 44/49/83 41/42/83 42/44/83
f 49/58/84 51/61/84 48/56/84
f 52/62/85 50/60/85 51/61/85
f 50/60/86 47/53/86 48/55/86
f 55/69/87 57/72/87 54/67/87
f 58/73/88 56/71/88 57/72/88
f 56/71/89 53/64/89 54/66/89
f 42/45/90 41/41/90 43/47/90
f 43/47/91 46/51/91 45/50/91
f 44/49/92 46/51/92 41/42/92
f 45/50/93 44/49/93 42/46/93
f 43/48/94 41/43/94 46/51/94
f 48/56/95 47/52/95 49/58/95
f 49/58/96 52/62/96 51/61/96
f 50/60/97 52/62/97 47/53/97
f 51/61/93 50/60/93 48/57/93
f 49/59/98 47/54/98 52/62/98
f 54/67/99 53/63/99 55/69/99
f 55/69/100 58/73/100 57/72/100
f 56/71/101 58/73/101 53/64/101
f 57/72/93 56/71/93 54/68/93
f 55/70/102 53/65/102 58/73/102
f 82/97/103 60/75/104 62/77/104 83/98/103
f 83/98/105 62/77/106 64/79/106 84/99/105
f 84/99/107 64/79/108 66/81/108 85/100/107
f 85/100/109 66/81/110 68/83/110 86/101/109
f 86/101/111 68/83/111 70/85/111 87/102/111
f 87/102/112 70/85/112 71/86/112 88/103/112
f 88/103/113 71/86/113 73/88/113 89/104/113
f 89/104/114 73/88/114 75/90/114 90/105/114
f 90/105/115 75/90/116 77/92/116 91/106/115
f 91/106/117 77/92/118 79/94/118 92/107/117
f 62/77/119 60/75/119 81/96/119 79/94/119 77/92/119 75/90/119 73/88/119 71/86/119 70/85/119 68/83/119 66/81/119 64/79/119
f 92/107/120 79/94/121 81/96/121 93/108/122
f 93/108/123 81/96/124 60/75/124 82/97/123
f 80/95/125 93/108/123 82/97/123 59/74/125
f 78/93/126 92/107/120 93/108/122 80/95/126
f 76/91/127 91/106/117 92/107/117 78/93/127
f 74/89/128 90/105/115 91/106/115 76/91/128
f 72/87/129 89/104/129 90/105/129 74/89/129
f 67/82/130 86/101/130 87/102/130 69/84/130
f 65/80/131 85/100/109 86/101/109 67/82/131
f 63/78/132 84/99/107 85/100/107 65/80/132
f 61/76/133 83/98/105 84/99/105 63/78/133
f 59/74/134 82/97/103 83/98/103 61/76/134
f 117/132/135 118/133/135 97/112/136 95/110/136
f 118/133/137 119/134/137 99/114/138 97/112/138
f 119/134/139 120/135/139 101/116/140 99/114/140
f 120/135/141 121/136/141 103/118/142 101/116/142
f 121/136/143 122/137/143 105/120/143 103/118/143
f 122/137/144 123/138/144 106/121/144 105/120/144
f 123/138/145 124/139/145 108/123/145 106/121/145
f 124/139/146 125/140/146 110/125/146 108/123/146
f 125/140/147 126/141/147 112/127/148 110/125/148
f 126/141/149 127/142/149 114/129/150 112/127/150
f 97/112/151 99/114/151 101/116/151 103/118/151 105/120/151 106/121/151 108/123/151 110/125/151 112/127/151 114/129/151 116/131/151 95/110/151
f 127/142/152 128/143/152 116/131/153 114/129/153
f 128/143/154 117/132/154 95/110/155 116/131/155
f 115/130/156 94/109/156 117/132/154 128/143/154
f 113/128/157 115/130/157 128/143/152 127/142/152
f 111/126/158 113/128/158 127/142/149 126/141/149
f 109/124/159 111/126/159 126/141/147 125/140/147
f 107/122/160 109/124/160 125/140/160 124/139/160
f 102/117/161 104/119/161 122/137/161 121/136/161
f 100/115/162 102/117/162 121/136/141 120/135/141
f 98/113/163 100/115/163 120/135/139 119/134/139
f 96/111/164 98/113/164 119/134/137 118/133/137
f 94/109/165 96/111/165 118/133/135 117/132/135
f 59/74/166 61/76/166 96/111/166 94/109/166
f 61/76/167 63/78/167 98/113/167 96/111/167
f 63/78/168 65/80/168 100/115/168 98/113/168
f 65/80/169 67/82/169 102/117/169 100/115/169
f 67/82/170 69/84/170 104/119/170 102/117/170
f 69/84/171 87/102/171 122/137/171 104/119/171
f 89/104/172 72/87/172 107/122/172 124/139/172
f 72/87/173 74/89/173 109/124/173 107/122/173
f 74/89/174 76/91/174 111/126/174 109/124/174
f 76/91/175 78/93/175 113/128/175 111/126/175
f 78/93/176 80/95/176 115/130/176 113/128/176
f 80/95/177 59/74/177 94/109/177 115/130/177
f 88/103/178 89/104/178 124/139/178 123/138/178
f 87/102/179 88/103/179 123/138/179 122/137/179
