# Blender v3.4.1 OBJ File: ''
# www.blender.org
mtllib road1.mtl
o Road_18_LOD1_Mesh.082
v -6.000000 0.009999 6.000000
v -6.000000 0.010001 -3.132734
v 6.000000 0.009999 6.000000
v 6.000000 0.010001 -3.132734
v -2.925000 -0.000005 6.000000
v -3.075000 -0.000005 6.000000
v -3.071929 0.143853 6.000000
v -2.930206 0.145332 3.479787
v -2.931046 0.146913 6.000000
v -2.926161 -0.000003 3.475825
v -3.085069 0.144325 3.090176
v -3.184447 0.146734 3.189213
v -3.478169 0.145125 3.071996
v -6.000000 0.143757 2.928053
v -6.000000 0.146927 3.068858
v -3.470604 0.145844 2.931352
v -3.473074 -0.000002 2.926090
v -6.000000 -0.000002 2.924999
v -3.481091 -0.000002 3.076170
v -6.000000 -0.000002 3.075000
v -3.083226 -0.000002 3.085941
v -3.099203 -0.000003 3.289000
v -3.071204 0.145623 3.485778
v 2.925000 -0.000005 6.000000
v 3.075000 -0.000005 6.000000
v 3.071929 0.143853 6.000000
v 2.930206 0.145332 3.479787
v 2.931046 0.146913 6.000000
v 2.926161 -0.000003 3.475825
v 3.085069 0.144325 3.090176
v 3.184447 0.146734 3.189213
v 3.478169 0.145125 3.071996
v 6.000000 0.143757 2.928053
v 6.000000 0.146927 3.068858
v 3.470604 0.145844 2.931352
v 3.473074 -0.000002 2.926090
v 6.000000 -0.000002 2.924999
v 3.481091 -0.000002 3.076170
v 6.000000 -0.000002 3.075000
v 3.083226 -0.000002 3.085941
v 3.099203 -0.000003 3.289000
v 3.071204 0.145623 3.485778
v 6.000000 0.000002 -2.925000
v 6.000000 0.000003 -3.075000
v -6.000000 0.000003 -3.075000
v 6.000000 0.143860 -2.928071
v 6.000000 0.146932 -3.068859
v -6.000000 0.000002 -2.925000
v -6.000000 0.146931 -2.931142
v -6.000000 0.143861 -3.071929
v 3.140000 0.129998 3.140000
v 2.972529 0.129998 3.429811
v 3.429810 0.129999 3.032044
v 3.429810 0.129998 3.429811
v 6.000000 0.129999 3.032044
v 6.000000 0.129998 3.429811
v 5.999999 0.129997 6.000000
v 3.429810 0.129997 6.000000
v 2.972529 0.129997 6.000000
v -3.140000 0.129998 3.140000
v -2.972530 0.129998 3.429811
v -3.429810 0.129999 3.032044
v -6.000000 0.129999 3.032044
v -3.429810 0.129998 3.429811
v -6.000000 0.129998 3.429811
v -3.429810 0.129997 6.000000
v -6.000000 0.129997 5.999999
v -2.972530 0.129997 6.000000
v -6.000000 0.130001 -2.998740
v 6.000000 0.130001 -2.998740
v -6.000000 0.130003 -6.000000
v 6.000000 0.130003 -6.000000
vt 0.399017 0.018863
vt 0.416529 0.018863
vt 0.416529 0.036375
vt 0.399017 0.036375
vt 0.588018 0.047167
vt 0.581909 0.047167
vt 0.588384 0.040829
vt 0.581909 0.020352
vt 0.588018 0.020352
vt 0.581909 0.022865
vt 0.582052 0.040463
vt 0.575205 0.037950
vt 0.581862 0.037951
vt 0.575205 0.040463
vt 0.581821 0.037111
vt 0.588517 0.037111
vt 0.581921 0.036272
vt 0.588601 0.037951
vt 0.588634 0.036272
vt 0.581762 0.033760
vt 0.588475 0.033760
vt 0.575205 0.036271
vt 0.575205 0.033760
vt 0.581909 0.024544
vt 0.588018 0.024543
vt 0.581909 0.027056
vt 0.588018 0.027056
vt 0.594721 0.033760
vt 0.594721 0.036272
vt 0.588613 0.027651
vt 0.588018 0.023374
vt 0.594721 0.037442
vt 0.581909 0.023704
vt 0.594721 0.040463
vt 0.575205 0.037111
vt 0.588018 0.047167
vt 0.588384 0.040829
vt 0.581909 0.047167
vt 0.581909 0.020352
vt 0.581909 0.022865
vt 0.588018 0.020352
vt 0.582052 0.040463
vt 0.575205 0.037950
vt 0.575205 0.040463
vt 0.581862 0.037951
vt 0.581821 0.037111
vt 0.588517 0.037111
vt 0.581921 0.036272
vt 0.588601 0.037951
vt 0.588634 0.036272
vt 0.581762 0.033760
vt 0.588475 0.033760
vt 0.575205 0.036271
vt 0.575205 0.033760
vt 0.581909 0.024544
vt 0.581909 0.027056
vt 0.588018 0.024543
vt 0.588018 0.027056
vt 0.594721 0.036272
vt 0.594721 0.033760
vt 0.588613 0.027651
vt 0.588018 0.023374
vt 0.594721 0.037442
vt 0.581909 0.023704
vt 0.594721 0.040463
vt 0.575205 0.037111
vt 0.581909 0.040463
vt 0.588384 0.040829
vt 0.581909 0.047167
vt 0.575205 0.040463
vt 0.581909 0.033760
vt 0.575205 0.033760
vt 0.588247 0.046938
vt 0.581909 0.020352
vt 0.588018 0.020352
vt 0.581909 0.027056
vt 0.588384 0.027422
vt 0.594950 0.033760
vt 0.595087 0.040463
vt 0.588247 0.033531
vt 0.639217 0.013725
vt 0.642557 0.013725
vt 0.642557 0.016400
vt 0.639217 0.016400
vt 0.642557 0.038650
vt 0.639217 0.038650
vt 0.664142 0.016400
vt 0.664142 0.038650
vt 0.664142 0.013725
vt 0.639217 0.013725
vt 0.639217 0.016400
vt 0.642557 0.016400
vt 0.642557 0.013725
vt 0.639217 0.038650
vt 0.642557 0.038650
vt 0.664142 0.016400
vt 0.664142 0.013725
vt 0.664142 0.038650
vt 0.639217 0.013725
vt 0.664142 0.013725
vt 0.664142 0.038650
vt 0.639217 0.038650
vn 0.0000 1.0000 0.0000
vn 0.0000 0.0000 1.0000
vn -0.0000 -1.0000 -0.0000
vn 0.9996 0.0283 -0.0004
vn 0.9993 0.0373 0.0016
vn 0.9995 0.0316 -0.0002
vn 0.9992 0.0411 0.0003
vn 0.9276 0.0256 -0.3727
vn 0.9284 0.0331 -0.3701
vn 0.9287 0.0359 -0.3692
vn 0.0127 0.9999 -0.0116
vn 0.0155 0.9998 -0.0087
vn 0.0099 0.9998 -0.0144
vn 0.0022 1.0000 0.0025
vn 0.0022 1.0000 0.0029
vn 0.0020 1.0000 -0.0005
vn 0.0004 1.0000 0.0051
vn -0.0074 1.0000 0.0047
vn -0.0065 1.0000 0.0048
vn -0.0008 0.9997 -0.0225
vn 0.0007 1.0000 0.0052
vn -0.0002 0.0361 -0.9993
vn 0.0013 0.0360 -0.9993
vn 0.0013 0.0349 -0.9994
vn 0.0004 0.0212 -0.9998
vn -0.0011 0.0212 -0.9998
vn -0.0018 0.0381 0.9993
vn -0.0007 0.0324 0.9995
vn -0.0005 0.0288 0.9996
vn -0.0012 0.0418 0.9991
vn -1.0000 0.0000 0.0000
vn -0.3706 0.0342 0.9282
vn -0.4648 0.2972 0.8340
vn -0.8949 -0.2882 0.3406
vn -0.0217 0.9998 0.0007
vn 0.0020 1.0000 -0.0006
vn -0.9820 0.1890 -0.0002
vn -0.9819 0.1893 0.0003
vn -0.9997 0.0213 0.0089
vn -0.9997 0.0214 0.0093
vn 0.9273 0.0228 -0.3736
vn 0.3792 0.0269 -0.9249
vn 0.3805 0.0309 -0.9243
vn 0.3796 0.0280 -0.9247
vn 0.3808 0.0320 -0.9241
vn -0.9996 0.0282 -0.0005
vn -0.9995 0.0316 -0.0002
vn -0.9993 0.0373 0.0015
vn -0.9992 0.0411 0.0003
vn -0.9276 0.0256 -0.3727
vn -0.9287 0.0359 -0.3692
vn -0.9284 0.0331 -0.3701
vn -0.0127 0.9999 -0.0116
vn -0.0155 0.9998 -0.0087
vn -0.0099 0.9998 -0.0144
vn -0.0022 1.0000 0.0025
vn -0.0020 1.0000 -0.0005
vn -0.0022 1.0000 0.0029
vn -0.0004 1.0000 0.0051
vn 0.0065 1.0000 0.0048
vn 0.0074 1.0000 0.0047
vn 0.0008 0.9997 -0.0225
vn -0.0007 1.0000 0.0052
vn 0.0002 0.0361 -0.9993
vn -0.0013 0.0349 -0.9994
vn -0.0013 0.0360 -0.9993
vn -0.0004 0.0212 -0.9998
vn 0.0010 0.0212 -0.9998
vn 0.0018 0.0381 0.9993
vn 0.0005 0.0288 0.9996
vn 0.0007 0.0324 0.9995
vn 0.0012 0.0418 0.9991
vn 1.0000 0.0000 0.0000
vn 0.3706 0.0342 0.9282
vn 0.4648 0.2972 0.8340
vn 0.8949 -0.2882 0.3406
vn 0.0217 0.9998 0.0007
vn -0.0020 1.0000 -0.0006
vn 0.9820 0.1890 -0.0002
vn 0.9997 0.0213 0.0089
vn -0.9273 0.0228 -0.3736
vn -0.3792 0.0269 -0.9249
vn -0.3796 0.0280 -0.9247
vn -0.3805 0.0309 -0.9243
vn -0.3808 0.0320 -0.9241
vn 0.0000 0.0213 0.9998
vn -0.0002 0.0418 0.9991
vn 0.0003 0.9998 0.0218
vn -0.0003 0.9998 -0.0218
vn -0.0000 0.0213 -0.9998
vn 0.0002 0.0418 -0.9991
usemtl City_01.060
s 1
f 1/1/1 3/2/1 4/3/1 2/4/1
f 6/5/2 5/6/2 7/7/2
f 5/8/3 6/9/3 10/10/3
f 5/6/2 9/11/2 7/7/2
f 10/12/4 8/13/5 5/14/6
f 5/14/6 8/13/5 9/11/7
f 10/12/8 11/15/9 8/13/10
f 11/15/11 12/16/11 8/13/12
f 16/17/13 12/16/11 11/15/11
f 8/13/14 12/16/15 23/18/16
f 13/19/17 12/16/18 16/17/19
f 14/20/20 15/21/20 16/17/20
f 16/17/19 15/21/21 13/19/17
f 17/22/22 14/20/23 16/17/24
f 18/23/25 14/20/25 17/22/26
f 17/24/3 19/25/3 18/26/3
f 18/26/3 19/25/3 20/27/3
f 13/19/27 20/28/28 19/29/29
f 15/21/30 20/28/28 13/19/27
f 20/30/31 15/21/31 14/20/31
f 18/26/31 20/30/31 14/20/31
f 17/24/3 22/31/3 19/25/3
f 13/19/32 19/29/32 12/16/32
f 12/16/33 19/29/33 22/32/33
f 21/33/3 22/31/3 17/24/3
f 10/10/3 22/31/3 21/33/3
f 12/16/34 22/32/34 23/18/34
f 9/11/35 23/18/35 7/7/35
f 8/13/14 23/18/16 9/11/36
f 23/18/37 22/32/38 7/7/37
f 10/10/3 6/9/3 22/31/3
f 7/7/39 22/32/40 6/34/39
f 21/35/41 11/15/9 10/12/8
f 17/22/42 16/17/43 21/35/44
f 21/35/44 16/17/43 11/15/45
f 25/36/2 26/37/2 24/38/2
f 24/39/3 29/40/3 25/41/3
f 24/38/2 26/37/2 28/42/2
f 29/43/46 24/44/47 27/45/48
f 24/44/47 28/42/49 27/45/48
f 29/43/50 27/45/51 30/46/52
f 30/46/53 27/45/54 31/47/53
f 35/48/55 30/46/53 31/47/53
f 27/45/56 42/49/57 31/47/58
f 32/50/59 35/48/60 31/47/61
f 33/51/62 35/48/62 34/52/62
f 35/48/60 32/50/59 34/52/63
f 36/53/64 35/48/65 33/51/66
f 37/54/67 36/53/68 33/51/67
f 36/55/3 37/56/3 38/57/3
f 37/56/3 39/58/3 38/57/3
f 32/50/69 38/59/70 39/60/71
f 34/52/72 32/50/69 39/60/71
f 39/61/73 33/51/73 34/52/73
f 37/56/73 33/51/73 39/61/73
f 36/55/3 38/57/3 41/62/3
f 32/50/74 31/47/74 38/59/74
f 31/47/75 41/63/75 38/59/75
f 40/64/3 36/55/3 41/62/3
f 29/40/3 40/64/3 41/62/3
f 31/47/76 42/49/76 41/63/76
f 28/42/77 26/37/77 42/49/77
f 27/45/56 28/42/78 42/49/57
f 42/49/79 26/37/79 41/63/79
f 29/40/3 41/62/3 25/41/3
f 26/37/80 25/65/80 41/63/80
f 40/66/81 29/43/50 30/46/52
f 36/53/82 40/66/83 35/48/84
f 40/66/83 30/46/85 35/48/84
f 44/67/73 47/68/73 43/69/73
f 43/70/3 45/71/3 44/67/3
f 48/72/3 45/71/3 43/70/3
f 43/69/73 47/68/73 46/73/73
f 43/74/86 46/75/86 48/76/86
f 48/76/87 46/75/87 49/77/87
f 48/76/31 49/77/31 45/71/31
f 47/68/88 49/78/88 46/79/88
f 45/71/31 49/77/31 50/80/31
f 50/80/89 49/78/89 47/68/89
f 45/71/90 50/80/90 44/67/90
f 44/67/91 50/80/91 47/68/91
f 51/81/1 52/82/1 54/83/1 53/84/1
f 53/84/1 54/83/1 56/85/1 55/86/1
f 54/83/1 58/87/1 57/88/1 56/85/1
f 52/82/1 59/89/1 58/87/1 54/83/1
f 60/90/1 62/91/1 64/92/1 61/93/1
f 62/91/1 63/94/1 65/95/1 64/92/1
f 61/93/1 64/92/1 66/96/1 68/97/1
f 64/92/1 65/95/1 67/98/1 66/96/1
f 69/99/1 70/100/1 72/101/1 71/102/1
