# Blender 3.4.1
# www.blender.org
mtllib tris.mtl
o Mailbox_01
v -0.000465 -0.000000 0.000465
v -0.000386 0.008342 0.000386
v -0.000465 0.000000 -0.000465
v -0.000386 0.008342 -0.000386
v 0.000465 -0.000000 0.000465
v 0.000386 0.008342 0.000386
v 0.000465 0.000000 -0.000465
v 0.000386 0.008342 -0.000386
v -0.001115 0.008431 0.002161
v -0.001199 0.008289 -0.002161
v 0.001115 0.008431 0.002161
v 0.001199 0.008289 -0.002161
v -0.000204 0.010595 0.002161
v -0.001115 0.009685 0.002161
v -0.000674 0.010469 0.002161
v -0.000989 0.010154 0.002161
v -0.001199 0.009695 -0.002161
v -0.000207 0.010687 -0.002161
v -0.001066 0.010191 -0.002161
v -0.000703 0.010554 -0.002161
v 0.001115 0.009685 0.002161
v 0.000204 0.010595 0.002161
v 0.000989 0.010154 0.002161
v 0.000674 0.010469 0.002161
v 0.000207 0.010687 -0.002161
v 0.001199 0.009695 -0.002161
v 0.000703 0.010554 -0.002161
v 0.001066 0.010191 -0.002161
v -0.001199 0.008289 0.002161
v 0.001199 0.008289 0.002161
v -0.000703 0.010554 0.002161
v -0.000207 0.010687 0.002161
v -0.001066 0.010191 0.002161
v -0.001199 0.009695 0.002161
v 0.000207 0.010687 0.002161
v 0.000703 0.010554 0.002161
v 0.001066 0.010191 0.002161
v 0.001199 0.009695 0.002161
v -0.001115 0.008431 -0.001482
v 0.001115 0.008431 -0.001482
v -0.000674 0.010469 -0.001482
v -0.000204 0.010595 -0.001482
v -0.000989 0.010154 -0.001482
v -0.001115 0.009685 -0.001482
v 0.000204 0.010595 -0.001482
v 0.000674 0.010469 -0.001482
v 0.000989 0.010154 -0.001482
v 0.001115 0.009685 -0.001482
v 0.000410 0.008351 0.002273
v 0.000410 0.008486 0.002273
v 0.000410 0.008351 0.002139
v 0.000410 0.008486 0.002139
v 0.000790 0.008351 0.002273
v 0.000790 0.008486 0.002273
v 0.000790 0.008351 0.002139
v 0.000790 0.008486 0.002139
v -0.000790 0.008351 0.002273
v -0.000790 0.008486 0.002273
v -0.000790 0.008351 0.002139
v -0.000790 0.008486 0.002139
v -0.000410 0.008351 0.002273
v -0.000410 0.008486 0.002273
v -0.000410 0.008351 0.002139
v -0.000410 0.008486 0.002139
v -0.000378 0.004171 0.000386
v -0.000378 0.004171 -0.000386
v 0.000394 0.004171 -0.000386
v 0.000394 0.004171 0.000386
v -0.000386 0.006257 0.000330
v -0.000386 0.006257 -0.000442
v 0.000386 0.006257 -0.000442
v 0.000386 0.006257 0.000330
v -0.000386 0.002086 -0.000386
v 0.000386 0.002086 -0.000386
v 0.000386 0.002086 0.000386
v -0.000386 0.002086 0.000386
vn -1.0000 -0.0020 -0.0000
vn -1.0000 -0.0000 -0.0000
vn -0.0000 0.0271 -0.9996
vn 1.0000 -0.0000 -0.0000
vn 1.0000 0.0020 -0.0000
vn -0.0000 -0.0271 0.9996
vn -0.0000 -1.0000 -0.0000
vn -0.0000 1.0000 -0.0000
vn -0.0000 -0.0000 -1.0000
vn -0.2588 0.9659 -0.0000
vn -0.7071 0.7071 -0.0000
vn -0.9659 0.2588 -0.0000
vn 0.2588 0.9659 -0.0000
vn 0.7071 0.7071 -0.0000
vn 0.9659 0.2588 -0.0000
vn -0.0000 -0.0000 1.0000
vn -0.2588 -0.9659 -0.0000
vn 0.2588 -0.9659 -0.0000
vn -0.7071 -0.7071 -0.0000
vn 0.7071 -0.7071 -0.0000
vn -0.9659 -0.2588 -0.0000
vn 0.9659 -0.2588 -0.0000
vn 1.0000 -0.0040 -0.0000
vn -1.0000 0.0040 -0.0000
vn -0.0000 0.0271 0.9996
vn -0.0000 -0.0271 -0.9996
vn -1.0000 -0.0040 -0.0000
vn -0.9993 0.0377 -0.0000
vn -0.0000 0.0377 -0.9993
vn 0.9993 0.0377 -0.0000
vn -0.0000 0.0377 0.9993
vt 0.341908 0.081058
vt 0.341908 0.117414
vt 0.345273 0.081058
vt 0.345273 0.117414
vt 0.341908 0.081058
vt 0.341908 0.117414
vt 0.345273 0.081058
vt 0.345273 0.117414
vt 0.778844 0.029346
vt 0.804991 0.027828
vt 0.778844 0.029346
vt 0.804991 0.027828
vt 0.778844 0.040813
vt 0.778844 0.036131
vt 0.778844 0.040166
vt 0.778844 0.038545
vt 0.804991 0.036330
vt 0.804991 0.042332
vt 0.804991 0.039331
vt 0.804991 0.041528
vt 0.778844 0.036131
vt 0.778844 0.040813
vt 0.778844 0.038545
vt 0.778844 0.040166
vt 0.804991 0.042332
vt 0.804991 0.036330
vt 0.804991 0.041528
vt 0.804991 0.039331
vt 0.778844 0.027828
vt 0.778844 0.027828
vt 0.778844 0.041528
vt 0.778844 0.042332
vt 0.778844 0.039331
vt 0.778844 0.036330
vt 0.778844 0.042332
vt 0.778844 0.041528
vt 0.778844 0.039331
vt 0.778844 0.036330
vt 0.800881 0.029346
vt 0.800881 0.029346
vt 0.800881 0.040166
vt 0.800881 0.040813
vt 0.800881 0.038545
vt 0.800881 0.036131
vt 0.800881 0.040813
vt 0.800881 0.040166
vt 0.800881 0.038545
vt 0.800881 0.036131
vt 0.340061 0.036456
vt 0.340061 0.042011
vt 0.345615 0.036456
vt 0.345615 0.042011
vt 0.340061 0.036456
vt 0.340061 0.042011
vt 0.345615 0.036456
vt 0.345615 0.042011
vt 0.340061 0.036456
vt 0.340061 0.042011
vt 0.345615 0.036456
vt 0.345615 0.042011
vt 0.340061 0.036456
vt 0.340061 0.042011
vt 0.345615 0.036456
vt 0.345615 0.042011
vt 0.341908 0.099236
vt 0.345273 0.099236
vt 0.345273 0.099236
vt 0.341908 0.099236
vt 0.341908 0.108325
vt 0.345273 0.108325
vt 0.345273 0.108325
vt 0.341908 0.108325
vt 0.345273 0.090147
vt 0.345273 0.090147
vt 0.341908 0.090147
vt 0.341908 0.090147
s 1
usemtl City_05.041
f 69/69/1 4/4/2 70/70/1
f 4/4/3 71/71/3 70/70/3
f 8/8/4 72/72/5 71/71/5
f 6/6/6 69/69/6 72/72/6
f 7/7/7 1/1/7 3/3/7
f 4/4/8 6/6/8 8/8/8
f 18/18/8 35/35/8 25/25/8
f 26/26/4 30/30/4 12/12/4
f 34/34/2 10/10/2 29/29/2
f 12/12/7 29/29/7 10/10/7
f 26/26/9 17/17/9 25/25/9
f 18/18/10 31/31/10 32/32/10
f 20/20/11 33/33/11 31/31/11
f 19/19/12 34/34/12 33/33/12
f 35/35/13 27/27/13 25/25/13
f 36/36/14 28/28/14 27/27/14
f 37/37/15 26/26/15 28/28/15
f 21/21/2 40/40/2 11/11/2
f 9/9/16 30/30/16 11/11/16
f 13/13/16 31/31/16 15/15/16
f 15/15/16 33/33/16 16/16/16
f 16/16/16 34/34/16 14/14/16
f 22/22/16 36/36/16 35/35/16
f 24/24/16 37/37/16 36/36/16
f 23/23/16 38/38/16 37/37/16
f 11/11/16 38/38/16 21/21/16
f 22/22/16 32/32/16 13/13/16
f 9/9/16 34/34/16 29/29/16
f 44/44/16 48/48/16 42/42/16
f 22/22/17 46/46/17 24/24/17
f 15/15/18 42/42/18 13/13/18
f 13/13/7 45/45/7 22/22/7
f 24/24/19 47/47/19 23/23/19
f 16/16/20 41/41/20 15/15/20
f 9/9/4 44/44/4 14/14/4
f 23/23/21 48/48/21 21/21/21
f 14/14/22 43/43/22 16/16/22
f 11/11/8 39/39/8 9/9/8
f 50/50/2 51/51/2 49/49/2
f 52/52/9 55/55/9 51/51/9
f 56/56/4 53/53/4 55/55/4
f 54/54/16 49/49/16 53/53/16
f 55/55/7 49/49/7 51/51/7
f 52/52/8 54/54/8 56/56/8
f 58/58/2 59/59/2 57/57/2
f 60/60/9 63/63/9 59/59/9
f 64/64/4 61/61/4 63/63/4
f 62/62/16 57/57/16 61/61/16
f 63/63/7 57/57/7 59/59/7
f 60/60/8 62/62/8 64/64/8
f 75/75/16 65/65/16 76/76/16
f 67/67/4 75/75/23 74/74/23
f 66/66/9 74/74/9 73/73/9
f 65/65/24 73/73/24 76/76/24
f 72/72/25 65/65/25 68/68/25
f 67/67/4 72/72/5 68/68/4
f 66/66/26 71/71/26 67/67/26
f 69/69/1 66/66/27 65/65/24
f 76/76/28 3/3/28 1/1/28
f 73/73/29 7/7/29 3/3/29
f 74/74/30 5/5/30 7/7/30
f 75/75/31 1/1/31 5/5/31
f 69/69/1 2/2/2 4/4/2
f 4/4/3 8/8/3 71/71/3
f 8/8/4 6/6/4 72/72/5
f 6/6/6 2/2/6 69/69/6
f 7/7/7 5/5/7 1/1/7
f 4/4/8 2/2/8 6/6/8
f 18/18/8 32/32/8 35/35/8
f 26/26/4 38/38/4 30/30/4
f 34/34/2 17/17/2 10/10/2
f 12/12/7 30/30/7 29/29/7
f 12/12/9 10/10/9 17/17/9
f 17/17/9 19/19/9 20/20/9
f 20/20/9 18/18/9 17/17/9
f 18/18/9 25/25/9 17/17/9
f 25/25/9 27/27/9 28/28/9
f 28/28/9 26/26/9 25/25/9
f 26/26/9 12/12/9 17/17/9
f 18/18/10 20/20/10 31/31/10
f 20/20/11 19/19/11 33/33/11
f 19/19/12 17/17/12 34/34/12
f 35/35/13 36/36/13 27/27/13
f 36/36/14 37/37/14 28/28/14
f 37/37/15 38/38/15 26/26/15
f 21/21/2 48/48/2 40/40/2
f 9/9/16 29/29/16 30/30/16
f 13/13/16 32/32/16 31/31/16
f 15/15/16 31/31/16 33/33/16
f 16/16/16 33/33/16 34/34/16
f 22/22/16 24/24/16 36/36/16
f 24/24/16 23/23/16 37/37/16
f 23/23/16 21/21/16 38/38/16
f 11/11/16 30/30/16 38/38/16
f 22/22/16 35/35/16 32/32/16
f 9/9/16 14/14/16 34/34/16
f 39/39/16 40/40/16 48/48/16
f 48/48/16 47/47/16 46/46/16
f 46/46/16 45/45/16 48/48/16
f 45/45/16 42/42/16 48/48/16
f 42/42/16 41/41/16 43/43/16
f 43/43/16 44/44/16 42/42/16
f 44/44/16 39/39/16 48/48/16
f 22/22/17 45/45/17 46/46/17
f 15/15/18 41/41/18 42/42/18
f 13/13/7 42/42/7 45/45/7
f 24/24/19 46/46/19 47/47/19
f 16/16/20 43/43/20 41/41/20
f 9/9/4 39/39/4 44/44/4
f 23/23/21 47/47/21 48/48/21
f 14/14/22 44/44/22 43/43/22
f 11/11/8 40/40/8 39/39/8
f 50/50/2 52/52/2 51/51/2
f 52/52/9 56/56/9 55/55/9
f 56/56/4 54/54/4 53/53/4
f 54/54/16 50/50/16 49/49/16
f 55/55/7 53/53/7 49/49/7
f 52/52/8 50/50/8 54/54/8
f 58/58/2 60/60/2 59/59/2
f 60/60/9 64/64/9 63/63/9
f 64/64/4 62/62/4 61/61/4
f 62/62/16 58/58/16 57/57/16
f 63/63/7 61/61/7 57/57/7
f 60/60/8 58/58/8 62/62/8
f 75/75/16 68/68/16 65/65/16
f 67/67/4 68/68/4 75/75/23
f 66/66/9 67/67/9 74/74/9
f 65/65/24 66/66/27 73/73/24
f 72/72/25 69/69/25 65/65/25
f 67/67/4 71/71/5 72/72/5
f 66/66/26 70/70/26 71/71/26
f 69/69/1 70/70/1 66/66/27
f 76/76/28 73/73/28 3/3/28
f 73/73/29 74/74/29 7/7/29
f 74/74/30 75/75/30 5/5/30
f 75/75/31 76/76/31 1/1/31
