# Wavefront OBJ file
# Exported by Misfit Model 3D 1.3.8
# Sat Apr 30 19:27:00 2022

# 54 Vertices
v -0.358396 -0.197647 0.116548
v -0.154207 -0.06743 0.48035
v -0.356036 0.203583 0.415985
v -0.594441 0.169598 0.169719
v -0.543377 0.170176 -0.1633
v -0.402158 -0.111645 -0.303223
v -0.07435 -0.212376 -0.289231
v 0.037584 -0.345918 -0.000988
v 0.101971 -0.180935 0.290053
v -0.203335 0.208072 -0.5299
v -0.402158 -0.111645 -0.303223
v -0.543377 0.170176 -0.1633
v -0.364946 0.381079 -0.3452
v -0.078492 0.560078 -0.334006
v 0.069874 0.541052 -0.49352
v 0.274458 0.270531 -0.429155
v 0.145492 -0.042413 -0.485124
v -0.07435 -0.212376 -0.289231
v 0.240107 0.622576 -0.112927
v 0.069874 0.541052 -0.49352
v -0.078492 0.560078 -0.334006
v 0.009881 0.638374 -0.042965
v 0.059172 0.63295 0.25927
v 0.320581 0.585759 0.292852
v 0.459044 0.303447 0.15013
v 0.512863 0.304516 -0.18009
v 0.274458 0.270531 -0.429155
v 0.121757 0.266042 0.519528
v 0.320581 0.585759 0.292852
v 0.059172 0.63295 0.25927
v -0.144439 0.451669 0.449566
v -0.356036 0.203583 0.415985
v -0.154207 -0.06743 0.48035
v 0.101971 -0.180935 0.290053
v 0.396199 0.002293 0.301247
v 0.459044 0.303447 0.15013
v 0.375806 -0.106521 -0.115726
v 0.396199 0.002293 0.301247
v 0.101971 -0.180935 0.290053
v 0.037584 -0.345918 -0.000988
v -0.07435 -0.212376 -0.289231
v 0.145492 -0.042413 -0.485124
v 0.274458 0.270531 -0.429155
v 0.512863 0.304516 -0.18009
v 0.459044 0.303447 0.15013
v -0.358029 0.501702 0.077369
v -0.144439 0.451669 0.449566
v 0.059172 0.63295 0.25927
v 0.009881 0.638374 -0.042965
v -0.078492 0.560078 -0.334006
v -0.364946 0.381079 -0.3452
v -0.543377 0.170176 -0.1633
v -0.594441 0.169598 0.169719
v -0.356036 0.203583 0.415985

# 144 Texture Coordinates
vt 0.7856 0.3198
vt 0.4106 0.3198
vt 0.5079 0.5976
vt 0.7856 0.3198
vt 0.5079 0.5976
vt 0.7856 0.6948
vt 0.7856 0.3198
vt 0.7856 0.6948
vt 1.0634 0.5976
vt 0.7856 0.3198
vt 1.0634 0.5976
vt 1.1606 0.3198
vt 0.7856 0.3198
vt 1.1606 0.3198
vt 1.0634 0.042
vt 0.7856 0.3198
vt 1.0634 0.042
vt 0.7856 -0.0552
vt 0.7856 0.3198
vt 0.7856 -0.0552
vt 0.5079 0.042
vt 0.7856 0.3198
vt 0.5079 0.042
vt 0.4106 0.3198
vt 0.0656 0.3198
vt -0.3094 0.3198
vt -0.2122 0.5976
vt 0.0656 0.3198
vt -0.2122 0.5976
vt 0.0656 0.5601
vt 0.0656 0.3198
vt 0.0656 0.5601
vt 0.3434 0.4631
vt 0.0656 0.3198
vt 0.3434 0.4631
vt 0.4406 0.3198
vt 0.0656 0.3198
vt 0.4406 0.3198
vt 0.3434 0.042
vt 0.0656 0.3198
vt 0.3434 0.042
vt 0.0656 -0.0552
vt 0.0656 0.3198
vt 0.0656 -0.0552
vt -0.2122 0.042
vt 0.0656 0.3198
vt -0.2122 0.042
vt -0.3094 0.3198
vt 0.7856 0.3198
vt 1.1606 0.3198
vt 1.0634 0.4631
vt 0.7856 0.3198
vt 1.0634 0.4631
vt 0.7856 0.4984
vt 0.7856 0.3198
vt 0.7856 0.4984
vt 0.5079 0.5188
vt 0.7856 0.3198
vt 0.5079 0.5188
vt 0.4106 0.3198
vt 0.7856 0.3198
vt 0.4106 0.3198
vt 0.5079 0.042
vt 0.7856 0.3198
vt 0.5079 0.042
vt 0.7856 -0.0552
vt 0.7856 0.3198
vt 0.7856 -0.0552
vt 1.0634 0.042
vt 0.7856 0.3198
vt 1.0634 0.042
vt 1.1606 0.3198
vt 0.0656 0.3198
vt 0.4406 0.3198
vt 0.3434 0.5188
vt 0.0656 0.3198
vt 0.3434 0.5188
vt 0.0656 0.5964
vt 0.0656 0.3198
vt 0.0656 0.5964
vt -0.2122 0.5976
vt 0.0656 0.3198
vt -0.2122 0.5976
vt -0.3094 0.3198
vt 0.0656 0.3198
vt -0.3094 0.3198
vt -0.2122 0.042
vt 0.0656 0.3198
vt -0.2122 0.042
vt 0.0656 -0.0552
vt 0.0656 0.3198
vt 0.0656 -0.0552
vt 0.3434 0.042
vt 0.0656 0.3198
vt 0.3434 0.042
vt 0.4406 0.3198
vt 0.0656 0.7856
vt 0.0656 0.4106
vt -0.2122 0.5079
vt 0.0656 0.7856
vt -0.2122 0.5079
vt -0.3094 0.7856
vt 0.0656 0.7856
vt -0.3094 0.7856
vt -0.2122 1.0634
vt 0.0656 0.7856
vt -0.2122 1.0634
vt 0.0656 1.1606
vt 0.0656 0.7856
vt 0.0656 1.1606
vt 0.3434 1.0634
vt 0.0656 0.7856
vt 0.3434 1.0634
vt 0.4406 0.7856
vt 0.0656 0.7856
vt 0.4406 0.7856
vt 0.3434 0.5079
vt 0.0656 0.7856
vt 0.3434 0.5079
vt 0.0656 0.4106
vt 0.0656 0.7856
vt 0.0656 0.4106
vt 0.3434 0.5079
vt 0.0656 0.7856
vt 0.3434 0.5079
vt 0.3853 0.7856
vt 0.0656 0.7856
vt 0.3853 0.7856
vt 0.3434 1.0634
vt 0.0656 0.7856
vt 0.3434 1.0634
vt 0.0656 1.1606
vt 0.0656 0.7856
vt 0.0656 1.1606
vt -0.2122 1.0634
vt 0.0656 0.7856
vt -0.2122 1.0634
vt -0.3094 0.7856
vt 0.0656 0.7856
vt -0.3094 0.7856
vt -0.2122 0.5079
vt 0.0656 0.7856
vt -0.2122 0.5079
vt 0.0656 0.4106

# 144 Vertex Normals
vn -0.579635 -0.783325 0.224556
vn -0.459117 -0.722856 0.516421
vn -0.663962 -0.444726 0.601143
vn -0.579635 -0.783325 0.224556
vn -0.663962 -0.444726 0.601143
vn -0.788169 -0.54734 0.28144
vn -0.579635 -0.783325 0.224556
vn -0.788169 -0.54734 0.28144
vn -0.870924 -0.487151 -0.06461
vn -0.579635 -0.783325 0.224556
vn -0.870924 -0.487151 -0.06461
vn -0.642782 -0.760876 -0.088876
vn -0.579635 -0.783325 0.224556
vn -0.642782 -0.760876 -0.088876
vn -0.344738 -0.915343 -0.208092
vn -0.579635 -0.783325 0.224556
vn -0.344738 -0.915343 -0.208092
vn -0.309408 -0.940045 0.143463
vn -0.579635 -0.783325 0.224556
vn -0.309408 -0.940045 0.143463
vn -0.138986 -0.880317 0.453568
vn -0.579635 -0.783325 0.224556
vn -0.138986 -0.880317 0.453568
vn -0.459117 -0.722856 0.516421
vn -0.349261 0.008779 -0.936984
vn -0.466654 -0.299751 -0.832096
vn -0.733387 0.004453 -0.679797
vn -0.349261 0.008779 -0.936984
vn -0.733387 0.004453 -0.679797
vn -0.553906 0.308261 -0.77341
vn -0.349261 0.008779 -0.936984
vn -0.553906 0.308261 -0.77341
vn -0.451339 0.550789 -0.702086
vn -0.349261 0.008779 -0.936984
vn -0.451339 0.550789 -0.702086
vn -0.217169 0.280342 -0.935011
vn -0.349261 0.008779 -0.936984
vn -0.217169 0.280342 -0.935011
vn 0.204711 0.012711 -0.97874
vn -0.349261 0.008779 -0.936984
vn 0.204711 0.012711 -0.97874
vn -0.05108 -0.244238 -0.968369
vn -0.349261 0.008779 -0.936984
vn -0.05108 -0.244238 -0.968369
vn -0.206211 -0.532988 -0.82061
vn -0.349261 0.008779 -0.936984
vn -0.206211 -0.532988 -0.82061
vn -0.466654 -0.299751 -0.832096
vn 0.442611 0.87357 -0.202412
vn 0.402607 0.841471 -0.360325
vn -0.039672 0.975038 -0.218467
vn 0.442611 0.87357 -0.202412
vn -0.039672 0.975038 -0.218467
vn 0.029676 0.991555 -0.126245
vn 0.442611 0.87357 -0.202412
vn 0.029676 0.991555 -0.126245
vn 0.120628 0.992214 0.030985
vn 0.442611 0.87357 -0.202412
vn 0.120628 0.992214 0.030985
vn 0.574504 0.817535 -0.039759
vn 0.442611 0.87357 -0.202412
vn 0.574504 0.817535 -0.039759
vn 0.824627 0.565677 -0.000067
vn 0.442611 0.87357 -0.202412
vn 0.824627 0.565677 -0.000067
vn 0.70673 0.659918 -0.255031
vn 0.442611 0.87357 -0.202412
vn 0.70673 0.659918 -0.255031
vn 0.659297 0.53703 -0.526238
vn 0.442611 0.87357 -0.202412
vn 0.659297 0.53703 -0.526238
vn 0.402607 0.841471 -0.360325
vn 0.273978 0.089906 0.957524
vn 0.416918 0.338738 0.843466
vn 0.10318 0.587118 0.802899
vn 0.273978 0.089906 0.957524
vn 0.10318 0.587118 0.802899
vn -0.006778 0.344144 0.938892
vn 0.273978 0.089906 0.957524
vn -0.006778 0.344144 0.938892
vn -0.218997 0.06088 0.973824
vn 0.273978 0.089906 0.957524
vn -0.218997 0.06088 0.973824
vn 0.102603 -0.199402 0.974531
vn 0.273978 0.089906 0.957524
vn 0.102603 -0.199402 0.974531
vn 0.328799 -0.442805 0.834156
vn 0.273978 0.089906 0.957524
vn 0.328799 -0.442805 0.834156
vn 0.527588 -0.143914 0.837221
vn 0.273978 0.089906 0.957524
vn 0.527588 -0.143914 0.837221
vn 0.729132 0.104561 0.676338
vn 0.273978 0.089906 0.957524
vn 0.729132 0.104561 0.676338
vn 0.416918 0.338738 0.843466
vn 0.761312 -0.615737 -0.203155
vn 0.816163 -0.567599 0.108205
vn 0.566759 -0.788815 0.237813
vn 0.761312 -0.615737 -0.203155
vn 0.566759 -0.788815 0.237813
vn 0.545064 -0.829252 -0.123477
vn 0.761312 -0.615737 -0.203155
vn 0.545064 -0.829252 -0.123477
vn 0.362023 -0.823457 -0.436873
vn 0.761312 -0.615737 -0.203155
vn 0.362023 -0.823457 -0.436873
vn 0.627618 -0.600464 -0.495519
vn 0.761312 -0.615737 -0.203155
vn 0.627618 -0.600464 -0.495519
vn 0.757312 -0.284912 -0.587625
vn 0.761312 -0.615737 -0.203155
vn 0.757312 -0.284912 -0.587625
vn 0.902996 -0.341851 -0.260263
vn 0.761312 -0.615737 -0.203155
vn 0.902996 -0.341851 -0.260263
vn 0.965665 -0.247425 0.079202
vn 0.761312 -0.615737 -0.203155
vn 0.965665 -0.247425 0.079202
vn 0.816163 -0.567599 0.108205
vn -0.620276 0.777194 0.105963
vn -0.572481 0.70241 0.422948
vn -0.376749 0.901312 0.213767
vn -0.620276 0.777194 0.105963
vn -0.376749 0.901312 0.213767
vn -0.356692 0.933739 -0.030038
vn -0.620276 0.777194 0.105963
vn -0.356692 0.933739 -0.030038
vn -0.447774 0.875845 -0.179984
vn -0.620276 0.777194 0.105963
vn -0.447774 0.875845 -0.179984
vn -0.676381 0.71111 -0.191916
vn -0.620276 0.777194 0.105963
vn -0.676381 0.71111 -0.191916
vn -0.819282 0.556963 -0.136267
vn -0.620276 0.777194 0.105963
vn -0.819282 0.556963 -0.136267
vn -0.768056 0.605068 0.209723
vn -0.620276 0.777194 0.105963
vn -0.768056 0.605068 0.209723
vn -0.66169 0.560819 0.497642
vn -0.620276 0.777194 0.105963
vn -0.66169 0.560819 0.497642
vn -0.572481 0.70241 0.422948

# pierre, 48 grouped triangles

o pierre
g pierre

f 1/1/1 2/2/2 3/3/3
f 1/4/4 3/5/5 4/6/6
f 1/7/7 4/8/8 5/9/9
f 1/10/10 5/11/11 6/12/12
f 1/13/13 6/14/14 7/15/15
f 1/16/16 7/17/17 8/18/18
f 1/19/19 8/20/20 9/21/21
f 1/22/22 9/23/23 2/24/24
f 10/25/25 11/26/26 12/27/27
f 10/28/28 12/29/29 13/30/30
f 10/31/31 13/32/32 14/33/33
f 10/34/34 14/35/35 15/36/36
f 10/37/37 15/38/38 16/39/39
f 10/40/40 16/41/41 17/42/42
f 10/43/43 17/44/44 18/45/45
f 10/46/46 18/47/47 11/48/48
f 19/49/49 20/50/50 21/51/51
f 19/52/52 21/53/53 22/54/54
f 19/55/55 22/56/56 23/57/57
f 19/58/58 23/59/59 24/60/60
f 19/61/61 24/62/62 25/63/63
f 19/64/64 25/65/65 26/66/66
f 19/67/67 26/68/68 27/69/69
f 19/70/70 27/71/71 20/72/72
f 28/73/73 29/74/74 30/75/75
f 28/76/76 30/77/77 31/78/78
f 28/79/79 31/80/80 32/81/81
f 28/82/82 32/83/83 33/84/84
f 28/85/85 33/86/86 34/87/87
f 28/88/88 34/89/89 35/90/90
f 28/91/91 35/92/92 36/93/93
f 28/94/94 36/95/95 29/96/96
f 37/97/97 38/98/98 39/99/99
f 37/100/100 39/101/101 40/102/102
f 37/103/103 40/104/104 41/105/105
f 37/106/106 41/107/107 42/108/108
f 37/109/109 42/110/110 43/111/111
f 37/112/112 43/113/113 44/114/114
f 37/115/115 44/116/116 45/117/117
f 37/118/118 45/119/119 38/120/120
f 46/121/121 47/122/122 48/123/123
f 46/124/124 48/125/125 49/126/126
f 46/127/127 49/128/128 50/129/129
f 46/130/130 50/131/131 51/132/132
f 46/133/133 51/134/134 52/135/135
f 46/136/136 52/137/137 53/138/138
f 46/139/139 53/140/140 54/141/141
f 46/142/142 54/143/143 47/144/144
