v 0.872661 -0.00716 -13.31352
v 0.461086 -0.00716 -15.17272
v -1.526614 -0.00716 -15.37526
v -2.34353 -0.00716 -13.6412
v -0.860691 -0.007161 -12.36698
v 1.740884 9.642151 -13.30713
v 1.228191 9.588937 -15.61285
v -1.236533 9.651652 -15.86629
v -2.247102 9.743631 -13.71721
v -0.406971 9.73776 -12.13556
v 1.38241 9.970463 -13.49797
v 0.972643 9.927932 -15.34084
v -0.997303 9.978061 -15.5434
v -1.805042 10.05157 -13.82573
v -0.334281 10.04688 -12.56161
v -0.811544 4.209821 -26.00354
v -0.814157 5.385663 -26.12642
v 0.355842 4.209821 -26.02571
v 0.353258 5.385663 -26.14859
v -0.843182 4.972811 -14.30391
v -0.845956 6.161521 -14.43584
v 0.324204 4.972811 -14.32609
v 0.32143 6.161521 -14.45798
v -0.812672 1.265178 -26.0572
v -0.810136 2.441059 -25.93521
v 0.354714 1.265178 -26.07937
v 0.357279 2.441059 -25.95739
v -1.05881 0.949042 -14.30695
v -1.056376 2.138498 -14.19122
v 0.108605 0.949042 -14.32912
v 0.111038 2.138498 -14.2134
v 0.705504 -0.007164 -0.551973
v 0.293928 -0.007163 -2.411205
v -1.693771 -0.007163 -2.613709
v -2.510687 -0.007164 -0.879657
v -1.027848 -0.007164 0.394569
v 2.010622 8.632955 -0.48037
v 1.498237 8.813928 -2.771428
v -0.966112 8.906199 -3.007088
v -1.976759 8.782264 -0.861677
v -0.137049 8.613382 0.699933
v 0.120685 10.42076 -0.981037
v -0.870171 7.652497 -13.55612
v -0.865668 8.822537 -13.34201
v 0.297244 7.652497 -13.57829
v 0.301746 8.822537 -13.36418
v -0.771838 6.786604 -1.450587
v -0.767446 7.970433 -1.241708
v 0.395576 6.786604 -1.472762
v 0.399969 7.970433 -1.263854
v -0.872141 3.112555 -13.64983
v -0.873979 4.289795 -13.73719
v 0.295273 3.112555 -13.672
v 0.293436 4.289795 -13.75937
v -0.772852 3.624096 -1.498792
v -0.774871 4.814329 -1.594813
v 0.394563 3.624096 -1.520967
v 0.392543 4.814329 -1.616987
v 2.4515 -0.007167 12.45173
v 1.56419 -0.007166 10.74921
v -0.413712 -0.007166 11.02512
v -0.748822 -0.007167 12.89814
v 1.021981 -0.007167 13.77985
v 2.356023 9.048479 12.53537
v 1.240752 9.132445 10.43282
v -1.193303 8.922313 10.76286
v -1.582344 8.708494 13.06937
v 0.611252 8.786462 14.16484
v 1.883907 9.341867 12.51861
v 0.992491 9.408978 10.83814
v -0.952943 9.241028 11.1019
v -1.263888 9.070128 12.94543
v 0.489383 9.132454 13.82098
v 0.104615 4.209811 12.45081
v 0.102031 5.385654 12.32793
v 1.27203 4.209811 12.42863
v 1.269446 5.385654 12.30576
v 0.14083 4.972802 24.14915
v 0.138056 6.161511 24.01722
v 1.308245 4.972802 24.12697
v 1.305471 6.161511 23.99508
v 0.103487 1.265168 12.39715
v 0.106052 2.44105 12.51914
v 1.270901 1.265168 12.37495
v 1.273467 2.44105 12.49696
v -0.074769 0.949032 24.14611
v -0.072336 2.138489 24.26181
v 1.092616 0.949032 24.12394
v 1.09505 2.138489 24.23966
v -0.94967 5.02414 -0.809796
v -0.947629 6.20105 -0.712746
v 0.217715 5.02415 -0.831998
v 0.219786 6.20105 -0.73492
v 0.043395 5.682419 12.05704
v 0.040498 6.870838 11.91928
v 1.21081 5.682419 12.03487
v 1.207913 6.870838 11.89713
v -0.956444 2.297314 -1.131924
v -0.955446 3.475563 -1.08447
v 0.210941 2.297314 -1.154126
v 0.211969 3.475563 -1.106645
v 0.050187 2.434956 12.38001
v 0.044398 3.612759 12.10472
v 1.217602 2.434956 12.35783
v 1.211813 3.612759 12.08255
v 1.435702 -0.00717 25.14895
v 1.024127 -0.007169 23.28975
v -0.963602 -0.007169 23.08722
v -1.780488 -0.00717 24.82127
v -0.29765 -0.00717 26.0955
v 2.718301 9.528591 25.12629
v 2.200396 9.498772 22.82069
v -0.248748 9.684324 22.56695
v -1.244499 9.828839 24.71576
v 0.589248 9.732589 26.29753
v 2.402086 9.873611 24.93464
v 1.988131 9.84977 23.09185
v 0.03063 9.99808 22.88905
v -0.765219 10.11358 24.6065
v 0.700418 10.03666 25.87075
vn 0.7795807 -0.07033597 0.6223398
vn 0.817616 -0.091331 -0.568474
vn -0.279332 -0.040427 -0.9593431
vn -0.9992334 0.009535994 -0.03796598
vn -0.3257219 -0.007276997 0.9454376
vn 0.8479712 0.4225371 0.3200111
vn 0.5822901 0.394486 -0.710858
vn -0.4528032 0.4343832 -0.7786403
vn -0.8386098 0.5024839 0.2103419
vn -0.03767 0.473115 0.880195
vn 0.410219 0.9110959 0.040307
vn 0.214504 0.8978748 -0.3844589
vn -0.2301259 0.9205986 -0.3154999
vn -0.301927 0.9439811 0.133191
vn 0.07672498 0.9320418 0.3541349
vn -0.999994 -0.002488 -0.002542
vn -0.001258 0.997804 -0.066224
vn 0.001236 -0.9978794 0.06508002
vn 0.9999936 0.002539999 0.002545999
vn 0.001236 -0.9978794 0.06508002
vn -0.999993 -0.002616 -0.002546
vn 0.9999936 0.002539999 0.002545999
vn -0.001258 0.997804 -0.066224
vn -0.999774 0.004317 -0.020827
vn 0.0004889999 0.9996679 0.025765
vn -0.0005109999 -0.9996379 -0.026906
vn 0.999774 -0.004208 0.020841
vn -0.0005109999 -0.9996379 -0.026906
vn -0.999774 0.004075 -0.020858
vn 0.999774 -0.004208 0.020841
vn 0.0004889999 0.9996679 0.025765
vn 0.776029 -0.122729 0.618641
vn 0.8094249 -0.135249 -0.5714359
vn -0.2817929 -0.020237 -0.9592618
vn -0.997502 0.060353 -0.036708
vn -0.3230779 -0.001102 0.9463717
vn 0.9278907 0.2511749 0.2755539
vn 0.520454 0.331091 -0.7870871
vn -0.5788618 0.4128509 -0.7031878
vn -0.838745 0.392335 0.377598
vn 0.05794502 0.2795731 0.9583743
vn 0.02811201 0.9945783 0.100119
vn -0.999963 0.002331 0.008289
vn 0.001333 0.9975296 0.07023498
vn -0.001355001 -0.9974515 -0.07133504
vn 0.9999631 -0.002291 -0.008282001
vn -0.001355001 -0.9974515 -0.07133504
vn -0.999963 0.00225 0.008276
vn 0.9999631 -0.002291 -0.008282001
vn 0.001333 0.9975296 0.07023498
vn -0.999966 -0.000951 0.008211
vn -0.0008200002 0.9990683 -0.04315201
vn 0.000799 -0.999115 0.042055
vn 0.9999658 0.0009929998 -0.008208998
vn 0.000799 -0.999115 0.042055
vn -0.999966 -0.001034 0.008206
vn 0.9999658 0.0009929998 -0.008208998
vn -0.0008200002 0.9990683 -0.04315201
vn 0.9135838 0.005594999 0.4066119
vn 0.6477217 -0.004151998 -0.7618656
vn -0.5002242 -0.06823403 -0.8632033
vn -0.9707128 -0.09732299 0.219647
vn -0.08237801 -0.04751001 0.9954681
vn 0.8492289 0.505284 0.153292
vn 0.3325191 0.5200351 -0.7867621
vn -0.6912211 0.431253 -0.579857
vn -0.8074099 0.3561229 0.4703889
vn 0.1218621 0.3808952 0.9165525
vn 0.2881681 0.9561234 0.05279602
vn 0.014806 0.956826 -0.290284
vn -0.4063179 0.9039987 -0.133011
vn -0.3778229 0.8587858 0.3460299
vn 0.069676 0.891002 0.448621
vn -0.999993 -0.001861 0.003217
vn -0.001257 0.997804 -0.066224
vn 0.001236 -0.9978794 0.06508002
vn 0.999993 0.001919 -0.003215
vn 0.001236 -0.9978794 0.06508002
vn -0.999993 -0.001977 0.003213
vn 0.999993 0.001919 -0.003215
vn -0.001257 0.997804 -0.066224
vn -0.999879 0.003745 -0.015069
vn 0.0004889999 0.9996679 0.025765
vn -0.0005109999 -0.9996379 -0.026906
vn 0.9998797 -0.003629999 0.01508699
vn -0.0005109999 -0.9996379 -0.026906
vn -0.99988 0.003514 -0.015099
vn 0.9998797 -0.003629999 0.01508699
vn 0.0004889999 0.9996679 0.025765
vn -0.997006 -0.004636 0.077186
vn -0.001004 0.9986009 -0.05286999
vn 0.0009740003 -0.9986972 0.05101901
vn 0.9969985 -0.0009779995 -0.07741396
vn 0.0009740003 -0.9986972 0.05101901
vn -0.99696 0.00657 0.077638
vn 0.9969985 -0.0009779995 -0.07741396
vn -0.001004 0.9986009 -0.05286999
vn -0.997232 -0.002148 0.074315
vn -0.000197 0.9999461 -0.010387
vn 0.000193 -0.9999483 0.010172
vn 0.9971779 -0.005305 -0.07488699
vn 0.000193 -0.9999483 0.010172
vn -0.997068 0.012735 0.075453
vn 0.9971779 -0.005305 -0.07488699
vn -0.000197 0.9999461 -0.010387
vn 0.7766533 -0.102772 0.6214882
vn 0.8129508 -0.12876 -0.5679189
vn -0.2801479 -0.03113999 -0.9594516
vn -0.9978853 0.05362902 -0.03672501
vn -0.32576 0.010068 0.9453989
vn 0.8727136 0.3677928 0.3210908
vn 0.6104888 0.3474169 -0.7117618
vn -0.428015 0.455612 -0.780526
vn -0.8052471 0.5534802 0.212689
vn -0.007478 0.479209 0.877669
vn 0.473288 0.8800259 0.03940799
vn 0.266908 0.8807539 -0.391194
vn -0.174651 0.9338529 -0.312115
vn -0.2443889 0.9611207 0.128535
vn 0.12882 0.925437 0.356331
vn 0.001236 -0.997879 0.06508
vn -0.9999935 -0.002551999 -0.002543999
vn 0.999994 0.002463 0.002544
vn -0.001258 0.997804 -0.066224
vn -0.9999935 -0.002551999 -0.002543999
vn -0.001257 0.997804 -0.066224
vn 0.001236 -0.997879 0.06508
vn 0.999993 0.002616 0.002549
vn -0.000511 -0.999638 -0.026906
vn -0.999774 0.004196 -0.020842
vn 0.999774 -0.004341 0.020823
vn 0.000489 0.999668 0.025765
vn -0.999774 0.004196 -0.020842
vn 0.000489 0.999668 0.025765
vn -0.000511 -0.999638 -0.026906
vn 0.999774 -0.004075 0.020858
vn -0.001355 -0.997451 -0.071335
vn -0.9999631 0.002291 0.008282001
vn 0.999963 -0.002331 -0.008289
vn 0.001334 0.99753 0.070235
vn -0.9999631 0.002291 0.008282001
vn 0.001332 0.99753 0.070235
vn -0.001355 -0.997451 -0.071335
vn 0.999963 -0.00225 -0.008276
vn 0.000799 -0.999115 0.042055
vn -0.9999658 -0.0009929998 0.008208998
vn 0.999966 0.000951 -0.008211
vn -0.00082 0.999068 -0.043152
vn -0.9999658 -0.0009929998 0.008208998
vn -0.00082 0.999068 -0.043152
vn 0.000799 -0.999115 0.042055
vn 0.999966 0.001034 -0.008206
vn 0.001236 -0.997879 0.06508
vn -0.999993 -0.001919 0.003215
vn 0.999993 0.001861 -0.003217
vn -0.001258 0.997804 -0.066224
vn -0.999993 -0.001919 0.003215
vn -0.001256 0.997804 -0.066224
vn 0.001236 -0.997879 0.06508
vn 0.999993 0.001977 -0.003213
vn -0.000512 -0.999638 -0.026906
vn -0.9998797 0.003628999 -0.01508399
vn 0.999879 -0.003746 0.015072
vn 0.000489 0.999668 0.025765
vn -0.9998797 0.003628999 -0.01508399
vn 0.000489 0.999668 0.025765
vn -0.000511 -0.999638 -0.026906
vn 0.99988 -0.003515 0.015101
vn 0.000979 -0.998697 0.051019
vn -0.9969987 0.0009669997 0.07741297
vn 0.997006 0.004613 -0.077187
vn -0.001004 0.998601 -0.05287
vn -0.9969987 0.0009669997 0.07741297
vn -0.001003 0.998601 -0.05287
vn 0.000969 -0.998697 0.051019
vn 0.99696 -0.006568 -0.077638
vn 0.000193 -0.999948 0.010172
vn -0.9971781 0.005293 0.07488601
vn 0.997232 0.002125 -0.074317
vn -0.000197 0.999946 -0.010387
vn -0.9971781 0.005293 0.07488601
vn -0.000197 0.999946 -0.010387
vn 0.000193 -0.999948 0.010172
vn 0.997068 -0.012735 -0.075453
vt 0.647037 1e-06
vt 0.5683271 1e-06
vt 0.188196 1e-06
vt 0.031967 1e-06
vt 0.315548 1e-06
vt 0.813077 0.925335
vt 0.715029 0.920232
vt 0.243671 0.926246
vt 0.050408 0.9350661
vt 0.402318 0.934503
vt 0.744522 0.956819
vt 0.666158 0.95274
vt 0.289422 0.957547
vt 0.134949 0.9645969
vt 0.416219 0.964147
vt 0.324947 0.404394
vt 0.324447 0.517153
vt 0.5482 0.404394
vt 0.5477051 0.517153
vt 0.318896 0.477562
vt 0.318366 0.591555
vt 0.542149 0.477562
vt 0.541619 0.591555
vt 0.324731 0.122014
vt 0.325216 0.234776
vt 0.547984 0.122014
vt 0.548474 0.234776
vt 0.277659 0.091697
vt 0.278125 0.205762
vt 0.5009171 0.091697
vt 0.501383 0.205762
vt 0.61507 1e-06
vt 0.536359 1e-06
vt 0.156228 1e-06
vt 0 1e-06
vt 0.28358 1e-06
vt 0.864662 0.828556
vt 0.766673 0.845911
vt 0.295387 0.85476
vt 0.102109 0.842875
vt 0.453938 0.82668
vt 0.503228 1
vt 0.313735 0.734534
vt 0.314596 0.846737
vt 0.536993 0.734534
vt 0.5378541 0.8467371
vt 0.33254 0.651498
vt 0.33338 0.765023
vt 0.555798 0.651498
vt 0.5566391 0.765023
vt 0.313358 0.29917
vt 0.313007 0.412063
vt 0.536616 0.29917
vt 0.536265 0.412063
vt 0.332346 0.348225
vt 0.33196 0.462364
vt 0.5556051 0.348225
vt 0.555218 0.462364
vt 0.948977 0
vt 0.7792861 0
vt 0.401029 0
vt 0.336942 0
vt 0.6755931 0
vt 0.930717 0.868404
vt 0.717431 0.8764561
vt 0.251939 0.8563051
vt 0.177538 0.8358001
vt 0.597045 0.843277
vt 0.840429 0.8965389
vt 0.669953 0.9029741
vt 0.297906 0.886868
vt 0.23844 0.87048
vt 0.573738 0.876457
vt 0.500154 0.404393
vt 0.49966 0.517152
vt 0.723413 0.404393
vt 0.722919 0.517152
vt 0.50708 0.477561
vt 0.50655 0.591554
vt 0.730339 0.477561
vt 0.729808 0.591554
vt 0.499939 0.122013
vt 0.500429 0.234775
vt 0.723197 0.122013
vt 0.723688 0.234775
vt 0.465849 0.091696
vt 0.466314 0.205761
vt 0.6891021 0.09169601
vt 0.689567 0.205761
vt 0.298531 0.482484
vt 0.298922 0.595346
vt 0.521784 0.482485
vt 0.52218 0.595346
vt 0.488447 0.545611
vt 0.487893 0.659576
vt 0.7117051 0.545611
vt 0.711151 0.6595761
vt 0.297236 0.220992
vt 0.297427 0.333981
vt 0.520488 0.220992
vt 0.5206851 0.333981
vt 0.489746 0.234191
vt 0.488639 0.347138
vt 0.713004 0.234191
vt 0.7118971 0.347138
vt 0.754714 0
vt 0.6760041 0
vt 0.295867 0
vt 0.139644 0
vt 0.423225 0
vt 1 0.914445
vt 0.9009551 0.911585
vt 0.4325771 0.929379
vt 0.242148 0.943237
vt 0.592836 0.934007
vt 0.939526 0.9475309
vt 0.860361 0.945245
vt 0.486006 0.9594671
vt 0.333806 0.970543
vt 0.6140971 0.963167
g slot9
usemtl slot9.tga
f 5/5/5 10/10/10 9/9/9
f 5/5/5 9/9/9 4/4/4
f 3/3/3 8/8/8 7/7/7
f 3/3/3 7/7/7 2/2/2
f 1/1/1 6/6/6 10/10/10
f 1/1/1 10/10/10 5/5/5
f 4/4/4 9/9/9 8/8/8
f 4/4/4 8/8/8 3/3/3
f 2/2/2 7/7/7 6/6/6
f 2/2/2 6/6/6 1/1/1
f 7/7/7 12/12/12 11/11/11
f 7/7/7 11/11/11 6/6/6
f 10/10/10 15/15/15 14/14/14
f 10/10/10 14/14/14 9/9/9
f 8/8/8 13/13/13 12/12/12
f 8/8/8 12/12/12 7/7/7
f 6/6/6 11/11/11 15/15/15
f 6/6/6 15/15/15 10/10/10
f 9/9/9 14/14/14 13/13/13
f 9/9/9 13/13/13 8/8/8
f 114/114/114 118/118/118 113/113/113
f 11/11/11 12/12/12 15/15/15
f 14/14/14 12/12/12 13/13/13
f 118/118/118 120/120/120 117/117/117
f 15/15/15 12/12/12 14/14/14
f 36/36/36 41/41/41 40/40/40
f 36/36/36 40/40/40 35/35/35
f 34/34/34 39/39/39 38/38/38
f 34/34/34 38/38/38 33/33/33
f 32/32/32 37/37/37 41/41/41
f 32/32/32 41/41/41 36/36/36
f 35/35/35 40/40/40 39/39/39
f 35/35/35 39/39/39 34/34/34
f 33/33/33 38/38/38 37/37/37
f 33/33/33 37/37/37 32/32/32
f 39/39/39 42/42/42 38/38/38
f 37/37/37 42/42/42 41/41/41
f 40/40/40 42/42/42 39/39/39
f 41/41/41 42/42/42 40/40/40
f 38/38/38 42/42/42 37/37/37
f 63/63/63 68/68/68 67/67/67
f 63/63/63 67/67/67 62/62/62
f 61/61/61 66/66/66 65/65/65
f 61/61/61 65/65/65 60/60/60
f 59/59/59 64/64/64 68/68/68
f 59/59/59 68/68/68 63/63/63
f 62/62/62 67/67/67 66/66/66
f 62/62/62 66/66/66 61/61/61
f 60/60/60 65/65/65 64/64/64
f 60/60/60 64/64/64 59/59/59
f 65/65/65 70/70/70 69/69/69
f 65/65/65 69/69/69 64/64/64
f 68/68/68 73/73/73 72/72/72
f 68/68/68 72/72/72 67/67/67
f 66/66/66 71/71/71 70/70/70
f 66/66/66 70/70/70 65/65/65
f 64/64/64 69/69/69 73/73/73
f 64/64/64 73/73/73 68/68/68
f 67/67/67 72/72/72 71/71/71
f 67/67/67 71/71/71 66/66/66
f 119/119/119 120/120/120 118/118/118
f 69/69/69 70/70/70 73/73/73
f 72/72/72 70/70/70 71/71/71
f 117/117/117 120/120/120 116/116/116
f 73/73/73 70/70/70 72/72/72
f 110/110/110 115/115/115 114/114/114
f 110/110/110 114/114/114 109/109/109
f 108/108/108 113/113/113 112/112/112
f 108/108/108 112/112/112 107/107/107
f 106/106/106 111/111/111 115/115/115
f 106/106/106 115/115/115 110/110/110
f 109/109/109 114/114/114 113/113/113
f 109/109/109 113/113/113 108/108/108
f 107/107/107 112/112/112 111/111/111
f 107/107/107 111/111/111 106/106/106
f 112/112/112 117/117/117 116/116/116
f 112/112/112 116/116/116 111/111/111
f 115/115/115 120/120/120 119/119/119
f 115/115/115 119/119/119 114/114/114
f 113/113/113 118/118/118 117/117/117
f 113/113/113 117/117/117 112/112/112
f 111/111/111 116/116/116 120/120/120
f 111/111/111 120/120/120 115/115/115
f 114/114/114 119/119/119 118/118/118
g slot14
usemtl slot14.tga
f 102/102/102 98/98/177 100/100/100
f 102/102/102 100/100/100 104/104/183
f 105/105/105 101/101/180 99/99/99
f 102/102/181 103/103/103 99/99/178
f 105/105/105 99/99/99 103/103/182
f 102/102/181 99/99/178 98/98/98
f 22/22/22 18/18/123 19/19/19
f 22/22/22 19/19/19 23/23/128
f 20/20/125 21/21/21 17/17/122
f 20/20/125 17/17/122 16/16/16
f 20/20/20 16/16/121 18/18/18
f 20/20/20 18/18/18 22/22/127
f 23/23/23 19/19/124 17/17/17
f 23/23/23 17/17/17 21/21/126
f 30/30/30 26/26/131 27/27/27
f 30/30/30 27/27/27 31/31/136
f 28/28/133 29/29/29 25/25/130
f 28/28/133 25/25/130 24/24/24
f 28/28/28 24/24/129 26/26/26
f 28/28/28 26/26/26 30/30/135
f 31/31/31 27/27/132 25/25/25
f 31/31/31 25/25/25 29/29/134
f 49/49/49 45/45/139 46/46/46
f 49/49/49 46/46/46 50/50/144
f 47/47/141 48/48/48 44/44/138
f 47/47/141 44/44/138 43/43/43
f 47/47/47 43/43/137 45/45/45
f 47/47/47 45/45/45 49/49/143
f 50/50/50 46/46/140 44/44/44
f 50/50/50 44/44/44 48/48/142
f 57/57/57 53/53/147 54/54/54
f 57/57/57 54/54/54 58/58/152
f 55/55/149 56/56/56 52/52/146
f 55/55/149 52/52/146 51/51/51
f 55/55/55 51/51/145 53/53/53
f 55/55/55 53/53/53 57/57/151
f 58/58/58 54/54/148 52/52/52
f 58/58/58 52/52/52 56/56/150
f 80/80/80 76/76/155 77/77/77
f 80/80/80 77/77/77 81/81/160
f 78/78/157 79/79/79 75/75/154
f 78/78/157 75/75/154 74/74/74
f 78/78/78 74/74/153 76/76/76
f 78/78/78 76/76/76 80/80/159
f 81/81/81 77/77/156 75/75/75
f 81/81/81 75/75/75 79/79/158
f 88/88/88 84/84/163 85/85/85
f 88/88/88 85/85/85 89/89/168
f 86/86/165 87/87/87 83/83/162
f 86/86/165 83/83/162 82/82/82
f 86/86/86 82/82/161 84/84/84
f 86/86/86 84/84/84 88/88/167
f 89/89/89 85/85/164 83/83/83
f 89/89/89 83/83/83 87/87/166
f 96/96/96 92/92/171 93/93/93
f 96/96/96 93/93/93 97/97/176
f 94/94/173 95/95/95 91/91/170
f 94/94/173 91/91/170 90/90/90
f 94/94/94 90/90/169 92/92/92
f 94/94/94 92/92/92 96/96/175
f 97/97/97 93/93/172 91/91/91
f 97/97/97 91/91/91 95/95/174
f 104/104/104 100/100/179 101/101/101
f 104/104/104 101/101/101 105/105/184
