# Blender v3.4.1 OBJ File: ''
# www.blender.org
mtllib tris.mtl
o Pier_03_LOD1_Mesh.006
v -0.736897 2.161063 -1.428302
v -0.736897 2.123410 -1.428302
v -0.727567 2.161063 -1.215408
v 0.738733 2.161063 -1.437524
v 0.738733 2.123410 -1.437524
v 0.712628 2.161063 -1.255594
v 0.712628 2.123410 -1.255594
v -0.727567 2.123410 -1.215408
v -0.923530 0.000000 -1.302006
v -0.946261 2.510593 -1.279275
v -0.923530 0.000000 -1.451295
v -0.946261 2.510593 -1.474025
v -0.774242 0.000000 -1.302006
v -0.751511 2.510593 -1.279275
v -0.774242 0.000000 -1.451295
v -0.751511 2.510593 -1.474025
v 0.923530 0.000000 -1.302006
v 0.923530 0.000000 -1.451295
v 0.946261 2.636841 -1.279274
v 0.774242 0.000000 -1.302006
v 0.774242 0.000000 -1.451295
v 0.751511 2.636841 -1.279274
v 0.751511 2.636841 -1.474025
v 0.946261 2.636841 -1.474025
v 0.923530 -0.000000 1.302007
v 0.923530 -0.000000 1.451295
v 0.946261 2.404475 1.279276
v 0.774242 -0.000000 1.302007
v 0.774242 -0.000000 1.451295
v 0.751511 2.404475 1.279276
v 0.751511 2.404475 1.474027
v 0.946261 2.404475 1.474027
v -0.923530 -0.000000 1.302007
v -0.923530 -0.000000 1.451295
v -0.946261 2.510250 1.279276
v -0.774242 -0.000000 1.302007
v -0.774242 -0.000000 1.451295
v -0.751511 2.510250 1.279276
v -0.751511 2.510250 1.474027
v -0.946261 2.510250 1.474027
v 0.751269 1.994209 1.468306
v 0.697507 1.994209 1.468306
v 0.751269 2.119722 1.468306
v 0.751269 1.994210 -1.468305
v 0.697507 1.994210 -1.468305
v 0.751269 2.119723 -1.468305
v 0.697507 2.119723 -1.468305
v 0.697507 2.119722 1.468306
v -0.751269 1.994209 1.468306
v -0.697507 1.994209 1.468306
v -0.751269 2.119722 1.468306
v -0.751269 1.994210 -1.468305
v -0.697507 1.994210 -1.468305
v -0.751269 2.119723 -1.468305
v -0.697507 2.119723 -1.468305
v -0.697507 2.119722 1.468306
v -0.736275 2.161062 1.247702
v -0.736275 2.123409 1.247702
v -0.726467 2.161062 1.460393
v 0.744881 2.161062 1.272071
v 0.744881 2.123409 1.272071
v 0.728323 2.161062 1.442047
v 0.728323 2.123409 1.442047
v -0.726467 2.123409 1.460393
v -0.846750 2.169157 0.841080
v -0.846750 2.131503 0.841080
v -0.838341 2.169157 1.054051
v -0.038764 2.070151 0.870529
v -0.038764 2.032497 0.870529
v -0.040736 2.070151 1.055555
v -0.040736 2.032497 1.055555
v -0.838341 2.131503 1.054051
v -0.885442 2.161063 0.577026
v -0.885442 2.123409 0.577026
v -0.887026 2.161062 0.756474
v 0.884583 2.161063 0.576986
v 0.884583 2.123409 0.576986
v 0.878604 2.161062 0.757264
v 0.878604 2.123409 0.757264
v -0.887026 2.123409 0.756474
v -0.853202 2.161063 0.259126
v -0.853202 2.123409 0.259126
v -0.865020 2.161063 0.470383
v 0.850736 2.161063 0.267518
v 0.850736 2.123409 0.267518
v 0.858918 2.161063 0.481450
v 0.858918 2.123409 0.481450
v -0.865020 2.123409 0.470383
v -0.881164 2.161063 -0.084185
v -0.881164 2.123409 -0.084185
v -0.889213 2.161063 0.161818
v 0.965319 2.161063 -0.021871
v 0.965319 2.123409 -0.021871
v 0.896162 2.161063 0.227096
v 0.896162 2.123409 0.227096
v -0.889213 2.123409 0.161818
v -0.852739 2.161063 -0.631979
v -0.852739 2.123409 -0.631979
v -0.842929 2.161063 -0.417678
v 0.877507 2.161063 -0.541173
v 0.877507 2.123409 -0.541173
v 0.851327 2.161063 -0.359765
v 0.851327 2.123409 -0.359765
v -0.842929 2.123409 -0.417678
v -0.857142 2.161063 -0.914068
v -0.857142 2.123410 -0.914068
v -0.869581 2.161063 -0.659612
v 0.847212 2.161063 -0.913830
v 0.847212 2.123410 -0.913830
v 0.857600 2.161063 -0.659392
v 0.857600 2.123409 -0.659392
v -0.869581 2.123409 -0.659612
v -0.862968 2.161063 -1.177016
v -0.862968 2.123410 -1.177016
v -0.853201 2.161063 -0.945316
v 0.844695 2.161063 -1.213184
v 0.844695 2.123410 -1.213184
v 0.967848 2.161063 -1.001230
v 0.967848 2.123410 -1.001230
v -0.853201 2.123410 -0.945316
v -0.882899 2.161063 -0.371051
v -0.882899 2.123409 -0.371051
v -0.886687 2.161063 -0.124202
v 0.887298 2.161063 -0.344655
v 0.887298 2.123409 -0.344655
v 0.863827 2.161063 -0.098735
v 0.863827 2.123409 -0.098735
v -0.886687 2.123409 -0.124202
v -0.645035 2.199582 0.152983
v -0.645035 2.161928 0.152983
v -0.776925 2.199582 0.343067
v 0.740536 2.199581 1.152542
v 0.740536 2.161927 1.152542
v 0.709765 2.199581 1.395188
v 0.709765 2.161927 1.395188
v -0.776925 2.161928 0.343067
v 0.045726 2.078944 0.813807
v 0.045726 2.041290 0.813807
v 0.043646 2.078944 1.000553
v 0.840076 2.175573 0.833815
v 0.840076 2.137919 0.833815
v 0.850167 2.175573 1.047163
v 0.850167 2.137919 1.047163
v 0.043646 2.041290 1.000553
vt 0.151549 0.365939
vt 0.152187 0.365939
vt 0.152187 0.367430
vt 0.151549 0.367430
vt 0.151549 0.365939
vt 0.152187 0.365939
vt 0.151549 0.367430
vt 0.152187 0.367430
vt 0.149503 0.342256
vt 0.149233 0.372068
vt 0.149233 0.372068
vt 0.149503 0.342256
vt 0.151546 0.372068
vt 0.151276 0.342256
vt 0.151546 0.372068
vt 0.151276 0.342256
vt 0.151316 0.378410
vt 0.149003 0.378410
vt 0.149003 0.378410
vt 0.151316 0.378410
vt 0.171439 0.342256
vt 0.171439 0.342256
vt 0.171709 0.372068
vt 0.171709 0.372068
vt 0.169666 0.342256
vt 0.169666 0.342256
vt 0.169396 0.372068
vt 0.169396 0.372068
vt 0.169166 0.378410
vt 0.169166 0.378410
vt 0.171478 0.378410
vt 0.171478 0.378410
vt 0.171439 0.342256
vt 0.171709 0.372068
vt 0.171709 0.372068
vt 0.171439 0.342256
vt 0.169666 0.342256
vt 0.169666 0.342256
vt 0.169396 0.372068
vt 0.169396 0.372068
vt 0.169166 0.378410
vt 0.171478 0.378410
vt 0.171478 0.378410
vt 0.169166 0.378410
vt 0.171439 0.342256
vt 0.171439 0.342256
vt 0.171709 0.372068
vt 0.171709 0.372068
vt 0.169666 0.342256
vt 0.169666 0.342256
vt 0.169396 0.372068
vt 0.169396 0.372068
vt 0.169166 0.378410
vt 0.169166 0.378410
vt 0.171478 0.378410
vt 0.171478 0.378410
vt 0.169393 0.365939
vt 0.169393 0.367430
vt 0.168754 0.367430
vt 0.168754 0.365939
vt 0.168754 0.365939
vt 0.169393 0.365939
vt 0.169393 0.367430
vt 0.168754 0.367430
vt 0.151549 0.365939
vt 0.152187 0.365939
vt 0.152187 0.367430
vt 0.151549 0.367430
vt 0.151549 0.365939
vt 0.152187 0.365939
vt 0.151549 0.367430
vt 0.152187 0.367430
vt 0.151549 0.365939
vt 0.152187 0.365939
vt 0.152187 0.367430
vt 0.151549 0.367430
vt 0.151549 0.365939
vt 0.152187 0.365939
vt 0.151549 0.367430
vt 0.152187 0.367430
vt 0.161144 0.367632
vt 0.161782 0.367632
vt 0.161782 0.369123
vt 0.161144 0.369123
vt 0.161144 0.367632
vt 0.161782 0.367632
vt 0.161144 0.369123
vt 0.161782 0.369123
vt 0.274588 0.352958
vt 0.275226 0.352958
vt 0.275226 0.354449
vt 0.274588 0.354449
vt 0.274588 0.352958
vt 0.275226 0.352958
vt 0.274588 0.354449
vt 0.275226 0.354449
vt 0.274588 0.352958
vt 0.275226 0.352958
vt 0.275226 0.354449
vt 0.274588 0.354449
vt 0.274588 0.352958
vt 0.275226 0.352958
vt 0.274588 0.354449
vt 0.275226 0.354449
vt 0.161144 0.367632
vt 0.161782 0.367632
vt 0.161782 0.369123
vt 0.161144 0.369123
vt 0.161144 0.367632
vt 0.161782 0.367632
vt 0.161144 0.369123
vt 0.161782 0.369123
vt 0.151549 0.365939
vt 0.152187 0.365939
vt 0.152187 0.367430
vt 0.151549 0.367430
vt 0.151549 0.365939
vt 0.152187 0.365939
vt 0.151549 0.367430
vt 0.152187 0.367430
vt 0.284183 0.357473
vt 0.284821 0.357473
vt 0.284821 0.358964
vt 0.284183 0.358964
vt 0.284183 0.357473
vt 0.284821 0.357473
vt 0.284183 0.358964
vt 0.284821 0.358964
vt 0.151549 0.365939
vt 0.152187 0.365939
vt 0.152187 0.367430
vt 0.151549 0.367430
vt 0.151549 0.365939
vt 0.152187 0.365939
vt 0.151549 0.367430
vt 0.152187 0.367430
vt 0.274588 0.352958
vt 0.275226 0.352958
vt 0.275226 0.354449
vt 0.274588 0.354449
vt 0.274588 0.352958
vt 0.275226 0.352958
vt 0.274588 0.354449
vt 0.275226 0.354449
vt 0.161144 0.367632
vt 0.161782 0.367632
vt 0.161782 0.369123
vt 0.161144 0.369123
vt 0.161144 0.367632
vt 0.161782 0.367632
vt 0.161144 0.369123
vt 0.161782 0.369123
vt 0.161144 0.367632
vt 0.161782 0.367632
vt 0.161782 0.369123
vt 0.161144 0.369123
vt 0.161144 0.367632
vt 0.161782 0.367632
vt 0.161144 0.369123
vt 0.161782 0.369123
vn -0.9990 0.0000 0.0438
vn -0.0062 0.0000 -1.0000
vn 0.0000 1.0000 -0.0000
vn 0.9899 0.0000 0.1420
vn 0.0279 0.0000 0.9996
vn 0.0000 -1.0000 0.0000
vn -1.0000 -0.0091 0.0000
vn 0.0000 -0.0091 -1.0000
vn 1.0000 -0.0091 0.0000
vn 0.0000 -0.0091 1.0000
vn 1.0000 -0.0086 0.0000
vn 0.0000 -0.0086 1.0000
vn -1.0000 -0.0086 0.0000
vn 0.0000 -0.0086 -1.0000
vn 1.0000 -0.0095 0.0000
vn 0.0000 -0.0095 -1.0000
vn -1.0000 -0.0095 0.0000
vn 0.0000 -0.0095 1.0000
vn 0.0000 0.0000 1.0000
vn 1.0000 0.0000 -0.0000
vn 0.0000 0.0000 -1.0000
vn -1.0000 0.0000 0.0000
vn -0.9989 0.0000 0.0461
vn 0.0165 0.0000 -0.9999
vn 0.9953 0.0000 0.0970
vn 0.0126 0.0000 0.9999
vn -0.9992 0.0000 0.0395
vn 0.0364 0.0000 -0.9993
vn 0.1224 0.9925 -0.0020
vn 0.9999 0.0000 0.0107
vn -0.0019 0.0000 1.0000
vn -0.1224 -0.9925 0.0020
vn -1.0000 0.0000 -0.0088
vn 0.9995 0.0000 0.0331
vn -0.0004 0.0000 1.0000
vn -0.9984 0.0000 -0.0559
vn 0.0049 0.0000 -1.0000
vn 0.9993 0.0000 -0.0382
vn -0.0064 0.0000 1.0000
vn -0.9995 -0.0000 -0.0327
vn 0.0337 0.0000 -0.9994
vn 0.9635 -0.0000 0.2676
vn -0.0365 -0.0000 0.9993
vn -0.9990 0.0000 0.0457
vn 0.0524 0.0000 -0.9986
vn 0.9897 0.0000 0.1428
vn -0.0342 0.0000 0.9994
vn -0.9988 0.0000 -0.0488
vn 0.0001 0.0000 -1.0000
vn 0.9992 0.0000 -0.0408
vn -0.0001 0.0000 1.0000
vn -0.9991 0.0000 0.0421
vn -0.0212 0.0000 -0.9998
vn 0.8646 0.0000 -0.5024
vn 0.0307 0.0000 0.9995
vn -0.9999 0.0000 -0.0153
vn 0.0149 0.0000 -0.9999
vn 0.9955 -0.0000 0.0950
vn -0.0145 -0.0000 0.9999
vn -0.8216 0.0000 -0.5701
vn 0.5851 0.0000 -0.8110
vn 0.9921 0.0000 0.1258
vn -0.5777 0.0000 0.8163
vn -0.9999 0.0000 -0.0111
vn 0.0252 0.0000 -0.9997
vn -0.1199 0.9928 0.0024
vn 0.9989 0.0000 -0.0472
vn -0.0577 0.0000 0.9983
vn 0.1199 -0.9928 -0.0024
usemtl TropicalEnvironment_03.001
s 1
f 1/1/1 2/2/1 8/3/1 3/4/1
f 2/2/2 1/1/2 4/5/2 5/6/2
f 4/5/3 1/1/3 3/4/3 6/7/3
f 5/6/4 4/5/4 6/7/4 7/8/4
f 7/8/5 6/7/5 3/4/5 8/3/5
f 2/2/6 5/6/6 7/8/6 8/3/6
f 9/9/7 10/10/7 12/11/7 11/12/7
f 11/12/8 12/11/8 16/13/8 15/14/8
f 15/14/9 16/13/9 14/15/9 13/16/9
f 13/16/10 14/15/10 10/10/10 9/9/10
f 11/12/6 15/14/6 13/16/6 9/9/6
f 16/17/3 12/18/3 10/19/3 14/20/3
f 17/21/11 18/22/11 24/23/11 19/24/11
f 18/22/6 17/21/6 20/25/6 21/26/6
f 20/25/12 17/21/12 19/24/12 22/27/12
f 21/26/13 20/25/13 22/27/13 23/28/13
f 23/29/3 22/30/3 19/31/3 24/32/3
f 18/22/14 21/26/14 23/28/14 24/23/14
f 25/33/15 27/34/15 32/35/15 26/36/15
f 26/36/6 29/37/6 28/38/6 25/33/6
f 28/38/16 30/39/16 27/34/16 25/33/16
f 29/37/17 31/40/17 30/39/17 28/38/17
f 31/41/3 32/42/3 27/43/3 30/44/3
f 26/36/18 32/35/18 31/40/18 29/37/18
f 33/45/7 34/46/7 40/47/7 35/48/7
f 34/46/6 33/45/6 36/49/6 37/50/6
f 36/49/8 33/45/8 35/48/8 38/51/8
f 37/50/9 36/49/9 38/51/9 39/52/9
f 39/53/3 38/54/3 35/55/3 40/56/3
f 34/46/10 37/50/10 39/52/10 40/47/10
f 41/57/19 43/58/19 48/59/19 42/60/19
f 42/60/6 45/61/6 44/62/6 41/57/6
f 44/62/20 46/63/20 43/58/20 41/57/20
f 45/61/21 47/64/21 46/63/21 44/62/21
f 47/64/3 48/59/3 43/58/3 46/63/3
f 42/60/22 48/59/22 47/64/22 45/61/22
f 49/65/19 50/66/19 56/67/19 51/68/19
f 50/66/6 49/65/6 52/69/6 53/70/6
f 52/69/22 49/65/22 51/68/22 54/71/22
f 53/70/21 52/69/21 54/71/21 55/72/21
f 55/72/3 54/71/3 51/68/3 56/67/3
f 50/66/20 53/70/20 55/72/20 56/67/20
f 57/73/23 58/74/23 64/75/23 59/76/23
f 58/74/24 57/73/24 60/77/24 61/78/24
f 60/77/3 57/73/3 59/76/3 62/79/3
f 61/78/25 60/77/25 62/79/25 63/80/25
f 63/80/26 62/79/26 59/76/26 64/75/26
f 58/74/6 61/78/6 63/80/6 64/75/6
f 65/81/27 66/82/27 72/83/27 67/84/27
f 66/82/28 65/81/28 68/85/28 69/86/28
f 68/85/29 65/81/29 67/84/29 70/87/29
f 69/86/30 68/85/30 70/87/30 71/88/30
f 71/88/31 70/87/31 67/84/31 72/83/31
f 66/82/32 69/86/32 71/88/32 72/83/32
f 73/89/33 74/90/33 80/91/33 75/92/33
f 74/90/21 73/89/21 76/93/21 77/94/21
f 76/93/3 73/89/3 75/92/3 78/95/3
f 77/94/34 76/93/34 78/95/34 79/96/34
f 79/96/35 78/95/35 75/92/35 80/91/35
f 74/90/6 77/94/6 79/96/6 80/91/6
f 81/97/36 82/98/36 88/99/36 83/100/36
f 82/98/37 81/97/37 84/101/37 85/102/37
f 84/101/3 81/97/3 83/100/3 86/103/3
f 85/102/38 84/101/38 86/103/38 87/104/38
f 87/104/39 86/103/39 83/100/39 88/99/39
f 82/98/6 85/102/6 87/104/6 88/99/6
f 89/105/40 90/106/40 96/107/40 91/108/40
f 90/106/41 89/105/41 92/109/41 93/110/41
f 92/109/3 89/105/3 91/108/3 94/111/3
f 93/110/42 92/109/42 94/111/42 95/112/42
f 95/112/43 94/111/43 91/108/43 96/107/43
f 90/106/6 93/110/6 95/112/6 96/107/6
f 97/113/44 98/114/44 104/115/44 99/116/44
f 98/114/45 97/113/45 100/117/45 101/118/45
f 100/117/3 97/113/3 99/116/3 102/119/3
f 101/118/46 100/117/46 102/119/46 103/120/46
f 103/120/47 102/119/47 99/116/47 104/115/47
f 98/114/6 101/118/6 103/120/6 104/115/6
f 105/121/48 106/122/48 112/123/48 107/124/48
f 106/122/49 105/121/49 108/125/49 109/126/49
f 108/125/3 105/121/3 107/124/3 110/127/3
f 109/126/50 108/125/50 110/127/50 111/128/50
f 111/128/51 110/127/51 107/124/51 112/123/51
f 106/122/6 109/126/6 111/128/6 112/123/6
f 113/129/52 114/130/52 120/131/52 115/132/52
f 114/130/53 113/129/53 116/133/53 117/134/53
f 116/133/3 113/129/3 115/132/3 118/135/3
f 117/134/54 116/133/54 118/135/54 119/136/54
f 119/136/55 118/135/55 115/132/55 120/131/55
f 114/130/6 117/134/6 119/136/6 120/131/6
f 121/137/56 122/138/56 128/139/56 123/140/56
f 122/138/57 121/137/57 124/141/57 125/142/57
f 124/141/3 121/137/3 123/140/3 126/143/3
f 125/142/58 124/141/58 126/143/58 127/144/58
f 127/144/59 126/143/59 123/140/59 128/139/59
f 122/138/6 125/142/6 127/144/6 128/139/6
f 129/145/60 130/146/60 136/147/60 131/148/60
f 130/146/61 129/145/61 132/149/61 133/150/61
f 132/149/3 129/145/3 131/148/3 134/151/3
f 133/150/62 132/149/62 134/151/62 135/152/62
f 135/152/63 134/151/63 131/148/63 136/147/63
f 130/146/6 133/150/6 135/152/6 136/147/6
f 137/153/64 138/154/64 144/155/64 139/156/64
f 138/154/65 137/153/65 140/157/65 141/158/65
f 140/157/66 137/153/66 139/156/66 142/159/66
f 141/158/67 140/157/67 142/159/67 143/160/67
f 143/160/68 142/159/68 139/156/68 144/155/68
f 138/154/69 141/158/69 143/160/69 144/155/69
