# Wavefront OBJ file
# Exported by Misfit Model 3D 1.3.8
# Mon Jul 10 22:41:31 2023

# 4 Vertices
v 1.440426 0.13 -1.5
v 1.440426 0.13 1.5
v -1.52753 0.13 -1.5
v -1.52753 0.13 1.5

# 6 Texture Coordinates
vt 0.666095 0.048415
vt 0.64117 0.048415
vt 0.64117 0.02349
vt 0.666095 0.02349
vt 0.666095 0.048415
vt 0.64117 0.02349

# 6 Vertex Normals
vn 0.0 1.0 0.0
vn 0.0 1.0 0.0
vn 0.0 1.0 0.0
vn 0.0 1.0 0.0
vn 0.0 1.0 0.0
vn 0.0 1.0 0.0

# ungrouped, 2 grouped triangles

o ungrouped
g ungrouped

f 4/1/1 2/2/2 1/3/3
f 3/4/4 4/5/5 1/6/6
