# Wavefront OBJ file
# Exported by Misfit Model 3D 1.3.8
# Mon Sep 16 16:15:47 2019

# 31 Vertices
v -33.823876 4.297777 13.029537
v -33.824286 4.297524 11.029537
v -33.522196 6.274891 13.029226
v -33.522608 6.274639 11.029227
v -1.888753 1.447703 11.01206
v -1.889165 1.447451 9.01206
v -2.190848 -0.529663 9.012371
v 0.088363 1.146019 11.011691
v 0.087744 1.145642 8.011691
v -2.190437 -0.529412 11.012371
v -2.191054 -0.529791 8.012371
v -0.213321 -0.831096 11.012002
v -33.828819 4.294749 -10.993001
v -33.829229 4.294497 -12.993001
v -33.527135 6.271866 -10.993313
v -33.527545 6.271614 -12.993312
v -1.892867 1.445184 -8.98794
v -1.893278 1.444932 -10.98794
v -2.19455 -0.531932 -8.987628
v -2.19496 -0.532185 -10.987629
v -2.194344 -0.531807 -7.987628
v 0.083838 1.143248 -10.988308
v -0.217844 -0.833868 -10.987997
v -33.97575 3.308587 8.018424
v -33.824909 4.297144 8.018268
v -33.974719 3.309219 13.029693
v -0.364164 -1.819654 11.012158
v -0.364779 -1.820032 8.012158
v -33.980072 3.30594 -12.992845
v -33.828195 4.295131 -7.981732
v -0.368687 -1.822427 -10.987842

# 162 Texture Coordinates
vt 15.90625 -14.9375
vt 15.96875 -15.0
vt 15.90625 -15.0
vt 15.90625 -14.9375
vt 15.96875 -14.9375
vt 15.96875 -15.0
vt 15.96875 18.0
vt 15.90625 17.0
vt 15.90625 18.0
vt 15.96875 18.0
vt 15.96875 17.0
vt 15.90625 17.0
vt 16.0 18.0
vt 15.9375 17.0
vt 15.9375 18.0
vt 16.0 18.0
vt 16.0 17.0
vt 15.9375 17.0
vt 16.0 18.0625
vt 15.90625 18.0
vt 15.90625 18.0625
vt 16.0 18.0625
vt 16.59375 18.0
vt 15.90625 18.0
vt 15.96875 -15.0
vt 15.90625 -15.0
vt 15.90625 -14.9375
vt 15.90625 -14.9375
vt 16.0 -15.0
vt 15.96875 -15.0
vt 15.90625 -14.9375
vt 16.59375 -14.9375
vt 16.0 -15.0
vt 15.9375 18.0
vt 15.9375 17.0
vt 16.0 17.0
vt 16.0 17.0
vt 15.9375 18.0625
vt 15.9375 18.0
vt 16.0 17.0
vt 16.0 18.0625
vt 15.9375 18.0625
vt 16.0 -15.03125
vt 16.59375 -15.0
vt 16.0 -14.9375
vt 15.90625 -14.9375
vt 15.90625 -15.0
vt 16.0 -14.9375
vt 16.53125 -14.9375
vt 16.59375 -15.0
vt 16.53125 -15.0
vt 16.53125 -14.9375
vt 16.59375 -14.9375
vt 16.59375 -15.0
vt 16.59375 18.0
vt 16.53125 17.0
vt 16.53125 18.0
vt 16.59375 18.0
vt 16.59375 17.0
vt 16.53125 17.0
vt 16.0 17.0
vt 15.9375 18.0
vt 15.9375 17.0
vt 16.0 17.0
vt 16.0 18.0
vt 15.9375 18.0
vt 16.0 -15.03125
vt 16.59375 -15.03125
vt 16.59375 -15.0
vt 16.5 -15.0
vt 16.0 -15.0
vt 16.59375 -14.9375
vt 16.59375 -15.0
vt 16.5 -15.0
vt 16.59375 -14.9375
vt 16.59375 17.0
vt 16.0 18.0625
vt 16.0 17.0
vt 16.0 18.0625
vt 16.59375 18.0625
vt 16.59375 18.0
vt 15.9375 18.0
vt 15.9375 18.0625
vt 16.0 18.0625
vt 16.0 18.0625
vt 15.9375 17.0
vt 15.9375 18.0
vt 16.0 18.0625
vt 16.0 17.0
vt 15.9375 17.0
vt 16.59375 17.0
vt 16.59375 18.0625
vt 16.0 18.0625
vt 16.0 -14.9375
vt 16.59375 -15.0
vt 16.59375 -14.9375
vt 15.96875 -15.0
vt 16.0 -15.0
vt 16.0 -15.03125
vt 16.0 -15.03125
vt 15.90625 -15.0
vt 15.96875 -15.0
vt 16.0 -15.03125
vt 15.90625 -15.03125
vt 15.90625 -15.0
vt 16.03125 17.0
vt 16.0 18.0625
vt 16.0 17.0
vt 16.03125 17.0
vt 16.03125 18.0625
vt 16.0 18.0625
vt 15.90625 -15.0
vt 16.0 -15.03125
vt 16.0 -14.9375
vt 15.90625 -15.0
vt 15.90625 -15.03125
vt 16.0 -15.03125
vt 16.0 17.0
vt 15.90625 18.0625
vt 15.90625 17.0
vt 16.0 17.0
vt 16.0 18.0625
vt 15.90625 18.0625
vt 16.53125 -15.0
vt 16.59375 -15.0
vt 16.59375 -15.03125
vt 16.5 -15.0
vt 16.53125 -15.0
vt 16.59375 -15.03125
vt 16.59375 -15.03125
vt 16.0 -15.0
vt 16.5 -15.0
vt 16.59375 -15.03125
vt 16.0 -15.03125
vt 16.0 -15.0
vt 16.03125 18.0625
vt 16.0 17.0
vt 16.0 18.0625
vt 16.03125 18.0625
vt 16.03125 17.0
vt 16.0 17.0
vt 33.0625 33.0
vt 33.0 33.0
vt 33.1875 35.0
vt 32.0 35.0
vt 32.0 33.0
vt 31.9375 33.0
vt 33.1875 35.0
vt 33.0 33.0
vt 33.0 35.0
vt 33.1875 35.0
vt 33.1875 33.0
vt 33.0625 33.0
vt 32.0 35.0
vt 31.9375 33.0
vt 31.9375 35.0
vt 33.0 18.0
vt 32.0 17.0
vt 32.0 18.0
vt 33.0 18.0
vt 33.0 17.0
vt 32.0 17.0

# 162 Vertex Normals
vn -0.988558 0.15084 0.000184
vn -0.960065 0.146456 -0.238384
vn -0.988558 0.150842 0.000185
vn -0.988558 0.15084 0.000184
vn -0.485706 0.073976 -0.870986
vn -0.960065 0.146456 -0.238384
vn 0.150842 0.988558 -0.000155
vn 0.150842 0.988558 -0.000155
vn 0.148226 0.971188 0.186608
vn 0.150842 0.988558 -0.000155
vn 0.150842 0.988558 -0.000156
vn 0.150842 0.988558 -0.000155
vn -0.720747 0.10987 -0.684435
vn -0.485706 0.073976 -0.870986
vn -0.062216 0.009336 -0.998019
vn -0.720747 0.10987 -0.684435
vn -0.960065 0.146456 -0.238384
vn -0.485706 0.073976 -0.870986
vn 0.150842 0.988558 -0.000156
vn 0.148226 0.971188 0.186608
vn 0.139519 0.913887 0.381242
vn 0.150842 0.988558 -0.000156
vn 0.161231 0.957726 -0.238255
vn 0.148226 0.971188 0.186608
vn -0.720747 0.10987 -0.684435
vn -0.988558 0.150842 0.000185
vn -0.988558 0.150842 0.000184
vn -0.988558 0.150842 0.000184
vn -0.988558 0.150842 0.000184
vn -0.720747 0.10987 -0.684435
vn -0.988558 0.150842 0.000184
vn -0.988558 0.150842 0.000184
vn -0.988558 0.150842 0.000184
vn 0.091727 0.374732 0.922584
vn 0.062216 -0.009336 0.998019
vn 0.075963 0.17876 0.980956
vn 0.075963 0.17876 0.980956
vn 0.131138 0.696375 0.705595
vn 0.152342 0.896003 0.417099
vn 0.075963 0.17876 0.980956
vn 0.7195 -0.109679 0.685777
vn 0.542558 0.254507 0.800535
vn 0.988558 -0.150842 -0.000184
vn 0.721931 -0.095766 -0.685306
vn 0.988558 -0.150841 -0.000185
vn 0.7195 -0.109679 0.685777
vn 0.7195 -0.109679 0.685777
vn 0.988558 -0.150841 -0.000185
vn -0.889781 0.135838 0.435704
vn -0.988558 0.150843 0.000183
vn -0.833035 0.127196 0.538399
vn -0.889781 0.135838 0.435704
vn -0.988558 0.150841 0.000184
vn -0.988558 0.150843 0.000183
vn 0.161231 0.957726 -0.238255
vn 0.150842 0.988558 -0.000156
vn 0.150842 0.988558 -0.000156
vn 0.161231 0.957726 -0.238255
vn 0.152262 0.714001 -0.683388
vn 0.150842 0.988558 -0.000156
vn -0.833035 0.127196 0.538399
vn -0.061805 0.009588 0.998042
vn -0.889781 0.135838 0.435704
vn -0.833035 0.127196 0.538399
vn -0.061805 0.009588 0.998042
vn -0.061805 0.009588 0.998042
vn 0.988558 -0.150842 -0.000184
vn 0.482852 -0.073815 -0.872585
vn 0.721931 -0.095766 -0.685306
vn -0.988558 0.150841 0.000184
vn -0.988558 0.150842 0.000184
vn -0.988558 0.150842 0.000184
vn -0.988558 0.150841 0.000184
vn -0.988558 0.150841 0.000184
vn -0.988558 0.150842 0.000184
vn -0.150842 -0.988558 0.000156
vn -0.150842 -0.988558 0.000156
vn -0.150842 -0.988558 0.000156
vn 0.150842 0.988558 -0.000156
vn 0.150842 0.988558 -0.000156
vn 0.161231 0.957726 -0.238255
vn 0.035496 0.026123 -0.999028
vn -0.000205 -0.000126 -1.0
vn 0.046849 0.008538 -0.998865
vn 0.617611 -0.081958 -0.782201
vn 0.12379 0.455959 -0.88135
vn 0.148951 0.885023 -0.441076
vn 0.617611 -0.081958 -0.782201
vn 0.058171 -0.009033 -0.998266
vn 0.064681 0.021654 -0.997671
vn -0.150842 -0.988558 0.000156
vn -0.150842 -0.988558 0.000156
vn -0.150842 -0.988558 0.000156
vn 0.988558 -0.150841 -0.000185
vn 0.721931 -0.095766 -0.685306
vn 0.988558 -0.150841 -0.000184
vn -0.960065 0.146456 -0.238384
vn -0.988558 0.150844 0.000184
vn -0.988558 0.150842 0.000185
vn -0.988558 0.150842 0.000185
vn -0.988558 0.150842 0.000185
vn -0.960065 0.146456 -0.238384
vn -0.988558 0.150842 0.000185
vn -0.988557 0.150845 0.000184
vn -0.988558 0.150842 0.000185
vn 0.058581 -0.008781 0.998244
vn 0.7195 -0.109679 0.685777
vn 0.075963 0.17876 0.980956
vn 0.058581 -0.008781 0.998244
vn 0.7195 -0.109679 0.685777
vn 0.7195 -0.109679 0.685777
vn 0.7195 -0.109679 0.685777
vn 0.988558 -0.150842 -0.000184
vn 0.988558 -0.150841 -0.000185
vn 0.7195 -0.109679 0.685777
vn 0.7195 -0.109679 0.685777
vn 0.988558 -0.150842 -0.000184
vn -0.150842 -0.988558 0.000156
vn -0.150842 -0.988558 0.000156
vn -0.150842 -0.988558 0.000156
vn -0.150842 -0.988558 0.000156
vn -0.150842 -0.988558 0.000156
vn -0.150842 -0.988558 0.000156
vn -0.833035 0.127196 0.538399
vn -0.988558 0.150843 0.000183
vn -0.988558 0.150843 0.000184
vn -0.988558 0.150844 0.000185
vn -0.833035 0.127196 0.538399
vn -0.988558 0.150843 0.000184
vn -0.988558 0.150843 0.000184
vn -0.988558 0.150844 0.000184
vn -0.988558 0.150844 0.000185
vn -0.988558 0.150843 0.000184
vn -0.988558 0.150842 0.000185
vn -0.988558 0.150844 0.000184
vn 0.482852 -0.073815 -0.872585
vn 0.058171 -0.009033 -0.998266
vn 0.617611 -0.081958 -0.782201
vn 0.482852 -0.073815 -0.872585
vn 0.058171 -0.009034 -0.998266
vn 0.058171 -0.009033 -0.998266
vn 0.150842 0.988558 -0.000156
vn 0.150842 0.988558 -0.000156
vn 0.150842 0.988558 -0.000156
vn 0.150842 0.988558 -0.000156
vn 0.150842 0.988558 -0.000156
vn 0.150842 0.988558 -0.000156
vn 0.150842 0.988558 -0.000156
vn 0.150842 0.988558 -0.000156
vn 0.150842 0.988558 -0.000156
vn 0.150842 0.988558 -0.000156
vn 0.150842 0.988558 -0.000155
vn 0.150842 0.988558 -0.000156
vn 0.150842 0.988558 -0.000156
vn 0.150842 0.988558 -0.000156
vn 0.150842 0.988558 -0.000157
vn 0.150842 0.988558 -0.000156
vn 0.150842 0.988558 -0.000156
vn 0.150842 0.988558 -0.000156
vn 0.150842 0.988558 -0.000156
vn 0.150842 0.988558 -0.000156
vn 0.150842 0.988558 -0.000156

# slot8, 47 grouped triangles

o slot8
g slot8

f 3/1/1 2/2/2 1/3/3
f 3/4/4 4/5/5 2/6/6
f 6/7/7 3/8/8 5/9/9
f 6/10/10 4/11/11 3/12/12
f 7/13/13 4/14/14 6/15/15
f 7/16/16 2/17/17 4/18/18
f 9/19/19 5/20/20 8/21/21
f 9/22/22 18/23/23 5/24/24
f 7/25/25 10/26/26 5/27/27
f 5/28/28 11/29/29 7/30/30
f 5/31/31 18/32/32 11/33/33
f 5/34/34 3/35/35 1/36/36
f 1/37/37 8/38/38 5/39/39
f 1/40/40 12/41/41 8/42/42
f 28/43/43 23/44/44 9/45/45
f 8/46/46 12/47/47 9/48/48
f 15/49/49 14/50/50 13/51/51
f 15/52/52 16/53/53 14/54/54
f 18/55/55 15/56/56 17/57/57
f 18/58/58 16/59/59 15/60/60
f 13/61/61 17/62/62 15/63/63
f 13/64/64 19/65/65 17/66/66
f 28/67/67 31/68/68 23/69/69
f 21/70/70 11/71/71 18/72/72
f 20/73/73 21/74/74 18/75/75
f 29/76/76 28/77/77 24/78/78
f 9/79/79 22/80/80 18/81/81
f 18/82/82 22/83/83 23/84/84
f 23/85/85 16/86/86 18/87/87
f 23/88/88 14/89/89 16/90/90
f 29/91/91 31/92/92 28/93/93
f 9/94/94 23/95/95 22/96/96
f 2/97/97 25/98/98 24/99/99
f 24/100/100 1/101/101 2/102/102
f 24/103/103 26/104/104 1/105/105
f 26/106/106 12/107/107 1/108/108
f 26/109/109 27/110/110 12/111/111
f 12/112/112 28/113/113 9/114/114
f 12/115/115 27/116/116 28/117/117
f 24/118/118 27/119/119 26/120/120
f 24/121/121 28/122/122 27/123/123
f 13/124/124 14/125/125 29/126/126
f 30/127/127 13/128/128 29/129/129
f 29/130/130 25/131/131 30/132/132
f 29/133/133 24/134/134 25/135/135
f 31/136/136 14/137/137 23/138/138
f 31/139/139 29/140/140 14/141/141
# slot137, 5 grouped triangles

o slot137
g slot137

f 13/142/142 30/143/143 20/144/144
f 11/145/145 25/146/146 2/147/147
f 20/148/148 30/149/149 21/150/150
f 20/151/151 14/152/152 13/153/153
f 11/154/154 2/155/155 7/156/156
# slot258, 2 grouped triangles

o slot258
g slot258

f 21/157/157 25/158/158 11/159/159
f 21/160/160 30/161/161 25/162/162
