g ungrouped
v 0.046813 0.162103 -0.026303
v -0.055971 0.162103 -0.02176
v 0.029854 0.162104 0.03498
v -0.089666 0.249623 -0.064073
v 0.0236 0.249623 -0.106492
v 0.081986 0.249623 0.049407
v 0.098944 0.249623 -0.011877
v -0.031282 0.249623 0.091826
v -0.106626 0.249623 -0.002789
v -0.037536 0.337143 -0.049646
v 0.048289 0.337143 0.007094
v 0.000273 0.000443 0.108028
v 0.022303 0.04924 0.023327
v -0.05513 0.103331 0.194724
v -0.0993 0.103331 0.082129
v 0.096053 0.103331 0.070454
v 0.065606 0.103331 0.187509
v -0.03169 0.157422 0.026554
v -0.041513 0.19085 0.142376
v 0.054266 0.19085 0.104801
v -0.141845 0.04924 0.016858
v -0.04816 0.01581 -0.051947
v -0.187852 0.04924 -0.075168
v -0.076593 0.01581 -0.108822
v -0.055509 0.103331 0.03121
v -0.118389 0.103331 0.040677
v -0.203256 0.103331 -0.045499
v -0.084646 0.103331 -0.16231
v -0.147523 0.103331 -0.152843
v 0.000222 0.103331 -0.076134
v -0.063564 0.19085 -0.022278
v -0.154874 0.19085 -0.069687
v -0.109571 0.19085 -0.114304
v 0.095234 0.206216 -0.060817
v 0.138995 0.01581 -0.029024
v 0.041144 0.01581 -0.060817
v 0.07852 0.01581 -0.11226
v 0.193085 0.103331 -0.09261
v 0.095234 0.103331 0.042069
v 0.03476 0.103331 0.022419
v -0.002616 0.103331 -0.09261
v 0.095234 0.103331 -0.163703
v 0.166039 0.157422 -0.009375
v 0.06819 0.157422 0.022419
v 0.007716 0.157422 -0.060817
v 0.06819 0.157422 -0.144053
v 0.166039 0.157422 -0.11226
vn 0.4923291 -0.850656 -0.184381
vn -0.50668 -0.8506549 -0.14022
vn 0.327495 -0.850656 0.411256
vn -0.8341861 2e-06 -0.551483
vn 0.2667111 -2.000001e-06 -0.9637765
vn 0.8341901 8.000001e-06 0.5514771
vn 0.9990239 6e-06 -0.044172
vn -0.2667139 9.999997e-07 0.9637757
vn -0.9990246 2.999999e-06 0.04415698
vn -0.3275002 0.8506514 -0.4112612
vn 0.5066852 0.8506513 0.1402231
vn 2e-06 -1 -1e-06
vn 0.2141301 -0.5257363 -0.8232555
vn -0.5384759 4.999999e-06 0.8426409
vn -0.9677988 1.2e-05 -0.2517249
vn 0.9309314 -8.000003e-06 -0.3651941
vn 0.6350067 -5.999997e-06 0.7725067
vn -0.310658 0.5257379 -0.791891
vn -0.4061281 0.8506543 0.3338371
vn 0.524788 0.850655 -0.031364
vn -0.391968 -0.5257329 0.754961
vn 0.518618 -0.850649 0.086207
vn -0.8391379 -0.525727 -0.139495
vn 0.242257 -0.85065 -0.46659
vn 0.4471692 3.000001e-06 0.8944494
vn -0.1639869 4.999997e-06 0.9864625
vn -0.9888568 5.999999e-06 0.14887
vn 0.163977 1e-06 -0.9864641
vn -0.4471667 -9.999993e-07 -0.8944505
vn 0.9888568 -3e-06 -0.14887
vn 0.368887 0.8506571 0.374573
vn -0.5186108 0.8506528 -0.08621298
vn -0.078273 0.8506531 -0.519868
vn -1e-06 1 2e-06
vn 0.4253242 -0.8506513 0.3090171
vn -0.5257328 -0.8506497 1.999999e-06
vn -0.1624569 -0.8506497 -0.5000028
vn 0.9510565 8.999996e-06 -0.3090168
vn 2e-06 3e-06 1
vn -0.5877862 -2e-06 0.8090163
vn -0.9510569 3e-06 -0.3090159
vn 2e-06 3e-06 -1
vn 0.6881862 0.5257372 0.5000001
vn -0.2628632 0.5257362 0.8090144
vn -0.8506466 0.5257378 0
vn -0.2628621 0.5257371 -0.8090141
vn 0.6881862 0.5257372 -0.5000001
vt 0.547 0.6716
vt 0.5499001 0.6717
vt 0.5473 0.6721
vt 0.5510001 0.6738
vt 0.5479 0.6734
vt 0.5457001 0.6746001
vt 0.5454001 0.6741
vt 0.5488 0.6750001
vt 0.5513 0.6743001
vt 0.5494 0.6763
vt 0.5468001 0.6767001
vt 0.5484 0.6714
vt 0.5459 0.6728
vt 0.5510001 0.6738
vt 0.5479 0.6734
vt 0.547 0.6749
vt 0.5505 0.6748
vt 0.5461001 0.6754
vt 0.5494 0.6763
vt 0.5481 0.677
vt 0.5472 0.6721
vt 0.5499001 0.6717
vt 0.5459 0.6728
vt 0.5491 0.6722001
vt 0.5497 0.6734
vt 0.5479 0.6734
vt 0.5454001 0.6741
vt 0.5488 0.6750001
vt 0.547 0.6749
vt 0.5513 0.6743001
vt 0.5494 0.6763
vt 0.5468001 0.6767001
vt 0.5481 0.677
vt 0.5484 0.677
vt 0.5486 0.6713001
vt 0.5473 0.6721
vt 0.5491 0.6722001
vt 0.5510001 0.6738
vt 0.5462 0.6736001
vt 0.5454001 0.6741
vt 0.547 0.6749
vt 0.5505 0.6748
vt 0.5487 0.6750001
vt 0.5461001 0.6754
vt 0.5466 0.6762
vt 0.5495 0.6763
vt 0.5508001 0.6756
f 35/35/35 43/43/43 39/39/39
f 38/38/38 35/35/35 37/37/37
f 22/22/22 25/25/25 21/21/21
f 37/37/37 36/36/36 41/41/41
f 46/46/46 45/45/45 34/34/34
f 30/30/30 33/33/33 31/31/31
f 26/26/26 31/31/31 32/32/32
f 10/10/10 8/8/8 11/11/11
f 12/12/12 14/14/14 15/15/15
f 16/16/16 12/12/12 13/13/13
f 12/12/12 15/15/15 13/13/13
f 1/1/1 5/5/5 7/7/7
f 5/5/5 4/4/4 10/10/10
f 26/26/26 25/25/25 31/31/31
f 15/15/15 14/14/14 19/19/19
f 5/5/5 10/10/10 11/11/11
f 4/4/4 5/5/5 2/2/2
f 9/9/9 8/8/8 10/10/10
f 3/3/3 6/6/6 8/8/8
f 2/2/2 8/8/8 9/9/9
f 32/32/32 31/31/31 33/33/33
f 23/23/23 22/22/22 21/21/21
f 28/28/28 30/30/30 24/24/24
f 29/29/29 24/24/24 23/23/23
f 17/17/17 19/19/19 14/14/14
f 17/17/17 14/14/14 12/12/12
f 18/18/18 15/15/15 19/19/19
f 18/18/18 20/20/20 16/16/16
f 44/44/44 39/39/39 43/43/43
f 34/34/34 47/47/47 46/46/46
f 43/43/43 35/35/35 38/38/38
f 43/43/43 47/47/47 34/34/34
f 18/18/18 16/16/16 13/13/13
f 18/18/18 13/13/13 15/15/15
f 17/17/17 12/12/12 16/16/16
f 17/17/17 16/16/16 20/20/20
f 40/40/40 44/44/44 45/45/45
f 40/40/40 41/41/41 36/36/36
f 19/19/19 17/17/17 20/20/20
f 19/19/19 20/20/20 18/18/18
f 21/21/21 25/25/25 26/26/26
f 21/21/21 26/26/26 27/27/27
f 30/30/30 31/31/31 25/25/25
f 30/30/30 25/25/25 22/22/22
f 35/35/35 39/39/39 36/36/36
f 35/35/35 36/36/36 37/37/37
f 29/29/29 32/32/32 33/33/33
f 28/28/28 33/33/33 30/30/30
f 3/3/3 8/8/8 2/2/2
f 1/1/1 2/2/2 5/5/5
f 7/7/7 5/5/5 11/11/11
f 6/6/6 11/11/11 8/8/8
f 28/28/28 24/24/24 29/29/29
f 28/28/28 29/29/29 33/33/33
f 27/27/27 29/29/29 23/23/23
f 27/27/27 23/23/23 21/21/21
f 4/4/4 2/2/2 9/9/9
f 4/4/4 9/9/9 10/10/10
f 6/6/6 1/1/1 7/7/7
f 6/6/6 7/7/7 11/11/11
f 3/3/3 2/2/2 1/1/1
f 3/3/3 1/1/1 6/6/6
f 40/40/40 36/36/36 39/39/39
f 40/40/40 39/39/39 44/44/44
f 34/34/34 45/45/45 44/44/44
f 34/34/34 44/44/44 43/43/43
f 41/41/41 40/40/40 45/45/45
f 41/41/41 45/45/45 46/46/46
f 42/42/42 41/41/41 46/46/46
f 42/42/42 46/46/46 47/47/47
f 38/38/38 42/42/42 47/47/47
f 38/38/38 47/47/47 43/43/43
f 24/24/24 30/30/30 22/22/22
f 24/24/24 22/22/22 23/23/23
f 42/42/42 38/38/38 37/37/37
f 42/42/42 37/37/37 41/41/41
f 27/27/27 26/26/26 32/32/32
f 27/27/27 32/32/32 29/29/29
