# Blender 3.4.1
# www.blender.org
mtllib column2LOD.mtl
o Column_04_LOD1
v 0.144443 0.207378 -0.346717
v -0.141919 0.227509 -0.342833
v -0.242429 0.454522 -0.100200
v -0.340229 -0.002126 0.140941
v 0.245456 0.451586 0.097411
v 0.350909 -0.001802 -0.130616
v 0.312632 0.015058 0.182647
v 0.142312 -0.002126 -0.341600
v -0.140354 -0.002126 -0.341600
v 0.142999 -0.001869 0.340323
v 0.104476 0.456255 0.243122
v -0.141331 0.280418 0.326343
v -0.346142 0.204192 0.141239
v -0.140066 -0.002099 0.341731
v 0.149088 0.199569 0.345646
v -0.345350 0.207284 -0.143847
v -0.340229 -0.002126 -0.141724
v -0.229161 1.416549 0.099235
v -0.082695 0.493570 0.234741
v 0.074551 0.463144 -0.246258
v -0.232418 0.464773 0.111307
v 0.238869 0.458407 -0.100002
v -0.098583 1.352849 0.233695
v -0.218406 1.859336 0.078140
v -0.228806 1.098866 -0.086667
v -0.096516 1.742563 0.178967
v 0.346941 0.207971 -0.144064
v 0.321578 0.290784 0.134389
v -0.107756 0.487710 -0.211927
v 0.229154 1.662384 -0.098785
v 0.100344 1.758158 -0.229006
v 0.088412 1.606943 0.217187
v -0.008054 1.716855 0.203925
v -0.110351 1.845542 0.121726
v 0.226806 1.647692 0.088102
v -0.226685 1.877857 -0.096654
v -0.216358 1.927336 -0.004438
v -0.057032 1.851556 -0.228009
vn 0.6315 0.4095 -0.6584
vn 0.6075 0.4287 -0.6687
vn 0.6287 0.4118 -0.6597
vn -0.6437 0.3847 -0.6616
vn -0.6523 0.3957 -0.6465
vn -0.6542 0.3982 -0.6430
vn 0.0400 0.3812 0.9236
vn 0.0403 0.3808 0.9238
vn 0.0435 0.3771 0.9252
vn -0.6596 0.4051 -0.6331
vn -0.1046 0.4579 -0.8828
vn -0.0490 0.4170 -0.9076
vn -0.0324 0.4044 -0.9140
vn -0.6978 -0.0243 -0.7159
vn -0.7033 -0.0150 -0.7107
vn -0.7018 -0.0175 -0.7121
vn 0.0003 -1.0000 -0.0000
vn 0.0005 -1.0000 0.0005
vn 0.0228 -0.9997 0.0102
vn 0.9051 0.4249 -0.0155
vn 0.9111 0.4112 -0.0275
vn 0.9116 0.4101 -0.0284
vn -0.9997 -0.0244 -0.0000
vn -0.9996 -0.0269 -0.0018
vn -0.9997 -0.0261 -0.0012
vn -0.0153 -0.0243 -0.9996
vn -0.0087 -0.0161 -0.9998
vn -0.0062 -0.0131 -0.9999
vn -0.0000 -0.0054 -1.0000
vn 0.7255 0.0359 0.6873
vn 0.7521 0.0899 0.6529
vn 0.7216 0.0285 0.6917
vn -0.0000 -1.0000 -0.0000
vn 0.6494 0.3946 -0.6501
vn 0.9947 0.0069 0.1025
vn 0.9962 0.0242 0.0835
vn 0.9942 0.0022 0.1076
vn 0.0005 -1.0000 -0.0001
vn 0.0292 -0.9995 0.0128
vn 0.7086 -0.0289 -0.7050
vn 0.7109 -0.0244 -0.7028
vn 0.7094 -0.0273 -0.7043
vn 0.0133 0.3687 -0.9295
vn 0.9925 -0.0109 0.1219
vn 0.1662 -0.9834 0.0732
vn 0.6824 -0.0399 0.7299
vn -0.6642 0.4048 0.6284
vn -0.6594 0.4095 0.6304
vn -0.6946 0.3738 0.6147
vn -0.9153 0.4022 0.0238
vn -0.9193 0.3933 0.0128
vn -0.9200 0.3919 0.0111
vn -0.9233 0.3841 0.0016
vn 0.6386 0.4098 0.6513
vn 0.6494 0.4486 0.6140
vn 0.6377 0.4069 0.6540
vn 0.6292 0.3801 0.6779
vn 0.7071 -0.0319 -0.7064
vn 0.9152 0.4013 -0.0360
vn -0.6904 0.0133 0.7233
vn -0.6936 0.0073 0.7203
vn -0.7080 -0.0213 0.7058
vn -0.7071 -0.0086 -0.7071
vn -0.6776 0.0370 0.7345
vn -0.9996 -0.0286 -0.0031
vn -0.0224 0.0127 0.9997
vn -0.0296 0.0230 0.9993
vn 0.0050 -0.0266 0.9996
vn 0.0357 0.3863 0.9217
vn -0.0512 0.0541 0.9972
vn -0.1703 0.0146 -0.9853
vn -0.0248 -0.0094 -0.9996
vn -0.1829 0.0167 -0.9830
vn -0.9992 0.0171 0.0366
vn -1.0000 0.0069 -0.0014
vn -0.9987 0.0201 0.0463
vn 0.0467 0.0305 0.9984
vn -0.0571 0.1011 0.9932
vn -0.1017 0.1389 0.9851
vn 0.6648 -0.0033 -0.7470
vn 0.7062 0.0050 -0.7080
vn 0.6693 -0.0024 -0.7430
vn -0.7275 -0.0035 -0.6862
vn -0.6486 0.0251 -0.7608
vn -0.6425 0.0297 -0.7657
vn -0.7095 0.0315 0.7040
vn -0.6258 0.0645 0.7773
vn -0.6855 0.0530 0.7261
vn 0.7133 0.0065 -0.7008
vn -0.6185 0.4477 0.6458
vn 0.6834 0.0172 0.7299
vn 0.7189 0.0257 0.6947
vn 0.7148 0.0247 0.6989
vn -0.6061 0.0525 0.7936
vn -0.6475 0.0091 0.7620
vn -0.9992 0.0190 -0.0344
vn -0.9987 0.0301 0.0403
vn -0.0284 0.0201 0.9994
vn -0.0404 0.0220 0.9989
vn -0.6374 0.0120 0.7704
vn -0.9982 0.0315 0.0506
vn -0.9933 0.0999 0.0576
vn -0.6226 0.0116 -0.7824
vn -0.6108 0.0134 -0.7916
vn 0.9995 0.0146 -0.0283
vn 0.9999 0.0081 0.0132
vn 0.9999 0.0088 0.0086
vn -0.3108 -0.1597 0.9370
vn -0.1098 0.4716 0.8750
vn -0.2543 0.4435 0.8594
vn -0.1496 0.4649 0.8726
vn 0.5148 0.8522 0.0931
vn 0.5340 0.8400 0.0959
vn 0.6125 0.7718 0.1706
vn 0.6813 0.6927 0.2367
vn 0.5646 0.8140 0.1364
vn 0.4961 0.5194 0.6958
vn 0.3573 0.9171 0.1770
vn 0.4015 0.9028 0.1544
vn 0.4330 0.8908 0.1377
vn 0.5469 0.8341 0.0724
vn 0.6794 0.0163 0.7336
vn 0.9993 0.0153 -0.0328
vn -0.2884 0.4353 0.8528
vn -0.1548 0.7645 0.6257
vn -0.0130 -0.0113 -0.9999
vn -0.2088 0.8713 -0.4441
vt 0.349528 0.021296
vt 0.348157 0.021392
vt 0.347699 0.022455
vt 0.394214 0.029056
vt 0.347207 0.020292
vt 0.349994 0.022447
vt 0.395205 0.029058
vt 0.350516 0.020294
vt 0.350333 0.020375
vt 0.349518 0.020292
vt 0.348164 0.020292
vt 0.349521 0.020294
vt 0.349318 0.022472
vt 0.394913 0.029076
vt 0.348157 0.021613
vt 0.347179 0.021280
vt 0.348166 0.020293
vt 0.349550 0.021258
vt 0.347183 0.021295
vt 0.347207 0.020292
vt 0.394217 0.031115
vt 0.348521 0.022663
vt 0.394565 0.029146
vt 0.349238 0.022474
vt 0.394891 0.029062
vt 0.347735 0.022508
vt 0.394222 0.029079
vt 0.349957 0.022475
vt 0.395205 0.029055
vt 0.394497 0.030979
vt 0.394222 0.032123
vt 0.394217 0.030416
vt 0.394456 0.032003
vt 0.350497 0.021298
vt 0.350358 0.021626
vt 0.348324 0.022603
vt 0.394486 0.029124
vt 0.395200 0.031647
vt 0.394918 0.031842
vt 0.394974 0.031741
vt 0.394689 0.032000
vt 0.394447 0.032169
vt 0.395197 0.031623
vt 0.394224 0.032174
vt 0.394233 0.032246
vt 0.394585 0.032030
s 1
usemtl TropicalEnvironment_01.002
f 1/1/1 20/24/2 22/28/3
f 3/3/4 29/36/5 16/19/6
f 11/13/7 12/15/8 15/18/9
f 29/36/5 2/2/10 16/19/6
f 29/36/11 20/24/12 2/2/13
f 16/19/14 2/2/15 17/20/16
f 4/5/17 8/10/18 6/8/19
f 5/6/20 28/35/21 22/28/22
f 17/20/23 4/5/24 16/19/25
f 1/1/26 8/10/27 2/2/28
f 8/10/27 9/11/29 2/2/28
f 7/9/30 28/35/31 15/18/32
f 17/20/33 9/11/33 4/5/17
f 22/28/3 27/34/34 1/1/1
f 6/8/35 27/34/36 28/35/37
f 14/17/38 4/5/17 6/8/19
f 10/12/39 14/17/38 6/8/19
f 4/5/17 9/11/33 8/10/18
f 6/8/40 8/10/41 1/1/42
f 2/2/13 20/24/12 1/1/43
f 7/9/44 6/8/35 28/35/37
f 7/9/45 10/12/39 6/8/19
f 15/18/32 10/12/46 7/9/30
f 12/15/47 21/26/48 13/16/49
f 21/26/50 3/3/51 13/16/52
f 13/16/52 3/3/51 16/19/53
f 28/35/54 5/6/55 11/13/56
f 28/35/54 11/13/56 15/18/57
f 27/34/58 6/8/40 1/1/42
f 27/34/59 22/28/22 28/35/21
f 14/17/60 13/16/61 4/5/62
f 9/11/63 17/20/16 2/2/15
f 13/16/61 14/17/60 12/15/64
f 4/5/24 13/16/65 16/19/25
f 15/18/66 14/17/67 10/12/68
f 12/15/8 11/13/7 19/22/69
f 15/18/66 12/15/70 14/17/67
f 29/37/71 31/39/72 20/25/73
f 21/27/74 25/32/75 3/4/76
f 23/30/77 32/40/78 26/33/79
f 20/25/80 31/39/81 22/29/82
f 25/32/83 29/37/84 3/4/85
f 23/30/86 26/33/87 18/21/88
f 31/39/81 30/38/89 22/29/82
f 19/22/90 21/26/48 12/15/47
f 32/40/91 11/14/92 5/7/93
f 18/21/88 26/33/87 24/31/94
f 18/21/88 19/23/95 23/30/86
f 18/21/96 24/31/97 25/32/75
f 19/23/98 11/14/99 32/40/78
f 19/23/98 32/40/78 23/30/77
f 18/21/88 21/27/100 19/23/95
f 36/44/101 24/31/97 37/45/102
f 21/27/74 18/21/96 25/32/75
f 36/44/103 38/46/104 29/37/84
f 22/29/105 30/38/106 35/43/107
f 33/41/108 26/33/108 32/40/108
f 36/44/103 29/37/84 25/32/83
f 36/44/101 25/32/75 24/31/97
f 33/41/109 34/42/110 26/33/111
f 38/46/112 37/45/113 34/42/114
f 34/42/114 33/41/115 31/39/116
f 33/41/117 32/40/117 35/43/117
f 38/46/112 34/42/114 31/39/116
f 33/41/118 35/43/119 31/39/120
f 35/43/119 30/38/121 31/39/120
f 32/40/91 5/7/93 35/43/122
f 5/7/123 22/29/105 35/43/107
f 26/33/111 34/42/110 24/31/124
f 34/42/125 37/45/125 24/31/125
f 31/39/72 29/37/71 38/46/126
f 38/46/127 36/44/127 37/45/127
