# Blender 3.4.1
# www.blender.org
mtllib brick2LOD.mtl
o Cube_01_LOD1
v -0.499021 -0.502126 0.499608
v -0.497902 0.470826 -0.067288
v -0.498513 0.487890 0.479641
v 0.493509 -0.456662 0.492147
v 0.497800 0.481236 -0.499901
v -0.499021 0.497874 -0.339439
v -0.338069 0.497874 -0.500391
v -0.487033 0.492700 -0.086493
v -0.465602 -0.498542 -0.475217
v -0.490744 -0.286998 -0.494795
v 0.500979 -0.456419 -0.379490
v 0.480760 -0.431195 -0.495104
v 0.494443 0.499002 0.498894
vn -0.9759 0.2182 0.0004
vn -0.9999 0.0140 0.0055
vn -0.9982 -0.0570 -0.0191
vn -0.0068 -0.0466 -0.9989
vn -0.0004 -0.0061 -1.0000
vn -0.0028 -0.0169 -0.9999
vn 0.0447 -0.9990 -0.0011
vn 0.0454 -0.9988 -0.0189
vn 0.0538 -0.9935 -0.0999
vn 1.0000 -0.0026 -0.0012
vn 1.0000 -0.0010 0.0086
vn 0.9902 0.0982 -0.0994
vn -0.7010 0.1314 -0.7010
vn -0.9920 -0.1211 -0.0345
vn -0.9998 -0.0186 -0.0100
vn -0.9999 0.0125 -0.0015
vn -0.8833 0.4676 0.0326
vn -0.0142 -0.0938 -0.9955
vn 0.0004 -0.0072 -1.0000
vn 0.0645 -0.9726 -0.2235
vn 0.0458 -0.9990 0.0001
vn 0.9950 0.0660 -0.0755
vn 0.9998 -0.0187 0.0037
vn -0.0062 0.0069 1.0000
vn 0.0078 -0.0071 0.9999
vn -0.0059 0.0065 1.0000
vn -0.0196 0.0202 0.9996
vn -0.0010 1.0000 -0.0091
vn 0.0082 0.9999 -0.0083
vn 0.0050 1.0000 0.0050
vn 0.0198 0.9996 0.0196
vn 0.0195 0.9996 0.0195
vn -0.0113 0.9999 0.0083
vt 0.394001 0.025771
vt 0.386315 0.048829
vt 0.394001 0.056515
vt 0.401687 0.030038
vt 0.409372 0.044562
vt 0.401532 0.026002
vt 0.401532 0.056515
vt 0.409372 0.048444
vt 0.393915 0.048743
vt 0.401690 0.041143
vt 0.401687 0.033457
vt 0.401687 0.032220
vt 0.409372 0.042380
vt 0.401687 0.034694
vt 0.408135 0.041143
vt 0.401687 0.030550
vt 0.409232 0.044088
vt 0.394001 0.032735
vt 0.391221 0.036845
vt 0.386662 0.041404
vt 0.400623 0.033541
vt 0.394001 0.042072
vt 0.393990 0.041143
vt 0.400799 0.047978
s 1
usemtl TropicalEnvironment_01.012
f 2/4/1 6/12/2 10/21/3
f 10/21/4 5/10/5 12/23/6
f 1/2/7 9/19/8 11/22/9
f 13/24/10 4/9/11 11/22/12
f 10/21/13 6/11/13 7/14/13
f 9/18/14 1/1/15 10/21/3
f 1/1/15 3/6/16 2/4/1
f 10/21/3 1/1/15 2/4/1
f 2/4/1 8/16/17 6/12/2
f 12/23/6 9/19/18 10/21/4
f 10/21/4 7/14/19 5/10/5
f 9/20/8 12/23/20 11/22/9
f 1/2/7 11/22/9 4/9/21
f 11/22/12 12/23/22 13/24/10
f 12/23/22 5/10/23 13/24/10
f 1/3/24 4/9/25 13/24/26
f 13/24/26 3/7/27 1/3/24
f 13/24/28 5/10/29 8/17/30
f 5/10/29 7/15/31 8/17/30
f 7/15/31 6/13/32 8/17/30
f 8/17/17 2/5/1 3/8/16
f 3/8/33 13/24/28 8/17/30
