# Blender v3.4.1 OBJ File: ''
# www.blender.org
mtllib tris.mtl
o ShipPart_03_LOD1_Mesh.278
v -0.000000 2.516016 -0.065509
v 0.032115 -0.053917 -0.077718
v -0.058203 -0.053937 -0.058389
v -0.081994 -0.053918 0.025909
v -0.053642 3.133855 -0.024726
v -0.046193 2.516016 0.046011
v -0.000000 -0.053937 0.082126
v 0.081994 -0.053922 0.025909
v 0.020575 3.133816 0.055105
v 0.058670 3.010481 -0.018854
v 0.006930 4.628323 -0.026710
v -0.006929 4.628355 0.026348
v 0.000000 2.430264 -0.316239
v 0.000000 2.705938 -0.343373
v -0.273874 2.430264 -0.158118
v 0.273874 2.430264 -0.158118
v 0.297373 2.705938 -0.171685
v 0.273874 2.430264 0.158125
v 0.297373 2.705938 0.171692
v -0.000000 2.430264 0.316246
v -0.000000 2.705938 0.343381
v -0.273874 2.430264 0.158125
v -0.297373 2.705938 0.171692
v -0.297373 2.705938 -0.171685
v -0.302484 2.765896 0.174643
v -0.335774 3.156424 0.193864
v -0.302484 2.765896 -0.174636
v -0.000000 2.765896 0.349282
v -0.000000 3.156424 0.387723
v 0.302484 2.765896 0.174643
v 0.335774 3.156424 0.193864
v 0.302484 2.765896 -0.174636
v 0.335774 3.156424 -0.193855
v 0.000000 2.765896 -0.349275
v 0.000000 3.156424 -0.387715
v -0.335774 3.156424 -0.193855
v 1.084022 1.641272 0.276189
v 1.626034 2.150239 0.090090
v 1.084022 2.150239 0.186827
v 0.542011 2.150239 0.239968
v 0.542011 1.640041 0.311991
v -0.000000 2.150239 0.256015
v -0.000000 1.639838 0.319101
v -0.542011 2.150239 0.239968
v -0.542011 1.640041 0.297177
v -1.084023 2.150239 0.186827
v -1.625962 1.383822 0.301349
v -1.626034 1.642768 0.248010
v -1.626034 2.150239 0.090090
v -1.084023 1.641272 0.276189
v -0.446029 1.404593 0.346691
v 0.000091 1.332515 0.366515
v 0.542011 1.190237 0.363122
v -0.803637 1.973152 0.239990
v -0.955646 1.900894 0.238098
v -0.853362 1.766970 0.268025
v -0.688407 1.814814 0.271708
v -0.639355 1.955328 0.261084
v -0.517738 1.971317 0.260709
v -0.505556 1.922356 0.266904
v -0.471109 1.950764 0.270226
v -0.464997 1.985666 0.260429
v 0.783532 1.935715 0.242030
v 0.610531 1.833268 0.272924
v 0.724140 1.678659 0.288227
v 0.962858 1.663737 0.275022
v 1.012152 1.790291 0.249658
v 0.176935 1.548542 0.326152
v 0.138923 1.408830 0.349287
v 0.395445 1.382650 0.340114
v 0.485721 1.534291 0.319961
v 0.392142 1.573282 0.323504
v -1.084023 1.415507 0.308120
v -0.898923 1.211580 0.339811
v -1.432591 1.442042 0.294657
v -1.305647 1.355342 0.310257
v -0.208374 1.419758 0.346888
v -0.344523 1.502395 0.338176
v 1.249936 1.280261 0.321428
v 1.083854 1.382063 0.308421
v 0.703248 1.362900 0.328240
v 0.907809 1.295900 0.327359
v 1.526459 1.642493 0.253187
v 1.381001 1.320792 0.319358
v 1.517063 1.448752 0.286748
v 1.625139 1.719702 0.217074
v 1.083337 1.639562 0.266361
v 1.624915 2.147899 0.080433
v 1.083026 2.148304 0.177066
v 0.541469 2.148826 0.230084
v 0.541559 1.638645 0.302099
v 0.000067 2.148994 0.246094
v 0.000059 1.638387 0.309208
v -0.541461 2.148778 0.230091
v -0.541578 1.638600 0.287291
v -1.083067 2.148285 0.177066
v -1.625314 1.640674 0.238258
v -1.624925 2.147890 0.080434
v -1.083413 1.639534 0.266360
v -0.446059 1.403874 0.337011
v 0.541551 1.188933 0.353218
v -0.638696 1.953920 0.251206
v -0.470749 1.949646 0.260296
v 0.138585 1.407416 0.339393
v 0.391868 1.571796 0.313619
v -1.083588 1.413849 0.298268
v -0.344159 1.500515 0.328361
v 1.525641 1.640405 0.243442
v 1.380676 1.319120 0.309504
v 1.782682 2.165188 0.049272
v -1.782682 2.170887 0.046911
v -1.782682 2.216746 0.070627
v 1.782682 2.206651 0.057005
v 1.782682 2.216880 0.081699
v -1.782682 2.206652 0.106393
v 1.782682 2.206651 0.106393
v -1.782682 2.165188 0.114127
v 1.782682 2.170886 0.116487
v -1.782682 2.147034 0.081699
v 1.782682 2.147034 0.081699
v -0.000344 4.587057 -0.012124
v -0.006199 4.581329 -0.060074
v -0.003100 4.419451 -0.266292
v -0.003100 4.420485 -0.326997
v -0.003100 4.381707 -0.341286
v -0.005795 4.349806 -0.554165
v -0.000404 4.371207 -0.554165
v -0.003100 4.466302 -0.891287
v -0.005855 4.340179 -0.012124
v -0.003100 4.219425 -0.891289
v -0.000000 4.345907 -0.060074
vt 0.270216 0.353706
vt 0.267482 0.364643
vt 0.267482 0.353706
vt 0.288544 0.346811
vt 0.279228 0.346811
vt 0.280175 0.351950
vt 0.274002 0.353706
vt 0.271466 0.364643
vt 0.278418 0.353706
vt 0.275684 0.364643
vt 0.279668 0.364643
vt 0.282835 0.353706
vt 0.284969 0.364643
vt 0.287987 0.353706
vt 0.277586 0.364643
vt 0.269165 0.364643
vt 0.289354 0.364643
vt 0.287613 0.364643
vt 0.283886 0.342989
vt 0.345019 0.344227
vt 0.345019 0.355762
vt 0.357463 0.355762
vt 0.356479 0.344227
vt 0.333559 0.344227
vt 0.332576 0.355762
vt 0.356479 0.344227
vt 0.345019 0.344227
vt 0.333559 0.344227
vt 0.357463 0.355762
vt 0.345019 0.355762
vt 0.332576 0.355762
vt 0.344123 0.029465
vt 0.331466 0.029465
vt 0.331680 0.026956
vt 0.344123 0.026956
vt 0.331466 0.029465
vt 0.331680 0.026956
vt 0.345019 0.358271
vt 0.345019 0.374612
vt 0.330969 0.374612
vt 0.332362 0.358271
vt 0.330969 0.374612
vt 0.332362 0.358271
vt 0.357677 0.358271
vt 0.359070 0.374612
vt 0.356781 0.029465
vt 0.356567 0.026956
vt 0.357677 0.358271
vt 0.359070 0.374612
vt 0.356781 0.029465
vt 0.356567 0.026956
vt 0.345019 0.358271
vt 0.345019 0.374612
vt 0.344123 0.029465
vt 0.344123 0.026956
vt 0.857373 0.107119
vt 0.857373 0.110199
vt 0.853728 0.110199
vt 0.852915 0.106722
vt 0.851310 0.106833
vt 0.850083 0.106553
vt 0.846437 0.110199
vt 0.846437 0.106553
vt 0.842792 0.106553
vt 0.843034 0.108575
vt 0.842953 0.108925
vt 0.839147 0.106553
vt 0.840698 0.107458
vt 0.835501 0.106553
vt 0.836800 0.104204
vt 0.839147 0.110199
vt 0.835501 0.110199
vt 0.844120 0.103557
vt 0.849075 0.105991
vt 0.841030 0.108935
vt 0.842138 0.108803
vt 0.842792 0.110199
vt 0.843309 0.109027
vt 0.851711 0.108673
vt 0.850083 0.110199
vt 0.850083 0.102908
vt 0.849705 0.105688
vt 0.849098 0.104410
vt 0.839147 0.104582
vt 0.843441 0.102908
vt 0.851170 0.104251
vt 0.856642 0.104010
vt 0.856704 0.106553
vt 0.853728 0.106553
vt 0.853728 0.110199
vt 0.856704 0.106553
vt 0.850083 0.106553
vt 0.853728 0.106553
vt 0.846437 0.110199
vt 0.846437 0.106553
vt 0.842792 0.106553
vt 0.843269 0.108773
vt 0.841806 0.107804
vt 0.842138 0.108803
vt 0.839147 0.106553
vt 0.837655 0.103580
vt 0.835501 0.106553
vt 0.839147 0.110199
vt 0.844120 0.103557
vt 0.843441 0.102908
vt 0.849075 0.105991
vt 0.847628 0.105762
vt 0.842792 0.110199
vt 0.850083 0.110199
vt 0.850083 0.102908
vt 0.847371 0.104510
vt 0.839147 0.104582
vt 0.852546 0.103585
vt 0.855725 0.102908
vt 0.857373 0.110199
vt 0.835501 0.110199
vt 0.840390 0.102908
vt 0.846437 0.102908
vt 0.843269 0.108773
vt 0.847371 0.104510
vt 0.854845 0.102908
vt 0.855725 0.102908
vt 0.853248 0.107628
vt 0.850547 0.107940
vt 0.840009 0.108417
vt 0.835501 0.102908
vt 0.845035 0.102908
vt 0.853728 0.104259
vt 0.270216 0.364643
vt 0.267482 0.353706
vt 0.271899 0.353706
vt 0.279228 0.349666
vt 0.288303 0.353706
vt 0.286170 0.343935
vt 0.275684 0.364643
vt 0.275684 0.353706
vt 0.279470 0.364643
vt 0.280101 0.353706
vt 0.283886 0.364643
vt 0.283886 0.353706
vt 0.287672 0.364643
vt 0.274378 0.343581
vt 0.278200 0.348239
vt 0.267701 0.348239
vt 0.267482 0.364643
vt 0.289136 0.348239
vt 0.280175 0.344527
vt 0.272950 0.364643
vt 0.275234 0.352542
vt 0.269239 0.351950
vt 0.269239 0.344527
vt 0.761772 0.086432
vt 0.771170 0.087942
vt 0.774245 0.087942
vt 0.773781 0.099555
vt 0.772002 0.108304
vt 0.770596 0.099555
vt 0.773414 0.108304
vt 0.761772 0.108304
vt 0.783644 0.086432
vt 0.772501 0.095181
vt 0.783644 0.108304
vn -0.6845 0.0037 -0.7290
vn -0.5266 0.0099 -0.8500
vn -0.2093 0.0020 -0.9779
vn 0.0000 -1.0000 -0.0001
vn -0.0000 -1.0000 0.0001
vn 0.0001 -1.0000 0.0001
vn -0.9406 0.0036 0.3396
vn -0.9206 0.0242 -0.3898
vn -0.5606 0.0016 0.8281
vn -0.7124 0.0130 0.7017
vn 0.9015 0.0225 0.4322
vn 0.5655 0.0033 0.8248
vn 0.5723 0.0035 0.8201
vn 0.5557 0.0133 -0.8313
vn 0.9011 0.0005 -0.4337
vn 0.8975 0.0007 -0.4410
vn 0.9000 0.0155 0.4356
vn 0.9655 0.0319 0.2584
vn -0.2581 0.0137 0.9660
vn -0.2593 0.0138 0.9657
vn -0.9704 0.0385 -0.2383
vn -0.4674 0.0178 -0.8839
vn 0.5635 0.0111 -0.8261
vn 0.5500 0.0135 -0.8351
vn 0.0002 -1.0000 -0.0001
vn -0.0000 -1.0000 -0.0003
vn 0.9670 0.0322 0.2526
vn -0.9668 0.0388 -0.2526
vn 0.4982 -0.0849 -0.8629
vn -0.4982 -0.0849 -0.8629
vn 0.0000 -1.0000 0.0000
vn 0.9964 -0.0849 0.0000
vn 0.4982 -0.0849 0.8629
vn -0.4982 -0.0849 0.8629
vn -0.9964 -0.0849 0.0000
vn 0.0000 1.0000 -0.0000
vn 0.1574 0.2647 0.9514
vn 0.1687 0.2785 0.9455
vn 0.0928 0.1879 0.9778
vn 0.0497 0.3127 0.9485
vn 0.0765 0.2354 0.9689
vn 0.0518 0.1258 0.9907
vn -0.0028 0.1287 0.9917
vn -0.0020 0.1341 0.9910
vn -0.0507 0.1453 0.9881
vn -0.1203 0.1212 0.9853
vn -0.0285 0.1116 0.9933
vn -0.0441 0.1566 0.9867
vn -0.0473 0.1422 0.9887
vn -0.0760 0.2136 0.9739
vn -0.0375 0.1743 0.9840
vn -0.0955 0.1955 0.9760
vn -0.1680 0.2929 0.9413
vn -0.0433 0.1904 0.9808
vn 0.0219 0.1156 0.9931
vn -0.0963 0.1502 0.9840
vn -0.0533 0.1286 0.9903
vn -0.0517 0.1251 0.9908
vn -0.0534 0.1812 0.9820
vn 0.0904 0.1316 0.9872
vn 0.0693 0.1318 0.9889
vn 0.0464 0.1287 0.9906
vn -0.0158 0.0916 0.9957
vn 0.0322 0.1428 0.9892
vn -0.0396 0.1369 0.9898
vn -0.0683 0.1663 0.9837
vn 0.0731 0.1095 0.9913
vn 0.0549 0.1774 0.9826
vn 0.0906 0.2045 0.9747
vn 0.0373 0.1614 0.9862
vn -0.1012 -0.2042 -0.9737
vn -0.1230 -0.2453 -0.9616
vn -0.0672 -0.2041 -0.9766
vn -0.0390 -0.1307 -0.9907
vn -0.0774 -0.0326 -0.9965
vn -0.0603 -0.1577 -0.9856
vn 0.0002 -0.1293 -0.9916
vn 0.0037 -0.1492 -0.9888
vn 0.0431 -0.1382 -0.9895
vn 0.0101 -0.0729 -0.9973
vn -0.0165 -0.0679 -0.9976
vn -0.0066 -0.0935 -0.9956
vn 0.0173 -0.1221 -0.9924
vn 0.0360 -0.2123 -0.9766
vn 0.0470 -0.1536 -0.9870
vn 0.0032 -0.1551 -0.9879
vn 0.0786 -0.2347 -0.9689
vn 0.1092 -0.2102 -0.9715
vn 0.0488 -0.2057 -0.9774
vn 0.0678 -0.1751 -0.9822
vn -0.0116 -0.1555 -0.9878
vn -0.0005 -0.1863 -0.9825
vn 0.0609 -0.1575 -0.9856
vn 0.0889 -0.1829 -0.9791
vn 0.0066 -0.0967 -0.9953
vn 0.2819 -0.1222 -0.9516
vn -0.0894 -0.1658 -0.9821
vn -0.0560 -0.1481 -0.9874
vn -0.0413 -0.1131 -0.9927
vn -0.0573 -0.1720 -0.9834
vn -0.0242 -0.0856 -0.9960
vn 0.0200 -0.1464 -0.9890
vn -0.0479 -0.1273 -0.9907
vn -0.0459 -0.1518 -0.9873
vn -0.0354 -0.1854 -0.9820
vn -0.0256 -0.1600 -0.9868
vn 0.9937 -0.0336 -0.1069
vn -0.0404 0.9722 -0.2304
vn -0.0262 0.9810 -0.1920
vn -0.0258 0.9811 -0.1916
vn -0.0088 0.9900 -0.1410
vn -0.0002 0.9922 -0.1247
vn -0.0089 0.9899 -0.1414
vn 0.0093 0.9892 -0.1460
vn 0.0093 0.9893 -0.1458
vn 0.0261 0.9808 -0.1935
vn 0.0265 0.9806 -0.1940
vn 0.0406 0.9720 -0.2314
vn 0.0406 0.9719 -0.2318
vn -0.9939 -0.0322 -0.1059
vn -0.9974 -0.0183 -0.0699
vn -0.9974 -0.0180 -0.0698
vn 0.3903 -0.9182 0.0670
vn 0.5479 -0.8344 0.0603
vn 0.5509 -0.8322 0.0627
vn -0.2507 -0.9582 0.1379
vn -0.1237 -0.9835 0.1320
vn -0.9860 0.1577 -0.0535
vn -0.8629 0.4979 -0.0873
vn -0.8597 0.5032 -0.0878
vn 0.0954 0.9850 -0.1441
vn 0.1148 -0.9828 0.1445
vn -0.1331 -0.9795 0.1509
vn -0.1318 -0.9797 0.1509
vn 0.2597 -0.9504 0.1714
vn 0.6919 -0.7050 0.1559
vn 0.6918 -0.7040 0.1605
vn 0.2942 -0.9438 0.1505
vn 0.5073 -0.8522 0.1279
vn 0.5103 -0.8505 0.1276
vn 0.9957 -0.0605 -0.0705
vn 0.0198 0.1717 0.9850
vn 0.1360 0.1401 0.9808
vn -0.0772 0.1583 0.9844
vn -0.0553 0.0985 0.9936
vn -0.0676 0.1680 0.9835
vn -0.0268 0.2017 0.9791
vn -0.0273 0.1391 0.9899
vn -0.0072 0.1319 0.9912
vn 0.0136 0.1502 0.9886
vn 0.0421 0.1489 0.9880
vn 0.0179 0.1115 0.9936
vn -0.0583 0.1014 0.9931
vn 0.0453 0.1238 0.9913
vn 0.0166 0.1215 0.9924
vn 0.0287 0.1562 0.9873
vn -0.0157 0.1015 0.9947
vn -0.1677 -0.2998 -0.9392
vn -0.0446 -0.1415 -0.9889
vn -0.0558 -0.0901 -0.9944
vn -0.1148 -0.1718 -0.9784
vn 0.1142 -0.1724 -0.9784
vn 0.0557 -0.0874 -0.9946
vn 0.0382 -0.2385 -0.9704
vn 0.1681 -0.2930 -0.9412
vn -0.0469 -0.1900 -0.9807
vn 0.0189 -0.1873 -0.9821
vn -0.0617 -0.1305 -0.9895
vn 0.0576 -0.1501 -0.9870
vn -0.0293 -0.1630 -0.9862
vn -0.0352 -0.1830 -0.9825
vn -0.0404 0.9721 -0.2309
vn -0.9974 -0.0148 -0.0705
vn -0.9938 -0.0323 -0.1063
vn -0.9411 0.3203 -0.1084
vn -0.6261 0.7720 -0.1096
vn 0.9651 -0.2618 0.0045
vn -0.3756 -0.9149 0.1479
vn -0.7442 -0.6633 0.0788
vn -0.5202 -0.8421 0.1420
vn 0.7353 -0.6755 0.0548
vn 0.6942 -0.7131 0.0982
vn 0.6371 -0.7629 0.1101
vn 0.0012 0.6297 -0.7768
vn -0.0021 0.4574 -0.8892
vn -0.0021 0.4621 -0.8868
vn -1.0000 0.0000 0.0000
vn -0.0012 0.9242 0.3820
vn -0.0000 0.9623 0.2721
vn 0.0000 0.9624 0.2716
vn -0.0000 0.2710 0.9626
vn -0.0009 0.1839 0.9829
vn -0.0009 0.1833 0.9830
vn 0.0009 -0.8251 0.5650
vn 0.0000 -0.8722 0.4891
vn 0.0000 -0.8726 0.4885
vn -0.0000 -0.8722 -0.4891
vn -0.0009 -0.8251 -0.5650
vn -0.0009 -0.8248 -0.5655
vn 1.0000 -0.0000 0.0000
vn 0.0009 0.1833 -0.9830
vn 0.0012 0.9239 -0.3827
vn -0.0012 0.9239 0.3827
vn 0.0000 0.2716 0.9624
vn 0.0009 -0.8248 0.5655
vn 0.0000 -0.8726 -0.4885
vn -0.9919 -0.0261 0.1242
vn 0.9974 0.0716 0.0069
vn 0.9970 -0.0774 -0.0057
vn 0.9987 -0.0461 0.0201
vn 0.9819 -0.1804 0.0571
vn 0.9983 -0.0575 -0.0122
vn -0.9999 -0.0081 -0.0084
vn -0.9944 0.0929 -0.0512
vn -0.9982 0.0522 -0.0290
vn 0.1474 0.9798 -0.1350
vn 1.0000 -0.0021 -0.0073
vn 0.9999 0.0116 -0.0047
vn -0.9980 -0.0566 0.0272
vn -1.0000 0.0023 -0.0093
vn -0.9992 0.0390 0.0050
vn 1.0000 0.0007 -0.0058
vn -1.0000 -0.0031 -0.0049
vn 0.9998 0.0180 -0.0065
vn -0.9996 -0.0279 0.0001
vn -0.9998 -0.0195 -0.0005
vn 0.9919 -0.0560 0.1144
vn 0.9919 0.0261 0.1242
usemtl TropicalEnvironment_01.007
s 1
f 3/1/1 1/2/2 2/3/3
f 8/4/4 4/5/5 3/6/6
f 4/7/7 5/8/8 3/1/1
f 7/9/9 6/10/10 4/7/7
f 9/11/11 7/9/12 8/12/13
f 10/13/14 8/12/15 2/14/16
f 10/13/17 12/15/18 9/11/11
f 9/11/19 12/15/20 6/10/10
f 6/10/10 12/15/21 5/8/8
f 5/8/8 11/16/22 1/2/2
f 1/17/23 11/18/24 10/13/14
f 1/17/23 10/13/14 2/14/16
f 3/1/1 5/8/8 1/2/2
f 2/14/25 8/4/4 3/6/6
f 8/4/4 7/19/26 4/5/5
f 6/10/10 5/8/8 4/7/7
f 7/9/9 9/11/19 6/10/10
f 10/13/17 9/11/11 8/12/13
f 10/13/17 11/18/27 12/15/18
f 5/8/8 12/15/21 11/16/28
f 13/20/29 14/21/29 17/22/29 16/23/29
f 15/24/30 24/25/30 14/21/30 13/20/30
f 13/20/31 16/23/31 18/26/31 20/27/31 22/28/31 15/24/31
f 16/23/32 17/22/32 19/29/32 18/26/32
f 18/26/33 19/29/33 21/30/33 20/27/33
f 20/27/34 21/30/34 23/31/34 22/28/34
f 22/28/35 23/31/35 24/25/35 15/24/35
f 28/32/34 25/33/34 23/34/34 21/35/34
f 25/33/35 27/36/35 24/37/35 23/34/35
f 28/38/34 29/39/34 26/40/34 25/41/34
f 25/41/35 26/40/35 36/42/35 27/43/35
f 30/44/33 31/45/33 29/39/33 28/38/33
f 30/46/33 28/32/33 21/35/33 19/47/33
f 32/48/32 33/49/32 31/45/32 30/44/32
f 32/50/32 30/46/32 19/47/32 17/51/32
f 34/52/29 35/53/29 33/49/29 32/48/29
f 34/54/29 32/50/29 17/51/29 14/55/29
f 27/43/30 36/42/30 35/53/30 34/52/30
f 27/36/30 34/54/30 14/55/30 24/37/30
f 33/49/36 35/53/36 36/42/36 26/40/36 29/39/36 31/45/36
f 86/56/37 38/57/38 39/58/39
f 66/59/40 65/60/41 41/61/42
f 41/61/42 42/62/43 43/63/44
f 45/64/45 60/65/46 59/66/47
f 50/67/48 45/64/45 56/68/49
f 50/67/48 48/69/50 75/70/51
f 48/69/50 46/71/52 49/72/53
f 43/63/44 45/64/45 78/73/54
f 72/74/55 41/61/42 43/63/44
f 54/75/56 58/76/57 44/77/58
f 44/77/58 62/78/59 42/62/43
f 63/79/60 39/58/39 40/80/61
f 53/81/62 71/82/63 70/83/64
f 45/64/45 73/84/65 51/85/66
f 41/61/42 53/81/62 81/86/67
f 85/87/68 83/88/69 37/89/70
f 89/90/71 86/56/72 108/91/73
f 91/92/74 66/59/75 87/93/76
f 92/94/77 91/92/74 93/95/78
f 95/96/79 60/65/80 103/97/81
f 57/98/82 102/99/83 95/96/79
f 75/70/84 99/100/85 76/101/86
f 97/102/87 96/103/88 99/100/85
f 107/104/89 100/105/90 95/96/79
f 105/106/91 68/107/92 93/95/78
f 94/108/93 102/99/83 54/75/94
f 94/108/93 62/78/95 59/66/96
f 63/79/97 90/109/98 89/90/71
f 101/110/99 104/111/100 70/83/101
f 100/105/90 106/112/102 95/96/79
f 81/86/103 87/93/76 82/113/104
f 85/87/105 109/114/106 87/93/76
f 38/57/107 86/56/107 88/115/107
f 38/57/108 89/90/109 39/58/110
f 40/80/111 92/94/112 42/62/112
f 39/58/110 90/109/113 40/80/111
f 42/62/112 94/108/114 44/77/115
f 46/71/116 94/108/114 96/103/117
f 49/72/118 96/103/117 98/116/119
f 49/72/120 97/102/121 48/69/122
f 74/117/123 100/105/124 51/85/125
f 53/81/126 52/118/126 101/110/126
f 58/76/127 54/75/127 102/99/127
f 62/78/128 103/97/129 61/119/130
f 69/120/131 70/83/131 104/111/131
f 68/107/132 105/106/133 72/74/134
f 73/84/135 76/101/135 106/112/135
f 51/85/125 107/104/136 78/73/137
f 79/121/138 109/114/139 84/122/140
f 83/88/141 85/87/141 108/91/141
f 39/58/39 37/89/70 83/88/69
f 83/88/69 86/56/37 39/58/39
f 37/89/70 67/123/142 66/59/40
f 65/60/41 64/124/143 41/61/42
f 37/89/70 66/59/40 41/61/42
f 41/61/42 40/80/61 42/62/43
f 45/64/45 43/63/44 61/119/144
f 43/63/44 42/62/43 61/119/144
f 45/64/45 61/119/144 60/65/46
f 42/62/43 62/78/59 61/119/144
f 59/66/47 44/77/58 45/64/45
f 45/64/45 44/77/58 58/76/57
f 45/64/45 58/76/57 57/98/145
f 55/125/146 46/71/52 50/67/48
f 45/64/45 57/98/145 56/68/49
f 56/68/49 55/125/146 50/67/48
f 48/69/50 47/126/147 75/70/51
f 75/70/51 76/101/148 50/67/48
f 76/101/148 73/84/65 50/67/48
f 48/69/50 50/67/48 46/71/52
f 78/73/54 77/127/149 43/63/44
f 77/127/149 52/118/150 43/63/44
f 45/64/45 51/85/66 78/73/54
f 43/63/44 52/118/150 69/120/151
f 43/63/44 69/120/151 68/107/152
f 72/74/55 71/82/63 41/61/42
f 43/63/44 68/107/152 72/74/55
f 44/77/58 46/71/52 54/75/56
f 46/71/52 55/125/146 54/75/56
f 44/77/58 59/66/47 62/78/59
f 67/123/142 37/89/70 39/58/39
f 40/80/61 41/61/42 64/124/143
f 63/79/60 67/123/142 39/58/39
f 40/80/61 64/124/143 63/79/60
f 53/81/62 41/61/42 71/82/63
f 70/83/64 69/120/151 53/81/62
f 69/120/151 52/118/150 53/81/62
f 50/67/48 73/84/65 45/64/45
f 73/84/65 74/117/153 51/85/66
f 81/86/67 82/113/154 37/89/70
f 82/113/154 80/128/155 37/89/70
f 37/89/70 41/61/42 81/86/67
f 37/89/70 80/128/155 84/122/156
f 80/128/155 79/121/157 84/122/156
f 84/122/156 85/87/68 37/89/70
f 108/91/73 87/93/76 89/90/71
f 89/90/71 88/115/158 86/56/72
f 91/92/74 64/124/159 65/60/160
f 66/59/75 67/123/161 87/93/76
f 91/92/74 65/60/160 66/59/75
f 92/94/77 90/109/98 91/92/74
f 95/96/79 94/108/93 59/66/96
f 95/96/79 59/66/96 60/65/80
f 92/94/77 93/95/78 103/97/81
f 93/95/78 95/96/79 103/97/81
f 103/97/81 62/78/95 92/94/77
f 99/100/85 96/103/88 55/125/162
f 99/100/85 55/125/162 56/68/163
f 102/99/83 94/108/93 95/96/79
f 99/100/85 56/68/163 95/96/79
f 56/68/163 57/98/82 95/96/79
f 75/70/84 47/126/164 97/102/87
f 97/102/87 99/100/85 75/70/84
f 99/100/85 106/112/102 76/101/86
f 97/102/87 98/116/165 96/103/88
f 95/96/79 93/95/78 107/104/89
f 93/95/78 52/118/166 77/127/167
f 107/104/89 93/95/78 77/127/167
f 104/111/100 52/118/166 93/95/78
f 91/92/74 71/82/168 105/106/91
f 68/107/92 104/111/100 93/95/78
f 91/92/74 105/106/91 93/95/78
f 55/125/162 96/103/88 54/75/94
f 96/103/88 94/108/93 54/75/94
f 94/108/93 92/94/77 62/78/95
f 64/124/159 91/92/74 90/109/98
f 89/90/71 87/93/76 67/123/161
f 63/79/97 64/124/159 90/109/98
f 89/90/71 67/123/161 63/79/97
f 71/82/168 91/92/74 101/110/99
f 101/110/99 52/118/166 104/111/100
f 70/83/101 71/82/168 101/110/99
f 74/117/169 106/112/102 100/105/90
f 106/112/102 99/100/85 95/96/79
f 81/86/103 101/110/99 91/92/74
f 91/92/74 87/93/76 81/86/103
f 87/93/76 80/128/170 82/113/104
f 79/121/171 80/128/170 109/114/106
f 80/128/170 87/93/76 109/114/106
f 87/93/76 108/91/73 85/87/105
f 38/57/108 88/115/172 89/90/109
f 40/80/111 90/109/113 92/94/112
f 39/58/110 89/90/109 90/109/113
f 42/62/112 92/94/112 94/108/114
f 46/71/116 44/77/115 94/108/114
f 48/69/122 97/102/121 47/126/173
f 49/72/118 46/71/116 96/103/117
f 49/72/120 98/116/174 97/102/121
f 58/76/175 102/99/175 57/98/175
f 61/119/130 103/97/129 60/65/176
f 69/120/177 104/111/177 68/107/177
f 71/82/178 72/74/134 105/106/133
f 74/117/179 73/84/179 106/112/179
f 77/127/180 78/73/180 107/104/180
f 51/85/125 100/105/124 107/104/136
f 53/81/181 101/110/181 81/86/181
f 85/87/182 84/122/140 109/114/139
f 86/56/183 83/88/183 108/91/183
f 113/129/184 111/130/185 112/131/186
f 112/132/187 111/133/187 117/134/187
f 116/135/188 112/131/189 115/136/190
f 118/137/191 115/136/192 117/138/193
f 120/139/194 117/138/195 119/140/196
f 110/141/197 119/140/198 111/133/199
f 118/142/200 120/143/200 114/144/200
f 113/129/184 110/145/201 111/130/185
f 111/133/187 119/146/187 117/134/187
f 115/147/187 112/132/187 117/134/187
f 114/148/202 113/129/184 112/131/186
f 116/135/188 114/148/203 112/131/189
f 118/137/191 116/135/204 115/136/192
f 120/139/194 118/137/205 117/138/195
f 110/141/197 120/139/206 119/140/198
f 120/143/200 110/149/200 114/144/200
f 110/149/200 113/150/200 114/144/200
f 114/144/200 116/151/200 118/142/200
f 121/152/207 122/153/207 131/154/207
f 125/155/208 127/156/209 124/157/210
f 131/154/211 127/156/209 125/155/208
f 131/154/211 126/158/212 127/156/209
f 122/153/213 127/156/214 126/158/215
f 128/159/216 122/153/216 121/152/216
f 121/152/217 127/156/209 128/159/218
f 122/153/213 126/158/215 124/157/219
f 126/158/215 129/160/220 125/155/221
f 123/161/222 131/154/211 125/155/208
f 122/153/213 124/157/219 123/161/223
f 123/161/222 124/157/210 121/152/217
f 131/154/211 123/161/222 121/152/217
f 121/152/217 124/157/210 127/156/209
f 131/154/211 130/162/224 126/158/212
f 122/153/213 128/159/225 127/156/214
f 125/155/221 124/157/219 126/158/215
f 126/158/215 130/162/226 129/160/220
f 131/154/211 129/160/227 130/162/224
f 123/161/223 125/155/221 129/160/220
f 131/154/211 122/153/228 129/160/227
f 122/153/213 123/161/223 129/160/220
