# Blender 3.4.1
# www.blender.org
mtllib menu.mtl
o Menu_01
v -0.002743 0.001454 0.002371
v -0.002743 0.007950 0.000385
v -0.002743 0.001325 0.001949
v -0.002743 0.007821 -0.000037
v 0.002743 0.001454 0.002371
v 0.002743 0.007950 0.000385
v 0.002743 0.001325 0.001949
v 0.002743 0.007821 -0.000037
v 0.002743 -0.000137 0.002396
v 0.002743 -0.000008 0.002818
v -0.002743 -0.000008 0.002818
v -0.002743 -0.000137 0.002396
v -0.002164 0.001325 0.001949
v 0.002164 0.001325 0.001949
v 0.002381 0.007821 -0.000037
v -0.002381 0.007821 -0.000037
v 0.002164 0.001454 0.002371
v -0.002164 0.001454 0.002371
v -0.002381 0.007950 0.000385
v 0.002381 0.007950 0.000385
v 0.002381 0.007544 0.000423
v 0.002381 0.001812 0.002175
v -0.002381 0.007544 0.000423
v -0.002381 0.001812 0.002175
v 0.002743 0.001836 0.002254
v 0.002743 0.007568 0.000502
v 0.002743 0.007439 0.000080
v 0.002743 0.001707 0.001832
v -0.002743 0.001707 0.001832
v -0.002743 0.007439 0.000080
v -0.002743 0.007568 0.000502
v -0.002743 0.001836 0.002254
v -0.002381 0.001836 0.002254
v -0.002381 0.007568 0.000502
v 0.002381 0.001836 0.002254
v 0.002381 0.007568 0.000502
v 0.002381 0.007439 0.000080
v 0.002381 0.001707 0.001832
v -0.002381 0.001707 0.001832
v -0.002381 0.007439 0.000080
v 0.002164 -0.000137 0.002396
v 0.002164 -0.000008 0.002818
v -0.002164 -0.000008 0.002818
v -0.002164 -0.000137 0.002396
v -0.002743 0.001454 -0.002371
v -0.002743 0.007950 -0.000385
v -0.002743 0.001325 -0.001949
v -0.002743 0.007821 0.000037
v 0.002743 0.001454 -0.002371
v 0.002743 0.007950 -0.000385
v 0.002743 0.001325 -0.001949
v 0.002743 0.007821 0.000037
v 0.002743 -0.000137 -0.002396
v 0.002743 -0.000008 -0.002818
v -0.002743 -0.000008 -0.002818
v -0.002743 -0.000137 -0.002396
v -0.002164 0.001325 -0.001949
v 0.002164 0.001325 -0.001949
v 0.002381 0.007821 0.000037
v -0.002381 0.007821 0.000037
v 0.002164 0.001454 -0.002371
v -0.002164 0.001454 -0.002371
v -0.002381 0.007950 -0.000385
v 0.002381 0.007950 -0.000385
v 0.002381 0.007544 -0.000423
v 0.002381 0.001812 -0.002175
v -0.002381 0.007544 -0.000423
v -0.002381 0.001812 -0.002175
v 0.002743 0.001836 -0.002254
v 0.002743 0.007568 -0.000502
v 0.002743 0.007439 -0.000080
v 0.002743 0.001707 -0.001832
v -0.002743 0.001707 -0.001832
v -0.002743 0.007439 -0.000080
v -0.002743 0.007568 -0.000502
v -0.002743 0.001836 -0.002254
v -0.002381 0.001836 -0.002254
v -0.002381 0.007568 -0.000502
v 0.002381 0.001836 -0.002254
v 0.002381 0.007568 -0.000502
v 0.002381 0.007439 -0.000080
v 0.002381 0.001707 -0.001832
v -0.002381 0.001707 -0.001832
v -0.002381 0.007439 -0.000080
v 0.002164 -0.000137 -0.002396
v 0.002164 -0.000008 -0.002818
v -0.002164 -0.000008 -0.002818
v -0.002164 -0.000137 -0.002396
vn -0.0000 0.2924 0.9563
vn -0.0000 0.9563 -0.2924
vn -0.0000 -0.2924 -0.9563
vn -1.0000 -0.0000 -0.0000
vn -0.0000 -0.9563 0.2924
vn 1.0000 -0.0000 -0.0000
vn -0.0000 0.2924 -0.9563
vn -0.0000 0.9563 0.2924
vn -0.0000 -0.2924 0.9563
vn -0.0000 -0.9563 -0.2924
vt 0.148484 0.345734
vt 0.148484 0.373969
vt 0.148484 0.345734
vt 0.148484 0.373969
vt 0.171285 0.345734
vt 0.171285 0.373969
vt 0.171285 0.345734
vt 0.171285 0.373969
vt 0.171285 0.339379
vt 0.171285 0.339379
vt 0.148484 0.339379
vt 0.148484 0.339379
vt 0.150889 0.345734
vt 0.168881 0.345734
vt 0.169780 0.373969
vt 0.149990 0.373969
vt 0.168881 0.345734
vt 0.150889 0.345734
vt 0.149990 0.373969
vt 0.169780 0.373969
vt 0.162029 0.045216
vt 0.169780 0.372307
vt 0.162029 0.020305
vt 0.169780 0.347396
vt 0.142239 0.045216
vt 0.149990 0.372307
vt 0.142239 0.020305
vt 0.149990 0.347396
vt 0.171285 0.347396
vt 0.171285 0.372307
vt 0.171285 0.372307
vt 0.171285 0.347396
vt 0.148484 0.347396
vt 0.148484 0.372307
vt 0.148484 0.372307
vt 0.148484 0.347396
vt 0.149990 0.347396
vt 0.149990 0.372307
vt 0.169780 0.347396
vt 0.169780 0.372307
vt 0.169780 0.372307
vt 0.169780 0.347396
vt 0.149990 0.347396
vt 0.149990 0.372307
vt 0.168881 0.339379
vt 0.168881 0.339379
vt 0.150889 0.339379
vt 0.150889 0.339379
vt 0.148484 0.345734
vt 0.148484 0.373969
vt 0.148484 0.345734
vt 0.148484 0.373969
vt 0.171285 0.345734
vt 0.171285 0.373969
vt 0.171285 0.345734
vt 0.171285 0.373969
vt 0.171285 0.339379
vt 0.171285 0.339379
vt 0.148484 0.339379
vt 0.148484 0.339379
vt 0.150889 0.345734
vt 0.168881 0.345734
vt 0.169780 0.373969
vt 0.149990 0.373969
vt 0.168881 0.345734
vt 0.150889 0.345734
vt 0.149990 0.373969
vt 0.169780 0.373969
vt 0.162029 0.045216
vt 0.169780 0.372307
vt 0.162029 0.020305
vt 0.169780 0.347396
vt 0.142239 0.045216
vt 0.149990 0.372307
vt 0.142239 0.020305
vt 0.149990 0.347396
vt 0.171285 0.347396
vt 0.171285 0.372307
vt 0.171285 0.372307
vt 0.171285 0.347396
vt 0.148484 0.347396
vt 0.148484 0.372307
vt 0.148484 0.372307
vt 0.148484 0.347396
vt 0.149990 0.347396
vt 0.149990 0.372307
vt 0.169780 0.347396
vt 0.169780 0.372307
vt 0.169780 0.372307
vt 0.169780 0.347396
vt 0.149990 0.347396
vt 0.149990 0.372307
vt 0.168881 0.339379
vt 0.168881 0.339379
vt 0.150889 0.339379
vt 0.150889 0.339379
s 1
usemtl City_05.004
f 34/38/1 19/19/1 31/35/1
f 31/35/1 19/19/1 2/2/1
f 8/8/2 15/15/2 6/6/2
f 6/6/2 15/15/2 20/20/2
f 14/14/3 38/42/3 7/7/3
f 7/7/3 38/42/3 28/32/3
f 31/35/4 2/2/4 30/34/4
f 30/34/4 2/2/4 4/4/4
f 17/17/4 14/14/4 42/46/4
f 42/46/4 14/14/4 41/45/4
f 25/29/1 35/39/1 5/5/1
f 5/5/1 35/39/1 17/17/1
f 16/16/2 4/4/2 19/19/2
f 19/19/2 4/4/2 2/2/2
f 1/1/4 32/36/4 3/3/4
f 3/3/4 32/36/4 29/33/4
f 18/18/1 33/37/1 1/1/1
f 1/1/1 33/37/1 32/36/1
f 18/18/1 1/1/1 43/47/1
f 43/47/1 1/1/1 11/11/1
f 16/16/2 19/19/2 15/15/2
f 15/15/2 19/19/2 20/20/2
f 14/14/5 17/17/5 13/13/5
f 13/13/5 17/17/5 18/18/5
f 15/15/3 37/41/3 16/16/3
f 16/16/3 37/41/3 40/44/3
f 24/27/1 22/23/1 23/25/1
f 23/25/1 22/23/1 21/21/1
f 29/33/3 39/43/3 3/3/3
f 3/3/3 39/43/3 13/13/3
f 38/42/3 14/14/3 39/43/3
f 39/43/3 14/14/3 13/13/3
f 33/37/1 18/18/1 35/39/1
f 35/39/1 18/18/1 17/17/1
f 19/19/1 34/38/1 20/20/1
f 20/20/1 34/38/1 36/40/1
f 37/41/3 15/15/3 27/31/3
f 27/31/3 15/15/3 8/8/3
f 27/31/6 8/8/6 26/30/6
f 26/30/6 8/8/6 6/6/6
f 26/30/1 6/6/1 36/40/1
f 36/40/1 6/6/1 20/20/1
f 30/34/3 4/4/3 40/44/3
f 40/44/3 4/4/3 16/16/3
f 34/38/1 31/35/1 33/37/1
f 33/37/1 31/35/1 32/36/1
f 36/40/5 34/38/5 21/22/5
f 21/22/5 34/38/5 23/26/5
f 38/42/3 39/43/3 37/41/3
f 37/41/3 39/43/3 40/44/3
f 30/34/3 40/44/3 29/33/3
f 29/33/3 40/44/3 39/43/3
f 37/41/3 27/31/3 38/42/3
f 38/42/3 27/31/3 28/32/3
f 26/30/1 36/40/1 25/29/1
f 25/29/1 36/40/1 35/39/1
f 27/31/6 26/30/6 28/32/6
f 28/32/6 26/30/6 25/29/6
f 31/35/4 30/34/4 32/36/4
f 32/36/4 30/34/4 29/33/4
f 7/7/6 28/32/6 5/5/6
f 5/5/6 28/32/6 25/29/6
f 33/37/2 35/39/2 24/28/2
f 24/28/2 35/39/2 22/24/2
f 34/38/6 33/37/6 23/26/6
f 23/26/6 33/37/6 24/28/6
f 35/39/4 36/40/4 22/24/4
f 22/24/4 36/40/4 21/22/4
f 12/12/5 44/48/5 11/11/5
f 11/11/5 44/48/5 43/47/5
f 41/45/5 9/9/5 42/46/5
f 42/46/5 9/9/5 10/10/5
f 14/14/3 7/7/3 41/45/3
f 41/45/3 7/7/3 9/9/3
f 3/3/3 13/13/3 12/12/3
f 12/12/3 13/13/3 44/48/3
f 5/5/1 17/17/1 10/10/1
f 10/10/1 17/17/1 42/46/1
f 1/1/4 3/3/4 11/11/4
f 11/11/4 3/3/4 12/12/4
f 7/7/6 5/5/6 9/9/6
f 9/9/6 5/5/6 10/10/6
f 13/13/6 18/18/6 44/48/6
f 44/48/6 18/18/6 43/47/6
f 78/86/7 75/83/7 63/67/7
f 63/67/7 75/83/7 46/50/7
f 52/56/8 50/54/8 59/63/8
f 59/63/8 50/54/8 64/68/8
f 58/62/9 51/55/9 82/90/9
f 82/90/9 51/55/9 72/80/9
f 75/83/4 74/82/4 46/50/4
f 46/50/4 74/82/4 48/52/4
f 61/65/4 86/94/4 58/62/4
f 58/62/4 86/94/4 85/93/4
f 61/65/7 79/87/7 49/53/7
f 49/53/7 79/87/7 69/77/7
f 60/64/8 63/67/8 48/52/8
f 48/52/8 63/67/8 46/50/8
f 45/49/4 47/51/4 76/84/4
f 76/84/4 47/51/4 73/81/4
f 62/66/7 45/49/7 77/85/7
f 77/85/7 45/49/7 76/84/7
f 62/66/7 87/95/7 45/49/7
f 45/49/7 87/95/7 55/59/7
f 60/64/8 59/63/8 63/67/8
f 63/67/8 59/63/8 64/68/8
f 58/62/10 57/61/10 61/65/10
f 61/65/10 57/61/10 62/66/10
f 59/63/9 60/64/9 81/89/9
f 81/89/9 60/64/9 84/92/9
f 68/75/7 67/73/7 66/71/7
f 66/71/7 67/73/7 65/69/7
f 57/61/9 83/91/9 47/51/9
f 47/51/9 83/91/9 73/81/9
f 82/90/9 83/91/9 58/62/9
f 58/62/9 83/91/9 57/61/9
f 77/85/7 79/87/7 62/66/7
f 62/66/7 79/87/7 61/65/7
f 63/67/7 64/68/7 78/86/7
f 78/86/7 64/68/7 80/88/7
f 81/89/9 71/79/9 59/63/9
f 59/63/9 71/79/9 52/56/9
f 71/79/6 70/78/6 52/56/6
f 52/56/6 70/78/6 50/54/6
f 70/78/7 80/88/7 50/54/7
f 50/54/7 80/88/7 64/68/7
f 74/82/9 84/92/9 48/52/9
f 48/52/9 84/92/9 60/64/9
f 78/86/7 77/85/7 75/83/7
f 75/83/7 77/85/7 76/84/7
f 80/88/10 65/70/10 78/86/10
f 78/86/10 65/70/10 67/74/10
f 82/90/9 81/89/9 83/91/9
f 83/91/9 81/89/9 84/92/9
f 74/82/9 73/81/9 84/92/9
f 84/92/9 73/81/9 83/91/9
f 81/89/9 82/90/9 71/79/9
f 71/79/9 82/90/9 72/80/9
f 70/78/7 69/77/7 80/88/7
f 80/88/7 69/77/7 79/87/7
f 71/79/6 72/80/6 70/78/6
f 70/78/6 72/80/6 69/77/6
f 75/83/4 76/84/4 74/82/4
f 74/82/4 76/84/4 73/81/4
f 51/55/6 49/53/6 72/80/6
f 72/80/6 49/53/6 69/77/6
f 77/85/8 68/76/8 79/87/8
f 79/87/8 68/76/8 66/72/8
f 78/86/6 67/74/6 77/85/6
f 77/85/6 67/74/6 68/76/6
f 79/87/4 66/72/4 80/88/4
f 80/88/4 66/72/4 65/70/4
f 56/60/10 55/59/10 88/96/10
f 88/96/10 55/59/10 87/95/10
f 85/93/10 86/94/10 53/57/10
f 53/57/10 86/94/10 54/58/10
f 58/62/9 85/93/9 51/55/9
f 51/55/9 85/93/9 53/57/9
f 47/51/9 56/60/9 57/61/9
f 57/61/9 56/60/9 88/96/9
f 49/53/7 54/58/7 61/65/7
f 61/65/7 54/58/7 86/94/7
f 45/49/4 55/59/4 47/51/4
f 47/51/4 55/59/4 56/60/4
f 51/55/6 53/57/6 49/53/6
f 49/53/6 53/57/6 54/58/6
f 57/61/6 88/96/6 62/66/6
f 62/66/6 88/96/6 87/95/6
