# Wavefront OBJ file
# Exported by Misfit Model 3D 1.3.8
# Mon Nov 02 18:38:40 2020

# 40 Vertices
v 18.993352 4.0 -4.001962
v 20.993352 4.0 -2.001962
v 18.993352 6.0 -4.001962
v 20.993352 6.0 -2.001962
v 20.993352 6.0 1.998038
v 20.993352 4.0 1.998038
v 18.993352 6.0 3.998038
v 18.993352 4.0 3.998038
v -21.006648 4.0 -2.001962
v -19.006648 4.0 -4.001962
v -21.006648 6.0 -2.001962
v -19.006648 6.0 -4.001962
v -21.006648 6.0 1.998038
v -19.006648 6.0 3.998038
v -21.006648 4.0 1.998038
v -19.006648 4.0 3.998038
v 10.993352 -0.0 -2.001962
v 14.993352 -0.0 -2.001962
v 10.993352 2.0 -3.001962
v 14.993352 2.0 -3.001962
v 10.993352 4.0 -2.001962
v 14.993352 4.0 -2.001962
v 14.993352 -0.0 1.998038
v 10.993352 -0.0 1.998038
v 14.993352 2.0 2.998038
v 10.993352 2.0 2.998038
v 14.993352 4.0 1.998038
v 10.993352 4.0 1.998038
v -15.006648 -0.0 -2.001962
v -11.006648 -0.0 -2.001962
v -15.006648 2.0 -3.001962
v -11.006648 2.0 -3.001962
v -15.006648 4.0 -2.001962
v -11.006648 4.0 -2.001962
v -11.006648 -0.0 1.998038
v -15.006648 -0.0 1.998038
v -11.006648 2.0 2.998038
v -15.006648 2.0 2.998038
v -11.006648 4.0 1.998038
v -15.006648 4.0 1.998038

# 192 Texture Coordinates
vt 2096.0 2073.0
vt 2088.0 2065.0
vt 2096.0 2065.0
vt 2096.0 2073.0
vt 2088.0 2073.0
vt 2088.0 2065.0
vt 1936.0 2073.0
vt 1928.0 2065.0
vt 1928.0 2073.0
vt 1936.0 2073.0
vt 1936.0 2065.0
vt 1928.0 2065.0
vt 2256.0 2073.0
vt 2248.0 2065.0
vt 2256.0 2065.0
vt 2256.0 2073.0
vt 2248.0 2073.0
vt 2248.0 2065.0
vt 1928.0 2065.0
vt 1936.0 2073.0
vt 1928.0 2073.0
vt 1928.0 2065.0
vt 1936.0 2065.0
vt 1936.0 2073.0
vt 2248.0 2073.0
vt 2096.0 2065.0
vt 2248.0 2065.0
vt 2248.0 2073.0
vt 2096.0 2073.0
vt 2096.0 2065.0
vt 1912.0 2073.0
vt 1928.0 2065.0
vt 1912.0 2065.0
vt 1912.0 2073.0
vt 1928.0 2073.0
vt 1928.0 2065.0
vt 2096.0 2073.0
vt 2248.0 2065.0
vt 2096.0 2065.0
vt 2096.0 2073.0
vt 2248.0 2073.0
vt 2248.0 2065.0
vt 1936.0 -2095.0
vt 1912.0 -2087.0
vt 1928.0 -2087.0
vt 1936.0 -2095.0
vt 1904.0 -2095.0
vt 1912.0 -2087.0
vt 1936.0 -2095.0
vt 1904.0 -2247.0
vt 1904.0 -2095.0
vt 1936.0 -2095.0
vt 1912.0 -2255.0
vt 1904.0 -2247.0
vt 1936.0 -2095.0
vt 1928.0 -2255.0
vt 1912.0 -2255.0
vt 1936.0 -2095.0
vt 1936.0 -2247.0
vt 1928.0 -2255.0
vt 1936.0 -2247.0
vt 1912.0 -2255.0
vt 1928.0 -2255.0
vt 1936.0 -2247.0
vt 1904.0 -2247.0
vt 1912.0 -2255.0
vt 1936.0 -2247.0
vt 1904.0 -2095.0
vt 1904.0 -2247.0
vt 1936.0 -2247.0
vt 1912.0 -2087.0
vt 1904.0 -2095.0
vt 1936.0 -2247.0
vt 1928.0 -2087.0
vt 1912.0 -2087.0
vt 1936.0 -2247.0
vt 1936.0 -2095.0
vt 1928.0 -2087.0
vt 1928.0 2073.0
vt 1912.0 2065.0
vt 1928.0 2065.0
vt 1928.0 2073.0
vt 1912.0 2073.0
vt 1912.0 2065.0
vt 2128.0 2057.0
vt 2112.0 2049.0
vt 2128.0 2049.0
vt 2128.0 2057.0
vt 2112.0 2057.0
vt 2112.0 2049.0
vt 2128.0 2065.0
vt 2112.0 2057.0
vt 2128.0 2057.0
vt 2128.0 2065.0
vt 2112.0 2065.0
vt 2112.0 2057.0
vt 2112.0 2057.0
vt 2128.0 2049.0
vt 2112.0 2049.0
vt 2112.0 2057.0
vt 2128.0 2057.0
vt 2128.0 2049.0
vt 2112.0 2065.0
vt 2128.0 2057.0
vt 2112.0 2057.0
vt 2112.0 2065.0
vt 2128.0 2065.0
vt 2128.0 2057.0
vt 1928.0 2049.0
vt 1912.0 2065.0
vt 1908.0 2057.0
vt 1928.0 2049.0
vt 1932.0 2057.0
vt 1928.0 2065.0
vt 1928.0 2049.0
vt 1928.0 2065.0
vt 1912.0 2065.0
vt 2232.0 2057.0
vt 2216.0 2049.0
vt 2232.0 2049.0
vt 2232.0 2057.0
vt 2216.0 2057.0
vt 2216.0 2049.0
vt 2232.0 2065.0
vt 2216.0 2057.0
vt 2232.0 2057.0
vt 2232.0 2065.0
vt 2216.0 2065.0
vt 2216.0 2057.0
vt 2216.0 2057.0
vt 2232.0 2049.0
vt 2216.0 2049.0
vt 2216.0 2057.0
vt 2232.0 2057.0
vt 2232.0 2049.0
vt 2216.0 2065.0
vt 2232.0 2057.0
vt 2216.0 2057.0
vt 2216.0 2065.0
vt 2232.0 2065.0
vt 2232.0 2057.0
vt 1928.0 -2127.0
vt 1912.0 -2111.0
vt 1928.0 -2111.0
vt 1928.0 -2127.0
vt 1912.0 -2127.0
vt 1912.0 -2111.0
vt 1932.0 2057.0
vt 1912.0 2065.0
vt 1928.0 2065.0
vt 1932.0 2057.0
vt 1908.0 2057.0
vt 1912.0 2065.0
vt 1932.0 2057.0
vt 1912.0 2049.0
vt 1908.0 2057.0
vt 1932.0 2057.0
vt 1928.0 2049.0
vt 1912.0 2049.0
vt 1928.0 2049.0
vt 1908.0 2057.0
vt 1912.0 2049.0
vt 1928.0 2049.0
vt 1912.0 2065.0
vt 1908.0 2057.0
vt 1928.0 2049.0
vt 1928.0 2065.0
vt 1912.0 2065.0
vt 1928.0 2049.0
vt 1932.0 2057.0
vt 1928.0 2065.0
vt 1928.0 -2231.0
vt 1912.0 -2215.0
vt 1928.0 -2215.0
vt 1928.0 -2231.0
vt 1912.0 -2231.0
vt 1912.0 -2215.0
vt 1932.0 2057.0
vt 1912.0 2065.0
vt 1928.0 2065.0
vt 1932.0 2057.0
vt 1908.0 2057.0
vt 1912.0 2065.0
vt 1932.0 2057.0
vt 1912.0 2049.0
vt 1908.0 2057.0
vt 1932.0 2057.0
vt 1928.0 2049.0
vt 1912.0 2049.0
vt 1928.0 2049.0
vt 1908.0 2057.0
vt 1912.0 2049.0

# 192 Vertex Normals
vn 0.505449 -0.0 -0.862856
vn 0.862856 0.0 -0.505449
vn 0.252725 -0.0 -0.967538
vn 0.505449 -0.0 -0.862856
vn 0.967538 0.0 -0.252725
vn 0.862856 0.0 -0.505449
vn 0.382683 0.0 0.92388
vn 0.92388 0.0 0.382683
vn 0.92388 0.0 0.382683
vn 0.382683 0.0 0.92388
vn 0.382683 0.0 0.92388
vn 0.92388 0.0 0.382683
vn -0.862856 0.0 -0.505449
vn -0.505449 -0.0 -0.862856
vn -0.967538 0.0 -0.252725
vn -0.862856 0.0 -0.505449
vn -0.252725 -0.0 -0.967538
vn -0.505449 -0.0 -0.862856
vn -0.862856 0.0 0.505449
vn -0.505449 0.0 0.862856
vn -0.967538 0.0 0.252725
vn -0.862856 0.0 0.505449
vn -0.252725 0.0 0.967538
vn -0.505449 0.0 0.862856
vn -0.252725 -0.0 -0.967538
vn 0.252725 -0.0 -0.967538
vn -0.505449 -0.0 -0.862856
vn -0.252725 -0.0 -0.967538
vn 0.505449 -0.0 -0.862856
vn 0.252725 -0.0 -0.967538
vn 0.967538 0.0 -0.252725
vn 0.92388 0.0 0.382683
vn 0.862856 0.0 -0.505449
vn 0.967538 0.0 -0.252725
vn 0.92388 0.0 0.382683
vn 0.92388 0.0 0.382683
vn 0.382683 0.0 0.92388
vn -0.252725 0.0 0.967538
vn 0.382683 0.0 0.92388
vn 0.382683 0.0 0.92388
vn -0.505449 0.0 0.862856
vn -0.252725 0.0 0.967538
vn 0.0 -1.0 0.0
vn 0.0 -1.0 0.0
vn 0.0 -1.0 0.0
vn 0.0 -1.0 0.0
vn 0.0 -1.0 0.0
vn 0.0 -1.0 0.0
vn 0.0 -1.0 0.0
vn 0.0 -1.0 0.0
vn 0.0 -1.0 0.0
vn 0.0 -1.0 0.0
vn 0.0 -1.0 0.0
vn 0.0 -1.0 0.0
vn 0.0 -1.0 0.0
vn 0.0 -1.0 0.0
vn 0.0 -1.0 0.0
vn 0.0 -1.0 0.0
vn 0.0 -1.0 0.0
vn 0.0 -1.0 0.0
vn 0.0 1.0 0.0
vn 0.0 1.0 0.0
vn 0.0 1.0 0.0
vn 0.0 1.0 0.0
vn 0.0 1.0 0.0
vn 0.0 1.0 0.0
vn 0.0 1.0 0.0
vn 0.0 1.0 0.0
vn 0.0 1.0 0.0
vn 0.0 1.0 0.0
vn 0.0 1.0 0.0
vn 0.0 1.0 0.0
vn 0.0 1.0 0.0
vn 0.0 1.0 0.0
vn 0.0 1.0 0.0
vn 0.0 1.0 0.0
vn 0.0 1.0 0.0
vn 0.0 1.0 0.0
vn -0.967538 0.0 0.252725
vn -0.967538 0.0 -0.252725
vn -0.862856 0.0 0.505449
vn -0.967538 0.0 0.252725
vn -0.862856 0.0 -0.505449
vn -0.967538 0.0 -0.252725
vn 0.0 -0.164399 -0.986394
vn 0.0 -0.850651 -0.525731
vn 0.0 -0.850651 -0.525731
vn 0.0 -0.164399 -0.986394
vn 0.0 0.164399 -0.986394
vn 0.0 -0.850651 -0.525731
vn 0.0 0.447214 -0.894427
vn 0.0 0.164399 -0.986394
vn 0.0 -0.164399 -0.986394
vn 0.0 0.447214 -0.894427
vn 0.0 0.447214 -0.894427
vn 0.0 0.164399 -0.986394
vn 0.0 -0.164399 0.986394
vn 0.0 -0.850651 0.525731
vn 0.0 -0.850651 0.525731
vn 0.0 -0.164399 0.986394
vn 0.0 0.164399 0.986394
vn 0.0 -0.850651 0.525731
vn 0.0 0.447214 0.894427
vn 0.0 0.164399 0.986394
vn 0.0 -0.164399 0.986394
vn 0.0 0.447214 0.894427
vn 0.0 0.447214 0.894427
vn 0.0 0.164399 0.986394
vn -1.0 0.0 -0.0
vn -1.0 0.0 -0.0
vn -1.0 0.0 -0.0
vn -1.0 0.0 -0.0
vn -1.0 0.0 0.0
vn -1.0 0.0 -0.0
vn -1.0 0.0 -0.0
vn -1.0 0.0 -0.0
vn -1.0 0.0 -0.0
vn 0.0 -0.164399 -0.986394
vn 0.0 -0.850651 -0.525731
vn 0.0 -0.850651 -0.525731
vn 0.0 -0.164399 -0.986394
vn 0.0 0.164399 -0.986394
vn 0.0 -0.850651 -0.525731
vn 0.0 0.447214 -0.894427
vn 0.0 0.164399 -0.986394
vn 0.0 -0.164399 -0.986394
vn 0.0 0.447214 -0.894427
vn 0.0 0.447214 -0.894427
vn 0.0 0.164399 -0.986394
vn 0.0 -0.164399 0.986394
vn 0.0 -0.850651 0.525731
vn 0.0 -0.850651 0.525731
vn 0.0 -0.164399 0.986394
vn 0.0 0.164399 0.986394
vn 0.0 -0.850651 0.525731
vn 0.0 0.447214 0.894427
vn 0.0 0.164399 0.986394
vn 0.0 -0.164399 0.986394
vn 0.0 0.447214 0.894427
vn 0.0 0.447214 0.894427
vn 0.0 0.164399 0.986394
vn 0.0 -0.850651 0.525731
vn 0.0 -0.850651 -0.525731
vn 0.0 -0.850651 0.525731
vn 0.0 -0.850651 0.525731
vn 0.0 -0.850651 -0.525731
vn 0.0 -0.850651 -0.525731
vn 1.0 0.0 0.0
vn 1.0 0.0 -0.0
vn 1.0 0.0 -0.0
vn 1.0 0.0 0.0
vn 1.0 0.0 0.0
vn 1.0 0.0 -0.0
vn 1.0 0.0 0.0
vn 1.0 0.0 0.0
vn 1.0 0.0 0.0
vn 1.0 0.0 0.0
vn 1.0 0.0 0.0
vn 1.0 0.0 0.0
vn -1.0 0.0 0.0
vn -1.0 0.0 0.0
vn -1.0 0.0 -0.0
vn -1.0 0.0 0.0
vn -1.0 0.0 0.0
vn -1.0 0.0 0.0
vn -1.0 0.0 0.0
vn -1.0 0.0 0.0
vn -1.0 0.0 0.0
vn -1.0 0.0 0.0
vn -1.0 0.0 -0.0
vn -1.0 0.0 0.0
vn 0.0 -0.850651 0.525731
vn 0.0 -0.850651 -0.525731
vn 0.0 -0.850651 0.525731
vn 0.0 -0.850651 0.525731
vn 0.0 -0.850651 -0.525731
vn 0.0 -0.850651 -0.525731
vn 1.0 0.0 -0.0
vn 1.0 0.0 0.0
vn 1.0 0.0 0.0
vn 1.0 0.0 -0.0
vn 1.0 0.0 -0.0
vn 1.0 0.0 0.0
vn 1.0 0.0 -0.0
vn 1.0 0.0 -0.0
vn 1.0 0.0 -0.0
vn 1.0 0.0 -0.0
vn 1.0 0.0 -0.0
vn 1.0 0.0 -0.0
vn -1.0 0.0 -0.0
vn -1.0 0.0 -0.0
vn -1.0 0.0 0.0

# slot7, 28 grouped triangles

o slot7
g slot7

f 3/1/1 2/2/2 1/3/3
f 3/4/4 4/5/5 2/6/6
f 7/7/7 6/8/8 5/9/9
f 7/10/10 8/11/11 6/12/12
f 11/13/13 10/14/14 9/15/15
f 11/16/16 12/17/17 10/18/18
f 15/19/19 14/20/20 13/21/21
f 15/22/22 16/23/23 14/24/24
f 12/25/25 1/26/26 10/27/27
f 12/28/28 3/29/29 1/30/30
f 4/31/31 6/32/32 2/33/33
f 4/34/34 5/35/35 6/36/36
f 7/37/37 16/38/38 8/39/39
f 7/40/40 14/41/41 16/42/42
f 8/43/43 2/44/44 6/45/45
f 8/46/46 1/47/47 2/48/48
f 8/49/49 10/50/50 1/51/51
f 8/52/52 9/53/53 10/54/54
f 8/55/55 15/56/56 9/57/57
f 8/58/58 16/59/59 15/60/60
f 14/61/61 11/62/62 13/63/63
f 14/64/64 12/65/65 11/66/66
f 14/67/67 3/68/68 12/69/69
f 14/70/70 4/71/71 3/72/72
f 14/73/73 5/74/74 4/75/75
f 14/76/76 7/77/77 5/78/78
f 13/79/79 9/80/80 15/81/81
f 13/82/82 11/83/83 9/84/84
# slot10, 36 grouped triangles

o slot10
g slot10

f 19/85/85 18/86/86 17/87/87
f 19/88/88 20/89/89 18/90/90
f 21/91/91 20/92/92 19/93/93
f 21/94/94 22/95/95 20/96/96
f 25/97/97 24/98/98 23/99/99
f 25/100/100 26/101/101 24/102/102
f 27/103/103 26/104/104 25/105/105
f 27/106/106 28/107/107 26/108/108
f 36/109/109 33/110/110 31/111/111
f 36/112/112 38/113/113 40/114/114
f 36/115/115 40/116/116 33/117/117
f 31/118/118 30/119/119 29/120/120
f 31/121/121 32/122/122 30/123/123
f 33/124/124 32/125/125 31/126/126
f 33/127/127 34/128/128 32/129/129
f 37/130/130 36/131/131 35/132/132
f 37/133/133 38/134/134 36/135/135
f 39/136/136 38/137/137 37/138/138
f 39/139/139 40/140/140 38/141/141
f 24/142/142 18/143/143 23/144/144
f 24/145/145 17/146/146 18/147/147
f 25/148/148 22/149/149 27/150/150
f 25/151/151 20/152/152 22/153/153
f 25/154/154 18/155/155 20/156/156
f 25/157/157 23/158/158 18/159/159
f 24/160/160 19/161/161 17/162/162
f 24/163/163 21/164/164 19/165/165
f 24/166/166 28/167/167 21/168/168
f 24/169/169 26/170/170 28/171/171
f 36/172/172 30/173/173 35/174/174
f 36/175/175 29/176/176 30/177/177
f 37/178/178 34/179/179 39/180/180
f 37/181/181 32/182/182 34/183/183
f 37/184/184 30/185/185 32/186/186
f 37/187/187 35/188/188 30/189/189
f 36/190/190 31/191/191 29/192/192
