# Wavefront OBJ file
# Exported by Misfit Model 3D 1.3.8
# Tue Jan 24 17:20:35 2023

# 53 Vertices
v 0.009374 0.259638 -0.006058
v 0.024977 0.261311 -0.019632
v 0.013736 0.26818 0.010057
v 0.006464 0.266815 -0.021168
v 0.029471 0.262154 -0.000333
v -0.000483 0.27106 -0.00282
v 0.016524 0.271416 -0.007414
v 0.012659 0.269056 0.025485
v 0.043049 0.257474 0.005896
v -0.002081 0.266706 -0.034206
v -0.01526 0.274752 0.000543
v 0.034087 0.255978 -0.030976
v -0.005841 0.276887 -0.001931
v 0.003818 0.27099 -0.027398
v 0.036892 0.264224 0.001991
v 0.01462 0.272712 0.016348
v 0.030324 0.263128 -0.02503
v 0.05327 0.25945 -0.044215
v 0.06612 0.261594 0.008648
v 0.052334 0.269232 -0.040867
v 0.063602 0.271112 0.005485
v -0.000492 0.284285 -0.051419
v 0.044976 0.270799 -0.047359
v -0.005943 0.276397 -0.055338
v 0.045911 0.261017 -0.050707
v -0.024764 0.297234 -0.002911
v -0.008196 0.287119 -0.046596
v -0.032542 0.290767 -0.000693
v -0.013647 0.279231 -0.050514
v 0.012697 0.290488 0.037618
v -0.022402 0.297648 0.006263
v 0.00985 0.283015 0.04424
v -0.03018 0.291181 0.00848
v 0.0604 0.27307 0.013915
v 0.022195 0.287631 0.038541
v 0.062918 0.263552 0.017078
v 0.019347 0.280157 0.045164
v 0.092049 0.249248 -0.084022
v 0.119028 0.25375 0.026964
v -0.030314 0.284495 -0.105587
v 0.078553 0.252205 -0.095863
v -0.083652 0.313606 0.007432
v -0.043981 0.289387 -0.097166
v 0.004667 0.297262 0.09858
v -0.079374 0.314407 0.023503
v 0.113549 0.257105 0.041376
v 0.022073 0.291968 0.100342
v 0.000915 -0.001838 -0.013083
v -0.00864 -0.001838 0.003467
v 0.010471 -0.001838 0.003467
v 0.007121 0.100828 -0.000912
v 0.000338 0.100828 -0.012661
v -0.006446 0.100828 -0.000912

# 297 Texture Coordinates
vt 0.326732 0.797977
vt 0.326732 0.797977
vt 0.326999 0.797971
vt 0.175361 0.857397
vt 0.175627 0.85739
vt 0.175627 0.85739
vt 0.175361 0.857397
vt 0.175627 0.85739
vt 0.175361 0.857397
vt 0.326999 0.797971
vt 0.326999 0.797971
vt 0.326897 0.797974
vt 0.175525 0.857393
vt 0.175196 0.857401
vt 0.175196 0.857401
vt 0.175525 0.857393
vt 0.175196 0.857401
vt 0.175525 0.857393
vt 0.326568 0.797982
vt 0.326568 0.797982
vt 0.326466 0.797984
vt 0.394136 0.829207
vt 0.394466 0.829199
vt 0.394136 0.829207
vt 0.394466 0.829199
vt 0.394568 0.829196
vt 0.394466 0.829199
vt 0.394568 0.829196
vt 0.394301 0.829203
vt 0.394568 0.829196
vt 0.394301 0.829203
vt 0.394035 0.829209
vt 0.394301 0.829203
vt 0.394035 0.829209
vt 0.394136 0.829207
vt 0.394035 0.829209
vt 0.175525 0.857393
vt 0.175196 0.857401
vt 0.175196 0.857401
vt 0.175525 0.857393
vt 0.175196 0.857401
vt 0.175525 0.857393
vt 0.175196 0.857401
vt 0.175094 0.857403
vt 0.175094 0.857403
vt 0.175196 0.857401
vt 0.175094 0.857403
vt 0.175196 0.857401
vt 0.175361 0.857397
vt 0.175361 0.857397
vt 0.175361 0.857397
vt 0.175361 0.857397
vt 0.175361 0.857397
vt 0.175361 0.857397
vt 0.175361 0.857397
vt 0.175094 0.857403
vt 0.175094 0.857403
vt 0.175361 0.857397
vt 0.175094 0.857403
vt 0.175361 0.857397
vt 0.175627 0.85739
vt 0.175525 0.857393
vt 0.175525 0.857393
vt 0.175627 0.85739
vt 0.175525 0.857393
vt 0.175627 0.85739
vt 0.326897 0.797974
vt 0.326897 0.797974
vt 0.326568 0.797982
vt 0.175196 0.857401
vt 0.175094 0.857403
vt 0.175094 0.857403
vt 0.175196 0.857401
vt 0.175094 0.857403
vt 0.175196 0.857401
vt 0.326466 0.797984
vt 0.326466 0.797984
vt 0.326732 0.797977
vt 0.175094 0.857403
vt 0.175361 0.857397
vt 0.175361 0.857397
vt 0.175094 0.857403
vt 0.175361 0.857397
vt 0.175094 0.857403
vt 0.175627 0.85739
vt 0.175525 0.857393
vt 0.175525 0.857393
vt 0.175627 0.85739
vt 0.175525 0.857393
vt 0.175627 0.85739
vt 0.175627 0.85739
vt 0.175361 0.857397
vt 0.175361 0.857397
vt 0.175627 0.85739
vt 0.175361 0.857397
vt 0.175627 0.85739
vt 0.175627 0.85739
vt 0.175627 0.85739
vt 0.175627 0.85739
vt 0.175627 0.85739
vt 0.175627 0.85739
vt 0.175627 0.85739
vt 0.175525 0.857393
vt 0.175627 0.85739
vt 0.175627 0.85739
vt 0.175525 0.857393
vt 0.175627 0.85739
vt 0.175525 0.857393
vt 0.175525 0.857393
vt 0.175525 0.857393
vt 0.175525 0.857393
vt 0.175525 0.857393
vt 0.175525 0.857393
vt 0.175525 0.857393
vt 0.175094 0.857403
vt 0.175361 0.857397
vt 0.175361 0.857397
vt 0.175094 0.857403
vt 0.175361 0.857397
vt 0.175094 0.857403
vt 0.175361 0.857397
vt 0.175627 0.85739
vt 0.175627 0.85739
vt 0.175361 0.857397
vt 0.175627 0.85739
vt 0.175361 0.857397
vt 0.175627 0.85739
vt 0.175627 0.85739
vt 0.175627 0.85739
vt 0.175627 0.85739
vt 0.175627 0.85739
vt 0.175627 0.85739
vt 0.175627 0.85739
vt 0.175361 0.857397
vt 0.175361 0.857397
vt 0.175627 0.85739
vt 0.175361 0.857397
vt 0.175627 0.85739
vt 0.175627 0.85739
vt 0.175525 0.857393
vt 0.175525 0.857393
vt 0.175627 0.85739
vt 0.175525 0.857393
vt 0.175627 0.85739
vt 0.175361 0.857397
vt 0.175361 0.857397
vt 0.175361 0.857397
vt 0.175361 0.857397
vt 0.175361 0.857397
vt 0.175361 0.857397
vt 0.175094 0.857403
vt 0.175361 0.857397
vt 0.175361 0.857397
vt 0.175094 0.857403
vt 0.175361 0.857397
vt 0.175094 0.857403
vt 0.175094 0.857403
vt 0.175094 0.857403
vt 0.175094 0.857403
vt 0.175094 0.857403
vt 0.175094 0.857403
vt 0.175094 0.857403
vt 0.175361 0.857397
vt 0.175627 0.85739
vt 0.175627 0.85739
vt 0.175361 0.857397
vt 0.175627 0.85739
vt 0.175361 0.857397
vt 0.175094 0.857403
vt 0.175196 0.857401
vt 0.175196 0.857401
vt 0.175094 0.857403
vt 0.175196 0.857401
vt 0.175094 0.857403
vt 0.175196 0.857401
vt 0.175196 0.857401
vt 0.175196 0.857401
vt 0.175196 0.857401
vt 0.175196 0.857401
vt 0.175196 0.857401
vt 0.175094 0.857403
vt 0.175094 0.857403
vt 0.175094 0.857403
vt 0.175094 0.857403
vt 0.175094 0.857403
vt 0.175094 0.857403
vt 0.175525 0.857393
vt 0.175627 0.85739
vt 0.175627 0.85739
vt 0.175525 0.857393
vt 0.175627 0.85739
vt 0.175525 0.857393
vt 0.175196 0.857401
vt 0.175196 0.857401
vt 0.175196 0.857401
vt 0.175196 0.857401
vt 0.175196 0.857401
vt 0.175196 0.857401
vt 0.175196 0.857401
vt 0.175525 0.857393
vt 0.175525 0.857393
vt 0.175196 0.857401
vt 0.175525 0.857393
vt 0.175196 0.857401
vt 0.175525 0.857393
vt 0.175525 0.857393
vt 0.175525 0.857393
vt 0.175525 0.857393
vt 0.175525 0.857393
vt 0.175525 0.857393
vt 0.175196 0.857401
vt 0.175094 0.857403
vt 0.175094 0.857403
vt 0.175196 0.857401
vt 0.175094 0.857403
vt 0.175196 0.857401
vt 0.175525 0.857393
vt 0.175525 0.857393
vt 0.175525 0.857393
vt 0.175361 0.857397
vt 0.175094 0.857403
vt 0.175094 0.857403
vt 0.175361 0.857397
vt 0.175094 0.857403
vt 0.175361 0.857397
vt 0.175525 0.857393
vt 0.175196 0.857401
vt 0.175196 0.857401
vt 0.175525 0.857393
vt 0.175196 0.857401
vt 0.175525 0.857393
vt 0.175361 0.857397
vt 0.175361 0.857397
vt 0.175361 0.857397
vt 0.175094 0.857403
vt 0.175196 0.857401
vt 0.175196 0.857401
vt 0.175094 0.857403
vt 0.175196 0.857401
vt 0.175094 0.857403
vt 0.175627 0.85739
vt 0.175627 0.85739
vt 0.175627 0.85739
vt 0.175094 0.857403
vt 0.175094 0.857403
vt 0.175094 0.857403
vt 0.175196 0.857401
vt 0.175525 0.857393
vt 0.175525 0.857393
vt 0.175196 0.857401
vt 0.175525 0.857393
vt 0.175196 0.857401
vt 0.175627 0.85739
vt 0.175627 0.85739
vt 0.175627 0.85739
vt 0.175196 0.857401
vt 0.175196 0.857401
vt 0.175196 0.857401
vt 0.175361 0.857397
vt 0.175361 0.857397
vt 0.175361 0.857397
vt 0.175525 0.857393
vt 0.175525 0.857393
vt 0.175525 0.857393
vt 0.175094 0.857403
vt 0.175094 0.857403
vt 0.175094 0.857403
vt 0.175196 0.857401
vt 0.175196 0.857401
vt 0.175196 0.857401
vt 0.330862 0.801901
vt 0.330862 0.801901
vt 0.330862 0.801901
vt 0.330862 0.801901
vt 0.330862 0.801901
vt 0.330862 0.801901
vt 0.330862 0.801901
vt 0.330862 0.801901
vt 0.330862 0.801901
vt 0.330862 0.801901
vt 0.330862 0.801901
vt 0.330862 0.801901
vt 0.330862 0.801901
vt 0.330862 0.801901
vt 0.330862 0.801901
vt 0.330862 0.801901
vt 0.330862 0.801901
vt 0.330862 0.801901
vt 0.330862 0.801901
vt 0.330862 0.801901
vt 0.330862 0.801901
vt 0.330862 0.801901
vt 0.330862 0.801901
vt 0.330862 0.801901
vt 0.330862 0.801901
vt 0.330862 0.801901
vt 0.330862 0.801901

# 297 Vertex Normals
vn -0.306332 -0.945689 0.108778
vn -0.490046 -0.860636 -0.138422
vn -0.133838 -0.976785 -0.167269
vn 0.407433 0.827236 0.386884
vn -0.125815 0.973158 0.192702
vn -0.02806 0.964177 0.263771
vn 0.407433 0.827236 0.386884
vn -0.02806 0.964177 0.263771
vn 0.502224 0.808688 0.30626
vn -0.306332 -0.945689 0.108778
vn -0.133838 -0.976785 -0.167269
vn 0.018164 -0.984419 0.174899
vn -0.138616 0.90924 -0.392515
vn 0.39316 0.722058 -0.56926
vn 0.279974 0.775383 -0.566035
vn -0.138616 0.90924 -0.392515
vn 0.279974 0.775383 -0.566035
vn -0.165863 0.945739 -0.279405
vn -0.306332 -0.945689 0.108778
vn -0.242627 -0.874608 0.419754
vn -0.562178 -0.794927 0.228137
vn 0.26138 0.940767 0.21596
vn 0.571856 0.819914 0.026863
vn 0.291599 0.950259 -0.109443
vn 0.571856 0.819914 0.026863
vn 0.474099 0.811018 -0.342754
vn 0.291599 0.950259 -0.109443
vn 0.474099 0.811018 -0.342754
vn 0.100943 0.918949 -0.38124
vn 0.291599 0.950259 -0.109443
vn 0.100943 0.918949 -0.38124
vn -0.030606 0.998887 -0.035898
vn 0.291599 0.950259 -0.109443
vn -0.030606 0.998887 -0.035898
vn 0.26138 0.940767 0.21596
vn 0.291599 0.950259 -0.109443
vn -0.165863 0.945739 -0.279405
vn 0.279974 0.775383 -0.566035
vn 0.085831 0.910261 -0.405042
vn -0.165863 0.945739 -0.279405
vn 0.085831 0.910261 -0.405042
vn 0.208955 0.948813 -0.236837
vn 0.279974 0.775383 -0.566035
vn 0.695531 0.688336 -0.205984
vn 0.49061 0.789437 -0.368904
vn 0.279974 0.775383 -0.566035
vn 0.49061 0.789437 -0.368904
vn 0.381644 0.89717 -0.222338
vn -0.819412 0.437132 0.370783
vn -0.793453 0.46092 0.397473
vn -0.821859 0.406355 0.399278
vn -0.819412 0.437132 0.370783
vn -0.821859 0.406355 0.399278
vn -0.834923 0.378433 0.399614
vn -0.490046 -0.860636 -0.138422
vn -0.562178 -0.794927 0.228137
vn -0.590908 -0.805866 -0.037511
vn -0.490046 -0.860636 -0.138422
vn -0.590908 -0.805866 -0.037511
vn -0.497999 -0.867096 0.011902
vn -0.02806 0.964177 0.263771
vn -0.165863 0.945739 -0.279405
vn -0.057711 0.997983 -0.026451
vn -0.02806 0.964177 0.263771
vn -0.057711 0.997983 -0.026451
vn 0.148035 0.986059 -0.075981
vn -0.306332 -0.945689 0.108778
vn 0.018164 -0.984419 0.174899
vn -0.242627 -0.874608 0.419754
vn 0.39316 0.722058 -0.56926
vn 0.726428 0.681243 -0.090612
vn 0.695531 0.688336 -0.205984
vn 0.39316 0.722058 -0.56926
vn 0.695531 0.688336 -0.205984
vn 0.279974 0.775383 -0.566035
vn -0.306332 -0.945689 0.108778
vn -0.562178 -0.794927 0.228137
vn -0.490046 -0.860636 -0.138422
vn 0.726428 0.681243 -0.090612
vn 0.407433 0.827236 0.386884
vn 0.502224 0.808688 0.30626
vn 0.726428 0.681243 -0.090612
vn 0.502224 0.808688 0.30626
vn 0.695531 0.688336 -0.205984
vn -0.125815 0.973158 0.192702
vn -0.138616 0.90924 -0.392515
vn -0.165863 0.945739 -0.279405
vn -0.125815 0.973158 0.192702
vn -0.165863 0.945739 -0.279405
vn -0.02806 0.964177 0.263771
vn -0.270435 -0.95297 -0.136795
vn -0.253805 -0.932769 -0.255978
vn -0.28289 -0.958996 -0.017347
vn -0.270435 -0.95297 -0.136795
vn -0.28289 -0.958996 -0.017347
vn -0.282889 -0.958996 -0.017348
vn -0.596413 0.25249 -0.761932
vn -0.610642 0.291079 -0.736471
vn -0.62597 0.227924 -0.745796
vn -0.596413 0.25249 -0.761932
vn -0.62597 0.227924 -0.745796
vn -0.632636 0.195909 -0.749261
vn 0.018164 -0.984419 0.174899
vn -0.133838 -0.976785 -0.167269
vn 0.060338 -0.997844 0.025809
vn 0.018164 -0.984419 0.174899
vn 0.060338 -0.997844 0.025809
vn -0.058074 -0.996821 0.054547
vn -0.183474 0.316616 0.93064
vn -0.174753 0.368758 0.912951
vn -0.218499 0.289224 0.931991
vn -0.183474 0.316616 0.93064
vn -0.218499 0.289224 0.931991
vn -0.239696 0.248472 0.938514
vn 0.422136 0.905181 -0.049489
vn 0.589168 0.807183 0.036551
vn 0.244364 0.960954 -0.129824
vn 0.422136 0.905181 -0.049489
vn 0.244364 0.960954 -0.129824
vn 0.244362 0.960954 -0.129823
vn 0.502224 0.808688 0.30626
vn -0.02806 0.964177 0.263771
vn 0.254304 0.933502 0.25279
vn 0.502224 0.808688 0.30626
vn 0.254304 0.933502 0.25279
vn 0.280481 0.958855 0.043891
vn 0.852743 -0.039104 0.520865
vn 0.855378 0.019715 0.517629
vn 0.833968 -0.069168 0.547461
vn 0.852743 -0.039104 0.520865
vn 0.833968 -0.069168 0.547461
vn 0.820354 -0.113423 0.560495
vn -0.133838 -0.976785 -0.167269
vn -0.490046 -0.860636 -0.138422
vn -0.253805 -0.932769 -0.255978
vn -0.133838 -0.976785 -0.167269
vn -0.253805 -0.932769 -0.255978
vn -0.270435 -0.95297 -0.136795
vn 0.148035 0.986059 -0.075981
vn -0.057711 0.997983 -0.026451
vn 0.338887 0.933114 -0.120229
vn 0.148035 0.986059 -0.075981
vn 0.338887 0.933114 -0.120229
vn 0.338886 0.933114 -0.120228
vn 0.764133 -0.144193 -0.628736
vn 0.779506 -0.08773 -0.620221
vn 0.77185 -0.183196 -0.608841
vn 0.764133 -0.144193 -0.628736
vn 0.77185 -0.183196 -0.608841
vn 0.765322 -0.230348 -0.601017
vn 0.695531 0.688336 -0.205984
vn 0.502224 0.808688 0.30626
vn 0.589168 0.807183 0.036551
vn 0.695531 0.688336 -0.205984
vn 0.589168 0.807183 0.036551
vn 0.422136 0.905181 -0.049489
vn 0.155928 0.214065 0.964294
vn 0.198098 0.230124 0.952786
vn 0.170293 0.175087 0.969714
vn 0.155928 0.214065 0.964294
vn 0.170293 0.175087 0.969714
vn 0.156099 0.147239 0.976706
vn 0.280481 0.958855 0.043891
vn 0.254304 0.933502 0.25279
vn 0.293731 0.94273 -0.158059
vn 0.280481 0.958855 0.043891
vn 0.293731 0.94273 -0.158059
vn 0.293732 0.94273 -0.158058
vn -0.562178 -0.794927 0.228137
vn -0.242627 -0.874608 0.419754
vn -0.492134 -0.787475 0.371062
vn -0.562178 -0.794927 0.228137
vn -0.492134 -0.787475 0.371062
vn -0.432088 -0.854417 0.288568
vn 0.970022 -0.121022 0.210738
vn 0.980336 -0.098531 0.170976
vn 0.968673 -0.158038 0.191564
vn 0.970022 -0.121022 0.210738
vn 0.968673 -0.158038 0.191564
vn 0.961335 -0.187612 0.201585
vn -0.31744 0.142333 -0.937536
vn -0.289521 0.190263 -0.938071
vn -0.30741 0.100028 -0.946305
vn -0.31744 0.142333 -0.937536
vn -0.30741 0.100028 -0.946305
vn -0.315381 0.054532 -0.947397
vn -0.058074 -0.996821 0.054547
vn 0.060338 -0.997844 0.025809
vn -0.173912 -0.981335 0.082078
vn -0.058074 -0.996821 0.054547
vn -0.173912 -0.981335 0.082078
vn -0.173905 -0.981336 0.08208
vn -0.894137 0.4467 0.031264
vn -0.866812 0.498454 0.013411
vn -0.911721 0.410625 0.01236
vn -0.894137 0.4467 0.031264
vn -0.911721 0.410625 0.01236
vn -0.930871 0.365158 0.011789
vn -0.242627 -0.874608 0.419754
vn 0.018164 -0.984419 0.174899
vn -0.084199 -0.909495 0.407099
vn -0.242627 -0.874608 0.419754
vn -0.084199 -0.909495 0.407099
vn -0.155757 -0.937094 0.312403
vn 0.496408 -0.109487 -0.861157
vn 0.473573 -0.07568 -0.877497
vn 0.466747 -0.136606 -0.873777
vn 0.496408 -0.109487 -0.861157
vn 0.466747 -0.136606 -0.873777
vn 0.462664 -0.166942 -0.870673
vn 0.381644 0.89717 -0.222338
vn 0.49061 0.789437 -0.368904
vn 0.261186 0.962557 -0.072563
vn 0.381644 0.89717 -0.222338
vn 0.261186 0.962557 -0.072563
vn 0.261185 0.962558 -0.072554
vn -0.239696 0.248472 0.938514
vn -0.218499 0.289224 0.931991
vn -0.287147 0.232812 0.929164
vn -0.497999 -0.867096 0.011902
vn -0.590908 -0.805866 -0.037511
vn -0.399215 -0.914864 0.060425
vn -0.497999 -0.867096 0.011902
vn -0.399215 -0.914864 0.060425
vn -0.39922 -0.914862 0.060418
vn 0.208955 0.948813 -0.236837
vn 0.085831 0.910261 -0.405042
vn 0.318078 0.945782 -0.065748
vn 0.208955 0.948813 -0.236837
vn 0.318078 0.945782 -0.065748
vn 0.318069 0.945785 -0.065753
vn -0.834923 0.378433 0.399614
vn -0.821859 0.406355 0.399278
vn -0.822401 0.34271 0.454099
vn -0.432088 -0.854417 0.288568
vn -0.492134 -0.787475 0.371062
vn -0.366636 -0.90793 0.203078
vn -0.432088 -0.854417 0.288568
vn -0.366636 -0.90793 0.203078
vn -0.366643 -0.907927 0.20308
vn -0.632636 0.195909 -0.749261
vn -0.62597 0.227924 -0.745796
vn -0.681755 0.177662 -0.709681
vn 0.156099 0.147239 0.976706
vn 0.170293 0.175087 0.969714
vn 0.198097 0.096294 0.975441
vn -0.155757 -0.937094 0.312403
vn -0.084199 -0.909495 0.407099
vn -0.224011 -0.950677 0.214551
vn -0.155757 -0.937094 0.312403
vn -0.224011 -0.950677 0.214551
vn -0.22401 -0.950675 0.214562
vn 0.820354 -0.113423 0.560495
vn 0.833968 -0.069168 0.547461
vn 0.791579 -0.128785 0.597342
vn 0.961335 -0.187612 0.201585
vn 0.968673 -0.158038 0.191564
vn 0.960926 -0.231164 0.152261
vn 0.765322 -0.230348 -0.601017
vn 0.77185 -0.183196 -0.608841
vn 0.782688 -0.259983 -0.565516
vn 0.462664 -0.166942 -0.870673
vn 0.466747 -0.136606 -0.873777
vn 0.404998 -0.190064 -0.894345
vn -0.315381 0.054532 -0.947397
vn -0.30741 0.100028 -0.946305
vn -0.285568 0.014958 -0.958242
vn -0.930871 0.365158 0.011789
vn -0.911721 0.410625 0.01236
vn -0.94145 0.33619 -0.025451
vn 0.866015 -0.004874 -0.499995
vn 0.865984 -0.010773 -0.499955
vn 0.866 0.006928 -0.499997
vn 0.866015 -0.004874 -0.499995
vn 0.866 0.006928 -0.499997
vn 0.865985 0.006922 -0.500022
vn -0.0 0.039205 0.999231
vn -0.0 0.0375 0.999297
vn -0.0 0.042614 0.999092
vn -0.0 0.039205 0.999231
vn -0.0 0.042614 0.999092
vn -0.0 0.042614 0.999092
vn -0.865812 0.021434 -0.499909
vn -0.865515 0.033563 -0.499758
vn -0.866012 -0.002815 -0.500015
vn -0.865812 0.021434 -0.499909
vn -0.866012 -0.002815 -0.500015
vn -0.866025 -0.002819 -0.499992
vn -0.863885 0.069894 -0.498816
vn -0.865515 0.033563 -0.499758
vn -0.865812 0.021434 -0.499909
vn -0.0 0.032384 0.999476
vn -0.0 0.0375 0.999297
vn -0.0 0.039205 0.999231
vn 0.865683 -0.028475 -0.499781
vn 0.865984 -0.010773 -0.499955
vn 0.866015 -0.004874 -0.499995

# 99 Ungrouped triangles

o ungrouped
g ungrouped

f 1/1/1 10/2/2 12/3/3
f 4/4/4 2/5/5 17/6/6
f 4/7/7 17/8/8 14/9/9
f 1/10/10 12/11/11 9/12/12
f 5/13/13 3/14/14 16/15/15
f 5/16/16 16/17/17 15/18/18
f 1/19/19 8/20/20 11/21/21
f 3/22/22 5/23/23 7/24/24
f 5/25/25 2/26/26 7/27/27
f 2/28/28 4/29/29 7/30/30
f 4/31/31 6/32/32 7/33/33
f 6/34/34 3/35/35 7/36/36
f 15/37/37 16/38/38 35/39/39
f 15/40/40 35/41/41 34/42/42
f 16/43/43 13/44/44 31/45/45
f 16/46/46 31/47/47 30/48/48
f 10/49/49 14/50/50 22/51/51
f 10/52/52 22/53/53 24/54/54
f 10/55/55 11/56/56 28/57/57
f 10/58/58 28/59/59 29/60/60
f 17/61/61 15/62/62 21/63/63
f 17/64/64 21/65/65 20/66/66
f 1/67/67 9/68/68 8/69/69
f 3/70/70 6/71/71 13/72/72
f 3/73/73 13/74/74 16/75/75
f 1/76/76 11/77/77 10/78/78
f 6/79/79 4/80/80 14/81/81
f 6/82/82 14/83/83 13/84/84
f 2/85/85 5/86/86 15/87/87
f 2/88/88 15/89/89 17/90/90
f 25/91/91 24/92/92 40/93/93
f 25/94/94 40/95/95 41/96/96
f 12/97/97 17/98/98 20/99/99
f 12/100/100 20/101/101 18/102/102
f 9/103/103 12/104/104 18/105/105
f 9/106/106 18/107/107 19/108/108
f 15/109/109 9/110/110 19/111/111
f 15/112/112 19/113/113 21/114/114
f 26/115/115 27/116/116 43/117/117
f 26/118/118 43/119/119 42/120/120
f 14/121/121 17/122/122 23/123/123
f 14/124/124 23/125/125 22/126/126
f 17/127/127 12/128/128 25/129/129
f 17/130/130 25/131/131 23/132/132
f 12/133/133 10/134/134 24/135/135
f 12/136/136 24/137/137 25/138/138
f 20/139/139 21/140/140 39/141/141
f 20/142/142 39/143/143 38/144/144
f 14/145/145 10/146/146 29/147/147
f 14/148/148 29/149/149 27/150/150
f 13/151/151 14/152/152 27/153/153
f 13/154/154 27/155/155 26/156/156
f 11/157/157 13/158/158 26/159/159
f 11/160/160 26/161/161 28/162/162
f 22/163/163 23/164/164 41/165/165
f 22/166/166 41/167/167 40/168/168
f 11/169/169 8/170/170 32/171/171
f 11/172/172 32/173/173 33/174/174
f 8/175/175 16/176/176 30/177/177
f 8/178/178 30/179/179 32/180/180
f 13/181/181 11/182/182 33/183/183
f 13/184/184 33/185/185 31/186/186
f 19/187/187 18/188/188 38/189/189
f 19/190/190 38/191/191 39/192/192
f 16/193/193 8/194/194 37/195/195
f 16/196/196 37/197/197 35/198/198
f 8/199/199 9/200/200 36/201/201
f 8/202/202 36/203/203 37/204/204
f 9/205/205 15/206/206 34/207/207
f 9/208/208 34/209/209 36/210/210
f 30/211/211 31/212/212 45/213/213
f 30/214/214 45/215/215 44/216/216
f 21/217/217 19/218/218 39/219/219
f 29/220/220 28/221/221 42/222/222
f 29/223/223 42/224/224 43/225/225
f 34/226/226 35/227/227 47/228/228
f 34/229/229 47/230/230 46/231/231
f 24/232/232 22/233/233 40/234/234
f 33/235/235 32/236/236 44/237/237
f 33/238/238 44/239/239 45/240/240
f 18/241/241 20/242/242 38/243/243
f 28/244/244 26/245/245 42/246/246
f 37/247/247 36/248/248 46/249/249
f 37/250/250 46/251/251 47/252/252
f 23/253/253 25/254/254 41/255/255
f 32/256/256 30/257/257 44/258/258
f 27/259/259 29/260/260 43/261/261
f 36/262/262 34/263/263 46/264/264
f 31/265/265 33/266/266 45/267/267
f 35/268/268 37/269/269 47/270/270
f 52/271/271 51/272/272 50/273/273
f 52/274/274 50/275/275 48/276/276
f 51/277/277 53/278/278 49/279/279
f 51/280/280 49/281/281 50/282/282
f 53/283/283 52/284/284 48/285/285
f 53/286/286 48/287/287 49/288/288
f 1/289/289 52/290/290 53/291/291
f 1/292/292 53/293/293 51/294/294
f 1/295/295 51/296/296 52/297/297
