v 0.872661 -0.00716 -13.31352
v 0.461086 -0.00716 -15.17272
v -2.34353 -0.00716 -13.6412
v 1.740884 9.642151 -13.30713
v -1.236533 9.651652 -15.86629
v -2.247102 9.743631 -13.71721
v -0.811544 4.209821 -26.00354
v -0.814157 5.385663 -26.12642
v 0.355842 4.209821 -26.02571
v 0.353258 5.385663 -26.14859
v -0.843182 4.972811 -14.30391
v -0.845956 6.161521 -14.43584
v 0.324204 4.972811 -14.32609
v 0.32143 6.161521 -14.45798
v -0.812672 1.265178 -26.0572
v -0.810136 2.441059 -25.93521
v 0.354714 1.265178 -26.07937
v 0.357279 2.441059 -25.95739
v -1.05881 0.949042 -14.30695
v -1.056376 2.138498 -14.19122
v 0.108605 0.949042 -14.32912
v 0.111038 2.138498 -14.2134
v 0.705504 -0.007164 -0.551973
v 0.293928 -0.007163 -2.411205
v -2.510687 -0.007164 -0.879657
v 2.010622 8.632955 -0.48037
v -0.966112 8.906199 -3.007088
v -1.976759 8.782264 -0.861677
v -0.137049 8.613382 0.699933
v 0.120685 10.42076 -0.981037
v -0.870171 7.652497 -13.55612
v -0.865668 8.822537 -13.34201
v 0.297244 7.652497 -13.57829
v 0.301746 8.822537 -13.36418
v -0.771838 6.786604 -1.450587
v -0.767446 7.970433 -1.241708
v 0.395576 6.786604 -1.472762
v 0.399969 7.970433 -1.263854
v -0.872141 3.112555 -13.64983
v -0.873979 4.289795 -13.73719
v 0.295273 3.112555 -13.672
v 0.293436 4.289795 -13.75937
v -0.772852 3.624096 -1.498792
v -0.774871 4.814329 -1.594813
v 0.394563 3.624096 -1.520967
v 0.392543 4.814329 -1.616987
v 2.4515 -0.007167 12.45173
v -0.413712 -0.007166 11.02512
v -0.748822 -0.007167 12.89814
v 2.356023 9.048479 12.53537
v 1.240752 9.132445 10.43282
v -1.582344 8.708494 13.06937
v 0.104615 4.209811 12.45081
v 0.102031 5.385654 12.32793
v 1.27203 4.209811 12.42863
v 1.269446 5.385654 12.30576
v 0.14083 4.972802 24.14915
v 0.138056 6.161511 24.01722
v 1.308245 4.972802 24.12697
v 1.305471 6.161511 23.99508
v 0.103487 1.265168 12.39715
v 0.106052 2.44105 12.51914
v 1.270901 1.265168 12.37495
v 1.273467 2.44105 12.49696
v -0.074769 0.949032 24.14611
v -0.072336 2.138489 24.26181
v 1.092616 0.949032 24.12394
v 1.09505 2.138489 24.23966
v -0.94967 5.02414 -0.809796
v -0.947629 6.20105 -0.712746
v 0.217715 5.02415 -0.831998
v 0.219786 6.20105 -0.73492
v 0.043395 5.682419 12.05704
v 0.040498 6.870838 11.91928
v 1.21081 5.682419 12.03487
v 1.207913 6.870838 11.89713
v -0.956444 2.297314 -1.131924
v -0.955446 3.475563 -1.08447
v 0.210941 2.297314 -1.154126
v 0.211969 3.475563 -1.106645
v 0.050187 2.434956 12.38001
v 0.044398 3.612759 12.10472
v 1.217602 2.434956 12.35783
v 1.211813 3.612759 12.08255
v 1.435702 -0.00717 25.14895
v 1.024127 -0.007169 23.28975
v -1.780488 -0.00717 24.82127
v 2.718301 9.528591 25.12629
v -0.248748 9.684324 22.56695
v -1.244499 9.828839 24.71576
vn 0.7795807 -0.07033597 0.6223398
vn 0.817616 -0.091331 -0.568474
vn -0.9992334 0.009535994 -0.03796598
vn 0.8479712 0.4225371 0.3200111
vn -0.4528032 0.4343832 -0.7786403
vn -0.8386098 0.5024839 0.2103419
vn -0.999994 -0.002488 -0.002542
vn -0.001258 0.997804 -0.066224
vn 0.001236 -0.9978794 0.06508002
vn 0.9999936 0.002539999 0.002545999
vn 0.001236 -0.9978794 0.06508002
vn -0.999993 -0.002616 -0.002546
vn 0.9999936 0.002539999 0.002545999
vn -0.001258 0.997804 -0.066224
vn -0.999774 0.004317 -0.020827
vn 0.0004889999 0.9996679 0.025765
vn -0.0005109999 -0.9996379 -0.026906
vn 0.999774 -0.004208 0.020841
vn -0.0005109999 -0.9996379 -0.026906
vn -0.999774 0.004075 -0.020858
vn 0.999774 -0.004208 0.020841
vn 0.0004889999 0.9996679 0.025765
vn 0.776029 -0.122729 0.618641
vn 0.8094249 -0.135249 -0.5714359
vn -0.997502 0.060353 -0.036708
vn 0.9278907 0.2511749 0.2755539
vn -0.5788618 0.4128509 -0.7031878
vn -0.838745 0.392335 0.377598
vn 0.05794502 0.2795731 0.9583743
vn 0.02811201 0.9945783 0.100119
vn -0.999963 0.002331 0.008289
vn 0.001333 0.9975296 0.07023498
vn -0.001355001 -0.9974515 -0.07133504
vn 0.9999631 -0.002291 -0.008282001
vn -0.001355001 -0.9974515 -0.07133504
vn -0.999963 0.00225 0.008276
vn 0.9999631 -0.002291 -0.008282001
vn 0.001333 0.9975296 0.07023498
vn -0.999966 -0.000951 0.008211
vn -0.0008200002 0.9990683 -0.04315201
vn 0.000799 -0.999115 0.042055
vn 0.9999658 0.0009929998 -0.008208998
vn 0.000799 -0.999115 0.042055
vn -0.999966 -0.001034 0.008206
vn 0.9999658 0.0009929998 -0.008208998
vn -0.0008200002 0.9990683 -0.04315201
vn 0.9135838 0.005594999 0.4066119
vn -0.5002242 -0.06823403 -0.8632033
vn -0.9707128 -0.09732299 0.219647
vn 0.8492289 0.505284 0.153292
vn 0.3325191 0.5200351 -0.7867621
vn -0.8074099 0.3561229 0.4703889
vn -0.999993 -0.001861 0.003217
vn -0.001257 0.997804 -0.066224
vn 0.001236 -0.9978794 0.06508002
vn 0.999993 0.001919 -0.003215
vn 0.001236 -0.9978794 0.06508002
vn -0.999993 -0.001977 0.003213
vn 0.999993 0.001919 -0.003215
vn -0.001257 0.997804 -0.066224
vn -0.999879 0.003745 -0.015069
vn 0.0004889999 0.9996679 0.025765
vn -0.0005109999 -0.9996379 -0.026906
vn 0.9998797 -0.003629999 0.01508699
vn -0.0005109999 -0.9996379 -0.026906
vn -0.99988 0.003514 -0.015099
vn 0.9998797 -0.003629999 0.01508699
vn 0.0004889999 0.9996679 0.025765
vn -0.997006 -0.004636 0.077186
vn -0.001004 0.9986009 -0.05286999
vn 0.0009740003 -0.9986972 0.05101901
vn 0.9969985 -0.0009779995 -0.07741396
vn 0.0009740003 -0.9986972 0.05101901
vn -0.99696 0.00657 0.077638
vn 0.9969985 -0.0009779995 -0.07741396
vn -0.001004 0.9986009 -0.05286999
vn -0.997232 -0.002148 0.074315
vn -0.000197 0.9999461 -0.010387
vn 0.000193 -0.9999483 0.010172
vn 0.9971779 -0.005305 -0.07488699
vn 0.000193 -0.9999483 0.010172
vn -0.997068 0.012735 0.075453
vn 0.9971779 -0.005305 -0.07488699
vn -0.000197 0.9999461 -0.010387
vn 0.7766533 -0.102772 0.6214882
vn 0.8129508 -0.12876 -0.5679189
vn -0.9978853 0.05362902 -0.03672501
vn 0.8727136 0.3677928 0.3210908
vn -0.428015 0.455612 -0.780526
vn -0.8052471 0.5534802 0.212689
vn 0.001236 -0.997879 0.06508
vn -0.9999935 -0.002551999 -0.002543999
vn 0.999994 0.002463 0.002544
vn -0.001258 0.997804 -0.066224
vn -0.9999935 -0.002551999 -0.002543999
vn -0.001257 0.997804 -0.066224
vn 0.001236 -0.997879 0.06508
vn 0.999993 0.002616 0.002549
vn -0.000511 -0.999638 -0.026906
vn -0.999774 0.004196 -0.020842
vn 0.999774 -0.004341 0.020823
vn 0.000489 0.999668 0.025765
vn -0.999774 0.004196 -0.020842
vn 0.000489 0.999668 0.025765
vn -0.000511 -0.999638 -0.026906
vn 0.999774 -0.004075 0.020858
vn -0.001355 -0.997451 -0.071335
vn -0.9999631 0.002291 0.008282001
vn 0.999963 -0.002331 -0.008289
vn 0.001334 0.99753 0.070235
vn -0.9999631 0.002291 0.008282001
vn 0.001332 0.99753 0.070235
vn -0.001355 -0.997451 -0.071335
vn 0.999963 -0.00225 -0.008276
vn 0.000799 -0.999115 0.042055
vn -0.9999658 -0.0009929998 0.008208998
vn 0.999966 0.000951 -0.008211
vn -0.00082 0.999068 -0.043152
vn -0.9999658 -0.0009929998 0.008208998
vn -0.00082 0.999068 -0.043152
vn 0.000799 -0.999115 0.042055
vn 0.999966 0.001034 -0.008206
vn 0.001236 -0.997879 0.06508
vn -0.999993 -0.001919 0.003215
vn 0.999993 0.001861 -0.003217
vn -0.001258 0.997804 -0.066224
vn -0.999993 -0.001919 0.003215
vn -0.001256 0.997804 -0.066224
vn 0.001236 -0.997879 0.06508
vn 0.999993 0.001977 -0.003213
vn -0.000512 -0.999638 -0.026906
vn -0.9998797 0.003628999 -0.01508399
vn 0.999879 -0.003746 0.015072
vn 0.000489 0.999668 0.025765
vn -0.9998797 0.003628999 -0.01508399
vn 0.000489 0.999668 0.025765
vn -0.000511 -0.999638 -0.026906
vn 0.99988 -0.003515 0.015101
vn 0.000979 -0.998697 0.051019
vn -0.9969987 0.0009669997 0.07741297
vn 0.997006 0.004613 -0.077187
vn -0.001004 0.998601 -0.05287
vn -0.9969987 0.0009669997 0.07741297
vn -0.001003 0.998601 -0.05287
vn 0.000969 -0.998697 0.051019
vn 0.99696 -0.006568 -0.077638
vn 0.000193 -0.999948 0.010172
vn -0.9971781 0.005293 0.07488601
vn 0.997232 0.002125 -0.074317
vn -0.000197 0.999946 -0.010387
vn -0.9971781 0.005293 0.07488601
vn -0.000197 0.999946 -0.010387
vn 0.000193 -0.999948 0.010172
vn 0.997068 -0.012735 -0.075453
vt 0.647037 1e-06
vt 0.5683271 1e-06
vt 0.031967 1e-06
vt 0.813077 0.925335
vt 0.243671 0.926246
vt 0.050408 0.9350661
vt 0.324947 0.404394
vt 0.324447 0.517153
vt 0.5482 0.404394
vt 0.5477051 0.517153
vt 0.318896 0.477562
vt 0.318366 0.591555
vt 0.542149 0.477562
vt 0.541619 0.591555
vt 0.324731 0.122014
vt 0.325216 0.234776
vt 0.547984 0.122014
vt 0.548474 0.234776
vt 0.277659 0.091697
vt 0.278125 0.205762
vt 0.5009171 0.091697
vt 0.501383 0.205762
vt 0.61507 1e-06
vt 0.536359 1e-06
vt 0 1e-06
vt 0.864662 0.828556
vt 0.295387 0.85476
vt 0.102109 0.842875
vt 0.453938 0.82668
vt 0.503228 1
vt 0.313735 0.734534
vt 0.314596 0.846737
vt 0.536993 0.734534
vt 0.5378541 0.8467371
vt 0.33254 0.651498
vt 0.33338 0.765023
vt 0.555798 0.651498
vt 0.5566391 0.765023
vt 0.313358 0.29917
vt 0.313007 0.412063
vt 0.536616 0.29917
vt 0.536265 0.412063
vt 0.332346 0.348225
vt 0.33196 0.462364
vt 0.5556051 0.348225
vt 0.555218 0.462364
vt 0.948977 0
vt 0.401029 0
vt 0.336942 0
vt 0.930717 0.868404
vt 0.717431 0.8764561
vt 0.177538 0.8358001
vt 0.500154 0.404393
vt 0.49966 0.517152
vt 0.723413 0.404393
vt 0.722919 0.517152
vt 0.50708 0.477561
vt 0.50655 0.591554
vt 0.730339 0.477561
vt 0.729808 0.591554
vt 0.499939 0.122013
vt 0.500429 0.234775
vt 0.723197 0.122013
vt 0.723688 0.234775
vt 0.465849 0.091696
vt 0.466314 0.205761
vt 0.6891021 0.09169601
vt 0.689567 0.205761
vt 0.298531 0.482484
vt 0.298922 0.595346
vt 0.521784 0.482485
vt 0.52218 0.595346
vt 0.488447 0.545611
vt 0.487893 0.659576
vt 0.7117051 0.545611
vt 0.711151 0.6595761
vt 0.297236 0.220992
vt 0.297427 0.333981
vt 0.520488 0.220992
vt 0.5206851 0.333981
vt 0.489746 0.234191
vt 0.488639 0.347138
vt 0.713004 0.234191
vt 0.7118971 0.347138
vt 0.754714 0
vt 0.6760041 0
vt 0.139644 0
vt 1 0.914445
vt 0.4325771 0.929379
vt 0.242148 0.943237
g slot9
usemtl slot9.tga
f 23/23/23 26/26/26 29/29/29
f 25/25/25 27/27/27 24/24/24
f 24/24/24 26/26/26 23/23/23
f 49/49/49 50/50/50 52/52/52
f 48/48/48 51/51/51 47/47/47
f 49/49/49 52/52/52 48/48/48
f 86/86/86 89/89/89 88/88/88
f 3/3/3 5/5/5 2/2/2
f 2/2/2 5/5/5 4/4/4
f 87/87/87 90/90/90 89/89/89
f 87/87/87 89/89/89 86/86/86
f 5/5/5 6/6/6 4/4/4
f 85/85/85 86/86/86 88/88/88
f 85/85/85 90/90/90 87/87/87
f 88/88/88 89/89/89 90/90/90
f 88/88/88 90/90/90 85/85/85
f 1/1/1 2/2/2 4/4/4
f 1/1/1 4/4/4 6/6/6
f 3/3/3 1/1/1 6/6/6
f 3/3/3 6/6/6 5/5/5
f 51/51/51 48/48/48 52/52/52
f 51/51/51 52/52/52 50/50/50
f 47/47/47 51/51/51 50/50/50
f 47/47/47 50/50/50 49/49/49
f 27/27/27 28/28/28 30/30/30
f 27/27/27 26/26/26 24/24/24
f 26/26/26 27/27/27 30/30/30
f 26/26/26 30/30/30 29/29/29
f 25/25/25 23/23/23 29/29/29
f 25/25/25 28/28/28 27/27/27
f 28/28/28 25/25/25 29/29/29
f 28/28/28 29/29/29 30/30/30
g slot14
usemtl slot14.tga
f 65/65/135 66/66/66 62/62/132
f 43/43/119 40/40/116 39/39/39
f 43/43/43 41/41/41 45/45/121
f 35/35/35 33/33/33 37/37/113
f 65/65/135 62/62/132 61/61/61
f 65/65/65 61/61/131 63/63/63
f 65/65/65 63/63/63 67/67/137
f 67/67/67 63/63/133 64/64/64
f 46/46/46 42/42/118 40/40/40
f 76/76/76 72/72/142 70/70/70
f 38/38/38 32/32/32 36/36/112
f 75/75/75 72/72/72 76/76/146
f 73/73/143 70/70/140 69/69/69
f 57/57/127 58/58/58 54/54/124
f 75/75/75 71/71/141 72/72/72
f 59/59/59 55/55/125 56/56/56
f 73/73/73 69/69/139 71/71/71
f 68/68/68 62/62/62 66/66/136
f 35/35/111 32/32/108 31/31/31
f 14/14/14 10/10/94 8/8/8
f 59/59/59 56/56/56 60/60/130
f 14/14/14 8/8/8 12/12/96
f 22/22/22 16/16/16 20/20/104
f 84/84/84 80/80/150 78/78/78
f 73/73/143 74/74/74 70/70/140
f 13/13/13 10/10/10 14/14/98
f 22/22/22 18/18/102 16/16/16
f 11/11/11 7/7/91 9/9/9
f 46/46/46 40/40/40 44/44/120
f 81/81/151 78/78/148 77/77/77
f 13/13/13 9/9/93 10/10/10
f 81/81/81 79/79/79 83/83/153
f 81/81/81 77/77/147 79/79/79
f 11/11/11 9/9/9 13/13/97
f 57/57/127 54/54/124 53/53/53
f 45/45/45 41/41/117 42/42/42
f 73/73/73 71/71/71 75/75/145
f 35/35/35 31/31/107 33/33/33
f 76/76/76 70/70/70 74/74/144
f 83/83/83 80/80/80 84/84/154
f 19/19/103 20/20/20 16/16/100
f 43/43/43 39/39/115 41/41/41
f 83/83/83 79/79/149 80/80/80
f 19/19/19 15/15/99 17/17/17
f 19/19/103 16/16/100 15/15/15
f 37/37/37 34/34/34 38/38/114
f 84/84/84 78/78/78 82/82/152
f 43/43/119 44/44/44 40/40/116
f 11/11/95 8/8/92 7/7/7
f 37/37/37 33/33/109 34/34/34
f 21/21/21 17/17/101 18/18/18
f 60/60/60 56/56/126 54/54/54
f 57/57/57 53/53/123 55/55/55
f 11/11/95 12/12/12 8/8/92
f 81/81/151 82/82/82 78/78/148
f 19/19/19 17/17/17 21/21/105
f 21/21/21 18/18/18 22/22/106
f 60/60/60 54/54/54 58/58/128
f 38/38/38 34/34/110 32/32/32
f 68/68/68 64/64/134 62/62/62
f 35/35/111 36/36/36 32/32/108
f 57/57/57 55/55/55 59/59/129
f 45/45/45 42/42/42 46/46/122
f 67/67/67 64/64/64 68/68/138
