v -0.083573 3.998412 -16
v -0.110409 -0.001498 -16
v 15.88923 -0.108843 -16
v 15.91607 3.891067 -16
v 11.91616 3.917903 -16
v 11.88932 -0.082007 -12
v 11.91616 3.917903 -12
v 16.10392 31.89044 -12
v 16.05025 23.89062 -12
v 16.07709 27.89053 -8
v 0.077446 27.99787 -16
v 8.077265 27.9442 -16
v 0.104282 31.99778 -16
v 8.077265 27.9442 -14
v 8.077265 27.9442 -12
v 0.023773 19.99805 -14
v 12.05034 23.91745 -16
v 12.10401 31.91727 -16
v 12.10401 31.91727 -12
v 12.07718 27.91736 -12
v 16.10392 31.89044 -16
v 15.91607 3.891067 -12
v 12.05034 23.91745 -14
v 12.05034 23.91745 -12
v -0.0299 11.99823 -14
v 14.05029 23.90404 -12
v 7.916247 3.944739 12
v -0.083573 3.998412 16
v 7.916247 3.944739 14
v 7.916247 3.944739 16
v 15.91607 3.891067 16
v 15.88923 -0.108843 16
v 11.88932 -0.082007 16
v -0.110409 -0.001498 16
v 11.88932 -0.082007 12
v 11.91616 3.917903 12
v 11.94299 7.917813 16
v 15.91607 3.891067 8
v 15.9429 7.890977 12
v -0.0299 11.99823 14
v 12.07718 27.91736 12
v 12.10401 31.91727 12
v 12.07718 27.91736 16
v 0.077446 27.99787 16
v 12.10401 31.91727 16
v 16.10392 31.89044 16
v 16.07709 27.89053 12
v 11.94299 7.917813 14
v 11.94299 7.917813 12
v 0.023773 19.99805 14
v 13.94295 7.904395 12
v 13.91611 3.904485 8
v 11.91616 3.917903 8
v 14.07713 27.90395 -8
v 12.07718 27.91736 -8
v 0.077446 27.99787 -14
v 11.91616 3.917903 -14
v -0.083573 3.998412 -14
v -0.083573 3.998412 14
v 12.07718 27.91736 14
v 11.90274 1.917948 -12
v 11.90274 1.917948 12
v 12.09059 29.91732 -12
v 12.09059 29.91732 12
v 13.91611 3.904485 -12
v 14.07713 27.90395 12
v -8.083393 4.052085 -14
v -8.083393 4.052085 -16
v -8.083393 4.052085 -12
v -16.08321 4.105757 -16
v -12.05647 8.078831 -16
v -16.11005 0.105847 -16
v -12.11014 0.079011 -12
v -12.0833 4.078921 -12
v -16.08321 4.105757 -8
v -16.05638 8.105667 -12
v -15.89536 32.10513 -16
v -11.92228 28.07838 -16
v -11.92228 28.07838 -12
v -11.89545 32.07829 -12
v -15.89536 32.10513 -12
v -12.05647 8.078831 -14
v -12.05647 8.078831 -12
v -15.92219 28.10522 -12
v -14.05642 8.092249 -12
v -12.11014 0.079011 12
v -12.0833 4.078921 12
v -16.11005 0.105847 16
v -16.08321 4.105757 16
v -12.0833 4.078921 16
v -16.11005 0.105847 12
v -7.922374 28.05154 12
v -7.922374 28.05154 14
v -7.922374 28.05154 16
v -15.92219 28.10522 8
v -15.94903 24.10531 12
v -15.89536 32.10513 12
v -11.94912 24.07847 16
v -15.92219 28.10522 16
v -11.89545 32.07829 12
v -11.92228 28.07838 12
v -15.89536 32.10513 16
v -11.89545 32.07829 16
v -11.94912 24.07847 14
v -11.94912 24.07847 12
v -16.08321 4.105757 12
v -13.94908 24.09189 12
v -14.08326 4.092339 -8
v -12.0833 4.078921 -8
v -13.92224 28.0918 8
v -11.92228 28.07838 8
v -11.92228 28.07838 -14
v -12.0833 4.078921 14
v -12.09672 2.078966 12
v -12.09672 2.078966 -12
v -11.90887 30.07834 -12
v -11.90887 30.07834 12
v -14.08326 4.092339 12
v -13.92224 28.0918 -12
vn 0.006709004 0.9999776 0
vn -0.006708996 -0.9999774 0
vn -0.006709004 -0.9999776 0
vn 0.9999775 -0.006709003 0
vn 0 0 -1
vn -0.006708997 -0.9999775 0
vn -0.999977 0.006709 0
vn 0.9999774 -0.006708996 0
vn 0 0 1
vn 0.004744 0.707091 0.707107
vn 0 0 -1
vn -0.006709 -0.999978 -0
vn 0.006709004 0.9999776 0
vn -0.702347 0.711835 0
vn -0.006709004 -0.9999776 0
vn 0 0 -1
vn 0 0 -1
vn 0 0 -1
vn -0.999978 0.006709 0
vn 0 0 1
vn 0.999978 -0.006709 0
vn 0 0 1
vn -0.9999776 0.006709004 0
vn -0.999977 0.006709 0
vn 0.7023468 -0.7118349 0
vn -0.004744 -0.707091 -0.707107
vn 0.006709004 0.9999776 0
vn 0 0 1
vn 0 0 1
vn 0.006709 0.999977 -0
vn 0.9999776 -0.006709004 0
vn 0 0 1
vn -0.006709004 -0.9999776 0
vn -0.006708997 -0.9999775 0
vn 0 0 -1
vn 0 0 -1
vn 0.711835 0.702347 0
vn 0.9999774 -0.006708996 0
vn 0.9999775 -0.006709003 0
vn 0 0 1
vn -0.006709 -0.999977 0
vn 0.006708997 0.9999775 0
vn -0.999977 0.006709 -0
vn -0.006709004 -0.9999776 0
vn 0.006709004 0.9999776 0
vn 0 0 1
vn 0 0 -1
vn -0.9999776 0.006709004 0
vn -0.999977 0.006709 0
vn 0.711835 0.7023469 0
vn 0.004744 0.707091 0.707107
vn 0.999977 -0.006709 0
vn 0.006709 0.999977 0
vn -0.006709004 -0.9999776 0
vn -0.006709 -0.999977 0
vn 0 0 -1
vn 0 0 -1
vn 0 0 -1
vn 0 0 1
vn 0 0 1
vn -0.006709 -0.999978 0
vn -0.006708997 -0.9999775 0
vn 0.006708997 0.9999775 0
vn 0.006709 0.999978 0
vn 0.999977 -0.006709 0
vn 0.999977 -0.006709 -0
vn 0 -0 -1
vn 0.7023469 -0.711835 0
vn 0.006709004 0.9999776 0
vn -0.9999776 0.006709004 0
vn -0.702347 0.711835 -0
vn 0 -0 -1
vn -0.006708997 -0.9999775 0
vn 0 0 1
vn -0.004744 -0.707091 0.707107
vn 0 0 1
vn 0.006709 0.999977 0
vn 0 0 -1
vn -0.006709 -0.999977 -0
vn 0 -0 1
vn 0.006709003 0.9999775 0
vn -0.7023468 0.7118349 0
vn 0.999977 -0.006709 0
vn -0.006709 -0.999977 -0
vn 0.004744 0.707091 -0.707107
vn 0.9999774 -0.006708996 0
vn 0.999977 -0.006709 0
vn -0.006709 -0.999978 0
vn -0.9999775 0.006708998 0
vn 0.999977 -0.006709 -0
vn -0.9999776 0.006709004 0
vn -0.006709004 -0.9999776 0
vn 0 0 1
vn -0.006709 -0.999977 0
vn -0.9999776 0.006709004 0
vn -0.9999774 0.006708997 0
vn 0.006709004 0.9999776 0
vn 0.9999776 -0.006709004 0
vn -0.9999776 0.006709004 0
vn 0.006708996 0.9999774 0
vn 0 0 -1
vn 0 0 1
vn 0 0 1
vn -0.711835 -0.7023469 0
vn 0.999977 -0.006709 0
vn 0.006709 0.999977 -0
vn -0.004744 -0.707091 0.707107
vn 0.006709004 0.9999776 0
vn 0.006709 0.999977 -0
vn -0.999977 0.006709 0
vn -0.006709 -0.999977 -0
vn 0 0 -1
vn 0 0 1
vn -0.006708997 -0.9999775 0
vn -0.006709 -0.999978 -0
vn 0.006708997 0.9999775 0
vn 0.006709 0.999978 0
vn -0.999977 0.006709 -0
vn -0.999977 0.006709 0
vn 0 0 -1
vn 0 0 -1
vn 0 0 -1
vn 0.999977 -0.006709 0
vn 0 0 -1
vn 0.006708997 0.9999775 0
vn -0.999977 0.006709 0
vn -0.9999774 0.006708996 0
vn 0 0 1
vn 0.006709 0.999977 0
vn 0 0 1
vn 0.006709004 0.9999775 0
vn 0 0 1
vn -0.9999775 0.006709004 0
vn 0.006709004 0.9999776 0
vn 0.9999774 -0.006708997 0
vn -0.004743999 -0.7070908 -0.7071068
vn 0.9999776 -0.006709004 0
vn -0.006709004 -0.9999776 0
vn -0.006708997 -0.9999775 0
vn 0 0 -1
vn -0.7023469 0.711835 0
vn 0 0 -1
vn -0.006708997 -0.9999775 0
vn 0 0 -1
vn 0 0 1
vn -0.7023468 0.7118349 0
vn -0.9999776 0.006709004 0
vn 0.702347 -0.711835 0
vn 0.006708998 0.9999775 0
vn 0.006708996 0.9999774 0
vn 0 0 1
vn -0.9999776 0.006709004 0
vn 0 0 -1
vn 0.006709 0.999977 -0
vn 0.006709 0.999977 0
vn 0.9999774 -0.006708996 0
vn 0 0 -1
vn 0.7023468 -0.7118349 0
vn 0 0 1
vn 0 0 -1
vn 0 0 1
vn 0.999977 -0.006709 0
vn 0 0 -1
vn 0.006709004 0.9999776 0
vn 0.006709004 0.9999776 0
vn -0.711835 -0.702347 0
vn 0 0 1
vn -0.711835 -0.7023469 0
vn 0 0 1
vn 0.9999776 -0.006709004 0
vn -0.006709 -0.999977 -0
vn 0 0 1
vn 0 0 1
vn -0.006708996 -0.9999774 0
vn -0.999978 0.006709 -0
vn -0.9999776 0.006709004 0
vn 0 0 1
vn -0.9999776 0.006709004 0
vn 0.006709004 0.9999776 0
vn -0.004744 -0.707091 -0.707107
vn 0.004743999 0.7070908 0.7071068
vn 0 0 -1
vn -0.711835 -0.7023469 0
vn 0 0 -1
vn -0.999977 0.006709 0
vn -0.006709004 -0.9999775 0
vn 0 -0 -1
vn -0.9999775 0.006709004 0
vn -0.9999774 0.006708996 0
vn 0 -0 -1
vn 0 0 1
vn -0.006708997 -0.9999775 0
vn 0 0 1
vn 0 0 1
vn 0.9999774 -0.006708996 0
vn 0.006709004 0.9999776 0
vn 0.9999776 -0.006709004 0
vn -0.006709 -0.999977 -0
vn 0 -0 1
vn 0.711835 0.7023469 0
vn 0 0 -1
vn 0 0 1
vn 0 0 -1
vn 0.999977 -0.006709 -0
vn -0.004743999 -0.7070909 -0.7071068
vn 0.006709004 0.9999776 0
vn -0.9999776 0.006709004 0
vn 0.004743999 0.7070909 0.7071068
vn 0.999977 -0.006709 -0
vn -0.9999776 0.006709004 0
vn 0.006709004 0.9999776 0
vn 0.702347 -0.711835 -0
vn 0 0 -1
vn 0.006709 0.999977 -0
vn 0 0 1
vn 0 0 -1
vn 0 0 -1
vn 0.9999776 -0.006709004 0
vn -0.006708996 -0.9999774 0
vn -0.9999776 0.006709004 0
vn 0 0 1
vn 0.999978 -0.006709 0
vn 0.9999776 -0.006709004 0
vn -0.9999774 0.006708996 0
vn 0.006709004 0.9999776 0
vn -0.9999774 0.006708997 0
vn 0.004743999 0.7070908 -0.7071068
vn 0 0 -1
vn -0.9999774 0.006708996 0
vn -0.006708997 -0.9999775 0
vn 0.999977 -0.006709 0
vn 0 0 1
vn 0.999977 -0.006709 0
vn -0.006709004 -0.9999775 0
vn 0 -0 1
vn 0.9999775 -0.006709004 0
vn 0.006708996 0.9999774 0
vn 0.9999774 -0.006708996 0
vn -0.9999776 0.006709004 0
vn 0 0 -1
vn 0.9999776 -0.006709004 0
vn 0 0 1
vn 0 0 1
vn -0.9999776 0.006709004 0
vn 0 0 1
vn -0.999977 0.006709 0
vn -0.006708996 -0.9999774 0
vn 0 0 -1
vn 0 0 -1
vn 0.006709004 0.9999775 0
vn 0 0 -1
vn 0.9999775 -0.006709004 0
vn 0.006709 0.999977 -0
vn 0 0 1
vn -0.999977 0.006709 0
vn 0 0 1
vn 0.006708997 0.9999775 0
vn 0 0 1
vn -0.006708997 -0.9999775 0
vn 0 0 -1
vn -0.006709004 -0.9999776 0
vn 0.711835 0.702347 -0
vn 0 0 1
vn 0.711835 0.7023469 0
vn -0.006709004 -0.9999776 0
vn 0.004744 0.707091 -0.707107
vn -0.004743999 -0.7070908 0.7071068
vn 0 0 -1
vn -0.9999775 0.006709003 0
vn 0 0 1
vn -0.711835 -0.702347 0
vn 0 0 1
vn 0 0 -1
vn 0.999978 -0.006709 -0
vn 0.9999776 -0.006709004 0
vn -0.999977 0.006709 -0
vn 0.006709 0.999977 0
vn 0.006708997 0.9999774 0
vn 0 0 1
vn 0.9999776 -0.006709004 0
vn 0 0 -1
vn -0.9999774 0.006708996 0
vn 0 0 -1
vn 0 0 -1
vn -0.999977 0.006709 -0
vn -0.004743999 -0.7070909 0.7071068
vn -0.999977 0.006709 -0
vn 0.9999776 -0.006709004 0
vn 0.004743999 0.7070909 -0.7071068
vn -0.006709004 -0.9999776 0
vn 0.9999776 -0.006709004 0
vt 4224 -4095
vt 4224 -4095
vt 4224 -3967
vt 4224 4129
vt 4000 4129
vt 4256 -3999
vt 4256 4129
vt 4256 4353
vt 3968 4289
vt 4288 -3967
vt 4096 4321
vt 4224 -4031
vt 4224 -4095
vt 4240 -4031
vt 4256 -4031
vt 4096 4257
vt 4000 4289
vt 4000 4353
vt 4256 4353
vt 4000 4321
vt 4224 4353
vt 3968 4129
vt 4240 4289
vt 4256 4289
vt 4240 -4095
vt 4256 -3983
vt 4448 -4031
vt 4096 4129
vt 4032 4129
vt 4480 -4031
vt 4480 4129
vt 3968 4097
vt 4480 -3999
vt 4480 -4095
vt 4000 4097
vt 4000 4129
vt 4480 -3999
vt 4416 4129
vt 4448 4161
vt 4096 4193
vt 4448 -3999
vt 4448 -3999
vt 4480 4321
vt 4480 -4095
vt 4480 -3999
vt 3968 4353
vt 3968 4321
vt 4464 4161
vt 4448 4161
vt 4464 -4095
vt 4448 -3983
vt 4416 4129
vt 4416 -3999
vt 4288 -3983
vt 4288 -3999
vt 4096 4321
vt 4000 4129
vt 4096 4129
vt 4096 4129
vt 4000 4321
vt 4256 -3999
vt 4448 -3999
vt 4256 -3999
vt 4448 -3999
vt 4256 4129
vt 4448 4321
vt 4160 4129
vt 4224 -4159
vt 4256 -4159
vt 4224 4129
vt 4224 -4191
vt 4224 4097
vt 4256 -4191
vt 4192 4129
vt 4288 -4223
vt 4224 4161
vt 4224 -4223
vt 4192 4321
vt 4256 -4191
vt 4192 4353
vt 4256 -4223
vt 4240 -4191
vt 4256 4161
vt 4256 -4223
vt 4256 -4207
vt 4448 4097
vt 4448 4129
vt 4480 -4223
vt 4480 4129
vt 4480 4129
vt 4448 4097
vt 4448 -4159
vt 4160 4321
vt 4480 -4159
vt 4416 4321
vt 4448 4289
vt 4448 -4223
vt 4480 4289
vt 4480 4321
vt 4448 -4191
vt 4192 4321
vt 4224 4353
vt 4192 4353
vt 4464 -4191
vt 4448 4289
vt 4448 -4223
vt 4448 -4207
vt 4288 -4207
vt 4288 -4191
vt 4416 4321
vt 4416 -4191
vt 4192 4321
vt 4192 4129
vt 4448 -4191
vt 4256 -4191
vt 4256 -4191
vt 4448 -4191
vt 4448 4129
vt 4256 4321
vt 4096 4129
vt 4096 4097
vt 3968 4097
vt 4224 4097
vt 3968 4129
vt 4224 -3999
vt 4224 4129
vt 4256 4097
vt 4000 4097
vt 4256 -3999
vt 4000 4129
vt 4256 -3999
vt 4000 4129
vt 4256 4129
vt 4256 -3967
vt 4256 4289
vt 4256 -3967
vt 4288 4321
vt 4224 -4095
vt 4032 4321
vt 4096 4353
vt 4032 4321
vt 4032 4321
vt 4240 -4095
vt 4224 4289
vt 4224 -3999
vt 4224 -3999
vt 4256 -3999
vt 4000 4353
vt 4256 4321
vt 3968 4353
vt 4224 -3967
vt 4256 -3967
vt 4256 4129
vt 4000 4289
vt 4240 -3999
vt 4000 4289
vt 4096 4193
vt 3984 4289
vt 4256 4289
vt 4032 4129
vt 4480 -4095
vt 4464 -4031
vt 4032 4129
vt 3968 4129
vt 4480 4097
vt 4480 -3967
vt 4000 4097
vt 4096 4097
vt 4448 -3999
vt 4448 4097
vt 4448 4129
vt 4000 4161
vt 4480 4161
vt 4416 -3967
vt 4448 -3967
vt 3968 4161
vt 4464 -4095
vt 4000 4321
vt 4448 4321
vt 4448 -3999
vt 4000 4321
vt 4448 4321
vt 4448 4353
vt 4000 4353
vt 4000 4321
vt 4480 -3999
vt 4096 4321
vt 4000 4353
vt 4480 4353
vt 4480 -3967
vt 4448 4321
vt 4448 -3967
vt 4000 4161
vt 4464 -3999
vt 4000 4161
vt 4096 4257
vt 3984 4161
vt 4448 4161
vt 4416 -3983
vt 4416 4129
vt 4288 4321
vt 4288 4321
vt 4240 -4159
vt 4160 4129
vt 4160 4129
vt 4192 4161
vt 4224 4161
vt 4224 -4223
vt 4192 4097
vt 4256 4097
vt 4256 4129
vt 4288 4129
vt 4256 4161
vt 4256 -4223
vt 4224 4353
vt 4224 -4191
vt 4224 4321
vt 4192 4321
vt 4256 4321
vt 4256 -4191
vt 4192 4321
vt 4256 4321
vt 4256 -4191
vt 4256 4353
vt 4256 4353
vt 4192 4161
vt 4240 4161
vt 4192 4161
vt 4224 4321
vt 4256 4321
vt 4208 4161
vt 4256 4161
vt 4448 -4191
vt 4192 4097
vt 4192 4129
vt 4448 -4191
vt 4192 4129
vt 4448 4129
vt 4448 -4191
vt 4224 4097
vt 4480 4097
vt 4224 4129
vt 4480 -4191
vt 4192 4129
vt 4448 -4223
vt 4160 4321
vt 4464 -4159
vt 4160 4321
vt 4416 -4223
vt 4448 -4223
vt 4224 4289
vt 4448 4353
vt 4192 4289
vt 4480 -4191
vt 4224 4321
vt 4192 4353
vt 4448 4353
vt 4448 4321
vt 4480 4353
vt 4480 -4223
vt 4480 -4191
vt 4192 4289
vt 4464 4289
vt 4192 4289
vt 4448 4129
vt 4224 4129
vt 4208 4289
vt 4448 4289
vt 4288 4129
vt 4288 4129
vt 4416 -4207
vt 4416 4321
g slot7
f 106/265/282 75/212/224 72/72/220
f 1/120/120 3/122/122 2/121/121
f 5/5/5 4/124/124 3/122/122
f 1/120/120 5/5/5 3/122/122
f 7/130/130 73/209/221 6/128/128
f 91/91/91 88/241/255 89/89/89
f 75/212/224 70/70/70 72/72/220
f 6/6/6 73/73/73 2/2/2
f 7/129/129 5/125/125 1/1/1
f 72/72/220 91/91/91 89/89/89
f 89/242/256 90/244/258 98/253/270
f 89/89/89 97/252/269 96/96/96
f 8/8/8 10/137/137 9/135/135
f 10/137/137 39/39/39 9/135/135
f 13/140/142 12/139/140 11/11/11
f 91/245/259 72/208/219 73/73/73
f 11/138/139 12/12/12 14/14/143
f 14/14/143 15/15/15 11/138/139
f 15/15/15 79/79/79 11/138/139
f 16/143/146 12/12/141 71/71/71
f 16/143/146 14/14/14 12/12/141
f 109/270/288 87/87/87 86/86/86
f 12/139/140 13/140/142 18/18/18
f 17/17/17 12/139/140 18/18/18
f 15/142/145 20/20/20 19/148/151
f 19/148/151 79/218/232 15/142/145
f 99/255/272 89/242/256 98/253/270
f 87/236/250 109/109/109 108/108/108
f 19/147/150 18/146/149 13/13/13
f 98/253/270 94/248/263 99/255/272
f 8/8/8 4/4/4 21/21/21
f 9/135/135 22/153/156 4/4/4
f 8/8/8 9/135/135 4/4/4
f 7/133/133 17/144/147 5/126/126
f 23/23/23 17/144/147 7/133/133
f 7/133/133 24/24/24 23/23/23
f 74/211/223 109/270/288 86/86/86
f 97/252/269 84/230/244 95/95/95
f 23/155/158 25/25/25 17/145/148
f 22/22/22 9/9/9 26/158/161
f 26/158/161 24/156/159 22/22/22
f 24/156/159 7/132/132 22/22/22
f 5/5/5 21/150/153 4/124/124
f 17/17/17 18/18/18 21/150/153
f 5/5/5 17/17/17 21/150/153
f 96/96/96 76/213/226 75/212/224
f 71/206/217 12/139/140 17/17/17
f 28/161/164 27/27/27 87/239/253
f 29/162/165 27/27/27 28/161/164
f 28/161/164 30/30/30 29/162/165
f 33/167/172 32/32/32 31/164/169
f 31/164/169 34/168/173 33/167/172
f 30/163/167 28/28/28 34/168/173
f 31/164/169 30/163/167 34/168/173
f 96/250/267 108/108/286 107/107/107
f 27/160/163 36/36/36 35/35/35
f 87/235/249 27/160/163 35/35/35
f 80/224/238 101/258/275 111/272/291
f 94/94/264 50/50/50 93/247/262
f 31/164/169 37/172/177 30/163/167
f 94/94/264 37/37/37 50/50/50
f 80/224/238 100/257/274 101/258/275
f 38/38/38 39/39/39 31/31/31
f 96/250/267 75/75/75 108/108/286
f 33/33/33 34/34/34 35/169/174
f 30/30/168 40/177/183 29/162/166
f 30/30/168 98/254/271 40/177/183
f 92/246/260 101/101/101 100/256/273
f 75/75/225 106/106/106 87/236/250
f 100/256/273 42/184/190 41/178/184
f 45/188/194 44/187/193 43/185/191
f 45/188/194 103/103/103 44/187/193
f 108/108/108 75/75/225 87/236/250
f 43/186/192 44/44/44 41/41/41
f 103/261/278 42/42/42 100/100/100
f 103/261/278 45/45/45 42/42/42
f 47/191/197 8/8/8 46/189/195
f 46/189/195 39/39/39 47/191/197
f 46/189/195 31/31/31 39/39/39
f 41/182/188 49/49/49 48/48/48
f 48/48/48 37/173/178 41/182/188
f 37/173/178 43/43/43 41/182/188
f 100/256/273 41/178/184 92/246/260
f 37/172/177 98/253/270 30/163/167
f 37/37/37 48/194/200 50/50/50
f 94/248/263 44/187/193 103/103/103
f 47/47/47 39/176/182 51/197/203
f 51/197/203 49/195/201 47/47/47
f 49/195/201 41/181/187 47/47/47
f 45/188/194 31/164/169 46/46/46
f 43/185/191 37/172/177 31/164/169
f 45/188/194 43/185/191 31/164/169
f 33/33/33 3/3/3 32/166/171
f 6/6/6 2/2/2 3/3/3
f 35/169/174 6/6/6 3/3/3
f 33/33/33 35/169/174 3/3/3
f 7/131/131 38/174/179 22/152/155
f 52/199/206 38/174/179 7/131/131
f 7/131/131 53/53/53 52/199/206
f 103/103/103 99/255/272 94/248/263
f 52/199/205 9/136/136 38/174/180
f 52/199/205 26/26/26 9/136/136
f 8/134/134 21/151/154 18/146/149
f 91/245/259 73/73/73 86/233/247
f 107/267/284 105/264/281 106/266/283
f 18/146/149 46/190/196 8/134/134
f 42/42/42 45/45/45 46/190/196
f 19/147/150 42/42/42 46/190/196
f 18/146/149 19/147/150 46/190/196
f 39/175/181 10/10/10 54/54/208
f 111/272/291 79/219/233 80/224/238
f 54/54/208 51/51/51 39/175/181
f 41/180/186 10/10/138 47/192/198
f 54/54/54 10/10/138 41/180/186
f 41/180/186 55/55/55 54/54/54
f 36/171/176 6/127/127 35/170/175
f 53/200/207 7/7/7 6/127/127
f 36/171/176 53/200/207 6/127/127
f 4/4/4 32/165/170 3/123/123
f 38/38/38 31/31/31 32/165/170
f 22/153/156 38/38/38 32/165/170
f 4/4/4 22/153/156 32/165/170
f 99/99/99 102/259/276 97/252/269
f 9/135/135 39/39/39 38/38/38
f 97/252/269 81/225/239 84/230/244
f 8/8/8 47/191/197 10/137/137
f 106/266/283 105/264/281 87/237/251
f 55/202/210 41/179/185 42/183/189
f 42/183/189 20/149/152 55/202/210
f 42/183/189 19/19/19 20/149/152
f 1/1/1 68/68/214 67/203/211
f 67/203/211 69/69/69 1/1/1
f 69/69/69 7/129/129 1/1/1
f 103/103/103 102/102/102 99/255/272
f 98/253/270 37/172/177 94/248/263
f 70/70/216 71/206/217 68/204/213
f 87/238/252 105/105/105 104/263/280
f 70/70/216 2/121/121 72/72/72
f 68/204/213 1/120/120 2/121/121
f 70/70/216 68/204/213 2/121/121
f 100/100/100 80/223/237 81/81/81
f 69/205/215 74/74/74 73/209/221
f 7/130/130 69/205/215 73/209/221
f 25/25/25 68/68/68 17/145/148
f 25/25/25 67/203/212 68/68/68
f 73/73/73 72/208/219 2/2/2
f 106/266/283 96/251/268 107/267/284
f 95/249/265 84/84/84 79/220/234
f 104/263/280 98/98/98 87/238/252
f 98/98/98 90/90/90 87/238/252
f 75/212/224 76/213/226 70/70/70
f 78/78/78 70/70/216 77/215/228
f 77/215/228 11/11/11 78/78/78
f 77/215/228 13/140/142 11/11/11
f 76/214/227 95/249/266 110/271/289
f 19/148/151 80/80/80 79/218/232
f 79/79/79 78/216/230 11/138/139
f 76/214/227 110/271/289 85/85/85
f 81/81/81 13/13/13 77/77/77
f 80/223/237 19/147/150 13/13/13
f 81/81/81 80/223/237 13/13/13
f 96/96/96 106/265/282 89/89/89
f 81/81/81 103/261/278 100/100/100
f 82/82/82 16/143/146 71/71/71
f 79/222/236 71/207/218 78/217/231
f 82/227/241 71/207/218 79/222/236
f 79/222/236 83/83/83 82/227/241
f 74/211/223 86/86/86 73/210/222
f 76/213/226 77/215/229 70/70/70
f 84/230/244 81/225/239 77/215/229
f 76/213/226 84/230/244 77/215/229
f 98/254/271 104/104/104 40/177/183
f 68/204/213 71/206/217 17/17/17
f 97/97/97 102/260/277 103/261/278
f 70/70/216 78/78/78 71/206/217
f 81/81/81 97/97/97 103/261/278
f 84/229/243 83/228/242 79/221/235
f 85/231/245 83/228/242 84/229/243
f 84/229/243 76/76/76 85/231/245
f 87/235/249 35/35/35 86/234/248
f 79/220/234 111/111/111 110/271/290
f 28/28/28 88/240/254 34/168/173
f 90/244/258 89/242/256 88/240/254
f 28/28/28 90/244/258 88/240/254
f 110/271/290 95/249/265 79/220/234
f 90/243/257 28/161/164 87/239/253
f 86/233/247 35/169/174 34/34/34
f 34/34/34 91/245/259 86/233/247
f 34/34/34 88/88/88 91/245/259
f 44/44/44 92/92/92 41/41/41
f 93/247/261 92/92/92 44/44/44
f 44/44/44 94/94/94 93/247/261
f 96/96/96 95/95/95 76/213/226
f 89/89/89 99/99/99 97/252/269
f 96/96/96 97/252/269 95/95/95
f 89/89/89 106/265/282 72/72/220
g slot142
f 26/159/162 52/52/52 65/65/65
f 54/201/209 66/66/66 51/198/204
f 67/67/67 25/157/160 58/58/58
f 40/40/40 59/59/59 29/29/29
f 104/262/279 59/59/59 40/40/40
f 82/226/240 56/56/56 16/16/16
f 58/58/58 25/157/160 23/154/157
f 60/60/60 50/196/202 48/193/199
f 60/60/60 93/93/93 50/196/202
f 64/64/64 63/63/63 116/116/116
f 82/226/240 112/112/112 56/56/56
f 104/262/279 113/113/113 59/59/59
f 58/58/58 23/154/157 57/57/57
f 118/118/118 107/268/285 108/269/287
f 62/62/62 114/114/114 61/61/61
f 110/110/110 119/119/119 85/232/246
f 116/116/116 117/117/117 64/64/64
f 114/114/114 115/115/115 61/61/61
f 56/56/56 14/141/144 16/16/16
