# Wavefront OBJ file
# Exported by Misfit Model 3D 1.3.8
# Tue Oct 27 20:01:27 2020

# 58 Vertices
v -0.080862 -0.090627 0.078089
v -0.080268 2.74778 0.078039
v -0.094549 -0.090627 -0.085645
v -0.093955 2.74778 -0.085694
v 0.083651 -0.090627 0.064467
v 0.083055 2.783027 0.064515
v 0.069964 -0.090627 -0.099268
v 0.069368 2.783027 -0.099218
v -0.047199 1.199403 0.075301
v -0.060887 1.199403 -0.088432
v 0.094386 1.104024 -0.10129
v 0.108073 1.104024 0.062444
v -0.072006 2.784741 0.065492
v -0.083723 2.784741 -0.074677
v 0.067811 2.814915 0.053914
v 0.056094 2.814915 -0.086255
v -0.552662 1.266783 -0.22917
v -0.584113 1.536187 -0.255198
v -0.500748 1.266783 -0.291893
v -0.532195 1.536187 -0.317921
v 0.240507 1.36107 0.427332
v 0.194969 1.751167 0.389642
v 0.292421 1.36107 0.364609
v 0.246887 1.751167 0.326919
v 0.40838 1.593619 0.56628
v 0.212284 1.703867 0.298279
v 0.460296 1.593619 0.503559
v 0.248578 1.39294 0.328319
v 0.196662 1.39294 0.391042
v 0.160367 1.703867 0.361002
v -0.29287 1.908639 0.496717
v -0.273394 2.179906 0.479999
v -0.3459 1.908639 0.434932
v -0.326424 2.179906 0.418215
v 0.48248 1.750652 -0.168768
v 0.510683 2.143447 -0.192976
v 0.42945 1.750652 -0.230553
v 0.457653 2.143447 -0.254759
v 0.68567 1.923472 -0.343168
v 0.415889 2.10844 -0.218912
v 0.63264 1.923472 -0.404949
v 0.393409 1.795361 -0.19962
v 0.446441 1.795361 -0.137835
v 0.468919 2.10844 -0.157128
v 0.355266 2.216104 0.289184
v 0.368524 2.488181 0.295753
v 0.319122 2.216104 0.362144
v 0.33238 2.488181 0.368709
v -0.57119 2.2112 -0.169792
v -0.551991 2.605168 -0.160282
v -0.607335 2.2112 -0.096836
v -0.588137 2.605168 -0.087326
v -0.785544 2.421774 -0.275988
v -0.544009 2.562394 -0.065464
v -0.82169 2.421774 -0.20303
v -0.55931 2.248381 -0.073044
v -0.523165 2.248381 -0.146
v -0.507865 2.562394 -0.13842

# 294 Texture Coordinates
vt 0.486194 0.443989
vt 0.508132 0.976894
vt 0.517212 0.976894
vt 0.486194 0.443989
vt 0.517212 0.976894
vt 0.495275 0.443989
vt 0.495275 0.443989
vt 0.517212 0.976894
vt 0.408862 0.989025
vt 0.495275 0.443989
vt 0.408862 0.989025
vt 0.392265 0.411163
vt 0.392265 0.411163
vt 0.408862 0.989025
vt 0.399782 0.989025
vt 0.392265 0.411163
vt 0.399782 0.989025
vt 0.383184 0.411163
vt 0.383184 0.411163
vt 0.399782 0.989025
vt 0.508132 0.976894
vt 0.383184 0.411163
vt 0.508132 0.976894
vt 0.486194 0.443989
vt 0.399782 0.989025
vt 0.408862 0.989025
vt 0.417668 1.0
vt 0.399782 0.989025
vt 0.417668 1.0
vt 0.409895 1.0
vt 0.399386 0.0
vt 0.383184 0.411163
vt 0.486194 0.443989
vt 0.399386 0.0
vt 0.486194 0.443989
vt 0.508526 0.0
vt 0.408466 0.0
vt 0.392265 0.411163
vt 0.383184 0.411163
vt 0.408466 0.0
vt 0.383184 0.411163
vt 0.399386 0.0
vt 0.517606 0.0
vt 0.495275 0.443989
vt 0.392265 0.411163
vt 0.517606 0.0
vt 0.392265 0.411163
vt 0.408466 0.0
vt 0.508526 0.0
vt 0.486194 0.443989
vt 0.495275 0.443989
vt 0.508526 0.0
vt 0.495275 0.443989
vt 0.517606 0.0
vt 0.417668 1.0
vt 0.510424 0.989615
vt 0.502651 0.989615
vt 0.417668 1.0
vt 0.502651 0.989615
vt 0.409895 1.0
vt 0.517212 0.976894
vt 0.508132 0.976894
vt 0.502651 0.989615
vt 0.517212 0.976894
vt 0.502651 0.989615
vt 0.510424 0.989615
vt 0.508132 0.976894
vt 0.399782 0.989025
vt 0.409895 1.0
vt 0.508132 0.976894
vt 0.409895 1.0
vt 0.502651 0.989615
vt 0.408862 0.989025
vt 0.517212 0.976894
vt 0.510424 0.989615
vt 0.408862 0.989025
vt 0.510424 0.989615
vt 0.417668 1.0
vt 0.821524 0.46718
vt 0.842389 0.5599
vt 0.807946 0.5599
vt 0.821524 0.46718
vt 0.807946 0.5599
vt 0.787083 0.46718
vt 0.289972 0.510599
vt 0.31405 0.617611
vt 0.291094 0.63389
vt 0.289972 0.510599
vt 0.291094 0.63389
vt 0.260886 0.49963
vt 0.325537 0.63389
vt 0.295326 0.49963
vt 0.183957 0.579667
vt 0.324414 0.510599
vt 0.348492 0.617611
vt 0.842389 0.5599
vt 0.324414 0.510599
vt 0.842389 0.5599
vt 0.821524 0.46718
vt 0.289972 0.510599
vt 0.260886 0.49963
vt 0.295326 0.49963
vt 0.289972 0.510599
vt 0.295326 0.49963
vt 0.324414 0.510599
vt 0.31405 0.617611
vt 0.807946 0.5599
vt 0.842389 0.5599
vt 0.31405 0.617611
vt 0.842389 0.5599
vt 0.348492 0.617611
vt 0.291094 0.63389
vt 0.31405 0.617611
vt 0.348492 0.617611
vt 0.291094 0.63389
vt 0.348492 0.617611
vt 0.325537 0.63389
vt 0.295326 0.49963
vt 0.260886 0.49963
vt 0.149516 0.579667
vt 0.295326 0.49963
vt 0.149516 0.579667
vt 0.183957 0.579667
vt 0.291094 0.63389
vt 0.325537 0.63389
vt 0.183957 0.579667
vt 0.291094 0.63389
vt 0.183957 0.579667
vt 0.149516 0.579667
vt 0.260886 0.49963
vt 0.291094 0.63389
vt 0.149516 0.579667
vt 0.787083 0.46718
vt 0.289972 0.510599
vt 0.324414 0.510599
vt 0.787083 0.46718
vt 0.324414 0.510599
vt 0.821524 0.46718
vt 0.295326 0.49963
vt 0.325537 0.63389
vt 0.348492 0.617611
vt 0.295326 0.49963
vt 0.348492 0.617611
vt 0.324414 0.510599
vt 0.787083 0.46718
vt 0.807946 0.5599
vt 0.31405 0.617611
vt 0.787083 0.46718
vt 0.31405 0.617611
vt 0.289972 0.510599
vt 0.649175 0.688087
vt 0.636254 0.781449
vt 0.671435 0.781449
vt 0.649175 0.688087
vt 0.671435 0.781449
vt 0.684355 0.688087
vt 0.193889 0.6491
vt 0.178976 0.756853
vt 0.151269 0.768901
vt 0.193889 0.6491
vt 0.151269 0.768901
vt 0.169979 0.633713
vt 0.116088 0.768901
vt 0.134799 0.633713
vt 0.0 0.693192
vt 0.158707 0.6491
vt 0.143795 0.756853
vt 0.636254 0.781449
vt 0.158707 0.6491
vt 0.636254 0.781449
vt 0.649175 0.688087
vt 0.193889 0.6491
vt 0.169979 0.633713
vt 0.134799 0.633713
vt 0.193889 0.6491
vt 0.134799 0.633713
vt 0.158707 0.6491
vt 0.178976 0.756853
vt 0.671435 0.781449
vt 0.636254 0.781449
vt 0.178976 0.756853
vt 0.636254 0.781449
vt 0.143795 0.756853
vt 0.151269 0.768901
vt 0.178976 0.756853
vt 0.143795 0.756853
vt 0.151269 0.768901
vt 0.143795 0.756853
vt 0.116088 0.768901
vt 0.134799 0.633713
vt 0.169979 0.633713
vt 0.035181 0.693192
vt 0.134799 0.633713
vt 0.035181 0.693192
vt 0.0 0.693192
vt 0.151269 0.768901
vt 0.116088 0.768901
vt 0.0 0.693192
vt 0.151269 0.768901
vt 0.0 0.693192
vt 0.035181 0.693192
vt 0.169979 0.633713
vt 0.151269 0.768901
vt 0.035181 0.693192
vt 0.684355 0.688087
vt 0.193889 0.6491
vt 0.158707 0.6491
vt 0.684355 0.688087
vt 0.158707 0.6491
vt 0.649175 0.688087
vt 0.134799 0.633713
vt 0.116088 0.768901
vt 0.143795 0.756853
vt 0.134799 0.633713
vt 0.143795 0.756853
vt 0.158707 0.6491
vt 0.684355 0.688087
vt 0.671435 0.781449
vt 0.178976 0.756853
vt 0.684355 0.688087
vt 0.178976 0.756853
vt 0.193889 0.6491
vt 0.219194 0.793907
vt 0.210398 0.887548
vt 0.234377 0.887548
vt 0.219194 0.793907
vt 0.234377 0.887548
vt 0.243172 0.793907
vt 0.825934 0.805016
vt 0.815783 0.91309
vt 0.845058 0.927811
vt 0.825934 0.805016
vt 0.845058 0.927811
vt 0.857794 0.792219
vt 0.821079 0.927811
vt 0.833815 0.792219
vt 0.97602 0.864693
vt 0.801955 0.805016
vt 0.791805 0.91309
vt 0.210398 0.887548
vt 0.801955 0.805016
vt 0.210398 0.887548
vt 0.219194 0.793907
vt 0.825934 0.805016
vt 0.857794 0.792219
vt 0.833815 0.792219
vt 0.825934 0.805016
vt 0.833815 0.792219
vt 0.801955 0.805016
vt 0.815783 0.91309
vt 0.234377 0.887548
vt 0.210398 0.887548
vt 0.815783 0.91309
vt 0.210398 0.887548
vt 0.791805 0.91309
vt 0.845058 0.927811
vt 0.815783 0.91309
vt 0.791805 0.91309
vt 0.845058 0.927811
vt 0.791805 0.91309
vt 0.821079 0.927811
vt 0.833815 0.792219
vt 0.857794 0.792219
vt 1.0 0.864693
vt 0.833815 0.792219
vt 1.0 0.864693
vt 0.97602 0.864693
vt 0.845058 0.927811
vt 0.821079 0.927811
vt 0.97602 0.864693
vt 0.845058 0.927811
vt 0.97602 0.864693
vt 1.0 0.864693
vt 0.857794 0.792219
vt 0.845058 0.927811
vt 1.0 0.864693
vt 0.243172 0.793907
vt 0.825934 0.805016
vt 0.801955 0.805016
vt 0.243172 0.793907
vt 0.801955 0.805016
vt 0.219194 0.793907
vt 0.833815 0.792219
vt 0.821079 0.927811
vt 0.791805 0.91309
vt 0.833815 0.792219
vt 0.791805 0.91309
vt 0.801955 0.805016
vt 0.243172 0.793907
vt 0.234377 0.887548
vt 0.815783 0.91309
vt 0.243172 0.793907
vt 0.815783 0.91309
vt 0.825934 0.805016

# 294 Vertex Normals
vn -0.996509 -0.00556 0.083306
vn -0.656757 0.290946 0.695716
vn -0.972449 0.182377 -0.145193
vn -0.996509 -0.00556 0.083306
vn -0.972449 0.182377 -0.145193
vn -0.996471 0.010311 0.083302
vn -0.082525 0.0 -0.996589
vn -0.116113 0.162039 -0.979929
vn -0.116114 0.162036 -0.979929
vn -0.082525 0.0 -0.996589
vn -0.116114 0.162036 -0.979929
vn -0.082526 0.0 -0.996589
vn 0.996519 0.003131 -0.083302
vn 0.972862 0.216625 -0.081325
vn 0.972861 0.216626 -0.081324
vn 0.996519 0.003131 -0.083302
vn 0.972861 0.216626 -0.081324
vn 0.996487 -0.00869 -0.083299
vn 0.082522 0.0 0.996589
vn 0.046656 0.162011 0.985685
vn 0.046657 0.162007 0.985686
vn 0.082522 0.0 0.996589
vn 0.046657 0.162007 0.985686
vn 0.08252 0.0 0.996589
vn 0.944667 0.288831 0.155503
vn 0.575238 0.379359 -0.724698
vn 0.357964 0.883921 -0.300907
vn 0.944667 0.288831 0.155503
vn 0.357964 0.883921 -0.300907
vn 0.254174 0.716577 0.649549
vn 0.08252 0.000001 0.996589
vn 0.082522 0.0 0.996589
vn 0.08252 0.0 0.996589
vn 0.08252 0.000001 0.996589
vn 0.08252 0.0 0.996589
vn 0.08252 0.0 0.996589
vn 0.996315 -0.020508 -0.083285
vn 0.996519 0.003131 -0.083302
vn 0.996487 -0.00869 -0.083299
vn 0.996315 -0.020508 -0.083285
vn 0.996487 -0.00869 -0.083299
vn 0.996315 -0.020508 -0.083284
vn -0.082526 0.0 -0.996589
vn -0.082525 0.0 -0.996589
vn -0.082526 0.0 -0.996589
vn -0.082526 0.0 -0.996589
vn -0.082526 0.0 -0.996589
vn -0.082526 0.0 -0.996589
vn -0.996183 0.026175 0.083277
vn -0.996509 -0.00556 0.083306
vn -0.996471 0.010311 0.083302
vn -0.996183 0.026175 0.083277
vn -0.996471 0.010311 0.083302
vn -0.996183 0.026174 0.083274
vn 0.357964 0.883921 -0.300907
vn -0.496177 0.628325 -0.599179
vn -0.616815 0.727176 0.301254
vn 0.357964 0.883921 -0.300907
vn -0.616815 0.727176 0.301254
vn 0.254174 0.716577 0.649549
vn -0.972449 0.182377 -0.145193
vn -0.656757 0.290946 0.695716
vn -0.616815 0.727176 0.301254
vn -0.972449 0.182377 -0.145193
vn -0.616815 0.727176 0.301254
vn -0.496177 0.628325 -0.599179
vn -0.394537 0.190999 0.89881
vn 0.668901 0.398551 0.627478
vn 0.254174 0.716577 0.649549
vn -0.394537 0.190999 0.89881
vn 0.254174 0.716577 0.649549
vn -0.616815 0.727176 0.301254
vn 0.109947 0.255527 -0.96053
vn -0.919426 0.169008 -0.355094
vn -0.496177 0.628325 -0.599179
vn 0.109947 0.255527 -0.96053
vn -0.496177 0.628325 -0.599179
vn 0.357964 0.883921 -0.300907
vn -0.631549 -0.572619 -0.522736
vn -0.454531 0.807373 -0.37623
vn -0.733882 0.304035 -0.607438
vn -0.631549 -0.572619 -0.522736
vn -0.733882 0.304035 -0.607438
vn -0.249876 -0.945934 -0.206813
vn 0.637619 -0.0 -0.770352
vn 0.637614 0.0 -0.770356
vn 0.63762 -0.000001 -0.770351
vn 0.637619 -0.0 -0.770352
vn 0.63762 -0.000001 -0.770351
vn 0.637626 -0.000002 -0.770346
vn -0.637616 -0.000003 0.770354
vn -0.637616 -0.000003 0.770354
vn -0.637616 -0.000003 0.770354
vn -0.637616 -0.000005 0.770354
vn -0.637616 -0.000003 0.770355
vn -0.637616 -0.000007 0.770354
vn -0.637616 -0.000005 0.770354
vn -0.637616 -0.000007 0.770354
vn -0.637617 -0.000011 0.770354
vn -0.228138 -0.955143 -0.188827
vn 0.117938 -0.988212 0.097613
vn 0.117938 -0.988211 0.09762
vn -0.228138 -0.955143 -0.188827
vn 0.117938 -0.988211 0.09762
vn -0.062195 -0.996735 -0.05148
vn -0.286879 0.928071 -0.237456
vn -0.733882 0.304035 -0.607438
vn -0.454531 0.807373 -0.37623
vn -0.286879 0.928071 -0.237456
vn -0.454531 0.807373 -0.37623
vn -0.435873 0.82453 -0.360784
vn -0.112885 0.989205 -0.093437
vn -0.286879 0.928071 -0.237456
vn -0.435873 0.82453 -0.360784
vn -0.112885 0.989205 -0.093437
vn -0.435873 0.82453 -0.360784
vn -0.112886 0.989205 -0.09344
vn 0.117938 -0.988211 0.09762
vn 0.117938 -0.988212 0.097613
vn 0.562116 -0.68378 0.465263
vn 0.117938 -0.988211 0.09762
vn 0.562116 -0.68378 0.465263
vn 0.562109 -0.683778 0.465275
vn -0.112885 0.989205 -0.093437
vn -0.112886 0.989205 -0.09344
vn 0.38082 0.869261 0.315217
vn -0.112885 0.989205 -0.093437
vn 0.38082 0.869261 0.315217
vn 0.380821 0.869261 0.315216
vn 0.637626 -0.000002 -0.770346
vn 0.63762 -0.000001 -0.770351
vn 0.637621 -0.000003 -0.77035
vn -0.249876 -0.945934 -0.206813
vn -0.228138 -0.955143 -0.188827
vn -0.062195 -0.996735 -0.05148
vn -0.249876 -0.945934 -0.206813
vn -0.062195 -0.996735 -0.05148
vn -0.631549 -0.572619 -0.522736
vn -0.637616 -0.000003 0.770354
vn -0.637616 -0.000003 0.770354
vn -0.637616 -0.000003 0.770355
vn -0.637616 -0.000003 0.770354
vn -0.637616 -0.000003 0.770355
vn -0.637616 -0.000005 0.770354
vn 0.637616 0.000001 -0.770354
vn 0.637616 0.000001 -0.770354
vn 0.637614 0.0 -0.770356
vn 0.637616 0.000001 -0.770354
vn 0.637614 0.0 -0.770356
vn 0.637619 -0.0 -0.770352
vn -0.708839 -0.356925 0.608401
vn -0.285954 0.926277 0.245438
vn -0.645462 0.525794 0.554003
vn -0.708839 -0.356925 0.608401
vn -0.645462 0.525794 0.554003
vn -0.412711 -0.83916 0.354231
vn -0.651298 0.000005 -0.758822
vn -0.651302 0.000004 -0.758818
vn -0.651297 0.000003 -0.758823
vn -0.651298 0.000005 -0.758822
vn -0.651297 0.000003 -0.758823
vn -0.651289 0.0 -0.758829
vn 0.651309 0.000001 0.758812
vn 0.651308 0.0 0.758814
vn 0.651301 0.000002 0.75882
vn 0.6513 0.000001 0.75882
vn 0.651307 -0.0 0.758814
vn 0.651298 0.000003 0.758822
vn 0.6513 0.000001 0.75882
vn 0.651298 0.000003 0.758822
vn 0.651299 0.000005 0.758821
vn -0.393636 -0.854926 0.337864
vn -0.068976 -0.99586 0.059202
vn -0.068981 -0.99586 0.059204
vn -0.393636 -0.854926 0.337864
vn -0.068981 -0.99586 0.059204
vn -0.242697 -0.947472 0.208313
vn -0.10354 0.990647 0.088869
vn -0.645462 0.525794 0.554003
vn -0.285954 0.926277 0.245438
vn -0.10354 0.990647 0.088869
vn -0.285954 0.926277 0.245438
vn -0.264965 0.937055 0.227425
vn 0.073983 0.995235 -0.063508
vn -0.10354 0.990647 0.088869
vn -0.264965 0.937055 0.227425
vn 0.073983 0.995235 -0.063508
vn -0.264965 0.937055 0.227425
vn 0.073987 0.995235 -0.063505
vn -0.068981 -0.99586 0.059204
vn -0.068976 -0.99586 0.059202
vn 0.411482 -0.840204 -0.353186
vn -0.068981 -0.99586 0.059204
vn 0.411482 -0.840204 -0.353186
vn 0.411475 -0.840205 -0.353192
vn 0.073983 0.995235 -0.063508
vn 0.073987 0.995235 -0.063505
vn 0.523756 0.723585 -0.449561
vn 0.073983 0.995235 -0.063508
vn 0.523756 0.723585 -0.449561
vn 0.523753 0.723584 -0.449566
vn -0.651289 0.0 -0.758829
vn -0.651297 0.000003 -0.758823
vn -0.651294 0.000001 -0.758826
vn -0.412711 -0.83916 0.354231
vn -0.393636 -0.854926 0.337864
vn -0.242697 -0.947472 0.208313
vn -0.412711 -0.83916 0.354231
vn -0.242697 -0.947472 0.208313
vn -0.708839 -0.356925 0.608401
vn 0.651308 0.0 0.758814
vn 0.651309 0.000001 0.758812
vn 0.651307 -0.0 0.758814
vn 0.651308 0.0 0.758814
vn 0.651307 -0.0 0.758814
vn 0.6513 0.000001 0.75882
vn -0.651298 0.000002 -0.758822
vn -0.651298 -0.000002 -0.758823
vn -0.651302 0.000004 -0.758818
vn -0.651298 0.000002 -0.758822
vn -0.651302 0.000004 -0.758818
vn -0.651298 0.000005 -0.758822
vn 0.780442 -0.491348 0.386638
vn 0.456885 0.860245 0.226351
vn 0.823582 0.394006 0.40801
vn 0.780442 -0.491348 0.386638
vn 0.823582 0.394006 0.40801
vn 0.37061 -0.910461 0.183598
vn -0.443924 0.000001 0.896064
vn -0.443924 0.000004 0.896064
vn -0.443923 0.000002 0.896065
vn -0.443924 0.000001 0.896064
vn -0.443923 0.000002 0.896065
vn -0.44392 0.000002 0.896066
vn 0.443935 -0.000004 -0.896059
vn 0.443929 -0.000002 -0.896062
vn 0.443927 -0.000004 -0.896063
vn 0.44392 0.000001 -0.896066
vn 0.443927 -0.000001 -0.896063
vn 0.443921 0.000002 -0.896066
vn 0.44392 0.000001 -0.896066
vn 0.443921 0.000002 -0.896066
vn 0.443921 0.000003 -0.896066
vn 0.346225 -0.922337 0.171532
vn -0.051624 -0.998339 -0.025577
vn -0.051625 -0.998339 -0.025577
vn 0.346225 -0.922337 0.171532
vn -0.051625 -0.998339 -0.025577
vn 0.157676 -0.984396 0.078119
vn 0.252399 0.95951 0.125044
vn 0.823582 0.394006 0.40801
vn 0.456885 0.860245 0.226351
vn 0.252399 0.95951 0.125044
vn 0.456885 0.860245 0.226351
vn 0.433814 0.874992 0.214926
vn 0.045694 0.998699 0.022636
vn 0.252399 0.95951 0.125044
vn 0.433814 0.874992 0.214926
vn 0.045694 0.998699 0.022636
vn 0.433814 0.874992 0.214926
vn 0.045697 0.998699 0.022641
vn -0.051625 -0.998339 -0.025577
vn -0.051624 -0.998339 -0.025577
vn -0.592059 -0.750616 -0.293327
vn -0.051625 -0.998339 -0.025577
vn -0.592059 -0.750616 -0.293327
vn -0.592059 -0.750616 -0.293327
vn 0.045694 0.998699 0.022636
vn 0.045697 0.998699 0.022641
vn -0.515634 0.817838 -0.255467
vn 0.045694 0.998699 0.022636
vn -0.515634 0.817838 -0.255467
vn -0.515635 0.817837 -0.255464
vn -0.44392 0.000002 0.896066
vn -0.443923 0.000002 0.896065
vn -0.44392 0.000002 0.896066
vn 0.37061 -0.910461 0.183598
vn 0.346225 -0.922337 0.171532
vn 0.157676 -0.984396 0.078119
vn 0.37061 -0.910461 0.183598
vn 0.157676 -0.984396 0.078119
vn 0.780442 -0.491348 0.386638
vn 0.443929 -0.000002 -0.896062
vn 0.443935 -0.000004 -0.896059
vn 0.443927 -0.000001 -0.896063
vn 0.443929 -0.000002 -0.896062
vn 0.443927 -0.000001 -0.896063
vn 0.44392 0.000001 -0.896066
vn -0.443922 0.000006 0.896065
vn -0.443921 0.00001 0.896066
vn -0.443924 0.000004 0.896064
vn -0.443922 0.000006 0.896065
vn -0.443924 0.000004 0.896064
vn -0.443924 0.000001 0.896064

# bois, 26 grouped triangles

o bois
g bois

f 9/1/1 2/2/2 4/3/3
f 9/4/4 4/5/5 10/6/6
f 10/7/7 4/8/8 8/9/9
f 10/10/10 8/11/11 11/12/12
f 11/13/13 8/14/14 6/15/15
f 11/16/16 6/17/17 12/18/18
f 12/19/19 6/20/20 2/21/21
f 12/22/22 2/23/23 9/24/24
f 6/25/25 8/26/26 16/27/27
f 6/28/28 16/29/29 15/30/30
f 5/31/31 12/32/32 9/33/33
f 5/34/34 9/35/35 1/36/36
f 7/37/37 11/38/38 12/39/39
f 7/40/40 12/41/41 5/42/42
f 3/43/43 10/44/44 11/45/45
f 3/46/46 11/47/47 7/48/48
f 1/49/49 9/50/50 10/51/51
f 1/52/52 10/53/53 3/54/54
f 16/55/55 14/56/56 13/57/57
f 16/58/58 13/59/59 15/60/60
f 4/61/61 2/62/62 13/63/63
f 4/64/64 13/65/65 14/66/66
f 2/67/67 6/68/68 15/69/69
f 2/70/70 15/71/71 13/72/72
f 8/73/73 4/74/74 14/75/75
f 8/76/76 14/77/77 16/78/78
# panneau1, 24 grouped triangles

o panneau1
g panneau1

f 17/79/79 18/80/80 20/81/81
f 17/82/82 20/83/83 19/84/84
f 28/85/85 26/86/86 24/87/87
f 28/88/88 24/89/89 23/90/90
f 22/91/91 21/92/92 25/93/93
f 29/94/94 30/95/95 18/96/96
f 29/97/97 18/98/98 17/99/99
f 28/100/100 23/101/101 21/102/102
f 28/103/103 21/104/104 29/105/105
f 26/106/106 20/107/107 18/108/108
f 26/109/109 18/110/110 30/111/111
f 24/112/112 26/113/113 30/114/114
f 24/115/115 30/116/116 22/117/117
f 21/118/118 23/119/119 27/120/120
f 21/121/121 27/122/122 25/123/123
f 24/124/124 22/125/125 25/126/126
f 24/127/127 25/128/128 27/129/129
f 23/130/130 24/131/131 27/132/132
f 19/133/133 28/134/134 29/135/135
f 19/136/136 29/137/137 17/138/138
f 21/139/139 22/140/140 30/141/141
f 21/142/142 30/143/143 29/144/144
f 19/145/145 20/146/146 26/147/147
f 19/148/148 26/149/149 28/150/150
# panneau2, 24 grouped triangles

o panneau2
g panneau2

f 31/151/151 32/152/152 34/153/153
f 31/154/154 34/155/155 33/156/156
f 42/157/157 40/158/158 38/159/159
f 42/160/160 38/161/161 37/162/162
f 36/163/163 35/164/164 39/165/165
f 43/166/166 44/167/167 32/168/168
f 43/169/169 32/170/170 31/171/171
f 42/172/172 37/173/173 35/174/174
f 42/175/175 35/176/176 43/177/177
f 40/178/178 34/179/179 32/180/180
f 40/181/181 32/182/182 44/183/183
f 38/184/184 40/185/185 44/186/186
f 38/187/187 44/188/188 36/189/189
f 35/190/190 37/191/191 41/192/192
f 35/193/193 41/194/194 39/195/195
f 38/196/196 36/197/197 39/198/198
f 38/199/199 39/200/200 41/201/201
f 37/202/202 38/203/203 41/204/204
f 33/205/205 42/206/206 43/207/207
f 33/208/208 43/209/209 31/210/210
f 35/211/211 36/212/212 44/213/213
f 35/214/214 44/215/215 43/216/216
f 33/217/217 34/218/218 40/219/219
f 33/220/220 40/221/221 42/222/222
# panneau3, 24 grouped triangles

o panneau3
g panneau3

f 45/223/223 46/224/224 48/225/225
f 45/226/226 48/227/227 47/228/228
f 56/229/229 54/230/230 52/231/231
f 56/232/232 52/233/233 51/234/234
f 50/235/235 49/236/236 53/237/237
f 57/238/238 58/239/239 46/240/240
f 57/241/241 46/242/242 45/243/243
f 56/244/244 51/245/245 49/246/246
f 56/247/247 49/248/248 57/249/249
f 54/250/250 48/251/251 46/252/252
f 54/253/253 46/254/254 58/255/255
f 52/256/256 54/257/257 58/258/258
f 52/259/259 58/260/260 50/261/261
f 49/262/262 51/263/263 55/264/264
f 49/265/265 55/266/266 53/267/267
f 52/268/268 50/269/269 53/270/270
f 52/271/271 53/272/272 55/273/273
f 51/274/274 52/275/275 55/276/276
f 47/277/277 56/278/278 57/279/279
f 47/280/280 57/281/281 45/282/282
f 49/283/283 50/284/284 58/285/285
f 49/286/286 58/287/287 57/288/288
f 47/289/289 48/290/290 54/291/291
f 47/292/292 54/293/293 56/294/294
