# Wavefront OBJ file
# Exported by Misfit Model 3D 1.3.8
# Thu Dec 08 16:26:24 2022

# 42 Vertices
v -11.143909 3.399295 10.676319
v -12.792799 -2.719858 -4.015078
v -11.031292 7.085839 9.128187
v -12.680182 0.966686 -5.56321
v 3.228252 -0.085119 -6.910604
v 4.764524 2.347489 9.328925
v -10.279404 2.364998 -2.058785
v -10.485516 1.600105 -3.895209
v -10.223096 4.20827 -2.832851
v -10.429206 3.443377 -4.669275
v -8.440653 3.311901 -4.8377
v -8.496963 1.468629 -4.063634
v -8.234541 4.076794 -3.001275
v -8.290851 2.233523 -2.227209
v -9.248848 6.189469 7.123338
v -9.454958 5.424575 5.286914
v -9.192538 8.03274 6.349272
v -9.39865 7.267847 4.512848
v -7.410095 7.13637 4.344423
v -7.466405 5.293099 5.118489
v -7.203985 7.901265 6.180848
v -7.260295 6.057993 6.954914
v 11.06985 -4.297565 -6.036169
v 11.182468 -0.611021 -7.584301
v 12.71874 1.821587 8.655227
v 12.831358 5.50813 7.107096
v 7.617583 1.181717 -3.574603
v 7.411471 0.416824 -5.411028
v 7.673892 3.024991 -4.348669
v 7.467781 2.260096 -6.185094
v 9.456334 2.12862 -6.353518
v 9.400026 0.285349 -5.579452
v 9.662446 2.893514 -4.517094
v 9.606136 1.050242 -3.743028
v 8.648139 5.006187 5.60752
v 8.442027 4.241295 3.771095
v 8.704449 6.84946 4.833454
v 8.498337 6.084566 2.997029
v 10.486891 5.95309 2.828605
v 10.430582 4.109819 3.602671
v 10.693002 6.717984 4.665029
v 10.636693 4.874713 5.439095

# 168 Texture Coordinates
vt 33.0 33.25
vt 32.0 33.0
vt 33.0 33.0
vt 33.0 33.25
vt 32.0 33.25
vt 32.0 33.0
vt 32.5 33.25
vt 32.0 33.0
vt 32.5 33.0
vt 31.0 33.25
vt 32.0 33.25
vt 31.0 33.0
vt 32.5 33.25
vt 31.0 33.25
vt 32.0 33.0
vt 32.0 -32.0
vt 31.0 -32.0
vt 31.0 -31.0
vt 31.0 -32.0
vt 32.0 -31.0
vt 31.0 -31.0
vt 32.5 -32.0
vt 32.0 -31.0
vt 31.0 -32.0
vt 31.0 33.25
vt 31.0 33.0
vt 32.0 33.0
vt 32.5 -32.0
vt 32.5 -31.0
vt 32.0 -31.0
vt 32.0 33.25
vt 32.5 33.0
vt 31.0 33.0
vt 32.0 33.25
vt 32.5 33.25
vt 32.5 33.0
vt 32.0 33.25
vt 33.0 33.0
vt 32.0 33.0
vt 32.0 33.25
vt 33.0 33.25
vt 33.0 33.0
vt 32.5 -31.0
vt 32.0 -32.0
vt 31.0 -31.0
vt 32.5 -31.0
vt 32.5 -32.0
vt 32.0 -32.0
vt 32.25 33.375
vt 32.25 33.25
vt 32.125 33.25
vt 32.25 33.375
vt 32.125 33.25
vt 32.125 33.375
vt 32.375 33.375
vt 32.25 33.25
vt 32.25 33.375
vt 32.375 33.375
vt 32.375 33.25
vt 32.25 33.25
vt 31.125 33.25
vt 31.25 33.25
vt 31.25 33.375
vt 32.25 33.375
vt 32.125 33.375
vt 32.125 33.25
vt 31.125 -31.75
vt 31.25 -31.875
vt 31.25 -31.75
vt 31.125 -31.75
vt 31.125 -31.875
vt 31.25 -31.875
vt 31.125 33.25
vt 31.25 33.375
vt 31.125 33.375
vt 31.125 -31.125
vt 31.125 -31.25
vt 31.25 -31.25
vt 32.25 -31.125
vt 32.25 -31.25
vt 32.375 -31.25
vt 32.25 33.25
vt 32.375 33.375
vt 32.25 33.375
vt 32.25 33.25
vt 32.375 33.25
vt 32.375 33.375
vt 32.375 33.375
vt 32.25 33.25
vt 32.25 33.375
vt 32.25 33.25
vt 32.375 33.375
vt 32.25 33.375
vt 32.375 33.375
vt 32.375 33.25
vt 32.25 33.25
vt 32.25 33.25
vt 32.375 33.25
vt 32.375 33.375
vt 32.25 33.375
vt 32.125 33.25
vt 32.25 33.25
vt 31.125 33.25
vt 31.25 33.25
vt 31.25 33.375
vt 32.25 -31.75
vt 32.25 -31.875
vt 32.375 -31.875
vt 31.125 33.25
vt 31.25 33.375
vt 31.125 33.375
vt 32.25 -31.125
vt 32.375 -31.25
vt 32.375 -31.125
vt 32.875 33.375
vt 32.75 33.25
vt 32.875 33.25
vt 31.125 -31.125
vt 31.25 -31.25
vt 31.25 -31.125
vt 32.25 -31.75
vt 32.375 -31.875
vt 32.375 -31.75
vt 32.25 33.375
vt 32.125 33.25
vt 32.25 33.25
vt 32.25 33.375
vt 32.125 33.375
vt 32.125 33.25
vt 32.25 33.375
vt 32.125 33.25
vt 32.125 33.375
vt 32.25 33.375
vt 32.25 33.25
vt 32.125 33.25
vt 31.25 33.375
vt 31.125 33.25
vt 31.125 33.375
vt 31.25 33.375
vt 31.25 33.25
vt 31.125 33.25
vt 32.875 33.375
vt 32.75 33.25
vt 32.875 33.25
vt 32.875 33.375
vt 32.75 33.375
vt 32.75 33.25
vt 32.875 33.375
vt 32.75 33.25
vt 32.75 33.375
vt 32.875 33.375
vt 32.875 33.25
vt 32.75 33.25
vt 31.25 33.375
vt 31.125 33.25
vt 31.125 33.375
vt 31.25 33.375
vt 31.25 33.25
vt 31.125 33.25
vt 32.875 33.375
vt 32.75 33.25
vt 32.75 33.375
vt 32.875 33.375
vt 32.75 33.375
vt 32.75 33.25
vt 32.875 33.375
vt 32.875 33.25
vt 32.75 33.25

# 168 Vertex Normals
vn -0.994277 0.065738 0.084212
vn -0.994277 0.065738 0.084212
vn -0.994277 0.065738 0.084212
vn -0.994277 0.065738 0.084212
vn -0.994277 0.065738 0.084212
vn -0.994277 0.065738 0.084212
vn 0.103056 0.382447 0.918212
vn 0.103056 0.382447 0.918212
vn 0.103056 0.382447 0.918212
vn -0.103056 -0.382447 -0.918212
vn -0.103056 -0.382447 -0.918212
vn -0.103056 -0.382447 -0.918212
vn 0.103056 0.382447 0.918212
vn 0.103056 0.382447 0.918212
vn 0.103056 0.382447 0.918212
vn -0.028155 -0.921636 0.387033
vn -0.028155 -0.921636 0.387033
vn -0.028155 -0.921636 0.387033
vn 0.028155 0.921636 -0.387033
vn 0.028155 0.921636 -0.387033
vn 0.028155 0.921636 -0.387033
vn 0.028155 0.921636 -0.387033
vn 0.028155 0.921636 -0.387033
vn 0.028155 0.921636 -0.387033
vn 0.103056 0.382447 0.918212
vn 0.103056 0.382447 0.918212
vn 0.103056 0.382447 0.918212
vn 0.028155 0.921636 -0.387033
vn 0.028155 0.921636 -0.387033
vn 0.028155 0.921636 -0.387033
vn -0.103056 -0.382447 -0.918212
vn -0.103056 -0.382447 -0.918212
vn -0.103056 -0.382447 -0.918212
vn -0.103056 -0.382447 -0.918212
vn -0.103056 -0.382447 -0.918212
vn -0.103056 -0.382447 -0.918212
vn 0.994277 -0.065738 -0.084212
vn 0.994277 -0.065738 -0.084212
vn 0.994277 -0.065738 -0.084212
vn 0.994277 -0.065738 -0.084212
vn 0.994277 -0.065738 -0.084212
vn 0.994277 -0.065738 -0.084212
vn -0.028155 -0.921636 0.387033
vn -0.028155 -0.921636 0.387033
vn -0.028155 -0.921636 0.387033
vn -0.028155 -0.921636 0.387033
vn -0.028154 -0.921636 0.387033
vn -0.028155 -0.921636 0.387033
vn 0.994277 -0.065738 -0.084212
vn 0.994277 -0.065738 -0.084212
vn 0.994277 -0.065738 -0.084212
vn 0.994277 -0.065738 -0.084212
vn 0.994277 -0.065738 -0.084212
vn 0.994277 -0.065737 -0.084213
vn -0.103056 -0.382447 -0.918212
vn -0.103056 -0.382447 -0.918212
vn -0.103056 -0.382447 -0.918212
vn -0.103056 -0.382447 -0.918212
vn -0.103056 -0.382447 -0.918212
vn -0.103056 -0.382447 -0.918212
vn 0.103055 0.382447 0.918212
vn 0.103055 0.382447 0.918212
vn 0.103055 0.382447 0.918212
vn -0.994277 0.065738 0.084212
vn -0.994277 0.065738 0.084212
vn -0.994277 0.065738 0.084212
vn 0.028155 0.921636 -0.387033
vn 0.028155 0.921636 -0.387033
vn 0.028155 0.921636 -0.387033
vn 0.028155 0.921636 -0.387033
vn 0.028154 0.921636 -0.387032
vn 0.028155 0.921636 -0.387033
vn 0.103055 0.382447 0.918212
vn 0.103055 0.382447 0.918212
vn 0.103055 0.382447 0.918212
vn 0.028155 0.921636 -0.387033
vn 0.028155 0.921636 -0.387033
vn 0.028155 0.921636 -0.387033
vn 0.028155 0.921636 -0.387033
vn 0.028155 0.921636 -0.387033
vn 0.028155 0.921636 -0.387033
vn 0.103056 0.382447 0.918212
vn 0.103056 0.382447 0.918212
vn 0.103056 0.382447 0.918212
vn 0.103056 0.382447 0.918212
vn 0.103056 0.382447 0.918212
vn 0.103056 0.382447 0.918212
vn -0.103056 -0.382447 -0.918212
vn -0.103056 -0.382447 -0.918212
vn -0.103056 -0.382447 -0.918212
vn 0.103056 0.382447 0.918212
vn 0.103056 0.382447 0.918212
vn 0.103056 0.382447 0.918212
vn -0.103056 -0.382447 -0.918212
vn -0.103055 -0.382447 -0.918212
vn -0.103056 -0.382447 -0.918212
vn 0.103056 0.382447 0.918212
vn 0.103056 0.382447 0.918212
vn 0.103056 0.382447 0.918212
vn -0.994277 0.065738 0.084212
vn -0.994277 0.065738 0.084212
vn -0.994277 0.065738 0.084212
vn 0.103055 0.382447 0.918212
vn 0.103055 0.382447 0.918212
vn 0.103055 0.382447 0.918212
vn 0.028154 0.921636 -0.387033
vn 0.028154 0.921636 -0.387033
vn 0.028154 0.921636 -0.387033
vn 0.103055 0.382447 0.918212
vn 0.103055 0.382447 0.918212
vn 0.103055 0.382447 0.918212
vn 0.028155 0.921636 -0.387033
vn 0.028155 0.921636 -0.387033
vn 0.028154 0.921636 -0.387033
vn -0.994277 0.065738 0.084212
vn -0.994277 0.065738 0.084212
vn -0.994277 0.065738 0.084213
vn 0.028155 0.921636 -0.387033
vn 0.028155 0.921636 -0.387033
vn 0.028155 0.921636 -0.387032
vn 0.028154 0.921636 -0.387033
vn 0.028154 0.921636 -0.387033
vn 0.028155 0.921636 -0.387033
vn -0.994277 0.065738 0.084212
vn -0.994277 0.065738 0.084212
vn -0.994277 0.065737 0.084213
vn -0.994277 0.065738 0.084212
vn -0.994277 0.065738 0.084211
vn -0.994277 0.065738 0.084212
vn 0.994277 -0.065738 -0.084212
vn 0.994277 -0.065738 -0.084212
vn 0.994277 -0.065738 -0.084212
vn 0.994277 -0.065738 -0.084212
vn 0.994277 -0.065738 -0.084212
vn 0.994277 -0.065738 -0.084212
vn -0.103056 -0.382447 -0.918212
vn -0.103056 -0.382447 -0.918212
vn -0.103056 -0.382447 -0.918212
vn -0.103056 -0.382447 -0.918212
vn -0.103056 -0.382447 -0.918212
vn -0.103056 -0.382447 -0.918212
vn -0.994277 0.065738 0.084212
vn -0.994277 0.065738 0.084212
vn -0.994277 0.065738 0.084211
vn -0.994277 0.065738 0.084212
vn -0.994277 0.065737 0.084213
vn -0.994277 0.065738 0.084212
vn 0.994277 -0.065738 -0.084212
vn 0.994277 -0.065738 -0.084212
vn 0.994277 -0.065738 -0.084211
vn 0.994277 -0.065738 -0.084212
vn 0.994277 -0.065738 -0.084212
vn 0.994277 -0.065738 -0.084212
vn -0.103056 -0.382447 -0.918212
vn -0.103056 -0.382447 -0.918212
vn -0.103056 -0.382447 -0.918212
vn -0.103056 -0.382447 -0.918212
vn -0.103056 -0.382447 -0.918212
vn -0.103056 -0.382447 -0.918212
vn 0.994277 -0.065738 -0.084212
vn 0.994277 -0.065738 -0.084212
vn 0.994277 -0.065738 -0.084213
vn -0.994277 0.065738 0.084212
vn -0.994277 0.065738 0.084212
vn -0.994277 0.065738 0.084212
vn 0.994277 -0.065738 -0.084212
vn 0.994277 -0.065738 -0.084212
vn 0.994277 -0.065738 -0.084212

# slot3, 16 grouped triangles

o slot3
g slot3

f 3/1/1 2/2/2 1/3/3
f 3/4/4 4/5/5 2/6/6
f 26/7/7 6/8/8 25/9/9
f 4/10/10 5/11/11 2/12/12
f 26/13/13 3/14/14 6/15/15
f 6/16/16 1/17/17 2/18/18
f 3/19/19 5/20/20 4/21/21
f 26/22/22 5/23/23 3/24/24
f 3/25/25 1/26/26 6/27/27
f 26/28/28 24/29/29 5/30/30
f 5/31/31 23/32/32 2/33/33
f 5/34/34 24/35/35 23/36/36
f 24/37/37 25/38/38 23/39/39
f 24/40/40 26/41/41 25/42/42
f 23/43/43 6/44/44 2/45/45
f 23/46/46 25/47/47 6/48/48
# slot5, 40 grouped triangles

o slot5
g slot5

f 33/49/49 34/50/50 32/51/51
f 33/52/52 32/53/53 31/54/54
f 31/55/55 28/56/56 30/57/57
f 31/58/58 32/59/59 28/60/60
f 15/61/61 22/62/62 21/63/63
f 29/64/64 30/65/65 28/66/66
f 18/67/67 21/68/68 19/69/69
f 18/70/70 17/71/71 21/72/72
f 15/73/73 21/74/74 17/75/75
f 10/76/76 9/77/77 13/78/78
f 30/79/79 29/80/80 33/81/81
f 35/82/82 41/83/83 37/84/84
f 35/85/85 42/86/86 41/87/87
f 39/88/88 36/89/89 38/90/90
f 27/91/91 33/92/92 29/93/93
f 39/94/94 40/95/95 36/96/96
f 27/97/97 34/98/98 33/99/99
f 29/100/100 28/101/101 27/102/102
f 7/103/103 14/104/104 13/105/105
f 38/106/106 37/107/107 41/108/108
f 7/109/109 13/110/110 9/111/111
f 30/112/112 33/113/113 31/114/114
f 37/115/115 36/116/116 35/117/117
f 10/118/118 13/119/119 11/120/120
f 38/121/121 41/122/122 39/123/123
f 9/124/124 8/125/125 7/126/126
f 9/127/127 10/128/128 8/129/129
f 13/130/130 12/131/131 11/132/132
f 13/133/133 14/134/134 12/135/135
f 11/136/136 8/137/137 10/138/138
f 11/139/139 12/140/140 8/141/141
f 17/142/142 16/143/143 15/144/144
f 17/145/145 18/146/146 16/147/147
f 21/148/148 20/149/149 19/150/150
f 21/151/151 22/152/152 20/153/153
f 19/154/154 16/155/155 18/156/156
f 19/157/157 20/158/158 16/159/159
f 41/160/160 40/161/161 39/162/162
f 37/163/163 38/164/164 36/165/165
f 41/166/166 42/167/167 40/168/168
