# Blender 3.4.1
# www.blender.org
mtllib tris.mtl
o Playground_02
v -0.003640 0.002666 0.003640
v -0.005147 0.002666 0.000000
v -0.003640 0.001753 0.003640
v -0.000000 0.002666 0.005147
v -0.000000 0.001751 0.005147
v -0.005147 0.002209 0.000000
v -0.005918 0.002666 -0.000319
v -0.003640 0.002210 0.003640
v -0.000000 0.002209 0.005147
v -0.003959 0.002666 0.004411
v 0.005147 0.001750 -0.000000
v 0.005147 0.002665 0.000000
v 0.003640 0.001766 -0.003640
v 0.003640 0.002673 -0.003640
v 0.005147 0.002207 -0.000000
v 0.003640 0.002221 -0.003640
v 0.004339 0.000000 -0.004339
v 0.004339 0.002164 -0.004339
v 0.003959 0.002666 -0.004411
v 0.005918 0.002666 -0.000319
v 0.004454 0.002164 -0.004616
v 0.004339 0.001082 -0.004339
v 0.004730 0.002666 -0.004730
v -0.004393 0.001766 0.000312
v 0.001822 0.001934 0.000755
v 0.004394 0.001772 -0.000313
v 0.003329 0.001849 -0.002887
v 0.000312 0.001752 0.004393
v -0.001820 0.001968 -0.000754
v -0.005147 0.001751 0.000000
v 0.003440 0.000000 -0.003967
v -0.000899 0.000022 -0.002170
v 0.003967 -0.000000 0.003440
v 0.001271 0.000001 -0.003068
v -0.003640 0.001764 -0.001508
v 0.000899 0.000002 0.002170
v 0.002771 0.002164 0.006689
v -0.002771 0.002164 0.006689
v -0.006689 0.002164 0.002771
v -0.006689 0.002164 -0.002771
v 0.002132 0.001751 -0.005147
v -0.002132 0.001751 -0.005147
v 0.005147 0.001757 -0.002132
v 0.005147 0.001744 0.002132
v 0.002132 0.001751 0.005147
v -0.002132 0.001751 0.005147
v -0.005147 0.001751 0.002132
v -0.005147 0.001751 -0.002132
v 0.000000 0.000085 0.000000
v 0.000002 0.002247 0.000002
v -0.001797 0.000000 -0.004339
v 0.001797 -0.000000 0.004339
v 0.004339 0.000008 -0.001797
v -0.004339 -0.000000 0.001797
v 0.001508 0.001760 -0.003640
v -0.001509 0.001835 0.003641
v 0.003640 0.001729 0.001508
v -0.000756 0.001973 0.001823
v -0.000312 0.001751 -0.004393
v -0.003068 0.000007 -0.001271
v 0.003068 -0.000005 0.001271
v -0.001271 0.000028 0.003069
v -0.001066 0.001840 -0.002574
v 0.001066 0.001766 0.002574
v -0.002575 0.001928 0.001068
v 0.002577 0.001921 -0.001068
v -0.003967 0.000000 -0.003440
v 0.000372 0.000000 -0.005238
v 0.002170 0.000037 -0.000899
v 0.002886 0.001748 0.003327
v -0.000372 -0.000000 0.005238
v -0.002170 0.000032 0.000899
v -0.003328 0.001792 0.002886
v 0.000755 0.001860 -0.001820
v 0.005238 -0.000000 0.000372
v 0.006689 0.002164 0.002771
v -0.003440 -0.000000 0.003967
v -0.005238 0.000000 -0.000372
v -0.003640 0.001751 -0.003640
v -0.002886 0.001753 -0.003327
v 0.006689 0.002666 0.002771
v 0.006689 0.002666 -0.002771
v 0.002771 0.002666 0.006689
v -0.002771 0.002164 -0.006689
v -0.002771 0.002666 0.006689
v -0.002771 0.002666 -0.006689
v -0.006689 0.002666 0.002771
v -0.006689 0.002666 -0.002771
v 0.002771 0.002164 -0.006689
v 0.006689 0.002164 -0.002771
v 0.002771 0.002666 -0.006689
v -0.006136 0.002164 -0.002542
v -0.006136 0.002164 0.002542
v -0.002542 0.002164 0.006136
v 0.002542 0.002164 0.006136
v 0.006136 0.002164 0.002542
v 0.006136 0.002164 -0.002542
v 0.002542 0.002164 -0.006136
v -0.002542 0.002164 -0.006136
v -0.005147 0.002666 -0.002132
v -0.006136 0.000000 -0.002542
v -0.005147 0.002666 0.002132
v -0.006136 -0.000000 0.002542
v -0.002132 0.002666 0.005147
v -0.002542 -0.000000 0.006136
v 0.002132 0.002666 0.005147
v 0.002542 -0.000000 0.006136
v 0.005147 0.002661 0.002132
v 0.006136 -0.000000 0.002542
v 0.005147 0.002668 -0.002132
v 0.006136 0.000000 -0.002542
v 0.002132 0.002666 -0.005147
v 0.002542 0.000000 -0.006136
v -0.002132 0.002666 -0.005147
v -0.002542 0.000000 -0.006136
vn -0.0004 1.0000 0.0003
vn -0.0000 1.0000 -0.0000
vn -0.0001 1.0000 0.0001
vn 0.7071 -0.0000 -0.7071
vn -0.0000 -1.0000 -0.0000
vn 0.0004 1.0000 0.0002
vn -0.0016 1.0000 0.0018
vn -0.0007 1.0000 0.0002
vn 1.0000 -0.0000 -0.0000
vn 0.0286 0.9996 0.0025
vn 0.0282 0.9996 0.0033
vn 0.0285 0.9996 0.0026
vn -0.0368 0.9987 0.0360
vn -0.0364 0.9987 0.0369
vn -0.0384 0.9985 0.0384
vn -0.0198 -0.9994 -0.0299
vn -0.0234 -0.9993 -0.0284
vn -0.0011 1.0000 -0.0007
vn -0.0000 -0.0000 -1.0000
vn -0.0000 1.0000 0.0002
vn -0.0004 1.0000 0.0011
vn 0.0002 1.0000 -0.0003
vn 0.0282 0.9996 0.0035
vn -1.0000 -0.0000 -0.0000
vn -0.0004 1.0000 0.0016
vn -0.0000 1.0000 0.0005
vn -1.0000 -0.0001 -0.0000
vn 0.0806 0.9938 -0.0766
vn 0.0711 0.9942 -0.0805
vn 0.0724 0.9942 -0.0800
vn -0.7071 -0.0001 0.7071
vn -0.7072 -0.0001 0.7070
vn -0.7071 -0.0002 0.7071
vn -0.0369 0.9987 0.0360
vn 0.0039 1.0000 -0.0079
vn 0.0045 1.0000 -0.0038
vn 0.0068 1.0000 -0.0021
vn 0.0817 0.9937 -0.0761
vn -0.7071 -0.0003 0.7071
vn -0.7071 -0.0004 0.7072
vn -0.7070 -0.0000 0.7072
vn 0.0007 1.0000 -0.0008
vn 0.0002 -1.0000 -0.0001
vn -0.0019 -1.0000 0.0032
vn 0.0018 1.0000 -0.0046
vn -0.0453 0.9974 0.0563
vn -0.0460 0.9974 0.0560
vn -0.0467 0.9973 0.0561
vn -0.0001 -1.0000 0.0002
vn -0.0770 0.9966 -0.0285
vn -0.0787 0.9966 -0.0245
vn -0.0179 0.9998 -0.0040
vn -0.0089 0.9999 -0.0103
vn -0.0098 1.0000 -0.0006
vn 0.1122 0.9841 0.1376
vn 0.0979 0.9946 0.0335
vn 0.0699 0.9920 0.1047
vn -0.0735 0.9903 0.1180
vn -0.0016 1.0000 -0.0052
vn -0.0020 1.0000 -0.0065
vn -0.0004 1.0000 -0.0012
vn 0.0005 1.0000 -0.0002
vn 0.0152 0.9990 -0.0424
vn 0.0172 0.9990 -0.0415
vn 0.0135 0.9989 -0.0451
vn -0.0037 0.9999 -0.0100
vn 0.0008 1.0000 -0.0016
vn -0.0003 1.0000 -0.0036
vn 0.0105 0.9999 -0.0017
vn 0.0119 0.9999 -0.0052
vn -0.0474 0.9973 0.0559
vn -0.0167 0.9997 0.0164
vn 0.0726 0.9971 0.0220
vn 0.0102 0.9987 -0.0505
vn 0.0117 0.9988 -0.0468
vn 0.0453 0.9808 -0.1896
vn -0.1367 0.9900 -0.0349
vn -0.0070 1.0000 -0.0029
vn -0.0404 0.9990 -0.0177
vn -0.0395 0.9990 -0.0198
vn -0.0277 0.9983 -0.0509
vn -0.0387 0.9990 -0.0219
vn -0.0008 1.0000 -0.0037
vn -0.0050 1.0000 -0.0055
vn -0.0481 0.9973 0.0562
vn -0.0016 1.0000 -0.0016
vn 0.0194 0.9978 0.0631
vn 0.0361 0.9991 0.0227
vn -0.0027 1.0000 0.0067
vn 0.0015 -1.0000 -0.0006
vn 0.0054 -1.0000 -0.0022
vn 0.0134 -0.9999 -0.0065
vn 0.0017 -1.0000 -0.0007
vn -0.0031 -1.0000 -0.0024
vn 0.0001 -1.0000 -0.0002
vn -0.1042 0.9881 -0.1128
vn 0.0091 -0.9999 -0.0044
vn 0.0013 -1.0000 -0.0006
vn 0.0019 -1.0000 0.0008
vn -0.0195 0.9998 -0.0000
vn -0.0094 0.9982 -0.0586
vn 0.0090 1.0000 0.0018
vn -0.1031 0.9945 -0.0209
vn -0.0754 0.9966 -0.0325
vn 0.7071 -0.0000 0.7071
vn -0.0007 -1.0000 0.0033
vn -0.0004 -1.0000 -0.0002
vn -0.0162 -0.9994 -0.0313
vn 0.0570 0.9982 -0.0159
vn 0.0614 0.9969 0.0487
vn -0.0103 -0.9999 0.0032
vn 0.1474 0.9876 0.0541
vn -0.0002 -1.0000 -0.0001
vn 0.0006 -1.0000 0.0013
vn -0.0015 -1.0000 0.0071
vn 0.0001 -1.0000 0.0003
vn -0.0218 -0.9997 -0.0102
vn -0.0181 -0.9998 -0.0117
vn -0.0092 -0.9998 0.0203
vn -0.0130 -0.9997 0.0219
vn 0.0004 -1.0000 0.0009
vn -0.0041 -1.0000 -0.0052
vn -0.0022 -1.0000 -0.0054
vn -0.0006 -1.0000 -0.0015
vn -0.0045 -0.9999 -0.0108
vn 0.0160 -0.9998 -0.0085
vn 0.0203 -0.9997 -0.0103
vn 0.0207 -0.9998 0.0028
vn 0.0165 -0.9999 0.0046
vn 0.0162 -0.9996 0.0223
vn -0.0045 -0.9999 0.0120
vn -0.0396 0.9990 -0.0221
vn 0.0627 0.9911 0.1176
vn -0.0397 0.9985 0.0387
vn -0.0705 0.9926 -0.0991
vn -0.0048 0.9999 -0.0122
vn -0.0031 -1.0000 0.0002
vn -0.0054 -0.9998 0.0187
vn 0.0095 -0.9999 0.0062
vn 0.0438 0.9851 0.1661
vn 0.0647 0.9812 -0.1817
vn 0.0022 -0.9996 0.0281
vn -0.0256 -0.9996 -0.0086
vn -0.0000 -0.0000 1.0000
vn -0.7071 -0.0000 -0.7071
vn -0.7071 -0.0000 0.7071
vn 0.0250 -0.9997 0.0011
vt 0.778198 0.299188
vt 0.582874 0.356545
vt 0.778198 0.299188
vt 0.902214 0.237180
vt 0.525517 0.210827
vt 0.525517 0.210827
vt 0.902214 0.237180
vt 0.582874 0.356545
vt 0.582874 0.356545
vt 0.778198 0.299188
vt 0.525517 0.210827
vt 0.778198 0.299188
vt 0.902214 0.237180
vt 0.598376 0.165871
vt 0.598376 0.165871
vt 0.902214 0.237180
vt 0.652633 0.234080
vt 0.652633 0.234080
vt 0.598376 0.165871
vt 0.652633 0.234080
vt 0.652633 0.234080
vt 0.336393 0.038755
vt 0.652633 0.234080
vt 0.652633 0.234080
vt 0.598376 0.165871
vt 0.652633 0.234080
vt 0.652633 0.234080
vt 0.652633 0.234080
vt 0.902214 0.237180
vt 0.902214 0.237180
vt 0.902214 0.237180
vt 0.902214 0.237180
vt 0.902214 0.237180
vt 0.902214 0.237180
vt 0.902214 0.237180
vt 0.582874 0.356545
vt 0.336393 0.038755
vt 0.336393 0.038755
vt 0.336393 0.038755
vt 0.336393 0.038755
vt 0.902214 0.237180
vt 0.336393 0.038755
vt 0.540305 0.231695
vt 0.228716 0.234795
vt 0.782000 0.299903
vt 0.537069 0.231695
vt 0.588090 0.363461
vt 0.778764 0.299903
vt 0.287217 0.240996
vt 0.584854 0.363461
vt 0.652633 0.234080
vt 0.902214 0.237180
vt 0.398709 0.290415
vt 0.285236 0.237180
vt 0.394316 0.292235
vt 0.902214 0.237180
vt 0.290453 0.230227
vt 0.598376 0.165871
vt 0.652633 0.234080
vt 0.902214 0.237180
vt 0.598376 0.165871
vt 0.902214 0.237180
vt 0.226637 0.213420
vt 0.525517 0.210827
vt 0.902214 0.237180
vt 0.222244 0.211600
vt 0.778198 0.299188
vt 0.525517 0.210827
vt 0.902214 0.237180
vt 0.778198 0.299188
vt 0.902214 0.237180
vt 0.582874 0.356545
vt 0.582874 0.356545
vt 0.902214 0.237180
vt 0.285236 0.237180
vt 0.336393 0.038755
vt 0.902214 0.237180
vt 0.336393 0.038755
vt 0.336393 0.038755
vt 0.336393 0.038755
vt 0.336393 0.038755
vt 0.902214 0.237180
vt 0.902214 0.237180
vt 0.902214 0.237180
vt 0.902214 0.237180
vt 0.902214 0.237180
vt 0.336393 0.038755
vt 0.336393 0.038755
vt 0.336393 0.038755
vt 0.902214 0.237180
vt 0.902214 0.237180
vt 0.902214 0.237180
vt 0.902214 0.237180
vt 0.336393 0.038755
vt 0.336393 0.038755
vt 0.336393 0.038755
vt 0.902214 0.237180
vt 0.336393 0.038755
vt 0.336393 0.038755
vt 0.902214 0.237180
vt 0.902214 0.237180
vt 0.336393 0.038755
vt 0.231952 0.234795
vt 0.590047 0.177438
vt 0.336393 0.038755
vt 0.336393 0.038755
vt 0.902214 0.237180
vt 0.285236 0.237180
vt 0.902214 0.237180
vt 0.598376 0.165871
vt 0.590047 0.179871
vt 0.226637 0.213420
vt 0.231952 0.237229
vt 0.598376 0.165871
vt 0.652633 0.234080
vt 0.593283 0.179871
vt 0.525517 0.210827
vt 0.228716 0.237229
vt 0.533833 0.208500
vt 0.222244 0.211600
vt 0.540305 0.234128
vt 0.283981 0.240996
vt 0.413731 0.303004
vt 0.778198 0.299188
vt 0.537069 0.234128
vt 0.529440 0.210320
vt 0.782000 0.302337
vt 0.283981 0.243429
vt 0.290453 0.230227
vt 0.413731 0.305437
vt 0.394316 0.292235
vt 0.778198 0.299188
vt 0.582874 0.356545
vt 0.778764 0.302337
vt 0.588090 0.365895
vt 0.582874 0.356545
vt 0.584854 0.365895
vt 0.287217 0.243429
vt 0.286059 0.228407
vt 0.652633 0.234080
vt 0.658527 0.239446
vt 0.410495 0.303004
vt 0.652633 0.234080
vt 0.593283 0.177438
vt 0.655291 0.239446
vt 0.652633 0.234080
vt 0.410495 0.305437
vt 0.398709 0.290415
vt 0.658527 0.241879
vt 0.584854 0.363461
vt 0.287217 0.240996
vt 0.778764 0.299903
vt 0.588090 0.363461
vt 0.537069 0.231695
vt 0.782000 0.299903
vt 0.540305 0.231695
vt 0.228716 0.234795
vt 0.231952 0.234795
vt 0.590047 0.177438
vt 0.652633 0.234080
vt 0.593283 0.177438
vt 0.652633 0.234080
vt 0.410495 0.303004
vt 0.283981 0.240996
vt 0.413731 0.303004
vt 0.582874 0.356545
vt 0.285236 0.237180
vt 0.286059 0.228407
vt 0.336393 0.038755
vt 0.584854 0.352951
vt 0.287217 0.230486
vt 0.778198 0.299188
vt 0.582874 0.356545
vt 0.336393 0.038755
vt 0.778764 0.289393
vt 0.588090 0.352951
vt 0.525517 0.210827
vt 0.778198 0.299188
vt 0.529440 0.210320
vt 0.336393 0.038755
vt 0.537069 0.221185
vt 0.782000 0.289393
vt 0.525517 0.210827
vt 0.222244 0.211600
vt 0.336393 0.038755
vt 0.228716 0.224285
vt 0.540305 0.221185
vt 0.598376 0.165871
vt 0.226637 0.213420
vt 0.336393 0.038755
vt 0.590047 0.166928
vt 0.231952 0.224285
vt 0.598376 0.165871
vt 0.652633 0.234080
vt 0.652633 0.234080
vt 0.336393 0.038755
vt 0.593283 0.166928
vt 0.652633 0.234080
vt 0.398709 0.290415
vt 0.652633 0.234080
vt 0.336393 0.038755
vt 0.410495 0.292494
vt 0.290453 0.230227
vt 0.394316 0.292235
vt 0.336393 0.038755
vt 0.413731 0.292494
vt 0.283981 0.230486
s 1
usemtl City_05.026
f 1/1/1 102/172/2 10/12/3
f 1/1/4 104/178/4 8/10/4
f 89/140/5 21/26/5 98/162/5
f 2/2/2 100/166/2 7/9/2
f 82/114/6 20/25/7 81/110/8
f 2/2/9 102/173/9 6/8/9
f 44/62/10 11/13/11 26/31/12
f 46/67/4 3/3/4 8/10/4
f 3/4/13 46/69/14 73/100/15
f 49/76/16 36/42/16 62/89/17
f 3/3/4 47/70/4 8/10/4
f 4/5/2 104/177/2 83/117/18
f 4/5/19 106/183/19 9/11/19
f 5/7/20 45/65/21 28/33/22
f 5/6/19 46/68/19 9/11/19
f 6/8/9 48/73/9 100/166/9
f 111/195/4 22/27/4 97/160/4
f 6/8/9 102/173/9 30/36/9
f 102/172/4 1/1/4 8/10/4
f 7/9/2 88/136/2 87/133/2
f 8/10/4 104/178/4 46/67/4
f 8/10/4 47/70/4 102/172/4
f 9/11/19 106/183/19 45/64/19
f 9/11/19 46/68/19 104/177/19
f 10/12/3 102/172/2 87/132/2
f 10/12/3 85/124/2 104/178/2
f 85/124/2 10/12/3 87/132/2
f 11/13/11 43/60/23 26/31/12
f 11/14/24 44/61/24 15/19/24
f 12/15/25 108/188/26 20/25/7
f 12/15/24 110/193/27 15/19/24
f 97/160/5 18/23/5 21/26/5
f 88/136/2 7/9/2 100/166/2
f 13/16/28 41/52/29 27/32/30
f 13/17/31 43/59/32 16/20/33
f 47/71/34 3/4/13 73/100/15
f 14/18/35 110/194/36 19/24/37
f 45/64/19 5/6/19 9/11/19
f 43/60/38 13/16/28 27/32/30
f 46/69/20 5/7/20 28/33/22
f 14/18/39 112/198/40 16/20/33
f 15/19/24 110/193/27 43/58/27
f 15/19/24 44/61/24 108/188/24
f 16/20/33 112/198/40 41/51/41
f 43/58/27 11/14/24 15/19/24
f 16/20/33 43/59/32 110/194/32
f 91/146/2 19/24/37 23/28/42
f 17/22/5 111/196/43 31/37/44
f 110/194/32 14/18/39 16/20/33
f 17/21/4 113/200/4 22/27/4
f 18/23/4 97/160/4 22/27/4
f 18/23/5 98/162/5 21/26/5
f 19/24/37 91/146/2 112/198/45
f 19/24/37 110/194/36 23/28/42
f 20/25/7 108/188/26 81/110/8
f 47/71/46 73/100/47 65/92/48
f 20/25/7 82/114/6 110/193/36
f 98/162/4 18/23/4 22/27/4
f 21/26/5 89/140/5 90/143/5
f 111/195/4 17/21/4 22/27/4
f 113/201/49 17/22/5 31/37/44
f 23/28/4 82/115/4 90/143/4
f 97/160/5 21/26/5 90/143/5
f 41/51/41 13/17/31 16/20/33
f 24/29/50 47/71/51 65/92/50
f 98/162/4 22/27/4 113/200/4
f 24/29/52 35/41/53 30/35/54
f 25/30/55 50/77/55 64/91/55
f 25/30/56 57/84/56 66/93/56
f 58/85/57 56/83/57 64/91/57
f 58/85/58 50/77/58 65/92/58
f 59/86/59 55/82/60 41/52/61
f 106/183/62 4/5/2 83/117/18
f 59/86/63 42/56/64 63/90/65
f 70/97/66 45/65/67 44/62/68
f 70/97/69 57/84/70 64/91/69
f 100/166/9 2/2/9 6/8/9
f 91/146/4 23/28/4 90/143/4
f 48/73/9 6/8/9 30/36/9
f 73/100/47 56/83/71 65/92/48
f 26/31/72 57/84/72 44/62/72
f 104/177/19 4/5/19 9/11/19
f 26/31/73 43/60/73 66/93/73
f 74/101/74 55/82/75 63/90/65
f 102/173/2 7/9/2 87/133/2
f 74/101/76 50/77/76 66/93/76
f 50/77/77 29/34/77 65/92/77
f 110/193/36 12/15/25 20/25/7
f 104/178/2 1/1/1 10/12/3
f 48/74/78 30/35/54 35/41/53
f 108/188/24 12/15/24 15/19/24
f 42/56/79 80/109/80 63/90/80
f 27/32/81 55/82/81 66/93/81
f 80/109/80 35/41/82 63/90/80
f 35/41/53 80/109/83 79/107/84
f 56/83/71 58/85/85 65/92/48
f 80/109/83 42/56/86 79/107/84
f 28/33/87 56/83/87 46/69/87
f 56/83/88 28/33/88 64/91/88
f 28/33/22 45/65/21 64/91/89
f 105/180/90 77/105/91 62/89/92
f 53/80/93 75/102/94 61/88/95
f 29/34/96 50/77/96 63/90/96
f 54/81/97 78/106/98 60/87/99
f 47/71/100 24/29/52 30/35/54
f 55/82/101 74/101/101 66/93/101
f 82/115/6 23/28/42 110/194/36
f 45/65/102 70/97/69 64/91/69
f 29/34/103 35/41/103 65/92/103
f 55/82/75 59/86/63 63/90/65
f 102/173/2 2/2/2 7/9/2
f 35/41/104 24/29/50 65/92/50
f 79/108/105 42/54/105 100/167/105
f 113/201/49 31/37/44 34/40/106
f 79/107/84 48/74/78 35/41/53
f 78/106/98 54/81/97 103/174/5
f 78/106/98 101/169/107 60/87/99
f 77/105/91 105/180/90 103/174/5
f 77/105/91 54/81/97 62/89/92
f 36/42/16 49/76/16 61/88/108
f 43/60/109 27/32/109 66/93/109
f 57/84/110 26/31/110 66/93/110
f 36/42/111 52/79/111 62/89/111
f 50/77/112 25/30/112 66/93/112
f 75/102/94 53/80/93 111/196/43
f 75/102/94 109/190/113 61/88/95
f 112/198/45 14/18/35 19/24/37
f 31/37/44 53/80/93 34/40/106
f 67/94/114 51/78/115 60/87/99
f 67/94/114 101/169/107 115/205/5
f 68/95/116 113/201/49 34/40/106
f 68/95/116 51/78/115 115/205/5
f 69/96/117 53/80/118 61/88/117
f 69/96/119 49/76/120 34/40/119
f 33/39/121 52/79/122 61/88/95
f 33/39/121 109/190/113 107/185/5
f 71/98/123 105/180/124 62/89/125
f 71/98/123 52/79/122 107/185/5
f 72/99/126 49/76/127 62/89/92
f 72/99/128 54/81/129 60/87/128
f 32/38/130 49/76/130 60/87/130
f 32/38/131 51/78/115 34/40/106
f 55/82/132 27/32/132 41/52/132
f 57/84/133 25/30/133 64/91/133
f 56/83/134 73/100/15 46/69/14
f 35/41/135 29/34/135 63/90/135
f 57/84/136 70/97/66 44/62/68
f 52/79/122 36/42/137 61/88/95
f 54/81/97 77/105/91 103/174/5
f 52/79/122 33/39/121 107/185/5
f 53/80/138 69/96/119 34/40/119
f 51/78/115 67/94/114 115/205/5
f 51/78/139 32/38/139 60/87/139
f 53/80/93 31/37/44 111/196/43
f 48/75/105 79/108/105 100/167/105
f 50/77/140 58/85/140 64/91/140
f 50/77/141 74/101/141 63/90/141
f 49/76/142 32/38/142 34/40/142
f 52/79/122 71/98/123 62/89/125
f 51/78/115 68/95/116 34/40/106
f 101/169/107 78/106/98 103/174/5
f 49/76/143 69/96/117 61/88/117
f 54/81/97 72/99/126 62/89/92
f 114/204/144 42/55/144 41/53/144
f 108/189/145 44/63/145 45/66/145
f 109/190/113 75/102/94 111/196/43
f 42/56/2 59/86/59 41/52/61
f 109/190/113 33/39/121 61/88/95
f 95/156/5 37/43/5 38/46/5
f 93/152/5 94/155/5 38/45/5
f 108/189/26 106/184/62 83/120/18
f 92/150/5 93/153/5 39/47/5
f 92/151/5 40/49/5 84/122/5
f 88/138/145 86/128/145 84/122/145
f 87/135/24 88/137/24 40/50/24
f 85/127/146 87/134/146 39/48/146
f 83/121/144 85/125/144 38/46/144
f 81/113/105 83/118/105 37/44/105
f 47/72/9 30/36/9 102/173/9
f 49/76/147 72/99/128 60/87/128
f 105/180/124 71/98/123 107/185/5
f 113/201/49 68/95/116 115/205/5
f 101/169/107 67/94/114 60/87/99
f 95/156/144 94/154/144 105/181/144
f 94/155/146 93/152/146 103/175/146
f 93/153/24 92/150/24 101/170/24
f 92/151/145 99/164/145 115/207/145
f 96/158/105 95/157/105 107/186/105
f 97/161/9 96/159/9 109/191/9
f 99/165/19 98/163/19 113/202/19
f 86/130/19 91/147/19 89/142/19
f 95/157/5 96/158/5 76/103/5
f 104/179/2 85/126/2 83/119/18
f 97/161/5 90/144/5 76/104/5
f 114/203/2 86/129/2 88/139/2
f 112/199/45 91/148/2 86/131/2
f 99/165/5 84/123/5 89/142/5
f 114/204/144 41/53/144 112/199/144
f 100/168/105 42/57/105 114/203/105
f 108/189/145 45/66/145 106/184/145
f 82/116/9 81/111/9 76/104/9
f 95/156/5 38/46/5 94/154/5
f 93/152/5 38/45/5 39/48/5
f 108/189/26 83/120/18 81/112/8
f 92/150/5 39/47/5 40/50/5
f 92/151/5 84/122/5 99/164/5
f 88/138/145 84/122/145 40/49/145
f 87/135/24 40/50/24 39/47/24
f 85/127/146 39/48/146 38/45/146
f 83/121/144 38/46/144 37/43/144
f 81/113/105 37/44/105 76/103/105
f 82/116/9 76/104/9 90/144/9
f 91/149/4 90/145/4 89/141/4
f 86/130/19 89/142/19 84/123/19
f 99/165/19 113/202/19 115/206/19
f 97/161/9 109/191/9 111/197/9
f 96/158/105 107/186/105 109/192/105
f 95/156/144 105/181/144 107/187/144
f 94/155/146 103/175/146 105/182/146
f 93/153/24 101/170/24 103/176/24
f 92/151/145 115/207/145 101/171/145
f 95/157/5 76/103/5 37/44/5
f 97/161/5 76/104/5 96/159/5
f 114/203/2 88/139/2 100/168/2
f 112/199/45 86/131/2 114/204/2
f 99/165/5 89/142/5 98/163/5
